<svg width="72" height="96" viewBox="0 0 72 96" fill="none" xmlns="http://www.w3.org/2000/svg">
<path d="M72 29.3V89.6C72 91.84 72 92.96 71.56 93.82C71.18 94.56 70.56 95.18 69.82 95.56C68.96 96 67.84 96 65.6 96H6.4C4.16 96 3.04 96 2.18 95.56C1.44 95.18 0.82 94.56 0.44 93.82C0 92.96 0 91.84 0 89.6V6.4C0 4.16 0 3.04 0.44 2.18C0.82 1.44 1.44 0.82 2.18 0.44C3.04 0 4.16 0 6.4 0H42.7C44.66 0 45.64 0 46.56 0.22C47.06 0.34 47.54 0.5 48 0.72V17.6C48 19.84 48 20.96 48.44 21.82C48.82 22.56 49.44 23.18 50.18 23.56C51.04 24 52.16 24 54.4 24H71.28C71.5 24.46 71.66 24.94 71.78 25.44C72 26.36 72 27.34 72 29.3Z" fill="#D3D6FD"/>
<path d="M68.26 20.26C69.64 21.64 70.32 22.32 70.82 23.14C71 23.42 71.14 23.7 71.28 24H54.4C52.16 24 51.04 24 50.18 23.56C49.44 23.18 48.82 22.56 48.44 21.82C48 20.96 48 19.84 48 17.6V0.719971C48.3 0.859971 48.58 0.999971 48.86 1.17997C49.68 1.67997 50.36 2.35997 51.74 3.73997L68.26 20.26Z" fill="#939BF9"/>
<path fill-rule="evenodd" clip-rule="evenodd" d="M36.72 51.8C36.04 50.58 35.06 49.64 33.78 48.98C32.5 48.32 30.98 48 29.2 48H19.48V72H25V64.04H29C30.82 64.04 32.38 63.7 33.7 63.04C35.02 62.38 36.02 61.44 36.7 60.26C37.4 59.08 37.74 57.7 37.74 56.14C37.74 54.46 37.4 53.02 36.72 51.8ZM32.08 56.14C32.08 57.38 31.74 58.32 31.04 58.98C30.34 59.62 29.34 59.94 28.02 59.94H25V52.58H28.34C29.5 52.58 30.42 52.88 31.08 53.48C31.74 54.08 32.08 54.96 32.08 56.14ZM39.9 66.2V70.46C41.92 71.84 44.2 72.52 46.7 72.56C48.18 72.56 49.5 72.32 50.62 71.82C51.74 71.34 52.6 70.64 53.22 69.76C53.84 68.88 54.14 67.86 54.14 66.72C54.14 64 52.6 62.3 49.54 61.62L47 61.04C46.4 60.88 45.96 60.7 45.68 60.44C45.4 60.18 45.26 59.88 45.26 59.52C45.26 59.1 45.44 58.76 45.84 58.54C46.24 58.32 46.82 58.2 47.62 58.2C48.6 58.2 49.56 58.34 50.52 58.64C51.48 58.94 52.38 59.36 53.2 59.92V55.86C51.42 54.76 49.38 54.2 47.1 54.2C45.62 54.2 44.32 54.42 43.22 54.88C42.12 55.34 41.28 55.98 40.7 56.8C40.12 57.62 39.82 58.6 39.82 59.7C39.82 60.96 40.2 62 40.94 62.8C41.68 63.6 42.82 64.18 44.32 64.56L46.8 65.22C47.44 65.4 47.9 65.62 48.18 65.88C48.46 66.14 48.6 66.46 48.6 66.86C48.6 67.4 48.4 67.82 47.96 68.1C47.52 68.38 46.92 68.52 46.16 68.52C45.2 68.52 44.14 68.3 42.98 67.88C41.82 67.44 40.8 66.9 39.9 66.2Z" fill="#5865F2"/>
</svg>
