<svg width="240" height="464" viewBox="0 0 240 464" fill="none" xmlns="http://www.w3.org/2000/svg">
<path opacity="0.16" d="M0 393.63V266C0 266 19 265 27 295C27 295 41 272 60 298C60 298 66 289 71 304C71 304 86 284 96 313V389L0 393.63Z" fill="white"/>
<path opacity="0.33" d="M14.77 241.27L14.17 242.85C14.17 242.85 14.17 242.9 14.17 242.85L15.75 242.25L17.33 242.85C17.33 242.85 17.39 242.85 17.38 242.85L16.77 241.27L17.38 239.69C17.38 239.69 17.38 239.69 17.33 239.69L15.75 240.3L14.17 239.69C14.17 239.69 14.11 239.69 14.17 239.69L14.77 241.27Z" fill="white"/>
<path opacity="0.39" d="M122.91 216L124.04 218.55C124.045 218.561 124.052 218.57 124.062 218.576C124.072 218.583 124.083 218.586 124.095 218.586C124.107 218.586 124.118 218.583 124.128 218.576C124.138 218.57 124.145 218.561 124.15 218.55L125.28 216L127.84 214.87C127.848 214.863 127.855 214.855 127.86 214.846C127.864 214.836 127.867 214.826 127.867 214.815C127.867 214.804 127.864 214.794 127.86 214.784C127.855 214.775 127.848 214.767 127.84 214.76L125.28 213.63L124.15 211C124.143 210.992 124.135 210.985 124.126 210.98C124.116 210.976 124.106 210.973 124.095 210.973C124.084 210.973 124.074 210.976 124.064 210.98C124.055 210.985 124.047 210.992 124.04 211L122.91 213.56L120.36 214.69C120.349 214.695 120.34 214.702 120.334 214.712C120.327 214.722 120.324 214.733 120.324 214.745C120.324 214.757 120.327 214.768 120.334 214.778C120.34 214.788 120.349 214.795 120.36 214.8L122.91 215.93V216Z" fill="white"/>
<path opacity="0.39" d="M52.91 266L54 268.52C54.0047 268.531 54.0124 268.54 54.0221 268.546C54.0319 268.553 54.0433 268.556 54.055 268.556C54.0667 268.556 54.0781 268.553 54.0879 268.546C54.0976 268.54 54.1053 268.531 54.11 268.52L55.28 266L57.84 264.87C57.8483 264.863 57.855 264.855 57.8597 264.846C57.8643 264.836 57.8667 264.826 57.8667 264.815C57.8667 264.804 57.8643 264.794 57.8597 264.784C57.855 264.775 57.8483 264.767 57.84 264.76L55.28 263.63L54.15 261C54.1434 260.992 54.1351 260.985 54.1256 260.98C54.116 260.976 54.1056 260.973 54.095 260.973C54.0844 260.973 54.074 260.976 54.0644 260.98C54.0549 260.985 54.0465 260.992 54.04 261L52.91 263.56L50.36 264.69C50.3493 264.695 50.3402 264.702 50.3338 264.712C50.3274 264.722 50.324 264.733 50.324 264.745C50.324 264.757 50.3274 264.768 50.3338 264.778C50.3402 264.788 50.3493 264.795 50.36 264.8L52.91 265.93V266Z" fill="white"/>
<path d="M30 351C30 351 3 349 6 386C4.76512 382.793 2.69325 379.975 0 377.84L0 404.94H75V327C74 327 41 305 30 351Z" fill="#54A18A"/>
<path d="M30 351C30 351 3 349 6 386C4.76512 382.793 2.69325 379.975 0 377.84L0 387.32C3.20563 387.967 6.25956 389.215 9 391C9.13 389.3 9.3 387.68 9.5 386.14C11.08 383.56 16.19 376 22 376C22 376 16.17 373.42 11.81 375C18.2 353.93 32 356 32 356C41 335 71 343 71 343L74 336L75 334.67V327C74 327 41 305 30 351Z" fill="#5EB58B"/>
<path d="M187 206L196 188L216 178L226 146L240 137V196.85L187 206Z" fill="#BF6974"/>
<path d="M40 415L0 405L3 398L56 374L81.06 306.54L84.65 304.15L100 305L135 290L146 255L148 243L163 232L166 215L173 203L240 188V410.65L40 415Z" fill="#874A52"/>
<path d="M0 406V464H240V405L0 406Z" fill="#964B55"/>
<path d="M0 464H74L71 427L48 413H0V464Z" fill="#964B55"/>
<path d="M32 464L34 444L14 427L7 412L32 413C33.54 410.95 74.43 438.53 74 436L71 431L74 440L73 454.5L69 464H32Z" fill="#9E525C"/>
<path d="M198 194L219 189C219 189 222 173 230 179C230 179 235 161.44 240 160.72V190L199 200L198 194Z" fill="#5EB58B"/>
<path d="M195 205C201.627 205 207 199.627 207 193C207 186.373 201.627 181 195 181C188.373 181 183 186.373 183 193C183 199.627 188.373 205 195 205Z" fill="#57A58E"/>
<path d="M207 176C205.15 181.71 193.5 182.16 193.5 182.16C193.5 182.16 187.24 175.01 189.09 169.3C190.94 163.59 195.91 160.09 200.19 161.47C204.47 162.85 208.85 170.29 207 176Z" fill="#57A58E"/>
<path d="M213 161.45C210.28 165.51 201.3 164.28 201.3 164.28C201.3 164.28 196.72 156.46 199.44 152.39C202.16 148.32 207.39 147.05 211.14 149.55C214.89 152.05 215.74 157.38 213 161.45Z" fill="#57A58E"/>
<path d="M203.91 143.18C206.45 146.28 203.35 153.03 203.35 153.03C203.35 153.03 196.13 154.76 193.59 151.66C191.05 148.56 191.29 144.15 194.14 141.81C196.99 139.47 201.36 140.08 203.91 143.18Z" fill="#57A58E"/>
<path d="M186.77 165.42C189.67 166.79 189.77 172.73 189.77 172.73C189.77 172.73 185.14 176.45 182.25 175.08C179.36 173.71 177.08 169.39 178.34 166.72C179.6 164.05 183.88 164.05 186.77 165.42Z" fill="#57A58E"/>
<path d="M207 193C206.998 190.412 206.16 187.894 204.61 185.822C203.06 183.749 200.882 182.233 198.4 181.5C201.82 180.76 205.96 179.21 207 176C208.25 172.14 206.65 167.49 204.16 164.46C207.03 164.46 211.3 164.04 213.03 161.46C214.009 160.052 214.559 158.39 214.614 156.676C214.669 154.962 214.227 153.268 213.34 151.8C212.62 153.8 211.88 156.17 211.42 157.63C211.288 158.064 211.059 158.462 210.751 158.794C210.442 159.127 210.063 159.385 209.64 159.55L201 163L204 170L202 175L197 178L196 183L196.32 185.59C196.405 186.267 196.345 186.954 196.145 187.606C195.944 188.258 195.607 188.859 195.156 189.371C194.704 189.883 194.15 190.293 193.528 190.573C192.906 190.854 192.232 191 191.55 191H188V196C188 196 185.91 197 184.07 197.94C184.773 199.497 185.801 200.886 187.084 202.014C188.367 203.141 189.876 203.982 191.51 204.48L203.86 201.07C205.875 198.865 206.994 195.987 207 193Z" fill="#4F967C"/>
<path d="M142 412L113 417L102 419L90.51 417L73 446L88.73 464H163.4L159 434L154 424L161 422L164 416L172 409L153 410L142 412Z" fill="#A1525C"/>
<path opacity="0.53" d="M240 190V402L66 403L101 383L165 327L191 246L203 237C203.56 236.58 203.18 230.69 203.54 230.1L209 221L208 212L211 201.86L240 190Z" fill="#784060"/>
<path d="M41 412L25 413L34 432C35.62 435.25 46.55 437.71 45 441L57 456L53 464H58.68H112C112 464 80 457 87 456C88.4 455.8 88 441 88 441L89 431L95 429L102 420L64.62 414.61L41 412Z" fill="#AB5964"/>
<path d="M78.67 419C76.7483 421.019 75.5339 423.607 75.2093 426.375C74.8847 429.143 75.4675 431.942 76.87 434.35L79 438L85 448L83.81 453.93C83.5772 455.101 83.736 456.316 84.2619 457.387C84.7877 458.459 85.6515 459.328 86.72 459.86L92 461L103 464H114L98 458L90 454L91 447L95 442C95 442 94.29 433.14 96 432L99 430L109 419H78.67Z" fill="#B36570"/>
<path d="M163.04 408.84L234 406L221 439L149 438L146 421L163.04 408.84Z" fill="#964A54"/>
<path d="M179.7 166C180.661 165.402 181.346 164.447 181.604 163.345C181.863 162.243 181.674 161.083 181.08 160.12L173.82 164.62C174.418 165.581 175.373 166.265 176.475 166.524C177.577 166.783 178.737 166.594 179.7 166Z" fill="#C9547E"/>
<path d="M173 203L240 188V192.21L221.56 198.21C219.913 198.741 218.53 199.878 217.69 201.39L216.14 204.19C215.503 205.338 214.547 206.277 213.389 206.894C212.23 207.512 210.918 207.781 209.61 207.67L203.61 207.17C202.557 207.085 201.5 207.246 200.52 207.64L192 211L186.94 213.25C185.762 213.775 184.459 213.954 183.183 213.769C181.907 213.583 180.71 213.039 179.73 212.2C178.645 211.269 177.293 210.703 175.868 210.583C174.443 210.462 173.016 210.794 171.79 211.53L166 215L173 203Z" fill="#81C793"/>
</svg>
