<svg width="89" height="80" viewBox="0 0 89 80" fill="none" xmlns="http://www.w3.org/2000/svg">
<path d="M83.5026 1.0838C83.5026 0.485236 83.0173 0 82.4188 0C81.8202 0 81.335 0.485236 81.335 1.0838V2.18567C81.335 2.78424 81.8202 3.26948 82.4188 3.26948C83.0173 3.26948 83.5026 2.78424 83.5026 2.18567V1.0838Z" fill="#5AE6DC"/>
<path d="M83.5026 9.81427C83.5026 9.2157 83.0173 8.73047 82.4188 8.73047C81.8202 8.73047 81.335 9.2157 81.335 9.81427V10.9161C81.335 11.5147 81.8202 11.9999 82.4188 11.9999C83.0173 11.9999 83.5026 11.5147 83.5026 10.9161V9.81427Z" fill="#5AE6DC"/>
<path d="M87.4162 7.10511C88.0148 7.10511 88.5 6.61987 88.5 6.0213C88.5 5.42274 88.0148 4.9375 87.4162 4.9375H86.3143C85.7158 4.9375 85.2305 5.42274 85.2305 6.0213C85.2305 6.61987 85.7158 7.10511 86.3143 7.10511H87.4162Z" fill="#5AE6DC"/>
<path d="M78.6857 7.04505C79.2843 7.04505 79.7695 6.55981 79.7695 5.96125C79.7695 5.36268 79.2843 4.87744 78.6857 4.87744H77.5839C76.9853 4.87744 76.5001 5.36268 76.5001 5.96125C76.5001 6.55981 76.9853 7.04505 77.5839 7.04505H78.6857Z" fill="#5AE6DC"/>
<path d="M8.86261 75.843L11.986 74.8013C12.1394 74.731 12.2694 74.6181 12.3605 74.4761C12.4516 74.334 12.5 74.1688 12.5 74C12.5 73.8312 12.4516 73.666 12.3605 73.5239C12.2694 73.3819 12.1394 73.269 11.986 73.1987L8.86261 72.157C8.64925 72.0606 8.47838 71.8897 8.38207 71.6762L7.26084 68.5511C7.20818 68.3908 7.10626 68.2512 6.96964 68.1522C6.83302 68.0533 6.66866 68 6.49999 68C6.33133 68 6.16698 68.0533 6.03036 68.1522C5.89374 68.2512 5.79182 68.3908 5.73916 68.5511L4.61793 71.6762C4.52162 71.8897 4.35075 72.0606 4.13739 72.157L1.01396 73.1987C0.860602 73.269 0.730643 73.3819 0.639534 73.5239C0.548425 73.666 0.5 73.8312 0.5 74C0.5 74.1688 0.548425 74.334 0.639534 74.4761C0.730643 74.6181 0.860602 74.731 1.01396 74.8013L4.13739 75.843C4.25083 75.8774 4.35403 75.9393 4.43785 76.0232C4.52167 76.107 4.58352 76.2103 4.61793 76.3238L5.73916 79.4489C5.79182 79.6092 5.89374 79.7488 6.03036 79.8478C6.16698 79.9467 6.33133 80 6.49999 80C6.66866 80 6.83302 79.9467 6.96964 79.8478C7.10626 79.7488 7.20818 79.6092 7.26084 79.4489L8.38207 76.3238C8.41648 76.2103 8.47834 76.107 8.56215 76.0232C8.64597 75.9393 8.74917 75.8774 8.86261 75.843Z" fill="#FFD01A"/>
<path d="M65.0632 25.5039H23.9368C22.0387 25.5039 20.5 27.0426 20.5 28.9407V59.5858C20.5 61.4839 22.0387 63.0226 23.9368 63.0226H65.0632C66.9613 63.0226 68.5 61.4839 68.5 59.5858V28.9407C68.5 27.0426 66.9613 25.5039 65.0632 25.5039Z" fill="#FFD836"/>
<path d="M44.5 47.68L20.5 32.0704V36.6016L42.9832 51.1936C43.432 51.4941 43.9599 51.6545 44.5 51.6545C45.0401 51.6545 45.568 51.4941 46.0168 51.1936L68.5 36.6016V32.0704L44.5 47.68Z" fill="#FFB713"/>
<path d="M64 33C68.6944 33 72.5 29.1944 72.5 24.5C72.5 19.8056 68.6944 16 64 16C59.3056 16 55.5 19.8056 55.5 24.5C55.5 29.1944 59.3056 33 64 33Z" fill="#4F81FF"/>
<path d="M62.7002 29.4592C62.2915 29.4615 61.8984 29.3029 61.6058 29.0176L58.3226 25.7152C58.0578 25.423 57.9156 25.0402 57.9253 24.6461C57.935 24.2519 58.0959 23.8766 58.3747 23.5978C58.6535 23.319 59.0288 23.158 59.423 23.1483C59.8172 23.1386 60.2 23.2809 60.4922 23.5456L62.7002 25.7536L67.5962 20.8384C67.8874 20.55 68.2807 20.3882 68.6906 20.3882C69.1004 20.3882 69.4937 20.55 69.785 20.8384C70.0722 21.1264 70.2335 21.5165 70.2335 21.9232C70.2335 22.33 70.0722 22.7201 69.785 23.008L63.7754 29.0176C63.634 29.1583 63.4662 29.2697 63.2817 29.3455C63.0972 29.4213 62.8996 29.4599 62.7002 29.4592Z" fill="white"/>
</svg>
