<svg width="240" height="464" viewBox="0 0 240 464" fill="none" xmlns="http://www.w3.org/2000/svg">
<path d="M67.12 415.5C66.99 415.64 53.88 429.66 45.83 427.2C42.75 426.25 40.73 422.83 39.83 417.03L39.5 414.92L38.09 416.52C30.52 425.11 9.09 446.52 0.87 442.52C0.557232 442.363 0.265021 442.168 0 441.94V444.32C10 449.21 32.07 426.13 38.23 419.32C39.42 424.73 41.77 428.01 45.23 429.07C54.47 431.9 67.99 417.44 68.57 416.82L67.12 415.5Z" fill="#9069C9"/>
<path d="M20.78 459.34C28.6556 459.34 35.04 452.956 35.04 445.08C35.04 437.204 28.6556 430.82 20.78 430.82C12.9044 430.82 6.51999 437.204 6.51999 445.08C6.51999 452.956 12.9044 459.34 20.78 459.34Z" fill="#B78AFA"/>
<path d="M6.53 445.15C9.2 446.58 13.38 445.76 16.77 442.89C20.77 439.46 22.19 434.42 19.83 431.62C19.6116 431.368 19.3669 431.14 19.1 430.94C18.91 430.94 18.73 430.94 18.55 431C15.187 431.535 12.1264 433.256 9.92175 435.851C7.71712 438.446 6.514 441.745 6.53 445.15Z" fill="#C4A0FA"/>
<path d="M22.49 452.65C18.68 453.25 15.87 455.5 16.21 457.65C16.2752 458.031 16.4294 458.39 16.66 458.7C18.9373 459.404 21.3558 459.52 23.6901 459.038C26.0245 458.555 28.1986 457.49 30.01 455.94C30.025 455.79 30.025 455.64 30.01 455.49C29.67 453.31 26.3 452 22.49 452.65Z" fill="#9069C9"/>
<path d="M94.9739 340.545C98.8002 338.336 100.913 334.831 99.6921 332.717C98.4715 330.603 94.3802 330.68 90.5538 332.889C86.7275 335.098 84.6151 338.603 85.8356 340.717C87.0562 342.831 91.1475 342.754 94.9739 340.545Z" fill="#E4E4E4"/>
<path d="M94.9751 335.54C98.8014 333.331 100.977 329.935 99.8333 327.955C98.6901 325.975 94.6614 326.16 90.8351 328.37C87.0088 330.579 84.8337 333.975 85.9769 335.955C87.1201 337.935 91.1488 337.749 94.9751 335.54Z" fill="#E4E4E4"/>
<path d="M95.9711 331.546C99.7975 329.337 101.973 325.941 100.829 323.961C99.6861 321.981 95.6575 322.166 91.8311 324.375C88.0048 326.585 85.8297 329.981 86.9729 331.961C88.1161 333.941 92.1448 333.755 95.9711 331.546Z" fill="#E4E4E4"/>
<path d="M136.01 335.6C136.01 335.47 136.01 332.27 135.82 329.72C135.37 324.72 131.17 319.18 120.05 322.27C120.05 322.27 133.05 331.27 127.05 338.27L136.01 335.6Z" fill="#B1B1B1"/>
<path d="M129.268 329.525C130.235 327.851 128.886 325.263 126.255 323.744C123.624 322.225 120.708 322.351 119.742 324.025C118.775 325.699 120.124 328.287 122.755 329.806C125.386 331.325 128.302 331.199 129.268 329.525Z" fill="#B1B1B1"/>
<path d="M140.01 381.81C139.949 381.74 139.918 381.648 139.925 381.555C139.932 381.462 139.975 381.376 140.045 381.315C140.115 381.254 140.207 381.223 140.3 381.23C140.393 381.237 140.479 381.28 140.54 381.35L144.54 384.96C144.76 384.7 144.99 384.44 145.2 384.16C146.453 382.49 147.004 380.397 146.735 378.327C146.466 376.257 145.398 374.374 143.76 373.08L129.94 362.17L110.94 370.17L112.62 387.8C112.724 388.832 113.147 389.806 113.83 390.588C114.512 391.369 115.421 391.918 116.43 392.16C117.51 392.42 118.8 392.67 120.24 392.87L119.02 386.27C119.014 386.206 119.029 386.143 119.064 386.089C119.099 386.036 119.151 385.996 119.212 385.976C119.272 385.956 119.338 385.957 119.398 385.98C119.457 386.003 119.508 386.045 119.54 386.1L122.9 393.1C129.14 393.54 137.1 392.55 143.09 386.53L140.01 381.81Z" fill="#D8D8DD"/>
<path d="M111.51 284.77C110.993 299.902 111.521 315.051 113.09 330.11" stroke="#CFCFCF" stroke-width="11.24" stroke-miterlimit="10"/>
<path d="M103.81 351.13C103.81 351.13 94.12 335.57 103.63 324.33L106.22 323.47C106.22 323.47 107.81 329.47 108.68 329.47L110.92 322.12L122.01 321.22C122.01 321.22 122.01 331.22 129.01 330.22C129.01 330.22 132.01 333.22 124.92 353.12L103.81 351.13Z" fill="#484482"/>
<path d="M108.7 329.35V329.52L108.03 322.27L101.03 324.27C91.52 335.51 103.83 351.13 103.83 351.13H104.13L109.43 343.47L108.7 329.35Z" fill="#413D75"/>
<path d="M109.41 343.49L123.92 353.17L103.82 351.13L109.41 343.49Z" fill="#3A385B"/>
<path d="M116.92 332.17C118.025 332.17 118.92 331.275 118.92 330.17C118.92 329.065 118.025 328.17 116.92 328.17C115.815 328.17 114.92 329.065 114.92 330.17C114.92 331.275 115.815 332.17 116.92 332.17Z" fill="#737093"/>
<g style="mix-blend-mode:multiply" opacity="0.32">
<path d="M116.92 352.17C116.92 352.17 121.92 340.17 128.3 340.25C128.74 340.25 124.92 354.17 124.92 354.17L106.42 353.67L116.92 352.17Z" fill="#3A385B"/>
</g>
<path d="M87.17 408.45H103.17C103.624 408.45 104.058 408.27 104.379 407.949C104.7 407.629 104.88 407.194 104.88 406.74V382.17L99.56 379.93L99.01 396.11C98.9718 397.376 98.5286 398.596 97.7457 399.591C96.9627 400.587 95.8812 401.305 94.66 401.64C91.446 402.402 88.5236 404.084 86.25 406.48C86.1036 406.655 86.0101 406.868 85.9805 407.095C85.9509 407.321 85.9865 407.551 86.0831 407.758C86.1797 407.965 86.3332 408.14 86.5258 408.262C86.7183 408.385 86.9418 408.45 87.17 408.45Z" fill="#3A3445"/>
<path d="M97.17 378.47L95.93 380.47C95.7519 380.773 95.653 381.116 95.6424 381.467C95.6318 381.818 95.7098 382.166 95.8692 382.479C96.0287 382.792 96.2645 383.059 96.5547 383.257C96.845 383.455 97.1804 383.576 97.53 383.61L106.93 384.61C107.247 384.637 107.567 384.588 107.861 384.467C108.156 384.346 108.417 384.156 108.624 383.913C108.83 383.671 108.975 383.382 109.048 383.072C109.12 382.762 109.118 382.439 109.04 382.13L108.92 380.22L97.17 378.47Z" fill="#9395A6"/>
<path d="M128.7 384.84L133.6 397.71C133.757 398.116 133.827 398.551 133.807 398.986C133.786 399.422 133.675 399.848 133.48 400.237C133.285 400.627 133.011 400.972 132.675 401.249C132.339 401.527 131.949 401.732 131.53 401.85C129.07 402.54 125.86 403.85 124.02 406.32C123.874 406.52 123.786 406.757 123.766 407.005C123.747 407.252 123.796 407.5 123.909 407.72C124.022 407.941 124.194 408.126 124.406 408.255C124.618 408.384 124.862 408.451 125.11 408.45H140.6C140.91 408.45 141.216 408.374 141.49 408.229C141.765 408.084 142 407.875 142.175 407.619C142.35 407.363 142.461 407.068 142.496 406.76C142.532 406.452 142.492 406.139 142.38 405.85L133.88 384L128.7 384.84Z" fill="#3A3445"/>
<path d="M125.24 383.11V384.52C125.241 384.863 125.32 385.202 125.472 385.51C125.624 385.817 125.845 386.086 126.118 386.295C126.39 386.503 126.707 386.647 127.044 386.714C127.381 386.78 127.728 386.769 128.06 386.68L134.45 384.98C134.83 384.878 135.176 384.678 135.454 384.399C135.732 384.121 135.932 383.774 136.033 383.394C136.135 383.014 136.134 382.614 136.032 382.234C135.929 381.854 135.729 381.508 135.45 381.23L134.75 380.52L125.24 383.11Z" fill="#B6B7C6"/>
<path d="M103.92 353.17C103.66 353.9 83.83 378.66 102.55 381.78C116.92 384.17 121.45 362.85 114.68 353.92L103.92 353.17Z" fill="#9395A6"/>
<path d="M110.54 353.72C110.54 353.72 107.95 385.72 129.54 383.11C129.54 383.11 144.24 382.25 132.13 365.82L128.71 355.62L110.54 353.72Z" fill="#B6B7C6"/>
<path d="M136.41 357.43C135.33 354.74 130.72 353.34 128.63 352.74L127.91 352.42C127.039 352.034 126.102 351.817 125.15 351.78L103.67 350.98C103.324 350.972 102.986 351.087 102.716 351.305C102.447 351.523 102.264 351.83 102.2 352.17L101.99 353.43C101.956 353.629 101.964 353.832 102.014 354.028C102.064 354.223 102.155 354.405 102.281 354.563C102.406 354.721 102.564 354.85 102.743 354.943C102.922 355.035 103.119 355.089 103.32 355.1L125.38 356.3C125.069 358.091 125.277 359.934 125.98 361.61C127.58 365.61 131.21 367.9 134.09 366.75C136.97 365.6 138.01 361.42 136.41 357.43Z" fill="#ED9836"/>
<path d="M136.41 357.43C135.33 354.74 130.72 353.34 128.63 352.74L128.57 352.68C128.121 354.336 128.23 356.093 128.88 357.68C130.26 361.22 133.67 363.2 136.5 362.09C136.721 362 136.935 361.893 137.14 361.77C137.225 360.287 136.976 358.804 136.41 357.43Z" fill="#E0851B"/>
<path d="M120.42 371.67C120.42 371.67 128.42 379.67 133.42 372.67C133.42 372.67 132.42 385.67 120.42 371.67Z" fill="#AAACBE"/>
<path d="M127.08 370.72C126.61 369.83 130.72 373.32 133.01 371.65C133.01 371.65 129.42 375.14 127.08 370.72Z" fill="#AAACBE"/>
<path d="M105.74 289.32C105.74 291.97 105.67 295.4 105.74 299.37L116.97 293.42C116.97 289.07 117.08 285.92 117.12 284.65L105.74 289.32Z" fill="#ADADAD"/>
<path d="M126.8 263.76C125.8 266.27 119.87 274 119.87 274C119.87 274 120.95 264.33 121.96 261.82C122.97 259.31 124.87 257.71 126.2 258.25C127.53 258.79 127.8 261.25 126.8 263.76Z" fill="#CACACA"/>
<path d="M116.01 290.618C122.967 287.023 126.171 279.395 123.166 273.581C120.161 267.767 112.086 265.968 105.128 269.564C98.1713 273.159 94.9671 280.787 97.9718 286.601C100.977 292.415 109.052 294.214 116.01 290.618Z" fill="white"/>
<path d="M136.43 272.67C133.03 273.8 119.56 272.62 119.56 272.62C119.56 272.62 129.64 263.62 133.04 262.46C136.44 261.3 139.95 262.7 140.89 265.52C141.83 268.34 139.83 271.54 136.43 272.67Z" fill="white"/>
<path d="M130.63 279.88C128.01 279 120.01 272.56 120.01 272.56C120.01 272.56 130.29 272.03 132.92 272.88C135.55 273.73 137.19 276 136.56 277.93C135.93 279.86 133.27 280.74 130.63 279.88Z" fill="white"/>
<path d="M95.01 279.27C95.01 279.27 102.01 291.27 107.57 282.27L95.01 279.27Z" fill="#F5B41B"/>
<path d="M107.57 282.23C114.66 283.23 121.01 279.85 121.75 274.65C121.909 273.477 121.782 272.283 121.38 271.17C117.63 267.36 110.98 266.55 105.12 269.58C101.932 271.175 99.3852 273.81 97.9 277.05C100.354 279.936 103.808 281.786 107.57 282.23Z" fill="#5AE6DC"/>
<path d="M107.57 282.23C106.972 280.355 106.008 278.618 104.734 277.118C103.461 275.618 101.903 274.385 100.15 273.49C100.15 273.49 91.78 276.83 79.15 276.24C77.7405 276.173 76.3514 276.597 75.22 277.44L75.05 277.57L107.57 282.23Z" fill="#F5CD1B"/>
<path d="M113.374 279.786C114.553 279.066 115.335 278.2 115.122 277.852C114.909 277.503 113.781 277.803 112.603 278.523C111.425 279.243 110.642 280.109 110.855 280.458C111.068 280.807 112.196 280.506 113.374 279.786Z" fill="black"/>
<path d="M87.7119 278.181C87.7508 277.908 87.3392 277.623 86.7924 277.545C86.2457 277.467 85.7708 277.626 85.7319 277.899C85.6929 278.173 86.1046 278.457 86.6513 278.535C87.1981 278.613 87.6729 278.455 87.7119 278.181Z" fill="#BD9E15"/>
<path d="M96.33 340.05C96.33 340.05 98.98 341.37 103.01 343.27C115.01 348.95 138.59 357.14 135.78 329.72C135.78 329.72 130.14 349.44 100.09 325.96L92.57 327.84L96.33 340.05Z" fill="#E4E4E4"/>
<path d="M103.01 343.27C103.01 343.27 94.01 330.39 109.12 318.27C120.18 309.4 110.01 302.27 107.36 302.79C107.36 302.79 107.94 282.84 101.41 304.86C101.41 304.86 96.76 316.55 93.5 321.02C93 321.7 91.38 324.55 91.01 325.31C88.28 330.89 81.63 348 103.01 343.27Z" fill="white"/>
<path d="M120.51 211.27C139.288 211.27 154.51 196.048 154.51 177.27C154.51 158.492 139.288 143.27 120.51 143.27C101.732 143.27 86.51 158.492 86.51 177.27C86.51 196.048 101.732 211.27 120.51 211.27Z" fill="white"/>
<path opacity="0.75" d="M89.51 232.27C94.7567 232.27 99.01 228.017 99.01 222.77C99.01 217.523 94.7567 213.27 89.51 213.27C84.2633 213.27 80.01 217.523 80.01 222.77C80.01 228.017 84.2633 232.27 89.51 232.27Z" fill="white"/>
<path opacity="0.5" d="M105.51 253.27C107.995 253.27 110.01 251.255 110.01 248.77C110.01 246.285 107.995 244.27 105.51 244.27C103.025 244.27 101.01 246.285 101.01 248.77C101.01 251.255 103.025 253.27 105.51 253.27Z" fill="white"/>
</svg>
