<svg width="200" height="140" viewBox="0 0 200 140" fill="none" xmlns="http://www.w3.org/2000/svg">
<g clip-path="url(#clip0)">
<path d="M178.717 92.4501C176.365 91.5189 174.271 90.0381 172.61 88.1316C170.948 86.225 169.768 83.9482 169.167 81.4917C163.117 56.8667 153.567 10.5084 138.333 8.33339C120.833 5.83339 118.517 32.6084 113.333 53.3334C109.167 70.0001 100.833 77.1501 97.5 74.1667C81.6667 60.0001 72.5 79.1667 72.5 79.1667C72.5 79.1667 65.8333 35.0001 50.8333 35.0001C37.5 35.0001 41.1583 79.3084 25.8333 72.5001C3.33333 62.5001 0 139.167 0 139.167H200C200 139.167 200.692 101.075 178.717 92.4501Z" fill="#5960FA"/>
<path d="M32.4999 43.3332C21.1083 43.1749 15.8333 36.2665 15.8333 36.2665C20.5833 37.8249 23.3333 36.6665 23.3333 36.6665C19.4333 33.5499 18.2083 26.9082 18.2083 26.9082C26.0083 34.7082 33.0999 35.3832 33.0999 35.3832L32.4999 43.3332Z" fill="#5960FA"/>
<path d="M33.2332 34.1665C33.2332 34.1665 30.7332 53.4582 33.7999 71.3832" stroke="#373BE1" stroke-width="1.87" stroke-miterlimit="10" stroke-linecap="round"/>
<path d="M51.7333 127.5L47.0583 139.167H63.425C63.5858 138.522 63.5798 137.848 63.4075 137.206C63.2352 136.565 62.9024 135.978 62.4404 135.501C61.9784 135.024 61.4025 134.673 60.767 134.48C60.1315 134.287 59.4574 134.26 58.8083 134.4C57.0006 134.855 55.1531 135.134 53.2917 135.233L56.4083 127.5H51.7333Z" fill="#73DAFF"/>
<path d="M23.7833 106.167L11.45 103.625L13.5333 123.575C16.425 123.775 18.9916 118.9 18.2083 115.783C17.6333 113.467 16.4833 109.95 16.3916 109.075L24.6083 110.742L23.7833 106.167Z" fill="#73DAFF"/>
<path d="M58.2167 71.3084C58.75 70.5667 61.8667 63.55 55.6333 62.7667C45.95 61.5584 48.5417 69.075 36.4667 67.4834C24.3917 65.8917 22.7333 74.5334 30.2083 78.7834L58.2167 71.3084Z" fill="#FFE734"/>
<path d="M19.9998 57.5C19.2384 57.7853 18.5468 58.2304 17.9719 58.8054C17.3969 59.3803 16.9518 60.0719 16.6665 60.8333C18.3332 60.8333 29.1665 63.3333 29.9998 75.8333L30.8332 75C30.8332 75 27.4998 58.3333 19.9998 57.5Z" fill="#22C774"/>
<path d="M30.2833 77.4165C30.2833 77.4165 27.9083 63.6249 17.8333 56.6665C17.8333 56.6665 16.6666 49.1665 25.3333 50.3332C25.3333 50.3332 34.1166 66.4999 33.1999 78.4749L30.2833 77.4165Z" fill="#57EBA0"/>
<path d="M31.5665 77.625C31.5665 77.625 29.9998 61.6667 34.9998 55.8334C34.9998 55.8334 40.8332 55 41.1415 60.3167C35.7748 65.6 33.9998 73.0084 33.7665 78.8L31.5665 77.625Z" fill="#FF6CBA"/>
<path d="M32.6665 77.2166C32.6665 77.2166 32.3415 58.8833 39.1665 53.3333C39.7791 53.8329 40.3056 54.4297 40.7249 55.0999C41.6746 56.5443 42.0133 58.3063 41.6665 59.9999C41.6665 59.9999 37.3249 62.7083 34.4999 73.0249L32.6665 77.2166Z" fill="#FF85C6"/>
<path d="M37.9999 71.5333C36.7759 71.4086 35.541 71.6159 34.4249 72.1333C31.6582 73.425 26.3249 75.9833 24.5499 77.3166C23.595 77.9407 22.8162 78.7994 22.288 79.8105C21.7598 80.8216 21.4999 81.9514 21.5332 83.0916V85.5L19.5249 86.7083C17.6082 87.8583 16.6665 89.2083 17.8582 92.4833C18.9749 95.5083 20.2415 99.725 23.6915 100.967C27.1415 102.208 44.9582 97.1833 46.2999 96.2917L47.0832 92.3917L51.6665 72.9L37.9999 71.5333Z" fill="#FFE734"/>
<path d="M95.8915 34.0832L90.6415 32.4166C90.2824 32.2997 89.8927 32.3202 89.5479 32.4742C89.2031 32.6281 88.9276 32.9045 88.7749 33.2499C88.251 34.6229 87.8739 36.0475 87.6499 37.4999C87.1332 36.6666 87.2582 34.2499 87.3915 32.8166C87.4031 32.6794 87.3844 32.5414 87.3369 32.4122C87.2893 32.2831 87.214 32.1659 87.1163 32.069C87.0186 31.9721 86.9008 31.8977 86.7713 31.8513C86.6417 31.8048 86.5036 31.7872 86.3665 31.7999L85.0665 31.9166C84.8792 31.9274 84.6995 31.9944 84.5509 32.1088C84.4022 32.2233 84.2915 32.3799 84.2332 32.5582C83.5249 34.7249 84.1582 40.3999 84.1582 40.3999L82.4915 38.6666C82.4106 38.5904 82.3153 38.5311 82.2112 38.4923C82.1071 38.4535 81.9962 38.4359 81.8852 38.4405C81.7741 38.4452 81.6652 38.472 81.5646 38.5194C81.4641 38.5668 81.3741 38.6338 81.2999 38.7166L80.5415 39.6166C80.4273 39.763 80.3653 39.9434 80.3653 40.1291C80.3653 40.3148 80.4273 40.4951 80.5415 40.6416L82.2082 42.8082C82.5901 43.3203 82.82 43.9296 82.8716 44.5663C82.9232 45.203 82.7943 45.8414 82.4999 46.4082L78.9499 53.2416C77.0253 56.956 74.3131 60.2056 71.0026 62.7633C67.6921 65.321 63.8632 67.1252 59.7832 68.0499L48.6582 70.5499L54.0749 78.3332L66.0165 73.6666C72.3947 71.1624 77.6695 66.4639 80.8915 60.4166L88.3915 46.4166H88.5082L93.9915 42.6832L96.8165 36.0166C96.8951 35.8299 96.9332 35.6287 96.9283 35.4263C96.9234 35.2239 96.8757 35.0248 96.7883 34.8421C96.7009 34.6594 96.5758 34.4974 96.4213 34.3666C96.2667 34.2358 96.0861 34.1392 95.8915 34.0832Z" fill="#1A9AF5"/>
<path d="M65.2333 66.2C63.4726 67.0074 61.6319 67.6274 59.7416 68.05L52.325 69.7167L54.825 76.7917L56.9583 77.2084L66.0166 73.6667C67.0255 73.2717 68.0105 72.8181 68.9666 72.3084C69.6583 67.45 65.7083 65.9917 65.2333 66.2Z" fill="#373BE1"/>
<path d="M52.6165 91.2249C52.6165 91.2249 61.0832 96.2915 64.2082 101.75C66.2582 105.333 60.4832 122.092 58.5665 127.408C58.3872 127.904 58.084 128.346 57.6859 128.692C57.2877 129.037 56.8077 129.275 56.2915 129.383L48.6165 129.808C43.9332 129.808 53.2915 110.325 56.4082 105.642L47.0582 98.6249L40.0415 93.1749L52.6165 91.2249Z" fill="#0822A5"/>
<path d="M36.6084 88.5167C33.9621 89.6442 31.1804 90.4229 28.3334 90.8333C28.3334 90.8333 36.5084 84.2833 39.25 79.9167C40.4334 78.0333 40.9167 76.475 40.8084 75.2417C40.6917 73.575 40.0334 71.3417 38.475 71.8667C35.5167 72.8583 28.8667 77.7 22.5834 89.15C16.5334 100.175 28.7917 96.5167 37.5834 92.8833" fill="#1A9AF5"/>
<path d="M58.7501 68.2249C58.7501 68.2249 41.2501 71.2832 38.7501 71.7999H38.6417H38.4584C36.3667 72.4999 32.4417 75.1332 28.1084 80.6332C28.1084 80.6332 29.8834 83.7498 34.5917 85.2082C35.7207 84.1383 36.7916 83.009 37.8001 81.8249L40.0167 93.1082L52.5917 91.1582L56.9334 84.9915C58.9515 82.1429 60.0242 78.7325 60.0001 75.2415C59.8503 72.8629 59.4309 70.5089 58.7501 68.2249Z" fill="#373BE1"/>
<path d="M43.1582 86.5248V83.0915C43.1572 82.7305 43.2384 82.374 43.3958 82.0491C43.5532 81.7242 43.7826 81.4394 44.0665 81.2165L46.4332 79.3165C46.8197 79.017 47.2882 78.8422 47.7765 78.8154C48.2647 78.7886 48.7496 78.9111 49.1665 79.1665C50.0807 79.715 50.7989 80.5376 51.2193 81.5173C51.6396 82.4971 51.7407 83.5844 51.5082 84.6248L51.1582 86.2248C50.9632 87.0987 50.4766 87.8801 49.7783 88.4405C49.0801 89.0009 48.2119 89.3069 47.3165 89.3082H44.9999L43.1582 86.5248Z" fill="#1A9AF5"/>
<path d="M33.4083 34.7083C34.4852 34.7083 35.3583 33.8353 35.3583 32.7583C35.3583 31.6814 34.4852 30.8083 33.4083 30.8083C32.3313 30.8083 31.4583 31.6814 31.4583 32.7583C31.4583 33.8353 32.3313 34.7083 33.4083 34.7083Z" fill="#373BE1"/>
<path d="M41.3749 71.3082C41.3749 71.3082 46.7916 74.3165 47.0416 82.4332C47.0405 82.6072 46.9907 82.7775 46.8979 82.9247C46.8052 83.072 46.6731 83.1904 46.5166 83.2665C46.3946 83.3283 46.2605 83.3626 46.1239 83.3669C45.9872 83.3712 45.8512 83.3454 45.7256 83.2913C45.6 83.2373 45.4878 83.1563 45.397 83.0541C45.3061 82.9518 45.2389 82.8309 45.1999 82.6998C44.3666 80.0415 41.5999 72.0832 36.5249 72.7665C36.5249 72.8082 37.4999 69.9998 41.3749 71.3082Z" fill="#FFB800"/>
<path d="M56.1665 68.6832C57.7165 69.9332 61.9332 73.8832 58.7498 81.7832C58.7498 81.7832 66.1582 75.5665 59.3082 68.0249C58.9665 67.6582 57.4998 66.6665 56.1665 68.6832Z" fill="#FFB800"/>
<path d="M37.6001 92.8832C41.9751 91.0749 45.4917 89.2749 45.4917 89.2749L44.7167 84.5999C42.1 86.0766 39.3917 87.3848 36.6084 88.5165" fill="#1A9AF5"/>
<path d="M45.7334 72.3417C45.7917 73.6834 46.275 75.2417 48.6167 76.8C48.6167 76.8 51.7334 75.2417 51.7334 73.6834C51.7334 73.6834 53.2917 76.025 55.6334 76.025C55.6334 76.025 56.4084 69.7834 51 69.2834C50.4036 69.2389 49.8047 69.2389 49.2084 69.2834C47.1917 69.3834 45.6417 70.325 45.7334 72.3417Z" fill="#0822A5"/>
<path d="M48.9165 69.325C49.6582 67.9333 50.4082 66.3833 51.0999 64.875C51.7915 63.3667 52.4332 61.8083 53.0582 60.25C54.2894 57.1394 55.363 53.9687 56.2749 50.75C56.7582 49.1583 57.1082 47.5333 57.5332 45.925C57.7249 45.0917 57.8749 44.3083 58.0499 43.4917L58.2999 42.2833L58.4999 41.0583C59.0482 37.8302 59.3961 34.5712 59.5415 31.3V31.15C59.6012 30.1168 60.0689 29.1495 60.8417 28.4611C61.6145 27.7727 62.6291 27.4195 63.6624 27.4792C64.6956 27.5388 65.6628 28.0065 66.3512 28.7793C67.0396 29.5521 67.3929 30.5667 67.3332 31.6C67.3332 31.6833 67.3332 31.7833 67.3332 31.875C66.9094 35.4545 66.2581 39.0033 65.3832 42.5L65.0749 43.8083L64.7082 45.1C64.4582 45.9333 64.2249 46.8167 63.9665 47.6667C63.4082 49.3333 62.8832 51.05 62.2499 52.6667C61.0249 56 59.6582 59.2583 58.0832 62.425C57.3082 64.0167 56.5082 65.5833 55.6665 67.1333L55.0915 68.175C54.4165 69.375 53.7332 70.5417 52.9582 71.7583C52.6253 72.2718 52.1077 72.6376 51.5125 72.7799C50.9173 72.9222 50.2902 72.8301 49.761 72.5227C49.2319 72.2153 48.8413 71.7161 48.6701 71.1286C48.4989 70.541 48.5603 69.9102 48.8415 69.3667L48.9165 69.325Z" fill="#1A9AF5"/>
<path d="M37.825 81.8916C38.6412 80.7555 39.3817 79.5668 40.0416 78.3333C40.8166 81.4499 38.475 85.1833 38.475 85.1833L37.825 81.8916Z" fill="black"/>
<path d="M66.2832 38.5333C66.5166 37.0416 61.9083 35.4833 61.0833 34.7083C61.0833 34.7083 62.6499 40.1582 65.7249 41.3749C65.9082 40.5666 66.1082 39.6166 66.2832 38.5333Z" fill="black"/>
<path d="M67.3249 38.5999C71.6281 38.5999 75.1165 35.1115 75.1165 30.8083C75.1165 26.505 71.6281 23.0166 67.3249 23.0166C63.0216 23.0166 59.5332 26.505 59.5332 30.8083C59.5332 35.1115 63.0216 38.5999 67.3249 38.5999Z" fill="#1A9AF5"/>
<path d="M69.6548 36.9427C71.369 36.4424 72.2632 34.3391 71.652 32.245C71.0408 30.1508 69.1557 28.8587 67.4415 29.359C65.7273 29.8593 64.8331 31.9625 65.4443 34.0567C66.0555 36.1509 67.9406 37.4429 69.6548 36.9427Z" fill="#99E4FF"/>
<path d="M78.6298 32.6356C79.1551 30.6757 78.4446 28.7824 77.0428 28.4067C75.641 28.0309 74.0788 29.3151 73.5535 31.2749C73.0281 33.2347 73.7387 35.1281 75.1405 35.5038C76.5422 35.8796 78.1045 34.5954 78.6298 32.6356Z" fill="#99E4FF"/>
<path d="M66.8498 32.9917C67.1439 32.7815 67.4839 32.6444 67.8415 32.5917C68.2197 32.5432 68.6041 32.5919 68.9582 32.7334C69.2976 32.8826 69.6058 33.0947 69.8665 33.3584C70.1106 33.6115 70.3259 33.891 70.5082 34.1917C70.5695 34.2831 70.6121 34.3856 70.6338 34.4935C70.6554 34.6014 70.6556 34.7125 70.6344 34.8204C70.6131 34.9284 70.5707 35.0311 70.5098 35.1227C70.4488 35.2142 70.3704 35.2929 70.279 35.3542C70.1876 35.4155 70.0851 35.4582 69.9772 35.4798C69.8693 35.5015 69.7582 35.5017 69.6503 35.4804C69.5424 35.4591 69.4397 35.4168 69.3481 35.3558C69.2565 35.2948 69.1778 35.2164 69.1165 35.125C69.075 35.0628 69.0414 34.9956 69.0165 34.925C68.9507 34.7116 68.8642 34.505 68.7582 34.3084C68.6611 34.1371 68.5373 33.9823 68.3915 33.85C68.2434 33.734 68.0687 33.6567 67.8832 33.625C67.6758 33.6019 67.4659 33.6217 67.2665 33.6834H67.1832C67.0949 33.7131 66.9989 33.7097 66.9129 33.6738C66.827 33.6378 66.7571 33.5719 66.7163 33.4882C66.6755 33.4045 66.6665 33.3088 66.6911 33.2189C66.7157 33.1291 66.7721 33.0513 66.8498 33V32.9917Z" fill="black"/>
<path d="M77.2333 31.7583C77.0237 31.7539 76.8158 31.7966 76.6249 31.8833C76.4499 31.96 76.2998 32.0841 76.1916 32.2416C76.0841 32.4109 76.0053 32.5967 75.9583 32.7916C75.9113 33.0137 75.8862 33.2397 75.8833 33.4666C75.8238 33.6347 75.712 33.7792 75.5644 33.879C75.4167 33.9788 75.2409 34.0287 75.0628 34.0212C74.8847 34.0137 74.7137 33.9494 74.5749 33.8376C74.4361 33.7258 74.3368 33.5724 74.2916 33.4C74.2837 33.3391 74.2837 33.2775 74.2916 33.2166C74.3816 32.8896 74.5015 32.5716 74.6499 32.2666C74.8207 31.949 75.0497 31.6663 75.3249 31.4333C75.6159 31.1929 75.9626 31.0296 76.3333 30.9583C76.6871 30.9002 77.0496 30.9259 77.3916 31.0333C77.4403 31.0467 77.4858 31.0697 77.5254 31.1011C77.5649 31.1324 77.5978 31.1714 77.6219 31.2158C77.646 31.2602 77.6609 31.3089 77.6658 31.3592C77.6706 31.4095 77.6652 31.4602 77.6499 31.5083C77.6265 31.5897 77.5773 31.6614 77.5097 31.7125C77.442 31.7636 77.3597 31.7913 77.2749 31.7916L77.2333 31.7583Z" fill="black"/>
<path d="M77.0834 18.3333C75.3667 18.3333 73.75 18.4916 72.7833 19.8916L70.8334 22.2833C69.4 24.0833 66.35 27.1166 64.9333 28.5083C66.8894 27.8431 68.7828 27.0065 70.5917 26.0083C71.1786 25.6815 71.8697 25.5962 72.5184 25.7704C73.1671 25.9447 73.7225 26.3648 74.0667 26.9416C76.0797 25.7573 77.791 24.1229 79.0667 22.1666C79.3 21.7977 79.4328 21.3742 79.4517 20.9382C79.4706 20.5021 79.375 20.0687 79.1744 19.6811C78.9739 19.2934 78.6753 18.9651 78.3085 18.7286C77.9416 18.4921 77.5192 18.3558 77.0834 18.3333Z" fill="#FF4DAB"/>
<path d="M69.2083 22.2417H67.325C63.4333 22.2417 60.2166 25.875 59.6333 29.6084C61.3336 29.4791 63.0123 29.1461 64.6333 28.6167L64.9333 28.5167C66.35 27.125 69.4 24.0917 70.8333 22.2917L69.2083 22.2417Z" fill="#FF85C6"/>
<path d="M51.2084 81.4082C51.2675 82.0537 51.1372 82.7023 50.8334 83.2749C50.3471 84.0368 49.6009 84.5964 48.7334 84.8499C48.5434 84.8894 48.3752 84.9987 48.262 85.1562C48.1487 85.3137 48.0987 85.508 48.1217 85.7006C48.1447 85.8933 48.2392 86.0703 48.3864 86.1966C48.5336 86.323 48.7228 86.3896 48.9167 86.3832C48.9775 86.3919 49.0392 86.3919 49.1 86.3832C49.9791 86.137 50.7818 85.6727 51.4334 85.0332L51.525 84.6165C51.7716 83.5411 51.6604 82.4146 51.2084 81.4082Z" fill="#0087E8"/>
<path d="M25.1 90.8332C25.6079 90.9039 26.1204 90.9373 26.6333 90.9332C27.2013 90.9308 27.7689 90.8974 28.3333 90.8332C28.4999 90.6999 29.5333 89.8582 30.9249 88.6499C29.1257 89.2748 27.2111 89.4967 25.3166 89.2999C25.2158 89.2821 25.1124 89.2846 25.0126 89.3074C24.9127 89.3302 24.8185 89.3728 24.7354 89.4326C24.6523 89.4924 24.582 89.5683 24.5287 89.6557C24.4754 89.7431 24.4401 89.8403 24.425 89.9416C24.4097 90.0446 24.4151 90.1496 24.441 90.2505C24.4668 90.3514 24.5124 90.4461 24.5753 90.5291C24.6381 90.6121 24.7169 90.6818 24.807 90.734C24.8971 90.7862 24.9967 90.82 25.1 90.8332Z" fill="black"/>
<path d="M48.9917 94.7332C48.9917 94.7332 53.4083 96.9832 55.3 104.825L47.0583 98.6248L48.9917 94.7332Z" fill="black"/>
<path d="M21.0166 109.892C20.5999 106.667 19.9999 103.333 22.1083 103.333C24.4499 103.333 36.1416 104.892 42.3749 107.233L40.0416 93.2L48.6166 93.975C51.5332 99.5333 50.6582 108.058 49.9666 112.308C49.3916 115.817 46.9083 117.192 42.7416 116.183C38.5749 115.175 26.9666 114.517 24.2166 113.875C21.4666 113.233 21.2582 111.767 21.0166 109.892Z" fill="#0822A5"/>
<path d="M45.1583 106.917C44.1772 106.302 43.1424 105.778 42.0667 105.35L42.375 107.183C43.0449 107.486 43.6936 107.834 44.3167 108.225C44.4444 108.304 44.5913 108.347 44.7416 108.35C44.9108 108.352 45.0758 108.298 45.2116 108.197C45.3474 108.096 45.4464 107.954 45.4936 107.791C45.5409 107.629 45.5336 107.455 45.4731 107.297C45.4126 107.14 45.302 107.006 45.1583 106.917Z" fill="black"/>
<path d="M47.0583 139.166H63.425C63.5529 138.657 63.5784 138.127 63.5 137.608H47.6667L47.0583 139.166Z" fill="#B0EAFF"/>
<path d="M13.5333 123.575C14.1412 123.601 14.742 123.435 15.25 123.1L13.4 104.025L11.45 103.625L13.5333 123.575Z" fill="#B0EAFF"/>
<path d="M61.6167 32.8082C61.6167 33.9415 61.8167 36.5665 64.4084 35.8415C64.443 35.831 64.4745 35.8119 64.4998 35.7861C64.5252 35.7603 64.5437 35.7285 64.5537 35.6937C64.5636 35.6589 64.5647 35.6222 64.5568 35.5868C64.5489 35.5515 64.5322 35.5187 64.5084 35.4915C63.9834 34.8915 62.6417 33.3748 62.0084 32.6665C61.9808 32.6284 61.9416 32.6003 61.8966 32.5865C61.8516 32.5727 61.8034 32.5738 61.7592 32.5898C61.715 32.6058 61.6771 32.6358 61.6514 32.6752C61.6257 32.7146 61.6135 32.7612 61.6167 32.8082Z" fill="black"/>
<path d="M62.2582 34.7081C62.1391 34.6953 62.019 34.6953 61.8999 34.7081C62.0368 35.1458 62.3385 35.5131 62.7413 35.7324C63.1441 35.9517 63.6163 36.0057 64.0582 35.8831C63.9073 35.5318 63.6559 35.2329 63.3357 35.0238C63.0155 34.8148 62.6406 34.705 62.2582 34.7081Z" fill="#FF85C6"/>
<path d="M52.9001 135.383C52.0667 135.458 51.8084 134.55 51.7334 133.717C51.6167 132.417 51.8751 130.283 55.6334 132.158C57.1917 132.942 57.4917 133.108 54.3751 135.092C54.1797 135.217 53.9563 135.291 53.7251 135.308L52.9001 135.383Z" fill="#B0EAFF"/>
<path d="M16.4083 109.292C16.2083 108.458 17.0833 108.083 17.8916 107.9C19.0666 107.625 21 107.9 19.45 110.4C19.2256 110.752 19.1178 111.166 19.1416 111.583C19.2416 112.758 17.3333 113.025 16.6416 110.067L16.4083 109.292Z" fill="#B0EAFF"/>
<path d="M26.1165 36.8083C25.0165 37.6417 22.6332 38.875 18.4165 38.7167C19.1845 39.3022 19.9919 39.8341 20.8332 40.3083C25.9498 39.8333 28.0415 37.325 28.1498 37.1833L28.7748 36.4083L27.8915 35.9333C25.9784 34.9053 24.4494 33.2857 23.5332 31.3167C22.7665 30.8 21.9665 30.2167 21.1498 29.5583C21.8283 32.5164 23.6032 35.1072 26.1165 36.8083Z" fill="#4950FA"/>
<path d="M150.9 99.7832C150.94 99.5395 150.925 99.2901 150.856 99.0529C150.788 98.8157 150.667 98.5967 150.504 98.4117C150.34 98.2267 150.138 98.0803 149.911 97.9832C149.684 97.886 149.438 97.8405 149.192 97.8498L141.25 97.9415C138.039 97.9641 134.95 99.172 132.575 101.333C132.225 101.658 132.025 101.875 132.025 101.875C130.223 104.025 128.849 106.5 127.975 109.167C127.9 109.386 127.866 109.618 127.875 109.85C127.897 110.083 127.997 110.302 128.159 110.471C128.321 110.641 128.535 110.75 128.767 110.783C129.577 110.832 130.39 110.832 131.2 110.783C132.033 110.833 132.475 111.7 133.442 111.45C133.612 111.409 133.77 111.327 133.901 111.211C134.032 111.095 134.131 110.948 134.192 110.783L135.15 107.358L135.65 108.833C135.694 108.979 135.783 109.108 135.904 109.201C136.025 109.294 136.172 109.346 136.325 109.35C136.629 109.341 136.927 109.263 137.196 109.122C137.465 108.98 137.699 108.78 137.879 108.535C138.059 108.29 138.18 108.007 138.234 107.708C138.289 107.408 138.274 107.101 138.192 106.808L137.667 105.608C137.544 105.151 137.52 104.672 137.597 104.205C137.674 103.737 137.849 103.292 138.112 102.897C138.374 102.503 138.718 102.169 139.12 101.918C139.522 101.667 139.972 101.505 140.442 101.442L149.25 101.258C149.658 101.257 150.051 101.106 150.355 100.834C150.659 100.562 150.853 100.188 150.9 99.7832Z" fill="#FF85C6"/>
<path d="M149.167 97.8499L144.858 97.8999C144.209 99.2631 143.264 100.465 142.092 101.417L149.225 101.267C149.449 101.263 149.671 101.215 149.876 101.125C150.082 101.036 150.268 100.907 150.424 100.746C150.58 100.584 150.703 100.394 150.785 100.185C150.867 99.9763 150.908 99.7534 150.904 99.529C150.9 99.3047 150.852 99.0833 150.763 98.8775C150.673 98.6717 150.544 98.4855 150.383 98.3296C150.222 98.1737 150.031 98.0511 149.823 97.9687C149.614 97.8864 149.391 97.846 149.167 97.8499Z" fill="black"/>
<path d="M131.25 108.767C131.25 108.767 132.025 105.642 133.583 104.083" stroke="#FF6CBA" stroke-width="1.87" stroke-miterlimit="10" stroke-linecap="round"/>
<path d="M157.75 61.9915C157.75 61.9915 175.683 56.5332 169.292 75.0415L157.75 61.9915Z" fill="#F6C649" stroke="#FFC42B" stroke-width="0.94" stroke-miterlimit="10"/>
<path d="M165 65.4416C169.858 72.6416 176.358 81.8583 168.1 82.8583C163.567 83.3999 157.267 81.6416 152.45 74.4416C147.633 67.2416 146 62.0833 150.517 56.7749C155.033 51.4666 160.167 58.2333 165 65.4416Z" fill="#FFE734"/>
<path d="M185.183 116.142C184.549 116.317 183.876 116.295 183.254 116.079C182.632 115.863 182.09 115.464 181.7 114.933C179.983 112.642 176.433 114.325 176.042 114.3C176.175 114.175 179.167 112.875 180.442 109.9C182.183 105.833 181.117 103.725 180.358 102.85C180.31 102.795 180.249 102.753 180.18 102.728C180.111 102.704 180.037 102.698 179.965 102.71C179.893 102.723 179.825 102.754 179.768 102.8C179.712 102.846 179.668 102.907 179.642 102.975C178.683 105.475 175.408 106.758 175.408 106.758C172.308 108 172.675 110.758 172.967 112.75C173.124 113.847 172.901 114.965 172.333 115.917C171.833 116.75 166.092 122.35 164 124.392C163.77 124.619 163.479 124.775 163.163 124.84C162.846 124.905 162.517 124.877 162.217 124.758L158.775 123.467C158.546 123.387 158.337 123.259 158.163 123.091C157.988 122.922 157.853 122.718 157.765 122.492C157.678 122.266 157.641 122.023 157.657 121.781C157.673 121.54 157.742 121.304 157.858 121.092C158.85 119.183 160.892 115.783 160.892 115.783C160.892 115.783 167.125 104.867 167.125 93.1748C167.908 73.6832 160.108 61.2082 152.317 62.7665C148.15 63.5998 147.2 67.5832 147.233 71.0998C147.233 71.3082 147.233 71.5165 147.233 71.7248V72.6998C147.233 73.2832 147.175 73.8665 147.117 74.4498C146.921 76.7814 146.396 79.0736 145.558 81.2582C144.928 82.8136 144.619 84.4803 144.65 86.1582C144.679 87.3299 144.907 88.4881 145.325 89.5832C146.296 91.9665 146.693 94.5445 146.484 97.1095C146.276 99.6745 145.468 102.155 144.125 104.35C142.842 106.354 141.208 108.11 139.3 109.533C129.875 116.567 129.725 119.675 137.517 132.15H166.358C166.358 132.15 173.233 120.408 174.925 119.033C175.492 118.575 176 118.408 176.35 118.758C180.092 122.517 184.1 118.942 185.725 117C185.804 116.915 185.852 116.806 185.863 116.691C185.874 116.576 185.846 116.46 185.784 116.362C185.723 116.264 185.63 116.19 185.521 116.15C185.413 116.11 185.294 116.107 185.183 116.142Z" fill="#FF85C6"/>
<path d="M160.875 115.783H134.367C142.942 123.575 157.375 122 157.842 121.092C158.833 119.167 160.875 115.783 160.875 115.783Z" fill="black"/>
<path d="M139.267 109.533C136.45 111.633 134.467 113.383 133.275 115.133C137.808 117.708 151.517 122.792 163.208 117.342C163.808 116.317 166.933 105.167 167.1 93.6582C167.1 93.6582 145.708 101.85 144.092 104.35C142.809 106.354 141.174 108.111 139.267 109.533Z" fill="#FFC42B"/>
<path d="M156.275 83.4582C156.373 83.4589 156.468 83.4283 156.547 83.371C156.626 83.3137 156.685 83.2326 156.715 83.1396C156.744 83.0465 156.744 82.9464 156.713 82.8538C156.681 82.7613 156.622 82.681 156.542 82.6249C154.967 81.7415 154.325 80.0249 153.75 78.6915C153.231 77.2178 152.833 75.7045 152.558 74.1665C152.192 72.6499 151.433 68.8415 149.025 69.3415C147.808 69.5999 147.617 71.2415 147.15 73.5082C147.15 73.8332 147.15 74.1665 147.083 74.4915C146.9 76.4915 151.667 82.7499 156.275 83.4582Z" fill="black"/>
<path d="M160.803 76.5091C160.972 74.8192 160.5 73.3885 159.749 73.3134C158.998 73.2383 158.252 74.5473 158.083 76.2371C157.914 77.927 158.386 79.3578 159.137 79.4328C159.888 79.5079 160.634 78.1989 160.803 76.5091Z" fill="white"/>
<path d="M159.458 76.2748C159.567 75.1165 159.275 74.1415 158.783 73.9832C158.383 74.6708 158.144 75.44 158.083 76.2332C157.979 76.931 157.96 77.6389 158.025 78.3415C158.099 78.363 158.174 78.3797 158.25 78.3915C159.233 78.4915 159.333 77.4998 159.458 76.2748Z" fill="black"/>
<path d="M163.154 82.0923C163.299 80.6498 162.896 79.4284 162.255 79.3643C161.614 79.3002 160.977 80.4176 160.833 81.8602C160.688 83.3028 161.091 84.5241 161.732 84.5882C162.374 84.6524 163.01 83.5349 163.154 82.0923Z" fill="white"/>
<path d="M162 81.8834C162.1 80.9 161.842 80.0667 161.425 79.9333C161.085 80.522 160.882 81.1802 160.833 81.8584C160.74 82.451 160.723 83.0531 160.783 83.65C160.846 83.6726 160.91 83.6893 160.975 83.7C161.817 83.7834 161.9 82.9334 162 81.8834Z" fill="black"/>
<path d="M167.05 125.708C167.123 125.514 167.115 125.298 167.029 125.109C166.944 124.92 166.786 124.773 166.592 124.7L164.483 123.908L163.983 124.392C163.785 124.582 163.543 124.72 163.278 124.794C163.014 124.869 162.735 124.876 162.467 124.817L166.042 126.158C166.13 126.19 166.223 126.207 166.317 126.208C166.475 126.209 166.63 126.161 166.761 126.072C166.892 125.983 166.993 125.856 167.05 125.708Z" fill="black"/>
<path d="M144.025 111.267C141.739 112.96 139.709 114.975 138 117.25C138.492 117.433 139.008 117.608 139.542 117.783C141.123 115.792 142.958 114.016 145 112.5C149.333 109.125 150.408 103.475 150.675 100.525C150.092 100.792 149.533 101.058 149.008 101.358C148.6 104.167 147.45 108.6 144.025 111.267Z" fill="#FFB800"/>
<path d="M161.5 102.542C161.399 102.56 161.303 102.599 161.218 102.656C161.132 102.713 161.059 102.786 161.002 102.871C160.945 102.957 160.906 103.053 160.887 103.154C160.868 103.254 160.87 103.358 160.892 103.458C161.908 108.558 158.258 115.583 155.892 119.467C156.567 119.375 157.25 119.25 157.933 119.1C160.375 114.933 163.442 108.267 162.417 103.15C162.397 103.05 162.357 102.954 162.3 102.869C162.243 102.784 162.17 102.711 162.085 102.655C162 102.598 161.904 102.559 161.804 102.54C161.703 102.52 161.6 102.521 161.5 102.542Z" fill="#FFB800"/>
<path d="M157.217 101.008C157.119 100.976 157.016 100.963 156.914 100.971C156.812 100.978 156.712 101.006 156.62 101.053C156.529 101.099 156.448 101.163 156.381 101.242C156.315 101.32 156.264 101.41 156.233 101.508C156.233 101.592 153.442 110.167 151.633 113.025C150.667 114.567 148.792 117.267 147.225 119.492C147.817 119.558 148.408 119.617 149.008 119.667C150.458 117.592 152.058 115.275 152.958 113.833C154.858 110.808 157.6 102.317 157.717 101.958C157.774 101.766 157.754 101.559 157.661 101.381C157.567 101.203 157.408 101.07 157.217 101.008Z" fill="#FFB800"/>
<path d="M168.667 107.208C167.108 102.525 167.108 99.4083 167.108 93.1749C167.192 91.1333 167.175 89.1833 167.108 87.3416C163.242 86.1916 155.442 98.6583 146.1 92.2249C146.313 94.3641 146.313 96.5191 146.1 98.6583C145.083 101.992 140.742 105.325 140.642 105.675C148.167 110.725 163.208 110.325 168.667 107.208Z" fill="#2F33E1"/>
<path d="M167.108 93.8916L163.667 94.2916C163.667 94.2916 163.933 99.2249 167.358 101.283C167.143 98.8256 167.059 96.3582 167.108 93.8916Z" fill="black"/>
<path d="M163.667 94.2915C163.733 94.6364 163.873 94.9629 164.077 95.2489C164.281 95.5349 164.544 95.7737 164.848 95.9492C165.153 96.1247 165.491 96.2326 165.841 96.2658C166.19 96.299 166.543 96.2566 166.875 96.1415L176.792 92.6832C179.312 91.8108 181.618 90.4102 183.554 88.5749C185.489 86.7397 187.011 84.5122 188.017 82.0415C188.192 81.6082 188.283 81.3582 188.283 81.3582C189.783 76.8907 190.56 72.2123 190.583 67.4998C190.584 67.1642 190.525 66.8312 190.408 66.5165C190.263 66.2119 190.02 65.9646 189.718 65.8137C189.416 65.6627 189.072 65.6168 188.742 65.6832C187.908 65.7498 186.642 66.5165 185.45 66.8248C184.258 67.1332 183.292 66.1582 182.117 66.9332C181.906 67.0695 181.732 67.254 181.607 67.4714C181.482 67.6888 181.411 67.9328 181.4 68.1832L181.583 75.1082C181.577 75.2026 181.543 75.2931 181.484 75.3674C181.426 75.4418 181.346 75.4967 181.256 75.5247C181.165 75.5527 181.068 75.5526 180.978 75.5244C180.888 75.4961 180.808 75.441 180.75 75.3665L179.583 73.4332C179.5 73.2959 179.368 73.1949 179.214 73.1501C179.059 73.1054 178.894 73.1201 178.75 73.1915C178.334 73.3922 177.966 73.6793 177.67 74.0338C177.374 74.3882 177.158 74.8018 177.034 75.2468C176.911 75.6918 176.885 76.1579 176.956 76.614C177.028 77.0701 177.196 77.5057 177.45 77.8915L179.075 80.3915C179.446 80.9571 179.692 81.5953 179.798 82.2636C179.903 82.932 179.864 83.615 179.684 84.2672C179.504 84.9194 179.188 85.5258 178.755 86.0458C178.322 86.5659 177.784 86.9877 177.175 87.2832L165.275 91.5498C164.73 91.7494 164.272 92.132 163.979 92.6322C163.686 93.1323 163.575 93.7189 163.667 94.2915Z" fill="#FF85C6"/>
<path d="M185.833 69.0083C186.256 72.4132 185.987 75.8684 185.042 79.1666" stroke="#FF6CBA" stroke-width="1.87" stroke-miterlimit="10" stroke-linecap="round"/>
<path d="M185.183 116.142C184.548 116.317 183.876 116.295 183.254 116.079C182.632 115.863 182.09 115.464 181.7 114.933C180.283 113.05 177.625 113.85 176.508 114.183C176.433 114.183 176.391 114.1 176.458 114.058C178.199 113.134 179.596 111.673 180.441 109.892C182.183 105.817 181.108 103.708 180.358 102.842C180.31 102.786 180.249 102.744 180.18 102.72C180.111 102.696 180.037 102.689 179.965 102.702C179.892 102.714 179.825 102.745 179.768 102.792C179.712 102.838 179.668 102.898 179.642 102.967C178.683 105.467 175.408 106.75 175.408 106.75C172.308 107.992 172.675 110.75 172.967 112.742C173.124 113.838 172.9 114.956 172.333 115.908C172.135 116.204 171.912 116.483 171.667 116.742C172.504 116.155 173.388 115.637 174.308 115.192C174.393 115.156 174.486 115.143 174.578 115.154C174.669 115.166 174.756 115.201 174.83 115.257C174.903 115.313 174.961 115.387 174.996 115.472C175.032 115.557 175.045 115.65 175.033 115.742C174.841 117.292 173.033 120.55 173.233 121.125C173.715 120.382 174.273 119.692 174.9 119.067C175.467 118.608 175.975 118.442 176.325 118.792C180.066 122.55 184.075 118.975 185.7 117.033C185.792 116.953 185.853 116.844 185.872 116.723C185.892 116.603 185.87 116.48 185.809 116.375C185.748 116.269 185.652 116.188 185.538 116.146C185.424 116.103 185.298 116.102 185.183 116.142Z" fill="#FF5EB3"/>
<path d="M154.167 88.2748C154.167 88.2748 156.9 90.0415 158.033 86.6082" stroke="#FF6CBA" stroke-width="1.65" stroke-miterlimit="10" stroke-linecap="round"/>
<path d="M153.333 90.8332C153.333 90.8332 155 91.6666 155.517 89.0833" stroke="#FF6CBA" stroke-width="1.65" stroke-miterlimit="10" stroke-linecap="round"/>
<path d="M148.592 75.8333C148.592 75.8333 151.75 72.875 150.458 77.7L148.592 75.8333Z" fill="white"/>
<path d="M149.842 78.7249C149.842 78.7249 153 75.7666 151.708 80.5916L149.842 78.7249Z" fill="white"/>
<path d="M156.975 83.0415C156.875 83.9832 153.858 83.8165 149.958 76.7999C147.4 72.1999 145.283 74.2249 145.6 76.7999C145.785 78.1324 145.691 79.4887 145.325 80.7832C144.856 82.528 144.618 84.3266 144.617 86.1332C144.617 86.9165 155.45 86.1332 155.45 86.1332L159.308 83.7915L156.975 83.0415Z" fill="#FF85C6"/>
<path d="M146.283 125.142C146.283 125.142 144.233 128.817 141.1 125.608" stroke="#FF6CBA" stroke-width="1.65" stroke-miterlimit="10" stroke-linecap="round"/>
<path d="M148.85 126.9C148.85 126.9 146.867 128.625 145.425 126.475" stroke="#FF6CBA" stroke-width="1.65" stroke-miterlimit="10" stroke-linecap="round"/>
<path d="M157.917 96.6667C157.917 98.275 155.308 101.25 152.083 101.25C151.527 101.287 150.969 101.204 150.446 101.008C149.924 100.812 149.45 100.506 149.055 100.111C148.661 99.7169 148.355 99.2426 148.159 98.7204C147.962 98.1982 147.88 97.64 147.917 97.0833C148.017 95.475 148.858 97.0833 152.083 97.0833C155.308 97.0833 157.917 95.0583 157.917 96.6667Z" fill="#4247FF"/>
<path d="M108.417 24.675C107.905 24.3443 107.47 23.9089 107.14 23.3975C106.809 22.8861 106.591 22.3103 106.5 21.7083L106.192 19.6333C106.182 19.5838 106.157 19.5389 106.119 19.5057C106.081 19.4724 106.033 19.4528 105.983 19.45C105.933 19.4528 105.885 19.4724 105.847 19.5057C105.81 19.5389 105.784 19.5838 105.775 19.6333L105.467 21.7083C105.375 22.3103 105.157 22.8861 104.827 23.3975C104.496 23.9089 104.061 24.3443 103.55 24.675L103.283 24.85C103.251 24.8662 103.225 24.8914 103.207 24.9225C103.189 24.9536 103.181 24.9892 103.183 25.025C103.182 25.0616 103.191 25.0979 103.209 25.1301C103.226 25.1622 103.252 25.1892 103.283 25.2083L103.55 25.375C104.062 25.7065 104.498 26.1432 104.828 26.6561C105.159 27.1691 105.376 27.7465 105.467 28.35L105.775 30.425C105.784 30.4735 105.81 30.5174 105.848 30.5492C105.886 30.5811 105.934 30.599 105.983 30.6C106.033 30.599 106.08 30.5811 106.118 30.5492C106.156 30.5174 106.182 30.4735 106.192 30.425L106.5 28.3333C106.59 27.7298 106.808 27.1524 107.138 26.6395C107.468 26.1265 107.904 25.6898 108.417 25.3583L108.692 25.1916C108.72 25.1705 108.744 25.1429 108.759 25.111C108.775 25.0791 108.784 25.0439 108.783 25.0083C108.784 24.9737 108.777 24.9394 108.761 24.9087C108.744 24.878 108.721 24.852 108.692 24.8333L108.417 24.675Z" fill="#FF6CBA"/>
<path d="M150.483 40.45C150.132 40.224 149.833 39.9258 149.606 39.5752C149.379 39.2246 149.229 38.8297 149.167 38.4167L148.95 36.9917C148.946 36.9571 148.929 36.9252 148.903 36.9021C148.877 36.8791 148.843 36.8665 148.808 36.8667C148.774 36.8681 148.741 36.8813 148.715 36.9041C148.689 36.9269 148.672 36.9578 148.667 36.9917L148.458 38.4167C148.395 38.8295 148.245 39.2242 148.018 39.5747C147.791 39.9253 147.492 40.2236 147.142 40.45L146.958 40.5667C146.938 40.5804 146.921 40.599 146.909 40.6208C146.898 40.6426 146.892 40.667 146.892 40.6917C146.891 40.7153 146.897 40.7385 146.909 40.759C146.921 40.7795 146.938 40.7966 146.958 40.8084L147.142 40.9334C147.493 41.159 147.793 41.4571 148.02 41.8078C148.247 42.1584 148.396 42.5536 148.458 42.9667L148.667 44.3917C148.673 44.4248 148.69 44.4547 148.716 44.4761C148.742 44.4974 148.775 44.5089 148.808 44.5084C148.842 44.5108 148.876 44.5 148.902 44.4783C148.929 44.4566 148.946 44.4256 148.95 44.3917L149.167 42.9667C149.227 42.5541 149.375 42.1592 149.601 41.8085C149.826 41.4578 150.125 41.1594 150.475 40.9334L150.667 40.8084C150.687 40.7966 150.704 40.7795 150.716 40.759C150.727 40.7385 150.733 40.7153 150.733 40.6917C150.733 40.667 150.727 40.6426 150.716 40.6208C150.704 40.599 150.687 40.5804 150.667 40.5667L150.483 40.45Z" fill="#73DAFF"/>
<path d="M73.3333 50.3749C73.0481 50.1904 72.8069 49.9455 72.6269 49.6575C72.4469 49.3694 72.3324 49.0454 72.2916 48.7082L72.1166 47.5749C72.1128 47.5483 72.1 47.5238 72.0802 47.5056C72.0605 47.4874 72.0351 47.4765 72.0083 47.4749C71.98 47.4746 71.9526 47.4845 71.9311 47.5029C71.9097 47.5213 71.8956 47.5469 71.8916 47.5749L71.7249 48.7082C71.6809 49.0454 71.5643 49.3691 71.383 49.6568C71.2017 49.9446 70.9601 50.1896 70.6749 50.3749L70.5249 50.4665C70.5089 50.4777 70.4959 50.4927 70.4872 50.5101C70.4784 50.5276 70.4742 50.547 70.4749 50.5665C70.4742 50.586 70.4784 50.6054 70.4872 50.6229C70.4959 50.6404 70.5089 50.6554 70.5249 50.6665L70.6749 50.7582C70.9601 50.9435 71.2017 51.1884 71.383 51.4762C71.5643 51.7639 71.6809 52.0876 71.7249 52.4249L71.8916 53.5582C71.8956 53.5862 71.9097 53.6117 71.9311 53.6301C71.9526 53.6485 71.98 53.6585 72.0083 53.6582C72.0351 53.6565 72.0605 53.6457 72.0802 53.6275C72.1 53.6092 72.1128 53.5848 72.1166 53.5582L72.2916 52.4249C72.3324 52.0877 72.4469 51.7636 72.6269 51.4756C72.8069 51.1876 73.0481 50.9427 73.3333 50.7582L73.4833 50.6665C73.4993 50.6554 73.5123 50.6404 73.521 50.6229C73.5298 50.6054 73.534 50.586 73.5333 50.5665C73.534 50.547 73.5298 50.5276 73.521 50.5101C73.5123 50.4927 73.4993 50.4777 73.4833 50.4665L73.3333 50.3749Z" fill="#FBE573"/>
<path d="M178.683 58.9498C178.314 58.7113 178 58.397 177.761 58.0278C177.523 57.6586 177.365 57.2428 177.3 56.8082L177.075 55.3082C177.069 55.2729 177.051 55.2408 177.023 55.2179C176.995 55.195 176.961 55.1827 176.925 55.1832C176.889 55.1808 176.853 55.1924 176.825 55.2157C176.797 55.239 176.779 55.2721 176.775 55.3082L176.55 56.8082C176.484 57.2428 176.327 57.6586 176.089 58.0278C175.85 58.397 175.536 58.7113 175.167 58.9498L174.975 59.0748C174.954 59.0886 174.937 59.1072 174.926 59.129C174.914 59.1508 174.908 59.1751 174.908 59.1998C174.908 59.2245 174.914 59.2489 174.926 59.2707C174.937 59.2925 174.954 59.3111 174.975 59.3248L175.167 59.4498C175.536 59.6883 175.85 60.0026 176.089 60.3719C176.327 60.7411 176.484 61.1568 176.55 61.5915L176.775 63.0915C176.779 63.1276 176.797 63.1607 176.825 63.184C176.853 63.2072 176.889 63.2189 176.925 63.2165C176.961 63.217 176.995 63.2047 177.023 63.1817C177.051 63.1588 177.069 63.1268 177.075 63.0915L177.3 61.5915C177.365 61.1568 177.523 60.7411 177.761 60.3719C178 60.0026 178.314 59.6883 178.683 59.4498L178.875 59.3248C178.895 59.3111 178.912 59.2925 178.924 59.2707C178.936 59.2489 178.942 59.2245 178.942 59.1998C178.942 59.1751 178.936 59.1508 178.924 59.129C178.912 59.1072 178.895 59.0886 178.875 59.0748L178.683 58.9498Z" fill="#8086FF"/>
<path d="M87.4998 96.2915L84.1665 105.458C83.3795 107.661 83.1926 110.034 83.6248 112.333L87.1415 131.4H102.267C101.975 130.05 101.533 128.066 101.05 125.85C99.1915 117.433 96.8832 109.566 101.583 100.992L87.4998 96.2915Z" fill="#0822A5"/>
<path d="M97.7249 100L98.4332 107.792C98.5733 111.59 99.5312 115.314 101.242 118.708L108.742 131.417H125.55L116.183 116.667C114.237 113.354 113.364 109.52 113.683 105.692L113.9 103.083L97.7249 100Z" fill="#0822A5"/>
<path d="M88.3333 100C88.3333 100 95.8916 109.583 115.642 115L118.758 108.867C118.758 108.867 89.0999 103.625 88.3333 100Z" fill="black"/>
<path d="M83.3333 98.3332C93.7643 105.65 106.05 109.874 118.775 110.516L119.492 107.3L87.5916 94.7332L83.3333 98.3332Z" fill="#4247FF"/>
<path d="M100.833 74.4582C100.833 74.4582 99.2749 59.6498 101.933 51.4248C104.256 50.2794 106.876 49.8833 109.433 50.2915C109.433 50.2915 108.658 54.9748 109.433 56.5332C109.433 56.5332 113.35 47.4998 120.017 44.1665C120.017 44.1665 131.267 46.3998 134.383 56.5332C134.383 56.5332 129.708 58.0915 128.15 62.7665C128.15 62.7665 132.042 59.6498 136.725 59.6498C139.058 61.2082 141.4 65.8832 140.617 72.1498C137.916 71.6551 135.128 72.2127 132.825 73.7082C132.825 73.7082 137.5 73.7082 139.842 75.2665C139.277 78.2755 138.224 81.172 136.725 83.8415C136.725 83.8415 129.342 80.7248 121.725 83.8415L100.833 74.4582Z" fill="#40E991"/>
<path d="M114.875 107.983C114.875 107.983 95.7501 103.333 85.8334 96.4249C85.1988 95.9883 84.6861 95.397 84.3439 94.7068C84.0018 94.0167 83.8415 93.2506 83.8782 92.4812C83.9149 91.7118 84.1474 90.9645 84.5538 90.31C84.9601 89.6556 85.5267 89.1157 86.2001 88.7416C90.3667 86.5166 95.2917 83.5582 100.058 74.4583L125 89.2749C125 89.2749 125 97.0666 114.875 107.983Z" fill="#2F33E1"/>
<path d="M127.5 104.167C128.661 102.427 129.418 100.449 129.715 98.3779C130.012 96.3072 129.841 94.1963 129.217 92.2L129.167 92.025C128.141 88.7306 126.099 85.8455 123.333 83.7833C117.5 79.475 112.658 75.3083 98.2582 71.95C97.3815 71.7435 96.5902 71.2705 95.9933 70.596C95.3964 69.9215 95.0231 69.0786 94.9248 68.1833C94.5711 63.7856 94.7277 59.3617 95.3915 55C96.1665 47.9833 103.183 44.0833 103.183 44.0833C102.408 38.625 94.6082 37.0667 94.6082 37.0667C92.2665 39.4083 89.8748 44.8667 89.8748 44.8667C89.0998 43.3083 89.8748 40.1833 89.8748 40.1833L86.8165 40.9667C86.8165 40.9667 81.3582 68.25 83.6915 75.2667C86.3498 83.2333 96.1915 82.2833 96.1915 82.2833C96.1915 82.2833 122.7 94.7833 122.475 94.9916C114.333 103.4 111.958 110.375 111.275 113.967C111.129 114.741 111.247 115.541 111.61 116.241C111.972 116.94 112.558 117.498 113.275 117.825C120.4 121.083 124.258 116.583 124.258 116.583C124.142 116.433 124.033 116.275 123.933 116.117C123.315 115.084 123.007 113.896 123.045 112.693C123.084 111.49 123.467 110.324 124.15 109.333L127.5 104.167Z" fill="#2F33E1"/>
<path d="M95.3915 54.9998C96.1665 47.9832 103.183 44.0832 103.183 44.0832C102.408 38.6248 94.6082 36.2915 94.6082 36.2915C90.7082 39.4082 89.8749 44.8665 89.8749 44.8665C89.0999 43.3082 89.8749 40.1832 89.8749 40.1832L86.8165 40.9665C85.4016 44.0136 84.807 47.3773 85.0915 50.7248C92.2665 50.3165 95.3749 55.1082 95.3749 55.1082L95.3915 54.9998Z" fill="#40E991"/>
<path d="M112.241 68.5583C111.408 72.7833 111.408 76.35 110.433 76.15C109.458 75.95 107.825 72.0583 108.683 67.8167C109.541 63.575 112.55 60.6417 113.533 60.8417C114.516 61.0417 113.091 64.3417 112.241 68.5583Z" fill="white"/>
<path d="M111.667 62.3333C111.586 62.2947 111.498 62.2721 111.408 62.2666C110.182 63.6924 109.298 65.3799 108.825 67.1999C108.915 67.3785 109.061 67.5222 109.242 67.6083C110.008 67.9666 111.183 67.0666 111.85 65.6166C112.517 64.1666 112.45 62.6833 111.667 62.3333Z" fill="black"/>
<path d="M118.875 71.6665C116.058 74.9165 114.333 78.0415 113.575 77.3832C112.817 76.7248 113.317 72.5415 116.133 69.2915C118.95 66.0415 123.033 64.9498 123.792 65.6082C124.55 66.2665 121.667 68.4165 118.875 71.6665Z" fill="white"/>
<path d="M119.858 66.6667C119.79 66.5967 119.711 66.5377 119.625 66.4917C118.303 67.2024 117.121 68.1452 116.133 69.275C115.633 69.8477 115.189 70.4672 114.808 71.125C114.807 71.1472 114.807 71.1695 114.808 71.1917C115.467 71.925 117.125 71.5084 118.508 70.2584C119.892 69.0084 120.525 67.4167 119.858 66.6667Z" fill="black"/>
<path d="M118.775 76.9665C118.775 76.9665 123.4 71.1332 126.542 74.0665C129.683 76.9998 122.967 80.3082 118.775 76.9665Z" fill="black"/>
<path d="M121.208 78.1583C123.708 78.7833 126.358 77.8499 127.125 76.4916C126.458 76.1994 125.736 76.0517 125.008 76.0583C123.15 76.0249 121.6 76.9333 121.208 78.1583Z" fill="#FF85C6"/>
<path d="M100.833 74.4581L121.667 83.8165C123.533 83.0581 125.75 83.8165 127.108 82.5165C124.967 75.2415 120.292 79.1831 117.175 75.2415C110.25 66.5915 104.675 67.4498 100.392 67.8165C99.736 70.0115 99.8928 72.3692 100.833 74.4581Z" fill="#2F33E1"/>
<path d="M128.858 72.8833C129.349 73.4104 129.671 74.0721 129.782 74.7835C129.893 75.4948 129.789 76.2232 129.483 76.875" stroke="#22C774" stroke-width="1.87" stroke-miterlimit="10" stroke-linecap="round"/>
<path d="M125.075 83.3333C123.318 81.6276 121.294 80.2202 119.083 79.1666C118.897 79.1057 118.696 79.1166 118.517 79.197C118.339 79.2775 118.197 79.4218 118.12 79.6014C118.043 79.7811 118.035 79.9832 118.099 80.168C118.164 80.3528 118.295 80.5068 118.467 80.5999C120.071 81.361 121.57 82.3275 122.925 83.4749C123.65 83.3999 124.383 83.3999 125.075 83.3333Z" fill="black"/>
<path d="M100.208 72.4999C101.093 72.7334 101.936 73.1016 102.708 73.5916C102.836 73.6792 102.987 73.7257 103.142 73.7249C103.27 73.7245 103.397 73.6924 103.51 73.6313C103.624 73.5703 103.72 73.4822 103.792 73.3749C103.849 73.2905 103.889 73.1954 103.909 73.0953C103.93 72.9951 103.93 72.892 103.91 72.7918C103.889 72.6917 103.849 72.5966 103.792 72.5121C103.734 72.4276 103.661 72.3555 103.575 72.2999C102.474 71.614 101.265 71.1182 100 70.8333C100.025 71.3935 100.095 71.9508 100.208 72.4999Z" fill="black"/>
<path d="M98.6833 102.717C98.1859 102.238 97.7288 101.72 97.3167 101.167C96.6637 100.222 96.3016 99.1064 96.275 97.9582C96.2564 97.4233 96.3471 96.8902 96.5417 96.3916C97.05 95.1582 98.325 94.4166 99.675 93.6332C100.208 93.3249 100.75 93.0082 101.258 92.6499C103.542 91.0548 105.105 88.6234 105.608 85.8832C105.723 85.1657 105.798 84.4424 105.833 83.7166C105.883 83.0832 105.925 82.4916 106.017 81.8999C106.133 80.7632 106.66 79.708 107.5 78.9332C107.787 78.7272 108.091 78.546 108.408 78.3916C109.114 78.088 109.735 77.6159 110.217 77.0166C110.628 76.3541 110.874 75.6024 110.933 74.8249C110.933 74.6249 110.983 74.4332 111.025 74.2416C111.28 72.9401 111.971 71.7644 112.983 70.9082C112.55 70.5582 112.15 70.2499 111.692 69.9666C110.557 71.026 109.787 72.4175 109.492 73.9416C109.492 74.1499 109.417 74.3666 109.383 74.5832C109.353 75.1173 109.205 75.6382 108.95 76.1082C108.597 76.4955 108.165 76.8024 107.683 77.0082C107.29 77.2003 106.913 77.4261 106.558 77.6832C105.376 78.6917 104.632 80.12 104.483 81.6666C104.375 82.3249 104.325 82.9832 104.283 83.6249C104.246 84.2949 104.174 84.9625 104.067 85.6249C103.641 87.9574 102.315 90.0289 100.375 91.3916C99.9167 91.7082 99.4167 91.9999 98.8917 92.2999C97.3833 93.1832 95.8167 94.0916 95.1 95.8082C94.8243 96.5079 94.6938 97.2565 94.7167 98.0082C94.7488 99.3248 95.1345 100.609 95.8333 101.725C96.8583 102.158 97.8917 102.558 98.925 102.975L98.6833 102.717Z" fill="#4247FF"/>
<path d="M117.983 99.4416C119.324 97.4502 121.198 95.8763 123.392 94.8999" stroke="black" stroke-width="1.87" stroke-miterlimit="10" stroke-linecap="round"/>
<path d="M119.558 97.0667C117.992 93.95 119.208 89.8083 119.208 89.8083" stroke="black" stroke-width="1.87" stroke-miterlimit="10" stroke-linecap="round"/>
<path d="M124.117 109.325L124.692 108.492C124.692 108.492 123.333 102.533 116.2 102.658C116.2 102.658 114.917 104.683 114.4 105.625C113.82 106.714 113.049 107.691 112.125 108.508C110.785 109.632 109.202 110.429 107.5 110.833L109.417 114.217C110.053 114.071 110.682 113.893 111.3 113.683C111.3 113.858 111.233 114.025 111.208 114.183C111.08 114.873 111.18 115.586 111.495 116.214C111.809 116.841 112.32 117.348 112.95 117.658C120.267 121.183 124.233 116.558 124.233 116.558C124.129 116.425 124.031 116.286 123.942 116.142C123.308 115.11 122.987 113.917 123.018 112.707C123.049 111.497 123.43 110.322 124.117 109.325Z" fill="#40E991"/>
<path d="M115.575 113.008C115.621 112.917 115.648 112.818 115.655 112.716C115.662 112.614 115.649 112.512 115.617 112.415C115.584 112.318 115.533 112.229 115.465 112.152C115.398 112.075 115.317 112.012 115.225 111.967C115.134 111.92 115.034 111.892 114.932 111.884C114.83 111.876 114.727 111.889 114.63 111.922C114.533 111.954 114.444 112.006 114.367 112.074C114.29 112.142 114.228 112.224 114.183 112.317C114.125 112.417 113.233 114.283 113.442 117.883C113.965 118.117 114.502 118.317 115.05 118.483C114.717 114.892 115.558 113.05 115.575 113.008Z" fill="#22C774"/>
<path d="M120.317 114.375C120.337 114.275 120.337 114.172 120.317 114.071C120.298 113.971 120.259 113.876 120.202 113.791C120.146 113.706 120.073 113.632 119.988 113.575C119.903 113.518 119.808 113.479 119.708 113.458C119.506 113.417 119.296 113.459 119.124 113.573C118.952 113.687 118.832 113.864 118.792 114.067C118.494 115.686 118.494 117.347 118.792 118.967C119.309 118.935 119.822 118.857 120.325 118.733C120.067 117.292 120.064 115.817 120.317 114.375Z" fill="#22C774"/>
<path d="M105.525 131.375C105.525 131.375 108.333 124.167 115.658 128.25C118.543 129.881 121.714 130.942 125 131.375H105.525Z" fill="#1A9AF5"/>
<path d="M99.1 38.4416C98.6055 38.1139 98.1222 37.8222 97.65 37.5667C96.1154 38.8354 94.8442 40.3925 93.9083 42.15C93.828 42.3375 93.8193 42.548 93.8838 42.7415C93.9483 42.935 94.0816 43.0981 94.2583 43.2C94.3681 43.2513 94.4872 43.2796 94.6083 43.2833C94.7525 43.2779 94.8929 43.2351 95.0156 43.1591C95.1383 43.0832 95.2392 42.9766 95.3083 42.85C96.2405 41.125 97.5338 39.6213 99.1 38.4416Z" fill="#22C774"/>
<path d="M102.375 41.7834C102.117 41.3247 101.816 40.8922 101.475 40.4917C99.9206 41.2723 98.5772 42.4156 97.5582 43.825C97.4818 43.9433 97.4387 44.0801 97.4334 44.2208C97.4282 44.3616 97.4609 44.5011 97.5283 44.6248C97.5957 44.7485 97.6952 44.8517 97.8163 44.9236C97.9374 44.9955 98.0757 45.0334 98.2165 45.0334C98.3462 45.0328 98.4736 44.9997 98.5872 44.9371C98.7008 44.8745 98.7968 44.7844 98.8665 44.675C99.7746 43.4318 100.981 42.4374 102.375 41.7834Z" fill="#22C774"/>
<path d="M94.775 82.2832L97.4917 78.7832C97.4917 78.7832 94.6083 80.6999 88.375 80.6999C90.3264 81.7955 92.5379 82.3426 94.775 82.2832Z" fill="black"/>
<path d="M80.575 131.375C80.575 131.375 83.3333 124.167 90.7083 128.25C93.6025 129.873 96.7779 130.933 100.067 131.375H80.575Z" fill="#1A9AF5"/>
<path d="M86.7917 139.167C88.513 139.167 89.9084 137.771 89.9084 136.05C89.9084 134.329 88.513 132.933 86.7917 132.933C85.0704 132.933 83.675 134.329 83.675 136.05C83.675 137.771 85.0704 139.167 86.7917 139.167Z" fill="black"/>
<path d="M142.4 139.167C144.121 139.167 145.517 137.771 145.517 136.05C145.517 134.329 144.121 132.933 142.4 132.933C140.679 132.933 139.283 134.329 139.283 136.05C139.283 137.771 140.679 139.167 142.4 139.167Z" fill="black"/>
<path d="M186.858 122.017H181.925C181.211 122.017 180.509 122.204 179.889 122.559C179.269 122.915 178.753 123.426 178.392 124.042L177.317 125.883C176.344 127.553 174.95 128.939 173.274 129.903C171.598 130.867 169.7 131.374 167.767 131.375H88.9749C87.0407 131.375 85.1404 130.867 83.4633 129.904C81.7862 128.94 80.391 127.554 79.4166 125.883L78.1416 123.692C77.8426 123.184 77.4163 122.763 76.9047 122.471C76.3932 122.178 75.8141 122.025 75.2249 122.025H69.8833C69.2995 122.024 68.7253 122.173 68.2148 122.456C67.7044 122.739 67.2745 123.148 66.9659 123.643C66.6573 124.138 66.4801 124.704 66.451 125.287C66.422 125.87 66.5421 126.451 66.7999 126.975C68.6583 130.767 72.5083 135.508 76.7333 135.508H180C182.625 135.508 185.1 133.675 187.05 131.383C188.188 130.037 189.156 128.557 189.933 126.975C190.193 126.452 190.314 125.871 190.287 125.287C190.259 124.704 190.083 124.137 189.775 123.64C189.467 123.144 189.038 122.734 188.527 122.45C188.017 122.166 187.442 122.017 186.858 122.017Z" fill="#40E991"/>
<path d="M114.6 139.167C116.321 139.167 117.717 137.771 117.717 136.05C117.717 134.329 116.321 132.933 114.6 132.933C112.879 132.933 111.483 134.329 111.483 136.05C111.483 137.771 112.879 139.167 114.6 139.167Z" fill="black"/>
<path d="M114.6 137.3C115.29 137.3 115.85 136.74 115.85 136.05C115.85 135.359 115.29 134.8 114.6 134.8C113.909 134.8 113.35 135.359 113.35 136.05C113.35 136.74 113.909 137.3 114.6 137.3Z" fill="#40E991"/>
<path d="M169.95 139.167C171.671 139.167 173.067 137.771 173.067 136.05C173.067 134.329 171.671 132.933 169.95 132.933C168.229 132.933 166.833 134.329 166.833 136.05C166.833 137.771 168.229 139.167 169.95 139.167Z" fill="black"/>
<path d="M169.95 137.3C170.64 137.3 171.2 136.74 171.2 136.05C171.2 135.359 170.64 134.8 169.95 134.8C169.26 134.8 168.7 135.359 168.7 136.05C168.7 136.74 169.26 137.3 169.95 137.3Z" fill="#40E991"/>
</g>
<defs>
<clipPath id="clip0">
<rect width="200" height="139.167" fill="white"/>
</clipPath>
</defs>
</svg>
