<svg width="240" height="120" viewBox="0 0 240 120" fill="none" xmlns="http://www.w3.org/2000/svg">
<g clip-path="url(#clip0)">
<g clip-path="url(#clip1)">
<path d="M220.867 104.746C219.339 104.746 217.874 104.139 216.794 103.059C215.714 101.978 215.107 100.513 215.107 98.9856V55.2096C215.104 47.8054 212.165 40.7046 206.933 35.4654C201.701 30.2263 194.604 27.2767 187.2 27.264H100.8C96.3151 27.2633 91.8939 28.3242 87.8978 30.3598C83.9017 32.3954 80.4441 35.3479 77.8078 38.976L66.0862 55.1136C63.4535 58.7401 59.9991 61.6912 56.006 63.7253C52.0129 65.7594 47.5947 66.8186 43.1134 66.816H31.5934C28.0757 66.8135 24.592 67.5041 21.3414 68.8485C18.0908 70.193 15.1369 72.1647 12.6486 74.6512C10.1604 77.1377 8.18646 80.0902 6.83972 83.3398C5.49298 86.5895 4.7998 90.0727 4.7998 93.5904L4.7998 120H235.2V119.309C235.226 117.147 234.774 115.006 233.875 113.04C232.717 110.566 230.879 108.472 228.575 107.004C226.272 105.535 223.599 104.752 220.867 104.746Z" fill="#C7CAFF"/>
<path d="M197.261 110.851H179.875V114.47H197.261V110.851Z" fill="#5960FA"/>
<path d="M184.464 101.155L181.008 120H176.909L180.374 101.155H184.464Z" fill="#5960FA"/>
<path d="M200.227 120H196.138L192.682 101.155H196.8L200.227 120Z" fill="#5960FA"/>
<path d="M183.907 104.189L183.024 109.066H178.934L179.827 104.189H183.907Z" fill="#373BE1"/>
<path d="M198.221 109.066H194.141L193.238 104.189H197.337L198.221 109.066Z" fill="#373BE1"/>
<path d="M198.077 98.0832H179.434C178.647 98.1271 177.908 98.4704 177.367 99.0426C176.825 99.6148 176.524 100.372 176.524 101.16C176.524 101.948 176.825 102.705 177.367 103.277C177.908 103.85 178.647 104.193 179.434 104.237H198.077C198.863 104.193 199.603 103.85 200.144 103.277C200.685 102.705 200.986 101.948 200.986 101.16C200.986 100.372 200.685 99.6148 200.144 99.0426C199.603 98.4704 198.863 98.1271 198.077 98.0832Z" fill="#5960FA"/>
<path d="M120.259 9.36959C120.206 10.5127 120.606 11.6306 121.373 12.48L128.64 20.448L129.034 9.68639C129.055 9.11081 128.963 8.53662 128.761 7.99701C128.56 7.45741 128.253 6.96308 127.86 6.54263C127.466 6.12217 126.993 5.78391 126.468 5.54742C125.943 5.31092 125.376 5.18087 124.8 5.16479C124.225 5.14166 123.652 5.23218 123.113 5.43116C122.573 5.63014 122.078 5.93366 121.656 6.32431C121.235 6.71497 120.894 7.18507 120.654 7.70765C120.414 8.23023 120.28 8.79501 120.259 9.36959Z" fill="#801384"/>
<path d="M123.754 20.2656L118.906 14.8992L118.723 20.0736L123.754 20.2656Z" fill="#801384"/>
<path d="M137.117 12.0192C137.48 11.4031 137.687 10.7079 137.721 9.99359C137.763 8.83813 137.345 7.71335 136.558 6.86577C135.772 6.0182 134.682 5.51698 133.526 5.47199L123.648 5.10719L114.921 4.79999L114.643 12.384C114.179 11.9147 113.614 11.5569 112.992 11.3376V11.1264L108.749 10.9632V12.1632C108.31 12.5471 107.955 13.017 107.706 13.5438C107.456 14.0706 107.318 14.643 107.299 15.2256V15.36C107.26 16.4849 107.663 17.5804 108.422 18.4114C109.181 19.2424 110.236 19.7427 111.36 19.8048L121.651 20.1888L115.392 13.2384L123.302 13.3824V13.5168L128.813 13.7184L128.64 18.288L126.47 20.3616L136.761 20.7456C137.327 20.7674 137.891 20.6774 138.422 20.4806C138.953 20.2838 139.44 19.9842 139.855 19.5989C140.269 19.2136 140.604 18.7502 140.839 18.2353C141.074 17.7204 141.206 17.1641 141.225 16.5984V16.4832C141.267 15.3478 140.859 14.2418 140.089 13.4059C139.32 12.5699 138.252 12.0716 137.117 12.0192Z" fill="#E30085"/>
<path d="M118.723 20.064L123.946 15.0624L123.754 20.2464L118.723 20.064Z" fill="#801384"/>
<path d="M129.312 11.7216C128.239 11.6862 127.191 12.0525 126.374 12.7488L126.509 12.624C127.331 11.8277 127.813 10.7439 127.853 9.6C127.886 8.44784 127.463 7.32906 126.676 6.48748C125.888 5.64591 124.8 5.14977 123.648 5.1072C122.492 5.06566 121.368 5.48393 120.52 6.27033C119.673 7.05672 119.171 8.14707 119.126 9.3024L119.04 11.952L119.136 9.3216C119.156 8.7479 119.064 8.17577 118.863 7.63795C118.662 7.10012 118.357 6.60715 117.966 6.1872C117.575 5.76726 117.104 5.42859 116.582 5.19056C116.059 4.95254 115.495 4.81982 114.922 4.8C114.065 4.77042 113.219 4.99348 112.488 5.44141C111.757 5.88934 111.174 6.54234 110.812 7.31909C110.45 8.09583 110.324 8.96199 110.451 9.80969C110.577 10.6574 110.95 11.4492 111.523 12.0864L111.686 12.2592C111.097 11.653 110.342 11.234 109.515 11.0546C108.689 10.8753 107.828 10.9436 107.04 11.2509C106.252 11.5583 105.572 12.091 105.086 12.7826C104.599 13.4742 104.327 14.2939 104.304 15.1392V15.264C104.286 15.8296 104.38 16.3933 104.58 16.9225C104.781 17.4518 105.083 17.9364 105.471 18.3484C105.859 18.7604 106.325 19.0918 106.841 19.3236C107.357 19.5554 107.914 19.6831 108.48 19.6992L118.742 20.0736L129.034 20.4576C130.165 20.4862 131.261 20.0679 132.086 19.2934C132.911 18.5189 133.397 17.4506 133.44 16.32V16.1952C133.482 15.0557 133.071 13.9459 132.298 13.1079C131.524 12.2698 130.451 11.7715 129.312 11.7216Z" fill="#FF29A1"/>
<path d="M112.368 119.194C111.635 119.128 110.923 118.919 110.272 118.579C109.621 118.238 109.043 117.772 108.572 117.207C108.101 116.643 107.746 115.991 107.528 115.289C107.309 114.587 107.232 113.849 107.299 113.117C107.779 107.818 108.499 99.888 108.979 94.608C109.115 93.1293 109.833 91.7651 110.974 90.8148C112.115 89.8645 113.586 89.4058 115.065 89.5392C116.544 89.6779 117.907 90.3977 118.856 91.5406C119.804 92.6836 120.261 94.1562 120.124 95.6352L118.444 114.125C118.378 114.857 118.168 115.57 117.826 116.221C117.484 116.873 117.017 117.45 116.452 117.921C115.887 118.392 115.234 118.746 114.532 118.965C113.829 119.183 113.091 119.261 112.358 119.194H112.368Z" fill="#7196FF"/>
<path d="M134.294 114.451L128.419 97.0176C127.968 95.7135 127.999 94.2907 128.508 93.008C129.018 91.7254 129.97 90.6682 131.193 90.0288C131.91 89.6767 132.694 89.4818 133.492 89.4572C134.29 89.4325 135.085 89.5787 135.822 89.886C136.559 90.1932 137.222 90.6543 137.767 91.2386C138.311 91.8228 138.724 92.5166 138.979 93.2736L144.96 110.87C145.432 112.278 145.326 113.816 144.666 115.146C144.005 116.476 142.844 117.49 141.437 117.965C140.737 118.207 139.997 118.309 139.258 118.263C138.519 118.218 137.796 118.026 137.132 117.699C136.468 117.372 135.875 116.917 135.388 116.359C134.901 115.802 134.529 115.153 134.294 114.451Z" fill="#7196FF"/>
<path d="M89.2031 95.3664C89.2031 95.2608 89.2031 95.1648 89.2031 95.0592C90.4319 87.0144 92.7551 79.92 100.089 71.424C100.506 70.9361 101.014 70.5349 101.585 70.2434C102.156 69.9518 102.779 69.7756 103.418 69.7248C104.057 69.674 104.7 69.7496 105.31 69.9473C105.92 70.1449 106.485 70.4608 106.973 70.8768C107.461 71.2928 107.862 71.8009 108.153 72.3719C108.445 72.943 108.621 73.5659 108.672 74.2051C108.723 74.8442 108.647 75.4871 108.449 76.0971C108.252 76.707 107.936 77.2721 107.52 77.76C101.664 84.5472 99.9263 89.7696 98.8799 96.4992C98.7246 97.7837 98.0654 98.9539 97.0473 99.7523C96.5432 100.148 95.9661 100.44 95.3491 100.612C94.732 100.785 94.0871 100.834 93.4511 100.757C92.1666 100.601 90.9964 99.9423 90.198 98.9242C89.3995 97.9061 89.0382 96.6125 89.1935 95.328L89.2031 95.3664Z" fill="#578BFA"/>
<path d="M101.664 63.8884L92.5 65.7961C91.2861 66.0488 90.0215 65.8089 88.9845 65.1293C87.9474 64.4496 87.2228 63.3858 86.9701 62.1719L84.8178 51.8335C84.5651 50.6196 84.805 49.355 85.4847 48.318C86.1643 47.2809 87.2281 46.5563 88.442 46.3036L97.6056 44.3959L101.664 63.8884Z" fill="#4981FA"/>
<path d="M97.2212 61.2204L92.6441 62.1733C92.3432 62.2372 92.0327 62.2413 91.7302 62.1852C91.4278 62.1291 91.1393 62.014 90.8814 61.8464C90.6234 61.6789 90.4009 61.4621 90.2267 61.2086C90.0525 60.9551 89.93 60.6697 89.866 60.3688L88.1971 52.3519C88.0704 51.7437 88.1906 51.1101 88.5311 50.5905C88.8717 50.0709 89.4047 49.7079 90.0129 49.5813L94.5993 48.6265L97.2212 61.2204Z" fill="#BACFFF"/>
<path d="M140.379 35.5126L149.542 33.6049C150.144 33.4798 150.763 33.4743 151.367 33.5887C151.97 33.7031 152.545 33.9352 153.058 34.2717C153.572 34.6083 154.014 35.0427 154.359 35.5501C154.705 36.0575 154.947 36.628 155.072 37.2291L157.225 47.5675C157.469 48.778 157.224 50.0361 156.544 51.0669C155.864 52.0977 154.804 52.8175 153.595 53.0692L144.431 54.9769L140.379 35.5126Z" fill="#4981FA"/>
<path d="M144.813 38.1791L149.38 37.2282C149.988 37.1015 150.622 37.2217 151.142 37.5623C151.661 37.9028 152.024 38.4358 152.151 39.044L153.82 47.0609C153.944 47.668 153.822 48.2994 153.481 48.8169C153.141 49.3344 152.609 49.6959 152.002 49.8221L147.425 50.775L144.803 38.181L144.813 38.1791Z" fill="#BACFFF"/>
<path d="M139.536 57.408L103.209 66.6336L100.435 83.2032C99.9207 86.2755 100.459 89.4314 101.961 92.16C103.155 94.3291 104.906 96.1396 107.035 97.4039C109.163 98.6682 111.591 99.3402 114.067 99.3504L135.571 99.4272C138.156 99.4343 140.68 98.6382 142.794 97.149C144.907 95.6597 146.506 93.5508 147.369 91.1136C148.259 88.5826 148.31 85.8323 147.513 83.2704L139.536 57.408Z" fill="url(#paint0_linear)"/>
<path d="M164.4 60.48C164.332 60.576 164.275 60.672 164.208 60.7584C158.956 67.9584 153.129 73.6896 141.725 78.2592C141.073 78.5201 140.377 78.6503 139.676 78.6422C138.974 78.6341 138.281 78.488 137.636 78.2121C136.991 77.9362 136.407 77.5359 135.917 77.0342C135.427 76.5325 135.04 75.9391 134.779 75.288C134.518 74.6368 134.388 73.9407 134.396 73.2392C134.404 72.5378 134.55 71.8448 134.826 71.1998C135.102 70.5549 135.502 69.9706 136.004 69.4803C136.506 68.99 137.099 68.6033 137.75 68.3424C146.861 64.6848 151.19 60.4896 155.568 54.4704C156.393 53.3712 157.611 52.6323 158.967 52.4071C160.323 52.182 161.714 52.4879 162.851 53.2613C163.988 54.0347 164.783 55.2162 165.071 56.5605C165.359 57.9047 165.119 59.3084 164.4 60.48Z" fill="url(#paint1_linear)"/>
<path d="M140.793 61.4688L102.96 68.0832L101.472 76.9632L141.561 64.0032L140.793 61.4688Z" fill="#366FEB"/>
<path d="M134.594 26.0573L98.2594 33.6215C92.5652 34.8069 88.9102 40.3839 90.0956 46.078L93.4336 62.1119C94.619 67.806 100.196 71.461 105.89 70.2756L142.225 62.7114C147.919 61.526 151.574 55.949 150.388 50.2549L147.05 34.221C145.865 28.5269 140.288 24.8719 134.594 26.0573Z" fill="#578BFA"/>
<path d="M149.539 33.6L147.024 34.1184C146.428 31.3995 144.782 29.026 142.445 27.514C140.108 26.0021 137.268 25.4741 134.544 26.0448L98.256 33.6C96.7343 33.9183 95.3017 34.5686 94.0604 35.5046C92.8191 36.4405 91.7998 37.639 91.0752 39.0144C117.955 44.6208 145.219 46.608 157.219 47.52L155.069 37.2192C154.815 36.0063 154.09 34.9437 153.053 34.2651C152.016 33.5865 150.752 33.3472 149.539 33.6Z" fill="url(#paint2_linear)"/>
<path d="M105.795 41.6154L126.691 37.3511C127.566 37.1724 128.477 37.3488 129.223 37.8417C129.969 38.3346 130.488 39.1036 130.667 39.9794L132.308 48.0232C132.749 50.184 132.314 52.4315 131.098 54.2712C129.882 56.111 127.984 57.3923 125.824 57.8333L115.315 59.9779C112.979 60.4545 110.55 59.9839 108.562 58.6695C106.573 57.3551 105.189 55.3046 104.712 52.9691L103.207 45.5933C103.028 44.7175 103.204 43.8065 103.697 43.0609C104.19 42.3152 104.959 41.7959 105.835 41.6171L105.795 41.6154Z" fill="#BACFFF"/>
<path d="M138.134 43.6128C139.878 43.6128 141.292 42.1987 141.292 40.4544C141.292 38.7101 139.878 37.296 138.134 37.296C136.39 37.296 134.976 38.7101 134.976 40.4544C134.976 42.1987 136.39 43.6128 138.134 43.6128Z" fill="#181A1C"/>
<path d="M98.1789 51.936C99.9232 51.936 101.337 50.5219 101.337 48.7776C101.337 47.0333 99.9232 45.6192 98.1789 45.6192C96.4346 45.6192 95.0205 47.0333 95.0205 48.7776C95.0205 50.5219 96.4346 51.936 98.1789 51.936Z" fill="#181A1C"/>
<path d="M113.963 51.7562L111.097 52.3529C110.308 52.5172 109.801 53.2899 109.965 54.0789L109.967 54.0883C110.132 54.8773 110.904 55.3837 111.693 55.2195L114.56 54.6227C115.349 54.4585 115.855 53.6857 115.691 52.8967L115.689 52.8873C115.525 52.0984 114.752 51.5919 113.963 51.7562Z" fill="#5F92FF"/>
<path d="M124.926 49.4673L120.912 50.3028C120.123 50.4671 119.617 51.2398 119.781 52.0288L119.783 52.0382C119.947 52.8272 120.72 53.3336 121.509 53.1694L125.522 52.3339C126.311 52.1696 126.818 51.3969 126.654 50.6079L126.652 50.5985C126.487 49.8095 125.715 49.3031 124.926 49.4673Z" fill="#5F92FF"/>
<path d="M153.6 89.4432L148.656 95.4432C148.568 95.5514 148.512 95.6813 148.492 95.8191C148.473 95.9569 148.491 96.0974 148.546 96.2255C148.6 96.3537 148.688 96.4647 148.8 96.5467C148.913 96.6288 149.045 96.6787 149.184 96.6912L156.864 97.4112C157.657 97.4891 158.458 97.3717 159.195 97.0692C159.933 96.7668 160.586 96.2884 161.096 95.6758C161.606 95.0633 161.959 94.3351 162.123 93.555C162.287 92.7748 162.258 91.9663 162.038 91.2C161.789 90.3509 161.314 89.5853 160.663 88.9852C160.013 88.385 159.212 87.9728 158.346 87.7924C157.479 87.612 156.58 87.6703 155.744 87.9611C154.908 88.2518 154.167 88.7641 153.6 89.4432Z" fill="#7196FF"/>
<path d="M140.822 80.928H165.014C165.187 80.928 165.353 80.9968 165.476 81.1192C165.598 81.2416 165.667 81.4076 165.667 81.5808V119.981H140.822V80.928Z" fill="#FF29A1"/>
<path d="M157.392 80.928H149.808V120H157.392V80.928Z" fill="#E30085"/>
<path d="M140.778 20.907L165.788 21.8329C166.297 21.8517 166.777 22.0719 167.124 22.4451C167.47 22.8182 167.654 23.3137 167.636 23.8226L167.288 33.2145C167.269 33.7234 167.049 34.204 166.676 34.5505C166.303 34.897 165.807 35.081 165.298 35.0622L140.288 34.1364L140.778 20.907Z" fill="#FF29A1"/>
<path d="M79.5261 80.928H140.822V120H78.8733V81.6C78.8708 81.5126 78.8857 81.4257 78.9174 81.3443C78.9491 81.2628 78.9967 81.1886 79.0576 81.1259C79.1185 81.0632 79.1913 81.0134 79.2718 80.9794C79.3523 80.9454 79.4388 80.9279 79.5261 80.928Z" fill="#FF6CBA"/>
<path d="M113.875 80.928H102.739V120H113.875V80.928Z" fill="#FF29A1"/>
<path d="M141.462 20.9248L79.44 18.6289C78.375 18.5895 77.4798 19.4209 77.4403 20.4858L77.0927 29.8778C77.0532 30.9428 77.8846 31.838 78.9496 31.8775L140.971 34.1734C142.036 34.2128 142.931 33.3814 142.971 32.3165L143.318 22.9245C143.358 21.8595 142.526 20.9643 141.462 20.9248Z" fill="#FF6CBA"/>
<path d="M105.12 19.5744C104.588 19.556 104.07 19.7467 103.677 20.1056C103.284 20.4645 103.047 20.963 103.017 21.4944L102.432 37.488L108.192 32.928L113.577 37.9008L114.172 21.9072C114.197 21.3758 114.431 20.8758 114.823 20.5161C115.215 20.1565 115.734 19.9663 116.265 19.9872L105.12 19.5744Z" fill="#FF29A1"/>
<path d="M158.323 21.5424L154.675 21.3504L150.739 21.264C151.196 21.279 151.628 21.4743 151.941 21.8072C152.254 22.14 152.423 22.5832 152.41 23.04L151.622 46.08L155.635 42.384L159.206 46.368L159.994 23.328C160.004 22.871 159.835 22.4281 159.523 22.0943C159.211 21.7605 158.78 21.5624 158.323 21.5424Z" fill="#E30085"/>
<path d="M198.49 45.4752C197.599 44.9019 196.841 44.1458 196.265 43.257C195.689 42.3682 195.308 41.367 195.149 40.32L194.611 36.7008C194.596 36.6152 194.551 36.5377 194.484 36.4816C194.417 36.4255 194.333 36.3944 194.246 36.3936C194.161 36.3948 194.078 36.4262 194.013 36.4824C193.948 36.5386 193.905 36.616 193.891 36.7008L193.354 40.32C193.197 41.3704 192.818 42.3753 192.241 43.2676C191.665 44.1599 190.906 44.919 190.013 45.4944L189.542 45.792C189.49 45.8244 189.447 45.8696 189.416 45.9233C189.386 45.9771 189.37 46.0376 189.37 46.0992C189.37 46.1608 189.386 46.2213 189.416 46.275C189.447 46.3288 189.49 46.3739 189.542 46.4064L190.013 46.7136C190.901 47.2828 191.658 48.0342 192.234 48.918C192.81 49.8017 193.191 50.7977 193.354 51.84L193.891 55.4592C193.905 55.544 193.948 55.6213 194.013 55.6775C194.078 55.7337 194.161 55.7652 194.246 55.7664C194.334 55.7675 194.419 55.7371 194.486 55.6807C194.553 55.6243 194.597 55.5456 194.611 55.4592L195.149 51.84C195.306 50.7909 195.685 49.7874 196.261 48.8967C196.837 48.006 197.597 47.2486 198.49 46.6752L198.96 46.368C199.012 46.3355 199.056 46.2904 199.086 46.2366C199.116 46.1829 199.132 46.1224 199.133 46.0608C199.132 45.9992 199.116 45.9387 199.086 45.8849C199.056 45.8312 199.012 45.786 198.96 45.7536L198.49 45.4752Z" fill="#5960FA"/>
<path d="M51.9932 82.3392C51.1632 81.8043 50.4555 81.1003 49.9162 80.2732C49.3769 79.446 49.0182 78.5144 48.8636 77.5392L48.3548 74.1504C48.3432 74.0698 48.3027 73.9962 48.2409 73.9433C48.1791 73.8903 48.1002 73.8615 48.0188 73.8624C47.938 73.8635 47.8601 73.8929 47.7987 73.9455C47.7373 73.9982 47.6963 74.0707 47.6828 74.1504L47.174 77.5392C47.0212 78.515 46.6632 79.4473 46.1238 80.2747C45.5843 81.102 44.8756 81.8057 44.0444 82.3392L43.6124 82.6176C43.5644 82.6493 43.5246 82.692 43.4963 82.742C43.4679 82.7921 43.4518 82.8481 43.4492 82.9056C43.4518 82.9631 43.4679 83.0191 43.4963 83.0692C43.5246 83.1192 43.5644 83.1618 43.6124 83.1936L44.0444 83.472C44.8756 84.0055 45.5843 84.7091 46.1238 85.5365C46.6632 86.3639 47.0212 87.2962 47.174 88.272L47.6828 91.6608C47.6963 91.7405 47.7373 91.813 47.7987 91.8656C47.8601 91.9182 47.938 91.9477 48.0188 91.9488C48.1002 91.9496 48.1791 91.9209 48.2409 91.8679C48.3027 91.8149 48.3432 91.7413 48.3548 91.6608L48.8636 88.32C49.0182 87.3448 49.3769 86.4131 49.9162 85.586C50.4555 84.7589 51.1632 84.0549 51.9932 83.52L52.4348 83.2416C52.4816 83.2094 52.5199 83.1664 52.5467 83.1163C52.5734 83.0662 52.5877 83.0104 52.5884 82.9536C52.5877 82.8968 52.5734 82.841 52.5467 82.7909C52.5199 82.7408 52.4816 82.6978 52.4348 82.6656L51.9932 82.3392Z" fill="#FFF29A"/>
<path d="M214.934 25.44C214.311 25.0392 213.78 24.5098 213.378 23.8873C212.975 23.2648 212.711 22.5635 212.601 21.8304L212.227 19.3152C212.218 19.2549 212.188 19.1997 212.142 19.1593C212.097 19.119 212.038 19.096 211.977 19.0944C211.915 19.0937 211.854 19.1157 211.806 19.1562C211.759 19.1968 211.727 19.2533 211.718 19.3152L211.344 21.8304C211.234 22.5623 210.971 23.2626 210.57 23.8849C210.17 24.5072 209.641 25.0373 209.021 25.44L208.694 25.6512C208.656 25.6719 208.625 25.7025 208.603 25.7396C208.581 25.7768 208.569 25.8192 208.569 25.8624C208.57 25.9066 208.582 25.9499 208.604 25.9884C208.626 26.0269 208.657 26.0595 208.694 26.0832L209.021 26.2944C209.642 26.6942 210.171 27.2222 210.571 27.8431C210.972 28.464 211.235 29.1634 211.344 29.8944L211.718 32.4192C211.729 32.4793 211.762 32.5335 211.809 32.5722C211.857 32.6108 211.916 32.6314 211.977 32.6304C212.037 32.6292 212.094 32.6076 212.14 32.5691C212.185 32.5306 212.216 32.4777 212.227 32.4192L212.601 29.8944C212.71 29.1622 212.974 28.4618 213.376 27.8407C213.779 27.2196 214.31 26.6923 214.934 26.2944L215.261 26.0832C215.296 26.0578 215.324 26.0247 215.344 25.9864C215.364 25.9481 215.375 25.9056 215.376 25.8624C215.376 25.8203 215.365 25.7789 215.345 25.742C215.325 25.7051 215.296 25.6738 215.261 25.6512L214.934 25.44Z" fill="#00F67A"/>
<path d="M41.7789 61.5456C40.6217 60.8095 39.6356 59.834 38.8871 58.6847C38.1386 57.5355 37.6451 56.2392 37.4397 54.8832L36.7389 50.2176C36.7228 50.1064 36.6676 50.0047 36.583 49.9308C36.4985 49.8568 36.3904 49.8155 36.2781 49.8144C36.1647 49.8152 36.0552 49.8561 35.9691 49.9299C35.883 50.0037 35.8258 50.1056 35.8077 50.2176L35.1165 54.8832C34.9144 56.2368 34.4253 57.5315 33.6819 58.6806C32.9384 59.8297 31.9579 60.8065 30.8061 61.5456L30.2013 61.9392C30.1344 61.981 30.0792 62.039 30.0406 62.1078C30.002 62.1766 29.9813 62.2539 29.9805 62.3328C29.9813 62.4116 30.002 62.489 30.0406 62.5578C30.0792 62.6266 30.1344 62.6846 30.2013 62.7264L30.8061 63.12C31.9646 63.8653 32.9492 64.8511 33.693 66.0107C34.4367 67.1702 34.9222 68.4762 35.1165 69.84L35.8077 74.496C35.8258 74.6079 35.883 74.7098 35.9691 74.7836C36.0552 74.8575 36.1647 74.8984 36.2781 74.8992C36.3904 74.898 36.4985 74.8568 36.583 74.7828C36.6676 74.7089 36.7228 74.6071 36.7389 74.496L37.4397 69.8208C37.6339 68.457 38.1194 67.151 38.8632 65.9915C39.6069 64.8319 40.5915 63.8461 41.7501 63.1008L42.3549 62.7072C42.4206 62.6649 42.4744 62.6065 42.5113 62.5377C42.5483 62.4688 42.5671 62.3917 42.5661 62.3136C42.5671 62.2355 42.5483 62.1583 42.5113 62.0895C42.4744 62.0206 42.4206 61.9623 42.3549 61.92L41.7789 61.5456Z" fill="#8086FF"/>
<path d="M139.745 90.67L136.836 92.6322L141.745 99.907L144.653 97.9448L139.745 90.67Z" fill="#62FFA4"/>
<path d="M174.209 64.6636L171.301 66.6258L176.209 73.9006L179.117 71.9383L174.209 64.6636Z" fill="#44BCFF"/>
<path d="M69.5148 58.1434L70.3232 54.7339L61.7949 52.7116L60.9865 56.1211L69.5148 58.1434Z" fill="#62FFA4"/>
<path d="M77.834 63.2581L75.8389 61.5292L71.5261 66.5062L73.5213 68.2351L77.834 63.2581Z" fill="#8086FF"/>
<path d="M116.949 110.134L115.157 108.581L111.278 113.058L113.07 114.611L116.949 110.134Z" fill="#FFF29A"/>
</g>
</g>
<defs>
<linearGradient id="paint0_linear" x1="124.156" y1="98.5728" x2="124.156" y2="68.1024" gradientUnits="userSpaceOnUse">
<stop stop-color="#3264F0"/>
<stop offset="1" stop-color="#578BFA"/>
</linearGradient>
<linearGradient id="paint1_linear" x1="4737" y1="4938.54" x2="4790.45" y2="4105.25" gradientUnits="userSpaceOnUse">
<stop stop-color="#3264F0"/>
<stop offset="1" stop-color="#578BFA"/>
</linearGradient>
<linearGradient id="paint2_linear" x1="124.147" y1="26.688" x2="124.147" y2="52.7904" gradientUnits="userSpaceOnUse">
<stop offset="0.01" stop-color="#2951F0"/>
<stop offset="1" stop-color="#2951F0" stop-opacity="0"/>
</linearGradient>
<clipPath id="clip0">
<rect width="240" height="120" fill="white"/>
</clipPath>
<clipPath id="clip1">
<rect width="230.4" height="115.2" fill="white" transform="translate(4.7998 4.79999)"/>
</clipPath>
</defs>
</svg>
