<svg width="88" height="88" viewBox="0 0 88 88" fill="none" xmlns="http://www.w3.org/2000/svg">
<path d="M88 44C88 47.7125 82.0875 50.6 81.2625 54.0375C80.3 57.6125 84.0125 62.975 82.225 66.1375C80.4375 69.3 73.8375 68.75 71.3625 71.3625C68.8875 73.8375 69.3 80.4375 66.1375 82.225C63.1125 84.0125 57.6125 80.4375 54.0375 81.2625C50.6 82.0875 47.7125 88 44 88C40.2875 88 37.4 82.0875 33.9625 81.2625C30.3875 80.3 25.025 84.0125 21.8625 82.225C18.7 80.4375 19.25 73.8375 16.6375 71.3625C14.3 68.75 7.7 69.1625 5.9125 66C4.125 62.975 7.7 57.475 6.875 53.9C5.9125 50.6 0 47.7125 0 44C0 40.2875 5.9125 37.4 6.7375 33.9625C7.7 30.3875 3.9875 25.025 5.775 21.8625C7.5625 18.7 14.1625 19.25 16.6375 16.6375C19.1125 14.1625 18.7 7.5625 21.8625 5.775C24.8875 3.9875 30.3875 7.5625 33.9625 6.7375C37.4 5.9125 40.2875 0 44 0C47.7125 0 50.6 5.9125 54.0375 6.7375C57.6125 7.7 62.975 3.9875 66.1375 5.775C69.3 7.5625 68.75 14.1625 71.3625 16.6375C73.8375 19.1125 80.4375 18.7 82.225 21.8625C84.0125 24.8875 80.4375 30.3875 81.2625 33.9625C82.0875 37.4 88 40.2875 88 44Z" fill="#FFCB00"/>
</svg>
