<svg xmlns="http://www.w3.org/2000/svg" viewBox="0 0 1000 480">
  <title>activity-tooltip-updated</title>
  <g id="Layer_26" data-name="Layer 26">
    <polygon points="308 338 326 448.8 449.3 448.8 431.3 338 308 338" style="fill: #dce3ed"/>
    <path d="M918.6,300.8c3-18.3-9.8-33.4-28.5-33.4H499.5c-18.6,0-36.3,15.1-39.3,33.4L441.1,418c-2.9,18.4,9.8,33.4,28.5,33.4H860.2c18.6,0,36.3-15,39.3-33.4Z" style="fill: #ced8e6"/>
    <path d="M877.4,300.8c3-18.3-9.8-33.4-28.4-33.4H458.4c-18.7,0-36.4,15.1-39.3,33.4L400,418c-3,18.4,9.8,33.4,28.4,33.4H819c18.7,0,36.3-15,39.3-33.4Z" style="fill: #dce3ed"/>
    <rect x="332.2" y="398.2" width="458.9" height="81.79" style="fill: #fff"/>
    <rect x="332.2" y="429.5" width="458.9" height="10.44" style="fill: #e1e8f2"/>
    <polygon points="907.4 369.2 889.4 480 793.9 480 811.9 369.2 907.4 369.2" style="fill: #dce3ed"/>
    <path d="M891,400.4c17.1,0,33.4-14.1,36.2-31.2S918.3,338,901.1,338H817l-10.1,62.4Z" style="fill: #dce3ed"/>
    <path d="M795.4,276.9H698.5c-6.2,25.6-19.7,70.5-16.4,121.3H791.2C802.3,334,795.4,276.9,795.4,276.9Z" style="fill: #4572f0"/>
    <path d="M798.5,284.7a16.9,16.9,0,0,0-29.3,17c1.9,3.3,14.7,27.8,17.4,33l32.1-10C818.1,323.5,805.2,296.3,798.5,284.7Z" style="fill: #7196ff"/>
    <path d="M669.8,432.8l-27.3-5c.1-.2,4.6-24.8,8.4-49a28,28,0,0,1,27.6-23.5h50v42.9H691.2c-1.3,8.3-2.7,16.1-3.8,22.4A15,15,0,0,1,669.8,432.8Z" style="fill: #7196ff"/>
    <path d="M697.2,355.3c10.6,8.3,16.6,15.5,9.2,42.9h28.5V355.3Z" style="fill: #6088f7"/>
    <path d="M673,345.6a17.2,17.2,0,0,1-3.9-.4,17,17,0,0,1-12.6-20.4c5.8-24.4,28.1-51.2,30.6-54.2a16.9,16.9,0,1,1,25.8,21.9c-5.4,6.4-20.1,26-23.4,40.1A17.1,17.1,0,0,1,673,345.6Z" style="fill: #7196ff"/>
    <path d="M685,281.3c10.4,35.8,19.9,47.3,43.5,45.6,36-2.5,60.2-24.7,71.5-35.1Z" style="fill: #4572f0"/>
    <line x1="517.6" y1="204.3" x2="540" y2="168.5" style="fill: none;stroke: #ffd997;stroke-linecap: round;stroke-linejoin: round;stroke-width: 30.484865320550824px"/>
    <path d="M618.1,161.6c5.1,60.5,0,105.8,0,105.8H515.7c2.6-58.1,22.3-105.8,22.3-105.8l74.4-15.7Z" style="fill: #ffd997"/>
    <path d="M580.8,198.9a14.2,14.2,0,0,1-13-8.7,4.5,4.5,0,1,1,8.4-3.4,5.1,5.1,0,0,0,6.5,2.7,4.5,4.5,0,1,1,3.5,8.3A14.9,14.9,0,0,1,580.8,198.9Z" style="fill: #ee65ae"/>
    <path d="M597.8,55.3C592,93,584,96.2,575,94.8s-15.7-6.8-9.9-44.5S580.5-1.3,589.5.1,603.6,17.6,597.8,55.3Z" style="fill: #ee65ae"/>
    <path d="M592,57.3c-3.2,20.9-7.1,22.7-11.5,22s-7.7-3.6-4.5-24.5,8.1-28.6,12.5-27.9S595.2,36.4,592,57.3Z" style="fill: #ff8abf"/>
    <path d="M539.2,70.7c28.4,27,35.9,25.5,41.3,19.9s6.4-13.3-22-40.3-44-33.1-49.4-27.5S510.7,43.7,539.2,70.7Z" style="fill: #ee65ae"/>
    <path d="M543.6,69.8c15.6,15.1,18.9,15.4,20.8,13.8s1.4-4.6-13.5-19-22.3-18.9-24.6-17.7S528.2,54.9,543.6,69.8Z" style="fill: #ff8abf"/>
    <rect x="500.6" y="59.7" width="142.7" height="56.03" rx="28" transform="translate(1148.4 138.3) rotate(176.3)" style="fill: #ee65ae"/>
    <rect x="503.5" y="104.5" width="142.7" height="56.03" rx="28" transform="translate(1157.1 227.5) rotate(176.3)" style="fill: #ee65ae"/>
    <ellipse cx="536.9" cy="103.5" rx="4.6" ry="8.3" transform="translate(-4.6 179.5) rotate(-18.9)" style="fill: #1b1926"/>
    <ellipse cx="578.7" cy="100.1" rx="8.9" ry="5" transform="translate(365.5 647.3) rotate(-78.5)" style="fill: #1b1926"/>
    <path d="M549.8,124.4a106.1,106.1,0,0,1,19.7-2.6c-1.3,6.1-3.8,10.5-7.9,11.6S551.9,133,549.8,124.4Z" style="fill: #7d1236"/>
    <path d="M561.6,133.4a8.3,8.3,0,0,1-8.1-1.9,9.9,9.9,0,0,1,6.7-6,10,10,0,0,1,7.8,1.2C566.6,130.2,564.5,132.6,561.6,133.4Z" style="fill: #ac194b"/>
    <path d="M486.3,187.9c-1.9-4.6.6-8.4,5.6-8.4h63.2c4.9,0,10.5,3.8,12.4,8.4l10.7,26c1.8,4.6-.7,8.3-5.6,8.3H509.4a14.6,14.6,0,0,1-12.5-8.3Z" style="fill: #1e49d0"/>
    <path d="M476.5,187.9c-1.9-4.6.6-8.4,5.6-8.4h63.2c4.9,0,10.5,3.8,12.4,8.4l10.7,26c1.9,4.6-.7,8.3-5.6,8.3H499.6a14.6,14.6,0,0,1-12.5-8.3Z" style="fill: #4c7dff"/>
    <polygon points="488.1 179.5 505.6 222.2 556.8 222.2 539.2 179.5 488.1 179.5" style="fill: #0e1d41"/>
    <rect x="480.8" y="182.3" width="5.3" height="8.34" rx="2.6" style="fill: #0e1d41"/>
    <rect x="545" y="182.3" width="5.3" height="8.34" rx="2.6" style="fill: #0e1d41"/>
    <path d="M577.4,223.8l-11.8-28.1,18-7.5a33.9,33.9,0,0,1,14-2.7c3.7.2,11.1.3,18.4.2l24-8.6,4.9,13.9a18.3,18.3,0,0,1-1.9,16.4,18.9,18.9,0,0,1-14.3,8.4c-10.5.7-24.5.4-32,.2a3.1,3.1,0,0,0-1.3.3Z" style="fill: #ee65ae"/>
    <path d="M625.3,196.6A15.2,15.2,0,0,1,611,186.5l-6.6-18.3a15.2,15.2,0,0,1,28.7-10.3l6.6,18.3a15.3,15.3,0,0,1-14.4,20.4Z" style="fill: #ffd997"/>
    <path d="M639,174.1c-11.6-.6-21.2,1.1-29.4,8.5l7.8,22.3,26.9-16Z" style="fill: #ee65ae"/>
    <path d="M571.1,193.8h13.5a0,0,0,0,1,0,0v30.5a0,0,0,0,1,0,0h-13a9.4,9.4,0,0,1-9.4-9.4V202.7a9,9,0,0,1,9-9Z" transform="matrix(0.92, -0.39, 0.39, 0.92, -36.23, 237.68)" style="fill: #ee65ae"/>
    <path d="M477.1,188.5c-4.3,0-6.5,3.3-4.9,7.3l6.1,14.9a12.7,12.7,0,0,0,10.9,7.3h3.7c4.3,0,6.5-3.2,4.9-7.3l-6.1-14.9a12.9,12.9,0,0,0-10.9-7.3Z" style="fill: #ee65ae"/>
    <path d="M498.2,322.7l-20.4-57.3a28.1,28.1,0,0,1,26.4-37.5h93.5v39.5H520.4l15,42Z" style="fill: #0e1d41"/>
    <path d="M492.7,322.7l-1.1,3a6,6,0,0,0,5.9,7.8c11.5-.6,24.3-5.5,34.8-19.5a10.2,10.2,0,0,0,1.4-9.4l-3.6-10.1-40.6,4,3.1,8.5A24.1,24.1,0,0,1,492.7,322.7Z" style="fill: #0e1d41"/>
    <path d="M620.2,227.9c-.4,24.4-2.1,39.5-2.1,39.5H578.4l-9,54.8-39-6.4,8-48.4,2.5-15.8a28.3,28.3,0,0,1,28-23.7Z" style="fill: #091229"/>
    <path d="M536.1,281.3l-2.5,15a12.7,12.7,0,0,1-6.9,9.4l-7.2,3.7a6.2,6.2,0,0,0-2,9.2c4.3,5.5,13.2,9.8,23.3,12.1,13.8,3.2,26.4,5.1,28.6-8.5l4-24.2Z" style="fill: #091229"/>
    <path d="M755.9,169.2c-13.9,10.5-19.4,10.1-19.4,10.1l45.9,5.5a15.8,15.8,0,0,0-3.2-12.4A16.5,16.5,0,0,0,755.9,169.2Z" style="fill: #7ce4cc"/>
    <path d="M701.7,175.1l51.5,6.2c-.1,0-7.7-1.3-23-23.2a16.6,16.6,0,0,0-28.5,17Z" style="fill: #5ed6bb"/>
    <rect x="659.2" y="180.7" width="171.6" height="110.44" rx="31.1" transform="translate(33.8 -87.8) rotate(6.9)" style="fill: #7196ff"/>
    <path d="M692,204.3h59.3a9.9,9.9,0,0,1,9.9,9.9v24.2A24.5,24.5,0,0,1,736.7,263H703.3A21.3,21.3,0,0,1,682,241.7V214.3a9.9,9.9,0,0,1,9.9-9.9Z" transform="translate(33.3 -85.1) rotate(6.9)" style="fill: #b8cdff"/>
    <path d="M699.4,247.7l-4.3-.5a4.3,4.3,0,0,1-3.8-4.8h0a4.3,4.3,0,0,1,4.8-3.8l4.3.5a4.3,4.3,0,0,1,3.8,4.8h0A4.3,4.3,0,0,1,699.4,247.7Z" style="fill: #7fa0ff"/>
    <path d="M727,251l-7.9-.9a4.4,4.4,0,0,1-3.8-4.9h0a4.3,4.3,0,0,1,4.8-3.8l8,1a4.3,4.3,0,0,1,3.7,4.8h0A4.3,4.3,0,0,1,727,251Z" style="fill: #7fa0ff"/>
    <path d="M809.7,221.9h27.6a13.8,13.8,0,0,1,13.8,13.8v31.1a13.8,13.8,0,0,1-13.8,13.8H809.7a0,0,0,0,1,0,0V221.9A0,0,0,0,1,809.7,221.9Z" transform="translate(36.2 -98) rotate(6.9)" style="fill: #7196ff"/>
    <path d="M825.2,228.9h7.9a6.4,6.4,0,0,1,6.4,6.4v23.9a6.4,6.4,0,0,1-6.4,6.4h-7.9a0,0,0,0,1,0,0V228.9A0,0,0,0,1,825.2,228.9Z" transform="translate(35.8 -98.3) rotate(6.9)" style="fill: #b8cdff"/>
    <path d="M685,207.9a10.5,10.5,0,0,0-.4,1.7L682.7,226h-2a9.2,9.2,0,0,1-8.1-10.3,9.4,9.4,0,0,1,10.4-8.2Z" style="fill: #202225"/>
    <circle cx="700" cy="303" r="11.2" style="fill: #ffd997"/>
    <circle cx="764" cy="303" r="11.2" style="fill: #ffd997"/>
    <circle cx="723.1" cy="303" r="19.2" style="fill: #ffd997"/>
    <circle cx="744.3" cy="291.8" r="19.7" style="fill: #ffd997"/>
    <path d="M775.2,303H685a2.6,2.6,0,0,0-2.5,3.1l10.8,60.6a2.7,2.7,0,0,0,2.6,2.2h68.4a2.6,2.6,0,0,0,2.6-2.2l10.8-60.6A2.6,2.6,0,0,0,775.2,303Z" style="fill: #d8094a"/>
    <polygon points="766.3 303 693.9 303 702.8 368.9 757.4 368.9 766.3 303" style="fill: #fff"/>
    <polygon points="746.4 303 713.8 303 717.8 368.9 742.4 368.9 746.4 303" style="fill: #d8094a"/>
    <path d="M818.7,324.7,814,315H764.5a17,17,0,0,0,0,33.9h38.9a17,17,0,0,0,15.3-24.2Z" style="fill: #7196ff"/>
    <path d="M690.1,345.6H673a17,17,0,0,1,0-33.9h17.1a17,17,0,1,1,0,33.9Z" style="fill: #7196ff"/>
    <path d="M791.2,398.2H762.3c.7,6.2,1.3,12,1.9,16.9a17.9,17.9,0,0,1-14.9,20l-25,4c-.1-.9-2.9-18.3-5.1-40.9-.4-4.1-.8-8.4-1.1-12.8a28.1,28.1,0,0,1,27.8-30.1h50.4A408.5,408.5,0,0,1,791.2,398.2Z" style="fill: #7196ff"/>
    <polygon points="822.9 369.2 804.9 480 762.7 480 780.7 369.2 822.9 369.2" style="fill: #fff"/>
    <ellipse cx="811.9" cy="369.2" rx="33.8" ry="28.8" transform="translate(-35.3 648.1) rotate(-42.7)" style="fill: #fff"/>
    <ellipse cx="811.9" cy="369.2" rx="7.8" ry="6.6" transform="translate(-35.3 648.1) rotate(-42.7)" style="fill: #e1e8f2"/>
    <polygon points="302.1 369.2 320.1 480 362.3 480 344.3 369.2 302.1 369.2" style="fill: #fff"/>
    <ellipse cx="313.1" cy="369.2" rx="28.8" ry="33.8" transform="translate(-170.6 349.1) rotate(-47.3)" style="fill: #fff"/>
    <ellipse cx="313.1" cy="369.2" rx="6.6" ry="7.8" transform="translate(-170.6 349.1) rotate(-47.3)" style="fill: #e1e8f2"/>
    <polygon points="902.7 398.2 818.2 398.2 816.2 410.5 900.7 410.5 902.7 398.2" style="fill: #ced8e6"/>
    <path d="M301.2,372.4c-50.9,1.8-145.1,7.2-145.1,7.2V480H323.5c7-29,12.9-58.8,7.5-84.5A29.4,29.4,0,0,0,301.2,372.4Z" style="fill: #295ecf"/>
    <path d="M230.9,254.8l-94.3,15.8c-4.1,58.2-5.4,77.6,3.4,112.5H256.6C258.1,326.3,246.6,286.1,230.9,254.8Z" style="fill: #0e1d41"/>
    <path d="M259.8,434.7l-10-49.6H214V337.6h39.3a43.2,43.2,0,0,1,42.3,34.7L308,433.6Z" style="fill: #b8cdff"/>
    <path d="M210.2,372.3l3.1,12.8h31.3c-2.9-16.2,2.2-33.8,27.2-34.9H203.3Z" style="fill: #7fa0ff"/>
    <path d="M258.8,429.5l1.9,9.9a11.7,11.7,0,0,0,8.5,8.9,125.3,125.3,0,0,0,42.7,3.8,5.3,5.3,0,0,0,3.2-9.2l-.5-.5A25.1,25.1,0,0,1,307,429l-5.1-25.3Z" style="fill: #2c2854"/>
    <path d="M258.8,429.5c23.4.5,35.2-2.2,47.2-5.5l-4.1-20.3H253.6Z" style="fill: #b8cdff"/>
    <path d="M114.9,335.6a16.9,16.9,0,0,1-7.6-1.7,17.7,17.7,0,0,1-8.4-23.7c6.9-14.6,17.5-31.5,31.5-50.3a17.8,17.8,0,1,1,28.5,21.3c-15.7,21.1-23.8,35.7-27.9,44.3A17.9,17.9,0,0,1,114.9,335.6Z" style="fill: #5ed6bb"/>
    <path d="M155.3,256.3a17.8,17.8,0,0,0-24.9,3.6q-11.9,16.1-20.4,30c17-6.8,26.7,1,34,12.7h0c4-6.2,8.9-13.4,14.9-21.4A17.7,17.7,0,0,0,155.3,256.3Z" style="fill: #0e1d41"/>
    <path d="M232.4,162.2c1.7,21.3-10.2,39.7-25.7,40.5s-27-15-27.7-34.6,9.5-35.9,23.5-38.3S230.8,141.5,232.4,162.2Z" style="fill: #5ed6bb"/>
    <path d="M276.7,203.9c5.6,34.2-24.8,67.6-69.4,74.5-47.4,7.4-92.1-17.8-96.9-56.2-1.9-15.3,2.9-29.9,12.5-42A80,80,0,0,0,137,152.1c3.6-12.8,11.8-23.8,21.9-25.8,16.2-3.3,25.1,8.9,30.5,30.6C231.6,156.9,269.6,161.2,276.7,203.9Z" style="fill: #5ed6bb"/>
    <path d="M223.6,231.4,167,216.9c.1,15.1.5,34.8-7.4,57.9a103.6,103.6,0,0,0,47.7,3.6,99.2,99.2,0,0,0,31.4-10.3c9.8-17.2,14.1-39.1,8.8-57.2Z" style="fill: #aafae7"/>
    <path d="M176.5,150.2c1.6,5.3.5,10.6-2.6,12s-7.5-1.9-9.4-7.5-.5-11.3,3-12.3S174.8,144.9,176.5,150.2Z" style="fill: #1b1926"/>
    <path d="M171,217.7c36.7,1.4,62.3-1.8,76.5-6.8C240.4,246.8,207.1,252.9,171,217.7Z" style="fill: #4e2b42"/>
    <path d="M235.4,234.2c-6.1-5.9-15.3-10.3-26.1-11.9s-21,.1-28.5,4C202.8,243.5,222.8,245.2,235.4,234.2Z" style="fill: #ac194b"/>
    <ellipse cx="164.4" cy="217.9" rx="19.3" ry="12.7" transform="translate(-104.2 266.4) rotate(-63.2)" style="fill: #4c7dff"/>
    <ellipse cx="256.6" cy="208" rx="9.8" ry="15.2" transform="translate(-60.8 116.5) rotate(-23)" style="fill: #4c7dff"/>
    <path d="M325.7,264.8c2.4-7.5-2-13.6-9.8-13.6H246.3c-7.8,0-16.2,6.1-18.6,13.6l-25.3,76.6c-2.4,7.4,2,13.5,9.8,13.5h69.6c7.8,0,16.2-6.1,18.7-13.5Z" style="fill: #fff"/>
    <path d="M334.1,264.8c2.5-7.5-1.9-13.6-9.7-13.6H254.8c-7.8,0-16.2,6.1-18.7,13.6l-25.2,76.6c-2.4,7.4,2,13.5,9.8,13.5h69.5c7.9,0,16.3-6.1,18.7-13.5Z" style="fill: #dce3ed"/>
    <path d="M171.3,229h0a7.2,7.2,0,0,1,7.2,7.2v65.5a0,0,0,0,1,0,0H164.1a0,0,0,0,1,0,0V236.3A7.2,7.2,0,0,1,171.3,229Z" transform="translate(-139.5 322) rotate(-67.5)" style="fill: #fff"/>
    <path d="M207.7,272.6,202.1,286l13.1-.8a1.9,1.9,0,0,0,1.4-1h0a1.5,1.5,0,0,0-.3-1.7Z" style="fill: #dce3ed"/>
    <path d="M244.6,440.8l-46,11.5L183,389.6l-39.5-6.5-3.7-.6a200.7,200.7,0,0,1-6.4-49.1l72.7,11.9A23.7,23.7,0,0,1,225.3,363l5,20.1Z" style="fill: #b8cdff"/>
    <path d="M173.9,362.6h0a3.1,3.1,0,0,0-3,3.8l4.4,17.5h6.3l-4.7-19A3,3,0,0,0,173.9,362.6Z" style="fill: #7fa0ff"/>
    <path d="M193.7,343.2a147.3,147.3,0,0,0-59.9,2.1l-1.2-25.5,62.5.8Z" style="fill: #0e1d41"/>
    <path d="M111.4,480l-1.8-2.9a13.6,13.6,0,0,1,1.6-16.9l4-4.2c-5.6-15.4-11.2-28.1-15.1-42.5-6.1-22.4,12.4-43.9,35.6-41.5,12.8,1.4,27.4,3.6,44.8,7.2l6.1,24.8v76Z" style="fill: #295ecf"/>
    <polyline points="524.9 480 524.9 429.5 301.8 429.5 301.8 480" style="fill: none;stroke: #2c2854;stroke-miterlimit: 10;stroke-width: 18.876670360565186px"/>
    <polyline points="589.9 480 589.9 429.5 399.7 429.5 399.7 480" style="fill: none;stroke: #2c2854;stroke-miterlimit: 10;stroke-width: 18.876670360565186px"/>
    <rect x="277.4" y="418.2" width="339" height="12.74" rx="6.4" style="fill: #ee65ae"/>
    <path d="M329,454.7l.5.5a20,20,0,0,1,2.7,24.8H320.1Z" style="fill: #295ecf"/>
    <path d="M764.3,415.7l1.9,13.2a7.6,7.6,0,0,1-2.1,6.4c-9.1,8.9-25.6,11.3-37,11.9a6.1,6.1,0,0,1-6.1-8.1l.2-.6a26.2,26.2,0,0,0,1.3-12.1l-1.1-8.2Z" style="fill: #7196ff"/>
    <path d="M687.8,418.2l-1.9,10.5a9.4,9.4,0,0,1-8.6,7.8c-8.7.5-23.9.2-39.4-6.5a4,4,0,0,1-.4-7.2h.2a15.5,15.5,0,0,0,7.7-10.9l1.4-8Z" style="fill: #7196ff"/>
    <path d="M173.7,258.7h8.8a9.1,9.1,0,0,1,7.5,4,55,55,0,0,1,7,13.7,10.5,10.5,0,0,1-8.5,14L177.7,292Z" style="fill: #5ed6bb"/>
    <line x1="404.8" y1="359.4" x2="385.9" y2="243" style="fill: none;stroke: #b8cdff;stroke-linecap: round;stroke-miterlimit: 10;stroke-width: 5px"/>
    <path d="M384,351.5H504.2a0,0,0,0,1,0,0v66.7a0,0,0,0,1,0,0H379.1a0,0,0,0,1,0,0V356.4A4.9,4.9,0,0,1,384,351.5Z" style="fill: #ffa100"/>
    <polygon points="479.6 335.7 429.3 335.7 422.5 379.1 486.4 379.1 479.6 335.7" style="fill: none;stroke: #2c2854;stroke-linecap: round;stroke-linejoin: round;stroke-width: 8px"/>
    <path d="M406.6,351.5H527.5a4.9,4.9,0,0,1,4.9,4.9v61.8a0,0,0,0,1,0,0H401.7a0,0,0,0,1,0,0V356.4A4.9,4.9,0,0,1,406.6,351.5Z" style="fill: #ffce00"/>
    <rect x="429.3" y="351.5" width="75.5" height="11.79" style="fill: #ffa100"/>
    <circle cx="429.3" cy="391.4" r="19" style="fill: #2c2854"/>
    <circle cx="504.8" cy="391.4" r="19" style="fill: #2c2854"/>
    <path d="M308.2,318.4c-6.3,0-9.6-4.8-7.1-10.6L310,286c2.4-5.9,9.6-10.7,15.9-10.7H336c6.4,0,9.6,4.8,7.2,10.7l-9,21.8c-2.4,5.8-9.5,10.6-15.9,10.6Z" style="fill: #5ed6bb"/>
    <path d="M192.1,426.2l7.4,29.8a8.1,8.1,0,0,0,8.2,6.1c18.1-1.1,32.8-6.3,45.2-14.4a7.1,7.1,0,0,0-1.8-12.6h0a15.8,15.8,0,0,1-10.7-11.4l-3.2-12.9Z" style="fill: #2c2854"/>
    <path d="M762.3,398.2l-1.2-11.5a2.7,2.7,0,0,1,2.7-3h0a2.6,2.6,0,0,1,2.7,2.4l1.4,12.1Z" style="fill: #4572f0"/>
    <path d="M696.8,398.2l1.9-11.4a2.7,2.7,0,0,0-2.7-3.1h0a2.8,2.8,0,0,0-2.7,2.2l-2.1,12.3Z" style="fill: #4572f0"/>
    <path d="M194,433.6c18.2-9.8,28.4-9.9,46.4-9.9l-6.7-26.9L186.6,404Z" style="fill: #b8cdff"/>
    <path d="M119.2,342.4a22.6,22.6,0,0,1-20.3-32.2,17.8,17.8,0,0,1,21.5-9.3l41.3-37.5a17.8,17.8,0,1,1,23.9,26.3l-51.3,46.7A22.1,22.1,0,0,1,119.2,342.4ZM131,325.5Z" style="fill: #5ed6bb"/>
    <rect x="455.4" y="374.5" width="23.4" height="16.86" rx="1.9" style="fill: #fff"/>
    <rect x="455.4" y="398.2" width="23.4" height="4.08" rx="2" style="fill: #ffa100"/>
    <rect x="463.4" y="381.3" width="7.3" height="3.22" rx="1.1" style="fill: #7196ff"/>
    <circle cx="385.9" cy="243" r="7.2" style="fill: #b8cdff"/>
    <circle cx="781.3" cy="228.6" r="10.1" style="fill: #202225"/>
    <ellipse cx="219.1" cy="152.7" rx="4.5" ry="8.5" transform="translate(-30.2 56.9) rotate(-13.9)" style="fill: #1b1926"/>
  </g>
</svg>
