<svg width="80" height="80" viewBox="0 0 80 80" fill="none" xmlns="http://www.w3.org/2000/svg">
<rect width="80" height="80" rx="40" fill="#A51C30"/>
<path fill-rule="evenodd" clip-rule="evenodd" d="M57.4115 33.5167L40.7448 25.1833C40.2765 24.9483 39.7232 24.9483 39.2532 25.1833L22.5865 33.5167C22.2498 33.6833 21.9948 33.9733 21.8448 34.2883C21.7432 34.4917 21.6665 34.8367 21.6665 35.0083V44.6167C21.6665 45.5367 22.4132 46.2833 23.3332 46.2833C24.2532 46.2833 24.9998 45.5367 24.9998 44.6167V36.9533L40.0248 43.2117L57.2865 36.555C57.8948 36.31 58.3048 35.7333 58.3315 35.0767C58.3598 34.42 57.9982 33.8117 57.4115 33.5167ZM39.9998 46.675C39.7815 46.675 39.5632 46.6317 39.3582 46.5467L28.3332 41.9533V46.975C28.3332 47.6067 28.6898 48.1833 29.2548 48.4667C29.5286 48.6035 29.8032 48.7434 30.0803 48.8846L30.0804 48.8847C32.6961 50.2176 35.5331 51.6633 39.9998 51.6633C44.4685 51.6633 47.3118 50.214 49.9264 48.8812C50.2012 48.7411 50.4735 48.6024 50.7448 48.4667C51.3098 48.185 51.6665 47.6067 51.6665 46.9767V42.3083L40.5982 46.565C40.4048 46.6367 40.2032 46.675 39.9998 46.675ZM21.6665 50.0083C21.6665 49.0883 22.4132 48.3417 23.3332 48.3417C24.2532 48.3417 24.9998 49.0883 24.9998 50.0083V53.3417C24.9998 54.2617 24.2532 55.0083 23.3332 55.0083C22.4132 55.0083 21.6665 54.2617 21.6665 53.3417V50.0083Z" fill="white"/>
</svg>
