<svg width="44" height="44" viewBox="0 0 44 44" fill="none" xmlns="http://www.w3.org/2000/svg">
<path d="M25.6667 13.8333C25.6667 13.281 25.219 12.8333 24.6667 12.8333H17.8934L19.0039 6.57687C19.1036 6.01529 18.6717 5.5 18.1014 5.5H16.2967C15.8522 5.5 15.4718 5.81884 15.3941 6.25646L14.2267 12.8333H7.66357C7.21827 12.8333 6.83738 13.1534 6.76062 13.592L6.43979 15.4253C6.34163 15.9862 6.77328 16.5 7.34273 16.5H13.5851L11.6417 27.5H5.07857C4.63327 27.5 4.25238 27.82 4.17562 28.2587L3.85479 30.092C3.75663 30.6529 4.18828 31.1667 4.75773 31.1667H11.0001L9.88953 37.4231C9.78985 37.9847 10.2217 38.5 10.7921 38.5H12.5968C13.0412 38.5 13.4216 38.1812 13.4993 37.7435L14.6667 31.1667H25.6667L24.5562 37.4231C24.4565 37.9847 24.8884 38.5 25.4588 38.5H27.2634C27.7079 38.5 28.0883 38.1812 28.166 37.7435L29.3334 31.1667H35.8965C36.3418 31.1667 36.7227 30.8466 36.7995 30.408L37.1203 28.5747C37.2185 28.0138 36.7868 27.5 36.2174 27.5H29.9751L30.7393 23.174C30.8475 22.5616 30.3764 22 29.7546 22H28.1197C27.6345 22 27.2193 22.3483 27.1349 22.826L26.3092 27.5H15.3092L17.2525 16.5H24.6667C25.219 16.5 25.6667 16.0523 25.6667 15.5V13.8333Z" fill="white"/>
<path d="M38.5458 9.16667V7.33334C38.5458 5.28 36.7583 3.66667 34.8333 3.66667C32.9083 3.66667 31.1666 5.28 31.1666 7.33334V9.16667H30.3333C29.781 9.16667 29.3333 9.61439 29.3333 10.1667V17.3333C29.3333 17.8856 29.781 18.3333 30.3333 18.3333H34.8333H39.3333C39.8855 18.3333 40.3333 17.8856 40.3333 17.3333V10.1667C40.3333 9.61439 39.8855 9.16667 39.3333 9.16667H38.5458ZM36.6666 9.16667H32.9999V7.33334C32.9999 6.28572 33.8555 5.5 34.8333 5.5C35.811 5.5 36.6666 6.28572 36.6666 7.33334V9.16667Z" fill="white"/>
</svg>