<svg width="240" height="464" viewBox="0 0 240 464" fill="none" xmlns="http://www.w3.org/2000/svg">
<g clip-path="url(#clip0)">
<path d="M122.51 444.21C122.51 444.21 147.64 420 168.64 429C168.64 429 181.64 411 198.64 421C198.64 421 202.64 410 215.64 416C215.64 416 214.64 382 240 375.34V444L122.51 444.21Z" fill="#54A18A"/>
<path d="M215.64 416C202.64 410 198.64 421 198.64 421C181.64 411 168.64 429 168.64 429C147.64 420 122.51 444.21 122.51 444.21H130.39V443.9C130.39 443.9 159 435 174 439C174 439 186 415 200 428C200 428 203 410 219 422C219 422 226 390 240 391V375.34C214.64 382 215.64 416 215.64 416Z" fill="#5EB58B"/>
<path opacity="0.53" d="M174.77 444.29L181.25 463.98H240V443L174.77 444.29Z" fill="#703443"/>
<path d="M154 448L160 452L158 457L160 459L163 464H193L190 460L185.91 458C183.77 457.46 183 449 183 449L180.6 444.21L161.15 446.6L154 448Z" fill="#8C4C55"/>
<path d="M158 447L161 452L159.91 454.18C159.624 454.748 159.47 455.373 159.46 456.008C159.45 456.644 159.583 457.273 159.85 457.85L162.9 464H159.76L158 459L154 455C154 455 156.26 451.29 156 450L152 447H158Z" fill="#A65E67"/>
<path d="M106.35 445.31L105.71 444.21L105 442.67L240 443V445.95L178 446L154 448L106.35 445.31Z" fill="#81C793"/>
<path d="M105.71 444.21L105 442.67L240 442V444.95L178 444L156 446L105.71 444.21Z" fill="#A3FAA8"/>
<path d="M208.35 439.12L209.7 437.55C209.947 437.264 210.259 437.041 210.61 436.9L214.28 435.43C214.672 435.29 215.019 435.044 215.28 434.72L218.16 431.13C218.517 430.672 219.036 430.367 219.61 430.28L223.01 429.71C223.449 429.642 223.898 429.701 224.305 429.878C224.712 430.054 225.06 430.343 225.31 430.71L229.11 436.04C229.2 436.15 229.29 436.26 229.39 436.36L232.12 439.02C232.443 439.348 232.663 439.764 232.753 440.216C232.842 440.667 232.796 441.136 232.621 441.562C232.447 441.988 232.15 442.353 231.77 442.613C231.389 442.872 230.941 443.013 230.48 443.02H210.13C209.677 443.023 209.233 442.894 208.851 442.651C208.47 442.407 208.167 442.058 207.978 441.646C207.79 441.234 207.725 440.776 207.791 440.328C207.857 439.88 208.051 439.46 208.35 439.12Z" fill="#9395A6"/>
<path d="M221.3 432.12L221.47 434.89C221.49 435.275 221.415 435.659 221.251 436.008C221.087 436.357 220.839 436.66 220.53 436.89L218.4 438.49C217.962 438.818 217.651 439.288 217.52 439.82L217.46 440.07C217.379 440.416 217.377 440.775 217.454 441.122C217.531 441.469 217.685 441.794 217.905 442.073C218.125 442.351 218.406 442.577 218.725 442.732C219.044 442.888 219.395 442.969 219.75 442.97H232.69C234.8 442.97 233.53 438.44 232 436.97L225.27 430.25C225.006 430.001 224.689 429.816 224.342 429.708C223.995 429.601 223.629 429.574 223.27 429.63C222.689 429.721 222.163 430.028 221.798 430.49C221.433 430.951 221.255 431.533 221.3 432.12Z" fill="#7A7C8A"/>
<path d="M221.55 439.44L223.33 436.44C223.655 435.908 224.176 435.524 224.78 435.37L231.02 433.81C231.348 433.729 231.654 433.577 231.918 433.367C232.182 433.156 232.398 432.891 232.55 432.59L235.23 427.21C235.493 426.693 235.937 426.29 236.477 426.078C237.017 425.866 237.616 425.86 238.16 426.06L240 426.75V443H223.56C223.144 442.999 222.737 442.888 222.378 442.678C222.019 442.469 221.723 442.167 221.518 441.805C221.314 441.444 221.209 441.034 221.215 440.618C221.22 440.203 221.336 439.796 221.55 439.44Z" fill="#7A7C8A"/>
<path d="M177 434.27C179.92 432 185.57 428.55 190.84 430.87C190.916 430.9 191 430.903 191.077 430.879C191.155 430.854 191.222 430.802 191.266 430.734C191.31 430.665 191.328 430.583 191.318 430.502C191.308 430.421 191.27 430.346 191.21 430.29C189.01 428.24 185.07 425.47 181.12 427.07C181.05 427.092 180.989 427.138 180.95 427.2L176.5 433.8C176.457 433.869 176.44 433.95 176.45 434.03C176.461 434.11 176.499 434.184 176.558 434.24C176.617 434.295 176.693 434.328 176.773 434.334C176.854 434.339 176.934 434.317 177 434.27Z" fill="#5EB58B"/>
<path d="M224.1 406.08C226.32 404.34 231.44 400.88 235.28 402.45C235.364 402.48 235.455 402.482 235.54 402.455C235.625 402.429 235.699 402.376 235.751 402.303C235.803 402.231 235.83 402.144 235.828 402.055C235.826 401.966 235.795 401.88 235.74 401.81C234.898 400.762 233.85 399.897 232.66 399.27C232.598 399.235 232.545 399.185 232.509 399.123C232.473 399.062 232.454 398.992 232.454 398.92C232.454 398.849 232.473 398.778 232.509 398.717C232.545 398.655 232.598 398.605 232.66 398.57C233.666 397.885 234.763 397.346 235.92 396.97C236.006 396.946 236.082 396.894 236.137 396.823C236.191 396.752 236.22 396.665 236.22 396.575C236.22 396.485 236.191 396.398 236.137 396.327C236.082 396.256 236.006 396.204 235.92 396.18C232.85 395.4 227.12 395.59 223.52 405.61C223.5 405.686 223.503 405.767 223.527 405.841C223.552 405.916 223.598 405.982 223.659 406.032C223.72 406.081 223.794 406.112 223.872 406.121C223.951 406.129 224.03 406.115 224.1 406.08Z" fill="#5EB58B"/>
</g>
<defs>
<clipPath id="clip0">
<rect width="240" height="464" fill="white"/>
</clipPath>
</defs>
</svg>
