<svg width="440" height="120" viewBox="0 0 440 120" fill="none" xmlns="http://www.w3.org/2000/svg">
<rect width="440" height="120" fill="#5865F2"/>
<path opacity="0.5" d="M320 120L0 0L120 120H191.062H320Z" fill="#6874F2"/>
<path opacity="0.5" d="M120 120L440 0L320 120H248.938H120Z" fill="#6874F2"/>
<path d="M219.247 115.065C245.174 115.065 266.192 93.9768 266.192 67.9631C266.192 41.9494 245.174 20.8611 219.247 20.8611C193.319 20.8611 172.301 41.9494 172.301 67.9631C172.301 93.9768 193.319 115.065 219.247 115.065Z" fill="#FFED7E"/>
<path d="M316.116 46.3677L319.881 44.8784H319.934L318.521 48.6914L319.997 52.4686C320.001 52.4832 320.001 52.4988 319.997 52.5134H319.943L316.152 51.0869L312.378 52.5852H312.333C312.329 52.5706 312.329 52.555 312.333 52.5404L313.755 48.7273L312.199 45.0399V44.9951H312.244L316.035 46.4216L316.116 46.3677Z" fill="#FF57B0"/>
<path d="M292.84 58.6507L295.165 57.7535L294.271 60.1131L295.165 62.4458L292.813 61.5486L290.48 62.4458H290.426L291.32 60.0862L290.426 57.7535H290.48L292.831 58.6507H292.84Z" fill="#FC7A5E"/>
<path d="M125.589 44.4481C125.589 44.736 125.703 45.0121 125.906 45.2157C126.109 45.4193 126.384 45.5337 126.671 45.5337C126.958 45.5337 127.233 45.4193 127.436 45.2157C127.639 45.0121 127.753 44.736 127.753 44.4481V41.6937C127.753 41.4058 127.639 41.1297 127.436 40.9261C127.233 40.7225 126.958 40.6082 126.671 40.6082C126.384 40.6082 126.109 40.7225 125.906 40.9261C125.703 41.1297 125.589 41.4058 125.589 41.6937V44.4481Z" fill="#FFC800"/>
<path d="M125.589 35.9698C125.575 36.1201 125.593 36.2715 125.641 36.4145C125.689 36.5575 125.766 36.6889 125.867 36.8004C125.969 36.9118 126.092 37.0008 126.23 37.0617C126.367 37.1226 126.516 37.154 126.666 37.154C126.817 37.154 126.965 37.1226 127.103 37.0617C127.24 37.0008 127.364 36.9118 127.465 36.8004C127.567 36.6889 127.644 36.5575 127.692 36.4145C127.74 36.2715 127.757 36.1201 127.744 35.9698V33.2245C127.757 33.0742 127.74 32.9228 127.692 32.7798C127.644 32.6368 127.567 32.5054 127.465 32.3939C127.364 32.2825 127.24 32.1935 127.103 32.1326C126.965 32.0717 126.817 32.0403 126.666 32.0403C126.516 32.0403 126.367 32.0717 126.23 32.1326C126.092 32.1935 125.969 32.2825 125.867 32.3939C125.766 32.5054 125.689 32.6368 125.641 32.7798C125.593 32.9228 125.575 33.0742 125.589 33.2245V35.9698Z" fill="#FFC800"/>
<path d="M121.082 37.7466C120.94 37.7466 120.799 37.7747 120.668 37.8292C120.537 37.8838 120.417 37.9637 120.317 38.0645C120.216 38.1654 120.137 38.285 120.082 38.4167C120.028 38.5484 120 38.6896 120 38.8322C120 38.9747 120.028 39.1159 120.082 39.2476C120.137 39.3793 120.216 39.499 120.317 39.5998C120.417 39.7006 120.537 39.7806 120.668 39.8351C120.799 39.8897 120.94 39.9178 121.082 39.9178H123.827C124.114 39.9178 124.389 39.8034 124.592 39.5998C124.795 39.3962 124.909 39.1201 124.909 38.8322C124.909 38.5443 124.795 38.2681 124.592 38.0645C124.389 37.861 124.114 37.7466 123.827 37.7466H121.082Z" fill="#FFC800"/>
<path d="M129.523 37.7547C129.373 37.741 129.222 37.7588 129.08 37.8069C128.937 37.855 128.806 37.9324 128.695 38.0341C128.584 38.1358 128.495 38.2597 128.435 38.3977C128.374 38.5357 128.343 38.685 128.343 38.8358C128.343 38.9867 128.374 39.1359 128.435 39.274C128.495 39.412 128.584 39.5358 128.695 39.6376C128.806 39.7393 128.937 39.8167 129.08 39.8648C129.222 39.9129 129.373 39.9306 129.523 39.9169H132.268C132.418 39.9306 132.569 39.9129 132.711 39.8648C132.854 39.8167 132.985 39.7393 133.096 39.6376C133.207 39.5358 133.296 39.412 133.356 39.274C133.417 39.1359 133.448 38.9867 133.448 38.8358C133.448 38.685 133.417 38.5357 133.356 38.3977C133.296 38.2597 133.207 38.1358 133.096 38.0341C132.985 37.9324 132.854 37.855 132.711 37.8069C132.569 37.7588 132.418 37.741 132.268 37.7547H129.523Z" fill="#FFC800"/>
<path d="M147.237 61.2344L145.449 64.8231L147.237 68.367L149.026 64.8231L147.237 61.2344Z" fill="#FF57B0"/>
<path d="M228.869 52.0925C228.814 51.8808 228.678 51.6996 228.49 51.5885C228.302 51.4775 228.078 51.4458 227.867 51.5003C227.656 51.5554 227.474 51.6916 227.362 51.8796C227.25 52.0676 227.216 52.2923 227.268 52.5052C232.821 75.1949 244.329 92.9591 252.869 103.752C254.408 102.299 255.848 100.743 257.179 99.0958C243.453 86.4696 233.627 70.156 228.869 52.0925Z" fill="#F7DC4D"/>
<path d="M218.729 32.4799C217.253 50.4236 213.605 96.1798 192.081 95.2826H245.519C223.995 93.587 220.964 50.298 219.694 32.4799C219.665 32.3738 219.602 32.2802 219.515 32.2135C219.428 32.1467 219.321 32.1106 219.211 32.1106C219.102 32.1106 218.995 32.1467 218.908 32.2135C218.821 32.2802 218.758 32.3738 218.729 32.4799Z" fill="#23489E"/>
<path d="M194.657 56.8744C194.457 56.7893 194.232 56.7857 194.03 56.8645C193.828 56.9432 193.665 57.0981 193.575 57.296C188.896 67.6618 182.454 77.1309 174.537 85.2791C174.958 86.5442 175.431 87.7823 175.959 89.0024C183.751 79.6144 190.179 69.1661 195.05 57.9689C195.137 57.7707 195.145 57.5464 195.072 57.3427C194.998 57.1389 194.85 56.9712 194.657 56.8744Z" fill="#F7DC4D"/>
<path d="M264.824 85.602C249.394 72.8321 238.26 55.6021 232.937 36.257C232.879 36.0486 232.741 35.8717 232.554 35.7643C232.366 35.6569 232.144 35.6276 231.936 35.6828C231.725 35.7377 231.544 35.8743 231.433 36.0627C231.323 36.2511 231.291 36.4759 231.346 36.6876C238.133 63.1993 253.021 82.8566 261.632 92.5282C262.882 90.3101 263.949 87.9937 264.824 85.602Z" fill="#F7DC4D"/>
<path d="M211.119 37.1722C210.902 37.1522 210.686 37.2194 210.518 37.359C210.35 37.4986 210.245 37.6992 210.224 37.9168C207.979 62.3103 196.655 84.9589 178.507 101.348C179.553 102.867 180.685 104.326 181.896 105.717L186.144 106.094C186.284 106.105 186.425 106.081 186.553 106.023C186.681 105.965 186.793 105.875 186.877 105.762C189.452 102.343 209.107 75.0871 211.915 38.0604C211.922 37.9493 211.907 37.8379 211.87 37.7328C211.834 37.6276 211.777 37.5308 211.703 37.448C211.629 37.3652 211.539 37.2982 211.439 37.2508C211.338 37.2035 211.23 37.1767 211.119 37.1722Z" fill="#F7DC4D"/>
<path d="M269.689 23.7592L271.299 20.0449C271.295 20.0301 271.295 20.0147 271.299 20H271.388C271.392 20.0147 271.392 20.0302 271.388 20.0449L273.069 23.7412L276.78 25.3651C276.786 25.371 276.791 25.378 276.794 25.3857C276.797 25.3934 276.799 25.4016 276.799 25.41C276.799 25.4184 276.797 25.4266 276.794 25.4343C276.791 25.442 276.786 25.449 276.78 25.4549L273.096 27.1505L271.531 30.9366H271.442L269.743 27.2313L266.023 25.6164C266.018 25.6018 266.018 25.5861 266.023 25.5715L269.716 23.8938L269.689 23.7592Z" fill="#62FFE3"/>
<path d="M289.066 84.5162C289.066 84.5162 294.262 77.0606 286.116 80.4161C284.265 71.7672 281.072 80.2905 281.072 80.2905C276.154 79.2497 277.379 81.9502 279.284 84.3188C277.817 84.7531 276.5 85.5894 275.481 86.7338C274.462 87.8782 273.782 89.2852 273.516 90.7964C272.622 95.2195 275.054 99.4722 279.007 100.298C282.959 101.123 286.911 98.2251 287.832 93.802C288.225 91.9673 288.018 90.0547 287.242 88.3471C290.086 88.4817 292.5 87.8447 289.066 84.5162Z" fill="#2331B5"/>
<path d="M273.767 60.3732C273.249 60.3802 272.738 60.4896 272.263 60.6951C271.788 60.9005 271.358 61.198 270.997 61.5706C270.637 61.9431 270.353 62.3833 270.162 62.866C269.972 63.3487 269.878 63.8645 269.886 64.3836C269.956 67.465 269.804 70.5474 269.43 73.6066C269.121 76.4693 268.335 79.2595 267.105 81.8607C266.624 82.9673 265.926 83.9652 265.051 84.7946C264.177 85.624 263.145 86.2678 262.017 86.6875C260.906 87.0448 259.739 87.1909 258.574 87.1182C259.058 86.473 259.367 85.7123 259.469 84.9111C259.524 84.1557 259.412 83.3974 259.141 82.6902C258.871 81.9831 258.448 81.3445 257.904 80.82C258.606 80.4662 259.215 79.9511 259.681 79.3166C260.147 78.682 260.457 77.946 260.586 77.1685C260.668 76.1166 260.373 75.07 259.755 74.2167L262.035 74.5487C262.543 74.63 263.062 74.6092 263.562 74.4874C264.062 74.3656 264.533 74.1453 264.947 73.8393C265.362 73.5332 265.711 73.1476 265.976 72.7048C266.24 72.262 266.414 71.7708 266.487 71.2599C266.561 70.749 266.533 70.2285 266.404 69.7287C266.275 69.2289 266.048 68.7598 265.737 68.3487C265.426 67.9376 265.036 67.5927 264.591 67.334C264.146 67.0753 263.654 66.908 263.144 66.8419C262.329 66.7231 261.498 66.871 260.774 67.2636C260.694 67.2636 260.005 67.757 258.986 68.3761L260.586 57.2779C260.655 56.8191 260.601 56.3502 260.431 55.9189C260.261 55.4876 259.98 55.1092 259.616 54.8221C259.253 54.5351 258.82 54.3496 258.363 54.2846C257.905 54.2195 257.438 54.2772 257.009 54.4518L255.328 55.1157C254.905 55.2865 254.444 55.3424 253.992 55.2779C253.54 55.2133 253.112 55.0305 252.753 54.7479L251.322 53.6264C250.961 53.3437 250.531 53.1612 250.077 53.0971C249.623 53.0331 249.16 53.0897 248.735 53.2613C248.309 53.433 247.936 53.7136 247.653 54.0753C247.369 54.4369 247.186 54.8668 247.12 55.3221L245.439 66.9854C244.348 65.7743 243.57 64.8591 243.489 64.7784C243.051 64.348 242.517 64.028 241.931 63.8447C241.345 63.6614 240.725 63.62 240.12 63.7239C239.516 63.8278 238.944 64.074 238.453 64.4424C237.961 64.8108 237.564 65.2908 237.293 65.8431C237.022 66.3954 236.886 67.0043 236.895 67.6197C236.904 68.2351 237.058 68.8396 237.345 69.3836C237.633 69.9276 238.044 70.3955 238.546 70.7491C239.048 71.1026 239.627 71.3317 240.234 71.4175L241.835 71.6508C241.264 72.0092 240.777 72.4875 240.408 73.0529C240.039 73.6182 239.797 74.2571 239.698 74.9255C239.492 76.7916 240.681 78.6039 242.702 79.9766C241.848 80.7532 241.297 81.8088 241.146 82.9553C241.093 83.6417 241.181 84.3318 241.404 84.983C241.627 85.6341 241.981 86.2326 242.443 86.7414C240.749 87.5172 239.313 88.7653 238.307 90.3369C237.3 91.9085 236.765 93.7373 236.765 95.6055V100.711H262.026V94.3226C262.025 94.0227 262.007 93.7232 261.972 93.4254C262.611 93.3391 263.241 93.2041 263.859 93.0217C265.913 92.4427 267.812 91.413 269.421 90.0071C270.932 88.6559 272.207 87.0609 273.194 85.2879C274.959 82.0386 276.154 78.5091 276.727 74.8537C277.341 71.4163 277.696 67.9374 277.791 64.4464V64.267C277.784 63.7455 277.674 63.2305 277.467 62.7519C277.261 62.2733 276.962 61.8404 276.588 61.4784C276.214 61.1163 275.772 60.8322 275.288 60.6425C274.803 60.4529 274.286 60.3613 273.767 60.3732Z" fill="#2331B5"/>
<path d="M214.786 101.607L211.745 95.3271C211.123 94.0064 210.2 92.8512 209.051 91.955C207.901 91.0587 206.557 90.4467 205.128 90.1683L202.446 89.6569L205.468 88.365C206.112 88.113 206.634 87.6217 206.925 86.9933C207.217 86.3649 207.255 85.6479 207.033 84.9916L201.247 69.901L203.492 67.2094C203.555 67.1428 203.59 67.0545 203.59 66.9627C203.59 66.8709 203.555 66.7826 203.492 66.716C202.303 65.6753 196.902 61.7007 189.051 67.6132C189.006 67.6456 188.97 67.6882 188.945 67.7373C188.92 67.7864 188.907 67.8407 188.907 67.8958C188.907 67.9509 188.92 68.0052 188.945 68.0543C188.97 68.1034 189.006 68.1459 189.051 68.1784L192.198 70.5021L188.809 83.3228C188.56 84.247 188.638 85.2294 189.032 86.1018C189.425 86.9742 190.108 87.6823 190.964 88.1048L191.706 88.4726C190.082 88.8802 188.596 89.7167 187.402 90.8952C186.209 92.0738 185.351 93.5514 184.919 95.1746L183.131 101.652H185.617C185.617 101.787 185.697 101.921 185.751 102.047L186.153 103.133C186.77 104.743 187.701 106.215 188.89 107.462C190.079 108.708 191.504 109.705 193.081 110.394C194.658 111.083 196.356 111.45 198.076 111.474C199.795 111.498 201.503 111.179 203.098 110.534C206.836 109.027 208.741 105.555 209.286 101.643L214.786 101.607Z" fill="#2331B5"/>
<path d="M181.781 92.5905C182.397 92.171 182.92 91.6273 183.316 90.994C183.712 90.3607 183.971 89.6517 184.079 88.9121C184.463 85.6553 182.791 82.6318 179.545 80.6311C179.545 80.6311 179.223 79.7339 178.651 78.1907C178.124 76.8539 177.229 75.1403 175.352 74.602L174.958 74.5841H174.878C174.723 74.5748 174.568 74.5748 174.413 74.5841C172.126 74.3549 169.818 74.662 167.67 75.4813C167.563 75.3018 167.465 75.1134 167.357 74.9429C167.268 74.7904 167.179 74.6379 167.089 74.5033C166.914 74.2154 166.679 73.9687 166.4 73.78C166.122 73.5913 165.806 73.465 165.474 73.4096C165.142 73.3543 164.803 73.3713 164.478 73.4594C164.153 73.5475 163.852 73.7046 163.593 73.9202H163.53C163.246 74.161 163.023 74.466 162.879 74.8102C162.735 75.1543 162.675 75.5278 162.703 75.9C162.731 76.2722 162.846 76.6324 163.04 76.9511C163.233 77.2697 163.499 77.5378 163.816 77.7332C164.04 77.8767 164.246 77.9934 164.451 78.11H164.514L164.934 78.3433H164.997C164.965 79.4096 165.079 80.4752 165.337 81.5103C165.623 83.4572 166.302 87.4676 166.678 89.262L166.016 89.2081C162.153 88.5622 158.63 90.85 157.673 95.6499L155.76 104.299H164.103C164.632 107.212 166.212 109.827 168.542 111.644C170.872 113.462 173.787 114.354 176.731 114.151C179.676 113.948 182.442 112.663 184.502 110.543C186.562 108.423 187.77 105.615 187.897 102.657C187.883 100.58 187.306 98.5469 186.229 96.7738C185.151 95.0007 183.614 93.5548 181.781 92.5905Z" fill="#2331B5"/>
<path d="M302.828 101.608C301.596 101.609 300.388 101.95 299.336 102.594C298.284 103.238 297.429 104.16 296.864 105.26V100.002C296.865 99.3663 296.741 98.7365 296.5 98.1488C296.258 97.561 295.903 97.0269 295.456 96.5769C295.008 96.1269 294.476 95.7699 293.891 95.5263C293.305 95.2827 292.678 95.1573 292.044 95.1573H154.445C153.811 95.1573 153.184 95.2827 152.598 95.5263C152.013 95.7699 151.481 96.1269 151.034 96.5769C150.586 97.0269 150.231 97.561 149.989 98.1488C149.748 98.7365 149.624 99.3663 149.625 100.002V105.26C149.08 104.197 148.263 103.299 147.258 102.658C146.253 102.017 145.096 101.656 143.905 101.613C142.715 101.569 141.535 101.844 140.486 102.41C139.437 102.976 138.557 103.812 137.936 104.832C137.316 105.852 136.977 107.019 136.956 108.214C136.934 109.409 137.23 110.588 137.813 111.63C138.395 112.672 139.244 113.54 140.272 114.144C141.3 114.747 142.47 115.066 143.661 115.066C144.111 115.067 144.561 115.022 145.002 114.931V120H301.487V114.931C301.928 115.022 302.378 115.067 302.828 115.066C304.607 115.066 306.313 114.357 307.571 113.095C308.828 111.833 309.535 110.122 309.535 108.337C309.535 106.552 308.828 104.841 307.571 103.579C306.313 102.317 304.607 101.608 302.828 101.608Z" fill="#25309C"/>
</svg>
