<svg width="240" height="464" viewBox="0 0 240 464" fill="none" xmlns="http://www.w3.org/2000/svg">
<g clip-path="url(#clip0)">
<path d="M249 0H0V464H249V0Z" fill="url(#paint0_linear)"/>
<path opacity="0.16" d="M180.5 409C180.5 409 186.5 358 197 348C207.5 338 220.5 338.5 220.5 338.5C220.5 338.5 230.5 279.5 240 266C249.5 252.5 259 265 267 295C267 295 281 272 300 298C300 298 306 289 311 304C311 304 326 284 336 313C336 313 352 311 364.5 330C377 349 379.5 389 379.5 389L180.5 409Z" fill="white"/>
<path d="M269.5 351.258C269.5 351.258 242.5 349.258 245.5 386.258C244.265 383.051 242.193 380.233 239.5 378.098C239.5 378.098 230.5 372.758 222 386.258C213.5 399.758 210 405.198 210 405.198H314.5V327.258C313.5 327.258 280.5 305.258 269.5 351.258Z" fill="#54A18A"/>
<path d="M269.5 351.258C269.5 351.258 242.5 349.258 245.5 386.258C244.265 383.051 243.5 376.758 235.5 375.758C227.5 374.758 219.5 390.258 219.5 390.258C219.5 390.258 227.5 385.258 231 384.258C234.5 383.258 239 385.258 239 385.258C241.5 386.258 245.76 389.474 248.5 391.258C248.63 389.558 248.8 387.938 249 386.398C250.58 383.818 255.69 376.258 261.5 376.258C261.5 376.258 255.67 373.678 251.31 375.258C257.7 354.188 271.5 356.258 271.5 356.258C280.5 335.258 310.5 343.258 310.5 343.258L313.5 336.258L314.5 334.928V327.258C313.5 327.258 280.5 305.258 269.5 351.258Z" fill="#5EB58B"/>
<path d="M240 124H368C368 124 354.51 107.64 341.42 114.19C343.6 105.46 334.88 91.28 322.88 95.65C322.88 95.65 311.97 80.38 295.62 94.56C295.62 94.56 278 18.94 240 18.94C202 18.94 198 94.56 198 94.56C198 94.56 185 84 168.5 95.65C152 107.3 147 124 147 124H240Z" fill="#7D9DF5"/>
<path d="M0 104.32H69.8294C69.8294 104.32 75.2009 71 45.1285 76.35C45.1285 76.35 39.757 39.76 21.486 50.52C21.486 50.52 18.2711 7.52 0 0.660004V104.32Z" fill="#7D9DF5"/>
<path d="M0 128.4C0 128.4 34.3257 134.6 55.2925 185.29C55.2925 185.29 82.2498 176.84 94.2308 216.29C94.2308 216.29 116.196 191.88 133.169 238.82C133.169 238.82 147.147 238.82 147.147 251.02H0.379399L0 128.4Z" fill="#7D9DF5"/>
<path opacity="0.33" d="M128.696 363.32L128.087 364.89C128.087 364.89 128.087 364.95 128.087 364.94L129.665 364.33L131.242 364.94C131.242 364.94 131.242 364.94 131.242 364.89L130.643 363.32L131.242 361.74L129.665 362.34L128.087 361.74L128.696 363.32Z" fill="white"/>
<path opacity="0.33" d="M218.844 265L217.296 264.32C217.296 264.32 217.296 264.26 217.296 264.25L218.844 263.56L219.522 262.01C219.522 262.01 219.582 262.01 219.592 262.01L220.281 263.56L221.829 264.25C221.829 264.25 221.829 264.3 221.829 264.32L220.281 265L219.592 266.55C219.592 266.55 219.542 266.55 219.522 266.55L218.844 265Z" fill="white"/>
<path opacity="0.21" d="M24.3614 115.82L23.7524 117.39C23.7524 117.39 23.7524 117.45 23.7524 117.39L25.3299 116.78L26.9074 117.39C26.9074 117.39 26.9573 117.39 26.9074 117.39L26.3083 115.82L26.9074 114.24L25.3299 114.84L23.7524 114.24L24.3614 115.82Z" fill="white"/>
<path opacity="0.39" d="M64.2782 350C64.2782 350 87.2419 365 81.8105 407.76C81.8105 407.76 91.9444 399.46 95.2292 417C95.2292 417 117.194 363 129.175 398C129.175 398 154.136 384 161.125 464H0.379395V365L64.2782 350Z" fill="white"/>
<path opacity="0.13" d="M45.3083 196.55C56.7209 191.033 69.7742 189.964 81.9303 193.55C69.5499 180.83 55.2925 185.29 55.2925 185.29C34.3256 134.6 0 128.4 0 128.4V133.87C11.0625 143.35 43.6509 173.18 45.3083 196.55Z" fill="white"/>
<path opacity="0.55" d="M191.866 289.2V292.37L156.991 289.2H191.866Z" fill="url(#paint1_linear)"/>
<path d="M195.231 289.2L195.98 281.51L199.883 289.19L195.231 289.2Z" fill="#8CA7F5"/>
<path d="M200.153 289.19V285.19L203.388 288.82L200.153 289.19Z" fill="#8CA7F5"/>
<path d="M192.925 288.82L196.529 289.4V283.39L192.925 288.82Z" fill="#8CA7F5"/>
<path d="M190.808 288.14L205.055 288.46L201.381 290.26L199.884 291.33C198.69 292.319 197.189 292.86 195.64 292.86H192.086C191.84 292.86 191.599 292.796 191.386 292.673C191.172 292.551 190.995 292.375 190.871 292.163C190.747 291.95 190.68 291.709 190.678 291.463C190.676 291.217 190.738 290.975 190.858 290.76L190.808 288.14Z" fill="#3C36A8"/>
<path d="M200.542 290.79L191.048 290.42L190.858 290.76C190.738 290.975 190.676 291.217 190.678 291.463C190.68 291.709 190.747 291.95 190.871 292.163C190.995 292.375 191.172 292.551 191.386 292.673C191.599 292.796 191.84 292.86 192.086 292.86H195.69C197.239 292.86 198.74 292.319 199.933 291.33L200.542 290.79Z" fill="#322CA8"/>
<path d="M191.766 290.53L193.004 292.27H193.783L193.184 290.53H191.766Z" fill="#2B25A8"/>
<path d="M193.783 290.21H189.76V290.86H193.783V290.21Z" fill="#244CBF"/>
<path opacity="0.25" d="M240 0H164.12C164.12 0 97.2261 22 57.2893 117L88.2403 110.5C88.2403 110.5 161.744 35.8 240 9.09V0Z" fill="url(#paint2_linear)"/>
<path d="M246 41C246 25.5 226.941 20.73 221.03 29C221.03 29 201.431 8 182.341 42.52H179.715C174.274 42.52 168.913 44.63 164.04 48.68L162.113 50.29H268.5C268.5 50.29 257.5 38 246 41Z" fill="white"/>
<path opacity="0.13" d="M76.2592 423C76.2592 423 88.2403 407 94.2308 429C94.2308 429 110.205 407 132.171 424H154.445C144.461 389.44 129.175 398 129.175 398C117.194 363 95.2292 417 95.2292 417C91.9444 399.46 81.8104 407.76 81.8104 407.76C86.2434 369 66.275 352 66.275 352L42.1133 365L39.3177 379C38.3193 381 74.2624 391 76.2592 423Z" fill="white"/>
<path d="M154.056 210H222.897C222.897 210 207.521 201.26 202.07 203.17C202.07 203.17 202.19 194.84 195.201 198.66C195.201 198.66 187.793 179.86 170.24 194.93C166.557 196.005 163.175 197.928 160.365 200.544C157.555 203.161 155.395 206.399 154.056 210V210Z" fill="#7D9DF5"/>
<path d="M155.284 394.1C155.284 394.1 160.176 387.52 160.156 384.26C160.136 381 163.97 392.17 163.97 392.17L155.284 394.1Z" fill="#CACACA"/>
<path d="M183.829 408.46C189.959 419.69 200.652 427.79 212.094 433.46C214.492 434.755 217.065 435.694 219.732 436.25C222.432 436.798 225.239 436.354 227.64 435C228.569 434.467 229.328 433.68 229.826 432.73C230.074 432.257 230.204 431.73 230.204 431.195C230.204 430.66 230.074 430.133 229.826 429.66C229.182 428.779 228.224 428.181 227.15 427.99C226.152 427.72 225.343 427.74 224.295 427.51L223.925 427.42C226.629 427.449 229.311 426.935 231.813 425.91C234.319 424.871 236.453 423.097 237.933 420.82C238.808 419.572 239.189 418.043 239.002 416.53C238.882 415.785 238.508 415.105 237.944 414.605C237.379 414.106 236.659 413.817 235.906 413.79C234.299 413.89 233.221 415.39 232.043 416.47C230.882 417.495 229.486 418.217 227.979 418.57C229.628 417.849 231.104 416.784 232.31 415.445C233.515 414.107 234.421 412.527 234.968 410.81C235.467 409.19 235.467 407.08 234.039 406.16C233.569 405.897 233.04 405.759 232.502 405.759C231.964 405.759 231.434 405.897 230.964 406.16C230.033 406.695 229.207 407.397 228.528 408.23C225.263 411.79 221.899 415.64 217.276 417.02C212.913 418.32 208.18 417.12 203.997 415.3C196.918 412.2 189.51 407.68 185.616 400.99C185.027 402.58 185.616 403.66 184.708 405.1C184.092 405.907 183.7 406.863 183.569 407.87C183.56 407.986 183.588 408.101 183.649 408.2C183.609 408.36 183.709 408.54 183.829 408.46Z" fill="white"/>
<path d="M183.829 408.46C183.739 408.54 183.609 408.36 183.549 408.26C183.488 408.162 183.46 408.046 183.469 407.93C183.6 406.923 183.992 405.967 184.608 405.16C185.396 403.87 185.027 402.86 185.376 401.53L185.876 401.63C187.439 404.075 189.384 406.252 191.637 408.08C191.637 415.98 196.089 420.37 199.993 426.2C193.357 421.562 187.836 415.502 183.829 408.46V408.46Z" fill="#E4E4E4"/>
<path d="M190.918 366C185.872 371.075 182.224 377.372 180.329 384.279C178.434 391.185 178.357 398.465 180.105 405.41" stroke="white" stroke-width="9.87" stroke-miterlimit="10"/>
<path d="M185.606 423.84C185.606 423.84 194.103 410.18 185.766 400.32L183.499 399.56C183.499 399.56 182.102 404.87 181.343 404.87L179.346 398.42L169.711 396.42C169.711 396.42 169.711 402.8 163.571 401.92C163.571 401.92 160.945 406.31 167.075 425.63L185.606 423.84Z" fill="#484482"/>
<path d="M181.333 404.73V404.87L182.87 399.3L187.254 400.18C195.59 410.04 185.596 423.84 185.596 423.84H185.337L180.714 417.13L181.333 404.73Z" fill="#413D75"/>
<path d="M180.704 417.13L167.984 425.64L185.606 423.84L180.704 417.13Z" fill="#3A385B"/>
<path d="M204.975 416.8C204.706 416.38 204.456 415.95 204.227 415.5C208.33 417.24 212.923 418.34 217.206 417.08L217.476 416.99C218.534 417.042 219.595 417.018 220.651 416.92C221.291 416.792 221.955 416.844 222.568 417.07C222.914 417.266 223.194 417.561 223.372 417.917C223.55 418.274 223.617 418.675 223.566 419.07C223.443 419.837 223.067 420.542 222.498 421.07C221.047 422.375 219.184 423.125 217.236 423.19C215.483 423.353 213.716 423.151 212.045 422.595C210.375 422.039 208.838 421.142 207.531 419.96C206.556 419.013 205.698 417.952 204.975 416.8Z" fill="#CACACA"/>
<path d="M185.606 364.37L187.603 365.1L192.515 367.73L194.222 369.64C191.764 372.063 189.699 374.857 188.102 377.92C187.643 373.53 184.907 369.6 183.11 367.46C184.029 366.21 184.887 365.18 185.606 364.37Z" fill="#E4E4E4"/>
<path d="M163.601 401.93C169.741 402.81 169.741 396.43 169.741 396.43V402.81C169.941 407.71 167.105 410.71 163.751 412.54C162.253 404.18 163.601 401.93 163.601 401.93Z" fill="#3A385B"/>
<path d="M181.263 341.44C181.563 343.8 184.837 351.69 184.837 351.69C184.837 351.69 186.095 343.24 185.836 340.88C185.576 338.52 184.288 336.74 183.04 336.88C181.792 337.02 180.973 339.09 181.263 341.44Z" fill="#CACACA"/>
<path d="M200.556 367.355C204.407 363.099 203.406 355.906 198.32 351.288C193.233 346.67 185.988 346.377 182.136 350.632C178.285 354.888 179.286 362.081 184.373 366.699C189.459 371.317 196.705 371.61 200.556 367.355Z" fill="white"/>
<path d="M171.099 346.84C173.725 348.56 185.406 350.59 185.406 350.59C185.406 350.59 178.897 340.66 176.271 338.94C173.645 337.22 170.36 337.59 168.932 339.77C167.505 341.95 168.473 345.11 171.099 346.84Z" fill="white"/>
<path d="M174.394 354.26C176.82 354.13 185.047 350.45 185.047 350.45C185.047 350.45 176.471 347.68 174.064 347.81C171.658 347.94 169.751 349.49 169.851 351.27C169.951 353.05 171.968 354.39 174.394 354.26Z" fill="white"/>
<path d="M201.062 362C201.062 362 196.808 371.55 193.404 361.5L201.062 362Z" fill="#333333"/>
<path d="M193.404 361.44C187.174 360.71 182.551 356.44 183.09 351.82C183.224 350.788 183.604 349.804 184.198 348.95C188.192 346.56 194.043 347.37 198.326 351.26C200.67 353.343 202.234 356.165 202.759 359.26C200.028 361.145 196.685 361.924 193.404 361.44V361.44Z" fill="#5AE6DC"/>
<path d="M193.404 361.44C194.336 359.982 195.547 358.724 196.968 357.739C198.389 356.754 199.991 356.061 201.681 355.7C201.681 355.7 208.021 360.42 218.854 362.76C220.061 363.019 221.141 363.691 221.909 364.66L222.018 364.81L193.404 361.44Z" fill="#F5CD1B"/>
<path d="M191.682 358.57C192.291 357.985 192.109 356.803 191.274 355.929C190.439 355.055 189.268 354.82 188.659 355.405C188.049 355.989 188.232 357.171 189.066 358.045C189.901 358.919 191.072 359.154 191.682 358.57Z" fill="black"/>
<path d="M215.249 363.228C215.345 363.005 215.061 362.668 214.616 362.476C214.17 362.283 213.731 362.308 213.635 362.531C213.539 362.755 213.822 363.091 214.268 363.284C214.714 363.476 215.153 363.451 215.249 363.228Z" fill="#BD9E15"/>
<path d="M174.124 407.2C175.095 407.2 175.882 406.412 175.882 405.44C175.882 404.468 175.095 403.68 174.124 403.68C173.154 403.68 172.367 404.468 172.367 405.44C172.367 406.412 173.154 407.2 174.124 407.2Z" fill="#737093"/>
<path opacity="0.7" d="M221.649 335L222.787 337.55C222.787 337.563 222.793 337.576 222.802 337.585C222.811 337.595 222.824 337.6 222.837 337.6C222.85 337.6 222.863 337.595 222.872 337.585C222.882 337.576 222.887 337.563 222.887 337.55L224.025 335L226.571 333.86C226.584 333.86 226.597 333.855 226.607 333.845C226.616 333.836 226.621 333.823 226.621 333.81C226.621 333.797 226.616 333.784 226.607 333.775C226.597 333.765 226.584 333.76 226.571 333.76L224.025 332.62L222.917 330C222.912 329.992 222.904 329.985 222.895 329.98C222.887 329.976 222.877 329.973 222.867 329.973C222.857 329.973 222.847 329.976 222.839 329.98C222.83 329.985 222.823 329.992 222.817 330L221.649 332.58L219.103 333.72C219.095 333.725 219.088 333.733 219.083 333.742C219.079 333.75 219.076 333.76 219.076 333.77C219.076 333.78 219.079 333.79 219.083 333.798C219.088 333.807 219.095 333.815 219.103 333.82L221.649 335Z" fill="white"/>
<path d="M204.137 379.02H163.142V384.95H204.137V379.02Z" fill="#663727"/>
<path d="M204.137 394.82H163.142V400.75H204.137V394.82Z" fill="#663727"/>
<path opacity="0.7" d="M139.779 384L140.917 386.55C140.917 386.563 140.922 386.576 140.932 386.585C140.941 386.595 140.954 386.6 140.967 386.6C140.98 386.6 140.993 386.595 141.002 386.585C141.011 386.576 141.017 386.563 141.017 386.55L142.155 384L144.701 382.86C144.714 382.86 144.727 382.855 144.736 382.845C144.746 382.836 144.751 382.823 144.751 382.81C144.751 382.797 144.746 382.784 144.736 382.775C144.727 382.765 144.714 382.76 144.701 382.76L142.155 381.62L141.047 379C141.041 378.992 141.034 378.985 141.025 378.98C141.016 378.976 141.007 378.973 140.997 378.973C140.987 378.973 140.977 378.976 140.968 378.98C140.96 378.985 140.952 378.992 140.947 379L139.779 381.58L137.233 382.72C137.224 382.725 137.218 382.733 137.213 382.742C137.208 382.75 137.206 382.76 137.206 382.77C137.206 382.78 137.208 382.79 137.213 382.798C137.218 382.807 137.224 382.815 137.233 382.82L139.779 384Z" fill="white"/>
<path d="M162.283 367.17C162.964 367.17 163.616 367.441 164.097 367.923C164.579 368.405 164.849 369.058 164.849 369.74V410.63H159.747V369.73C159.75 369.055 160.017 368.409 160.491 367.93C160.966 367.451 161.609 367.178 162.283 367.17V367.17Z" fill="#804531"/>
<path d="M204.047 367.17C204.727 367.17 205.38 367.441 205.861 367.923C206.342 368.405 206.613 369.058 206.613 369.74V410.63H201.481V369.73C201.484 369.05 201.755 368.399 202.236 367.919C202.717 367.439 203.368 367.17 204.047 367.17V367.17Z" fill="#804531"/>
<path d="M128.397 214.58L128.457 203.19C128.468 201.575 128.976 200.002 129.912 198.686C130.849 197.371 132.167 196.377 133.688 195.84L141.676 193.05L141.766 177.05L152.079 177.11L151.999 191.2H154.186C154.639 191.201 155.087 191.292 155.504 191.468C155.922 191.643 156.3 191.899 156.619 192.222C156.937 192.544 157.188 192.926 157.359 193.347C157.529 193.767 157.614 194.217 157.61 194.67L157.461 221.28L128.387 221.12L128.397 214.58Z" fill="#B587FA"/>
<path d="M151.279 177.812L140.966 177.709L140.637 210.589L150.951 210.692L151.279 177.812Z" fill="#FECCAF"/>
<path d="M145.488 177.091L141.734 177.07L141.567 207.129L145.321 207.15L145.488 177.091Z" fill="#F2B08A"/>
<path d="M152.063 176.198L141.749 176.14C141.231 176.137 140.809 176.556 140.806 177.075C140.803 177.594 141.221 178.017 141.739 178.02L152.052 178.078C152.571 178.081 152.993 177.662 152.996 177.143C152.999 176.624 152.581 176.201 152.063 176.198Z" fill="#E484AB"/>
<path d="M150.159 182.757L149.221 182.752L149.21 184.632L150.149 184.637L150.159 182.757Z" fill="#F2B08A"/>
<path d="M150.138 186.517L149.2 186.512L149.189 188.392L150.128 188.397L150.138 186.517Z" fill="#F2B08A"/>
<path d="M150.107 190.277L149.169 190.271L149.158 192.151L150.097 192.157L150.107 190.277Z" fill="#F2B08A"/>
<path d="M164.684 186.598L168.389 186.619C168.759 186.623 169.113 186.771 169.376 187.032C169.639 187.293 169.79 187.646 169.799 188.017L169.67 211.016L163.101 210.979L163.229 187.98C163.23 187.792 163.268 187.606 163.341 187.433C163.413 187.26 163.52 187.103 163.653 186.971C163.786 186.839 163.944 186.734 164.118 186.664C164.291 186.593 164.477 186.557 164.665 186.558L164.684 186.598Z" fill="#7C70FA"/>
<path d="M171.156 200.654C172.027 200.659 172.86 201.01 173.473 201.631C174.085 202.251 174.427 203.09 174.422 203.962L174.325 221.342L167.756 221.305L167.852 203.976C167.848 203.539 167.931 203.106 168.095 202.702C168.259 202.298 168.502 201.931 168.81 201.622C169.117 201.313 169.483 201.068 169.886 200.902C170.288 200.736 170.72 200.651 171.156 200.654V200.654Z" fill="#857AFA"/>
<path d="M164.133 197.865L157.563 197.828L157.427 222.247L163.996 222.284L164.133 197.865Z" fill="#ED988D"/>
<path d="M157.578 196.888L164.148 196.925C164.397 196.926 164.635 197.027 164.81 197.204C164.985 197.381 165.082 197.621 165.081 197.87V197.87C165.08 198.12 164.979 198.358 164.802 198.533C164.625 198.709 164.386 198.806 164.137 198.805L157.568 198.768L157.578 196.888Z" fill="#E484AB"/>
<path d="M163.162 205.379L166.756 205.4C167.299 205.403 167.818 205.621 168.2 206.008C168.582 206.395 168.795 206.917 168.792 207.461L168.787 208.221L163.146 208.189L163.162 205.379Z" fill="#335DD4"/>
<path d="M165.018 207.26L173.774 207.309C174.473 207.312 175.164 207.454 175.809 207.726C176.453 207.997 177.037 208.393 177.528 208.891C178.02 209.388 178.409 209.978 178.672 210.626C178.936 211.274 179.07 211.968 179.066 212.668L179.017 221.428L164.94 221.349L165.018 207.26Z" fill="#335DD4"/>
<path d="M121.937 221.12C121.937 221.12 123.734 208.92 127.458 214.58C127.458 214.58 130.344 200.5 133.109 208.97C133.109 208.97 134.108 205.22 135.935 208.05C135.935 208.05 141.666 189.29 149.084 205.3L147.087 221.3L121.937 221.12Z" fill="#4A849A"/>
<path d="M147.236 212.81L132.23 212.726L132.183 221.176L147.189 221.26L147.236 212.81Z" fill="#FECCAF"/>
<path d="M135.984 212.737L132.23 212.716L132.183 221.166L135.937 221.187L135.984 212.737Z" fill="#F2B08A"/>
<path d="M143.412 212.779L131.222 212.711C130.704 212.708 130.281 213.126 130.278 213.645C130.275 214.165 130.693 214.588 131.211 214.591L143.402 214.659C143.92 214.662 144.343 214.243 144.346 213.724C144.349 213.205 143.931 212.782 143.412 212.779Z" fill="#E484AB"/>
<path d="M145.869 222.84C144.345 220.939 143.392 218.643 143.121 216.22C142.85 213.797 143.273 211.347 144.339 209.155C145.405 206.964 147.072 205.121 149.144 203.841C151.216 202.562 153.609 201.899 156.043 201.93C158.477 201.961 160.852 202.684 162.891 204.015C164.931 205.346 166.55 207.23 167.561 209.448C168.572 211.666 168.933 214.126 168.601 216.541C168.269 218.957 167.259 221.228 165.688 223.09L145.869 222.84Z" fill="#A0F995"/>
<path d="M149.583 217.67C152.708 218.47 152.688 222.39 152.688 222.39H156.602C156.602 220.04 154.296 215.32 150.382 215.3C147.317 215.3 144.761 211.92 143.792 210.45C143.429 211.466 143.198 212.525 143.103 213.6C144.707 215.69 147.006 217.135 149.583 217.67V217.67Z" fill="white"/>
<path d="M162.908 216.998C163.323 217 163.721 217.168 164.013 217.464C164.306 217.76 164.469 218.16 164.466 218.577L164.44 223.276L161.305 223.259L161.331 218.559C161.334 218.143 161.501 217.744 161.797 217.451C162.092 217.159 162.492 216.995 162.908 216.998V216.998Z" fill="#86D17D"/>
<path d="M117.744 224L123.664 243.14L124.982 247.87C125.189 248.59 125.555 249.254 126.053 249.813C126.551 250.372 127.167 250.812 127.858 251.1L135.645 254.27L145.14 264.85C145.456 265.2 145.87 265.448 146.328 265.56L151.69 266.94C152.244 267.082 152.83 267.03 153.35 266.794C153.871 266.558 154.296 266.151 154.555 265.64L160.456 254C161.308 252.33 162.723 251.015 164.45 250.29L175.872 245.47L183.02 224.39L117.744 224Z" fill="#6C4C78"/>
<path d="M175.604 213.909L174.926 213.905L174.91 216.725L175.589 216.729L175.604 213.909Z" fill="#2C4FB5"/>
<path d="M176.613 213.905L175.934 213.901L175.918 216.721L176.597 216.725L176.613 213.905Z" fill="#2C4FB5"/>
<path d="M126.789 223.03L131.721 239.14L136.714 243.19L136.684 249.23L139.279 258.29L142.245 261.6L143.702 251.28L148.784 239.24L145.819 231.18L149.883 222.15L126.789 223.03Z" fill="#63496E"/>
<path d="M165.937 223.25L163.881 232.29L163.801 247.37L168.893 233.32L168.913 230.3L171.948 227.3L172.966 223.29L165.937 223.25Z" fill="#63496E"/>
<path d="M120.822 220.982L180.057 221.314C180.851 221.318 181.611 221.638 182.17 222.204C182.729 222.77 183.04 223.535 183.035 224.33L117.75 223.965C117.754 223.17 118.074 222.408 118.639 221.849C119.204 221.289 119.967 220.978 120.762 220.982L120.822 220.982Z" fill="#7ECEB8"/>
<path d="M151.241 250L196.699 250.26C196.699 250.26 193.793 245.26 189.46 246.34C189.46 246.34 189.54 241.79 183.989 243.86C183.989 243.86 177.539 232.12 166.786 245.45C166.786 245.45 156.832 246.51 151.241 250Z" fill="#B0C3F5"/>
<path d="M90.337 71.58H91.7547C93.1061 71.5827 94.4012 72.1222 95.3559 73.0802C96.3105 74.0382 96.8467 75.3365 96.8467 76.69V85.12H90.337V71.58Z" fill="#707AFA"/>
<path d="M93.5918 86.52H20.8869L26.478 94L33.0077 95.86L35.4938 100.22C36.2944 101.621 37.5972 102.665 39.138 103.14L48.8526 106.14L49.7812 110.81L54.4438 116.41L56.3108 122L67.4931 125.73L71.2272 124.8L73.0843 116.39L116.016 98.66L113.221 89.32L93.5918 86.52Z" fill="#464878"/>
<path d="M71.8263 86.52L69.6297 88.08C68.763 88.6958 68.1328 89.5901 67.844 90.6144C67.5552 91.6387 67.6252 92.7311 68.0423 93.71L69.3602 96.79L83.338 107.06L85.9539 111.06L115.966 98.65L113.171 89.31L102.917 86.51L71.8263 86.52Z" fill="#3F4170"/>
<path d="M40.7654 86.52L41.674 88.7C42.0992 89.7009 42.8676 90.5167 43.8406 91L49.8311 94L52.4669 97.3C52.6055 97.4717 52.7785 97.6125 52.9747 97.7131C53.171 97.8138 53.3861 97.8721 53.6063 97.8843C53.8264 97.8966 54.0466 97.8625 54.2528 97.7842C54.459 97.706 54.6465 97.5853 54.8032 97.43C55.2656 96.9667 55.8531 96.6488 56.4935 96.5156C57.1338 96.3823 57.7991 96.4395 58.4075 96.68L61.0234 97.68L61.9519 107.02L66.6145 114.49L67.543 125.69L71.2771 124.76L73.1342 116.35L69.4101 108.88L67.4132 106.88C66.8931 106.325 66.5461 105.63 66.4148 104.88L64.6975 96.79L61.902 90.25L62.9603 86.52H40.7654Z" fill="#3F4170"/>
<path d="M27.4166 86.52L29.2736 88.39L31.1407 91.19L32.2988 91.77C32.5096 91.8681 32.7444 91.9028 32.9745 91.8696C33.2046 91.8364 33.4201 91.7369 33.5948 91.5832C33.7694 91.4295 33.8956 91.2282 33.958 91.0039C34.0204 90.7796 34.0163 90.542 33.9462 90.32V90.25L34.8847 88.39L35.8133 85.59L27.4265 85.43L27.4166 86.52Z" fill="#3F4170"/>
<path d="M54.1942 35.79H60.4643C60.8983 35.79 61.328 35.8756 61.729 36.042C62.1299 36.2083 62.4942 36.4521 62.8011 36.7595C63.108 37.0668 63.3514 37.4317 63.5175 37.8333C63.6836 38.2349 63.7691 38.6653 63.7691 39.1V46.25H54.1942V35.79Z" fill="#DB86C7"/>
<path d="M49.4318 26.21H48.8227L47.5947 19.48C47.5755 19.399 47.5295 19.3268 47.4643 19.2752C47.3991 19.2235 47.3184 19.1954 47.2352 19.1954C47.1521 19.1954 47.0714 19.2235 47.0062 19.2752C46.9409 19.3268 46.895 19.399 46.8758 19.48L45.6577 26.21H45.0387C44.412 26.2113 43.7917 26.3362 43.2131 26.5777C42.6346 26.8191 42.1092 27.1723 41.667 27.6171C41.2248 28.0619 40.8743 28.5896 40.6357 29.17C40.3971 29.7504 40.2749 30.3723 40.2763 31V31.91C40.2763 33.1751 40.778 34.3883 41.6711 35.2829C42.5643 36.1774 43.7756 36.68 45.0387 36.68H49.4318C50.0575 36.6813 50.6774 36.5588 51.2558 36.3196C51.8342 36.0803 52.3598 35.729 52.8023 35.2858C53.2448 34.8426 53.5955 34.3163 53.8344 33.737C54.0732 33.1576 54.1955 32.5368 54.1942 31.91V31C54.1968 30.3719 54.0756 29.7495 53.8374 29.1685C53.5993 28.5874 53.2489 28.0592 52.8064 27.6142C52.3639 27.1691 51.838 26.816 51.2589 26.575C50.6798 26.334 50.0589 26.21 49.4318 26.21V26.21Z" fill="#DB86C7"/>
<path d="M56.81 31.44H37.6703V57.58H56.81V31.44Z" fill="#DBA6D0"/>
<path d="M22.754 84.73C22.754 84.73 23.9621 74.42 26.4681 77C26.4681 77 27.7061 67.55 33.9063 70.12L32.6583 85.59L22.754 84.73Z" fill="#4A849A"/>
<path d="M79.3544 59.82H81.9702C84.4593 59.82 86.8465 60.8104 88.6065 62.5732C90.3666 64.336 91.3554 66.727 91.3554 69.22V84.73H79.3743V59.82H79.3544Z" fill="#7A87FA"/>
<path d="M81.0617 43.57H42.4728V84.72H81.0617V43.57Z" fill="#D0DAF5"/>
<path d="M81.0617 75.28H42.4728V84.73H81.0617V75.28Z" fill="#1B3A85"/>
<path d="M42.4727 75.28H30.4717V84.73H42.4727V75.28Z" fill="#173170"/>
<path d="M42.4827 75.28H30.4717V58.1L42.4827 47.79V75.28Z" fill="#9DAEDE"/>
<path d="M76.7784 47.79H47.6246V70.98H76.7784V47.79Z" fill="#2D2687"/>
<path d="M53.2057 60.68H42.0534V84.73H53.2057V60.68Z" fill="#69C9C9"/>
<path d="M53.6251 59.82H41.6241C41.1499 59.82 40.7654 60.205 40.7654 60.68C40.7654 61.155 41.1499 61.54 41.6241 61.54H53.6251C54.0993 61.54 54.4837 61.155 54.4837 60.68C54.4837 60.205 54.0993 59.82 53.6251 59.82Z" fill="#54BABA"/>
<path d="M41.6241 60.68L46.6162 55.68C46.7331 55.5618 46.8723 55.4679 47.0257 55.4039C47.1791 55.3399 47.3436 55.3069 47.5098 55.3069C47.6759 55.3069 47.8405 55.3399 47.9938 55.4039C48.1472 55.4679 48.2864 55.5618 48.4034 55.68L53.0859 60.37L41.6241 60.68Z" fill="#54BABA"/>
<path d="M43.8406 68.41H36.1228V84.73H43.8406V68.41Z" fill="#80E0E0"/>
<path d="M33.7466 84.9C33.7466 84.9 39.9368 77 41.6241 79.57C41.6241 79.57 44.19 71.84 46.766 78.71C46.766 78.71 49.3419 77 51.0492 82.15C51.0492 82.15 57.9083 80.79 61.7722 84.9H33.7466Z" fill="#4A849A"/>
<path d="M22.7539 84.65H98.2544V86.52H20.8869C20.8869 86.024 21.0836 85.5484 21.4337 85.1977C21.7839 84.847 22.2588 84.65 22.7539 84.65Z" fill="#6FC0CE"/>
<path opacity="0.46" d="M63.7491 70.98H70.4984L76.8184 64.37V57.18L63.7491 70.98Z" fill="#7196FF"/>
<path d="M44.3198 67.83H35.6436C35.3017 67.83 35.0245 68.1076 35.0245 68.45C35.0245 68.7924 35.3017 69.07 35.6436 69.07H44.3198C44.6617 69.07 44.9388 68.7924 44.9388 68.45C44.9388 68.1076 44.6617 67.83 44.3198 67.83Z" fill="#54BABA"/>
<path d="M123.474 92.2L118.412 81.87C118.135 81.3013 117.748 80.7929 117.274 80.3741C116.8 79.9552 116.248 79.6339 115.65 79.4287C115.052 79.2235 114.419 79.1383 113.788 79.178C113.157 79.2176 112.54 79.3814 111.973 79.66V79.66C111.306 79.9912 110.57 80.1591 109.826 80.15L98.4741 80.09C97.7313 80.0841 97 79.9061 96.3374 79.57V79.57C95.7729 79.281 95.1568 79.1069 94.5247 79.0576C93.8926 79.0084 93.257 79.0849 92.6546 79.283C92.0521 79.481 91.4948 79.7965 91.0148 80.2114C90.5348 80.6262 90.1415 81.1321 89.8577 81.7L84.6859 92C84.073 93.2191 83.9674 94.6318 84.3922 95.9288C84.817 97.2258 85.7375 98.3013 86.9523 98.92V98.92C88.1722 99.5285 89.5831 99.6281 90.8761 99.1971C92.1691 98.766 93.239 97.8394 93.8514 96.62L96.1078 92.15L112.083 92.24L114.289 96.74C114.891 97.9648 115.953 98.9004 117.243 99.341C118.533 99.7816 119.945 99.6914 121.168 99.09V99.09C122.384 98.4803 123.309 97.4132 123.742 96.1219C124.174 94.8307 124.078 93.4205 123.474 92.2V92.2Z" fill="#CBD6F5"/>
<path d="M96.2476 84.27H95.2492V83.27C95.2492 82.9783 95.1335 82.6985 94.9275 82.4922C94.7216 82.2859 94.4422 82.17 94.1509 82.17C93.8597 82.17 93.5803 82.2859 93.3744 82.4922C93.1684 82.6985 93.0527 82.9783 93.0527 83.27V84.27H92.0543C91.763 84.27 91.4836 84.3859 91.2777 84.5922C91.0717 84.7985 90.956 85.0783 90.956 85.37C90.956 85.6617 91.0717 85.9415 91.2777 86.1478C91.4836 86.3541 91.763 86.47 92.0543 86.47H93.0527V87.47C93.0381 87.6226 93.0555 87.7765 93.1038 87.922C93.1521 88.0674 93.2303 88.2012 93.3332 88.3146C93.4362 88.428 93.5616 88.5187 93.7016 88.5807C93.8415 88.6427 93.9929 88.6748 94.1459 88.6748C94.299 88.6748 94.4503 88.6427 94.5903 88.5807C94.7303 88.5187 94.8557 88.428 94.9587 88.3146C95.0616 88.2012 95.1397 88.0674 95.188 87.922C95.2364 87.7765 95.2538 87.6226 95.2392 87.47V86.47H96.2376C96.39 86.4846 96.5437 86.4671 96.6889 86.4188C96.8341 86.3704 96.9677 86.2921 97.0809 86.189C97.1942 86.0859 97.2847 85.9602 97.3466 85.8201C97.4085 85.6799 97.4405 85.5283 97.4405 85.375C97.4405 85.2217 97.4085 85.0701 97.3466 84.9299C97.2847 84.7898 97.1942 84.6641 97.0809 84.561C96.9677 84.4579 96.8341 84.3796 96.6889 84.3312C96.5437 84.2829 96.39 84.2654 96.2376 84.28L96.2476 84.27Z" fill="#4561B0"/>
<path d="M113.43 84.7C114.125 84.7 114.688 84.1359 114.688 83.44C114.688 82.7441 114.125 82.18 113.43 82.18C112.736 82.18 112.172 82.7441 112.172 83.44C112.172 84.1359 112.736 84.7 113.43 84.7Z" fill="#5C56A8"/>
<path d="M113.4 88.71C114.095 88.71 114.658 88.1459 114.658 87.45C114.658 86.7541 114.095 86.19 113.4 86.19C112.706 86.19 112.142 86.7541 112.142 87.45C112.142 88.1459 112.706 88.71 113.4 88.71Z" fill="#4561B0"/>
<path d="M115.417 86.71C116.112 86.71 116.675 86.1459 116.675 85.45C116.675 84.7541 116.112 84.19 115.417 84.19C114.722 84.19 114.159 84.7541 114.159 85.45C114.159 86.1459 114.722 86.71 115.417 86.71Z" fill="#DB86C7"/>
<path d="M111.414 86.69C112.108 86.69 112.672 86.1259 112.672 85.43C112.672 84.7341 112.108 84.17 111.414 84.17C110.719 84.17 110.156 84.7341 110.156 85.43C110.156 86.1259 110.719 86.69 111.414 86.69Z" fill="#6DBFBF"/>
<path opacity="0.36" d="M98.3942 89.05H109.736C110.029 89.0604 110.305 89.184 110.508 89.3948C110.711 89.6056 110.825 89.8871 110.825 90.18V92.18H97.276V90.18C97.276 89.882 97.3935 89.5961 97.6029 89.3845C97.8123 89.1728 98.0967 89.0526 98.3942 89.05Z" fill="#2D4CA6"/>
<path d="M82.4095 97.7L90.7963 111.73L98.2545 110.79L102.917 117.33L110.575 114.87L113.171 110.79L117.025 109.86L120.379 108.74L125.272 97.7H82.4095Z" fill="#544C82"/>
<path d="M113.171 110.79L116.895 100.52L117.025 109.86L113.171 110.79Z" fill="#4C4478"/>
<path d="M99.2828 112.24L100.121 108.92L97.3259 104.26L98.2545 101.46L96.3874 100.52L95.2193 97.72H85.7443L87.0722 100.52L89.8677 101.46L93.5918 102.39L96.3874 105.19L95.9082 106.86L99.183 109.86L98.2545 110.79" fill="#4C4478"/>
<path d="M106.641 96.79L104.784 98.66L105.713 102.9L104.784 105.19L108.508 110.79L112.242 106.12L114.099 101.46L116.895 96.79H106.641Z" fill="#4C4478"/>
<path d="M84.2766 95.85H123.425C123.92 95.85 124.395 96.047 124.745 96.3977C125.095 96.7484 125.292 97.2241 125.292 97.72H82.4095C82.4095 97.2241 82.6062 96.7484 82.9564 96.3977C83.3065 96.047 83.7814 95.85 84.2766 95.85V95.85Z" fill="#6FC0CE"/>
<path d="M76.8184 79.05H74.0228V81.85H76.8184V79.05Z" fill="#1E3F91"/>
<path d="M72.1557 79.05H69.3602V81.85H72.1557V79.05Z" fill="#1E3F91"/>
<path d="M81.481 79C81.9762 79 82.4511 79.197 82.8012 79.5477C83.1513 79.8984 83.348 80.374 83.348 80.87V84.6H79.6139V80.92C79.6073 80.6703 79.6506 80.4217 79.7415 80.189C79.8323 79.9563 79.9688 79.7442 80.1428 79.5653C80.3169 79.3863 80.525 79.2441 80.7548 79.147C80.9846 79.0499 81.2316 78.9999 81.481 79V79Z" fill="#707AFA"/>
<path d="M153.627 30.5H101.05C101.05 30.5 116.895 16.5 125.282 25.84C130.034 24.2932 135.088 23.9091 140.02 24.7198C144.951 25.5306 149.617 27.5126 153.627 30.5V30.5Z" fill="#B1C5FD"/>
<path d="M73.0843 74.1C73.5971 74.1 74.0128 73.6836 74.0128 73.17C74.0128 72.6564 73.5971 72.24 73.0843 72.24C72.5715 72.24 72.1558 72.6564 72.1558 73.17C72.1558 73.6836 72.5715 74.1 73.0843 74.1Z" fill="#A1B2E3"/>
<path d="M75.8798 74.1C76.3926 74.1 76.8084 73.6836 76.8084 73.17C76.8084 72.6564 76.3926 72.24 75.8798 72.24C75.367 72.24 74.9513 72.6564 74.9513 73.17C74.9513 73.6836 75.367 74.1 75.8798 74.1Z" fill="#A1B2E3"/>
<path d="M70.2887 74.1C70.8015 74.1 71.2172 73.6836 71.2172 73.17C71.2172 72.6564 70.8015 72.24 70.2887 72.24C69.7759 72.24 69.3602 72.6564 69.3602 73.17C69.3602 73.6836 69.7759 74.1 70.2887 74.1Z" fill="#A1B2E3"/>
<path d="M86.1436 341.62L91.605 353.92C91.7928 354.343 92.0661 354.723 92.4076 355.036C92.7491 355.348 93.1514 355.587 93.5892 355.736C94.0271 355.885 94.4911 355.942 94.952 355.903C95.4129 355.864 95.8608 355.731 96.2676 355.51L103.846 351.42C104.159 351.254 104.496 351.136 104.844 351.07L107.09 350.69C107.788 350.574 108.432 350.239 108.928 349.734C109.425 349.23 109.75 348.581 109.856 347.88L111.853 334.88C111.941 334.299 112.178 333.75 112.543 333.289C112.907 332.828 113.385 332.47 113.93 332.25L116.476 331.25L118.732 324.48C118.837 324.158 119.017 323.865 119.256 323.625C119.496 323.385 119.788 323.206 120.11 323.1L124.273 321.71L131.202 312.17H100.94L86.1436 341.62Z" fill="#613543"/>
<path d="M107.42 262.68H91.5251V309.58H106.581V264.35H107.42C107.625 264.327 107.815 264.23 107.953 264.076C108.091 263.922 108.167 263.722 108.167 263.515C108.167 263.308 108.091 263.108 107.953 262.954C107.815 262.8 107.625 262.703 107.42 262.68V262.68Z" fill="#B78AFA"/>
<path d="M0 201.54C0 201.54 4.18338 204.05 8.36675 199.86C8.36675 199.86 4.18338 205.73 8.36675 209.86C8.36675 209.86 5.86072 214.05 7.52808 218.24H10.0341C10.0341 218.24 15.0262 214.89 10.8728 207.35C10.8728 207.35 25.0903 185.57 7.52808 192.27C7.52808 192.27 13.3788 172.17 0 167.15V201.54Z" fill="white"/>
<path d="M6.62952 216.61H12.5302C12.8559 216.61 13.1682 216.74 13.3985 216.97C13.6289 217.201 13.7582 217.514 13.7582 217.84V230H5.40147V217.85C5.40015 217.688 5.43094 217.527 5.49207 217.376C5.55319 217.226 5.64344 217.089 5.75761 216.974C5.87178 216.858 6.0076 216.767 6.15725 216.705C6.3069 216.642 6.46741 216.61 6.62952 216.61V216.61Z" fill="#E37B66"/>
<path d="M13.7582 222.81H18.0315C18.2274 222.81 18.4153 222.888 18.5539 223.027C18.6925 223.165 18.7703 223.354 18.7703 223.55V228.33H13.7782V222.8L13.7582 222.81Z" fill="#F2B08A"/>
<path d="M109.926 293.67H116.615V301.2H118.283V302.88H120.799V308.74H103.237L106.322 293.67H109.926Z" fill="#857AFA"/>
<path d="M86.5131 254.3V239.23H66.4448L70.6182 308.74H84.8357V310.42H92.3638V254.3H86.5131Z" fill="#857AFA"/>
<path d="M78.1363 285.89C77.1379 291.31 76.6287 302.04 82.4794 308.74L100.271 311.39C107.61 309.22 113.79 302.08 115.497 292.75C116.588 287.174 115.779 281.392 113.201 276.33C112.97 275.977 112.633 275.706 112.238 275.557C111.844 275.407 111.413 275.386 111.006 275.497C110.599 275.608 110.238 275.845 109.974 276.175C109.71 276.504 109.557 276.908 109.537 277.33V277.39C109.447 281.29 107.3 282.61 105.333 282.09C103.366 281.57 101.719 278.84 101.809 274.95C101.821 273.426 102.137 271.92 102.737 270.52C102.91 270.171 103.002 269.787 103.005 269.398C103.008 269.008 102.922 268.623 102.755 268.272C102.588 267.92 102.343 267.611 102.039 267.369C101.735 267.126 101.38 266.955 101 266.87H100.94C90.6265 264.92 80.4127 273.46 78.1363 285.89ZM103.017 286.06C103.228 285.647 103.556 285.307 103.961 285.081C104.365 284.856 104.827 284.756 105.289 284.794C105.75 284.832 106.19 285.006 106.552 285.295C106.914 285.584 107.182 285.974 107.323 286.416C107.463 286.857 107.47 287.331 107.341 287.776C107.212 288.222 106.954 288.619 106.6 288.917C106.246 289.215 105.811 289.402 105.351 289.452C104.89 289.502 104.426 289.415 104.015 289.2C103.469 288.914 103.058 288.424 102.871 287.836C102.684 287.248 102.736 286.609 103.017 286.06V286.06Z" fill="#E39E29"/>
<path d="M76.8783 285.89C75.8799 291.31 75.3707 302.04 81.2214 308.74L99.0132 311.39C106.352 309.22 112.522 302.08 114.229 292.75C115.323 287.175 114.518 281.393 111.943 276.33C111.713 275.973 111.376 275.698 110.98 275.546C110.584 275.393 110.149 275.371 109.74 275.483C109.331 275.594 108.967 275.833 108.703 276.165C108.438 276.497 108.286 276.905 108.269 277.33V277.39C108.179 281.29 106.042 282.61 104.075 282.09C102.108 281.57 100.451 278.84 100.541 274.95C100.556 273.425 100.875 271.919 101.479 270.52C101.652 270.171 101.744 269.787 101.747 269.398C101.75 269.008 101.664 268.623 101.497 268.272C101.33 267.92 101.085 267.611 100.781 267.369C100.477 267.126 100.122 266.955 99.7421 266.87H99.6822C89.3485 264.92 79.1347 273.46 76.8783 285.89ZM101.759 286.06C101.97 285.651 102.298 285.313 102.701 285.09C103.103 284.868 103.563 284.77 104.022 284.808C104.48 284.847 104.917 285.021 105.276 285.309C105.636 285.596 105.902 285.984 106.042 286.423C106.182 286.862 106.188 287.333 106.061 287.776C105.933 288.218 105.677 288.613 105.326 288.911C104.974 289.208 104.543 289.394 104.085 289.445C103.628 289.497 103.166 289.412 102.757 289.2C102.208 288.918 101.792 288.429 101.601 287.841C101.41 287.252 101.46 286.612 101.739 286.06H101.759Z" fill="#F6CF56"/>
<path opacity="0.55" d="M89.1388 275.8C90.6764 275.67 92.6633 275.89 92.1341 278.22C91.8789 279.117 91.3079 279.892 90.5266 280.4C89.7894 280.925 89.1787 281.608 88.7395 282.4V282.4C87.8209 283.94 86.2035 284.72 85.1352 284.14C84.0669 283.56 83.9371 281.85 84.8556 280.31C85.0943 279.906 85.3941 279.542 85.7442 279.23C86.2075 278.783 86.5509 278.225 86.7426 277.61C86.9279 277.111 87.2519 276.675 87.6765 276.354C88.1012 276.033 88.6086 275.841 89.1388 275.8V275.8Z" fill="#67E694"/>
<path d="M76.6586 293C77.3775 295.69 80.223 295.23 82.8688 294.51C85.5146 293.79 86.9623 293.1 86.2435 290.42C86.1362 289.726 85.8841 289.062 85.5035 288.472C85.123 287.882 84.6225 287.379 84.0348 286.995C83.4471 286.612 82.7854 286.357 82.0926 286.247C81.3999 286.136 80.6918 286.174 80.0144 286.356C79.3371 286.538 78.7057 286.862 78.1614 287.305C77.6171 287.748 77.1722 288.301 76.8556 288.928C76.539 289.554 76.3578 290.241 76.3238 290.943C76.2899 291.644 76.404 292.345 76.6586 293V293Z" fill="#BBB0D9"/>
<path opacity="0.55" d="M103.376 301.4C104.754 301.33 105.273 300.27 105.882 299.4C106.202 298.98 105.882 299.4 107.011 298.45C109.337 296.5 105.173 295.84 103.087 295.95C101 296.06 99.3627 297.36 99.4426 298.86C99.5224 300.36 101.29 301.52 103.376 301.4Z" fill="#FF82B3"/>
<path opacity="0.55" d="M92.2939 295C91.7569 294.934 91.2122 294.975 90.6911 295.121C90.1699 295.266 89.6826 295.513 89.2569 295.848C88.8312 296.182 88.4755 296.597 88.2103 297.07C87.9451 297.542 87.7754 298.062 87.7111 298.6C87.4915 300.82 88.9692 304.83 91.2655 305.07C93.5619 305.31 95.8183 301.68 96.0479 299.45C96.2576 297.45 94.3706 299.2 93.7416 298.45C93.1126 297.7 93.482 295.12 92.2939 295Z" fill="#FF8280"/>
<path d="M52.4469 201.28C52.4469 202.543 52.1985 203.794 51.7158 204.961C51.2331 206.129 50.5257 207.189 49.6338 208.082C48.7419 208.976 47.6831 209.684 46.5178 210.168C45.3524 210.651 44.1035 210.9 42.8422 210.9C41.5808 210.9 40.3319 210.651 39.1666 210.168C38.0013 209.684 36.9424 208.976 36.0505 208.082C35.1587 207.189 34.4512 206.129 33.9685 204.961C33.4858 203.794 33.2374 202.543 33.2374 201.28C33.2374 196.68 40.4559 190.66 42.3829 189.14C42.5143 189.034 42.6782 188.976 42.8472 188.976C43.0161 188.976 43.18 189.034 43.3114 189.14C45.2284 190.66 52.4469 196.68 52.4469 201.28Z" fill="#FAEA94"/>
<path d="M50.5699 207C39.0482 205.56 36.5921 197.8 36.1028 195.23C34.4954 197.23 33.2374 199.38 33.2374 201.3C33.2337 203.327 33.8702 205.304 35.0559 206.947C36.2417 208.59 37.9159 209.816 39.839 210.448C41.7622 211.08 43.8358 211.088 45.7632 210.468C47.6906 209.849 49.3731 208.635 50.5699 207Z" fill="#F2C377"/>
<path opacity="0.49" d="M42.3829 189.14C40.452 190.656 38.6488 192.328 36.9915 194.14L38.9883 193.73C39.1071 193.707 39.2293 193.708 39.3477 193.733C39.4661 193.758 39.5783 193.806 39.6778 193.875C39.7774 193.944 39.8621 194.032 39.9272 194.134C39.9922 194.236 40.0362 194.351 40.0566 194.47L40.3262 196.09C40.3579 196.268 40.442 196.433 40.5677 196.563C40.6935 196.694 40.8552 196.783 41.0322 196.821C41.2091 196.858 41.3932 196.842 41.5609 196.774C41.7286 196.707 41.8723 196.59 41.9736 196.44L43.2016 194.59C43.2854 194.47 43.3968 194.373 43.5262 194.305C43.6557 194.238 43.7995 194.203 43.9454 194.203C44.0914 194.203 44.2352 194.238 44.3646 194.305C44.4941 194.373 44.6055 194.47 44.6893 194.59C44.808 194.733 44.9678 194.837 45.147 194.886C45.3262 194.935 45.5162 194.929 45.6915 194.866C45.8667 194.804 46.0187 194.69 46.1269 194.538C46.2351 194.387 46.2944 194.206 46.2967 194.02V193.84C46.2973 193.706 46.3272 193.575 46.3844 193.454C46.4416 193.333 46.5246 193.227 46.6275 193.142C46.7304 193.057 46.8507 192.996 46.9799 192.962C47.1091 192.929 47.244 192.925 47.375 192.95H47.6246C46.258 191.562 44.8075 190.26 43.2815 189.05C43.1429 188.963 42.9795 188.925 42.8169 188.941C42.6543 188.958 42.5017 189.028 42.3829 189.14V189.14Z" fill="#FF6135"/>
<path d="M50.55 212.59H36.1328L37.6504 208.63H49.0324L50.55 212.59Z" fill="#FFF0DB"/>
<path d="M45.6078 212.59H35.3441L36.9216 208.63H44.0303L45.6078 212.59Z" fill="#FECCAF"/>
<path d="M50.8495 210.91H34.8748C32.0992 210.91 29.8827 213.77 30.1123 216.74L33.3073 266.24C33.4087 267.786 34.0935 269.235 35.2227 270.294C36.3519 271.352 37.841 271.941 39.3876 271.94H45.3781C46.9044 271.94 48.375 271.365 49.4977 270.33C50.6204 269.294 51.3132 267.874 51.4385 266.35L55.592 216.57C55.6842 215.881 55.6319 215.18 55.4384 214.512C55.2448 213.844 54.9144 213.224 54.4681 212.692C54.0217 212.159 53.4694 211.725 52.8463 211.419C52.2233 211.112 51.5432 210.939 50.8495 210.91V210.91Z" fill="#4972E5"/>
<path d="M53.2257 248.78L38.6488 210.91H34.8448C32.0692 210.91 29.8527 213.77 30.0823 216.74L33.2773 266.24C33.3787 267.786 34.0635 269.235 35.1927 270.294C36.322 271.352 37.811 271.941 39.3577 271.94H45.3482C46.2219 271.941 47.0856 271.754 47.88 271.389C48.6745 271.025 49.3809 270.493 49.9509 269.83L51.4285 266.11L53.2257 248.78Z" fill="#394ED4"/>
<path d="M77.7369 249.28H46.7959V307.91H77.7369V249.28Z" fill="#FFEACF"/>
<path d="M78.346 307.9H46.7959V249.28H48.8926L78.346 307.9Z" fill="#FFD4F8"/>
<path d="M76.8783 247.06L75.5603 246.14C74.7969 245.604 74.0819 245.002 73.4237 244.34L62.2414 233.14L50.0707 245.34L47.6046 247.06H76.8783Z" fill="#C74E7E"/>
<path d="M48.9824 248.08L55.572 248.44L62.7506 233.16L60.594 234.2L48.9824 246.41" fill="#B83F6E"/>
<path d="M80.243 245.09H44.2799C42.8959 245.09 41.7739 246.214 41.7739 247.6V247.61C41.7739 248.996 42.8959 250.12 44.2799 250.12H80.243C81.627 250.12 82.749 248.996 82.749 247.61V247.6C82.749 246.214 81.627 245.09 80.243 245.09Z" fill="#E46A9B"/>
<path d="M62.2614 235.04C64.1086 235.04 65.6061 233.54 65.6061 231.69C65.6061 229.84 64.1086 228.34 62.2614 228.34C60.4142 228.34 58.9167 229.84 58.9167 231.69C58.9167 233.54 60.4142 235.04 62.2614 235.04Z" fill="#E46A9B"/>
<path d="M33.8264 231.69H0.379395V308.74H33.8264V231.69Z" fill="#FF93AF"/>
<path d="M0.379395 228.34H37.1711C38.0582 228.34 38.9089 228.693 39.5362 229.321C40.1635 229.949 40.5158 230.802 40.5158 231.69V231.69C40.5053 232.572 40.1483 233.413 39.5222 234.033C38.8961 234.653 38.0513 235 37.1711 235H0.379395V228.3V228.34Z" fill="#C74E7E"/>
<path d="M61.4327 268.54H12.9295V308.74H61.4327V268.54Z" fill="#FEC4A3"/>
<path d="M27.9757 291.15H24.631V308.74H27.9757V291.15Z" fill="#F2A477"/>
<path d="M49.7213 291.15H46.3766V308.74H49.7213V291.15Z" fill="#F2A477"/>
<path d="M35.2242 291.15H31.8795V308.74H35.2242V291.15Z" fill="#F2A477"/>
<path d="M42.4728 291.15H39.1281V308.74H42.4728V291.15Z" fill="#F2A477"/>
<path d="M0.379395 312.12V378.92L23.7724 390.2L43.7407 392.81L54.1343 381.53L59.346 380.22C60.9606 379.815 62.4633 379.051 63.7424 377.985C65.0216 376.919 66.0442 375.577 66.7343 374.06L77.5173 350.29L92.2439 345.09L94.3107 340.27C94.6646 339.455 95.2473 338.76 95.988 338.27L101.3 334.72C102.168 334.14 102.815 333.284 103.137 332.29L109.576 312.14L0.379395 312.12Z" fill="#69404F"/>
<path d="M18.7803 285.29H7.90747V307.9H18.7803V285.29Z" fill="#E3887D"/>
<path d="M24.641 269.38H12.9295V290.32H24.641V269.38Z" fill="#E3887D"/>
<path d="M63.5194 264.35H10.8328C9.2172 264.35 7.90747 265.662 7.90747 267.28C7.90747 268.898 9.2172 270.21 10.8328 270.21H63.5194C65.135 270.21 66.4448 268.898 66.4448 267.28C66.4448 265.662 65.135 264.35 63.5194 264.35Z" fill="#749AF7"/>
<path d="M20.4476 289.3H52.5568C52.7338 289.299 52.9093 289.332 53.0734 289.399C53.2374 289.466 53.3867 289.564 53.5128 289.688C53.6389 289.813 53.7393 289.961 53.8082 290.124C53.8772 290.287 53.9133 290.463 53.9146 290.64C53.916 290.819 53.8818 290.996 53.814 291.162C53.7462 291.328 53.6463 291.478 53.5199 291.605C53.3935 291.731 53.2433 291.831 53.078 291.899C52.9126 291.967 52.7355 292.001 52.5568 292H20.4476V289.3Z" fill="#E46A9B"/>
<path opacity="0.65" d="M12.5102 248.94C12.8438 248.94 13.1638 249.073 13.3998 249.309C13.6357 249.545 13.7682 249.866 13.7682 250.2V253.47H11.2522V250.2C11.2522 249.866 11.3847 249.545 11.6207 249.309C11.8566 249.073 12.1766 248.94 12.5102 248.94Z" fill="#A35077"/>
<path d="M52.6466 279.09C52.8127 279.089 52.9773 279.12 53.1311 279.183C53.2849 279.246 53.4248 279.338 53.5426 279.456C53.6605 279.573 53.7541 279.712 53.8179 279.866C53.8818 280.019 53.9146 280.184 53.9146 280.35V283.62H51.3886V280.35C51.3886 280.016 51.5212 279.695 51.7571 279.459C51.993 279.223 52.313 279.09 52.6466 279.09V279.09Z" fill="#F2A477"/>
<path opacity="0.65" d="M20.867 248.94C21.2006 248.94 21.5206 249.073 21.7565 249.309C21.9925 249.545 22.125 249.866 22.125 250.2V253.47H19.619V250.2C19.619 249.866 19.7515 249.545 19.9874 249.309C20.2233 249.073 20.5433 248.94 20.877 248.94H20.867Z" fill="#A35077"/>
<path d="M48.4633 273.23C48.7969 273.23 49.1169 273.363 49.3528 273.599C49.5887 273.835 49.7213 274.156 49.7213 274.49V277.76H47.2053V274.49C47.2053 274.156 47.3378 273.835 47.5737 273.599C47.8096 273.363 48.1296 273.23 48.4633 273.23V273.23Z" fill="#F2A477"/>
<path opacity="0.65" d="M16.6936 243.08C16.8596 243.077 17.0245 243.108 17.1788 243.169C17.3331 243.231 17.4737 243.322 17.5925 243.438C17.7113 243.555 17.806 243.693 17.871 243.846C17.9361 243.999 17.9702 244.164 17.9715 244.33V247.6H15.4355V244.33C15.4382 243.998 15.5719 243.68 15.8075 243.445C16.0432 243.211 16.3616 243.08 16.6936 243.08V243.08Z" fill="#A35077"/>
<path d="M56.83 273.23C57.1637 273.23 57.4837 273.363 57.7196 273.599C57.9555 273.835 58.088 274.156 58.088 274.49V277.76H55.572V274.49C55.572 274.156 55.7046 273.835 55.9405 273.599C56.1764 273.363 56.4964 273.23 56.83 273.23V273.23Z" fill="#F2A477"/>
<path d="M61.3029 298.83C62.0682 298.83 62.8021 299.134 63.3432 299.676C63.8844 300.218 64.1884 300.954 64.1884 301.72V307.91H58.4275V301.72C58.4275 300.955 58.7301 300.222 59.2691 299.68C59.808 299.138 60.5394 298.833 61.3029 298.83V298.83Z" fill="#E46A9B"/>
<path d="M69.5399 298.83C70.3052 298.83 71.0391 299.134 71.5802 299.676C72.1213 300.218 72.4253 300.954 72.4253 301.72V307.91H66.6545V301.72C66.6545 300.954 66.9585 300.218 67.4996 299.676C68.0407 299.134 68.7746 298.83 69.5399 298.83V298.83Z" fill="#E46A9B"/>
<path d="M77.7769 298.83C78.5421 298.83 79.2761 299.134 79.8172 299.676C80.3583 300.218 80.6623 300.954 80.6623 301.72V307.91H74.8815V301.72C74.8815 301.34 74.9564 300.963 75.1021 300.612C75.2477 300.26 75.4611 299.941 75.7301 299.673C75.9991 299.404 76.3184 299.192 76.6696 299.047C77.0208 298.902 77.3971 298.829 77.7769 298.83V298.83Z" fill="#E46A9B"/>
<path d="M10.8328 264.35H24.631V270.21H10.8328C10.057 270.21 9.3129 269.901 8.76429 269.352C8.21568 268.802 7.90747 268.057 7.90747 267.28V267.28C7.90747 266.503 8.21568 265.758 8.76429 265.208C9.3129 264.659 10.057 264.35 10.8328 264.35V264.35Z" fill="#5483F7"/>
<path d="M43.7008 392.81L46.766 379C46.88 378.494 46.8209 377.965 46.5982 377.497C46.3754 377.029 46.002 376.65 45.5379 376.42L44.5395 375.9C44.2316 375.746 43.9617 375.526 43.7495 375.255C43.5372 374.984 43.3879 374.669 43.3123 374.333C43.2368 373.997 43.237 373.648 43.3128 373.312C43.3886 372.976 43.5382 372.661 43.7507 372.39L51.0292 363C51.3322 362.621 51.507 362.155 51.5284 361.67L53.1559 325.79C53.1747 325.33 53.3302 324.887 53.6024 324.516C53.8745 324.146 54.251 323.865 54.6834 323.71L62.1416 321C62.5376 320.858 62.8843 320.604 63.14 320.27L66.0255 316.66C66.1462 316.518 66.2799 316.387 66.4248 316.27L71.8862 312.12H46.3167L47.984 324.77C48.019 325.009 48.019 325.251 47.984 325.49L42.1333 358C42.0758 358.304 41.9577 358.594 41.7862 358.852C41.6147 359.109 41.3932 359.33 41.1349 359.5L34.2558 364.33C33.947 364.541 33.6945 364.824 33.5205 365.156C33.3464 365.487 33.2561 365.856 33.2574 366.23V371.16C33.2589 371.681 33.0868 372.188 32.7681 372.6L20.3079 388.53L23.7724 390.2L43.7008 392.81Z" fill="#613544"/>
<path d="M77.4773 350.29L85.275 326.87L87.8808 332.07L85.7143 347.38L77.4773 350.29Z" fill="#613544"/>
<path d="M0.379395 310.38H24.641L28.6347 321.67C28.8358 322.228 28.8671 322.834 28.7245 323.41L26.8475 330.9C26.6972 331.496 26.3676 332.032 25.9033 332.434C25.439 332.837 24.8624 333.087 24.2516 333.15L20.198 333.55C19.4948 333.621 18.8395 333.94 18.348 334.449C17.8565 334.957 17.5605 335.624 17.5123 336.33L16.9731 345C16.9353 345.539 16.753 346.057 16.4455 346.501C16.1379 346.944 15.7166 347.296 15.2259 347.52L7.75771 351C7.46221 351.128 7.19176 351.307 6.95898 351.53L0.379395 357.63V310.38Z" fill="#613544"/>
<path d="M0.379395 307.78H126.859C128.008 307.78 129.111 308.237 129.923 309.051C130.736 309.865 131.192 310.969 131.192 312.12V312.12H0.379395V307.78Z" fill="#81C793"/>
<path d="M45.428 309.51H40.2363L51.4984 313.85L61.892 315.59L74.0128 310.38L45.428 309.51Z" fill="#81C793"/>
<path d="M6.73935 284.45H21.2863V287.14H6.73935C6.56234 287.14 6.38707 287.105 6.22354 287.037C6.06001 286.969 5.91142 286.87 5.78626 286.745C5.6611 286.619 5.56182 286.47 5.49408 286.307C5.42634 286.143 5.39148 285.967 5.39148 285.79C5.39411 285.434 5.53728 285.093 5.78977 284.842C6.04226 284.591 6.38359 284.45 6.73935 284.45V284.45Z" fill="#B84B76"/>
<path d="M21.2963 292V284.46H18.7902V292H21.2963Z" fill="#B84B76"/>
<path d="M73.1541 253.98H69.6896V257.45H73.1541V253.98Z" fill="#FFDEB3"/>
<path d="M73.1541 260.06H69.6896V263.53H73.1541V260.06Z" fill="#FFDEB3"/>
<path d="M73.1541 273.07H69.6896V276.54H73.1541V273.07Z" fill="#FFDEB3"/>
<path d="M93.9413 253.98H81.8105V255.72H93.9413V253.98Z" fill="#6152FA"/>
<path d="M153.138 406.21L153.727 398.05C153.807 396.802 154.22 395.598 154.922 394.564C155.625 393.53 156.591 392.703 157.72 392.17L163.122 389.64C163.737 389.35 164.412 389.209 165.092 389.227C165.772 389.246 166.438 389.423 167.037 389.746C167.636 390.069 168.151 390.528 168.54 391.086C168.93 391.644 169.184 392.286 169.282 392.96C169.701 396.14 169.132 400.82 165.368 407.09L153.138 406.21Z" fill="white"/>
<path d="M161.125 398C161.125 398 167.225 397.73 169.382 396.12C169.431 395.424 169.431 394.726 169.382 394.03C168.373 395.54 163.601 397.44 161.125 398Z" fill="white"/>
<path d="M160.126 402C160.126 402 165.119 403 168.184 401.35C168.363 400.86 168.523 400.35 168.653 399.91C166.045 401.349 163.103 402.07 160.126 402V402Z" fill="white"/>
<path d="M196.569 364C195.918 363.994 195.273 364.106 194.662 364.33C196.339 367.05 198.066 366.17 199.304 364.77C198.494 364.237 197.538 363.968 196.569 364V364Z" fill="#FF7BAA"/>
<path d="M157.131 112C160.44 112 163.122 109.314 163.122 106C163.122 102.686 160.44 100 157.131 100C153.823 100 151.141 102.686 151.141 106C151.141 109.314 153.823 112 157.131 112Z" fill="#2F4FAD"/>
<path d="M148.145 106H165.119L167.115 115L165.119 119L162.123 122L161.414 125.57C161.337 125.956 161.115 126.297 160.793 126.524C160.472 126.751 160.076 126.846 159.687 126.79L154.136 126L151.141 116L149.603 116.39C149.283 116.476 148.95 116.495 148.622 116.446C148.295 116.397 147.981 116.281 147.7 116.106C147.42 115.931 147.178 115.699 146.99 115.427C146.802 115.154 146.672 114.845 146.608 114.52L146.099 112L148.145 106Z" fill="#2C56C7"/>
<path d="M157.131 103C158.19 103 159.206 102.579 159.955 101.828C160.704 101.078 161.125 100.061 161.125 99H153.138C153.138 100.061 153.558 101.078 154.307 101.828C155.056 102.579 156.072 103 157.131 103Z" fill="#2F4FAD"/>
<path d="M184.388 72.86H185.147C185.475 72.86 185.79 72.9906 186.022 73.2232C186.254 73.4557 186.385 73.7711 186.385 74.1V80.36H184.388V72.86Z" fill="#3458BF"/>
<path d="M184.887 69.86H181.393V80.36H184.887V69.86Z" fill="#3458BF"/>
<path d="M187.883 80.36H176.9L177.898 85.86L179.995 87.6C180.255 87.7721 180.465 88.0102 180.604 88.29L181.393 89.86L182.251 92.44C182.269 92.494 182.298 92.5438 182.335 92.5865C182.373 92.6291 182.419 92.6636 182.47 92.6879C182.522 92.7122 182.577 92.7258 182.634 92.7279C182.691 92.73 182.748 92.7205 182.801 92.7L184.887 91.86L185.386 87.86C185.796 86.9758 186.298 86.1377 186.884 85.36L187.883 80.36Z" fill="#3057BD"/>
<path d="M181.393 76.86C180.466 76.86 179.577 77.2287 178.922 77.8851C178.266 78.5415 177.898 79.4317 177.898 80.36H184.887C184.887 79.4317 184.519 78.5415 183.864 77.8851C183.208 77.2287 182.32 76.86 181.393 76.86Z" fill="#395FCC"/>
<path d="M0.379395 354C0.379395 354 26.0088 376.92 27.8359 407.17C27.8359 407.17 41.5642 398 36.9914 433.75C36.9914 433.75 47.3051 424 48.3035 444C48.3035 444 75.2608 412 84.2466 457C84.2466 457 98.2245 449 116.196 464H0.379395V354Z" fill="white"/>
<path d="M168.988 405.677C170.636 403.463 170.943 400.901 169.674 399.953C168.405 399.006 166.041 400.033 164.393 402.247C162.746 404.461 162.439 407.024 163.708 407.971C164.976 408.918 167.341 407.891 168.988 405.677Z" fill="white"/>
<path d="M122.187 406L117.464 407.31C117.07 407.414 116.701 407.6 116.383 407.855C116.064 408.111 115.803 408.43 115.615 408.792C115.427 409.155 115.316 409.553 115.291 409.961C115.266 410.368 115.326 410.777 115.467 411.16L122.187 429L130.174 437V446L145.39 451L149.144 464H240V405L122.187 406Z" fill="#964B55"/>
<path opacity="0.73" d="M175.103 415L180.095 431C180.095 431 189.919 445.58 190.079 448L194.073 458L200.562 464H217.875L208.16 455C207.497 454.381 206.967 453.632 206.604 452.799C206.242 451.967 206.055 451.068 206.054 450.16V450L198.066 447L188.082 430L189.081 413L175.103 415Z" fill="#AB616B"/>
<path d="M240 405.29L122.546 406C122.31 406 122.075 406.03 121.847 406.09L115.697 407.8C115.53 407.845 115.375 407.924 115.241 408.032C115.107 408.141 114.997 408.276 114.918 408.429C114.839 408.583 114.793 408.751 114.783 408.923C114.772 409.096 114.798 409.268 114.858 409.43L116.855 415C116.855 415 175.053 417 180.045 416C182.743 415.484 185.409 414.816 188.032 414L220.98 413L240 413.587V405.29Z" fill="#81C793"/>
<path d="M240 404L122.536 406C122.307 406 122.078 406.03 121.857 406.09L115.707 407.79C115.54 407.837 115.384 407.918 115.25 408.029C115.116 408.139 115.006 408.276 114.927 408.431C114.848 408.586 114.802 408.756 114.792 408.929C114.782 409.103 114.808 409.277 114.868 409.44L115.697 411.67C115.697 411.67 175.103 414 180.095 413C182.793 412.484 185.459 411.816 188.082 411L221.03 410L240 410.592V404Z" fill="#A3FAA8"/>
<path opacity="0.53" d="M160.616 464L158.619 459L155.624 452L162.613 445L163.611 442L146.638 448L130.174 446L145.39 451L149.144 464H160.616Z" fill="#70375A"/>
</g>
<defs>
<linearGradient id="paint0_linear" x1="124.5" y1="466.11" x2="124.5" y2="133.74" gradientUnits="userSpaceOnUse">
<stop stop-color="#7796F7"/>
<stop offset="1" stop-color="#3461DF"/>
</linearGradient>
<linearGradient id="paint1_linear" x1="191.736" y1="290.78" x2="173.655" y2="290.112" gradientUnits="userSpaceOnUse">
<stop stop-color="#9CB5F7"/>
<stop offset="0.85" stop-color="#A37ECD" stop-opacity="0"/>
</linearGradient>
<linearGradient id="paint2_linear" x1="135.755" y1="172.98" x2="164.73" y2="-73.3194" gradientUnits="userSpaceOnUse">
<stop offset="0.34" stop-color="#A37ECD" stop-opacity="0"/>
<stop offset="1" stop-color="#9CB5F7"/>
</linearGradient>
<clipPath id="clip0">
<rect width="240" height="464" fill="white"/>
</clipPath>
</defs>
</svg>
