<svg width="48" height="55" viewBox="0 0 48 55" fill="none" xmlns="http://www.w3.org/2000/svg">
<path d="M29.0302 22.8202C27.4677 22.8202 26.2341 24.1642 26.2341 25.8373C26.2341 27.5104 27.4951 28.8544 29.0302 28.8544C30.5928 28.8544 31.8263 27.5104 31.8263 25.8373C31.8263 24.1642 30.5653 22.8202 29.0302 22.8202ZM19.0245 22.8202C17.462 22.8202 16.2284 24.1642 16.2284 25.8373C16.2284 27.5104 17.4894 28.8544 19.0245 28.8544C20.587 28.8544 21.8206 27.5104 21.8206 25.8373C21.848 24.1642 20.587 22.8202 19.0245 22.8202Z" fill="#5865f2"/>
<path d="M42.3529 0H5.61965C2.52199 0 0 2.52339 0 5.62277V42.3765C0 45.4759 2.52199 47.9993 5.61965 47.9993H36.7059L35.253 42.9799L38.7618 46.2164L42.0788 49.261L48 54.39V5.62277C47.9726 2.52339 45.4506 0 42.3529 0ZM31.7716 35.5195C31.7716 35.5195 30.7847 34.34 29.9623 33.3252C33.5534 32.3104 34.924 30.0887 34.924 30.0887C33.8001 30.8292 32.731 31.3504 31.7716 31.7069C30.4009 32.2829 29.0851 32.6395 27.7967 32.8863C25.165 33.3801 22.7527 33.2429 20.6967 32.8589C19.1342 32.5572 17.791 32.1458 16.667 31.6795C16.0365 31.4327 15.3512 31.1309 14.6659 30.747C14.5837 30.6921 14.5014 30.6647 14.4192 30.6098C14.3644 30.5824 14.3369 30.555 14.3095 30.555C13.8161 30.2807 13.542 30.0887 13.542 30.0887C13.542 30.0887 14.8578 32.2555 18.3392 33.2978C17.5168 34.34 16.5026 35.5469 16.5026 35.5469C10.4443 35.3549 8.14163 31.4052 8.14163 31.4052C8.14163 22.6556 12.0891 15.5518 12.0891 15.5518C16.0366 12.6169 19.7647 12.6992 19.7647 12.6992L20.0388 13.0284C15.1045 14.4272 12.8567 16.594 12.8567 16.594C12.8567 16.594 13.4597 16.2649 14.474 15.826C17.4072 14.5369 19.7373 14.2078 20.6967 14.0981C20.8612 14.0706 20.9983 14.0432 21.1628 14.0432C22.8349 13.8238 24.7264 13.7689 26.7002 13.9884C29.3044 14.2901 32.1005 15.0581 34.9515 16.594C34.9515 16.594 32.7858 14.5369 28.1256 13.1381L28.5094 12.6992C28.5094 12.6992 32.265 12.6169 36.185 15.5518C36.185 15.5518 40.1325 22.6556 40.1325 31.4052C40.1325 31.3778 37.8298 35.3275 31.7716 35.5195Z" fill="#5865f2"/>
</svg>
