<svg xmlns="http://www.w3.org/2000/svg" viewBox="0 0 1693 657"><path fill="#060607" d="M325.7 293.67c-.14-.12-.38-.29-.58-.29-.2 0-.45.17-.59.29-52.82 40.18-143.26 139.57-115.68 167.64 31.07 27.19 71.74 43.67 116.27 43.67s85.2-16.48 116.27-43.67c27.59-28.07-62.86-127.46-115.69-167.64zm-49.01-43.8c.12-.15.24-.31.24-.51 0-.25-.13-.44-.3-.59-53.88-53.59-72.17-47.9-75.14-46.37-.29.15-.55.37-.78.6-32.23 32-52.21 76.34-52.21 125.35 0 40.24 13.46 77.31 36.12 107.01.22.28.62.47.94.28.3-.18.32-.57.2-.91-13.46-41.62 55.38-142.55 90.93-184.86zm-43.01-71.13c34.2-7.39 86.15 22.15 91.08 25.11.11.06.22.14.37.14s.26-.07.37-.14c4.93-2.97 56.88-32.5 91.08-25.11.35.08.71.02.86-.3.15-.33.02-.69-.29-.88-27.05-16.08-56.37-25.84-92.01-25.84s-64.96 9.77-92.01 25.84c-.32.18-.45.55-.29.88.13.32.48.39.84.3zm917.13 101.27h-83.44v-45.76h73.81v-18.96h-73.81v-43.05h83.44v-20.41h-106.14v148.59h106.14v-20.41zM448.77 202.4c-2.97-1.53-21.26-7.22-75.14 46.37-.17.15-.3.33-.3.59 0 .2.12.36.24.51 35.56 42.32 104.39 143.24 90.93 184.87-.12.34-.1.73.2.91.32.19.72 0 .94-.28 22.66-29.7 36.12-66.77 36.12-107.01 0-49.02-19.98-93.35-52.21-125.35a3.05 3.05 0 00-.78-.61zm442.52-19.47c3.29 9.28 6.99 19.4 11.02 30.16l33.92 87.19.05.14h19.03l33.56-87.33c4.65-12.05 8.42-22.31 11.23-30.59v117.91h21.87V151.83H990.6l-29.39 76.93c-5.58 15.24-10.69 29.8-15.19 43.3-3.84-11.35-8.88-25.22-14.99-41.22l-30.43-79h-31.16v148.59h21.87v-117.5zm-137.53 79h65.86l14.36 38.5h23.57l-58.02-148.59h-25.68l-58.02 148.59h23.57l14.36-38.5zm32.93-87.82l25.69 68.03H761l25.69-68.03zm-181.1 124.26c8.48 3.57 18.19 5.38 28.85 5.38 10.53 0 19.94-1.95 27.98-5.8 7.9-3.78 14.69-9.49 20.18-16.99v19.45h21.35v-78.26h-64.94v19.37h43.69c-.46 12.13-5.12 22.22-13.86 30-8.79 7.97-19.74 12.01-32.52 12.01-14.71 0-26.69-5.23-35.62-15.53-8.8-10.18-13.26-24.27-13.26-41.89s4.46-31.71 13.27-41.89c8.66-10.3 20.5-15.53 35.21-15.53 11 0 20.51 2.93 28.27 8.7 7.76 5.77 12.74 13.7 14.79 23.59l.04.17h23.32l-.04-.25c-2.35-15.8-9.52-28.65-21.31-38.22-11.91-9.42-27.15-14.2-45.29-14.2-10.87 0-20.77 1.79-29.42 5.32-8.66 3.53-16.32 8.91-22.76 15.97-6.51 6.99-11.46 15.28-14.72 24.63-3.25 9.34-4.9 20.01-4.9 31.7 0 11.55 1.63 22.13 4.85 31.44 3.22 9.31 8.12 17.62 14.56 24.68 6.3 7.16 13.8 12.59 22.28 16.15zm453.19 137.96c-7.42-6.79-19.74-12.06-36.62-15.66l-12.9-2.71c-12.25-2.62-20.76-5.82-25.3-9.53-4.5-3.41-6.78-8.53-6.78-15.22 0-6.55 2.56-11.67 7.61-15.22 5.07-3.56 12.52-5.37 22.14-5.37 12.38 0 21.47 2.26 27.02 6.71 5.54 4.45 8.7 11.5 9.39 20.97l.01.2h22.48v-.22c-.28-14.56-5.38-26.17-15.16-34.5-9.77-8.32-24.56-12.54-43.94-12.54-16.07 0-28.99 3.69-38.42 10.97-9.45 7.29-14.23 17.19-14.23 29.41 0 12.21 3.95 21.93 11.73 28.88 7.76 6.93 19.42 11.99 34.64 15.03l12.69 2.7c12.54 2.75 21.33 5.93 26.14 9.43 4.77 3.48 7.19 8.49 7.19 14.91 0 7.93-2.94 14.07-8.75 18.24-5.83 4.18-14.29 6.31-25.15 6.31-13.13 0-23.17-2.78-29.83-8.27-6.65-5.48-10.12-13.83-10.33-24.81v-.21h-22.7v.22c.14 17.05 5.73 30.2 16.62 39.08 10.88 8.87 26.29 13.37 45.81 13.37 18 0 32.29-4.01 42.48-11.91 10.2-7.91 15.38-18.89 15.38-32.63-.02-11.52-3.79-20.82-11.22-27.63zm-132.18 0c-7.42-6.79-19.74-12.06-36.62-15.66l-12.9-2.71c-12.25-2.62-20.76-5.82-25.3-9.53-4.5-3.41-6.78-8.53-6.78-15.22 0-6.55 2.56-11.67 7.61-15.22 5.07-3.56 12.52-5.37 22.14-5.37 12.38 0 21.47 2.26 27.02 6.71 5.54 4.45 8.7 11.5 9.39 20.97l.01.2h22.48v-.22c-.28-14.56-5.38-26.17-15.16-34.5-9.77-8.32-24.56-12.54-43.94-12.54-16.07 0-28.99 3.69-38.42 10.97-9.45 7.29-14.23 17.19-14.23 29.41 0 12.21 3.94 21.93 11.73 28.88 7.76 6.93 19.42 11.99 34.64 15.03l12.69 2.7c12.54 2.75 21.33 5.93 26.14 9.43 4.77 3.48 7.19 8.49 7.19 14.91 0 7.93-2.94 14.07-8.75 18.24-5.83 4.18-14.29 6.31-25.15 6.31-13.13 0-23.17-2.78-29.83-8.27-6.65-5.48-10.12-13.83-10.32-24.81v-.21h-22.7v.22c.14 17.05 5.73 30.2 16.62 39.08 10.88 8.87 26.29 13.37 45.81 13.37 18 0 32.29-4.01 42.48-11.91 10.2-7.91 15.38-18.89 15.38-32.63-.02-11.52-3.79-20.82-11.23-27.63zm-197.93-79.75l-58.02 148.59h23.57l14.36-38.5h65.86l14.36 38.5h23.57l-58.02-148.59h-25.68zm-12.85 90.31l25.69-68.03 25.69 68.03h-51.38zm-29.35-43.28c0-14.42-4.5-25.99-13.39-34.39-8.88-8.39-21.53-12.65-37.6-12.65h-63.27v148.59h22.7v-54.73h40.57c16.07 0 28.73-4.26 37.6-12.65 8.89-8.38 13.39-19.88 13.39-34.17zm-30.33 19.93c-4.79 4.59-11.88 6.91-21.07 6.91h-40.15v-53.87h40.15c9.19 0 16.28 2.36 21.07 7.01 4.79 4.65 7.22 11.39 7.22 20.03 0 8.63-2.43 15.33-7.22 19.92zm590.89 39.04c10.18 6.02 25.34 5.92 35.46-.12 5.28-3.05 9.37-7.37 12.28-12.96 2.91-5.59 4.36-11.96 4.36-19.1 0-6.99-1.41-13.19-4.22-18.62-2.81-5.43-6.77-9.62-11.89-12.57-16.04-9.25-39.76-3.88-48.03 13.3-5.6 10.57-5.95 26.94-.05 37.57 2.86 5.36 6.89 9.52 12.09 12.5zm5.12-48.08c3.28-4.13 7.65-6.19 13.11-6.19 12.47.14 17.32 10.75 17.3 22.95 0 6.89-1.59 12.31-4.78 16.25-5.92 7.9-19.85 7.96-25.73-.2-6.47-7.55-6.43-25.28.1-32.81zm157.8 27.24h7.51c5.43 0 10.26-.98 14.52-2.95 4.25-1.97 7.54-4.73 9.84-8.31 2.31-3.57 3.46-7.67 3.46-12.28 0-14.85-8.8-22.27-26.42-22.27h-24.66v69.89h15.74v-24.08zm0-33.72h6.19c8.38 0 12.57 3.59 12.57 10.77 0 7.34-4.19 11.01-12.57 11.01h-6.19v-21.78zm-265.67-51.44v148.59h400.16V356.58h-400.16zm388.44 136.88h-376.73V368.29h376.73v125.17zm-65.82-30.64c9.99 5.89 28.81 5.19 38.18.51v-14.38c-9.32 5.59-24.46 6.91-32.16-1.51-7.83-7.56-7.6-25.33.27-32.85 7.5-8.37 22.75-7.67 31.9-2.1v-15.16c-17.65-5.87-40.16-2.51-49.76 15.52-6.06 10.65-6.37 27.2-.49 37.84 2.82 5.28 6.84 9.32 12.06 12.13zm-142.96-23.76h3.41c3.96 0 7.1 2.92 9.41 8.77l7.07 17.98h18.08l-9.11-20.66c-2.57-5.88-5.9-9.47-9.99-10.77v-.2c5.04-1.3 8.93-3.62 11.67-6.97 2.75-3.35 4.12-7.44 4.12-12.28 0-12.67-8.48-19.01-25.44-19.01h-24.95v69.89h15.74v-26.75zm0-31.34h7.12c7.31 0 10.96 3.05 10.96 9.16 0 3.02-1.06 5.49-3.19 7.41s-4.82 2.88-8.07 2.88h-6.82v-19.45zm-124.57 30.95h22.66V425.9h-22.66v-17.15h24.66v-12.82h-40.4v69.89h15.74v-27.15z"/></svg>
