<svg width="88" height="80" viewBox="0 0 88 80" fill="none" xmlns="http://www.w3.org/2000/svg">
<path d="M83.0027 1.0838C83.0027 0.485236 82.5175 0 81.9189 0C81.3203 0 80.8351 0.485236 80.8351 1.0838V2.18567C80.8351 2.78424 81.3203 3.26948 81.9189 3.26948C82.5175 3.26948 83.0027 2.78424 83.0027 2.18567V1.0838Z" fill="#5AE6DC"/>
<path d="M83.0027 9.81433C83.0027 9.21576 82.5175 8.73052 81.9189 8.73052C81.3203 8.73052 80.8351 9.21576 80.8351 9.81433V10.9162C80.8351 11.5148 81.3203 12 81.9189 12C82.5175 12 83.0027 11.5148 83.0027 10.9162V9.81433Z" fill="#5AE6DC"/>
<path d="M86.9164 7.10517C87.5149 7.10517 88.0002 6.61993 88.0002 6.02137C88.0002 5.4228 87.5149 4.93756 86.9164 4.93756H85.8145C85.2159 4.93756 84.7307 5.4228 84.7307 6.02137C84.7307 6.61993 85.2159 7.10517 85.8145 7.10517H86.9164Z" fill="#5AE6DC"/>
<path d="M78.1858 7.04511C78.7844 7.04511 79.2697 6.55988 79.2697 5.96131C79.2697 5.36274 78.7844 4.8775 78.1858 4.8775H77.084C76.4854 4.8775 76.0002 5.36274 76.0002 5.96131C76.0002 6.55988 76.4854 7.04511 77.084 7.04511H78.1858Z" fill="#5AE6DC"/>
<path d="M8.36261 75.843L11.486 74.8013C11.6394 74.731 11.7694 74.6181 11.8605 74.4761C11.9516 74.334 12 74.1688 12 74C12 73.8312 11.9516 73.666 11.8605 73.5239C11.7694 73.3819 11.6394 73.269 11.486 73.1987L8.36261 72.157C8.14925 72.0606 7.97838 71.8897 7.88207 71.6762L6.76084 68.5511C6.70818 68.3908 6.60626 68.2512 6.46964 68.1522C6.33302 68.0533 6.16866 68 5.99999 68C5.83133 68 5.66698 68.0533 5.53036 68.1522C5.39374 68.2512 5.29182 68.3908 5.23916 68.5511L4.11793 71.6762C4.02162 71.8897 3.85075 72.0606 3.63739 72.157L0.513957 73.1987C0.360602 73.269 0.230643 73.3819 0.139534 73.5239C0.0484247 73.666 0 73.8312 0 74C0 74.1688 0.0484247 74.334 0.139534 74.4761C0.230643 74.6181 0.360602 74.731 0.513957 74.8013L3.63739 75.843C3.75083 75.8774 3.85403 75.9393 3.93785 76.0232C4.02167 76.107 4.08352 76.2103 4.11793 76.3238L5.23916 79.4489C5.29182 79.6092 5.39374 79.7488 5.53036 79.8478C5.66698 79.9467 5.83133 80 5.99999 80C6.16866 80 6.33302 79.9467 6.46964 79.8478C6.60626 79.7488 6.70818 79.6092 6.76084 79.4489L7.88207 76.3238C7.91648 76.2103 7.97834 76.107 8.06215 76.0232C8.14597 75.9393 8.24917 75.8774 8.36261 75.843Z" fill="#FFD01A"/>
<path d="M69.4912 39.9999C69.4924 43.9745 68.5642 47.8944 66.7808 51.4463C65.2146 50.338 63.307 49.8192 61.3952 49.9816C59.4834 50.1441 57.6907 50.9773 56.334 52.334C54.9773 53.6907 54.1441 55.4834 53.9816 57.3952C53.8192 59.307 54.338 61.2146 55.4464 62.7807C50.489 65.272 44.8542 66.078 39.3973 65.0762C33.9403 64.0744 28.9592 61.3196 25.2099 57.23C21.4607 53.1404 19.1481 47.9392 18.6231 42.4159C18.0982 36.8927 19.3895 31.349 22.3012 26.6262C25.2128 21.9035 29.5858 18.2597 34.7563 16.2478C39.9268 14.2359 45.6125 13.9659 50.9505 15.4786C56.2884 16.9914 60.987 20.2044 64.3332 24.6299C67.6793 29.0554 69.4903 34.4518 69.4912 39.9999Z" fill="#DAE1EA"/>
<path d="M62.0319 63.7215C65.1742 63.7215 67.7215 61.1742 67.7215 58.0319C67.7215 54.8896 65.1742 52.3423 62.0319 52.3423C58.8897 52.3423 56.3423 54.8896 56.3423 58.0319C56.3423 61.1742 58.8897 63.7215 62.0319 63.7215Z" fill="#ED68AE"/>
<path d="M60.1055 50.1471C56.6559 46.0927 50.9887 43.3375 43.9999 43.3375C33.7407 43.3375 26.3039 49.2735 24.6015 56.5311C28.3016 60.8746 33.352 63.8511 38.9443 64.9842C44.5366 66.1173 50.3473 65.3414 55.4463 62.7807C54.6719 61.701 54.1739 60.4481 53.9958 59.1314C53.8177 57.8148 53.9649 56.4745 54.4247 55.228C54.8844 53.9814 55.6426 52.8665 56.6329 51.9807C57.6233 51.095 58.8156 50.4654 60.1055 50.1471Z" fill="#4F81FF"/>
<path d="M44 40.9408C48.8866 40.9408 52.848 36.9794 52.848 32.0928C52.848 27.2062 48.8866 23.2448 44 23.2448C39.1134 23.2448 35.152 27.2062 35.152 32.0928C35.152 36.9794 39.1134 40.9408 44 40.9408Z" fill="#4F81FF"/>
<path d="M61.0463 30.7935C60.4523 30.7898 59.8826 30.5571 59.4559 30.1439L55.1327 25.8207C54.7155 25.401 54.4813 24.8333 54.4813 24.2415C54.4813 23.6497 54.7155 23.082 55.1327 22.6623C55.5562 22.2437 56.1276 22.009 56.7231 22.009C57.3186 22.009 57.89 22.2437 58.3135 22.6623L61.0463 25.3727L67.3183 19.1007C67.7418 18.6821 68.3132 18.4474 68.9087 18.4474C69.5041 18.4474 70.0756 18.6821 70.4991 19.1007C70.9163 19.5204 71.1505 20.0881 71.1505 20.6799C71.1505 21.2717 70.9163 21.8394 70.4991 22.2591L62.6143 30.1439C62.1957 30.5557 61.6335 30.7886 61.0463 30.7935Z" fill="#FFB713"/>
</svg>
