<?xml version="1.0" encoding="utf-8"?>
<!-- Generator: Adobe Illustrator 25.2.0, SVG Export Plug-In . SVG Version: 6.00 Build 0)  -->
<svg version="1.1" id="Layer_1" xmlns="http://www.w3.org/2000/svg" xmlns:xlink="http://www.w3.org/1999/xlink" x="0px" y="0px"
	 viewBox="0 0 16 16" style="enable-background:new 0 0 16 16;" xml:space="preserve">
<style type="text/css">
	.st0{fill:#5865F2;}
</style>
<path class="st0" d="M8,0.9C4.1,0.9,0.9,4.1,0.9,8s3.2,7.1,7.1,7.1s7.1-3.2,7.1-7.1S11.9,0.9,8,0.9z M8.7,8.4l2.7,4h-0.8L8.8,9.7
	L8,8.6L7.2,9.7l-1.9,2.8H4.6l2.7-4L7.6,8L7.3,7.6l-2.7-4h0.8l1.9,2.8l0.7,1l0.8-1.1l1.9-2.8h0.8l-2.7,4L8.4,8L8.7,8.4z"/>
</svg>
