<svg width="240" height="464" viewBox="0 0 240 464" fill="none" xmlns="http://www.w3.org/2000/svg">
<path d="M65 386L67 392H78L88 393L92 386L70 382L65 386Z" fill="#ACAEC2"/>
<path d="M65 386L60 405L68 410H109L106 404L97 397L92 386L83 391H74L65 386Z" fill="#818291"/>
<path d="M68 410L74 391H83L88 404L97 410" fill="#717280"/>
<path d="M143.33 378.11C143.03 377.82 142.52 378.06 142.74 378.39L145.54 382.66C145.21 382.75 144.89 382.85 144.54 382.93C140.34 383.93 135.41 381.93 133.43 378.42L125.37 364.15L138.08 351.55L155.92 358.26C158.07 359.07 159.53 360.81 159.55 362.61C159.551 363.689 159.495 364.767 159.38 365.84L152.84 362.84C152.53 362.69 152.28 363 152.55 363.2L159.05 368.01C158.05 373.08 155.16 379.08 147.53 382.01L143.33 378.11Z" fill="#D8D8DD"/>
<path d="M36 307C36 307 44 303 47 297C50 291 53 300 50 304C47 308 45 309 45 309L36 307Z" fill="#CACACA"/>
<path d="M53.63 316.78C53.63 316.78 82.21 333.25 105.25 319.68L102.52 327.45C102.52 327.45 72.3 345.22 41.19 335.45C41.19 335.45 34.08 330.11 39.41 313.22L53.63 316.78Z" fill="#E4E4E4"/>
<path d="M110.09 318.41C108.58 321.1 105.91 327.62 110.81 333.7C111.043 333.999 111.187 334.357 111.224 334.734C111.261 335.112 111.19 335.491 111.02 335.83L108.89 339.83C108.758 340.084 108.571 340.305 108.343 340.478C108.115 340.651 107.851 340.772 107.571 340.831C107.291 340.89 107.001 340.887 106.723 340.821C106.444 340.755 106.184 340.628 105.96 340.45C102.73 337.82 97.41 330.81 106.06 316.63C106.199 316.404 106.408 316.229 106.655 316.133C106.903 316.037 107.175 316.026 107.43 316.1L109.37 316.69C109.541 316.74 109.7 316.828 109.833 316.947C109.966 317.066 110.071 317.213 110.14 317.378C110.209 317.543 110.24 317.721 110.232 317.9C110.223 318.078 110.175 318.253 110.09 318.41Z" fill="#F5911E"/>
<path d="M115.33 348.66C114.53 348.66 82 342.66 87.33 359.85C91.33 372.62 112.09 371.85 118.48 362.24L115.33 348.66Z" fill="#9395A6"/>
<path d="M115 348.78C115 348.78 112.3 381.67 134.52 379C134.52 379 149.63 378.11 137.19 361.22L133.67 350.73L115 348.78Z" fill="#B6B7C6"/>
<path d="M141.63 329.22C140.74 299.89 117.63 311.45 117.63 311.45L118.06 312.95L110.52 314.11C99 312.34 103.41 323 103.41 323L120.62 321.89L128.3 348.78L137.19 351.45C158.52 340.78 141.63 329.22 141.63 329.22Z" fill="#BA6E17"/>
<path d="M107.85 276.78C105.76 284.904 105.808 293.43 107.99 301.529C110.172 309.628 114.413 317.025 120.3 323" stroke="white" stroke-width="11.56" stroke-miterlimit="10"/>
<path d="M185.64 291.39C184.27 289.47 179.44 290.55 174.64 293.75C176.404 291.799 178.022 289.72 179.48 287.53C184.48 280.15 186.88 273.08 184.91 271.76C183.54 270.84 180.42 272.93 176.98 276.76C180.24 268.76 181.19 262.18 178.98 261.08C176.34 259.78 170.23 266.75 165.34 276.65C160.635 286.667 153.77 295.519 145.24 302.57C133.42 312.02 124.54 314.35 124.54 314.35L125.68 322.12C145.24 318.57 172.79 305.23 172.79 305.23C174.949 304.162 177.043 302.967 179.06 301.65C184.11 298 187.08 293.41 185.64 291.39Z" fill="white"/>
<path d="M160.67 285C157.8 289.548 154.447 293.772 150.67 297.6C155.049 297.475 159.303 296.112 162.94 293.67C168.67 289.59 172.21 284.72 170.84 282.81C169.69 281.22 165.42 282.22 160.67 285Z" fill="#CACACA"/>
<path d="M113.19 346.11C113.19 346.11 98.08 330.11 107.85 318.56L110.52 317.67C110.52 317.67 113.19 323.89 114.08 323.89L114.81 316.28L124.74 314.11C124.74 314.11 124.74 323.89 133.63 320.34L134.52 347.89L113.19 346.11Z" fill="#484482"/>
<path d="M133.63 380.78L139 395C139 395 127 395 124.34 401.16C124.26 401.366 124.231 401.588 124.257 401.807C124.283 402.026 124.362 402.235 124.487 402.417C124.612 402.598 124.78 402.747 124.976 402.848C125.172 402.95 125.389 403.002 125.61 403H146.69C146.914 403 147.135 402.944 147.333 402.837C147.53 402.731 147.698 402.577 147.822 402.39C147.946 402.203 148.021 401.988 148.042 401.765C148.062 401.542 148.027 401.317 147.94 401.11L138.94 379.89L133.63 380.78Z" fill="#3A3445"/>
<path d="M70.84 385.56L87.09 386.91C87.2324 386.924 87.3762 386.908 87.5126 386.865C87.649 386.822 87.7751 386.751 87.8835 386.658C87.9919 386.564 88.0803 386.45 88.1433 386.321C88.2062 386.193 88.2425 386.053 88.25 385.91L89.77 364.63L84.18 358.24L83.38 379.8C83.38 379.8 74.63 378.46 70.11 383.8C69.9859 383.951 69.9052 384.133 69.8765 384.327C69.8479 384.52 69.8723 384.718 69.9473 384.899C70.0222 385.08 70.1449 385.237 70.3021 385.353C70.4593 385.469 70.6453 385.541 70.84 385.56Z" fill="#3A3445"/>
<path d="M130.08 379V380.44C130.078 380.794 130.159 381.144 130.315 381.461C130.47 381.779 130.697 382.057 130.978 382.273C131.259 382.489 131.585 382.637 131.932 382.706C132.28 382.775 132.638 382.762 132.98 382.67L139.54 380.92C139.928 380.81 140.28 380.601 140.562 380.312C140.844 380.024 141.046 379.667 141.147 379.277C141.248 378.886 141.245 378.476 141.139 378.088C141.032 377.699 140.826 377.344 140.54 377.06L139.81 376.33L130.08 379Z" fill="#B6B7C6"/>
<path d="M87.28 354.36L84.67 354.65C84.2813 354.685 83.9084 354.82 83.5879 355.043C83.2674 355.266 83.0103 355.568 82.8419 355.92C82.6734 356.272 82.5994 356.662 82.6271 357.051C82.6549 357.44 82.7834 357.815 83 358.14L88.76 366.78C88.9595 367.081 89.2285 367.329 89.5442 367.504C89.8599 367.679 90.2131 367.776 90.574 367.786C90.9349 367.795 91.2928 367.718 91.6176 367.561C91.9424 367.403 92.2244 367.17 92.44 366.88L92.92 366.23L87.28 354.36Z" fill="#9395A6"/>
<path d="M114.09 323.72V323.89C113.2 323.89 110.53 317.67 110.53 317.67L107.86 318.56C98.09 330.11 113.2 346.11 113.2 346.11H113.5L115.86 337.19L114.09 323.72Z" fill="#413D75"/>
<path d="M115.86 337.22L124.74 347.89L113.19 346.11L115.86 337.22Z" fill="#3A385B"/>
<path d="M142.65 354.44C141.65 351.62 139.11 348.72 137 348L113.19 346.11L111.41 347.89L131.41 352.74C131.008 354.567 131.133 356.471 131.77 358.23C133.21 362.4 136.83 364.94 139.85 363.89C142.87 362.84 144.09 358.62 142.65 354.44Z" fill="#ED9836"/>
<path d="M126.41 313.84C126.35 316.93 127.05 323.94 134.23 327C134.576 327.156 134.871 327.407 135.08 327.724C135.289 328.041 135.403 328.41 135.41 328.79V333.31C135.412 333.596 135.351 333.88 135.23 334.14C135.11 334.4 134.933 334.629 134.713 334.813C134.493 334.997 134.236 335.129 133.958 335.201C133.681 335.273 133.391 335.283 133.11 335.23C129.03 334.43 121.04 330.74 122.01 314.15C122.032 313.881 122.141 313.626 122.322 313.426C122.503 313.225 122.745 313.09 123.01 313.04L125.01 312.65C125.183 312.619 125.36 312.627 125.53 312.672C125.7 312.718 125.857 312.801 125.991 312.915C126.125 313.028 126.232 313.17 126.304 313.33C126.377 313.49 126.413 313.664 126.41 313.84Z" fill="#F5911E"/>
<path d="M113.36 278.52L110.03 277.52L100.94 282C100.601 284.716 100.468 287.454 100.54 290.19L103.38 287.41C105.162 285.657 107.254 284.249 109.55 283.26L112.55 281.93C112.749 280.778 113.02 279.639 113.36 278.52Z" fill="#E4E4E4"/>
<path d="M120.37 252C119.7 254.7 114.81 263.43 114.81 263.43C114.81 263.43 114.5 253.43 115.16 250.73C115.82 248.03 117.52 246.12 118.96 246.47C120.4 246.82 121 249.28 120.37 252Z" fill="#E4E4E4"/>
<path d="M112.325 280.538C118.882 275.865 121.033 267.635 117.128 262.157C113.224 256.68 104.743 256.028 98.1862 260.701C91.6291 265.375 89.4786 273.605 93.383 279.082C97.2873 284.56 105.768 285.212 112.325 280.538Z" fill="white"/>
<path d="M131.47 259.65C128.18 261.29 114.29 262.05 114.29 262.05C114.29 262.05 123.23 251.4 126.53 249.75C129.83 248.1 133.6 248.99 134.96 251.75C136.32 254.51 134.77 258 131.47 259.65Z" fill="white"/>
<path d="M126.62 267.83C123.81 267.35 114.73 261.93 114.73 261.93C114.73 261.93 125.1 259.93 127.91 260.38C130.72 260.83 132.7 262.93 132.35 264.99C132 267.05 129.43 268.32 126.62 267.83Z" fill="white"/>
<path d="M93.63 272.34C93.63 272.34 98.08 286.56 102.52 273.23L93.63 272.34Z" fill="#333333"/>
<path d="M102.52 273.23C109.89 273.23 115.85 268.85 115.85 263.45C115.849 262.248 115.557 261.065 115 260C110.64 256.67 103.75 256.81 98.22 260.75C95.2126 262.842 93.008 265.897 91.97 269.41C94.8791 271.968 98.6474 273.333 102.52 273.23Z" fill="#5AE6DC"/>
<path d="M102.52 273.23C101.639 271.409 100.405 269.781 98.8916 268.438C97.3779 267.096 95.6134 266.067 93.7 265.41C93.7 265.41 85.7 270.03 72.7 271.27C71.257 271.411 69.9073 272.047 68.88 273.07L68.72 273.23H102.52Z" fill="#F5CD1B"/>
<path d="M80.5103 271.813C81.0175 271.595 81.34 271.212 81.2307 270.958C81.1214 270.705 80.6216 270.676 80.1145 270.895C79.6073 271.114 79.2848 271.496 79.3941 271.75C79.5034 272.004 80.0032 272.032 80.5103 271.813Z" fill="#BD9E15"/>
<path d="M106.08 267.89C106.08 267.89 106.97 264.34 110.52 265.23" stroke="black" stroke-width="1.78" stroke-miterlimit="10" stroke-linecap="round"/>
<path d="M32.35 222.9C32.35 222.9 33.73 211.11 50.35 209.28C62.44 207.96 69.51 192.47 69.51 192.47C69.51 192.47 74.11 208.83 61.03 217.71C61.03 217.71 71.74 218.85 73.69 211.03C73.69 211.03 75.56 225.03 57.81 232.11C52.6869 234.144 48.1053 237.338 44.4251 241.442C40.7449 245.545 38.0664 250.446 36.6 255.76L32.35 222.9Z" fill="#BD94FA"/>
<path d="M40.0001 242.34C41.7301 238.07 48.2801 229.45 58.2701 225.47L58.7401 225.27C55.6301 224.19 46.3501 224.65 46.3501 224.65C51.1401 224.65 58.4401 211.23 58.4401 211.23C55.0501 216.23 50.9201 213.36 46.6201 213.72C38.6201 214.38 38.5601 221.08 38.5601 221.08L40.0001 242.34Z" fill="#B78AFA"/>
<path d="M30.91 211.7L51.08 367.74" stroke="#E08055" stroke-width="4" stroke-miterlimit="10" stroke-linecap="round"/>
<path d="M41.19 335.45C41.19 335.45 33.1901 331.89 34.9701 307.89C34.9701 307.89 35.86 302.56 44.75 304.34C53.64 306.12 60.7501 309.67 61.6301 316.78C62.51 323.89 61.4401 328.33 57 331C52.56 333.67 36.75 327.45 41.19 335.45Z" fill="white"/>
<path d="M98 276C97.1315 275.995 96.2688 276.141 95.45 276.43C96.85 278.76 98.9 280.51 101.07 276.65C100.106 276.212 99.0584 275.991 98 276Z" fill="#FF7BAA"/>
<path d="M41.19 335.45C41.19 335.45 33.1901 331.89 34.9701 307.89C34.9701 307.89 35.86 302.56 44.75 304.34C53.64 306.12 60.7501 309.67 61.6301 316.78C62.51 323.89 61.4401 328.33 57 331C52.56 333.67 36.75 327.45 41.19 335.45Z" fill="white"/>
<path d="M61.81 318.57C61.81 317.99 61.71 317.4 61.63 316.78C61.63 316.64 61.58 316.51 61.56 316.38C56.64 311.59 49 311 49 311C54.32 312.18 58.92 315.8 61.81 318.57Z" fill="white"/>
<path d="M61.41 325.19C61.557 324.654 61.6705 324.11 61.75 323.56C56.84 318.61 49 318 49 318C54.07 319.13 58.51 322.48 61.41 325.19Z" fill="white"/>
<path d="M120 327C121.105 327 122 326.105 122 325C122 323.895 121.105 323 120 323C118.895 323 118 323.895 118 325C118 326.105 118.895 327 120 327Z" fill="#737093"/>
<path d="M137 348L135.55 347.89C135.185 348.886 134.999 349.939 135 351C135 355.42 138.13 359 142 359C142.399 358.996 142.798 358.956 143.19 358.88C143.334 357.378 143.15 355.863 142.65 354.44C141.67 351.62 139.11 348.72 137 348Z" fill="#E0851B"/>
<path d="M125.89 368.3C125.89 368.3 133.89 376.3 138.89 369.3C138.89 369.3 137.89 382.3 125.89 368.3Z" fill="#AAACBE"/>
<path d="M65.7352 321.207C67.3639 318.781 64.038 313.695 58.3066 309.847C52.5752 305.998 46.6087 304.845 44.9801 307.27C43.3514 309.696 46.6773 314.782 52.4087 318.63C58.1401 322.479 64.1066 323.632 65.7352 321.207Z" fill="white"/>
</svg>
