<svg width="240" height="464" viewBox="0 0 240 464" fill="none" xmlns="http://www.w3.org/2000/svg">
<g clip-path="url(#clip0)">
<path d="M0 405.13V413.6C16.82 413.81 33.33 414 39 414C52 414 84 420 99 420C114 420 150 410 165 410C180 410 240 408 240 408V403.68L0 405.13Z" fill="#81C793"/>
<path d="M0 404V410.59C16.82 410.8 33.33 410.99 39 410.99C52 410.99 84 416.99 99 416.99C114 416.99 150 406.99 165 406.99C180 406.99 240 404.99 240 404.99V400.67L0 404Z" fill="#A3FAA8"/>
<path opacity="0.53" d="M105 442.67L106.35 445.31L110 452L119 454L122.68 464H240V443L105 442.67Z" fill="#633150"/>
</g>
<defs>
<clipPath id="clip0">
<rect width="240" height="464" fill="white"/>
</clipPath>
</defs>
</svg>
