<svg xmlns="http://www.w3.org/2000/svg" viewBox="0 0 80 80"><path fill="#107c10" d="M0 0h80v80H0z"/><path d="M40.31 33.46c-.03-.02-.07-.06-.11-.06-.04 0-.09.03-.11.06-10.2 7.75-27.65 26.92-22.33 32.34 5.99 5.25 13.84 8.43 22.43 8.43s16.44-3.18 22.43-8.43c5.33-5.42-12.12-24.59-22.31-32.34zm-9.46-8.45c.02-.03.05-.06.05-.1 0-.05-.03-.08-.06-.11-10.39-10.34-13.92-9.24-14.5-8.95-.06.03-.11.07-.15.12C9.97 22.14 6.12 30.69 6.12 40.15c0 7.76 2.6 14.91 6.97 20.65.04.05.12.09.18.05.06-.03.06-.11.04-.18-2.6-8.03 10.68-27.5 17.54-35.66zm-8.3-13.72c6.6-1.43 16.62 4.27 17.57 4.84.02.01.04.03.07.03.03 0 .05-.01.07-.03.95-.57 10.97-6.27 17.57-4.84.07.02.14 0 .17-.06s0-.13-.06-.17c-5.22-3.1-10.87-4.99-17.75-4.99s-12.53 1.88-17.75 4.98c-.06.04-.09.11-.06.17.04.07.1.08.17.07zm41.5 4.56c-.57-.29-4.1-1.39-14.5 8.95-.03.03-.06.06-.06.11 0 .04.02.07.05.1 6.86 8.16 20.14 27.63 17.54 35.67-.02.07-.02.14.04.18.06.04.14 0 .18-.05a33.923 33.923 0 006.97-20.65c0-9.46-3.85-18.01-10.07-24.18a.454.454 0 00-.15-.13z" fill="#fff"/></svg>
