<svg xmlns="http://www.w3.org/2000/svg" xmlns:xlink="http://www.w3.org/1999/xlink" viewBox="0 0 660 464"><defs><style>.cls-1,.cls-32{fill:none;}.cls-2{fill:url(#linear-gradient);}.cls-3{fill:#3c3f4d;}.cls-4{fill:#d99cff;}.cls-5{fill:#82a5ff;}.cls-6{fill:#05124a;}.cls-7{fill:#2960e3;}.cls-24,.cls-8{fill:#ffcdf9;}.cls-10,.cls-9{fill:#356df0;}.cls-10{opacity:0.28;}.cls-11{fill:url(#linear-gradient-2);}.cls-12{fill:url(#linear-gradient-3);}.cls-13{fill:url(#linear-gradient-4);}.cls-14{fill:#f0417d;}.cls-15{fill:#ef64b4;}.cls-16,.cls-17{fill:#fb68f8;}.cls-16{stroke:#fff;stroke-width:7.94px;}.cls-16,.cls-32{stroke-linecap:round;stroke-miterlimit:10;}.cls-18{fill:#ffaafc;}.cls-19{fill:#e74fd5;}.cls-20,.cls-22,.cls-23,.cls-25{fill:#fff;}.cls-21{fill:#a351f5;}.cls-22{opacity:0.8;}.cls-23{opacity:0.5;}.cls-24{opacity:0.32;}.cls-25{opacity:0.25;}.cls-26{fill:#363c4c;}.cls-27{fill:#f8f9f9;}.cls-27,.cls-43,.cls-44,.cls-46,.cls-47,.cls-48,.cls-49,.cls-50,.cls-51,.cls-52,.cls-53,.cls-54,.cls-55,.cls-58,.cls-59,.cls-60,.cls-61,.cls-63,.cls-64,.cls-65,.cls-66,.cls-73,.cls-76,.cls-80,.cls-81,.cls-82,.cls-83,.cls-84,.cls-85{fill-rule:evenodd;}.cls-28{fill:#ffda47;}.cls-29{fill:#ffb300;}.cls-30{fill:#de3c74;}.cls-31{fill:#2e3338;}.cls-32{stroke:#2e3338;stroke-width:5px;}.cls-33{fill:#747f8d;}.cls-34{fill:#fb5fdc;}.cls-35,.cls-81{fill:#6a94ff;}.cls-36{fill:#f7e080;}.cls-37{fill:#225ff0;}.cls-38{fill:#f79400;opacity:0.35;}.cls-39{fill:#92aef0;}.cls-40{fill:#2964f0;}.cls-41{fill:url(#linear-gradient-5);}.cls-42{fill:#282a33;}.cls-43{fill:#ff5c5c;}.cls-44{fill:#ff7f14;}.cls-45{fill:#4677f7;}.cls-46{fill:#dae2ed;}.cls-47{fill:#eceff6;}.cls-48{fill:#c5cedd;}.cls-49{fill:#4f5d7f;}.cls-50{fill:#7687b2;}.cls-51{fill:#ff903e;}.cls-52{fill:#ebeff7;}.cls-53{fill:#b7c2ce;}.cls-54{fill:#e4e9f7;}.cls-56{fill:#2f3849;}.cls-57{fill:#4e7cff;}.cls-58{fill:#80a7ff;}.cls-59{fill:#9cb8ff;}.cls-60{fill:#b8d0ff;}.cls-61{fill:#cbdaf7;}.cls-62{opacity:0.4;}.cls-63{fill:#4871e5;}.cls-64{fill:#c9dcff;}.cls-65{fill:#d0d9ea;}.cls-66{fill:#bec7d6;}.cls-67{fill:#57a779;}.cls-68{fill:#40835e;}.cls-69{fill:#66c08b;}.cls-70{clip-path:url(#clip-path);}.cls-71{fill:#343642;}.cls-72{fill:#eda0c5;}.cls-73,.cls-77{fill:#ff871d;}.cls-74{fill:#b5ceff;}.cls-75{fill:#202225;}.cls-76{fill:#f70;}.cls-78,.cls-85{fill:#b2bfcc;}.cls-79{clip-path:url(#clip-path-2);}.cls-80{fill:#77a3ff;}.cls-82{fill:#93b4ff;}.cls-83{fill:#c6d6f7;}.cls-84{fill:#d9e1eb;}.cls-86{fill:#5481ff;}</style><linearGradient id="linear-gradient" x1="71.37" y1="81.37" x2="644.38" y2="415.1" gradientUnits="userSpaceOnUse"><stop offset="0.16" stop-color="#a764ed"/><stop offset="0.43" stop-color="#b670dc"/><stop offset="0.94" stop-color="#dd8eaf"/><stop offset="1" stop-color="#e292aa"/></linearGradient><linearGradient id="linear-gradient-2" x1="133.38" y1="70.61" x2="162.68" y2="87.67" gradientUnits="userSpaceOnUse"><stop offset="0.16" stop-color="#ffbaf5"/><stop offset="0.29" stop-color="#ffc9f7"/><stop offset="0.45" stop-color="#ffd6f9"/><stop offset="0.59" stop-color="#ffdbfa"/></linearGradient><linearGradient id="linear-gradient-3" x1="161.01" y1="69.14" x2="186.04" y2="37.23" gradientUnits="userSpaceOnUse"><stop offset="0.2" stop-color="#ffbaf5"/><stop offset="0.41" stop-color="#ffccf8"/><stop offset="0.63" stop-color="#ffdbfa"/></linearGradient><linearGradient id="linear-gradient-4" x1="117.92" y1="74.62" x2="150.5" y2="33.07" gradientUnits="userSpaceOnUse"><stop offset="0.2" stop-color="#ffbaf5"/><stop offset="0.45" stop-color="#ffccf8"/><stop offset="0.71" stop-color="#ffdbfa"/></linearGradient><linearGradient id="linear-gradient-5" x1="393.99" y1="349.76" x2="408.43" y2="331.35" xlink:href="#linear-gradient-3"/><clipPath id="clip-path"><rect class="cls-1" x="341" y="393" width="118" height="71"/></clipPath><clipPath id="clip-path-2"><rect class="cls-1" x="601" y="290" width="59" height="152"/></clipPath></defs><g id="background"><rect class="cls-2" width="660" height="464"/></g><g id="elements"><polygon class="cls-3" points="639 418.37 639 454.67 551 413.14 639 418.37"/><path class="cls-4" d="M630.5,269.77a29,29,0,0,0-41.86-26,29,29,0,1,0-56.28,0,29,29,0,1,0-19.14,54.31,29,29,0,1,0,47.28,32.53,29,29,0,1,0,47.28-32.53A29,29,0,0,0,630.5,269.77Z"/><polygon class="cls-5" points="126.42 69.13 107.83 41.61 72.96 105.25 145.01 96.64 126.42 69.13"/><path class="cls-6" d="M143.17,95.66c-4.1,0-13.69-7.73-23.37-22.06C114.91,66.36,111.12,59,109.14,53c-2.06-6.3-1.54-9.38-.47-10.11a1.73,1.73,0,0,1,1-.25c4.11,0,13.7,7.73,23.38,22.06,11,16.27,13.89,28.87,11.13,30.74A1.74,1.74,0,0,1,143.17,95.66Z"/><path class="cls-7" d="M109.66,44.1h0c3.1,0,12.27,6.8,22.13,21.4,11,16.19,12.7,27.09,11.54,28.65h-.16c-3.09,0-12.27-6.8-22.13-21.4-10.94-16.2-12.69-27.1-11.53-28.65h.15m0-3a3.25,3.25,0,0,0-1.83.51c-4.35,2.94.46,17.63,10.73,32.83,9,13.4,19.33,22.72,24.61,22.72a3.18,3.18,0,0,0,1.84-.52c4.34-2.93-.46-17.63-10.73-32.82-9.06-13.41-19.34-22.72-24.62-22.72Z"/><path class="cls-8" d="M93.92,91.37A67.27,67.27,0,0,1,87.33,79l-5.65,10.3a78.17,78.17,0,0,0,4.38,7.35,78.82,78.82,0,0,0,4.86,6.42l11.6-1.38A67.82,67.82,0,0,1,93.92,91.37Z"/><path class="cls-8" d="M113.46,100.41l13.31-1.59A66.58,66.58,0,0,1,99.14,57.47L92.62,69.36a76.5,76.5,0,0,0,20.84,31.05Z"/><path class="cls-9" d="M93.92,91.37A67.27,67.27,0,0,1,87.33,79l-5.65,10.3a78.17,78.17,0,0,0,4.38,7.35,78.82,78.82,0,0,0,4.86,6.42l11.6-1.38A67.82,67.82,0,0,1,93.92,91.37Z"/><path class="cls-9" d="M113.46,100.41l13.31-1.59A66.58,66.58,0,0,1,99.14,57.47L92.62,69.36a76.5,76.5,0,0,0,20.84,31.05Z"/><polygon class="cls-10" points="135 91 127 83 81 101 82.23 104.14 145.01 96.64 135 91"/><path class="cls-11" d="M123.59,77l3.82,8.22S148.83,75.89,163,91l9-16S151,64,123.59,77Z"/><path class="cls-12" d="M159,52l5,8s21,2,35-20L185,28S183,48,159,52Z"/><path class="cls-13" d="M120.56,57.67S139,58,141,27l18.93,2.51S156.55,59.7,126,66Z"/><path class="cls-1" d="M131.79,65.5c-9.86-14.6-19-21.4-22.13-21.4h-.15a.89.89,0,0,0-.12.26l33.9,49.78h0C144.49,92.59,142.74,81.69,131.79,65.5Z"/><path class="cls-1" d="M121,72.76c9.86,14.6,19,21.4,22.13,21.4h.12l-33.9-49.78C108.51,46.6,110.55,57.24,121,72.76Z"/><path class="cls-7" d="M143.29,94.15h-.12c-3.09,0-12.27-6.8-22.13-21.4-10.49-15.52-12.53-26.16-11.65-28.39l-1.77-2.59c-4,3.27.84,17.72,10.94,32.66,9,13.4,19.33,22.72,24.61,22.72a3.25,3.25,0,0,0,1.83-.51Z"/><path class="cls-14" d="M123,154.84h0a22.49,22.49,0,0,0-31.82,0l-4.39,4.33-4.61-4.33a22.5,22.5,0,0,0-31.82,31.82l4.5,4.5-.09.09,32,31.74h0l31.8-31.74-.09-.09,4.5-4.5A22.49,22.49,0,0,0,123,154.84Z"/><path class="cls-1" d="M86.77,159.17h0l-4.61-4.33a22.5,22.5,0,0,0-31.82,31.82l4.5,4.5-.09.09,32,31.74h0Z"/><path class="cls-15" d="M118.57,191.25l-.09-.09,4.5-4.5a22.49,22.49,0,0,0,0-31.82h0a22.49,22.49,0,0,0-31.82,0l-4.39,4.33V223Z"/><path class="cls-8" d="M127,185.38h0a8.79,8.79,0,0,0-12.44,0l-1.76,1.76L111,185.38a8.8,8.8,0,0,0-12.44,12.45l1.76,1.76,0,0,12.45,12.44,0,0,0,0,12.45-12.44,0,0,1.76-1.76A8.8,8.8,0,0,0,127,185.38Z"/><path class="cls-16" d="M163.26,319.91,152.5,330.67l-10.76-10.76V298.5l10.76-10.76,10.76,10.76Z"/><path class="cls-17" d="M152.5,272.52,131,294v30.33l21.52,21.52L174,324.37V294Zm10.76,47.39L152.5,330.67l-10.76-10.76V298.5l10.76-10.76,10.76,10.76Z"/><polygon class="cls-18" points="152.5 272.52 152.5 287.74 163.26 298.5 174.03 294.04 152.5 272.52"/><polygon class="cls-19" points="141.74 319.91 130.98 324.37 152.5 345.89 152.5 330.68 141.74 319.91"/><polygon class="cls-8" points="141.74 298.5 141.74 319.91 152.5 330.68 163.26 319.91 163.26 298.5 152.5 287.74 141.74 298.5"/><polygon class="cls-20" points="163.25 298.51 163.25 298.55 141.79 319.97 141.75 319.93 141.75 314.13 160.33 295.55 163.25 298.51"/><polygon class="cls-20" points="163.25 306.6 163.25 312.51 148.81 326.95 145.86 323.99 163.25 306.6"/><path class="cls-21" d="M52.51,309,34.64,291.13,16.77,309v25.18l17.87,17.87h0l17.87-17.87Zm-26.8,21.48Z"/><path class="cls-21" d="M73.6,284.51l-6.35-6.35-6.35,6.35v8.94l6.35,6.35h0l6.35-6.35Zm-9.53,7.63Z"/><path class="cls-17" d="M89.72,327.87,76.45,341.15v18.71l13.27,13.27L103,359.86V341.15Zm6.64,29.24-6.64,6.63-6.64-6.63V343.9l6.64-6.64,6.64,6.64Z"/><polygon class="cls-18" points="89.72 327.87 89.72 337.26 96.36 343.9 103 341.15 89.72 327.87"/><polygon class="cls-19" points="83.08 357.11 76.45 359.86 89.72 373.13 89.72 363.74 83.08 357.11"/><polygon class="cls-8" points="83.08 343.9 83.08 357.11 89.72 363.74 96.36 357.11 96.36 343.9 89.72 337.26 83.08 343.9"/><polygon class="cls-20" points="96.35 343.9 96.35 343.93 83.12 357.14 83.09 357.12 83.09 353.54 94.55 342.08 96.35 343.9"/><polygon class="cls-20" points="96.35 348.89 96.35 352.54 87.45 361.45 85.62 359.62 96.35 348.89"/><path class="cls-22" d="M454.46,24.75l2.17,4.88a.11.11,0,0,0,.2,0L459,24.75a.17.17,0,0,1,.06-.06l4.87-2.17a.11.11,0,0,0,0-.2l-4.87-2.17a.1.1,0,0,1-.06,0l-2.17-4.88a.11.11,0,0,0-.2,0l-2.17,4.88a.1.1,0,0,1-.06,0l-4.88,2.17a.11.11,0,0,0,0,.2l4.88,2.17A.17.17,0,0,1,454.46,24.75Z"/><path class="cls-23" d="M271.41,391.44l2.41,5.42a.12.12,0,0,0,.22,0l2.41-5.42a.09.09,0,0,1,.06-.06l5.42-2.41a.12.12,0,0,0,0-.22l-5.42-2.41a.17.17,0,0,1-.06-.06L274,380.86a.12.12,0,0,0-.22,0l-2.41,5.42-.06.06-5.42,2.41a.12.12,0,0,0,0,.22l5.42,2.41A.12.12,0,0,1,271.41,391.44Z"/><path class="cls-20" d="M74.8,333.22l-2,5.08a.11.11,0,0,0,.14.14l5.08-1.95h.08l5.07,1.95a.11.11,0,0,0,.15-.14l-2-5.08a.11.11,0,0,1,0-.08l2-5.07a.12.12,0,0,0-.15-.15l-5.07,1.95h-.08L73,327.92a.11.11,0,0,0-.14.15l2,5.07A.11.11,0,0,1,74.8,333.22Z"/><path class="cls-8" d="M36.27,441.24l2,4.47a.1.1,0,0,0,.18,0l2-4.47,0-.05,4.46-2a.11.11,0,0,0,0-.19l-4.46-2,0-.05-2-4.46a.1.1,0,0,0-.18,0l-2,4.46a.08.08,0,0,1-.05.05l-4.46,2a.11.11,0,0,0,0,.19l4.46,2A.08.08,0,0,1,36.27,441.24Z"/><path class="cls-24" d="M18.1,420.69,17.23,423a.05.05,0,0,0,.07.06l2.26-.87h0l2.27.87a0,0,0,0,0,.06-.06l-.87-2.27s0,0,0,0l.87-2.26a.05.05,0,0,0-.06-.07l-2.27.88h0l-2.26-.88a.06.06,0,0,0-.07.07l.87,2.26S18.11,420.68,18.1,420.69Z"/><path class="cls-25" d="M438.43,38.93l-1.23,3.2a.07.07,0,0,0,.09.09l3.2-1.23h.05l3.2,1.23a.07.07,0,0,0,.09-.09l-1.23-3.2a0,0,0,0,1,0,0l1.23-3.2a.07.07,0,0,0-.09-.09l-3.2,1.23h-.05l-3.2-1.23a.07.07,0,0,0-.09.09l1.23,3.2Z"/><path class="cls-22" d="M609.64,223.9l-1.94,5a.12.12,0,0,0,.15.15l5-1.94a.11.11,0,0,1,.08,0l5,1.94a.12.12,0,0,0,.15-.15l-1.94-5a.11.11,0,0,1,0-.08l1.94-5a.11.11,0,0,0-.15-.14l-5,1.94a.11.11,0,0,1-.08,0l-5-1.94a.11.11,0,0,0-.15.14l1.94,5A.11.11,0,0,1,609.64,223.9Z"/><path class="cls-22" d="M558.64,451.9l-1.94,5a.12.12,0,0,0,.15.15l5-1.94H562l5,1.94a.12.12,0,0,0,.15-.15l-1.94-5a.11.11,0,0,1,0-.08l1.94-5.05a.11.11,0,0,0-.15-.14l-5,1.94h-.08l-5-1.94a.11.11,0,0,0-.15.14l1.94,5.05A.11.11,0,0,1,558.64,451.9Z"/><circle class="cls-26" cx="93.79" cy="422.79" r="20.79"/><path class="cls-20" d="M100.85,420.21a.63.63,0,0,0-.65,0l-1.72.85v-1.59a1.34,1.34,0,0,0-1.34-1.34h-8a1.35,1.35,0,0,0-1.35,1.34v6.7a1.35,1.35,0,0,0,1.35,1.34h8a1.34,1.34,0,0,0,1.34-1.34v-1.59l1.72.85a.6.6,0,0,0,.3.07.64.64,0,0,0,.35-.1.67.67,0,0,0,.32-.57v-4A.65.65,0,0,0,100.85,420.21Z"/><circle class="cls-26" cx="190.56" cy="422.79" r="20.79"/><path class="cls-27" d="M192.56,422.12a2,2,0,1,1-4,0v-4a2,2,0,1,1,4,0Zm-2,3.42a3.48,3.48,0,0,0,3.55-3.42h1.14a4.68,4.68,0,0,1-4,4.51v2.87h-1.34v-2.87a4.69,4.69,0,0,1-4-4.51H187A3.49,3.49,0,0,0,190.56,425.54Z"/><circle class="cls-26" cx="238.94" cy="422.79" r="20.79"/><path class="cls-27" d="M244.76,415.79l1.18,1.18-2.09,2.09,2.09,2.09-1.18,1.19-2.09-2.09-2.09,2.09-1.19-1.19,2.09-2.09L239.39,417l1.19-1.18,2.09,2.09Zm-2.09,14h-3.35a7.37,7.37,0,0,1-7.38-7.37v-3.36a.67.67,0,0,1,.67-.67h2.68a.67.67,0,0,1,.67.67v2.68a.67.67,0,0,1-.67.68h-.67a4.63,4.63,0,0,0,4.7,4.69v-.67a.67.67,0,0,1,.67-.67h2.68a.67.67,0,0,1,.67.67v2.68A.67.67,0,0,1,242.67,429.79Z"/><circle class="cls-26" cx="142.11" cy="422.83" r="20.79"/><path class="cls-27" d="M135.4,417.8a1.34,1.34,0,0,1,1.34-1.34h10.73a1.34,1.34,0,0,1,1.34,1.34v7.38a1.34,1.34,0,0,1-1.34,1.34h-4.69v1.34h2.68v1.34h-6.71v-1.34h2.69v-1.34h-4.7a1.34,1.34,0,0,1-1.34-1.34Zm7.51,6.6v-1.84a5.39,5.39,0,0,0-4.83,2.28c.45-2.23,1.7-4.46,4.83-4.92v-1.78l3.22,3.12Z"/><path class="cls-28" d="M207.61,0a30,30,0,1,0,57.78,0Z"/><path class="cls-29" d="M21.05,0A70.89,70.89,0,0,0,79,30,70.89,70.89,0,0,0,137,0Z"/><path class="cls-30" d="M82.16,154.84a22.5,22.5,0,0,0-35.9,26.25,71.21,71.21,0,0,0,35.93-26.22Z"/><polygon class="cls-17" points="0.11 224 0 224.11 0 353.43 0.11 353.54 38.11 315.54 38.11 262 0.11 224"/><polygon class="cls-18" points="0.11 224 0.11 250.87 19.11 269.87 38.11 262 0.11 224"/><polygon class="cls-8" points="0.11 250.87 0 250.98 0 326.56 0.11 326.67 19.11 307.67 19.11 269.87 0.11 250.87"/><polygon class="cls-20" points="13.93 264.66 0 278.6 0 289.01 19.09 269.95 19.09 269.88 13.93 264.66"/><polygon class="cls-20" points="0 303.25 0 313.7 19.09 294.61 19.09 284.16 0 303.25"/><polygon class="cls-19" points="19.06 308.18 38.11 316.07 0 354.18 0 327.23 19.06 308.18"/><path class="cls-28" d="M20,38A71,71,0,0,0,0,40.88V177.12A71,71,0,1,0,20,38Z"/><path class="cls-31" d="M68.67,90H0v27.38a28,28,0,0,0,20-16.51A28,28,0,0,0,73.27,95.5,4.65,4.65,0,0,0,68.67,90Z"/><path class="cls-32" d="M7.5,124.5s12,16,25,0"/><path class="cls-33" d="M62.17,90H47.68l-19,22.15a27.91,27.91,0,0,0,10.22,5Z"/><polygon class="cls-33" points="0 115.87 22.17 90 17.81 90 7.68 90 0 98.97 0 115.87"/><path class="cls-31" d="M219.84,11a2.31,2.31,0,0,0-2.28,2.75,16.92,16.92,0,0,0,8.56,11.7,22.56,22.56,0,0,0,21.64-.65,16.66,16.66,0,0,0,7.69-11.07A2.3,2.3,0,0,0,253.17,11Z"/><path class="cls-17" d="M232.07,15.83a29.92,29.92,0,0,0-12.84,2.61,16.2,16.2,0,0,0,6.89,7,22.56,22.56,0,0,0,21.64-.65,15.44,15.44,0,0,0,2.17-1.58C248.5,19,241.05,15.83,232.07,15.83Z"/><rect class="cls-4" x="486.72" y="29.08" width="163.02" height="74.77" rx="15.32"/><rect class="cls-20" x="465" y="50.81" width="163.02" height="74.77" rx="15.32"/><path class="cls-4" d="M586.33,65.38a26.53,26.53,0,0,0-18.81,7.78A26.63,26.63,0,0,0,531.15,72a26.65,26.65,0,1,0,0,40.08,26.64,26.64,0,0,0,36.37-1.16,26.65,26.65,0,1,0,18.81-45.53Z"/><circle class="cls-14" cx="511.09" cy="88.27" r="26.65"/><path class="cls-20" d="M524,79.11a14.43,14.43,0,0,0-8.22-3l-.41.46a19.28,19.28,0,0,1,7.3,3.7,24,24,0,0,0-8.83-2.79,24.84,24.84,0,0,0-5.93,0l-.5.07a22.7,22.7,0,0,0-6.65,1.84,18,18,0,0,0-1.74.83s2.4-2.32,7.7-3.82l-.31-.34a14.43,14.43,0,0,0-8.22,3A38.64,38.64,0,0,0,494,96.05s2.47,4.24,9,4.43c0,0,1.07-1.29,2-2.4a9.06,9.06,0,0,1-5.14-3.42s.28.2.81.5l.13.07.27.15a16.11,16.11,0,0,0,2.15,1,22.55,22.55,0,0,0,4.31,1.25,20.77,20.77,0,0,0,7.6,0,21.25,21.25,0,0,0,4.26-1.26,17.51,17.51,0,0,0,3.38-1.73,9.14,9.14,0,0,1-5.3,3.46c.88,1.11,1.92,2.36,1.92,2.36,6.48-.19,9-4.43,9-4.43A38.64,38.64,0,0,0,524,79.11ZM505.63,93.34a3.23,3.23,0,1,1,3-3.22A3.11,3.11,0,0,1,505.63,93.34Zm10.69,0a3.23,3.23,0,1,1,3-3.22A3.11,3.11,0,0,1,516.32,93.34Z"/><circle class="cls-34" cx="547.45" cy="88.27" r="26.65"/><path class="cls-20" d="M560.36,79.11a14.45,14.45,0,0,0-8.23-3l-.41.46a19.39,19.39,0,0,1,7.31,3.7,24,24,0,0,0-8.84-2.79,24.86,24.86,0,0,0-5.93,0l-.49.07a22.66,22.66,0,0,0-6.66,1.84,18,18,0,0,0-1.74.83s2.41-2.32,7.7-3.82l-.3-.34a14.47,14.47,0,0,0-8.23,3,38.64,38.64,0,0,0-4.22,16.94s2.48,4.24,9,4.43c0,0,1.07-1.29,2-2.4a9,9,0,0,1-5.13-3.42s.28.2.8.5l.13.07.28.15a15.56,15.56,0,0,0,2.15,1,22.44,22.44,0,0,0,4.3,1.25,20.77,20.77,0,0,0,7.6,0,21.06,21.06,0,0,0,4.26-1.26A17.56,17.56,0,0,0,559,94.66a9.14,9.14,0,0,1-5.31,3.46c.88,1.11,1.93,2.36,1.93,2.36,6.47-.19,9-4.43,9-4.43A38.64,38.64,0,0,0,560.36,79.11ZM542,93.34a3.23,3.23,0,1,1,3-3.22A3.11,3.11,0,0,1,542,93.34Zm10.69,0a3.23,3.23,0,1,1,3-3.22A3.11,3.11,0,0,1,552.69,93.34Z"/><circle class="cls-35" cx="583.82" cy="88.27" r="26.65"/><path class="cls-20" d="M596.72,79.11a14.43,14.43,0,0,0-8.22-3l-.41.46a19.28,19.28,0,0,1,7.3,3.7,24,24,0,0,0-8.83-2.79,24.84,24.84,0,0,0-5.93,0l-.49.07a22.66,22.66,0,0,0-6.66,1.84,18,18,0,0,0-1.74.83s2.41-2.32,7.7-3.82l-.3-.34a14.45,14.45,0,0,0-8.23,3,38.64,38.64,0,0,0-4.22,16.94s2.48,4.24,8.95,4.43c0,0,1.08-1.29,2-2.4a9.06,9.06,0,0,1-5.14-3.42s.29.2.81.5l.13.07.27.15a15.64,15.64,0,0,0,2.16,1,22.22,22.22,0,0,0,4.3,1.25,20.77,20.77,0,0,0,7.6,0A21.25,21.25,0,0,0,592,96.39a17.51,17.51,0,0,0,3.38-1.73,9.14,9.14,0,0,1-5.3,3.46c.88,1.11,1.92,2.36,1.92,2.36,6.48-.19,9-4.43,9-4.43A38.57,38.57,0,0,0,596.72,79.11ZM578.37,93.34a3.23,3.23,0,1,1,3-3.22A3.12,3.12,0,0,1,578.37,93.34Zm10.68,0a3.23,3.23,0,1,1,3-3.22A3.12,3.12,0,0,1,589.05,93.34Z"/><path class="cls-36" d="M622.28,68.2a14.94,14.94,0,1,0-24.45-13.41,4.74,4.74,0,0,1-4.42,4.08,5.54,5.54,0,0,0-3.2.92,5.43,5.43,0,0,0-.62,7.65C605.4,86.08,622.28,68.2,622.28,68.2Z"/><path class="cls-29" d="M648.51,0,617.22,37.76a10.27,10.27,0,1,0,16.11,12.73L660,15.1V0Z"/><path class="cls-37" d="M623.49,125.87a6.61,6.61,0,0,1-13.21,0c0-2.51,3.11-9.48,5.06-13.6a1.7,1.7,0,0,1,3.08,0C620.37,116.39,623.49,123.36,623.49,125.87Z"/><path class="cls-38" d="M621.75,61c-3.75,2.68-13.45,2.86-15.67,6.9-.76,1.38,1,.32.54,1.83a15.58,15.58,0,0,0-.55,2.8,30.36,30.36,0,0,0,2,3.21c8.17-1.2,14.16-7.53,14.16-7.53A15,15,0,0,0,627,52.75C623.77,52.74,626.14,57.86,621.75,61Z"/><path class="cls-9" d="M615.46,73.22A6.27,6.27,0,0,0,610.74,68c2.1-2.26,2.75-5.23,1.37-7.33-1.51-2.3-5-2.79-8.12-1.32a6.26,6.26,0,0,0-4.89-7.23,4.09,4.09,0,0,0-.61-.1,15.2,15.2,0,0,0-.66,2.82,4.74,4.74,0,0,1-4.42,4.08,5.54,5.54,0,0,0-3.2.92,5.43,5.43,0,0,0-.62,7.65C599.14,78.71,609.09,76.63,615.46,73.22Z"/><path class="cls-38" d="M633.33,50.49,660,15.1V1.67L618.11,51.8c.21.2.42.39.65.57A10.27,10.27,0,0,0,633.33,50.49Z"/><path class="cls-9" d="M615.34,112.27c-2,4.12-5.06,11.09-5.06,13.6a6.68,6.68,0,0,0,.28,1.91,5.2,5.2,0,0,0,4,2.19c3.64,0,6.59-4.78,6.59-10.66,0-.37,0-.73,0-1.09-.89-2.12-1.87-4.27-2.67-6A1.7,1.7,0,0,0,615.34,112.27Z"/><ellipse class="cls-39" cx="614.86" cy="116.8" rx="1.88" ry="0.63" transform="translate(296.79 655.8) rotate(-70.21)"/><path class="cls-40" d="M596.67,73.52c7.16,4.08,14,2.27,18.79-.3A6.27,6.27,0,0,0,610.74,68a7.65,7.65,0,0,0,2-4,25.83,25.83,0,0,0-6.09,1.72A22.83,22.83,0,0,0,596.67,73.52Z"/><rect class="cls-29" x="78" y="24" width="12" height="6"/><path class="cls-28" d="M31.05,0A70.89,70.89,0,0,0,89,30,70.89,70.89,0,0,0,147,0Z"/><rect class="cls-3" x="381.47" y="313" width="257.53" height="129" rx="13.01"/><circle class="cls-41" cx="404" cy="337" r="11"/><path class="cls-42" d="M582.48,360.1a14.94,14.94,0,0,0-5.73-2.86c.16-.14.32-.29.47-.45l15-15.35-20.49-5.23a12.19,12.19,0,0,0-7.93.68,10.77,10.77,0,0,0-1-.78,6.38,6.38,0,0,0-5.93-.64l-1.42.56a44.18,44.18,0,0,0-7.65-15.1,6.47,6.47,0,0,0-.75-3.35,7.13,7.13,0,0,0-1.2-1.63c-.84-.87-1.73-1.71-2.64-2.52L560,294.48a22.29,22.29,0,0,0,5.62-15.36l-.5-21.25.28-.31a7.7,7.7,0,0,0,1.92-5.38l-.28-7.18a5.16,5.16,0,0,0-9-3.22L543.3,258.41l0-.52a5.16,5.16,0,0,0-9-3.22L493.14,301.1c.05-.21.11-.42.14-.63a7,7,0,0,0-.35-3.43c.39-.49.77-1,1.14-1.54a5.07,5.07,0,0,0-5.46-7.83,5.16,5.16,0,0,0-2.83,2c-.29.41-.58.8-.87,1.18a11,11,0,0,0-4.61.29,14.75,14.75,0,0,0-1.86.65c-3.85-5.65-8.2-6.3-11.36-5.72a4.76,4.76,0,0,0-.61.13l-.15,0-.13.05h0l-.46.16h0l-.57.26h0l0,0-.55.29-.25.14-.11.09c-2.74,1.78-4.91,5.36-3.07,10.3a12.19,12.19,0,0,0,3,4.51,23.48,23.48,0,0,0,5.2,3.84,52.11,52.11,0,0,0-13.8,3.71L453.93,306l-5.26,3.51c-3.91,2.61-7.29,4.86-9.75,7.9l-.87,1.06-.38,4.1a30.15,30.15,0,0,0-5.92,10.16,35.52,35.52,0,0,0,10.66,36.19l6,5.69,2.33-.64L447,376a5.11,5.11,0,0,0-2.49,3.07,4.92,4.92,0,0,0-.18,2.08,10.27,10.27,0,0,0,8,15,5.22,5.22,0,0,0,3.31,1.41,6.41,6.41,0,0,0,7.55,1.06l1.11-.61a20.72,20.72,0,0,0,5.15,5.58,21,21,0,0,0,15.18,4l9.65,12.44a11.17,11.17,0,0,0,10.58,4.16,11,11,0,0,0,5.05-2.2,11.15,11.15,0,0,0,2-15.62L506.09,399l.78-.35,21.88,9.9a11.53,11.53,0,0,0,9.36.19,10.25,10.25,0,0,0,5.71-6.24c1.95-5.77-1.13-12.38-7-15l-1.63-.74.47-.28a10.18,10.18,0,0,0,7.43-2,10.42,10.42,0,0,0,2.35-2.48l15.74,4.29a6.4,6.4,0,0,0,5.57-1.08,15,15,0,0,0,11.66.46l24.18-9.22ZM455,373.61a5.13,5.13,0,0,0-1.83-.3l3.27-.9.06.25C456.05,373,455.55,373.3,455,373.61Z"/><path class="cls-20" d="M503.37,422.19A11.14,11.14,0,0,1,492.79,418l-9.65-12.45a21.07,21.07,0,0,1-15.18-4,20.86,20.86,0,0,1-5.15-5.58l-1.11.6a6.43,6.43,0,0,1-7.55-1.05,5.21,5.21,0,0,1-3.31-1.42,10.28,10.28,0,0,1-8.37-6.16h0a10.35,10.35,0,0,1,.35-8.85A5.21,5.21,0,0,1,445.5,374l3.75-2-2.33.64-6-5.69a35.51,35.51,0,0,1-10.66-36.19,30.34,30.34,0,0,1,5.92-10.16l.38-4.09.87-1.07c2.46-3,5.84-5.28,9.75-7.89l5.26-3.51,1.57,3.57a50.14,50.14,0,0,1,6.55-2.27,46.24,46.24,0,0,1,25.09-.23c.5-.32,1-.63,1.51-.93l45.61-51.5a5.16,5.16,0,0,1,9,3.23l0,.52,14.73-16.64a5.16,5.16,0,0,1,9,3.23l.28,7.17a7.67,7.67,0,0,1-1.92,5.38l-.28.32.5,21.25a22.29,22.29,0,0,1-5.62,15.35l-16.78,18.95c.91.81,1.8,1.65,2.64,2.52a7.41,7.41,0,0,1,1.2,1.64,6.41,6.41,0,0,1,.75,3.34A44.54,44.54,0,0,1,554,334l1.42-.56a6.42,6.42,0,0,1,5.93.65,11.88,11.88,0,0,1,1,.77,12.19,12.19,0,0,1,7.93-.68l20.49,5.23-15,15.35c-.15.16-.31.31-.47.46a14.66,14.66,0,0,1,5.73,2.86l20.1,16.3-24.18,9.21a14.93,14.93,0,0,1-11.66-.46,6.42,6.42,0,0,1-5.58,1.09L544,379.91a10.39,10.39,0,0,1-2.34,2.48,10.26,10.26,0,0,1-7.44,2l-.46.28,1.63.74c5.88,2.66,8.95,9.26,7,15a10.31,10.31,0,0,1-5.71,6.24,11.6,11.6,0,0,1-9.37-.19l-21.87-9.91-.78.35,5.76,7.42a11.13,11.13,0,0,1-7,17.82Zm-16.67-26.8L500,412.48a2.08,2.08,0,0,0,3.28-2.55L490.39,393.4l15.69-7,2.1,1.46a5.51,5.51,0,0,0,.68.39l22.16,10a2.52,2.52,0,0,0,2,.14,1.29,1.29,0,0,0,.74-.82,3.57,3.57,0,0,0-2.15-3.89l-22-9.93,11.64-3.47a35.51,35.51,0,0,0,9.49-4.46l1.64-1.09,2.72.65a1.19,1.19,0,0,0,1-.21,1.24,1.24,0,0,0,.5-.92l.25-5.67L560.51,375l.17-.25,2.93-4.66,4,3.78a5.88,5.88,0,0,0,6.09,1.21l9.48-3.61-7.88-6.39a5.87,5.87,0,0,0-6.66-.49l-4.42,2.63-1.73-4-42.38-2.5,40.3-6.82a5.48,5.48,0,0,0,.09-.64L561,348l-3.1-4.66a8,8,0,0,0-.65-.86l-10.13,4-.86-5.62a35.37,35.37,0,0,0-8.19-17.78L536.29,321l.66-1.72a40.54,40.54,0,0,0-4.38-3.65l-4.07-2.93,23.26-26.27a13.21,13.21,0,0,0,3.34-9.13l-.51-21.65-23.45,26.48-.32-13.59L493,311.26l-.66.37c-1.12.64-2.24,1.35-3.32,2.11l-1.92,1.36-2.21-.79c-6.55-2.31-14.12-2.41-21.9-.28a41.91,41.91,0,0,0-9,3.63L449.62,320l-1.08-2.46a26.78,26.78,0,0,0-3.19,2.61l-.39,4.18-1,1.12a22.7,22.7,0,0,0-5,7.84l-.05.18c-.19.58-4.62,14.95,8.23,26.8l2.31,2.21,12-3.28,4,14.88L463.1,376a44.48,44.48,0,0,1-8.15,5.21l-3.93,2v0a1.2,1.2,0,0,0-.21,1.29h0a1.2,1.2,0,0,0,1.39.7l.74-.17,3.4-1.74a53.21,53.21,0,0,0,4.61-2.66l5.24-3.42,3,11.27a11.77,11.77,0,0,0,4.19,5.95,11.94,11.94,0,0,0,10.36,1.9Zm73-19.39h0Zm-103.26,8.89h0ZM449.82,382h0Zm1.56-5.29h0Zm108.69-21.49h0ZM451.74,371.27a5.14,5.14,0,0,1,1.83.31q.78-.46,1.5-1l-.07-.24ZM561.12,348l5.06,1.34a3.23,3.23,0,0,0,3.1-.92l4-4.11L568.08,343a3.23,3.23,0,0,0-3.13,1Z"/><path class="cls-43" d="M563.22,375.74h0a10.38,10.38,0,0,0,12.1,3.61l16.83-6.42-14-11.34a10.37,10.37,0,0,0-12.62-.35h0A10.39,10.39,0,0,0,563.22,375.74Z"/><path class="cls-44" d="M562.63,372.41h0a5.86,5.86,0,0,0,6.84,2l9.52-3.62-7.91-6.42a5.87,5.87,0,0,0-7.14-.19h0A5.87,5.87,0,0,0,562.63,372.41Z"/><path class="cls-43" d="M563.23,353h0a7.66,7.66,0,0,0,9.29-1.39l9.54-9.73-12.86-3.28a7.82,7.82,0,0,0-8.68,3.78h0A7.75,7.75,0,0,0,563.23,353Z"/><path class="cls-44" d="M561.85,350.89h0a4.34,4.34,0,0,0,5.25-.78l5.39-5.51-7.27-1.85a4.43,4.43,0,0,0-4.91,2.14h0A4.38,4.38,0,0,0,561.85,350.89Z"/><path class="cls-45" d="M478.12,369.43a3.28,3.28,0,0,1-.2.31c-5.45,7.9-11.57,14.23-23.72,19.47a5.76,5.76,0,1,1-4.56-10.58c9.71-4.18,14.25-8.82,18.81-15.42a5.75,5.75,0,0,1,9.67,6.22Z"/><path class="cls-46" d="M492.44,338.71l3.76,3.34,35.18-39.72a17.78,17.78,0,0,0,4.48-12.24l-.54-23L491.12,317Z"/><path class="cls-47" d="M475.88,326.51l1.75,28.92,6.6,5.84L499,344.55l-2.83-2.5-3.76-3.34L491.12,317l44.2-49.9,1.46-1.65a3.14,3.14,0,0,0,.78-2.2l-.27-7.18a.63.63,0,0,0-1.1-.39L477.45,322A6.33,6.33,0,0,0,475.88,326.51Z"/><path class="cls-48" d="M496.2,342.05l1.57-1.77-2.24-2-1.22-20.19,41.12-46.43-.11-4.62L491.12,317l1.32,21.75Z"/><path class="cls-49" d="M508.94,306.21A40.07,40.07,0,1,1,471.1,348.4,40.07,40.07,0,0,1,508.94,306.21Z"/><path class="cls-50" d="M509.7,320.22a26,26,0,1,1-24.59,27.42A26,26,0,0,1,509.7,320.22Z"/><path class="cls-44" d="M472.46,329.57c7.48-15.05,21.08-24.53,36.37-25.36a41.48,41.48,0,0,1,32.33,12.86,2.58,2.58,0,0,1,.44.59,2.5,2.5,0,0,1,0,2c-2.35,7.56-23.16,20-31.75,24.56-13.24-2.25-34.55-7.68-37.41-13.1A1.53,1.53,0,0,1,472.46,329.57Z"/><path class="cls-51" d="M470.66,328.68c7.2-14.47,20.83-25.54,38.06-26.47a42.94,42.94,0,0,1,18.7,3.14c5.73,2.35-17.18,41-17.18,41S465.56,338.94,470.66,328.68Z"/><path class="cls-52" d="M509.92,324.22a22,22,0,1,1-20.81,23.2A22,22,0,0,1,509.92,324.22Z"/><path class="cls-46" d="M510.11,327.72a18.53,18.53,0,1,1-17.5,19.51A18.53,18.53,0,0,1,510.11,327.72Z"/><path class="cls-48" d="M518.78,335.1l5.46,10.37a2,2,0,0,1-.08,2l-6.24,9.91a2,2,0,0,1-1.78.93l-11.7-.46a2,2,0,0,1-1.7-1.06l-5.45-10.37a2,2,0,0,1,.07-2l6.25-9.91a2,2,0,0,1,1.77-.93l11.71.45A2,2,0,0,1,518.78,335.1Z"/><path class="cls-53" d="M510.76,339.81a6.42,6.42,0,1,1-6.06,6.76A6.42,6.42,0,0,1,510.76,339.81Z"/><path class="cls-54" d="M457,391.88l-2.26-4.16a.63.63,0,0,1,.26-.85.62.62,0,0,1,.85.25l2.26,4.16a.62.62,0,0,0,.85.25l26-14.09a.63.63,0,1,1,.6,1.11l-26,14.09A1.9,1.9,0,0,1,457,391.88Z"/><path class="cls-55" d="M453.85,390.72l-6.45-11.89a.62.62,0,0,1,.25-.85l3.87-2.1a.64.64,0,0,1,.86.25L458.82,388a.63.63,0,0,1-.25.85L454.7,391A.63.63,0,0,1,453.85,390.72Z"/><path class="cls-55" d="M476.5,377.94l-6.45-11.89a.63.63,0,0,1,.26-.85l3.87-2.1a.63.63,0,0,1,.85.26l6.45,11.88a.64.64,0,0,1-.26.86l-3.87,2.09A.62.62,0,0,1,476.5,377.94Z"/><path class="cls-56" d="M482.62,386.51a8.39,8.39,0,0,1-8.72-4.3l-2.25-4.15,10.48-5.69a5.89,5.89,0,0,0-3.65.65l26-14.09,6.82,12.58-26,14.09A8.42,8.42,0,0,1,482.62,386.51Z"/><path class="cls-35" d="M505.64,416.42a6.61,6.61,0,0,1-9.27-1.17c-3.85-4.95-9.6-12.36-13.43-17.31a6.59,6.59,0,0,1,1.17-9.26h0a6.6,6.6,0,0,1,9.26,1.18l13.43,17.3a6.62,6.62,0,0,1-1.17,9.27Z"/><path class="cls-35" d="M505.64,416.42a6.61,6.61,0,0,1-9.27-1.17c-3.85-4.95-9.6-12.36-13.43-17.31a6.59,6.59,0,0,1,1.17-9.26h0a6.6,6.6,0,0,1,9.26,1.18l13.43,17.3a6.62,6.62,0,0,1-1.17,9.27Z"/><path class="cls-35" d="M529.15,402.38l-22.16-10c-3.42-1.55-5.68-5.27-5-8.7.8-4.15,5.12-6,9.15-4.23,6.38,2.9,16,7.23,22.37,10.13,3.73,1.68,5.78,5.92,4.58,9.46h0C536.87,402.56,532.88,404.06,529.15,402.38Z"/><path class="cls-35" d="M529.15,402.38l-22.16-10c-3.42-1.55-5.68-5.27-5-8.7.8-4.15,5.12-6,9.15-4.23,6.38,2.9,16,7.23,22.37,10.13,3.73,1.68,5.78,5.92,4.58,9.46h0C536.87,402.56,532.88,404.06,529.15,402.38Z"/><path class="cls-35" d="M494.14,342.34l-36.47,20.42,7,26.3a16.36,16.36,0,0,0,6,8.91h0a16.35,16.35,0,0,0,16.49,1.83l23.15-10.36A14.69,14.69,0,0,0,519,374.77h0a14.66,14.66,0,0,0-3.66-8.5Z"/><path class="cls-35" d="M494.14,342.34l-36.47,20.42,7,26.3a16.36,16.36,0,0,0,6,8.91h0a16.35,16.35,0,0,0,16.49,1.83l23.15-10.36A14.69,14.69,0,0,0,519,374.77h0a14.66,14.66,0,0,0-3.66-8.5Z"/><polygon class="cls-45" points="459.13 368.22 456.08 356.88 462.58 355.5 505.11 348.79 459.13 368.22"/><path class="cls-35" d="M531.51,369.94l-6.73,6.21a.9.9,0,0,0,.4,1.54l8.92,2.1a5.77,5.77,0,0,0,7-6.39h0A5.77,5.77,0,0,0,531.51,369.94Z"/><path class="cls-54" d="M479.63,379.1,477.38,375a.63.63,0,1,1,1.11-.6l2.25,4.15a.63.63,0,0,0,.85.26l26-14.09a.63.63,0,0,1,.6,1.1l-26,14.09A1.89,1.89,0,0,1,479.63,379.1Z"/><path class="cls-55" d="M476.5,377.94l-6.45-11.89a.63.63,0,0,1,.26-.85l3.87-2.1a.63.63,0,0,1,.85.26l6.45,11.88a.64.64,0,0,1-.26.86l-3.87,2.09A.62.62,0,0,1,476.5,377.94Z"/><path class="cls-57" d="M505.94,353.92a5.06,5.06,0,0,0-2-1.64,5.35,5.35,0,0,0-5.29.3,4.91,4.91,0,0,0-1,.82c-1,1-2,2-3,2.94a39.07,39.07,0,0,1-3.69,3,33.45,33.45,0,0,1-3.36,2.07c-1,.52-2,1-3.14,1.49q-1.41.58-3,1.11c-1,.33-2.05.64-3.17.94l-.37.1a5.42,5.42,0,0,0-3.89,6.6,5.27,5.27,0,0,0,1,2,5.39,5.39,0,0,0,2.21,1.63,5.46,5.46,0,0,0,3.35.21c.67-.17,1.32-.35,2-.54,1-.29,2-.61,2.93-.93s2.06-.74,3-1.14c1.1-.45,2.13-.93,3.12-1.43,1.15-.57,2.23-1.17,3.26-1.8,1.22-.75,2.37-1.54,3.47-2.36,1.31-1,2.55-2,3.75-3.15s2.25-2.16,3.35-3.32c.08-.09.16-.17.23-.26A5.42,5.42,0,0,0,505.94,353.92Z"/><path class="cls-58" d="M502.67,340.48l-5.22-19.05A10.7,10.7,0,0,0,484.33,314l-31.75,8.7a10.71,10.71,0,0,0-7.48,13.12l5.23,19.05a10.71,10.71,0,0,0,13.11,7.48l31.76-8.71A10.71,10.71,0,0,0,502.67,340.48Z"/><path class="cls-59" d="M496,342.32l-5.22-19.06a10.71,10.71,0,0,0-13.12-7.47l-31.75,8.7a10.72,10.72,0,0,0-7.48,13.12l5.23,19.05a10.7,10.7,0,0,0,13.12,7.48l31.75-8.7A10.71,10.71,0,0,0,496,342.32Z"/><path class="cls-59" d="M503.92,330.24l-1.32-4.81a7.11,7.11,0,0,0-8.74-5l-7.58,2.08,5.08,18.53,7.58-2.08A7.11,7.11,0,0,0,503.92,330.24Z"/><path class="cls-58" d="M491.11,337.44l6.89-1.89a3.56,3.56,0,0,0,2.49-4.37l-1.32-4.81a3.56,3.56,0,0,0-4.37-2.49l-6.89,1.89a.72.72,0,0,0-.5.88l2.82,10.29A.72.72,0,0,0,491.11,337.44Z"/><path class="cls-55" d="M480.23,334a3.52,3.52,0,1,0-2.46,4.32A3.53,3.53,0,0,0,480.23,334Z"/><path class="cls-60" d="M435.14,342.94l1.32,4.8a10.72,10.72,0,0,0,13.12,7.48l4.12-1.13,2.06-.57,4.8-1.32A10.71,10.71,0,0,0,468,339.09l-1.32-4.81a4.29,4.29,0,0,0-5.25-3l-4.8,1.32-14.42,3.95-4.12,1.13A4.29,4.29,0,0,0,435.14,342.94Z"/><path class="cls-61" d="M463.23,340.4l-1.32-4.8a4.27,4.27,0,0,0-5.24-3l-18.54,5.08a4.29,4.29,0,0,0-3,5.25l1.32,4.8a10.72,10.72,0,0,0,13.12,7.48l6.18-1.7A10.71,10.71,0,0,0,463.23,340.4Z"/><path class="cls-59" d="M449.61,348.7A1.8,1.8,0,0,0,451.8,350l1.71-.48,1-.28,1.72-.47a1.78,1.78,0,1,0-.94-3.43l-1.72.47-1,.28-1.71.47A1.79,1.79,0,0,0,449.61,348.7Zm-8.06,2.21a1.79,1.79,0,0,0,2.18,1.25l1-.29-.34.1,1-.28a1.78,1.78,0,0,0-.94-3.44l-1,.29.34-.1-1,.28A1.79,1.79,0,0,0,441.55,350.91Z"/><g class="cls-62"><path class="cls-63" d="M445.89,324.49l33.2-9.12L495.44,338l-6,15.17-38.38,12.32-7-1.85a31.17,31.17,0,0,1-9.45-31.57Z"/></g><path class="cls-64" d="M434.62,332.05l9.14,1.43,31.16-13,12.65,17.37c5.92,7.94,20.46,2.79,17-9.87s-20.15-24.48-42.77-18.28C445,314.26,436.3,326.28,434.62,332.05Z"/><path class="cls-64" d="M497,344.13l0,10.05-48.77,13.36-4.12-3.92,29-7.95,17.5-16.36Z"/><path class="cls-46" d="M492.44,311.79a2.58,2.58,0,0,1,5.14.2l.28,11.47-6.6-.26Z"/><path class="cls-53" d="M492,315.85l-.76,7.36,6.6.25-.18-7.39Z"/><path class="cls-53" d="M506.78,357.73,531,351l2.56,9.19-24.22,6.74Z"/><path class="cls-48" d="M529.29,362.66l-3.23-11.6a1.25,1.25,0,0,1,.75-1.5l30.28-11.91a1.86,1.86,0,0,1,1.74.19c1.34.9,3.83,3.26,5.39,8.87s.65,8.91,0,10.38a1.91,1.91,0,0,1-1.4,1.06l-32.08,5.41A1.25,1.25,0,0,1,529.29,362.66Z"/><path class="cls-53" d="M535.06,349.94a1.5,1.5,0,1,1-1,1.85A1.49,1.49,0,0,1,535.06,349.94Zm6.71-2.52a1.51,1.51,0,1,1-1,1.85A1.51,1.51,0,0,1,541.77,347.42Z"/><path class="cls-65" d="M510.4,355.94l24.65,4-1.54,9.41-24.65-4Z"/><path class="cls-52" d="M528.6,369.85,530.54,358a1.27,1.27,0,0,1,1.32-1.05l32.48,1.92a1.87,1.87,0,0,1,1.5.9c.83,1.38,2.1,4.57,1.16,10.31s-3.16,8.36-4.39,9.41a1.9,1.9,0,0,1-1.71.37l-31.39-8.56A1.25,1.25,0,0,1,528.6,369.85Z"/><path class="cls-53" d="M539.18,360.73a1.5,1.5,0,1,1-1.73,1.24A1.5,1.5,0,0,1,539.18,360.73Zm7.21,1.4a1.5,1.5,0,1,1-1.73,1.24A1.5,1.5,0,0,1,546.39,362.13Z"/><path class="cls-46" d="M490.61,320.74c5.68-2.34,12.54,1.24,15.31,8s.42,14.11-5.27,16.45-12.53-1.24-15.31-8S484.93,323.07,490.61,320.74Z"/><path class="cls-53" d="M493.4,323.91c4-1.66,8.91.88,10.88,5.67s.3,10-3.74,11.69-8.91-.88-10.88-5.68S489.37,325.57,493.4,323.91Z"/><path class="cls-51" d="M494.68,326.3c2.89-1.19,6.38.63,7.79,4.06s.21,7.18-2.68,8.37-6.38-.63-7.79-4.06S491.79,327.49,494.68,326.3Z"/><path class="cls-44" d="M498.79,335.36l-4-5.26a.4.4,0,0,1,.07-.55l.62-.47a.4.4,0,0,1,.55.07l4,5.26a.38.38,0,0,1-.07.54l-.62.48A.4.4,0,0,1,498.79,335.36Z"/><path class="cls-55" d="M507.15,369.62l-11.4-21,9.91-5.37L518.55,367l-7.14,3.87A3.13,3.13,0,0,1,507.15,369.62Z"/><path class="cls-46" d="M516.21,325.82l3.77,3.34,35.18-39.72a17.89,17.89,0,0,0,4.48-12.24l-.55-23-44.2,49.91Z"/><path class="cls-47" d="M499.65,313.62l1.76,28.92,6.59,5.83,14.8-16.71-2.82-2.5-3.77-3.34-1.32-21.75,44.2-49.91,1.46-1.64a3.15,3.15,0,0,0,.79-2.21l-.28-7.17a.63.63,0,0,0-1.1-.39l-58.74,66.32A6.31,6.31,0,0,0,499.65,313.62Z"/><path class="cls-48" d="M520,329.16l1.56-1.77-2.24-2-1.22-20.2,41.12-46.43-.11-4.62-44.2,49.91,1.32,21.75Z"/><path class="cls-46" d="M556.5,251.87a1.26,1.26,0,1,1,1.78-.11A1.26,1.26,0,0,1,556.5,251.87Zm-3.54,4a1.26,1.26,0,1,1,1.67-1.88,1.27,1.27,0,0,1,.1,1.78A1.26,1.26,0,0,1,553,255.87Zm-50.46,57a1.26,1.26,0,1,1,1.78-.11A1.26,1.26,0,0,1,502.5,312.84Z"/><path class="cls-43" d="M499.91,350.69l-3.35-6.16a2,2,0,0,1,.81-2.72l11.45-6.21a2,2,0,0,1,2.72.81l3.34,6.16a2,2,0,0,1-.81,2.72l-11.45,6.21A2,2,0,0,1,499.91,350.69Z"/><path class="cls-66" d="M497.57,356.08l-6.79-12.54a1.89,1.89,0,0,1,.75-2.56l9-4.88a5,5,0,0,1,6.82,2l3.8,7a5,5,0,0,1-2,6.82l-9,4.89A1.9,1.9,0,0,1,497.57,356.08Z"/><path class="cls-44" d="M441,318.25l5.44,6.77a41.56,41.56,0,0,1,5.63-10.73l-1.56-3.53C446.52,313.41,443.15,315.57,441,318.25Z"/><path class="cls-51" d="M440.19,326.72l.79-8.47,5.44,6.77Z"/><path class="cls-67" d="M484.46,303.29l.31-.09a6.68,6.68,0,0,0,4.81-5.09,4.9,4.9,0,0,0-.77-3.41c.66-.79,1.31-1.63,1.95-2.54a2.79,2.79,0,0,0,.45-2.19,2.71,2.71,0,0,0-1.18-1.76,2.75,2.75,0,0,0-2.3-.38,2.82,2.82,0,0,0-1.56,1.08,30.26,30.26,0,0,1-1.86,2.4,8.43,8.43,0,0,0-4.88-.05,13.25,13.25,0,0,0-3.28,1.43c-2.8-5-6.22-7.2-10.18-6.45l-.37.08-.14,0h0l-.32.11-.22.09,0,0-.27.13,0,0-.41.22-.06,0c-2.65,1.63-3.51,4.5-2.32,7.7a10.27,10.27,0,0,0,2.43,3.69,21.58,21.58,0,0,0,7.52,4.75l0,0,.27.1.94.29.17.05c.34.09.67.18,1,.25l.38.08,1,.17.31,0h0a32.83,32.83,0,0,0,4.07.07h.17l.16,0C480.56,304.11,483.31,303.6,484.46,303.29Z"/><path class="cls-20" d="M466.19,288.51l.19,0c4.35-.84,7,3.79,8.12,5.93.12.23.37.73.63,1.26l.36-.07a4.44,4.44,0,0,0,1.24-.6,11.45,11.45,0,0,1,3.29-1.54,5.66,5.66,0,0,1,4.83.63,32.45,32.45,0,0,0,3.17-3.85.59.59,0,0,1,.3-.22.55.55,0,0,1,.46.09.54.54,0,0,1,.13.75,32.33,32.33,0,0,1-3.2,3.91c3.1,2.1,1.42,5.31-1.62,6.28l-.21.06c-1.11.3-4.05.84-4.05.84a33.67,33.67,0,0,1-3.69,0h0l-.28,0-.88-.15-.33-.07-.87-.22-.17,0-.83-.26v0a19.27,19.27,0,0,1-7-4.33,7.91,7.91,0,0,1-1.88-2.86c-1.09-2.91.36-4.36,1.41-5h0l.35-.19.28-.13.2-.07h0M465,284.13l-.15.05-.13,0h0l-.46.17h0l-.57.25,0,0h0s-.28.14-.54.3l-.26.14-.1.08c-2.74,1.78-4.91,5.37-3.07,10.31a12.35,12.35,0,0,0,3,4.51,23.66,23.66,0,0,0,8,5.14l.05,0,.63.22q.51.18,1.05.33l.24.07,1.08.26.42.09c.37.08.75.14,1.13.19l.08,0,.27,0h0a32.91,32.91,0,0,0,4.44.08h.33l.32-.06c.52-.1,3.18-.59,4.39-.92l.41-.12a8.93,8.93,0,0,0,6.36-6.92,7.09,7.09,0,0,0-.35-3.43c.39-.5.77-1,1.14-1.54a5.06,5.06,0,0,0,.82-4,5.07,5.07,0,0,0-9.11-1.9c-.29.4-.58.8-.87,1.17a11,11,0,0,0-4.61.3,13.66,13.66,0,0,0-1.86.64c-3.85-5.65-8.2-6.3-11.36-5.71l-.61.12Z"/><path class="cls-67" d="M479.83,301.94a14.92,14.92,0,0,0,1.73-.26,21.83,21.83,0,0,0,2.53-.64c3.13-1,4.84-4.38,1.35-6.47,0,0-2.91-3.36-8.71.42a3.09,3.09,0,0,1-3.35.35l3.85,5.67Z"/><path class="cls-68" d="M477.63,299.68a5.6,5.6,0,0,1-1.73,0,.55.55,0,0,1-.44-.64.55.55,0,0,1,.64-.43c.09,0,5.39.8,11.92-8.42a.54.54,0,0,1,.76-.13.55.55,0,0,1,.13.76C484.1,297.65,479.88,299.31,477.63,299.68Z"/><path class="cls-69" d="M481.56,301.68c.21,0-3,.64-5.85-4.87l-1.21-2.41c-1.13-2.16-3.82-6.88-8.26-5.91,0,0-3.93,1.12-2.32,5.42a7.91,7.91,0,0,0,1.88,2.86A17.61,17.61,0,0,0,481.56,301.68Z"/><path class="cls-67" d="M476.14,301.9a17.54,17.54,0,0,1-8.77-9.31,16,16,0,0,1-1-4.12l-.14,0a4.34,4.34,0,0,0-.91.42,17.09,17.09,0,0,0,1,4,18.08,18.08,0,0,0,6.45,8.19A17,17,0,0,0,476.14,301.9Z"/><g class="cls-70"><path class="cls-71" d="M434.64,414.26a6,6,0,0,0-1.39-1.36L431,406.69a6.07,6.07,0,0,0-11.51.28,40.14,40.14,0,0,0-20.58-3.29l-.33-.12-5.78-1.87-4.44,4.13-.25.25-.17.07.38-.6a8.54,8.54,0,0,0,1.14-3.6,5.74,5.74,0,0,0-4-6.36l-.1-.05-.23,0-.4-.09h-.06l-.45-.07-.32,0h-.2l-.44,0c-2.24.21-5.05,1.47-6.58,6a10.89,10.89,0,0,0-1.38-.09,7.7,7.7,0,0,0-3.16.68l-.81-.63a3.56,3.56,0,0,0-4.49,5.52c.36.29.71.56,1.06.82a4.91,4.91,0,0,0,.42,2.38,6.26,6.26,0,0,0,5.6,3.47h.29c.26,0,.6,0,1,0a36.17,36.17,0,0,0-4.35,4.31,6.07,6.07,0,0,0-10.55,4.59l.56,6.6a5.85,5.85,0,0,0-.69,1.81,10.8,10.8,0,0,0-1.66,7.62,10.62,10.62,0,0,0,3.58,7.17,5.72,5.72,0,0,0,5.84,3.11l.8-.1a27.29,27.29,0,0,0,8.39,7.38l-.07,0-3.53,13.47c-.29,1.47-.5,2.89-.67,4.27,0,.18,0,.36,0,.54a7.71,7.71,0,0,0,6.8,8.06,7.72,7.72,0,0,0,8.05-4.79,15,15,0,0,0,1.33.92l-.55,10.09a8.31,8.31,0,1,0,16.59.91l.5-9,2-.07,3.76,10a8.3,8.3,0,0,0,10.71,4.84l.1,0a8.32,8.32,0,0,0,4.74-10.66l-2.87-7.62a14.59,14.59,0,0,0,1.33-1.28,4.24,4.24,0,0,0,2.21.28l6.43-.92a8.34,8.34,0,0,0,1.78-.47,7.71,7.71,0,0,0,4.09-3.72,7.61,7.61,0,0,0-.23-7.19h0a7.7,7.7,0,0,0-11.44-2.34l-.86-2.49A38.76,38.76,0,0,0,441.27,447l.3-.4A7.71,7.71,0,0,0,440,436.21a7.63,7.63,0,0,0-5.67-1.61h-.07c.05-.2.09-.41.13-.61l.76-.24a5.61,5.61,0,0,0,3.34-2.83,5.73,5.73,0,0,0,.64-2.46,11.88,11.88,0,0,0-4.5-14.21Z"/><path class="cls-72" d="M436.1,438.54a4.07,4.07,0,0,0-5.73.67,27.23,27.23,0,0,1-12,9.28l-.72-2.05,4.44-1a24.79,24.79,0,0,0,7.43-14.74l2.9-.93a2.1,2.1,0,0,0,1.36-2.63l0-.09c1.08-1.12,1.34-3.52.53-6s-2.37-4.16-3.88-4.48l0-.14a2.1,2.1,0,0,0-1.64-1.42l-1.46-4h0l-1.33-3.64a2.45,2.45,0,0,0-4.68,1.39l1.09,4.79c-6.22-5.32-15.74-8-25.91-6.69a1.53,1.53,0,0,0-.62-.41L392,405.28,389.15,408a1.54,1.54,0,0,0-.4.64c-9.76,3.13-17.27,9.54-20.66,17l-1-4.81a2.45,2.45,0,0,0-4.83.73l.33,3.85h0l.36,4.23a2.09,2.09,0,0,0-.89,2l0,.14c-1.23.93-1.92,3.18-1.62,5.7s1.55,4.64,3,5.21l0,.09a2.1,2.1,0,0,0,2.34,1.82l3-.39a24.77,24.77,0,0,0,12.94,10.23l.95-.21a35.61,35.61,0,0,0-7.94,19.49l0,.26a4.08,4.08,0,0,0,8.13.68,33.08,33.08,0,0,1,1.28-6.35,11.6,11.6,0,0,0,1.15,2.63h0a11.64,11.64,0,0,0,5.77,4.86c-.23,4.08-.5,8.95-.69,12.46a4.68,4.68,0,1,0,9.34.51c.19-3.47.46-8.29.68-12.34l7.89-.25L413,488.5a4.68,4.68,0,1,0,8.76-3.3l-3.89-10.32a10.39,10.39,0,0,0,5.24-12.79l-2-5.88a35.49,35.49,0,0,0,15.75-11.94c.05-.07.11-.14.15-.21A4.07,4.07,0,0,0,436.1,438.54Z"/><path class="cls-72" d="M434.68,464.76a4.09,4.09,0,0,0-7.24.2l-2.84,5.83a.64.64,0,0,0,.66.92l6.43-.92a4,4,0,0,0,3-6Z"/><path class="cls-73" d="M436.1,438.54a4.07,4.07,0,0,0-5.73.67,27.23,27.23,0,0,1-12,9.28l-.72-2.05,4.44-1a24.79,24.79,0,0,0,7.43-14.74l2.9-.93a2.1,2.1,0,0,0,1.36-2.63l0-.09c1.08-1.12,1.34-3.52.53-6s-2.37-4.16-3.88-4.48l0-.14a2.1,2.1,0,0,0-1.64-1.42l-1.46-4h0l-1.33-3.64a2.45,2.45,0,0,0-4.68,1.39l1.09,4.79c-6.22-5.32-15.74-8-25.91-6.69a1.53,1.53,0,0,0-.62-.41L392,405.28,389.15,408a1.54,1.54,0,0,0-.4.64c-9.76,3.13-17.27,9.54-20.66,17l-1-4.81a2.45,2.45,0,0,0-4.83.73l.33,3.85h0l.36,4.23a2.09,2.09,0,0,0-.89,2l0,.14c-1.23.93-1.92,3.18-1.62,5.7s1.55,4.64,3,5.21l0,.09a2.1,2.1,0,0,0,2.34,1.82l3-.39a24.77,24.77,0,0,0,12.94,10.23l.95-.21a35.61,35.61,0,0,0-7.94,19.49l0,.26a4.08,4.08,0,0,0,8.13.68,33.08,33.08,0,0,1,1.28-6.35,11.6,11.6,0,0,0,1.15,2.63h0a11.64,11.64,0,0,0,5.77,4.86c-.23,4.08-.5,8.95-.69,12.46a4.68,4.68,0,1,0,9.34.51c.19-3.47.46-8.29.68-12.34l7.89-.25L413,488.5a4.68,4.68,0,1,0,8.76-3.3l-3.89-10.32a10.39,10.39,0,0,0,5.24-12.79l-2-5.88a35.49,35.49,0,0,0,15.75-11.94c.05-.07.11-.14.15-.21A4.07,4.07,0,0,0,436.1,438.54Z"/><path class="cls-73" d="M434.68,464.76a4.09,4.09,0,0,0-7.24.2l-2.84,5.83a.64.64,0,0,0,.66.92l6.43-.92a4,4,0,0,0,3-6Z"/><path class="cls-20" d="M420.36,494.58l-.1,0a8.31,8.31,0,0,1-10.71-4.84l-3.75-10-2,.06-.49,9a8.31,8.31,0,0,1-16.6-.91l.56-10.09A15,15,0,0,1,386,477a7.71,7.71,0,0,1-14.86-3.27c0-.18,0-.36.05-.54a38.87,38.87,0,0,1,5.7-17A27.64,27.64,0,0,1,367,448l-.8.1a5.72,5.72,0,0,1-5.84-3.11,10.71,10.71,0,0,1-3.58-7.17,10.85,10.85,0,0,1,1.67-7.62,5.61,5.61,0,0,1,.69-1.81l-.57-6.59a6.08,6.08,0,0,1,10.56-4.6,40.16,40.16,0,0,1,17.27-11.67l.24-.25,4.45-4.13L396.9,403l.32.12a40,40,0,0,1,20.58,3.3,6.08,6.08,0,0,1,11.51-.29l2.27,6.21a5.61,5.61,0,0,1,1.39,1.36,10.82,10.82,0,0,1,4.73,6.2,10.63,10.63,0,0,1-.23,8,5.71,5.71,0,0,1-4,5.29l-.75.24c0,.2-.09.41-.13.61h.06a7.65,7.65,0,0,1,5.68,1.61h0a7.72,7.72,0,0,1,1.56,10.43c-.1.15-.2.28-.3.41a38.9,38.9,0,0,1-14.07,11.64l.95,2.73a14,14,0,0,1-4.26,15.4l2.87,7.62a8.3,8.3,0,0,1-4.74,10.66ZM397,472.83l13.81-.43,5.59,14.82a1,1,0,0,0,.55.59,1,1,0,0,0,.8,0h0a1,1,0,0,0,.58-.55,1,1,0,0,0,0-.8l-5.05-13.41,3-1.45a6.78,6.78,0,0,0,3.42-8.33l-3.19-9.16,3.22-1.29A31.84,31.84,0,0,0,433.92,442a.46.46,0,0,0-.07-.64h0a.49.49,0,0,0-.33-.09.39.39,0,0,0-.3.17,31,31,0,0,1-13.5,10.39l-3.55,1.46-3.31-9.54,7.34-1.62a20.63,20.63,0,0,0,5.68-11.8l.23-2.37,3.71-1.19-.19-.59,1.37-1.53a4.41,4.41,0,0,0-.2-2.47,4.31,4.31,0,0,0-1.3-2.09l-1.95-.41-.39-1.25h0l1.14,5L420,416.34c-5.58-4.77-14.21-6.95-23.1-5.84l-1.91.24-.86-1-1.14-.37-.88.82-.38,1.26-1.82.58c-8.54,2.73-15.43,8.37-18.47,15l-4.54,10-1.09-5h0l.17,1.3-1.6,1.2A4.32,4.32,0,0,0,364,437a4.44,4.44,0,0,0,.85,2.31l1.86.72.1.72,3.89-.49,1.21,2.05a20.63,20.63,0,0,0,10.12,8.3l9.72-2.15-6.21,8c-.3.37-.58.75-.85,1.12l2.9,9.68a7.73,7.73,0,0,0,.8,1.81,8,8,0,0,0,4,3.34l2.45.95L394,488.39a1.05,1.05,0,0,0,1,1.1,1,1,0,0,0,.75-.26,1,1,0,0,0,.35-.73Zm-14.1-12.53a32,32,0,0,0-4.49,13.77.46.46,0,0,0,.4.5.45.45,0,0,0,.33-.1.41.41,0,0,0,.16-.3,37,37,0,0,1,1.43-7ZM431,424.71Zm.12-.16-.05.06ZM367,442.1v0Zm-2.1-2.77Zm-.58-4.83Z"/><path class="cls-20" d="M434,473.91a8,8,0,0,1-1.78.47l-6.42.92a4.26,4.26,0,0,1-4.44-6.1l2.84-5.83a7.71,7.71,0,0,1,13.66-.38h0A7.62,7.62,0,0,1,434,473.91Zm-6.12-1.53Zm2.47-5.06.85-.12a.47.47,0,0,0,.39-.24s.09-.17-.07-.44a.4.4,0,0,0-.4-.23.42.42,0,0,0-.4.26Z"/><path class="cls-57" d="M388.88,453a.67.67,0,0,0-.14-.09,4.13,4.13,0,0,0-1-.52,3.78,3.78,0,0,0-.86-.23,4.4,4.4,0,0,0-.81,0,3.9,3.9,0,0,0-.75.12,4.56,4.56,0,0,0-.71.24,4.4,4.4,0,0,0-.66.39,3.8,3.8,0,0,0-.61.53,2.39,2.39,0,0,0-.22.23l-.35.44-.55.71-.55.74-.54.75-.52.78-.53.8-.51.83c-.17.29-.34.58-.5.87s-.33.6-.49.9-.33.62-.48.93l-.46,1c-.15.34-.3.69-.44,1s-.29.73-.42,1.1-.28.77-.4,1.16-.26.83-.38,1.25-.23.88-.34,1.33-.22.95-.31,1.42-.2,1-.28,1.53-.17,1.1-.24,1.65c0,.28-.07.55-.1.83l0,.26a4.08,4.08,0,0,0,1.66,3.48,4,4,0,0,0,1,.53,4.29,4.29,0,0,0,.87.23l.1,0a3.29,3.29,0,0,0,.7,0,3.87,3.87,0,0,0,.76-.11,4.16,4.16,0,0,0,.7-.25,4,4,0,0,0,.67-.38,5.15,5.15,0,0,0,.61-.53,4.29,4.29,0,0,0,.55-.72,4.35,4.35,0,0,0,.43-1.09,4.19,4.19,0,0,0,.11-.51c0-.37.09-.73.14-1.1.07-.54.16-1.07.25-1.6s.19-1,.3-1.47.22-.9.34-1.35.24-.82.38-1.23.26-.76.41-1.14.28-.69.44-1,.3-.65.46-1,.31-.61.48-.92.33-.58.5-.87.34-.55.52-.83.34-.53.52-.79.35-.51.54-.77.35-.49.54-.74.36-.47.55-.71l.28-.36a3.94,3.94,0,0,0,.26-.4,4.16,4.16,0,0,0,.46-1A4.09,4.09,0,0,0,388.88,453Z"/><path class="cls-35" d="M370.66,432.27h7.82a3.91,3.91,0,0,1,3.91,3.91V445a3.91,3.91,0,0,1-3.91,3.91h-7.82a0,0,0,0,1,0,0V432.27A0,0,0,0,1,370.66,432.27Z" transform="translate(847.28 778.63) rotate(166.2)"/><path class="cls-35" d="M425.43,437.15l-5.78,1.39-4-16.13,7.6-1.87a3.92,3.92,0,0,1,4.73,2.87l.28,9A3.9,3.9,0,0,1,425.43,437.15Z"/><path class="cls-35" d="M415.63,440.71l-30.06,8.79-1.82,13.91a11.59,11.59,0,0,0,1.54,7.46h0a11.61,11.61,0,0,0,10.32,5.64l18-.57a10.42,10.42,0,0,0,9.61-7.3h0a10.34,10.34,0,0,0-.12-6.55Z"/><path class="cls-35" d="M415.63,440.71l-30.06,8.79-1.82,13.91a11.59,11.59,0,0,0,1.54,7.46h0a11.61,11.61,0,0,0,10.32,5.64l18-.57a10.42,10.42,0,0,0,9.61-7.3h0a10.34,10.34,0,0,0-.12-6.55Z"/><polygon class="cls-45" points="384.41 458.36 417.52 446.16 416.8 444.07 385.41 450.72 384.41 458.36"/><rect class="cls-35" x="374.94" y="417.93" width="48.61" height="31.28" rx="8.8" transform="translate(-91.89 107.74) rotate(-13.8)"/><path class="cls-74" d="M388.73,425.82h17.81a2.82,2.82,0,0,1,2.82,2.82v6.86a6.94,6.94,0,0,1-6.94,6.94h-9a7.51,7.51,0,0,1-7.51-7.51v-6.29a2.82,2.82,0,0,1,2.82-2.82Z" transform="translate(-92.07 107.37) rotate(-13.8)"/><circle class="cls-75" cx="413.96" cy="426.6" r="2.64"/><circle class="cls-75" cx="380.84" cy="434.73" r="2.64"/><rect class="cls-35" x="391.67" y="436.55" width="4.89" height="2.44" rx="1.22" transform="translate(-93.04 106.64) rotate(-13.8)"/><rect class="cls-35" x="399.8" y="434.43" width="5.86" height="2.44" rx="1.22" transform="translate(-92.29 108.63) rotate(-13.8)"/><path class="cls-35" d="M436.92,444.06c0,.07-.1.14-.15.21a35.89,35.89,0,0,1-17.67,12.67,4.08,4.08,0,0,1-2.74-7.69,27.73,27.73,0,0,0,14-10,4.08,4.08,0,0,1,6.55,4.85Z"/><path class="cls-35" d="M427.44,465l-2.84,5.83a.64.64,0,0,0,.66.92l6.43-.92a4.09,4.09,0,0,0,3-6h0A4.09,4.09,0,0,0,427.44,465Z"/><path class="cls-73" d="M363.15,432.36l6.19-.93-2.29-10.65a2.45,2.45,0,0,0-4.83.73Z"/><path class="cls-76" d="M367.87,424.57l1.47,6.86-6.19.93-.6-7Z"/><ellipse class="cls-77" cx="363.77" cy="437.01" rx="3.37" ry="5.78" transform="translate(-49.15 46.1) rotate(-6.79)"/><path class="cls-78" d="M364.79,428.94h4.62a1,1,0,0,1,1,1v13.42a1,1,0,0,1-1,1h-4.62a2.1,2.1,0,0,1-2.1-2.1V431A2.1,2.1,0,0,1,364.79,428.94Z" transform="translate(-52.09 49.66) rotate(-7.24)"/><path class="cls-73" d="M429.64,417.64l-6,1.77-2.41-10.61a2.45,2.45,0,0,1,4.68-1.39Z"/><path class="cls-76" d="M422.08,412.57l1.55,6.84,6-1.77-2.41-6.59Z"/><ellipse class="cls-77" cx="431.04" cy="422.12" rx="3.37" ry="5.78" transform="translate(-110.11 155.41) rotate(-18.16)"/><path class="cls-78" d="M426.61,415.26h4.62a1,1,0,0,1,1,1v13.42a1,1,0,0,1-1,1h-4.62a2.1,2.1,0,0,1-2.1-2.1V417.36A2.1,2.1,0,0,1,426.61,415.26Z" transform="translate(965.15 695.5) rotate(162.28)"/><path class="cls-64" d="M392.54,407.57c-17.29,3.82-28.92,17.66-26,30.92,1.63,7.36,7.41,13,15.19,15.88l40.31-8.92c5.83-5.91,8.71-13.45,7.08-20.81C426.2,411.38,409.82,403.74,392.54,407.57Zm23.61,34.75-33.29,7.36-10.48-8.1L377,424.14l18.79-1.66,17.45-6.35,11.94,13.77Z"/><path class="cls-76" d="M388.73,409.31l1.89,8.57,8-1.77-1.89-8.57a1.44,1.44,0,0,0-1-1.05L392,405.28,389.15,408A1.43,1.43,0,0,0,388.73,409.31Z"/><path class="cls-73" d="M398.7,416.09,393,409.52l-2.5,8.38Z"/><path class="cls-67" d="M372.53,411.37h-.22a4.66,4.66,0,0,1-4.21-2.52,3.45,3.45,0,0,1-.12-2.45c-.6-.4-1.2-.85-1.8-1.34a2,2,0,0,1-.72-1.39,1.93,1.93,0,0,1,.46-1.41,2,2,0,0,1,1.48-.7,2,2,0,0,1,1.26.44c.58.47,1.15.89,1.71,1.27a5.94,5.94,0,0,1,3.28-1,9.41,9.41,0,0,1,2.49.34c.93-3.89,2.8-6,5.57-6.26l.34,0h.12l.23,0h0l.33,0h0l.32.08h.06l.08,0a4.2,4.2,0,0,1,3,4.76,7,7,0,0,1-.94,2.94,15.06,15.06,0,0,1-4.17,4.63l0,0-.17.12-.57.37-.1.06-.64.37-.24.12c-.21.11-.42.21-.64.3a1.61,1.61,0,0,1-.21.09h0a25.42,25.42,0,0,1-2.73.81l-.11,0h-.12C375.32,411.18,373.37,411.36,372.53,411.37Z"/><path class="cls-20" d="M382.07,397.94h.15l.22,0a2.44,2.44,0,0,1,.27.06h0a2.62,2.62,0,0,1,1.9,3.1,5.47,5.47,0,0,1-.74,2.29,13.56,13.56,0,0,1-3.87,4.24h0c-.16.11-.33.23-.51.33l-.1.07-.55.31-.21.11-.56.26-.18.08h0a22.1,22.1,0,0,1-2.49.73s-2.09.19-2.88.2h-.16c-2.23-.08-4-1.93-2.28-3.93a23.65,23.65,0,0,1-2.9-2,.38.38,0,0,1-.05-.54.37.37,0,0,1,.29-.14.38.38,0,0,1,.24.09,22.68,22.68,0,0,0,2.87,2,3.94,3.94,0,0,1,3.14-1.34,8,8,0,0,1,2.51.42,2.88,2.88,0,0,0,.95.16,1,1,0,0,0,.25,0c.08-.4.16-.79.19-1,.35-1.65,1.26-5.27,4.36-5.53h.14m0-3.17-.43,0c-2.24.21-5.06,1.47-6.59,6a10.86,10.86,0,0,0-1.37-.09,7.75,7.75,0,0,0-3.17.68q-.41-.3-.81-.63a3.55,3.55,0,0,0-2.27-.79,3.56,3.56,0,0,0-3.51,3.8,3.55,3.55,0,0,0,1.3,2.51c.35.29.71.56,1.06.83a5,5,0,0,0,.41,2.37,6.27,6.27,0,0,0,5.6,3.47h.3c.88,0,2.77-.17,3.14-.2l.23,0,.22-.05a24.47,24.47,0,0,0,3-.89h0l.17-.08.06,0,.72-.34.27-.14.68-.39.15-.09.64-.42.37-.26,0,0a16.63,16.63,0,0,0,4.42-5,8.64,8.64,0,0,0,1.15-3.61,5.74,5.74,0,0,0-4-6.36l-.11,0-.22-.06-.4-.09H383l-.45-.06-.32,0H382Z"/><path class="cls-67" d="M375.4,409.58a10.94,10.94,0,0,1-1.22.16,17.61,17.61,0,0,1-1.82,0c-2.3-.08-4.09-2-2.13-4.11,0,0,1.32-2.82,5.95-1.36a2.18,2.18,0,0,0,2.32-.4L377,408.46Z"/><path class="cls-68" d="M377.51,407.39c-.72.28-4.32,1.3-10.33-3.57a.38.38,0,0,1-.05-.54.37.37,0,0,1,.53,0c6.17,5,9.6,3.44,9.64,3.43a.37.37,0,0,1,.51.17.39.39,0,0,1-.17.51Z"/><path class="cls-69" d="M374.18,409.74c-.14,0,2.18-.15,3-4.4.12-.58.3-1.54.36-1.86.35-1.66,1.28-5.36,4.46-5.54a2.66,2.66,0,0,1,2.59,3.21,5.47,5.47,0,0,1-.74,2.29A12.32,12.32,0,0,1,374.18,409.74Z"/><path class="cls-67" d="M377.88,408.86a12.28,12.28,0,0,0,4.16-7.95,11.31,11.31,0,0,0-.11-3h.1a2.82,2.82,0,0,1,.69.11,11.63,11.63,0,0,1,.08,2.9,12.52,12.52,0,0,1-2.8,6.74A11.28,11.28,0,0,1,377.88,408.86Z"/></g><g class="cls-79"><path class="cls-42" d="M681.56,386.61,675.09,384c0-.1,0-.21,0-.32a3.68,3.68,0,0,0,1.34-.49l4.84-3.1A6.73,6.73,0,1,0,671,373.29l-1.82-1.91,0-.74A37,37,0,0,0,671.41,359a6.69,6.69,0,0,0-.73-3.33,13.73,13.73,0,0,0-2-11.6,14.77,14.77,0,0,0-3.07-3.33,22.57,22.57,0,0,0-4.74-4.44l-.57-2.44a5.09,5.09,0,0,0-5.77-3.86,5,5,0,0,0-3.35,2.13,32.07,32.07,0,0,0-16.6,1,5.19,5.19,0,0,0,.42-4.87,4.21,4.21,0,0,0-1.31-1.61c0-.37.06-.75.07-1.14a3,3,0,0,0-3-3.15,3.33,3.33,0,0,0-.93.14h0a3.07,3.07,0,0,0-2.14,2.81c0,.29,0,.59,0,.87a7.13,7.13,0,0,0-2.92,2.6,7.81,7.81,0,0,0-5.27-.48h0a5.75,5.75,0,0,0-2.27,1.33,2.71,2.71,0,0,0-.41.44h0l-.15.2h0l0,0h0l-.2.32v0s-.1.17-.17.31l-.09.17,0,.09a4.92,4.92,0,0,0,1.87,6.15,7.21,7.21,0,0,0,2,1l-.79.8c-2.5,2.54-4.67,4.73-6,7.34l-.43.84.35,3.12a22.51,22.51,0,0,0-2.88,8.53l-.29,3.52,3-.14a6.36,6.36,0,0,0-.33,6.35l1.73,3.39a11.09,11.09,0,0,0,2.11,2.89,6.83,6.83,0,0,0-2.21,2.35,6.73,6.73,0,0,0,2.55,9.16A34.79,34.79,0,0,0,635,391.51l.34,1.09A13.37,13.37,0,0,0,646.54,402l3.28,8.4a7.2,7.2,0,0,0,3.84,4,7.26,7.26,0,0,0,9.67-9.28l-3-7.56,4.14-2.05,12.28,5a7.46,7.46,0,0,0,6.09-.11,6.74,6.74,0,0,0,3.58-4.21A8.1,8.1,0,0,0,681.56,386.61Z"/><path class="cls-72" d="M615.78,382.61a31.81,31.81,0,0,0,18.75,4.47l.23,0h0l1,3.37a10.3,10.3,0,0,0,4,5.45h0a10.27,10.27,0,0,0,6.43,1.8c1.31,3.38,2.89,7.41,4,10.31a4.15,4.15,0,0,0,7.73-3l-4-10.21,7.95-3.92,13.58,5.53a4,4,0,0,0,5.51-2.32,5,5,0,0,0-3.1-5.83L669,384.58a9.22,9.22,0,0,0,.53-4.41h0a9.25,9.25,0,0,0-2.49-5.25l-4.18-4.37a32.28,32.28,0,0,0,3-12.95,3.63,3.63,0,0,0-1.13-2.77,10.38,10.38,0,0,0-1.07-10.29,11.87,11.87,0,0,0-2.7-2.85,19.7,19.7,0,0,0-5.28-4.74l-.85-3.65a2,2,0,0,0-3.88.64l.08.8c-6.42-2.24-14.64-2.1-23.36,2.35a35.32,35.32,0,0,0-6.87,4.55l-1.41-2c-2.57,2.6-4.76,4.74-6,7.08h0l.36,3.19a20.61,20.61,0,0,0-3,8.13l2.83-.14a7.94,7.94,0,0,0,.88,3.71h0l-.2.1a3.27,3.27,0,0,0-1.43,4.39l1.73,3.39a8.15,8.15,0,0,0,6.14,4.36l.61,1.21a8.12,8.12,0,0,0,4.06,3.79l-.12.06a28.81,28.81,0,0,1-5.92-2.62,3.62,3.62,0,0,0-3.56,6.3Zm15.79-2.72.86-.44,0,.13h0l.1.32Z"/><path class="cls-20" d="M654.5,413.72a7.08,7.08,0,0,1-3.32-.6,7.18,7.18,0,0,1-3.84-4l-3.28-8.41a13.38,13.38,0,0,1-11.24-9.37l-.33-1.1a34.61,34.61,0,0,1-18.24-4.93h0a6.72,6.72,0,0,1-.33-11.5,11.23,11.23,0,0,1-2.12-2.89l-1.73-3.39a6.4,6.4,0,0,1,.33-6.36l-3,.15.28-3.52a22.81,22.81,0,0,1,2.88-8.53l-.35-3.13.43-.83c1.35-2.61,3.52-4.81,6-7.34l3.08-3.13,1.69,2.37a38.66,38.66,0,0,1,4.8-2.89c7.47-3.81,15.32-5,22.47-3.45a5,5,0,0,1,3.35-2.13,5.1,5.1,0,0,1,5.78,3.86l.56,2.44a22.61,22.61,0,0,1,4.75,4.44,14.45,14.45,0,0,1,3.06,3.32,13.73,13.73,0,0,1,2,11.6,6.73,6.73,0,0,1,.73,3.34,36.55,36.55,0,0,1-2.41,12.15l2.75,2.89a12.27,12.27,0,0,1,3.35,9.93l6.46,2.63a8.12,8.12,0,0,1,4.91,9.59,6.75,6.75,0,0,1-3.57,4.21,7.56,7.56,0,0,1-6.1.11l-12.28-5-4.14,2,3,7.56a7.25,7.25,0,0,1-4.12,9.39A7,7,0,0,1,654.5,413.72Zm-6.22-19.27,4.84,12.41a1,1,0,0,0,1.35.59,1.05,1.05,0,0,0,.6-1.35l-5-12.87,11.75-5.8,14.87,6.07a1.33,1.33,0,0,0,1.05,0,.53.53,0,0,0,.31-.37,2,2,0,0,0-1.29-2.08L665,386.31l1.07-2.83a6.09,6.09,0,0,0-1.3-6.41l-5.65-5.93.91-1.93a29.27,29.27,0,0,0,2.68-11.74.49.49,0,0,0-.16-.39l-1.67-1.58,1-2.06a7.3,7.3,0,0,0-.87-7.17,8.76,8.76,0,0,0-2-2.09l-.35-.26-.26-.35a16.73,16.73,0,0,0-4.46-4l-1.09-.68,0-.23-2.88-1c-6.37-2.22-13.8-1.45-20.93,2.18a32.83,32.83,0,0,0-6.27,4.16l-2.58,2.19L619,344.49a22,22,0,0,0-2.39,2.91l.36,3.21-.53.89a25.51,25.51,0,0,0-1.61,3.24l1.9-.09,0,3.28a4.94,4.94,0,0,0,.54,2.28l1.41,2.77-3,1.51a.17.17,0,0,0-.07.22l1.73,3.39a5.06,5.06,0,0,0,3.81,2.7l1.59.23,1.35,2.64A5,5,0,0,0,626.6,376l3.13,1.34,4.6-2.35,2.43,8-4.16,0h-1.09l-7.54-.15A29.26,29.26,0,0,0,634.39,384l2.54-.27,1.83,5.81a7.17,7.17,0,0,0,7.27,5.06h0ZM617.53,379l-.11,0a.52.52,0,0,0-.35.63.44.44,0,0,0,.24.3h0a38.3,38.3,0,0,0,3.74,1.87l1.2-.61a35,35,0,0,1-4.44-2.14A.53.53,0,0,0,617.53,379Z"/><path class="cls-35" d="M655.6,410.34a4.15,4.15,0,0,1-5.37-2.35c-1.43-3.67-3.58-9.16-5-12.82a4.14,4.14,0,0,1,2.36-5.37h0a4.15,4.15,0,0,1,5.36,2.37c1.42,3.66,3.57,9.14,5,12.81a4.14,4.14,0,0,1-2.36,5.37Z"/><path class="cls-35" d="M675.5,396.37l-14.15-5.77a5.24,5.24,0,0,1-3.36-5.34c.39-2.62,3.07-3.92,5.63-2.87l14.29,5.83a5,5,0,0,1,3.1,5.83h0A4,4,0,0,1,675.5,396.37Z"/><path class="cls-35" d="M675.5,396.37l-14.15-5.77a5.24,5.24,0,0,1-3.36-5.34c.39-2.62,3.07-3.92,5.63-2.87l14.29,5.83a5,5,0,0,1,3.1,5.83h0A4,4,0,0,1,675.5,396.37Z"/><path class="cls-45" d="M634.76,387.06l-.23,0a31.81,31.81,0,0,1-18.75-4.47,3.62,3.62,0,0,1,3.56-6.3,24.53,24.53,0,0,0,14.86,3.54,3.62,3.62,0,0,1,.56,7.21Z"/><path class="cls-35" d="M653.18,360.41l-21,18.13,3.64,11.89a10.3,10.3,0,0,0,4,5.45h0a10.28,10.28,0,0,0,10.39.76l14.28-7.06a9.22,9.22,0,0,0,5.07-9.41h0a9.25,9.25,0,0,0-2.49-5.25Z"/><path class="cls-35" d="M653.18,360.41l-21,18.13,3.64,11.89a10.3,10.3,0,0,0,4,5.45h0a10.28,10.28,0,0,0,10.39.76l14.28-7.06a9.22,9.22,0,0,0,5.07-9.41h0a9.25,9.25,0,0,0-2.49-5.25Z"/><polygon class="cls-45" points="661.87 369.59 656.71 364.11 655.36 362.69 632.47 379.58 661.87 369.59"/><path class="cls-80" d="M659.45,364.82,637,376.24a8.19,8.19,0,0,1-11-3.56l-6.85-13.46a8.19,8.19,0,0,1,3.57-11l22.42-11.42a8.19,8.19,0,0,1,11,3.57L663,353.84A8.19,8.19,0,0,1,659.45,364.82Z"/><path class="cls-81" d="M654.72,367.22,632.3,378.65a8.19,8.19,0,0,1-11-3.57l-6.85-13.46a8.18,8.18,0,0,1,3.56-11l22.43-11.43a8.18,8.18,0,0,1,11,3.57l6.86,13.46A8.17,8.17,0,0,1,654.72,367.22Z"/><path class="cls-82" d="M660,353.3,654.63,356,648,342.93l5.35-2.72a5.44,5.44,0,0,1,7.32,2.37l1.72,3.4A5.44,5.44,0,0,1,660,353.3Z"/><path class="cls-80" d="M653.15,353.11l-3.7-7.27a.54.54,0,0,1,.24-.73l4.86-2.48a2.72,2.72,0,0,1,3.66,1.19l1.73,3.39a2.72,2.72,0,0,1-1.19,3.66l-4.87,2.48A.54.54,0,0,1,653.15,353.11Z"/><path class="cls-55" d="M640,359.07a2.69,2.69,0,1,1,1.17-3.62A2.69,2.69,0,0,1,640,359.07Z"/><path class="cls-83" d="M629.91,370.86l-4.37,2.22a8.18,8.18,0,0,1-11-3.57l-1.73-3.39a3.27,3.27,0,0,1,1.43-4.39l13.09-6.67a3.27,3.27,0,0,1,4.39,1.43l1.72,3.39A8.18,8.18,0,0,1,629.91,370.86Z"/><path class="cls-82" d="M624.56,368.19a1.36,1.36,0,0,0,1.83.6l1.21-.62.73-.37,1.21-.62a1.36,1.36,0,1,0-1.23-2.42l-1.21.62-.73.37-1.21.62A1.35,1.35,0,0,0,624.56,368.19Zm-5.7,2.91a1.38,1.38,0,0,0,1.84.59l.72-.37-.24.12.73-.37a1.36,1.36,0,1,0-1.24-2.42l-.73.37.25-.12-.73.37A1.37,1.37,0,0,0,618.86,371.1Z"/><path class="cls-64" d="M627.64,337.09c16-8.14,30.29-1.87,34.84,7.07s-5.53,15-11.19,10l-12.15-11-21.31,14.58-7.07.34C611.13,353.47,615.79,343.12,627.64,337.09Z"/><path class="cls-64" d="M653.79,354.83l-10.58,14.95L623.3,380.14l5.49,1.95,36-19.1-.47-8.06Z"/><path class="cls-73" d="M651.8,342.67l5-.83-2-8.54a2,2,0,0,0-3.88.64Z"/><path class="cls-76" d="M655.5,336.34l1.28,5.5-5,.83-.57-5.63Z"/><path class="cls-84" d="M649.53,354.05c3.12,4.62,8.81,6.24,12.7,3.61s4.52-8.5,1.4-13.12-8.81-6.24-12.7-3.62S646.41,349.43,649.53,354.05Z"/><path class="cls-85" d="M652.52,352.19c2.21,3.28,6.25,4.43,9,2.57s3.21-6.05,1-9.33-6.25-4.43-9-2.57S650.3,348.91,652.52,352.19Z"/><path class="cls-73" d="M654.12,351.14c1.59,2.35,4.49,3.17,6.47,1.83s2.3-4.32.71-6.67-4.48-3.18-6.46-1.84S652.54,348.78,654.12,351.14Z"/><path class="cls-76" d="M659.74,350.57l.39-.45a.31.31,0,0,0,0-.42l-3.84-3.31a.3.3,0,0,0-.42,0l-.39.45a.29.29,0,0,0,0,.42l3.84,3.31A.29.29,0,0,0,659.74,350.57Z"/><path class="cls-76" d="M619.36,339.65l1.71,2.41a31.81,31.81,0,0,0-2.56,8.9l-5.12-4.23C614.6,344.39,616.79,342.25,619.36,339.65Z"/><path class="cls-73" d="M618.51,351l-5.12-4.23.72,6.47Z"/><path class="cls-86" d="M665.81,357.33a4.07,4.07,0,0,0-.06-.6,4.41,4.41,0,0,0-.15-.55,3.85,3.85,0,0,0-.24-.5,4.5,4.5,0,0,0-.31-.45c-.12-.14-.24-.28-.37-.41a5.07,5.07,0,0,0-.45-.36,3.55,3.55,0,0,0-.54-.3,3.78,3.78,0,0,0-.67-.23,4.62,4.62,0,0,0-.65-.09h-.24a3.63,3.63,0,0,0-3.15,2,3.7,3.7,0,0,0-.29.83,4,4,0,0,0-.09.62v.08c0,.23,0,.45,0,.67s0,.45,0,.68,0,.45-.06.68-.05.47-.07.69l-.09.71-.12.72c0,.25-.09.49-.14.73s-.1.5-.16.75-.12.51-.19.76-.15.54-.23.79l-.27.82c-.11.29-.21.57-.33.85s-.24.6-.37.89-.3.62-.46.93-.34.66-.53,1-.39.69-.6,1-.46.73-.7,1.09l-.43.64a3,3,0,0,0-.24.43,3.28,3.28,0,0,0-.31.84,3.61,3.61,0,0,0,6.37,3l.14-.19a32.5,32.5,0,0,0,4.88-10c.07-.26.14-.52.2-.78s.13-.5.19-.76l.15-.74c.05-.24.09-.49.14-.73l.12-.72.09-.71c0-.24.07-.47.1-.71l.06-.68c0-.23.05-.46.07-.69s0-.45,0-.68l0-.67,0-.38C665.83,357.51,665.81,357.42,665.81,357.33Z"/><path class="cls-75" d="M634.07,369.15l4-2.63a.55.55,0,0,1,.83.27c.6,1.63,1.54,5.63-4.7,3.36A.56.56,0,0,1,634.07,369.15Z"/><path class="cls-72" d="M635.61,370.59c3.78,1,3.94-1.16,3.57-2.79C636.74,368.26,635.9,369.64,635.61,370.59Z"/><path class="cls-67" d="M624.87,335.76c.21-.06.4-.13.59-.2l.22-.09.56-.24.17-.09h0a19.6,19.6,0,0,0,2.06-1.31l.08-.05.07-.07c.26-.25,1.57-1.51,1.94-2a4,4,0,0,0,.73-4.13,3,3,0,0,0-1.51-1.46c.07-.61.12-1.25.14-1.91a1.68,1.68,0,0,0-.49-1.25,1.7,1.7,0,0,0-1.18-.49,1.79,1.79,0,0,0-.51.07,1.72,1.72,0,0,0-1.19,1.56c0,.63-.07,1.24-.14,1.81l-.16.05a5.91,5.91,0,0,0-3.47,3.33c-1.09-.58-3.33-1.6-5.42-.95a4.44,4.44,0,0,0-1.75,1,1.44,1.44,0,0,0-.27.28l0,0-.1.13h0l-.15.24,0,.06-.11.19,0,.06,0,.06a3.59,3.59,0,0,0,1.38,4.6,6.1,6.1,0,0,0,2.43,1.05A13.23,13.23,0,0,0,624,336h0l.16,0,.57-.16Z"/><path class="cls-20" d="M628.14,323.86h.11a.31.31,0,0,1,.31.33,19.4,19.4,0,0,1-.31,3c2.24,0,2.46,2.19,1.26,3.68-.34.42-1.83,1.85-1.83,1.85a21.07,21.07,0,0,1-1.87,1.2l-.15.07-.49.21-.19.08-.51.18-.1,0h0l-.5.14h0a11.47,11.47,0,0,1-4.92.12,4.58,4.58,0,0,1-1.88-.81,2.22,2.22,0,0,1-.94-3h0l.11-.21.1-.16.08-.1.09-.09h0a3,3,0,0,1,1.26-.76c1.74-.54,3.75.49,4.75,1l.74.42a2.31,2.31,0,0,0,.58-.86,4.83,4.83,0,0,1,2.83-3,2.89,2.89,0,0,1,.93-.13,18.63,18.63,0,0,0,.32-3,.33.33,0,0,1,.23-.3m-.8-2.59a3,3,0,0,0-2.14,2.8c0,.3,0,.59-.05.88a6.9,6.9,0,0,0-2.92,2.59,7.84,7.84,0,0,0-5.28-.47h0a5.85,5.85,0,0,0-2.27,1.32,3.2,3.2,0,0,0-.41.44h0l-.15.2v0h0l-.21.31v.05l-.17.31-.09.17,0,.09a4.92,4.92,0,0,0,1.87,6.15,7.37,7.37,0,0,0,3,1.28,14.12,14.12,0,0,0,5.69-.06h0l.38-.1.64-.18.14,0,.63-.22.24-.1c.21-.08.42-.18.62-.27l.05,0,.15-.07h0a20.38,20.38,0,0,0,2.25-1.42l.16-.11.14-.14c.6-.58,1.67-1.62,2.06-2.1a5.36,5.36,0,0,0,.9-5.57,4.24,4.24,0,0,0-1.3-1.6c0-.38,0-.76.06-1.15a3.06,3.06,0,0,0-.89-2.25,3,3,0,0,0-2.12-.89,2.91,2.91,0,0,0-.93.14Z"/><path class="cls-67" d="M627.68,332.73s.32-.26.78-.7a13.59,13.59,0,0,0,1-1.15c1.24-1.54,1-3.79-1.46-3.69,0,0-2.57-.72-4.22,3.08a1.87,1.87,0,0,1-1.56,1.28l3.8,1.57Z"/><path class="cls-68" d="M624.86,332.94a.33.33,0,0,1-.32-.2.33.33,0,0,1,.18-.43s3-1.36,3.19-8.15a.34.34,0,0,1,.34-.31.32.32,0,0,1,.31.33c-.24,7.27-3.45,8.68-3.59,8.73A.2.2,0,0,1,624.86,332.94Z"/><path class="cls-69" d="M628.46,332c.09-.09-1.31,1.32-4.54-.51l-1.41-.81c-1.27-.71-4.17-2.19-6.08-.23a2.27,2.27,0,0,0,.63,3.47,4.58,4.58,0,0,0,1.88.81A10.54,10.54,0,0,0,628.46,332Z"/><path class="cls-67" d="M625.81,333.92a10.48,10.48,0,0,1-7.46-1.77,9.4,9.4,0,0,1-1.86-1.73l-.06.06a2.52,2.52,0,0,0-.31.51,10.57,10.57,0,0,0,1.82,1.68,10.85,10.85,0,0,0,5.93,2A9.18,9.18,0,0,0,625.81,333.92Z"/></g></g></svg>