<svg width="640" height="464" viewBox="0 0 640 464" fill="none" xmlns="http://www.w3.org/2000/svg">
<g clip-path="url(#clip0)">
<path d="M640 0.339996H0.379883V464H640V0.339996Z" fill="url(#paint0_linear)"/>
<path opacity="0.7" d="M310.976 101.196L313.225 106.192C313.225 106.219 313.235 106.244 313.254 106.263C313.273 106.282 313.298 106.292 313.325 106.292C313.351 106.292 313.377 106.282 313.396 106.263C313.414 106.244 313.425 106.219 313.425 106.192L315.673 101.196C315.678 101.182 315.686 101.169 315.696 101.158C315.706 101.148 315.719 101.14 315.733 101.136L320.73 98.8975C320.749 98.8872 320.765 98.872 320.776 98.8535C320.787 98.8351 320.792 98.814 320.792 98.7926C320.792 98.7712 320.787 98.7502 320.776 98.7317C320.765 98.7133 320.749 98.6981 320.73 98.6877L315.733 96.4393C315.721 96.4355 315.709 96.429 315.698 96.4205C315.688 96.4119 315.68 96.4013 315.673 96.3894L313.425 91.393C313.416 91.3739 313.402 91.3577 313.384 91.3463C313.367 91.335 313.346 91.3289 313.325 91.3289C313.304 91.3289 313.283 91.335 313.266 91.3463C313.248 91.3577 313.234 91.3739 313.225 91.393L310.976 96.3894C310.97 96.4013 310.962 96.4119 310.951 96.4205C310.941 96.429 310.929 96.4355 310.916 96.4393L305.919 98.6877C305.901 98.6981 305.885 98.7133 305.874 98.7317C305.863 98.7502 305.857 98.7712 305.857 98.7926C305.857 98.814 305.863 98.8351 305.874 98.8535C305.885 98.872 305.901 98.8872 305.919 98.8975L310.916 101.136C310.93 101.14 310.943 101.148 310.954 101.158C310.964 101.169 310.972 101.182 310.976 101.196V101.196Z" fill="white"/>
<path opacity="0.49" d="M503.862 282.363L505.181 285.361C505.188 285.371 505.198 285.38 505.209 285.385C505.221 285.391 505.233 285.394 505.246 285.394C505.259 285.394 505.271 285.391 505.282 285.385C505.294 285.38 505.303 285.371 505.311 285.361L506.63 282.363L509.628 281.044C509.639 281.038 509.647 281.029 509.653 281.019C509.659 281.008 509.662 280.996 509.662 280.984C509.662 280.972 509.659 280.96 509.653 280.95C509.647 280.939 509.639 280.93 509.628 280.924L506.63 279.595L505.311 276.597C505.303 276.587 505.294 276.579 505.282 276.573C505.271 276.567 505.259 276.564 505.246 276.564C505.233 276.564 505.221 276.567 505.209 276.573C505.198 276.579 505.188 276.587 505.181 276.597L503.862 279.595L500.864 280.924C500.853 280.93 500.845 280.939 500.839 280.95C500.833 280.96 500.83 280.972 500.83 280.984C500.83 280.996 500.833 281.008 500.839 281.019C500.845 281.029 500.853 281.038 500.864 281.044L503.862 282.363Z" fill="white"/>
<path opacity="0.27" d="M519.972 303.248L520.681 304.837H520.741L521.451 303.248L523.04 302.538V302.478L521.451 301.769L520.741 300.18H520.681L519.972 301.769L518.383 302.478V302.538L519.972 303.248C519.972 303.238 519.972 303.248 519.972 303.248Z" fill="white"/>
<path opacity="0.47" d="M366.183 361.095L367.313 363.654C367.319 363.662 367.328 363.669 367.337 363.673C367.347 363.678 367.357 363.68 367.368 363.68C367.378 363.68 367.389 363.678 367.398 363.673C367.408 363.669 367.416 363.662 367.423 363.654L368.552 361.095L371.1 359.966C371.111 359.962 371.12 359.954 371.127 359.944C371.133 359.934 371.136 359.923 371.136 359.911C371.136 359.9 371.133 359.888 371.127 359.878C371.12 359.869 371.111 359.861 371.1 359.856L368.582 358.737L367.453 356.189C367.448 356.178 367.44 356.169 367.431 356.163C367.421 356.156 367.409 356.153 367.398 356.153C367.386 356.153 367.375 356.156 367.365 356.163C367.355 356.169 367.347 356.178 367.343 356.189L366.213 358.737L363.665 359.866C363.654 359.871 363.645 359.879 363.639 359.888C363.632 359.898 363.629 359.91 363.629 359.921C363.629 359.933 363.632 359.944 363.639 359.954C363.645 359.964 363.654 359.972 363.665 359.976L366.213 361.105L366.183 361.095Z" fill="white"/>
<path opacity="0.33" d="M323.909 91.5829L324.368 92.5822H324.418L324.878 91.5829L325.878 91.1232L324.878 90.6636L324.418 89.6143H324.368L323.909 90.6636L322.859 91.1232L323.909 91.5829C323.909 91.5729 323.909 91.5829 323.909 91.5829Z" fill="white"/>
<path opacity="0.33" d="M328.866 350.403L328.256 351.982L329.835 351.383L331.414 351.982C331.414 351.982 331.464 351.982 331.414 351.982L330.815 350.403L331.414 348.824L329.835 349.434L328.256 348.824C328.256 348.824 328.206 348.824 328.256 348.824L328.866 350.403Z" fill="white"/>
<path opacity="0.21" d="M588.211 37.1328L587.602 38.7116L589.181 38.1121L590.76 38.7116C590.76 38.7116 590.81 38.7116 590.76 38.7116L590.16 37.1328L590.76 35.554L589.181 36.1635L587.602 35.554C587.602 35.554 587.552 35.554 587.602 35.554L588.211 37.1328Z" fill="white"/>
<path opacity="0.33" d="M629.477 29.4085L627.928 30.088C627.928 30.088 627.928 30.1479 627.928 30.1579L629.477 30.8474L630.157 32.3963C630.157 32.3963 630.217 32.3963 630.227 32.3963L630.916 30.8474L632.466 30.1579C632.466 30.1579 632.466 30.1079 632.466 30.088L630.916 29.4085L630.227 27.8596C630.227 27.8596 630.177 27.8596 630.157 27.8596L629.477 29.4085Z" fill="white"/>
<path opacity="0.33" d="M410.627 316.178L411.307 314.629C411.307 314.629 411.367 314.629 411.377 314.629L412.066 316.178L413.615 316.858C413.615 316.858 413.615 316.918 413.615 316.928L412.066 317.617L411.377 319.166C411.377 319.166 411.377 319.166 411.307 319.166L410.627 317.617L409.078 316.928C409.078 316.928 409.078 316.878 409.078 316.858L410.627 316.178Z" fill="white"/>
<path opacity="0.27" d="M586.712 280.954L585.963 282.903L586.023 282.953L587.972 282.213L589.91 282.953L589.97 282.903L589.221 280.954L589.97 279.006C589.97 279.006 589.97 278.946 589.91 278.956L587.972 279.705L586.023 278.956C586.023 278.956 585.953 278.956 585.963 279.006L586.712 280.954Z" fill="white"/>
<path opacity="0.6" d="M595.807 234.588L592.809 235.917C592.798 235.923 592.79 235.932 592.784 235.943C592.778 235.953 592.775 235.965 592.775 235.977C592.775 235.989 592.778 236.001 592.784 236.012C592.79 236.022 592.798 236.031 592.809 236.037L595.807 237.356L597.126 240.354C597.134 240.364 597.143 240.373 597.155 240.378C597.166 240.384 597.179 240.387 597.191 240.387C597.204 240.387 597.216 240.384 597.228 240.378C597.239 240.373 597.249 240.364 597.256 240.354L598.575 237.356L601.574 236.037C601.584 236.031 601.593 236.022 601.598 236.012C601.604 236.001 601.608 235.989 601.608 235.977C601.608 235.965 601.604 235.953 601.598 235.943C601.593 235.932 601.584 235.923 601.574 235.917L598.575 234.588L597.256 231.59C597.249 231.58 597.239 231.572 597.228 231.566C597.216 231.56 597.204 231.557 597.191 231.557C597.179 231.557 597.166 231.56 597.155 231.566C597.143 231.572 597.134 231.58 597.126 231.59L595.807 234.588Z" fill="white"/>
<path d="M449.604 126.447L448.275 127.247H515.585C515.585 127.247 507.939 112.408 498.005 122.58C498.005 122.58 484.014 102.745 470.881 120.072L449.604 126.447Z" fill="#7D9DF5"/>
<path d="M536.223 75.2848C536.223 75.2848 539.221 70.2885 541.22 72.287C541.22 72.287 544.218 66.2914 546.217 71.2878L545.217 75.2848H536.223Z" fill="#4E7D8C"/>
<path d="M595.188 75.2848C595.188 75.2848 593.559 72.0172 591.919 73.656C591.919 73.656 588.651 67.9302 587.012 72.0172L586.193 74.4654L595.188 75.2848Z" fill="#4E7D8C"/>
<path d="M558.739 65.9417L560.568 63.5135L563.206 63.2936L565.205 57.298L571.202 54.3002L575.769 58.0375H579.417L581.845 64.7226L578.467 75.1249H557.85L558.739 65.9417Z" fill="#2F52B3"/>
<path d="M566.035 67.7704C566.035 67.7704 565.435 62.2944 563.606 61.0753L560.608 62.2944C560.631 61.5984 560.881 60.9291 561.319 60.388C561.757 59.847 562.36 59.4637 563.036 59.2966C563.036 59.2966 558.779 56.8583 556.96 58.0775C556.96 58.0775 558.779 54.4301 563.646 55.6492C563.646 55.6492 564.865 52.6514 567.294 52.6514C567.294 52.6514 566.075 55.6492 566.684 57.5179C566.684 57.5179 569.682 55.6992 572.161 57.5179L567.824 59.2566C568.207 59.2772 568.578 59.4002 568.898 59.6128C569.218 59.8255 569.475 60.12 569.642 60.4657H566.644C566.644 60.4657 568.643 67.3107 568.533 69.0594L567.824 70.8081L565.995 69.589L566.035 67.7704Z" fill="#233D85"/>
<path d="M578.197 60.2259C578.197 60.2259 578.417 55.0497 579.946 55.4294C580.69 55.6776 581.418 55.9713 582.125 56.3087C582.114 55.8027 581.937 55.3144 581.621 54.919C581.305 54.5235 580.867 54.2429 580.376 54.1203L584.284 54.3901C584.284 54.3901 582.905 52.3017 579.417 53.171C579.417 53.171 578.118 51.3524 576.419 51.3524C576.419 51.3524 577.638 51.9519 577.808 52.8213C577.808 52.8213 575.199 52.5615 573.98 54.3901L576.978 54.1203C576.509 54.5462 576.117 55.0499 575.819 55.6093L577.818 54.9997C577.818 54.9997 576.409 59.8961 576.459 61.1552L576.948 62.4043L578.247 61.5349L578.197 60.2259Z" fill="#233D85"/>
<path d="M594.618 61.6848L596.317 60.8354C596.539 60.7266 596.727 60.5574 596.857 60.3471C596.988 60.1368 597.057 59.8939 597.056 59.6463V56.8184L599.485 54.9597L598.975 50.9627C598.947 50.7345 598.991 50.5033 599.1 50.301C599.209 50.0987 599.379 49.9353 599.585 49.8335L600.154 49.5437C600.921 49.1643 601.745 48.9144 602.593 48.8042L606.181 50.3531L610.178 48.3546C610.178 48.3546 616.175 49.3538 612.177 55.3494C611.947 55.6992 606.381 55.969 604.542 55.7891C604.12 55.7504 603.696 55.831 603.318 56.0219C602.939 56.2127 602.622 56.506 602.403 56.8683L601.314 58.697L598.975 59.1567C598.764 59.2022 598.57 59.3059 598.414 59.456C598.259 59.6061 598.148 59.7966 598.096 60.006L597.666 61.7348L594.618 62.3443V61.6848Z" fill="#7D9DF5"/>
<path d="M595.637 61.6748C595.436 61.347 595.122 61.1036 594.754 60.9896C594.387 60.8757 593.99 60.899 593.638 61.0553L588.361 63.2537C588.374 62.9528 588.324 62.6526 588.216 62.3714C588.108 62.0903 587.944 61.8343 587.733 61.619C587.523 61.4038 587.27 61.2338 586.992 61.1197C586.713 61.0056 586.414 60.9496 586.113 60.9553C586.672 51.3524 581.586 59.8262 581.586 59.8262C578.757 59.2566 577.588 60.9553 577.588 60.9553C566.854 57.5678 570.242 69.9987 570.242 69.9987L571.372 75.6546H584.944C587.252 74.9951 588.212 72.7967 588.611 71.0779C588.968 69.6009 589.641 68.2192 590.585 67.0285C591.529 65.8379 592.721 64.8669 594.078 64.183C594.378 64.0231 594.668 63.8932 594.918 63.7733C595.107 63.6881 595.278 63.5649 595.418 63.4113C595.558 63.2576 595.665 63.0769 595.733 62.8801C595.8 62.6834 595.826 62.4749 595.81 62.2676C595.794 62.0602 595.735 61.8585 595.637 61.6748ZM573.111 67.2108C571.412 60.9953 576.499 62.6941 576.499 62.6941C574.821 63.6981 573.605 65.3198 573.111 67.2108V67.2108Z" fill="#8A91FA"/>
<path d="M542.589 75.6945C542.589 75.6945 552.193 51.3924 560.678 67.2108C560.678 67.2108 565.195 63.8232 567.454 68.9095C567.454 68.9095 571.981 67.7803 573.111 76.2541L542.589 75.6945Z" fill="#707AFA"/>
<path d="M556.83 67.2108C554.691 67.2108 547.126 66.7711 541.459 62.1245C535.233 57.0382 550.244 63.6833 550.244 63.6833C550.244 63.6833 555.591 57.0382 560.678 67.2108H556.83Z" fill="#B79BDB"/>
<path d="M549.455 75.125C549.455 75.125 552.763 64.3928 553.682 75.125H549.455Z" fill="#5763FA"/>
<path d="M555.671 75.125C555.671 75.125 557.28 68.9095 558.979 75.125H555.671Z" fill="#5763FA"/>
<path d="M564.066 71.7374C564.69 71.7374 565.195 71.2319 565.195 70.6083C565.195 69.9846 564.69 69.4791 564.066 69.4791C563.442 69.4791 562.937 69.9846 562.937 70.6083C562.937 71.2319 563.442 71.7374 564.066 71.7374Z" fill="#B79BDB"/>
<path d="M585.433 68.6097C585.024 68.3699 584.304 68.7996 583.694 69.609L582.695 68.7097C582.805 68.5498 582.905 68.3899 583.005 68.21C584.254 66.0516 584.504 63.8532 583.554 63.3036C582.605 62.754 580.826 64.0731 579.557 66.2315C578.287 68.3899 578.058 70.5883 579.007 71.1379C579.717 71.5576 580.916 70.8981 582.005 69.629L583.065 70.6283C582.575 71.6275 582.515 72.6268 582.975 72.8766C583.434 73.1264 584.434 72.4669 585.114 71.2978C585.793 70.1286 585.943 68.9495 585.433 68.6097Z" fill="#737BFA"/>
<path d="M531.845 75.8444L533.424 79.0021C533.713 79.5723 534.182 80.0306 534.759 80.3055C535.336 80.5803 535.988 80.6561 536.612 80.521C539.211 79.9914 543.608 80.0313 546.237 85.2775C546.237 85.2775 554.632 86.3867 555.231 93.2717L561.228 94.2709L567.164 105.163C567.164 105.163 582.485 104.493 581.826 104.493C581.166 104.493 584.484 89.8342 584.484 89.8342L589.811 87.1761V82.5095C589.811 82.5095 597.946 80.511 599.945 75.8444H531.845Z" fill="#5D4C82"/>
<path d="M553.952 75.1349C553.952 75.1349 556.82 77.2834 556.101 83.0192C556.101 83.0192 560.408 84.4481 561.098 87.316L563.097 87.6558C563.789 87.7706 564.439 88.0656 564.981 88.5112C565.523 88.9567 565.938 89.5371 566.185 90.1939L567.524 93.7713L571.822 101.656L578.148 101.266L573.261 93.7713L571.822 90.1839L574.69 83.0192L573.331 82.7893C572.433 82.6407 571.588 82.2627 570.879 81.692C570.17 81.1213 569.62 80.3772 569.283 79.5317L568.953 78.7123L571.112 75.1349H553.952Z" fill="#59477D"/>
<path d="M599.805 75.8444H531.735L532.975 75.015C533.568 74.6243 534.263 74.4159 534.973 74.4155H596.377C597.662 74.4275 598.892 74.9401 599.805 75.8444V75.8444Z" fill="#569299"/>
<path d="M514.235 95.2702H566.324C566.324 95.2702 554.212 81.3504 542.339 90.7335C537.627 89.2277 532.627 88.8537 527.744 89.6419C522.862 90.4302 518.233 92.3584 514.235 95.2702Z" fill="#7D9DF5"/>
<path d="M705.122 115.256H545.217C545.217 115.256 576.199 87.276 598.186 104.264C598.186 104.264 623.171 63.2936 650.155 74.2856C650.155 74.2856 639.161 18.6463 691.131 0H705.122V115.256Z" fill="#D4DEFF"/>
<path opacity="0.5" d="M650.155 74.2858C623.171 63.2939 598.186 104.264 598.186 104.264C576.199 87.2763 545.217 115.256 545.217 115.256C545.217 115.256 582.195 96.2697 604.182 110.259C604.182 110.259 622.172 71.288 660.149 84.2785C660.149 84.2785 670.143 27.3202 705.122 27.8199V0.339996H690.231C639.321 19.3061 650.155 74.2858 650.155 74.2858Z" fill="white"/>
<path opacity="0.7" d="M326.347 411.039C326.347 411.039 336.341 402.045 346.335 399.048C346.335 399.048 357.329 361.075 368.322 374.066C368.322 374.066 378.316 357.078 385.312 377.853C385.312 377.853 389.31 374.066 394.307 379.852C394.307 379.852 403.301 343.089 439.28 365.862L419.292 336.094C419.292 336.094 426.857 281.584 487.252 289.128C503.242 291.127 516.184 305.986 519.233 314.11C519.233 314.11 534.224 291.127 548.215 324.102C548.215 324.102 548.215 318.107 554.212 329.099C554.212 329.099 581.196 289.128 602.273 404.044L326.347 411.039Z" fill="white"/>
<path d="M522.181 224.396C522.181 224.396 526.698 213.404 543.218 216.182C555.211 218.18 566.205 205.19 566.205 205.19C566.205 205.19 566.205 222.177 551.213 227.174C551.213 227.174 561.208 231.171 565.205 224.176C565.205 224.176 563.206 238.165 544.218 240.164C538.733 240.724 533.454 242.55 528.795 245.498C524.137 248.446 520.227 252.435 517.374 257.152L522.181 224.396Z" fill="#BD94FA"/>
<path d="M524.229 245.16C527.048 241.523 535.693 234.998 546.376 233.869C546.546 233.869 546.716 233.869 546.886 233.809C544.188 231.93 535.133 229.862 535.133 229.862C539.74 231.151 550.394 220.219 550.394 220.219C545.787 224.086 542.579 220.219 538.341 219.419C530.486 217.89 528.597 224.326 528.597 224.326L524.229 245.16Z" fill="#B78AFA"/>
<path d="M523.81 213.244L501.003 368.8" stroke="#E08055" stroke-width="4" stroke-miterlimit="10" stroke-linecap="round"/>
<path d="M540.22 327.1C539.221 327.1 506.24 305.116 495.247 351.083C495.247 351.083 468.263 349.084 471.261 386.057C471.261 386.057 465.264 368.07 444.277 377.064L398.304 405.043H540.22V327.1Z" fill="#54A18A"/>
<path d="M540.22 327.1C539.221 327.1 506.24 305.116 495.247 351.083C495.247 351.083 468.263 349.084 471.261 386.057C471.261 386.057 465.264 368.07 444.277 377.064L442.648 378.063L440.279 389.055C462.266 382.06 474.259 391.053 474.259 391.053C477.257 353.081 497.245 356.079 497.245 356.079C506.24 335.094 536.222 343.089 536.222 343.089L539.221 336.094L540.22 334.765V327.1Z" fill="#5EB58B"/>
<path d="M345.286 383.049C345.286 383.049 340.159 384.758 336.741 394.151L340.159 398.418L344.426 392.422L341.868 411.019H347.954L352.951 400.966L355.32 411.019H363.465L359.807 390.714C359.807 390.714 369.201 392.422 373.469 385.587L369.201 383.029C369.201 383.029 360.657 385.587 355.53 380.471L345.286 383.049Z" fill="#E6D7B5"/>
<path d="M356.519 381.351L356.149 381.051L354.31 380.791L352.112 381.341V388.176L346.045 382.859L345.286 383.049C343.768 383.731 342.43 384.758 341.378 386.047C342.837 386.727 345.006 388.415 344.426 392.472L343.637 399.108L360.497 395.44L359.807 390.764C359.677 387.368 358.532 384.089 356.519 381.351V381.351Z" fill="#243B6C"/>
<path d="M339.251 360.528L339.243 360.533C338.266 361.036 337.883 362.236 338.387 363.212L342.346 370.884C342.85 371.86 344.049 372.243 345.025 371.74L345.034 371.735C346.01 371.232 346.393 370.032 345.89 369.056L341.931 361.383C341.427 360.407 340.228 360.024 339.251 360.528Z" fill="#F781AA"/>
<path d="M350.239 358.401L350.23 358.399C349.145 358.228 348.126 358.968 347.954 360.053L346.605 368.58C346.433 369.665 347.174 370.684 348.259 370.855L348.269 370.857C349.353 371.028 350.372 370.288 350.544 369.203L351.893 360.676C352.065 359.591 351.324 358.573 350.239 358.401Z" fill="#F781AA"/>
<path d="M347.444 368.73L349.603 362.085C349.626 362.029 349.668 361.984 349.721 361.955C349.774 361.927 349.835 361.918 349.894 361.93C349.953 361.942 350.006 361.973 350.044 362.02C350.082 362.066 350.103 362.125 350.103 362.185L349.533 368.96L347.444 368.73Z" fill="#F7AAC5"/>
<path d="M343.187 371.028L340.449 363.654C340.431 363.604 340.432 363.551 340.45 363.502C340.469 363.453 340.504 363.413 340.55 363.387C340.595 363.362 340.648 363.354 340.699 363.364C340.75 363.375 340.796 363.403 340.829 363.444L345.646 369.809L343.187 371.028Z" fill="#F7AAC5"/>
<path d="M356.706 366.037L336.61 370.418C334.281 370.925 332.803 373.223 333.311 375.55C333.818 377.877 336.118 379.351 338.448 378.843L358.543 374.462C360.873 373.954 362.35 371.657 361.843 369.33C361.336 367.003 359.036 365.529 356.706 366.037Z" fill="#F781AA"/>
<path d="M357.972 371.888L337.877 376.268C335.547 376.776 334.07 379.074 334.577 381.401C335.084 383.728 337.384 385.202 339.714 384.694L359.81 380.313C362.139 379.805 363.617 377.507 363.109 375.181C362.602 372.854 360.302 371.38 357.972 371.888Z" fill="#F781AA"/>
<path d="M345.396 375.725C345.564 375.405 345.629 375.04 345.58 374.682C345.532 374.324 345.373 373.99 345.126 373.726C344.626 373.057 343.937 372.847 343.577 373.267C343.413 373.587 343.351 373.951 343.399 374.308C343.447 374.665 343.604 374.999 343.847 375.265C344.347 375.925 345.046 376.124 345.396 375.725Z" fill="#1E1C2A"/>
<path d="M353.332 372.617C353.382 371.778 353.042 371.048 352.572 370.968C352.102 370.888 351.682 371.528 351.622 372.357C351.562 373.187 351.912 373.936 352.382 374.006C352.852 374.076 353.272 373.456 353.332 372.617Z" fill="#1E1C2A"/>
<path d="M347.954 375.725L350.543 375.155C350.543 375.155 350.892 379.882 347.954 375.725Z" fill="black"/>
<path d="M341.868 411.039H347.994L352.971 400.976L355.33 411.039H363.485L360.297 394.071L343.906 396.799L341.868 411.039Z" fill="#1C1B28"/>
<g style="mix-blend-mode:multiply" opacity="0.08">
<path d="M343.957 411.039L346.405 389.335C346.405 389.335 341.518 395.041 340.699 396.669L338.25 395.041C338.25 395.041 339.769 385.857 345.126 383.519L355.12 381.341C355.12 381.341 361.056 387.706 370.841 383.629C371.72 384.065 372.54 384.612 373.279 385.258C373.279 385.258 370.021 390.964 359.417 390.154L360.507 411.039H356.949L352.891 400.706L346.515 410.999L343.957 411.039Z" fill="#243B6C"/>
</g>
<path d="M338.45 400.986C339.863 400.986 341.009 399.264 341.009 397.139C341.009 395.014 339.863 393.292 338.45 393.292C337.037 393.292 335.892 395.014 335.892 397.139C335.892 399.264 337.037 400.986 338.45 400.986Z" fill="#F781AA"/>
<path d="M371.76 386.467C373.173 386.467 374.319 384.744 374.319 382.62C374.319 380.495 373.173 378.772 371.76 378.772C370.347 378.772 369.202 380.495 369.202 382.62C369.202 384.744 370.347 386.467 371.76 386.467Z" fill="#F781AA"/>
<path d="M336.611 370.429C335.786 370.61 335.032 371.029 334.443 371.635C333.853 372.24 333.455 373.005 333.296 373.835C333.138 374.665 333.226 375.523 333.551 376.303C333.875 377.083 334.421 377.75 335.122 378.223C334.537 379.172 334.344 380.311 334.582 381.401C334.582 381.45 334.582 381.5 334.582 381.56C335.371 379.789 336.608 378.253 338.17 377.104C336.371 374.705 338.1 371.428 339.169 369.859L336.611 370.429Z" fill="#F797B8"/>
<g style="mix-blend-mode:multiply" opacity="0.08">
<path d="M353.701 393.412L356.149 386.887L358.598 390.154L353.701 393.412Z" fill="#243B6C"/>
</g>
<path d="M341.798 386.986C342.153 386.986 342.494 387.128 342.745 387.379C342.996 387.63 343.137 387.97 343.137 388.325V406.592H340.458V388.325C340.458 387.97 340.6 387.63 340.851 387.379C341.102 387.128 341.443 386.986 341.798 386.986V386.986Z" fill="#9A533B"/>
<path d="M364.075 386.986C364.43 386.986 364.771 387.128 365.022 387.379C365.273 387.63 365.414 387.97 365.414 388.325V406.592H362.746V388.325C362.746 387.972 362.885 387.633 363.134 387.382C363.383 387.131 363.721 386.989 364.075 386.986Z" fill="#9A533B"/>
<path d="M363.625 392.333H342.238V395.001H363.625V392.333Z" fill="#9A533B"/>
<path d="M363.625 399.457H342.238V402.125H363.625V399.457Z" fill="#9A533B"/>
<path d="M338.45 400.986C339.863 400.986 341.009 399.264 341.009 397.139C341.009 395.014 339.863 393.292 338.45 393.292C337.037 393.292 335.892 395.014 335.892 397.139C335.892 399.264 337.037 400.986 338.45 400.986Z" fill="#F781AA"/>
<path d="M322.35 423.03C322.35 423.03 313.355 467.997 338.34 446.013" stroke="#7756A6" stroke-width="2" stroke-miterlimit="10"/>
<path d="M505.241 415.036L465.265 405.043L468.263 398.048L521.231 374.066L546.277 306.655L549.864 304.267L565.205 305.116L600.185 290.127L611.178 255.153L613.177 243.162L628.168 232.17L631.166 215.182L638.162 203.191L705.122 188.202V410.689L505.241 415.036Z" fill="#874A52"/>
<path d="M322.349 406.042L317.622 407.351C317.228 407.457 316.86 407.643 316.542 407.899C316.224 408.154 315.963 408.473 315.775 408.835C315.587 409.197 315.477 409.594 315.45 410.001C315.424 410.408 315.483 410.816 315.623 411.199L322.309 429.026L330.305 437.02V446.013L345.296 451.01L349.293 464H705.082V405.043L322.349 406.042Z" fill="#964B55"/>
<path d="M388.31 413.037L386.312 433.023L400.303 452.009L410.297 464H539.221L536.223 427.027L513.236 413.037H445.326L413.296 411.039L388.31 413.037Z" fill="#964B55"/>
<path d="M497.245 464L499.244 444.015L479.256 427.027L472.26 412.038L497.245 413.037C498.785 411.039 539.65 438.549 539.221 436.02L536.222 431.024L539.221 440.018L538.221 454.517L534.223 464H497.245Z" fill="#9E525C"/>
<path opacity="0.73" d="M375.318 415.036L380.315 431.024C380.315 431.024 390.149 445.593 390.309 448.012L394.307 458.004L400.803 464H418.132L408.408 455.007C407.744 454.386 407.215 453.635 406.852 452.802C406.489 451.968 406.301 451.069 406.299 450.16V450.04L398.304 447.042L388.31 430.055L389.31 413.067L375.318 415.036Z" fill="#AB616B"/>
<path d="M607.18 412.038L578.197 417.034L567.204 419.033L555.721 417.034L538.221 446.013L553.942 464H628.568L624.17 434.022L619.173 424.029L626.169 422.031L629.167 416.035L637.162 409.04L618.174 410.04L607.18 412.038Z" fill="#A1525C"/>
<path d="M506.24 412.038L490.25 413.037L499.244 432.023C500.873 435.271 511.787 437.739 510.238 441.017L522.231 456.006L518.233 464H523.92H577.198C577.198 464 545.217 457.005 552.213 456.006C553.612 455.806 553.212 441.017 553.212 441.017L554.212 431.024L560.208 429.026L567.204 420.032L529.846 414.616L506.24 412.038Z" fill="#AB5964"/>
<path d="M543.888 419.033C541.967 421.05 540.754 423.636 540.429 426.402C540.105 429.168 540.687 431.965 542.089 434.372L544.218 438.019L550.214 448.012L549.035 453.937C548.803 455.106 548.961 456.319 549.485 457.389C550.008 458.459 550.868 459.328 551.933 459.863L557.21 461.002L568.203 464H579.197L563.206 458.004L555.211 454.007L556.211 447.012L560.208 442.016C560.208 442.016 559.499 433.173 561.208 432.023L564.206 430.025L574.2 419.033H543.888Z" fill="#B36570"/>
<path opacity="0.53" d="M360.327 464L358.328 459.004L355.33 452.009L362.326 445.014L363.325 442.016L346.335 448.012L330.345 446.013L345.336 451.01L349.333 464H360.327Z" fill="#70375A"/>
<path d="M628.218 408.88L699.125 406.042L686.133 439.018L614.176 438.019L611.178 421.031L628.218 408.88Z" fill="#964A54"/>
<path d="M420.291 412.038C420.291 412.038 395.306 439.018 391.309 413.037C391.309 413.037 339.34 471.994 350.333 415.036C350.333 415.036 269.381 485.984 319.351 413.037" stroke="#9069C9" stroke-width="2" stroke-miterlimit="10"/>
<path d="M644.858 166.228C645.335 165.934 645.75 165.548 646.078 165.093C646.406 164.638 646.641 164.123 646.769 163.577C646.897 163.031 646.916 162.465 646.825 161.912C646.734 161.358 646.534 160.828 646.237 160.352L638.981 164.879C639.583 165.836 640.539 166.516 641.641 166.769C642.742 167.022 643.9 166.827 644.858 166.228Z" fill="#C9547E"/>
<path d="M322.709 406.042L705.122 403.704V408.021C705.122 408.021 645.158 410.02 630.167 410.02C615.176 410.02 579.197 420.012 564.206 420.012C549.215 420.012 517.234 414.017 504.242 414.017C491.249 414.017 421.291 413.017 421.291 413.017L388.311 414.017C385.685 414.832 383.016 415.499 380.315 416.015C375.318 417.014 317.063 415.016 317.063 415.016L314.974 409.48C314.914 409.318 314.888 409.145 314.898 408.972C314.908 408.799 314.954 408.63 315.033 408.476C315.112 408.322 315.222 408.186 315.357 408.077C315.491 407.967 315.647 407.887 315.814 407.841L321.97 406.142C322.211 406.076 322.46 406.042 322.709 406.042V406.042Z" fill="#81C793"/>
<path d="M322.699 406.042L705.122 400.706V405.023C705.122 405.023 645.158 407.022 630.167 407.022C615.175 407.022 579.197 417.014 564.206 417.014C549.215 417.014 517.234 411.019 504.241 411.019C491.249 411.019 421.291 410.02 421.291 410.02L388.31 411.019C385.685 411.834 383.015 412.501 380.315 413.017C375.318 414.017 315.853 411.688 315.853 411.688L315.024 409.46C314.962 409.298 314.935 409.124 314.944 408.951C314.954 408.778 314.999 408.608 315.079 408.454C315.158 408.299 315.269 408.163 315.404 408.054C315.539 407.945 315.695 407.866 315.863 407.821L322.019 406.122C322.241 406.061 322.47 406.034 322.699 406.042V406.042Z" fill="#A3FAA8"/>
<path d="M315.706 436.02L317.292 438.934C318.053 440.331 318.227 441.972 317.777 443.497C317.327 445.022 316.289 446.306 314.892 447.067L307.587 433.647C308.979 432.889 310.615 432.713 312.136 433.158C313.658 433.603 314.941 434.632 315.706 436.02V436.02Z" fill="#A075E0"/>
<path d="M302.252 459.483C310.122 459.483 316.503 453.104 316.503 445.234C316.503 437.364 310.122 430.984 302.252 430.984C294.381 430.984 288 437.364 288 445.234C288 453.104 294.381 459.483 302.252 459.483Z" fill="#B78AFA"/>
<path d="M297.414 431.844C296.964 434.841 299.133 438.499 302.971 440.727C307.558 443.395 312.765 442.995 314.604 439.838C314.772 439.547 314.906 439.239 315.004 438.918C314.924 438.759 314.854 438.589 314.764 438.419C313.133 435.432 310.488 433.127 307.306 431.922C304.123 430.716 300.615 430.688 297.414 431.844V431.844Z" fill="#C4A0FA"/>
<path d="M295.695 449.381C293.856 445.993 290.798 444.105 288.869 445.154C288.529 445.339 288.24 445.607 288.03 445.933C288.135 448.311 288.84 450.623 290.079 452.655C291.317 454.687 293.05 456.372 295.116 457.555C295.262 457.517 295.405 457.47 295.545 457.415C297.474 456.356 297.544 452.768 295.695 449.381Z" fill="#9069C9"/>
<path opacity="0.46" d="M306.359 458.884C307.133 458.641 307.885 458.333 308.607 457.964C310.415 455.765 311.623 453.135 312.111 450.331C312.599 447.526 312.352 444.643 311.394 441.963C310.435 439.282 308.798 436.896 306.642 435.037C304.487 433.177 301.886 431.908 299.093 431.354C298.307 431.527 297.538 431.767 296.794 432.073C299.825 432.25 302.737 433.316 305.166 435.137C307.595 436.957 309.435 439.453 310.455 442.312C311.475 445.171 311.63 448.268 310.902 451.215C310.173 454.161 308.593 456.829 306.359 458.884V458.884Z" fill="#A075E0"/>
<path d="M361.756 455.176C369.627 455.176 376.008 448.797 376.008 440.927C376.008 433.057 369.627 426.677 361.756 426.677C353.885 426.677 347.504 433.057 347.504 440.927C347.504 448.797 353.885 455.176 361.756 455.176Z" fill="#B78AFA"/>
<path d="M347.525 440.987C350.183 442.416 354.361 441.596 357.749 438.739C361.796 435.311 363.165 430.265 360.807 427.467C360.583 427.22 360.339 426.993 360.077 426.787C359.897 426.787 359.707 426.787 359.527 426.847C356.167 427.382 353.11 429.102 350.908 431.695C348.706 434.289 347.506 437.585 347.525 440.987V440.987Z" fill="#C4A0FA"/>
<path d="M363.465 448.481C359.658 449.081 356.849 451.329 357.189 453.478C357.258 453.862 357.415 454.224 357.649 454.537C359.919 455.228 362.326 455.336 364.649 454.852C366.972 454.369 369.135 453.308 370.941 451.769C370.956 451.619 370.956 451.469 370.941 451.319C370.641 449.151 367.273 447.882 363.465 448.481Z" fill="#9069C9"/>
<path opacity="0.46" d="M363.825 431.024C360.123 431.042 356.534 432.303 353.634 434.604C350.735 436.906 348.692 440.114 347.834 443.715C347.983 444.476 348.19 445.224 348.454 445.953C348.758 442.939 349.94 440.08 351.854 437.731C353.768 435.381 356.329 433.646 359.22 432.738C362.111 431.831 365.205 431.791 368.118 432.625C371.031 433.459 373.635 435.13 375.608 437.429C375.416 436.683 375.162 435.955 374.848 435.251C371.827 432.522 367.897 431.015 363.825 431.024V431.024Z" fill="#A075E0"/>
<path d="M326.687 458.484C329.816 458.484 332.353 455.947 332.353 452.818C332.353 449.689 329.816 447.152 326.687 447.152C323.557 447.152 321.02 449.689 321.02 452.818C321.02 455.947 323.557 458.484 326.687 458.484Z" fill="#B78AFA"/>
<path d="M321.97 449.671C322.399 450.271 322.992 450.736 323.677 451.01C324.363 451.285 325.112 451.357 325.837 451.219C327.936 451 329.515 449.651 329.365 448.222C329.346 448.089 329.316 447.959 329.275 447.832L329.075 447.732C327.855 447.153 326.467 447.031 325.164 447.386C323.86 447.742 322.727 448.552 321.97 449.671V449.671Z" fill="#C4A0FA"/>
<path d="M638.162 203.191L705.122 188.202V192.419L686.693 198.415C685.053 198.944 683.674 200.076 682.836 201.582L681.276 204.38C680.639 205.524 679.685 206.459 678.529 207.074C677.374 207.689 676.065 207.958 674.76 207.848L668.764 207.348C667.71 207.259 666.649 207.416 665.666 207.808L657.161 211.205L652.104 213.454C650.926 213.978 649.625 214.157 648.349 213.972C647.074 213.786 645.877 213.243 644.898 212.404V212.404C643.813 211.474 642.463 210.908 641.039 210.788C639.614 210.668 638.188 210.999 636.963 211.735L631.176 215.202L638.162 203.191Z" fill="#81C793"/>
<path d="M551.213 402.705L538.221 370.069C538.221 370.069 599.185 335.094 643.159 244.161C643.159 244.161 683.135 254.154 705.122 247.159V402.705H551.213Z" fill="#D56B95"/>
<path opacity="0.25" d="M641.16 311.112C641.16 311.112 613.177 331.097 603.183 331.097C593.189 331.097 603.183 312.111 603.183 312.111L583.254 332.037C575.189 340.615 566.584 348.669 557.49 356.149L576.199 361.075L569.203 390.054L563.296 402.705L565.355 402.755H581.186L583.184 385.108L597.176 369.12L603.123 402.705L624.17 403.045L641.16 311.112Z" fill="#923963"/>
<path d="M620.252 402.705C620.252 402.705 643.159 325.102 643.159 267.144C643.159 267.144 647.516 368.38 668.324 402.705H620.252Z" fill="#59374B"/>
<path opacity="0.53" d="M570.202 442.686L571.551 445.324L575.199 452.009L584.194 454.007L587.882 464H705.122V443.015L570.202 442.686Z" fill="#633150"/>
<path d="M587.702 444.224C587.702 444.224 612.797 420.032 633.784 429.026C633.784 429.026 646.777 411.039 663.766 421.031C663.766 421.031 667.764 410.04 680.756 416.035C680.756 416.035 679.757 382.06 705.092 375.415V444.015L587.702 444.224Z" fill="#54A18A"/>
<path d="M680.757 416.035C667.764 410.04 663.767 421.031 663.767 421.031C646.777 411.039 633.785 429.026 633.785 429.026C612.797 420.032 587.672 444.224 587.672 444.224H595.557V443.915C595.557 443.915 624.18 435.031 639.171 439.028C639.171 439.028 651.164 415.046 665.156 428.036C665.156 428.036 668.154 410.05 684.145 422.041C684.145 422.041 691.14 390.064 705.132 391.063V375.415C679.757 382.06 680.757 416.035 680.757 416.035Z" fill="#5EB58B"/>
<path opacity="0.53" d="M639.931 444.314L646.417 463.98H705.122V443.015L639.931 444.314Z" fill="#703443"/>
<path d="M619.173 448.012L625.17 452.009L623.171 457.005L625.17 459.004L628.168 464H658.15L655.152 460.003L651.074 458.004C648.936 457.475 648.156 449.011 648.156 449.011L645.758 444.224L626.329 446.673L619.173 448.012Z" fill="#8C4C55"/>
<path d="M623.171 447.012L626.169 452.009L625.08 454.197C624.799 454.764 624.648 455.387 624.638 456.019C624.628 456.652 624.758 457.279 625.02 457.855L628.018 464H624.88L623.121 459.004L619.123 455.007C619.123 455.007 621.382 451.309 621.122 450.01L617.125 447.012H623.171Z" fill="#A65E67"/>
<path d="M571.551 445.324L570.922 444.224L570.202 442.686L705.122 443.015V445.963L643.159 446.013L619.173 448.012L571.551 445.324Z" fill="#81C793"/>
<path d="M570.922 444.224L570.202 442.686L705.122 442.016V444.964L643.159 444.015L621.172 446.013L570.922 444.224Z" fill="#A3FAA8"/>
<path d="M503.242 367.071H496.246V399.048H503.242V367.071Z" fill="#837C8A"/>
<path d="M483.334 395.051H527.158C528.239 395.051 529.276 395.48 530.041 396.245C530.806 397.009 531.235 398.046 531.235 399.128V401.836C531.235 402.686 530.897 403.502 530.296 404.104C529.694 404.705 528.878 405.043 528.027 405.043H482.284C481.489 405.043 480.727 404.727 480.164 404.165C479.602 403.603 479.286 402.84 479.286 402.045V399.148C479.281 398.068 479.704 397.03 480.463 396.262C481.222 395.494 482.254 395.058 483.334 395.051V395.051Z" fill="#BAB5BF"/>
<path d="M479.256 398.578H531.226V402.575C531.226 403.224 530.968 403.847 530.508 404.306C530.049 404.765 529.426 405.023 528.777 405.023H481.705C481.055 405.023 480.433 404.765 479.974 404.306C479.514 403.847 479.256 403.224 479.256 402.575V398.578Z" fill="#978CA2"/>
<path d="M479.256 398.578H490.25V405.043H482.075C481.327 405.043 480.61 404.746 480.082 404.218C479.553 403.689 479.256 402.973 479.256 402.225V398.578V398.578Z" fill="#877D91"/>
<path d="M481.575 353.251C481.596 352.31 481.862 351.391 482.345 350.584C482.829 349.776 483.514 349.108 484.333 348.645C485.421 348.129 486.39 347.394 487.181 346.486C488.78 344.548 491.519 342.149 492.528 346.676C492.528 346.676 495.446 359.087 486.692 359.087C486.692 359.087 482.304 359.816 481.575 353.251Z" fill="#F3C46B"/>
<path d="M485.743 352.422C485.743 353.188 485.592 353.946 485.298 354.653C485.005 355.361 484.575 356.004 484.033 356.545C483.49 357.086 482.847 357.515 482.139 357.807C481.431 358.099 480.672 358.249 479.906 358.247C476.688 358.247 472.461 355.549 473.24 352.422C474.909 345.757 478.237 349.924 479.077 349.084C482.874 345.317 485.743 349.204 485.743 352.422Z" fill="#E29391"/>
<path d="M466.264 355.08H500.244C500.244 355.08 484.253 379.062 466.264 355.08Z" fill="#E4E4E4"/>
<path d="M476.998 347.006C477.068 346.736 478.657 347.006 478.657 349.504" stroke="#C28988" stroke-width="0.83" stroke-miterlimit="10" stroke-linecap="round"/>
<path d="M474.259 387.056C474.259 387.056 480.256 376.064 487.252 376.064C487.252 376.064 478.257 372.067 474.259 377.064V387.056Z" fill="#5EB58B"/>
<path d="M503.242 375.065L496.246 373.067V367.071H503.242V375.065Z" fill="#736E78"/>
<path d="M473.15 355.08C473.26 355.08 476.258 363.074 482.255 364.073C482.255 364.073 492.249 365.072 499.244 355.08H473.15Z" fill="#D6D6D6"/>
<path d="M443.278 362.075H509.239C510.299 362.075 511.316 362.496 512.065 363.245C512.815 363.995 513.236 365.012 513.236 366.072C513.236 367.132 512.815 368.149 512.065 368.898C511.316 369.648 510.299 370.069 509.239 370.069H443.278V362.075Z" fill="#9B93A2"/>
<path d="M416.294 393.222L418.293 400.217L416.204 403.354C416.019 403.632 415.913 403.955 415.898 404.288C415.882 404.621 415.957 404.952 416.115 405.245C416.273 405.539 416.508 405.784 416.795 405.954C417.082 406.125 417.41 406.214 417.743 406.212H433.624L425.289 392.223L416.294 393.222Z" fill="#4D47BF"/>
<path d="M455.399 383.929L447.881 386.983C447.144 387.282 446.79 388.121 447.089 388.857L448.263 391.746C448.562 392.482 449.401 392.837 450.138 392.537L457.656 389.483C458.392 389.184 458.747 388.345 458.448 387.609L457.274 384.72C456.975 383.984 456.135 383.63 455.399 383.929Z" fill="#4A4675"/>
<path d="M476.258 320.275C476.258 320.275 481.255 303.288 483.254 311.282C485.253 319.276 483.254 327.27 477.258 325.272L476.258 320.275Z" fill="#716BE8"/>
<path d="M442.278 350.253C447.135 349.714 449.094 350.713 453.272 349.254C457.699 347.715 463.136 341.929 466.264 340.261C471.031 337.733 479.256 337.263 479.256 327.98L478.077 318.147C478.012 317.715 477.825 317.31 477.538 316.98C477.251 316.65 476.877 316.408 476.458 316.282C476.039 316.156 475.593 316.152 475.172 316.27C474.751 316.388 474.372 316.623 474.079 316.948C466.294 325.102 460.298 328.1 450.304 330.098L442.278 350.253Z" fill="#B84646"/>
<path d="M467.263 324.272C463.167 328.361 457.95 331.143 452.272 332.267L443.657 347.745L444.247 350.083C447.755 349.934 449.704 350.473 453.242 349.224C455.75 348.355 458.598 346.106 461.157 344.028C462.236 341.23 461.237 337.233 461.237 337.233L467.263 324.272Z" fill="#B84646"/>
<path d="M450.274 344.258C452.485 342.819 454.349 340.908 455.732 338.661C457.115 336.415 457.981 333.889 458.269 331.267C458.269 331.267 478.257 325.272 466.264 315.279C466.264 315.279 464.265 306.286 457.27 305.286L442.278 310.283L437.281 320.275C437.281 320.275 440.28 329.269 434.283 334.265" fill="#716BE8"/>
<path d="M464.265 324.272C464.817 324.272 465.264 323.601 465.264 322.773C465.264 321.946 464.817 321.275 464.265 321.275C463.713 321.275 463.266 321.946 463.266 322.773C463.266 323.601 463.713 324.272 464.265 324.272Z" fill="#FFFCCA"/>
<path d="M436.332 321.624C436.332 321.624 432.034 298.641 458.319 303.817C458.309 303.777 450.323 321.694 436.332 321.624Z" fill="#F0A23F"/>
<path d="M458.98 320.481C459.53 320.2 459.635 319.303 459.214 318.477C458.792 317.651 458.004 317.21 457.454 317.49C456.903 317.771 456.798 318.669 457.22 319.495C457.641 320.32 458.429 320.762 458.98 320.481Z" fill="black"/>
<path d="M460.268 322.274C460.268 322.274 465.824 324.272 470.042 322.274C470.042 322.274 470.262 328.269 458.269 331.267C458.269 331.267 457.269 341.26 450.274 344.258L446.276 338.262C446.276 338.262 450.274 338.262 450.274 334.265C450.274 334.265 455.271 332.267 455.271 329.269C455.271 329.269 460.268 328.269 460.268 322.274Z" fill="#5D56E8"/>
<path d="M468.263 320.145C468.502 320.007 468.472 319.508 468.196 319.03C467.92 318.552 467.502 318.276 467.263 318.414C467.024 318.552 467.054 319.052 467.33 319.53C467.606 320.008 468.023 320.283 468.263 320.145Z" fill="#5D56E8"/>
<path d="M405.3 384.228C405.3 384.228 394.307 396.22 384.313 390.224C378.066 386.477 376.897 389.365 376.897 392.063C376.917 394.004 377.55 395.889 378.706 397.449C382.704 402.955 395.626 415.436 422.29 395.22L424.289 399.217L422.98 403.834C422.899 404.112 422.884 404.405 422.936 404.69C422.989 404.975 423.107 405.244 423.282 405.475C423.457 405.706 423.683 405.893 423.943 406.021C424.203 406.149 424.489 406.215 424.779 406.212H451.892C452.014 406.213 452.134 406.178 452.236 406.111C452.337 406.044 452.417 405.949 452.465 405.837C452.513 405.725 452.527 405.601 452.505 405.481C452.483 405.362 452.427 405.251 452.342 405.163C450.663 403.394 446.985 399.957 443.348 399.217C443.348 399.217 447.345 395.22 442.348 382.23L405.3 384.228Z" fill="#716BE8"/>
<path d="M452.312 405.163C450.633 403.394 446.956 399.957 443.318 399.218C443.318 399.218 447.315 395.22 442.318 382.23L419.752 383.449C419.582 383.599 419.422 383.749 419.272 383.909C414.595 388.515 409.718 393.082 403.841 396.04C403.541 396.2 403.222 396.34 402.912 396.479C403.071 396.686 403.184 396.925 403.242 397.179C403.561 398.808 401.393 400.586 398.414 401.176C397.547 401.4 396.644 401.45 395.757 401.323C394.87 401.196 394.017 400.895 393.247 400.437C393.253 400.47 393.253 400.503 393.247 400.537C393.028 401.336 391.548 401.626 389.959 401.176C388.37 400.726 387.251 399.717 387.471 398.928C387.504 398.818 387.558 398.716 387.631 398.628C386.667 398.434 385.721 398.16 384.802 397.809C382.454 396.899 380.045 395.47 377.637 395.46C377.933 396.167 378.308 396.837 378.756 397.459C382.754 402.965 395.676 415.446 422.34 395.23L424.339 399.227L423.03 403.844C422.949 404.122 422.934 404.415 422.986 404.7C423.039 404.985 423.157 405.254 423.332 405.485C423.507 405.716 423.733 405.903 423.993 406.031C424.253 406.159 424.539 406.225 424.829 406.222H451.893C452.014 406.219 452.132 406.18 452.231 406.111C452.331 406.041 452.407 405.944 452.452 405.831C452.497 405.718 452.507 405.595 452.483 405.476C452.458 405.357 452.399 405.249 452.312 405.163V405.163Z" fill="#5D56E8"/>
<path d="M392.398 399.048H392.348C392.348 399.048 392.398 399.058 392.398 399.048Z" fill="#21419C"/>
<path d="M405.98 387.226L416.813 385.717C419.068 385.405 421.363 385.848 423.34 386.976L426.078 388.535C426.866 388.983 427.779 389.159 428.676 389.035L441.279 387.226V332.267L402.722 380.461C402.233 381.074 401.927 381.813 401.839 382.593C401.751 383.372 401.885 384.16 402.225 384.867C402.565 385.574 403.098 386.17 403.763 386.587C404.427 387.005 405.195 387.226 405.98 387.226V387.226Z" fill="#B84646"/>
<path d="M441.279 374.835L437.281 345.257L430.385 345.887L408.918 372.727C413.066 373.217 423.249 371.897 428.296 363.234C428.296 363.234 430.295 378.223 437.291 379.222L441.289 382.62L441.279 374.835Z" fill="#AB4141"/>
<path d="M400.303 341.26C400.303 341.26 388.31 343.258 391.308 354.25C394.307 365.242 411.296 367.241 418.292 365.242C425.288 363.244 427.287 346.256 427.287 346.256L435.282 335.264L430.285 329.269L400.303 341.26Z" fill="#59374B"/>
<path d="M430.825 337.423C430.39 336.804 429.836 336.278 429.196 335.874C427.86 335.002 426.319 334.493 424.727 334.396C423.134 334.3 421.543 334.62 420.112 335.324C418.026 336.487 416.298 338.197 415.114 340.271C413.865 342.269 412.926 344.478 411.786 346.556C410.617 348.712 409.238 350.747 407.669 352.632C405.89 354.78 403.751 356.809 401.073 357.628C399.442 358.051 397.744 358.146 396.076 357.908C394.886 357.779 393.712 357.538 392.568 357.188C397.495 365.622 411.996 367.081 418.323 365.272C423.21 363.883 426.818 353.281 429.316 349.284C429.586 348.025 431.075 350.653 431.315 349.394C431.962 346.371 432.134 343.266 431.825 340.191C431.704 339.205 431.362 338.259 430.825 337.423V337.423Z" fill="#482E41"/>
<path d="M411.437 347.196C411.437 347.196 415.524 354.37 427.427 352.811C421.912 351.515 416.551 349.632 411.437 347.196V347.196Z" fill="#33212E"/>
<path d="M408.918 343.139C411.924 343.584 414.986 342.85 417.463 341.09C418.822 340.201 420.022 339.092 421.401 338.272C422.782 337.334 424.429 336.864 426.098 336.933C427.937 337.093 429.686 338.192 431.485 337.842C432.173 337.667 432.812 337.333 433.349 336.868C433.887 336.404 434.309 335.82 434.583 335.164C435.014 334.296 435.26 333.347 435.304 332.379C435.349 331.41 435.192 330.443 434.843 329.539C434.103 327.73 431.345 327.87 429.316 327.27C428.037 326.9 428.317 326.271 426.318 325.272C424.529 324.382 422.32 325.272 420.681 326.721C417.863 329.209 414.995 331.787 411.237 332.546C409.488 332.906 407.619 332.626 405.93 333.166C403.931 333.805 402.572 334.765 402.332 336.633C402.232 337.523 402.332 339.481 405.48 341.69C406.516 342.401 407.686 342.895 408.918 343.139V343.139Z" fill="#79485D"/>
<path d="M441.143 362.136C447.466 361.578 452.001 354.433 451.273 346.176C450.545 337.918 444.828 331.677 438.505 332.234C432.182 332.792 427.647 339.937 428.375 348.195C429.104 356.452 434.82 362.694 441.143 362.136Z" fill="#482E41"/>
<path d="M451.49 393.883C453.444 392.262 452.886 388.366 450.244 385.18C447.601 381.994 443.874 380.725 441.92 382.345C439.966 383.966 440.524 387.862 443.166 391.048C445.809 394.234 449.535 395.503 451.49 393.883Z" fill="#716BE8"/>
<path d="M452.122 380.611C450.943 377.673 448.275 366.761 448.275 362.245C448.275 356.988 448.345 347.905 447.885 343.728C447.732 342.118 447.113 340.587 446.103 339.323C445.093 338.059 443.736 337.117 442.198 336.613C441.087 336.287 439.921 336.19 438.771 336.33C437.621 336.47 436.512 336.844 435.512 337.428C434.511 338.012 433.641 338.794 432.954 339.726C432.266 340.658 431.777 341.721 431.515 342.849C431.176 344.263 431.218 345.742 431.635 347.136C431.635 347.136 434.283 357.248 432.284 371.238C430.565 383.289 428.846 390.144 435.422 391.223C437.524 391.515 439.663 391.085 441.489 390.004L450.693 384.718C451.389 384.323 451.918 383.689 452.181 382.934C452.444 382.178 452.423 381.353 452.122 380.611Z" fill="#CF5757"/>
<path d="M452.312 405.163C451.012 403.784 449.579 402.535 448.035 401.436C447.236 401.696 446.54 402.201 446.045 402.879C445.55 403.557 445.281 404.374 445.276 405.213C445.282 405.551 445.329 405.886 445.416 406.212H451.892C452.012 406.207 452.127 406.168 452.224 406.099C452.322 406.03 452.397 405.934 452.442 405.823C452.486 405.713 452.497 405.591 452.474 405.474C452.451 405.357 452.395 405.249 452.312 405.163V405.163Z" fill="white"/>
<path d="M398.583 399.164C400.183 398.735 401.364 397.956 401.221 397.423C401.078 396.89 399.666 396.805 398.066 397.233C396.467 397.661 395.286 398.441 395.428 398.974C395.571 399.507 396.984 399.592 398.583 399.164Z" fill="#5D56E8"/>
<path d="M399.772 395.02C400.647 394.786 401.292 394.358 401.213 394.065C401.135 393.772 400.362 393.724 399.488 393.958C398.613 394.192 397.968 394.619 398.047 394.913C398.125 395.206 398.898 395.254 399.772 395.02Z" fill="#5D56E8"/>
<path d="M449.771 331.133C450.727 330.582 451.279 329.747 451.003 329.269C450.727 328.791 449.728 328.851 448.772 329.403C447.816 329.955 447.265 330.789 447.541 331.267C447.817 331.745 448.815 331.685 449.771 331.133Z" fill="#5D56E8"/>
<path d="M448.577 328.047C449.141 327.721 449.466 327.228 449.303 326.946C449.14 326.664 448.551 326.699 447.987 327.025C447.423 327.351 447.097 327.844 447.26 328.126C447.423 328.408 448.013 328.373 448.577 328.047Z" fill="#5D56E8"/>
<path d="M454.139 386.006L454.612 387.216C454.683 387.396 454.886 387.484 455.065 387.414L456.275 386.941C456.455 386.87 456.544 386.667 456.474 386.488L456 385.278C455.93 385.098 455.727 385.009 455.547 385.08L454.337 385.553C454.157 385.623 454.068 385.826 454.139 386.006Z" fill="#3D3A61"/>
<path d="M411.296 334.265C411.975 335.167 412.912 335.841 413.983 336.198C415.054 336.555 416.209 336.578 417.293 336.264C417.293 336.264 412.296 341.26 411.296 334.265Z" fill="#59374B"/>
<path d="M406.3 340.261C405.016 340.649 403.824 341.291 402.793 342.149C401.763 343.008 400.916 344.065 400.303 345.257L401.303 346.256C401.303 346.256 404.301 342.259 407.299 341.26L406.3 340.261Z" fill="#33212E"/>
<path d="M398.304 337.263V338.262C399.262 338.825 400.388 339.034 401.484 338.851C402.58 338.668 403.577 338.106 404.301 337.263L403.301 336.264C402.635 336.863 401.819 337.272 400.94 337.448C400.06 337.624 399.15 337.56 398.304 337.263V337.263Z" fill="#33212E"/>
<path d="M435.282 364.243C435.282 364.243 437.801 371.078 441.539 369.159C441.539 369.159 437.281 378.233 435.282 364.243Z" fill="#B54545"/>
<path d="M436.282 321.285L444.167 319.706C444.687 319.436 445.166 319.156 445.716 318.846C441.458 315.369 440.929 309.533 441.029 306.086C435.122 310.772 436.012 319.466 436.282 321.285Z" fill="#EE8D3A"/>
<path d="M435.462 322.763C435.462 322.763 453.642 322.763 458.309 303.827" stroke="#F3BD55" stroke-width="4.54" stroke-miterlimit="10" stroke-linecap="round"/>
<path d="M607.251 379.722C607.207 379.649 607.191 379.563 607.205 379.479C607.219 379.396 607.263 379.32 607.327 379.265C607.392 379.21 607.473 379.18 607.558 379.179C607.643 379.179 607.725 379.208 607.79 379.262L611.788 382.879C612.008 382.61 612.228 382.35 612.437 382.07C613.688 380.404 614.238 378.315 613.971 376.249C613.704 374.183 612.641 372.302 611.008 371.008L597.186 360.096L578.198 368.09L579.877 385.717C579.979 386.751 580.401 387.726 581.083 388.509C581.765 389.291 582.675 389.842 583.684 390.084C584.764 390.334 586.063 390.584 587.502 390.784L586.273 384.188C586.267 384.125 586.282 384.061 586.317 384.008C586.352 383.954 586.404 383.914 586.464 383.894C586.525 383.875 586.591 383.876 586.65 383.899C586.71 383.921 586.76 383.964 586.793 384.019L590.151 391.063C596.387 391.493 604.352 390.504 610.339 384.498L607.251 379.722Z" fill="#D8D8DD"/>
<path d="M610.149 294.884C614.696 284.791 617.794 273.799 617.204 262.747C617.045 259.65 616.655 256.502 617.324 253.464C617.654 251.955 618.814 250.187 620.323 250.616C620.952 250.862 621.468 251.332 621.772 251.935C622.981 254.13 623.697 256.561 623.871 259.06C624.505 264.14 624.505 269.279 623.871 274.359C624.123 271.086 624.829 267.864 625.969 264.786C626.253 263.677 626.794 262.65 627.548 261.788C627.939 261.364 628.447 261.067 629.008 260.933C629.569 260.8 630.157 260.836 630.696 261.039C631.169 261.354 631.572 261.764 631.88 262.242C632.187 262.72 632.394 263.256 632.485 263.817C633.7 268.283 633.964 272.955 633.26 277.531C632.556 282.106 630.9 286.482 628.398 290.377C629.917 288.379 631.306 286.27 632.825 284.272C633.515 283.372 634.444 282.363 635.564 282.573C636.683 282.783 637.223 284.152 637.303 285.311C637.522 288.539 635.803 291.307 634.234 294.144C629.237 303.138 624.24 306.136 616.245 312.131C608.54 317.907 592.849 327.18 583.265 328.12C584.974 324.922 586.773 321.624 588.482 318.427C588.482 318.427 588.771 318.217 589.271 317.867C592.459 315.539 604.972 306.366 610.149 294.884Z" fill="white"/>
<path d="M622.641 279.325C622.565 278.811 622.354 278.326 622.029 277.921C621.704 277.515 621.277 277.203 620.792 277.017C620.321 276.889 619.828 276.867 619.348 276.952C618.868 277.037 618.412 277.226 618.014 277.507C617.243 278.059 616.568 278.734 616.015 279.505C615.745 279.835 615.485 280.205 615.215 280.564C613.927 285.474 612.222 290.265 610.118 294.884C609.037 297.227 607.724 299.456 606.201 301.539C608.91 300.37 611.409 298.763 613.596 296.783C617.819 292.861 620.845 287.823 622.321 282.253C622.644 281.313 622.753 280.313 622.641 279.325V279.325Z" fill="#CACACA"/>
<path d="M573.131 331.537C566.135 344.318 553.942 353.521 540.9 360.006C538.165 361.487 535.229 362.561 532.185 363.194C529.115 363.819 525.922 363.319 523.19 361.785C522.133 361.175 521.27 360.277 520.702 359.197C520.427 358.654 520.29 358.052 520.302 357.444C520.314 356.836 520.476 356.241 520.772 355.709C521.494 354.719 522.566 354.04 523.77 353.811C524.959 353.511 525.839 353.531 527.038 353.261L527.448 353.161C524.365 353.192 521.307 352.608 518.453 351.442C515.588 350.263 513.149 348.242 511.457 345.647C510.461 344.228 510.026 342.491 510.238 340.77C510.375 339.907 510.814 339.12 511.476 338.549C512.138 337.978 512.982 337.661 513.856 337.653C515.685 337.763 516.914 339.461 518.263 340.7C519.584 341.868 521.174 342.688 522.891 343.089C521.017 342.267 519.341 341.055 517.974 339.533C516.607 338.011 515.582 336.215 514.965 334.265C514.386 332.406 514.386 330.018 516.015 328.959C516.551 328.662 517.155 328.505 517.769 328.505C518.382 328.505 518.986 328.662 519.523 328.959C520.58 329.58 521.52 330.381 522.301 331.327C526.019 335.324 529.856 339.761 535.123 341.32C540.12 342.799 545.497 341.44 550.264 339.371C558.339 335.844 566.784 330.698 571.252 323.083C571.931 324.892 571.252 326.081 572.251 327.76C572.954 328.675 573.399 329.762 573.54 330.908C573.562 331.04 573.533 331.175 573.461 331.287C573.371 331.417 573.231 331.617 573.131 331.537Z" fill="white"/>
<path d="M573.131 331.537C573.23 331.617 573.37 331.417 573.45 331.307C573.523 331.195 573.552 331.06 573.53 330.928C573.389 329.782 572.944 328.695 572.241 327.78C571.342 326.311 571.761 325.162 571.372 323.643L570.822 323.763C569.037 326.544 566.821 329.023 564.256 331.107C564.256 340.101 559.179 345.097 554.731 351.732C562.284 346.446 568.569 339.548 573.131 331.537V331.537Z" fill="#E4E4E4"/>
<path d="M565.045 283.183C570.799 288.959 574.959 296.126 577.118 303.988C579.278 311.849 579.364 320.135 577.368 328.04" stroke="white" stroke-width="11.24" stroke-miterlimit="10"/>
<path d="M571.102 349.044C571.102 349.044 561.407 333.496 570.912 322.264L573.51 321.404C573.51 321.404 575.099 327.45 575.959 327.45L578.197 320.105L589.191 317.847C589.191 317.847 589.191 325.102 596.187 324.103C596.187 324.103 599.185 329.099 592.189 351.083L571.102 349.044Z" fill="#484482"/>
<path d="M575.979 327.29V327.45L574.22 321.105L569.223 322.104C559.719 333.336 571.122 349.084 571.122 349.084H571.412L576.708 341.42L575.979 327.29Z" fill="#413D75"/>
<path d="M576.688 341.41L591.19 351.083L571.102 349.044L576.688 341.41Z" fill="#3A385B"/>
<path d="M549.015 341.03C549.315 340.55 549.605 340.031 549.865 339.551C545.197 341.55 539.95 342.779 535.103 341.34L534.794 341.24C533.587 341.301 532.378 341.278 531.176 341.17C530.448 341.019 529.692 341.078 528.997 341.34C528.613 341.568 528.305 341.904 528.11 342.305C527.914 342.706 527.841 343.156 527.898 343.598C528.036 344.485 528.465 345.3 529.117 345.917C530.771 347.399 532.894 348.251 535.113 348.325C537.111 348.51 539.125 348.278 541.028 347.644C542.931 347.009 544.681 345.985 546.167 344.637C547.264 343.559 548.22 342.347 549.015 341.03V341.03Z" fill="#CACACA"/>
<path d="M571.092 281.354L568.833 282.183L563.237 285.181L561.238 287.349C564.048 290.109 566.409 293.292 568.234 296.783C568.753 291.786 571.881 287.299 573.92 284.871C572.901 283.452 571.921 282.273 571.092 281.354Z" fill="#E4E4E4"/>
<path d="M596.187 324.103C589.191 325.102 589.191 317.847 589.191 317.847V325.102C588.961 330.688 592.189 334.095 596.037 336.174C597.726 326.671 596.187 324.103 596.187 324.103Z" fill="#3A385B"/>
<path d="M567.954 254.583C568.403 257.242 567.384 266.914 567.384 266.914C567.384 266.914 563.266 258.111 562.817 255.443C562.367 252.775 563.157 250.446 564.576 250.187C565.995 249.927 567.504 251.915 567.954 254.583Z" fill="#CACACA"/>
<path d="M571.973 285.966C576.042 279.314 574.835 271.165 569.275 267.764C563.716 264.364 555.909 266.999 551.839 273.651C547.77 280.303 548.977 288.452 554.537 291.853C560.096 295.253 567.903 292.618 571.973 285.966Z" fill="white"/>
<path d="M580.816 257.152C578.507 259.89 566.395 265.895 566.395 265.895C566.395 265.895 570.292 252.955 572.601 250.227C574.909 247.499 578.597 246.819 580.886 248.738C583.175 250.656 583.125 254.424 580.816 257.152Z" fill="white"/>
<path d="M579.626 266.325C576.928 266.974 566.744 265.625 566.744 265.625C566.744 265.625 575.219 259.82 577.917 259.18C580.616 258.541 583.174 259.61 583.644 261.588C584.114 263.567 582.315 265.685 579.626 266.325Z" fill="white"/>
<path d="M552.902 282.963C552.902 282.963 562.337 293.955 561.177 280.345L552.902 282.963Z" fill="#333333"/>
<path d="M561.178 280.345C567.754 277.517 571.402 271.351 569.333 266.495C568.853 265.411 568.119 264.458 567.194 263.717C562.017 262.428 555.921 265.196 552.503 270.832C550.616 273.852 549.819 277.428 550.244 280.964C553.835 282.153 557.744 281.931 561.178 280.345V280.345Z" fill="#5AE6DC"/>
<path d="M561.177 280.345C559.689 279.064 557.962 278.092 556.096 277.483C554.229 276.874 552.261 276.641 550.304 276.797C550.304 276.797 544.897 284.002 533.824 290.087C532.585 290.759 531.623 291.845 531.105 293.155L531.025 293.355L561.177 280.345Z" fill="#F5CD1B"/>
<path d="M561.178 284.202C560.595 284.069 559.996 284.019 559.399 284.052C558.01 284.075 556.686 284.642 555.711 285.631C557.88 287.319 560.618 288.469 561.178 284.202Z" fill="#FF7BAA"/>
<path d="M564.877 275.287C565.507 274.059 565.321 272.707 564.462 272.266C563.602 271.825 562.395 272.463 561.765 273.69C561.135 274.918 561.321 276.27 562.181 276.711C563.04 277.152 564.247 276.514 564.877 275.287Z" fill="black"/>
<path d="M584.194 330.098C585.298 330.098 586.193 329.203 586.193 328.1C586.193 326.996 585.298 326.101 584.194 326.101C583.09 326.101 582.195 326.996 582.195 328.1C582.195 329.203 583.09 330.098 584.194 330.098Z" fill="#737093"/>
<g style="mix-blend-mode:multiply" opacity="0.32">
<path d="M584.194 350.083C584.194 350.083 589.191 338.092 595.577 338.182C596.007 338.182 592.189 352.082 592.189 352.082L573.7 351.582L584.194 350.083Z" fill="#3A385B"/>
</g>
<path d="M554.462 406.332H570.452C570.905 406.332 571.34 406.152 571.661 405.832C571.981 405.511 572.161 405.077 572.161 404.624V380.062L566.854 377.823L566.255 393.991C566.206 395.254 565.76 396.47 564.979 397.464C564.198 398.459 563.123 399.181 561.907 399.527C558.693 400.284 555.769 401.961 553.492 404.354C553.344 404.533 553.251 404.751 553.224 404.982C553.196 405.213 553.236 405.447 553.339 405.656C553.441 405.864 553.601 406.039 553.8 406.159C554 406.279 554.229 406.339 554.462 406.332V406.332Z" fill="#3A3445"/>
<path d="M564.466 376.364L563.216 378.363C563.041 378.666 562.944 379.008 562.935 379.358C562.926 379.708 563.005 380.055 563.165 380.367C563.326 380.678 563.562 380.944 563.852 381.141C564.142 381.337 564.477 381.457 564.825 381.49L574.21 382.49C574.527 382.517 574.846 382.468 575.141 382.347C575.435 382.226 575.696 382.036 575.902 381.794C576.109 381.551 576.254 381.263 576.326 380.953C576.399 380.643 576.396 380.32 576.319 380.012L576.199 378.103L564.466 376.364Z" fill="#9395A6"/>
<path d="M595.967 382.72L600.864 395.58C601.019 395.985 601.089 396.418 601.068 396.851C601.047 397.284 600.936 397.708 600.743 398.096C600.549 398.485 600.277 398.828 599.943 399.105C599.61 399.383 599.222 399.588 598.805 399.707C596.347 400.397 593.139 401.706 591.31 404.174C591.161 404.373 591.071 404.61 591.05 404.858C591.028 405.106 591.077 405.355 591.189 405.577C591.301 405.799 591.472 405.985 591.684 406.115C591.896 406.245 592.14 406.313 592.389 406.312H607.88C608.19 406.31 608.496 406.233 608.77 406.087C609.044 405.941 609.279 405.731 609.454 405.475C609.628 405.218 609.739 404.923 609.774 404.615C609.81 404.306 609.77 403.994 609.659 403.704L601.164 381.85L595.967 382.72Z" fill="#3A3445"/>
<path d="M592.509 381.011V382.41C592.51 382.753 592.59 383.091 592.742 383.399C592.894 383.707 593.115 383.976 593.387 384.185C593.659 384.394 593.975 384.539 594.311 384.607C594.648 384.675 594.996 384.665 595.328 384.578L601.714 382.869C602.093 382.767 602.44 382.567 602.717 382.289C602.995 382.011 603.195 381.664 603.296 381.284C603.397 380.905 603.397 380.505 603.295 380.125C603.192 379.746 602.992 379.4 602.713 379.122L602.004 378.413L592.509 381.011Z" fill="#B6B7C6"/>
<path d="M571.202 351.083C570.952 351.822 551.133 376.554 569.832 379.672C584.194 382.06 588.721 360.756 581.965 351.842L571.202 351.083Z" fill="#9395A6"/>
<path d="M577.818 351.642C577.818 351.642 575.229 383.619 596.806 381.011C596.806 381.011 611.488 380.141 599.395 363.733L595.967 353.531L577.818 351.642Z" fill="#B6B7C6"/>
<path d="M603.683 355.35C602.603 352.652 597.986 351.253 595.907 350.653L595.178 350.333C594.307 349.946 593.371 349.729 592.419 349.694L570.952 348.904C570.606 348.892 570.267 349.006 569.999 349.225C569.731 349.443 569.551 349.752 569.493 350.093L569.273 351.343C569.239 351.542 569.247 351.747 569.298 351.944C569.349 352.14 569.44 352.323 569.567 352.482C569.693 352.64 569.851 352.77 570.032 352.863C570.212 352.956 570.41 353.01 570.612 353.021L592.649 354.22C592.348 356.007 592.556 357.842 593.249 359.517C594.848 363.514 598.476 365.802 601.354 364.653C604.232 363.504 605.272 359.337 603.683 355.35Z" fill="#ED9836"/>
<path d="M603.683 355.35C602.603 352.652 597.986 351.253 595.907 350.653L595.847 350.593C595.398 352.247 595.503 354.002 596.147 355.589C597.526 359.117 600.934 361.095 603.763 359.986C603.99 359.904 604.208 359.797 604.412 359.666C604.487 358.192 604.238 356.718 603.683 355.35V355.35Z" fill="#E0851B"/>
<path d="M587.692 369.569C587.692 369.569 595.687 377.563 600.684 370.568C600.684 370.568 599.685 383.559 587.692 369.569Z" fill="#AAACBE"/>
<path d="M594.358 368.62C593.888 367.741 597.996 371.218 600.274 369.549C600.274 369.549 596.696 373.037 594.358 368.62Z" fill="#AAACBE"/>
<path d="M541.417 288.062C541.924 287.843 542.246 287.461 542.137 287.207C542.028 286.953 541.528 286.925 541.021 287.144C540.514 287.362 540.192 287.745 540.301 287.998C540.411 288.252 540.91 288.28 541.417 288.062Z" fill="#BD9E15"/>
<path d="M-46.6201 97.2695H18.3413C18.3413 97.2695 23.3383 66.2922 -4.64504 71.2885C-4.64504 71.2885 -9.64208 37.3134 -26.632 47.3061C-26.632 47.3061 -29.6302 7.33536 -46.6201 1V97.2695Z" fill="#7D9DF5"/>
<path d="M-47 125.658C-47 125.658 -12.6404 132.243 8.34713 186.204C8.34713 186.204 35.3311 177.21 47.324 219.179C47.324 219.179 78.3056 197.196 86.3008 243.162L100.293 280.135H-46.6202L-47 125.658Z" fill="#7D9DF5"/>
<path d="M164.255 48.3046C164.255 48.3046 140.269 15.3288 114.054 49.8235H110.477C102.863 49.8456 95.4033 51.9687 88.9194 55.959L86.271 57.5578H220.191C220.191 57.5578 184.033 28.0594 164.255 48.3046Z" fill="#B1C5FD"/>
<path opacity="0.25" d="M261.547 0.339996C261.547 0.339996 213.225 33.3158 183.243 132.243C183.243 132.243 254.201 14.3297 366.135 0.339996H261.547Z" fill="url(#paint1_linear)"/>
<path opacity="0.25" d="M117.282 0.339996C117.282 0.339996 50.3222 22.3239 10.3459 117.254L41.3275 110.759C41.3275 110.759 144.266 6.3356 236.212 0.339996H117.282Z" fill="url(#paint2_linear)"/>
<path d="M251.233 310.113H187.271C187.271 310.113 202.262 300.12 211.256 306.116C211.256 306.116 232.244 296.123 251.233 310.113Z" fill="#B1C5FD"/>
<path opacity="0.7" d="M35.1912 154.247L36.3206 156.805C36.3271 156.813 36.3354 156.82 36.345 156.825C36.3545 156.829 36.3649 156.832 36.3755 156.832C36.3861 156.832 36.3965 156.829 36.4061 156.825C36.4156 156.82 36.4239 156.813 36.4305 156.805L37.5598 154.247L40.1083 153.118C40.119 153.113 40.1281 153.105 40.1345 153.096C40.1409 153.086 40.1443 153.075 40.1443 153.063C40.1443 153.051 40.1409 153.04 40.1345 153.03C40.1281 153.02 40.119 153.013 40.1083 153.008L37.5898 151.889L36.4605 149.341C36.4558 149.33 36.4481 149.321 36.4383 149.314C36.4286 149.308 36.4172 149.305 36.4055 149.305C36.3938 149.305 36.3824 149.308 36.3726 149.314C36.3629 149.321 36.3552 149.33 36.3505 149.341L35.2212 151.889L32.6727 153.018C32.662 153.023 32.6529 153.03 32.6465 153.04C32.6401 153.05 32.6367 153.061 32.6367 153.073C32.6367 153.084 32.6401 153.096 32.6465 153.106C32.6529 153.115 32.662 153.123 32.6727 153.128L35.2212 154.257L35.1912 154.247Z" fill="white"/>
<path opacity="0.33" d="M105.809 321.424L105.2 323.003L106.779 322.404L108.358 323.003L107.758 321.424L108.358 319.846L106.779 320.455L105.2 319.846C105.2 319.846 105.15 319.846 105.2 319.846L105.809 321.424Z" fill="white"/>
<path opacity="0.58" d="M66.4627 373.067C66.4627 373.067 92.7571 385.118 93.8565 415.795C93.8565 415.795 109.197 409.22 112.485 426.787C112.485 426.787 144.257 408.161 149.733 456.366C149.733 456.366 161.147 451.979 166.943 464.03H-46.6201V373.097L66.4627 373.067Z" fill="white"/>
<path opacity="0.28" d="M71.3097 437.02C71.3097 437.02 104.29 409.04 109.287 434.022C109.287 434.022 127.696 424.829 146.365 440.677C136.491 412.698 112.485 426.757 112.485 426.757C109.197 409.22 93.8563 415.765 93.8563 415.765C92.8569 388.046 71.3097 375.545 67.1521 373.386L23.3381 387.056C24.3375 388.056 71.3097 409.04 71.3097 437.02Z" fill="white"/>
<path opacity="0.13" d="M-1.64693 198.195C9.67339 192.34 22.848 191.191 35.0113 194.997C22.6187 181.457 8.34714 186.204 8.34714 186.204C-12.6404 132.243 -47 125.658 -47 125.658V131.474C-35.9266 141.566 -3.30594 173.323 -1.64693 198.195Z" fill="white"/>
<path d="M52.321 391.053L58.6273 405.223C58.8432 405.71 59.1573 406.147 59.55 406.507C59.9427 406.866 60.4054 407.141 60.9093 407.314C61.4131 407.486 61.9472 407.553 62.478 407.51C63.0088 407.466 63.525 407.314 63.9941 407.062L72.7489 402.355C73.1235 402.154 73.5287 402.015 73.9482 401.945L76.5367 401.516C77.342 401.378 78.0834 400.99 78.6557 400.407C79.228 399.824 79.6021 399.076 79.7248 398.268L81.9734 383.279C82.0795 382.615 82.3563 381.989 82.7768 381.464C83.1972 380.938 83.7469 380.531 84.372 380.281L87.3003 379.102L89.9087 371.308C90.0304 370.937 90.2376 370.6 90.5137 370.324C90.7897 370.048 91.1268 369.841 91.4978 369.719L96.2949 368.11L104.29 357.118H69.3909L52.321 391.053Z" fill="#613543"/>
<path d="M76.8665 300.14H58.5374V354.16H75.927V302.069H76.9264C77.1382 302.011 77.3251 301.886 77.4583 301.711C77.5916 301.537 77.6638 301.324 77.6638 301.104C77.6638 300.885 77.5916 300.672 77.4583 300.497C77.3251 300.323 77.1382 300.198 76.9264 300.14H76.8665Z" fill="#B78AFA"/>
<path d="M79.7547 335.834H87.4801V344.518H89.409V346.446H92.2973V353.191H72.0393L75.5972 335.834H79.7547Z" fill="#857AFA"/>
<path d="M52.7507 290.497V273.13H29.5945L34.4216 353.191H50.8219V355.12H59.4967V290.497H52.7507Z" fill="#857AFA"/>
<path d="M43.0866 326.87C41.9373 333.126 41.3476 345.477 48.0836 353.191L68.6114 356.249C77.0764 353.741 84.2022 345.527 86.171 334.785C87.4333 328.362 86.5043 321.701 83.5326 315.869C83.2901 315.428 82.9075 315.081 82.4454 314.882C81.9834 314.684 81.4682 314.645 80.9816 314.772C80.4951 314.9 80.065 315.186 79.7594 315.585C79.4539 315.985 79.2905 316.475 79.2951 316.978V317.048C79.1952 321.524 76.7266 323.043 74.458 322.454C72.1893 321.864 70.2804 318.716 70.3804 314.23C70.4025 312.473 70.7692 310.739 71.4598 309.123C71.6505 308.721 71.7493 308.282 71.7489 307.837C71.7485 307.391 71.6491 306.952 71.4577 306.55C71.2663 306.148 70.9878 305.794 70.6424 305.513C70.297 305.232 69.8934 305.032 69.4609 304.927H69.391C57.498 302.778 45.715 312.561 43.0866 326.87ZM71.7996 327.08C72.0395 326.605 72.415 326.213 72.8784 325.951C73.3419 325.69 73.8725 325.572 74.4031 325.612C74.9336 325.653 75.4403 325.849 75.8589 326.178C76.2774 326.506 76.5891 326.952 76.7544 327.457C76.9198 327.963 76.9313 328.506 76.7875 329.019C76.6438 329.531 76.3513 329.989 75.947 330.335C75.5427 330.681 75.0448 330.899 74.5165 330.962C73.9881 331.025 73.453 330.929 72.9789 330.688C72.6631 330.53 72.3818 330.311 72.1512 330.044C71.9207 329.776 71.7455 329.466 71.6358 329.13C71.5261 328.795 71.4841 328.441 71.5122 328.089C71.5403 327.737 71.638 327.394 71.7996 327.08Z" fill="#E39E29"/>
<path d="M41.6073 326.87C40.458 333.126 39.8684 345.477 46.6044 353.191L67.1322 356.249C75.5872 353.741 82.7129 345.527 84.6918 334.785C85.9455 328.36 85.0132 321.702 82.0433 315.869C81.8009 315.428 81.4183 315.081 80.9562 314.882C80.4941 314.684 79.9789 314.645 79.4924 314.772C79.0058 314.9 78.5757 315.186 78.2702 315.585C77.9647 315.985 77.8013 316.475 77.8058 316.978V317.048C77.7059 321.524 75.2374 323.043 72.9687 322.454C70.7001 321.864 68.7912 318.716 68.8911 314.23C68.9133 312.473 69.28 310.739 69.9705 309.123C70.1612 308.721 70.26 308.282 70.2597 307.837C70.2593 307.391 70.1598 306.952 69.9684 306.55C69.777 306.148 69.4985 305.794 69.1531 305.513C68.8078 305.232 68.4042 305.032 67.9717 304.927H67.9317C56.0188 302.778 44.2358 312.561 41.6073 326.87ZM70.3203 327.08C70.5602 326.605 70.9357 326.213 71.3992 325.951C71.8627 325.69 72.3933 325.572 72.9238 325.612C73.4544 325.653 73.961 325.849 74.3796 326.178C74.7982 326.506 75.1099 326.952 75.2752 327.457C75.4405 327.963 75.452 328.506 75.3083 329.019C75.1645 329.531 74.872 329.989 74.4677 330.335C74.0634 330.681 73.5656 330.899 73.0372 330.962C72.5089 331.025 71.9737 330.929 71.4996 330.688C71.1838 330.53 70.9025 330.311 70.672 330.044C70.4414 329.776 70.2662 329.466 70.1566 329.13C70.0469 328.795 70.0049 328.441 70.033 328.089C70.0611 327.737 70.1587 327.394 70.3203 327.08Z" fill="#F6CF56"/>
<path opacity="0.55" d="M55.7889 315.259C57.5578 315.109 59.8465 315.359 59.2568 318.047C58.9599 319.08 58.2997 319.97 57.3979 320.555C56.5518 321.157 55.8489 321.939 55.3392 322.843V322.843C54.2798 324.622 52.4209 325.521 51.1816 324.842C49.9424 324.162 49.8024 322.194 50.8618 320.415C51.1325 319.955 51.4692 319.538 51.8612 319.176C52.3877 318.661 52.7761 318.022 52.9906 317.317C53.2111 316.743 53.592 316.243 54.088 315.878C54.5841 315.513 55.1744 315.298 55.7889 315.259V315.259Z" fill="#67E694"/>
<path d="M41.3775 335.054C42.207 338.142 45.4951 337.623 48.5533 336.793C51.6114 335.964 53.2705 335.174 52.441 332.077C52.2441 331.35 51.9061 330.67 51.4462 330.074C50.9863 329.478 50.4136 328.979 49.7607 328.605C48.4422 327.849 46.8772 327.647 45.4101 328.045C43.943 328.442 42.694 329.406 41.9377 330.724C41.1814 332.043 40.9799 333.608 41.3775 335.074V335.054Z" fill="#BBB0D9"/>
<path opacity="0.55" d="M72.1991 344.747C73.7982 344.657 74.3878 343.438 75.0974 342.489C75.4672 341.999 75.0974 342.489 76.3966 341.39C79.075 339.142 74.2779 338.392 71.8693 338.512C69.4607 338.632 67.5819 340.141 67.6718 341.86C67.7617 343.578 69.7905 344.877 72.1991 344.747Z" fill="#FF82B3"/>
<path opacity="0.55" d="M59.4168 337.363C58.1671 337.213 56.9092 337.566 55.9197 338.344C54.9302 339.122 54.29 340.26 54.1399 341.51C53.8801 344.078 55.5791 348.695 58.2375 348.964C60.8959 349.234 63.4944 345.057 63.7542 342.499C63.9841 340.181 61.8154 342.209 61.0858 341.29C60.3562 340.371 60.786 337.503 59.4168 337.363Z" fill="#FF8280"/>
<path d="M13.4542 229.442C13.4542 232.381 12.2865 235.2 10.2079 237.278C8.12939 239.356 5.31028 240.524 2.37077 240.524C-0.568732 240.524 -3.38785 239.356 -5.46639 237.278C-7.54493 235.2 -8.71265 232.381 -8.71265 229.442C-8.71265 224.136 -0.377596 217.201 1.83109 215.452C1.9847 215.331 2.17486 215.264 2.37077 215.264C2.56668 215.264 2.75685 215.331 2.91045 215.452C5.11914 217.201 13.4542 224.136 13.4542 229.442Z" fill="#FAEA94"/>
<path d="M11.2855 235.997C-2.00663 234.338 -4.83495 225.395 -5.40461 222.437C-7.25352 224.725 -8.71265 227.224 -8.71265 229.432C-8.70998 231.763 -7.97176 234.033 -6.60315 235.92C-5.23454 237.806 -3.30536 239.213 -1.09041 239.94C1.12454 240.666 3.51227 240.675 5.73262 239.965C7.95298 239.256 9.89271 237.863 11.2755 235.987L11.2855 235.997Z" fill="#F2C377"/>
<path opacity="0.49" d="M1.84105 215.452C-0.388242 217.208 -2.47058 219.143 -4.38525 221.238L-2.03665 220.768C-1.89876 220.735 -1.75533 220.731 -1.61587 220.757C-1.47642 220.783 -1.34415 220.839 -1.22786 220.92C-1.11157 221.002 -1.01392 221.107 -0.941421 221.229C-0.868921 221.351 -0.823224 221.487 -0.807375 221.628L-0.497562 223.486C-0.491907 223.71 -0.411107 223.926 -0.268145 224.098C-0.125183 224.271 0.0716445 224.391 0.29072 224.438C0.509796 224.485 0.738401 224.457 0.939818 224.359C1.14123 224.261 1.30377 224.098 1.40131 223.896L2.82047 221.767C2.90955 221.621 3.03498 221.499 3.18466 221.415C3.33433 221.331 3.5032 221.286 3.67496 221.286C3.84673 221.286 4.0156 221.331 4.16527 221.415C4.31495 221.499 4.44037 221.621 4.52946 221.767C4.64383 221.975 4.82826 222.135 5.04982 222.219C5.27138 222.304 5.51565 222.306 5.73902 222.227C5.96239 222.148 6.15032 221.992 6.26926 221.787C6.3882 221.582 6.43041 221.341 6.38835 221.108V220.908C6.3834 220.753 6.41467 220.599 6.47969 220.458C6.54471 220.317 6.64169 220.193 6.76293 220.096C6.88417 219.999 7.02634 219.932 7.17817 219.899C7.32999 219.867 7.4873 219.87 7.63761 219.909L7.91745 219.969C6.34662 218.368 4.67772 216.866 2.92041 215.472C2.76987 215.346 2.58065 215.275 2.38426 215.272C2.18787 215.268 1.99616 215.332 1.84105 215.452Z" fill="#FF6135"/>
<path d="M11.2654 242.462H-5.37476L-3.62579 237.906H9.5164L11.2654 242.462Z" fill="#FFF0DB"/>
<path d="M5.55879 242.462H-6.28418L-4.46526 237.906H3.73987L5.55879 242.462Z" fill="#FECCAF"/>
<path d="M11.6051 240.524H-6.86395C-10.0621 240.524 -12.5906 243.811 -12.3507 247.239L-8.66288 304.197C-8.55579 305.979 -7.77171 307.652 -6.47116 308.874C-5.17061 310.096 -3.45196 310.775 -1.66703 310.772H5.26885C7.03124 310.778 8.73084 310.118 10.0278 308.925C11.3249 307.732 12.1237 306.093 12.2647 304.337L17.0518 246.999C17.1581 246.206 17.0978 245.399 16.8748 244.631C16.6517 243.862 16.2708 243.148 15.7564 242.535C15.2419 241.922 14.6053 241.423 13.887 241.07C13.1688 240.717 12.3848 240.517 11.5851 240.484L11.6051 240.524Z" fill="#4972E5"/>
<path d="M14.3435 284.132L-2.47655 240.524H-6.86395C-10.0621 240.524 -12.5906 243.811 -12.3507 247.239L-8.66288 304.197C-8.55579 305.979 -7.77171 307.652 -6.47116 308.874C-5.17061 310.096 -3.45196 310.775 -1.66703 310.772H5.32881C6.33852 310.774 7.33655 310.556 8.25433 310.135C9.17211 309.715 9.9879 309.1 10.6457 308.334L12.3546 304.067L14.3435 284.132Z" fill="#394ED4"/>
<path d="M42.6268 284.711H6.92798V352.232H42.6268V284.711Z" fill="#FFEACF"/>
<path d="M43.3264 352.232H6.92798V284.711H9.34654L43.3264 352.232Z" fill="#FFD4F8"/>
<path d="M41.6574 282.163L40.1383 281.104C39.2572 280.483 38.4313 279.788 37.6698 279.026L24.7674 266.125L10.7258 280.175L7.88745 282.173L41.6574 282.163Z" fill="#C74E7E"/>
<path d="M9.45654 283.332L17.052 283.742L25.3371 266.145L22.8386 267.344L9.45654 281.404" fill="#B83F6E"/>
<path d="M45.505 279.885H4.02963C2.42895 279.885 1.13135 281.18 1.13135 282.778C1.13135 284.375 2.42895 285.671 4.02963 285.671H45.505C47.1057 285.671 48.4033 284.375 48.4033 282.778C48.4033 281.18 47.1057 279.885 45.505 279.885Z" fill="#E46A9B"/>
<path d="M24.7674 268.313C26.8979 268.313 28.6251 266.586 28.6251 264.456C28.6251 262.326 26.8979 260.599 24.7674 260.599C22.6368 260.599 20.9097 262.326 20.9097 264.456C20.9097 266.586 22.6368 268.313 24.7674 268.313Z" fill="#E46A9B"/>
<path d="M23.8078 306.895H-32.1489V353.191H23.8078V306.895Z" fill="#FEC4A3"/>
<path d="M10.2959 332.936H6.43823V353.191H10.2959V332.936Z" fill="#F2A477"/>
<path d="M1.94096 332.936H-1.91675V353.191H1.94096V332.936Z" fill="#F2A477"/>
<path d="M-46.6201 357.078V434.022L-19.6361 447.012L3.35021 450.01L15.3431 437.02L21.3395 435.521C23.2017 435.053 24.9343 434.171 26.4085 432.941C27.8827 431.711 29.0606 430.164 29.8545 428.416L42.2971 401.046L59.287 395.051L61.6656 389.515C62.0746 388.566 62.7476 387.754 63.6044 387.176L69.7308 383.099C70.7358 382.431 71.4831 381.441 71.8495 380.291L79.2751 357.078H-46.6201Z" fill="#69404F"/>
<path d="M26.2166 302.069H-34.5573C-36.4229 302.069 -37.9353 303.581 -37.9353 305.446C-37.9353 307.312 -36.4229 308.824 -34.5573 308.824H26.2166C28.0822 308.824 29.5946 307.312 29.5946 305.446C29.5946 303.581 28.0822 302.069 26.2166 302.069Z" fill="#749AF7"/>
<path d="M-13.4639 330.758H23.5741C23.985 330.758 24.379 330.921 24.6695 331.211C24.96 331.502 25.1232 331.896 25.1232 332.306V332.306C25.1232 332.717 24.96 333.111 24.6695 333.402C24.379 333.692 23.985 333.855 23.5741 333.855H-13.4639V330.758Z" fill="#E46A9B"/>
<path d="M13.674 319.046C14.0583 319.046 14.4269 319.199 14.6987 319.471C14.9705 319.742 15.1231 320.111 15.1231 320.495V324.252H12.2249V320.495C12.2249 320.111 12.3775 319.742 12.6493 319.471C12.9211 319.199 13.2897 319.046 13.674 319.046V319.046Z" fill="#F2A477"/>
<path d="M8.85673 312.301C9.04789 312.302 9.23689 312.342 9.41287 312.416C9.58885 312.491 9.74831 312.6 9.88208 312.736C10.0159 312.873 10.1213 313.034 10.1923 313.212C10.2633 313.389 10.2985 313.579 10.2959 313.77V317.527H7.3976V313.77C7.39493 313.577 7.43078 313.386 7.50304 313.207C7.5753 313.028 7.68252 312.866 7.81841 312.729C7.9543 312.592 8.11614 312.484 8.29444 312.41C8.47273 312.337 8.66389 312.3 8.85673 312.301V312.301Z" fill="#F2A477"/>
<path d="M18.5011 312.301C18.6939 312.3 18.8851 312.337 19.0633 312.41C19.2416 312.484 19.4035 312.592 19.5394 312.729C19.6753 312.866 19.7825 313.028 19.8547 313.207C19.927 313.386 19.9628 313.577 19.9602 313.77V317.527H17.0619V313.77C17.0593 313.579 17.0945 313.389 17.1655 313.212C17.2365 313.034 17.3419 312.873 17.4757 312.736C17.6095 312.6 17.7689 312.491 17.9449 312.416C18.1209 312.342 18.3099 312.302 18.5011 312.301Z" fill="#F2A477"/>
<path d="M23.668 341.75C24.5489 341.76 25.3897 342.119 26.0061 342.749C26.6224 343.378 26.9641 344.226 26.9561 345.107V352.232H20.34V345.107C20.336 344.668 20.4192 344.232 20.5847 343.825C20.7501 343.417 20.9946 343.047 21.3041 342.735C21.6135 342.423 21.9817 342.175 22.3875 342.006C22.7932 341.837 23.2284 341.75 23.668 341.75V341.75Z" fill="#E46A9B"/>
<path d="M33.1725 341.75C34.0552 341.75 34.9017 342.1 35.5258 342.724C36.1499 343.348 36.5005 344.195 36.5005 345.077V352.202H29.8445V345.077C29.8445 344.195 30.1951 343.348 30.8192 342.724C31.4434 342.1 32.2899 341.75 33.1725 341.75V341.75Z" fill="#E46A9B"/>
<path d="M42.6667 341.75C43.5493 341.75 44.3958 342.1 45.0199 342.724C45.6441 343.348 45.9947 344.195 45.9947 345.077V352.202H39.3486V345.077C39.3486 344.196 39.6979 343.351 40.3199 342.728C40.9418 342.104 41.7857 341.752 42.6667 341.75V341.75Z" fill="#E46A9B"/>
<path d="M3.35019 450.01L6.89808 434.072C7.03458 433.485 6.96864 432.87 6.71098 432.326C6.45332 431.781 6.0191 431.34 5.47892 431.074L4.28963 430.475C3.93454 430.297 3.6234 430.043 3.37873 429.73C3.13406 429.417 2.96197 429.054 2.87493 428.667C2.78788 428.279 2.78805 427.878 2.87544 427.49C2.96282 427.103 3.13522 426.74 3.38017 426.428L11.8152 415.695C12.1644 415.256 12.3641 414.717 12.3848 414.157L14.2637 372.837C14.2896 372.309 14.4701 371.8 14.7829 371.373C15.0956 370.947 15.5267 370.622 16.0227 370.439L24.6375 367.311C25.0969 367.143 25.5013 366.853 25.8068 366.471L29.1349 362.315C29.2703 362.147 29.4245 361.997 29.5946 361.865L35.8309 357.058H6.37839L8.29725 371.638C8.34217 371.909 8.34217 372.186 8.29725 372.457L1.57124 409.94C1.4419 410.634 1.04765 411.25 0.471896 411.658L-7.47339 417.214C-7.82807 417.461 -8.11784 417.79 -8.31797 418.172C-8.5181 418.555 -8.62265 418.981 -8.6227 419.413V425.089C-8.62168 425.687 -8.82238 426.267 -9.19236 426.737L-23.6338 445.094L-19.6362 447.012L3.35019 450.01Z" fill="#613544"/>
<path d="M42.3269 401.046L51.3216 374.066L54.3198 380.061L51.8213 397.699L42.3269 401.046Z" fill="#613544"/>
<path d="M-46.6201 352.082H99.2933C100.619 352.082 101.89 352.608 102.827 353.545C103.764 354.482 104.29 355.753 104.29 357.078V357.078H-46.6201V352.082Z" fill="#81C793"/>
<path d="M-46.6201 464V383.059C-46.6201 383.059 -24.6332 378.663 -24.6332 418.034C-24.6332 418.034 -6.64385 416.765 -6.64385 443.015C-6.64385 443.015 17.8216 448.491 29.7545 464H-46.6201Z" fill="white"/>
<path d="M5.34898 354.081H-0.647461L12.3448 359.077L24.3377 361.075L38.3294 355.08L5.34898 354.081Z" fill="#81C793"/>
<path d="M79.8547 242.752V231.44C79.8554 229.835 80.3521 228.268 81.2769 226.955C82.2018 225.642 83.5096 224.647 85.0216 224.106L92.9269 221.288V205.409H103.201V219.399H105.38C105.831 219.399 106.277 219.488 106.694 219.661C107.11 219.834 107.489 220.087 107.807 220.407C108.125 220.726 108.378 221.105 108.549 221.522C108.721 221.939 108.809 222.386 108.807 222.837V249.287H79.8247L79.8547 242.752Z" fill="#B587FA"/>
<path d="M103.201 205.409H92.927V238.086H103.201V205.409Z" fill="#FECCAF"/>
<path d="M96.6648 205.409H92.927V235.288H96.6648V205.409Z" fill="#F2B08A"/>
<path d="M103.211 204.48H92.927C92.4137 204.48 91.9976 204.896 91.9976 205.409V205.419C91.9976 205.933 92.4137 206.349 92.927 206.349H103.211C103.724 206.349 104.14 205.933 104.14 205.419V205.409C104.14 204.896 103.724 204.48 103.211 204.48Z" fill="#E484AB"/>
<path d="M101.333 211.015H100.403V212.884H101.333V211.015Z" fill="#F2B08A"/>
<path d="M101.333 214.753H100.403V216.621H101.333V214.753Z" fill="#F2B08A"/>
<path d="M101.333 218.48H100.403V220.349H101.333V218.48Z" fill="#F2B08A"/>
<path d="M115.823 214.753H119.511C119.888 214.753 120.249 214.902 120.515 215.168C120.781 215.434 120.93 215.795 120.93 216.172V239.025H114.404V216.172C114.404 215.795 114.554 215.434 114.82 215.168C115.086 214.902 115.447 214.753 115.823 214.753V214.753Z" fill="#7C70FA"/>
<path d="M122.339 228.692C123.206 228.692 124.037 229.037 124.65 229.649C125.263 230.262 125.607 231.093 125.607 231.96V249.227H119.071V231.95C119.074 231.085 119.419 230.257 120.032 229.646C120.645 229.035 121.474 228.692 122.339 228.692V228.692Z" fill="#857AFA"/>
<path d="M115.344 225.954H108.807V250.227H115.344V225.954Z" fill="#ED988D"/>
<path d="M108.807 225.015H115.343C115.59 225.015 115.826 225.113 116.001 225.287C116.175 225.462 116.273 225.698 116.273 225.944C116.273 226.191 116.175 226.427 116.001 226.602C115.826 226.776 115.59 226.874 115.343 226.874H108.807V225.005V225.015Z" fill="#E484AB"/>
<path d="M114.404 233.419H117.962C118.492 233.419 119.001 233.63 119.376 234.004C119.75 234.379 119.961 234.887 119.961 235.417V236.177H114.404V233.379V233.419Z" fill="#335DD4"/>
<path d="M116.273 235.288H124.978C126.383 235.288 127.73 235.846 128.723 236.839C129.717 237.832 130.275 239.179 130.275 240.584V249.287H116.283V235.298L116.273 235.288Z" fill="#335DD4"/>
<path d="M73.4585 249.287C73.4585 249.287 75.1875 237.156 78.9252 242.752C78.9252 242.752 81.7236 228.762 84.5219 237.156C84.5219 237.156 85.4614 233.419 87.3303 236.217C87.3303 236.217 92.9269 217.551 100.402 233.419L98.5336 249.287H73.4585Z" fill="#4A849A"/>
<path d="M98.6035 240.893H83.6624V249.297H98.6035V240.893Z" fill="#FECCAF"/>
<path d="M87.4001 240.893H83.6624V249.297H87.4001V240.893Z" fill="#F2B08A"/>
<path d="M94.7959 240.893H82.6531C82.1398 240.893 81.7236 241.31 81.7236 241.823V241.833C81.7236 242.346 82.1398 242.762 82.6531 242.762H94.7959C95.3092 242.762 95.7253 242.346 95.7253 241.833V241.823C95.7253 241.31 95.3092 240.893 94.7959 240.893Z" fill="#E484AB"/>
<path d="M97.3042 250.866C95.7762 248.985 94.8145 246.709 94.5312 244.302C94.2479 241.896 94.6548 239.458 95.7043 237.274C96.7538 235.09 98.4027 233.249 100.459 231.966C102.515 230.683 104.893 230.011 107.317 230.028C109.74 230.045 112.109 230.751 114.146 232.063C116.184 233.375 117.807 235.239 118.825 237.438C119.844 239.637 120.216 242.08 119.898 244.482C119.581 246.884 118.587 249.147 117.033 251.006L97.3042 250.866Z" fill="#A0F995"/>
<path d="M100.972 245.71C104.09 246.479 104.09 250.377 104.09 250.377H107.988C107.988 248.038 105.649 243.382 101.752 243.382C98.7036 243.382 96.1351 240.044 95.1657 238.595C94.8089 239.605 94.5839 240.656 94.4961 241.723C96.1116 243.78 98.4079 245.194 100.972 245.71Z" fill="white"/>
<path d="M114.224 244.931C114.638 244.931 115.034 245.095 115.327 245.387C115.619 245.679 115.783 246.076 115.783 246.489V251.166H112.665V246.489C112.665 246.076 112.83 245.679 113.122 245.387C113.414 245.095 113.811 244.931 114.224 244.931Z" fill="#86D17D"/>
<path d="M69.311 252.155L75.3075 271.141L76.6567 275.838C76.8606 276.554 77.2261 277.214 77.7251 277.766C78.2241 278.319 78.8433 278.75 79.535 279.026L87.3004 282.133L96.8147 292.596C97.1315 292.94 97.5409 293.187 97.994 293.305L103.351 294.644C103.902 294.781 104.484 294.726 105 294.488C105.516 294.25 105.935 293.843 106.189 293.335L112.006 281.714C112.834 280.051 114.226 278.738 115.933 278.006L127.277 273.14L134.272 252.155H69.311Z" fill="#6C4C78"/>
<path d="M126.837 241.823H126.167V244.621H126.837V241.823Z" fill="#2C4FB5"/>
<path d="M127.847 241.823H127.177V244.621H127.847V241.823Z" fill="#2C4FB5"/>
<path d="M78.3057 251.156L83.3027 267.144L88.2997 271.141V277.137L90.9382 286.13L93.9164 289.408L95.2956 279.135L100.293 267.144L97.2944 259.15L101.292 250.157L78.3057 251.156Z" fill="#63496E"/>
<path d="M117.283 251.156L115.284 260.149V275.138L120.281 261.149V258.151L123.279 255.153L124.278 251.156H117.283Z" fill="#63496E"/>
<path d="M72.3093 249.157H131.274C132.069 249.157 132.832 249.473 133.394 250.035C133.957 250.598 134.272 251.36 134.272 252.155V252.155H69.311C69.311 251.36 69.6269 250.598 70.1892 250.035C70.7515 249.473 71.5141 249.157 72.3093 249.157V249.157Z" fill="#7ECEB8"/>
<path d="M138.77 85.1476H139.529C139.858 85.1476 140.173 85.2782 140.406 85.5105C140.638 85.7429 140.769 86.0581 140.769 86.3867V92.6421H138.77V85.1476Z" fill="#3458BF"/>
<path d="M139.269 82.1498H135.771V92.6421H139.269V82.1498Z" fill="#3458BF"/>
<path d="M142.268 92.6421H131.274L132.274 98.1381L134.372 99.8668C134.637 100.042 134.85 100.283 134.992 100.566L135.771 102.135L136.631 104.713C136.65 104.766 136.679 104.815 136.717 104.857C136.755 104.899 136.801 104.933 136.852 104.957C136.903 104.981 136.958 104.995 137.015 104.998C137.071 105.001 137.127 104.992 137.181 104.973L139.269 104.134L139.769 100.137C140.179 99.253 140.681 98.4156 141.268 97.6385L142.268 92.6421Z" fill="#3057BD"/>
<path d="M135.771 89.1447C134.844 89.1447 133.954 89.5132 133.298 90.1691C132.642 90.825 132.273 91.7145 132.273 92.6421H139.269C139.269 91.7145 138.901 90.825 138.245 90.1691C137.589 89.5132 136.699 89.1447 135.771 89.1447V89.1447Z" fill="#395FCC"/>
<path opacity="0.55" d="M154.051 380.261V383.439L119.141 380.261H154.051Z" fill="url(#paint3_linear)"/>
<path d="M157.419 380.261L158.168 372.577L162.076 380.251L157.419 380.261Z" fill="#8CA7F5"/>
<path d="M162.346 380.251V376.254L165.584 379.892L162.346 380.251Z" fill="#8CA7F5"/>
<path d="M155.11 379.892L158.718 380.471V374.456L155.11 379.892Z" fill="#8CA7F5"/>
<path d="M152.991 379.202L167.253 379.522L163.575 381.321L162.076 382.4C160.891 383.37 159.41 383.906 157.878 383.919H154.32C154.074 383.919 153.833 383.854 153.619 383.732C153.406 383.61 153.228 383.434 153.104 383.222C152.98 383.01 152.913 382.769 152.911 382.523C152.909 382.277 152.971 382.035 153.091 381.82L152.991 379.202Z" fill="#3C36A8"/>
<path d="M162.735 381.85L153.231 381.48L153.041 381.82C152.921 382.035 152.859 382.277 152.861 382.523C152.863 382.769 152.93 383.01 153.054 383.222C153.178 383.434 153.356 383.61 153.569 383.732C153.783 383.854 154.024 383.919 154.27 383.919H157.878C159.427 383.917 160.927 383.381 162.126 382.4L162.735 381.85Z" fill="#322CA8"/>
<path d="M153.951 381.6L155.19 383.329H155.969L155.37 381.6H153.951Z" fill="#2B25A8"/>
<path d="M155.969 381.271H151.942V381.921H155.969V381.271Z" fill="#244CBF"/>
<path d="M114.284 121.251C117.596 121.251 120.281 118.567 120.281 115.256C120.281 111.944 117.596 109.26 114.284 109.26C110.973 109.26 108.288 111.944 108.288 115.256C108.288 118.567 110.973 121.251 114.284 121.251Z" fill="#2F4FAD"/>
<path d="M105.29 115.256H122.279L124.278 124.249L122.279 128.246L119.281 131.244L118.572 134.811C118.494 135.198 118.272 135.54 117.951 135.768C117.629 135.996 117.233 136.094 116.843 136.04L111.286 135.241L108.288 125.248L106.749 125.638C106.429 125.724 106.094 125.743 105.767 125.694C105.439 125.645 105.125 125.529 104.844 125.354C104.563 125.179 104.321 124.948 104.133 124.675C103.945 124.403 103.814 124.094 103.75 123.769L103.241 121.251L105.29 115.256Z" fill="#2C56C7"/>
<path d="M114.284 112.258C115.344 112.258 116.361 111.837 117.111 111.087C117.861 110.337 118.282 109.321 118.282 108.261H110.287C110.287 109.321 110.708 110.337 111.457 111.087C112.207 111.837 113.224 112.258 114.284 112.258Z" fill="#2F4FAD"/>
<path d="M111.996 268.144H157.259C157.259 268.144 154.34 263.237 150.033 264.296C150.033 264.296 150.033 259.77 144.566 261.868C144.566 261.868 138.08 250.227 127.456 263.537C127.456 263.537 117.542 264.646 111.996 268.144Z" fill="white"/>
<path d="M49.8225 74.2856H51.3516C52.8015 74.2856 54.192 74.8614 55.2172 75.8865C56.2424 76.9116 56.8184 78.3019 56.8184 79.7516V88.745H49.8225V74.2856Z" fill="#707AFA"/>
<path d="M53.3204 90.2738H-24.6333L-18.6369 98.268L-11.641 100.267L-8.9726 104.923C-8.10869 106.437 -6.69509 107.561 -5.02494 108.061L5.38887 111.258L6.38828 116.255L11.3853 122.25L13.3841 128.246L25.377 132.243L29.3746 131.244L31.3734 122.25L77.3461 103.264L74.3479 93.2716L53.3204 90.2738Z" fill="#464878"/>
<path d="M29.9544 90.2739L27.6257 91.9326C26.7051 92.5917 26.0355 93.5439 25.7269 94.6332C25.4182 95.7224 25.4887 96.8843 25.9268 97.9282L27.3359 101.216L42.327 112.208L45.1354 116.505L77.3062 103.214L74.308 93.2217L63.3146 90.2239L29.9544 90.2739Z" fill="#3F4170"/>
<path d="M-3.32593 90.2738L-2.32652 92.6121C-1.87387 93.6792 -1.06014 94.5529 -0.0278864 95.0803L6.34833 98.268L9.17665 101.805C9.32478 101.989 9.51003 102.14 9.72029 102.247C9.93054 102.355 10.1611 102.416 10.3969 102.429C10.6327 102.441 10.8684 102.403 11.0886 102.318C11.3089 102.233 11.5088 102.103 11.6752 101.935V101.935C12.1727 101.441 12.8039 101.103 13.4911 100.963C14.1782 100.823 14.8914 100.886 15.5429 101.146L18.3412 102.265L19.3406 112.258L24.3376 120.252L25.3371 132.243L29.3347 131.244L31.3335 122.25L27.3359 114.256L25.2271 112.148C24.6503 111.572 24.2573 110.838 24.0978 110.039L22.3388 101.266L19.3406 94.2709L20.4799 90.2738H-3.32593Z" fill="#3F4170"/>
<path d="M11.0854 35.9736H17.8115C18.7498 35.9736 19.6496 36.3463 20.3131 37.0097C20.9766 37.6731 21.3494 38.5729 21.3494 39.511V47.1654H11.0854V35.9736Z" fill="#DB86C7"/>
<path d="M5.96847 25.7211H5.31885L3.96966 18.5264C3.94953 18.4381 3.9 18.3593 3.82919 18.3028C3.75837 18.2463 3.67047 18.2155 3.57989 18.2155C3.4893 18.2155 3.4014 18.2463 3.33059 18.3028C3.25978 18.3593 3.21025 18.4381 3.19012 18.5264L1.97084 25.7211H1.27126C0.59976 25.7198 -0.0654042 25.8509 -0.686164 26.107C-1.30692 26.363 -1.87109 26.7389 -2.34638 27.2132C-2.82166 27.6875 -3.19873 28.2508 -3.456 28.871C-3.71328 29.4912 -3.8457 30.156 -3.8457 30.8274V31.8267C-3.8457 32.4981 -3.71328 33.1629 -3.456 33.7831C-3.19873 34.4032 -2.82166 34.9666 -2.34638 35.4409C-1.87109 35.9152 -1.30692 36.2911 -0.686164 36.5471C-0.0654042 36.8031 0.59976 36.9342 1.27126 36.9329H5.96847C6.63997 36.9342 7.30513 36.8031 7.92589 36.5471C8.54665 36.2911 9.11082 35.9152 9.5861 35.4409C10.0614 34.9666 10.4385 34.4032 10.6957 33.7831C10.953 33.1629 11.0854 32.4981 11.0854 31.8267V30.8274C11.0854 30.156 10.953 29.4912 10.6957 28.871C10.4385 28.2508 10.0614 27.6875 9.5861 27.2132C9.11082 26.7389 8.54665 26.363 7.92589 26.107C7.30513 25.8509 6.63997 25.7198 5.96847 25.7211V25.7211Z" fill="#DB86C7"/>
<path d="M13.8738 31.317H-6.64404V59.2965H13.8738V31.317Z" fill="#DBA6D0"/>
<path d="M38.0496 61.6948H40.8579C42.1812 61.6922 43.492 61.9505 44.7154 62.455C45.9387 62.9595 47.0505 63.7003 47.9872 64.635C48.9238 65.5697 49.6669 66.6798 50.1739 67.902C50.6809 69.1242 50.9419 70.4343 50.9419 71.7574V88.3553H38.0496V61.6948Z" fill="#7A87FA"/>
<path d="M39.8884 44.3075H-1.48706V88.3552H39.8884V44.3075Z" fill="#D0DAF5"/>
<path d="M39.8884 78.2427H-1.48706V88.3553H39.8884V78.2427Z" fill="#1B3A85"/>
<path d="M35.2912 48.8242H4.02979V73.646H35.2912V48.8242Z" fill="#2D2687"/>
<path d="M10.0061 62.6141H-1.94678V88.3553H10.0061V62.6141Z" fill="#69C9C9"/>
<path d="M10.4659 61.6948H-2.40648C-2.91428 61.6948 -3.32593 62.1064 -3.32593 62.6141C-3.32593 63.1218 -2.91428 63.5334 -2.40648 63.5334H10.4659C10.9737 63.5334 11.3853 63.1218 11.3853 62.6141C11.3853 62.1064 10.9737 61.6948 10.4659 61.6948Z" fill="#54BABA"/>
<path d="M-2.40649 62.6141L2.97031 57.2181C3.22507 56.9642 3.57008 56.8217 3.92974 56.8217C4.28941 56.8217 4.63441 56.9642 4.88917 57.2181L9.8862 62.2144L-2.40649 62.6141Z" fill="#54BABA"/>
<path d="M-10.8416 88.5451C-10.8416 88.5451 -4.24547 80.0813 -2.40656 82.8393C-2.40656 82.8393 0.3518 74.5654 3.11016 81.92C3.11016 81.92 5.86853 80.0813 7.70743 85.5973C7.70743 85.5973 15.0631 84.1483 19.2006 88.5951L-10.8416 88.5451Z" fill="#4A849A"/>
<path d="M-22.6345 88.2753H58.3174V90.2738H-24.6333C-24.6333 90.0114 -24.5816 89.7515 -24.4811 89.509C-24.3807 89.2666 -24.2335 89.0463 -24.0479 88.8607C-23.8623 88.6751 -23.6419 88.5279 -23.3994 88.4274C-23.1569 88.327 -22.897 88.2753 -22.6345 88.2753Z" fill="#6FC0CE"/>
<path opacity="0.46" d="M21.3293 73.646H28.5551L35.331 66.5712V58.8769L21.3293 73.646Z" fill="#7196FF"/>
<path d="M0.501906 70.2685H-8.81256C-9.17685 70.2685 -9.47217 70.564 -9.47217 70.9285V70.9385C-9.47217 71.303 -9.17685 71.5985 -8.81256 71.5985H0.501906C0.866198 71.5985 1.16151 71.303 1.16151 70.9385V70.9285C1.16151 70.564 0.866198 70.2685 0.501906 70.2685Z" fill="#54BABA"/>
<path d="M85.3614 96.3594L79.9247 85.2975C79.3223 84.0711 78.2577 83.1339 76.9647 82.6917C75.6718 82.2496 74.2561 82.3386 73.0287 82.9392V82.9392C72.3128 83.2883 71.5266 83.4694 70.7301 83.4688L58.5573 83.3889C57.7618 83.3886 56.9776 83.2003 56.2687 82.8393V82.8393C55.6638 82.5328 55.0044 82.3487 54.3282 82.2973C53.652 82.246 52.9724 82.3285 52.3281 82.5401C51.6839 82.7517 51.0877 83.0883 50.5737 83.5306C50.0598 83.9729 49.6381 84.5122 49.3328 85.1176L43.7761 96.1096C43.449 96.7544 43.2523 97.4573 43.1973 98.1782C43.1423 98.8992 43.2302 99.6238 43.4558 100.311C43.6814 100.998 44.0403 101.633 44.512 102.181C44.9837 102.729 45.5589 103.179 46.2047 103.504V103.504C46.8503 103.831 47.5541 104.028 48.2759 104.083C48.9976 104.138 49.7232 104.051 50.411 103.825C51.0988 103.6 51.7354 103.241 52.2844 102.769C52.8333 102.297 53.2839 101.722 53.6103 101.076L56.0288 96.2994L73.1087 96.3994L75.4673 101.206C76.1125 102.517 77.2515 103.518 78.6343 103.99C80.017 104.462 81.5306 104.366 82.8429 103.724V103.724C84.1513 103.079 85.1508 101.942 85.6228 100.562C86.0948 99.1814 86.0008 97.6705 85.3614 96.3594V96.3594Z" fill="#CBD6F5"/>
<path d="M56.1687 87.8656H55.0594V86.7464C55.0594 86.4337 54.9351 86.1338 54.7139 85.9127C54.4928 85.6915 54.1928 85.5673 53.8801 85.5673C53.5673 85.5673 53.2673 85.6915 53.0462 85.9127C52.825 86.1338 52.7008 86.4337 52.7008 86.7464V87.8556H51.5914C51.2786 87.8556 50.9787 87.9799 50.7575 88.201C50.5364 88.4221 50.4121 88.722 50.4121 89.0348C50.4121 89.3475 50.5364 89.6474 50.7575 89.8685C50.9787 90.0897 51.2786 90.2139 51.5914 90.2139H52.7008V91.3331C52.6857 91.4964 52.7048 91.661 52.757 91.8165C52.8091 91.972 52.8932 92.1149 53.0037 92.236C53.1142 92.3572 53.2488 92.454 53.3988 92.5202C53.5488 92.5864 53.711 92.6206 53.8751 92.6206C54.0391 92.6206 54.2013 92.5864 54.3513 92.5202C54.5014 92.454 54.6359 92.3572 54.7464 92.236C54.857 92.1149 54.941 91.972 54.9931 91.8165C55.0453 91.661 55.0644 91.4964 55.0494 91.3331V90.2139H56.1587C56.3123 90.2152 56.4646 90.1863 56.6069 90.1287C56.7493 90.0712 56.879 89.9862 56.9885 89.8785C57.098 89.7709 57.1852 89.6427 57.2452 89.5014C57.3052 89.3601 57.3367 89.2083 57.338 89.0547C57.3393 88.8999 57.3101 88.7463 57.2521 88.6027C57.194 88.4592 57.1083 88.3284 56.9997 88.218C56.8911 88.1076 56.7618 88.0196 56.6192 87.9592C56.4767 87.8987 56.3236 87.8669 56.1687 87.8656V87.8656Z" fill="#4561B0"/>
<path d="M74.5877 88.3353C75.3329 88.3353 75.9369 87.7313 75.9369 86.9863C75.9369 86.2412 75.3329 85.6372 74.5877 85.6372C73.8426 85.6372 73.2385 86.2412 73.2385 86.9863C73.2385 87.7313 73.8426 88.3353 74.5877 88.3353Z" fill="#5C56A8"/>
<path d="M74.5677 92.6221C75.3128 92.6221 75.9169 92.0182 75.9169 91.2731C75.9169 90.5281 75.3128 89.9241 74.5677 89.9241C73.8226 89.9241 73.2185 90.5281 73.2185 91.2731C73.2185 92.0182 73.8226 92.6221 74.5677 92.6221Z" fill="#4561B0"/>
<path d="M76.7166 90.4837C77.4618 90.4837 78.0658 89.8797 78.0658 89.1347C78.0658 88.3896 77.4618 87.7857 76.7166 87.7857C75.9715 87.7857 75.3674 88.3896 75.3674 89.1347C75.3674 89.8797 75.9715 90.4837 76.7166 90.4837Z" fill="#DB86C7"/>
<path d="M72.429 90.4637C73.1742 90.4637 73.7782 89.8597 73.7782 89.1147C73.7782 88.3697 73.1742 87.7657 72.429 87.7657C71.6839 87.7657 71.0798 88.3697 71.0798 89.1147C71.0798 89.8597 71.6839 90.4637 72.429 90.4637Z" fill="#6DBFBF"/>
<path opacity="0.36" d="M58.4773 92.9919H70.6301C70.9508 92.9919 71.2584 93.1192 71.4852 93.346C71.712 93.5727 71.8394 93.8803 71.8394 94.201V96.3594H57.2681V94.201C57.2681 94.0422 57.2993 93.885 57.3601 93.7383C57.4209 93.5916 57.51 93.4583 57.6223 93.346C57.7345 93.2337 57.8679 93.1447 58.0146 93.0839C58.1613 93.0231 58.3185 92.9919 58.4773 92.9919Z" fill="#2D4CA6"/>
<path d="M41.3276 102.245L50.3223 117.254L58.3176 116.255L63.3146 123.25L71.5297 120.632L74.3081 116.255L78.4456 115.256L82.0435 114.066L87.2904 102.245H41.3276Z" fill="#544C82"/>
<path d="M74.3079 116.255L78.3055 105.263L78.4454 115.256L74.3079 116.255Z" fill="#4C4478"/>
<path d="M59.4269 117.804L60.3164 114.256L57.3181 109.26L58.3175 106.262L56.3187 105.263L55.0695 102.265H44.9055L46.3247 105.263L49.3229 106.262L53.3205 107.261L56.3187 110.259L55.799 112.048L59.317 115.256L58.3175 116.255" fill="#4C4478"/>
<path d="M67.312 101.266L65.3132 103.264L66.3126 107.811L65.3132 110.259L69.3109 116.255L73.3085 111.258L75.3073 106.262L78.3055 101.266H67.312Z" fill="#4C4478"/>
<path d="M43.3264 100.267H85.3015C85.8317 100.267 86.3401 100.477 86.7149 100.852C87.0898 101.227 87.3003 101.735 87.3003 102.265H41.3276C41.3276 101.735 41.5382 101.227 41.9131 100.852C42.2879 100.477 42.7963 100.267 43.3264 100.267Z" fill="#6FC0CE"/>
<path d="M35.3312 82.2797H32.333V85.2775H35.3312V82.2797Z" fill="#1E3F91"/>
<path d="M30.3342 82.2797H27.3359V85.2775H30.3342V82.2797Z" fill="#1E3F91"/>
<path d="M40.3282 82.2797C40.8583 82.2797 41.3667 82.4903 41.7415 82.8651C42.1164 83.2399 42.327 83.7482 42.327 84.2782V88.2753H38.3293V84.2782C38.3293 83.7482 38.5399 83.2399 38.9148 82.8651C39.2896 82.4903 39.798 82.2797 40.3282 82.2797Z" fill="#707AFA"/>
<path d="M117.682 30.3178H61.3157C61.3157 30.3178 78.3056 15.3288 87.3003 25.3214C87.3003 25.3214 102.291 19.3258 117.682 30.3178Z" fill="#B1C5FD"/>
<path d="M31.3334 76.9836C31.8853 76.9836 32.3328 76.5362 32.3328 75.9843C32.3328 75.4324 31.8853 74.9851 31.3334 74.9851C30.7814 74.9851 30.334 75.4324 30.334 75.9843C30.334 76.5362 30.7814 76.9836 31.3334 76.9836Z" fill="#A1B2E3"/>
<path d="M34.3317 76.9836C34.8836 76.9836 35.3311 76.5362 35.3311 75.9843C35.3311 75.4324 34.8836 74.9851 34.3317 74.9851C33.7797 74.9851 33.3323 75.4324 33.3323 75.9843C33.3323 76.5362 33.7797 76.9836 34.3317 76.9836Z" fill="#A1B2E3"/>
<path d="M28.3353 76.9836C28.8873 76.9836 29.3347 76.5362 29.3347 75.9843C29.3347 75.4324 28.8873 74.9851 28.3353 74.9851C27.7834 74.9851 27.3359 75.4324 27.3359 75.9843C27.3359 76.5362 27.7834 76.9836 28.3353 76.9836Z" fill="#A1B2E3"/>
<path d="M37.3299 290.127H33.3323V294.124H37.3299V290.127Z" fill="#FFDEB3"/>
<path d="M37.3299 297.122H33.3323V301.119H37.3299V297.122Z" fill="#FFDEB3"/>
<path d="M37.3299 312.111H33.3323V316.108H37.3299V312.111Z" fill="#FFDEB3"/>
<path d="M61.3157 290.127H47.324V292.126H61.3157V290.127Z" fill="#6152FA"/>
</g>
<defs>
<linearGradient id="paint0_linear" x1="320.19" y1="466.109" x2="320.19" y2="133.982" gradientUnits="userSpaceOnUse">
<stop stop-color="#7796F7"/>
<stop offset="0.12" stop-color="#6C8DF1"/>
<stop offset="0.47" stop-color="#5075E1"/>
<stop offset="0.77" stop-color="#3F67D7"/>
<stop offset="1" stop-color="#3962D4"/>
</linearGradient>
<linearGradient id="paint1_linear" x1="259.808" y1="193.009" x2="291.85" y2="-79.7723" gradientUnits="userSpaceOnUse">
<stop offset="0.34" stop-color="#A37ECD" stop-opacity="0"/>
<stop offset="1" stop-color="#9CB5F7"/>
</linearGradient>
<linearGradient id="paint2_linear" x1="35347.1" y1="20745.6" x2="37180.3" y2="-9403.02" gradientUnits="userSpaceOnUse">
<stop offset="0.34" stop-color="#A37ECD" stop-opacity="0"/>
<stop offset="1" stop-color="#9CB5F7"/>
</linearGradient>
<linearGradient id="paint3_linear" x1="153.921" y1="381.84" x2="135.821" y2="381.171" gradientUnits="userSpaceOnUse">
<stop stop-color="#9CB5F7"/>
<stop offset="0.85" stop-color="#A37ECD" stop-opacity="0"/>
</linearGradient>
<clipPath id="clip0">
<rect width="640" height="464" fill="white"/>
</clipPath>
</defs>
</svg>
