<svg width="240" height="464" viewBox="0 0 240 464" fill="none" xmlns="http://www.w3.org/2000/svg">
<path d="M215.11 295.65C214.591 294.889 213.907 294.255 213.109 293.796C212.311 293.337 211.419 293.065 210.5 293C205.25 293 201 302.4 201 314C201 320.27 202.25 325.89 204.23 329.74C176.89 320.62 171 353 171 353C109 350 97 403 97 403L240 402.68V257.76C230.37 259.16 221.51 277.7 215.11 295.65Z" fill="#458572"/>
<path d="M215.11 295.67C214.594 294.905 213.91 294.268 213.112 293.805C212.313 293.343 211.42 293.067 210.5 293C205.25 293 201 302.4 201 314C201 320.28 202.25 325.89 204.23 329.74C176.89 320.64 171 353 171 353C124.23 350.74 105.92 380.33 99.74 395C89.82 393.36 76.92 405 76.92 405L107 407V403H118.56C124.56 390.2 141.24 362.88 167 380C167 380 198 342 216 350C216 350 215 341 203 341C203 341 222 334 230 341L215 322C215 322 203 300 220 313C220 313 227.05 276.1 240 265.63V257.78C230.37 259.18 221.51 277.73 215.11 295.67Z" fill="#488A77"/>
<path d="M204.849 341.693L206.691 339.691C207.127 339.218 207.652 338.835 208.236 338.564C208.819 338.294 209.451 338.141 210.094 338.114C210.737 338.088 211.378 338.188 211.983 338.409C212.587 338.631 213.141 338.969 213.615 339.405L205.136 348.616C204.179 347.736 203.612 346.512 203.558 345.214C203.505 343.915 203.969 342.649 204.849 341.693Z" fill="#A075E0"/>
<path d="M215.6 361.42C222.067 361.42 227.31 356.177 227.31 349.71C227.31 343.243 222.067 338 215.6 338C209.133 338 203.89 343.243 203.89 349.71C203.89 356.177 209.133 361.42 215.6 361.42Z" fill="#8B68BD"/>
<path d="M206.46 357C208.91 356.56 211.18 353.9 211.9 350.33C212.77 346.05 211.07 342.1 208.12 341.51C207.853 341.457 207.582 341.434 207.31 341.44L206.98 341.76C205.089 343.821 203.998 346.489 203.903 349.284C203.807 352.079 204.714 354.815 206.46 357Z" fill="#C4A0FA"/>
<path d="M220.56 353.71C218.42 356.04 217.75 358.92 219.08 360.14C219.317 360.354 219.601 360.508 219.91 360.59C221.73 359.876 223.342 358.714 224.595 357.213C225.848 355.712 226.703 353.919 227.08 352C227.009 351.896 226.932 351.796 226.85 351.7C225.52 350.48 222.71 351.38 220.56 353.71Z" fill="#7553A8"/>
<path opacity="0.46" d="M225.13 342.9C224.74 342.358 224.302 341.853 223.82 341.39C221.63 340.566 219.264 340.324 216.952 340.687C214.641 341.05 212.463 342.006 210.631 343.461C208.799 344.917 207.375 346.822 206.499 348.991C205.622 351.161 205.323 353.52 205.63 355.84C205.978 356.408 206.373 356.947 206.81 357.45C206.141 355.045 206.196 352.497 206.968 350.123C207.739 347.749 209.193 345.655 211.147 344.103C213.102 342.55 215.471 341.608 217.957 341.394C220.444 341.181 222.939 341.704 225.13 342.9Z" fill="#A075E0"/>
<path d="M206.675 325.033L210.516 326.467C212.347 327.151 213.831 328.535 214.643 330.313C215.454 332.091 215.525 334.119 214.841 335.95L197.183 329.355C197.522 328.448 198.036 327.616 198.697 326.907C199.358 326.199 200.151 325.628 201.033 325.226C201.915 324.825 202.867 324.601 203.835 324.568C204.803 324.535 205.768 324.693 206.675 325.033Z" fill="#A075E0"/>
<path d="M201.6 362.16C211.326 362.16 219.21 354.276 219.21 344.55C219.21 334.824 211.326 326.94 201.6 326.94C191.874 326.94 183.99 334.824 183.99 344.55C183.99 354.276 191.874 362.16 201.6 362.16Z" fill="#B78AFA"/>
<path d="M186.25 336C188.25 339.16 193.25 340.82 198.62 339.8C205.07 338.57 209.62 333.98 208.76 329.53C208.684 329.127 208.56 328.734 208.39 328.36C208.18 328.27 207.98 328.17 207.76 328.09C203.821 326.618 199.485 326.607 195.539 328.058C191.592 329.509 188.297 332.327 186.25 336Z" fill="#C4A0FA"/>
<path d="M198.85 353.72C194.38 352.06 190 352.72 189.05 355.31C188.887 355.761 188.832 356.244 188.89 356.72C190.914 358.846 193.44 360.428 196.236 361.321C199.033 362.214 202.009 362.389 204.89 361.83C205 361.68 205.094 361.519 205.17 361.35C206.16 358.8 203.31 355.39 198.85 353.72Z" fill="#9069C9"/>
<path opacity="0.46" d="M216.5 354C217.028 353.147 217.483 352.25 217.86 351.32C217.765 347.802 216.76 344.369 214.942 341.355C213.125 338.341 210.557 335.85 207.49 334.125C204.423 332.399 200.961 331.498 197.441 331.51C193.922 331.521 190.466 332.445 187.41 334.19C186.816 334.991 186.291 335.841 185.84 336.73C188.812 334.438 192.393 333.072 196.136 332.802C199.879 332.533 203.619 333.371 206.889 335.213C210.158 337.054 212.813 339.818 214.523 343.159C216.232 346.5 216.92 350.271 216.5 354Z" fill="#A075E0"/>
<path d="M234 358.2H189.2V403H234V358.2Z" fill="#91593E"/>
<path d="M234 358.2H189.2V361.93H234V358.2Z" fill="#7A422F"/>
<path d="M234 399.27H189.2V403H234V399.27Z" fill="#7A422F"/>
<path d="M192.94 403V358.2H189.21V403H192.94Z" fill="#AF6246"/>
<path d="M234 403V358.2H230.27V403H234Z" fill="#8C4F38"/>
<path d="M222.8 358.2H178V403H222.8V358.2Z" fill="#CC7D57"/>
<path opacity="0.15" d="M180.8 372.2L220.93 367.53L220 369.4L180.8 372.2Z" fill="#9A533B"/>
<path opacity="0.15" d="M220.12 379.3L179.75 380.97L180.96 382.67L220.12 379.3Z" fill="#9A533B"/>
<path opacity="0.15" d="M180.68 389.56L221.05 391.24L219.84 392.93L180.68 389.56Z" fill="#9A533B"/>
<path d="M222.8 358.2H218.42L178 398.62V403H183.31L222.8 363.51V358.2Z" fill="#C57151"/>
<path d="M222.8 358.2H178V361.93H222.8V358.2Z" fill="#9A533B"/>
<path d="M222.8 399.27H178V403H222.8V399.27Z" fill="#9A533B"/>
<path d="M181.74 403V358.2H178.01V403H181.74Z" fill="#AF6246"/>
<path d="M222.8 403V358.2H219.07V403H222.8Z" fill="#AF6246"/>
<path d="M234 358.2H222.8V403H234V358.2Z" fill="#8F5039"/>
</svg>
