<svg width="660" height="218" fill="none" xmlns="http://www.w3.org/2000/svg"><path d="M680.736 173.166l-20.245 20.245-20.245-20.245v-40.284l20.245-20.245 20.245 20.245v40.284z" fill="#FB68F8" stroke="#fff" stroke-width="7.94" stroke-miterlimit="10" stroke-linecap="round"/><path d="M660.491 84l-40.453 40.415v57.067l40.49 40.491 40.415-40.416v-57.142L660.491 84zm20.245 89.166l-20.245 20.245-20.246-20.245v-40.284l20.246-20.245 20.245 20.245v40.284z" fill="#FB68F8"/><path d="M640.245 173.166L620 181.557l40.491 40.491V193.43l-20.246-20.264z" fill="#E74FD5"/><path d="M640.246 132.882v40.284l20.245 20.264 20.245-20.264v-40.284l-20.245-20.245-20.245 20.245z" fill="#FFCDF9"/><path d="M680.717 132.901v.075l-40.378 40.303-.075-.075v-10.913l34.959-34.959 5.494 5.569zM680.717 148.123v11.12l-27.169 27.169-5.551-5.57 32.72-32.719z" fill="#fff"/><path opacity=".8" d="M454.46 24.75l2.17 4.88a.11.11 0 00.2 0l2.17-4.88a.17.17 0 01.06-.06l4.87-2.17a.11.11 0 000-.2l-4.87-2.17a.1.1 0 01-.06 0l-2.17-4.88a.115.115 0 00-.04-.047.11.11 0 00-.16.047l-2.17 4.88a.1.1 0 01-.06 0l-4.88 2.17a.115.115 0 00-.047.04.113.113 0 000 .12.116.116 0 00.047.04l4.88 2.17a.163.163 0 01.06.06z" fill="#fff"/><path d="M75.926 153l-13.27 13.28v18.71l13.27 13.27 13.28-13.27v-18.71L75.926 153zm6.64 29.24l-6.64 6.63-6.64-6.63v-13.21l6.64-6.64 6.64 6.64v13.21z" fill="#FB68F8"/><path d="M75.926 153v9.39l6.64 6.64 6.64-2.75L75.926 153z" fill="#FFAAFC"/><path d="M69.286 182.24l-6.63 2.75 13.27 13.27v-9.39l-6.64-6.63z" fill="#E74FD5"/><path d="M69.286 169.03v13.21l6.64 6.63 6.64-6.63v-13.21l-6.64-6.64-6.64 6.64z" fill="#FFCDF9"/><path d="M82.556 169.03v.03l-13.23 13.21-.03-.02v-3.58l11.46-11.46 1.8 1.82zM82.556 174.02v3.65l-8.9 8.91-1.83-1.83 10.73-10.73zM61.006 158.35l-2 5.08a.111.111 0 00.026.114.102.102 0 00.053.029c.02.005.042.004.061-.003l5.08-1.95h.08l5.07 1.95a.11.11 0 00.064.01.11.11 0 00.06-.029.11.11 0 00.027-.121l-2-5.08a.11.11 0 010-.08l2-5.07a.12.12 0 00-.15-.15l-5.07 1.95h-.08l-5.02-1.95a.11.11 0 00-.15.086.109.109 0 00.01.064l2 5.07a.111.111 0 01-.06.08z" fill="#fff"/><path d="M577.682 30l-19.35 19.365V76.65L577.682 96l19.366-19.35V49.364L577.682 30zm9.683 42.639l-9.683 9.668L568 72.64V53.376l9.682-9.683 9.683 9.683v19.263z" fill="#FB68F8"/><path d="M577.683 30v13.693l9.682 9.683 9.683-4.01L577.683 30z" fill="#FFAAFC"/><path d="M568 72.639l-9.668 4.01L577.682 96V82.307L568 72.64z" fill="#E74FD5"/><path d="M568 53.376v19.263l9.682 9.668 9.683-9.668V53.376l-9.683-9.683L568 53.376z" fill="#FFCDF9"/><path d="M587.35 53.376v.043l-19.293 19.264-.043-.03v-5.22l16.711-16.711 2.625 2.654zM587.351 60.652v5.323l-12.979 12.993-2.668-2.669 15.647-15.647zM555.925 37.802l-2.916 7.407a.157.157 0 00-.005.089.158.158 0 00.209.116l7.408-2.844h.117l7.393 2.844a.16.16 0 00.226-.11.16.16 0 00-.007-.095l-2.917-7.407a.157.157 0 010-.117l2.917-7.393a.175.175 0 00-.219-.219l-7.393 2.843h-.117l-7.32-2.843a.163.163 0 00-.178.04.161.161 0 00-.027.179l2.917 7.393a.159.159 0 01-.088.117z" fill="#fff"/><path d="M580.043 181.842l2 4.47a.105.105 0 00.036.042.102.102 0 00.107 0 .108.108 0 00.037-.042l2-4.47v-.05l4.46-2a.11.11 0 00.04-.04.112.112 0 00-.04-.15l-4.46-2v-.05l-2-4.46a.112.112 0 00-.037-.041.101.101 0 00-.107 0 .11.11 0 00-.036.041l-2 4.46a.072.072 0 01-.02.031.073.073 0 01-.03.019l-4.46 2a.105.105 0 00-.04.041.102.102 0 00-.015.054c0 .02.005.039.015.055a.096.096 0 00.04.04l4.46 2a.075.075 0 01.03.02.075.075 0 01.02.03z" fill="#FFCDF9"/><path opacity=".32" d="M561.872 161.292l-.87 2.31a.048.048 0 000 .029c.003.01.008.018.015.025.008.006.017.01.027.011.01.002.02 0 .028-.005l2.26-.87 2.27.87.06-.06-.87-2.27.87-2.26a.039.039 0 00.005-.028.054.054 0 00-.011-.027.058.058 0 00-.025-.015.048.048 0 00-.029 0l-2.27.88-2.26-.88a.067.067 0 00-.028.002.058.058 0 00-.025.015.058.058 0 00-.015.025.067.067 0 00-.002.028l.87 2.26s.01-.05 0-.04z" fill="#FFCDF9"/><path opacity=".25" d="M438.43 38.93l-1.23 3.2a.087.087 0 00-.003.04c.003.012.01.024.019.034a.07.07 0 00.074.016l3.2-1.23h.05l3.2 1.23a.07.07 0 00.093-.05.066.066 0 00-.003-.04l-1.23-3.2 1.23-3.2a.066.066 0 00.003-.04.067.067 0 00-.019-.034.066.066 0 00-.035-.019.069.069 0 00-.039.003l-3.2 1.23h-.05l-3.2-1.23a.068.068 0 00-.039-.003.074.074 0 00-.035.02.076.076 0 00-.019.034.087.087 0 00.003.039l1.23 3.2z" fill="#fff"/><path opacity=".8" d="M106.948 27.231l-1.94 5a.127.127 0 00-.002.064.12.12 0 00.152.086l5-1.94a.11.11 0 01.08 0l5 1.94a.12.12 0 00.15-.15l-1.94-5a.11.11 0 010-.08l1.94-5a.11.11 0 00-.086-.15.109.109 0 00-.064.01l-5 1.94a.11.11 0 01-.08 0l-5-1.94a.109.109 0 00-.123.019.11.11 0 00-.027.121l1.94 5a.11.11 0 010 .08z" fill="#fff"/><path opacity=".4" d="M52.51 85L34.64 67.13 16.77 85v25.18l17.87 17.87 17.87-17.87V85zM73.6 60.51l-6.35-6.35-6.35 6.35v8.94l6.35 6.35 6.35-6.35v-8.94z" fill="#0067E0"/><path d="M.11 0L0 .11v129.32l.11.11 38-38V38L.11 0z" fill="#FB68F8"/><path d="M.11 0v26.87l19 19 19-7.87-38-38z" fill="#FFAAFC"/><path d="M.11 26.87l-.11.11v75.58l.11.11 19-19v-37.8l-19-19z" fill="#FFCDF9"/><path d="M13.93 40.66L0 54.6v10.41l19.09-19.06v-.07l-5.16-5.22zM0 79.25V89.7l19.09-19.09V60.16L0 79.25z" fill="#fff"/><path d="M19.06 84.18l19.05 7.89L0 130.18v-26.95l19.06-19.05z" fill="#E74FD5"/></svg>