<svg width="104" height="80" viewBox="0 0 104 80" fill="none" xmlns="http://www.w3.org/2000/svg">
<g clip-path="url(#clip0)">
<path d="M8.50308 4H8.49692C7.67019 4 7 4.74517 7 5.66438V7.33562C7 8.25483 7.67019 9 8.49692 9H8.50308C9.32981 9 10 8.25483 10 7.33562V5.66438C10 4.74517 9.32981 4 8.50308 4Z" fill="#83DDC5"/>
<path d="M8.50308 16H8.49692C7.67019 16 7 16.7452 7 17.6644V19.3356C7 20.2548 7.67019 21 8.49692 21H8.50308C9.32981 21 10 20.2548 10 19.3356V17.6644C10 16.7452 9.32981 16 8.50308 16Z" fill="#83DDC5"/>
<path d="M17 12.5031V12.4969C17 11.6702 16.2548 11 15.3356 11H13.6644C12.7452 11 12 11.6702 12 12.4969V12.5031C12 13.3298 12.7452 14 13.6644 14H15.3356C16.2548 14 17 13.3298 17 12.5031Z" fill="#83DDC5"/>
<path d="M5 12.5031V12.4969C5 11.6702 4.25483 11 3.33562 11H1.66438C0.74517 11 0 11.6702 0 12.4969V12.5031C0 13.3298 0.74517 14 1.66438 14H3.33562C4.25483 14 5 13.3298 5 12.5031Z" fill="#83DDC5"/>
<path d="M27.7831 0.0610932L29.7619 1.01388C29.8358 1.04876 29.9165 1.06686 29.9981 1.06686C30.0798 1.06686 30.1605 1.04876 30.2343 1.01388L32.2221 0.0610932C32.3231 0.0142886 32.4361 -0.000385364 32.5458 0.0190557C32.6554 0.0384968 32.7565 0.0911159 32.8353 0.169795C32.914 0.248474 32.9667 0.349418 32.9861 0.458976C33.0056 0.568533 32.9909 0.681419 32.9441 0.782366L31.9903 2.76809C31.9554 2.84186 31.9373 2.92245 31.9373 3.00406C31.9373 3.08566 31.9554 3.16625 31.9903 3.24003L32.9441 5.21685C32.994 5.31811 33.0111 5.43239 32.993 5.54381C32.9749 5.65522 32.9225 5.75824 32.8431 5.83854C32.7637 5.91884 32.6612 5.97244 32.5499 5.99188C32.4386 6.01132 32.324 5.99564 32.2221 5.94702L30.2343 4.99423C30.1605 4.95935 30.0798 4.94126 29.9981 4.94126C29.9165 4.94126 29.8358 4.95935 29.7619 4.99423L27.7831 5.94702C27.6812 5.99564 27.5666 6.01132 27.4553 5.99188C27.344 5.97244 27.2415 5.91884 27.1621 5.83854C27.0827 5.75824 27.0303 5.65522 27.0122 5.54381C26.9941 5.43239 27.0112 5.31811 27.0611 5.21685L28.0149 3.24003C28.0498 3.16625 28.0679 3.08566 28.0679 3.00406C28.0679 2.92245 28.0498 2.84186 28.0149 2.76809L27.0611 0.782366C27.0082 0.681497 26.9889 0.566367 27.0061 0.453775C27.0233 0.341183 27.076 0.23702 27.1566 0.156486C27.2373 0.0759524 27.3415 0.0232609 27.4542 0.0061002C27.5669 -0.0110605 27.6822 0.00820778 27.7831 0.0610932Z" fill="#FFD836"/>
<path d="M103.714 68.1611L103.71 68.1567C103.165 67.6124 102.283 67.6124 101.739 68.1567L100.749 69.1465C100.205 69.6908 100.205 70.5732 100.749 71.1175L100.753 71.1219C101.297 71.6661 102.18 71.6661 102.724 71.1219L103.714 70.132C104.258 69.5878 104.258 68.7053 103.714 68.1611Z" fill="#FF9A15"/>
<path d="M95.8248 76.0527L95.8204 76.0483C95.2762 75.504 94.3937 75.504 93.8495 76.0483L92.8596 77.0381C92.3154 77.5824 92.3154 78.4648 92.8596 79.0091L92.864 79.0135C93.4083 79.5577 94.2907 79.5577 94.835 79.0135L95.8248 78.0236C96.3691 77.4794 96.3691 76.5969 95.8248 76.0527Z" fill="#FF9A15"/>
<path d="M103.709 79.0145L103.714 79.0101C104.258 78.4659 104.258 77.5834 103.714 77.0392L102.724 76.0493C102.18 75.5051 101.297 75.5051 100.753 76.0493L100.749 76.0537C100.204 76.598 100.204 77.4804 100.749 78.0247L101.738 79.0145C102.283 79.5588 103.165 79.5588 103.709 79.0145Z" fill="#FF9A15"/>
<path d="M95.8109 71.1165L95.8153 71.1122C96.3596 70.5679 96.3596 69.6855 95.8153 69.1412L94.8254 68.1513C94.2812 67.6071 93.3987 67.6071 92.8545 68.1513L92.8501 68.1557C92.3058 68.7 92.3058 69.5824 92.8501 70.1267L93.84 71.1165C94.3842 71.6608 95.2667 71.6608 95.8109 71.1165Z" fill="#FF9A15"/>
<path d="M80.817 21.2009H24.5786C21.983 21.2009 19.8789 23.3051 19.8789 25.9006V67.8064C19.8789 70.4019 21.983 72.506 24.5786 72.506H80.817C83.4125 72.506 85.5166 70.4019 85.5166 67.8064V25.9006C85.5166 23.3051 83.4125 21.2009 80.817 21.2009Z" fill="#FFD836"/>
<path d="M52.6978 51.5256L19.8789 30.1802V36.3764L50.6236 56.3303C51.2373 56.7411 51.9592 56.9605 52.6978 56.9605C53.4363 56.9605 54.1582 56.7411 54.7719 56.3303L85.5166 36.3764V30.1802L52.6978 51.5256Z" fill="#FFB713"/>
<path d="M79.3631 31.4514C85.7825 31.4514 90.9864 26.2475 90.9864 19.8281C90.9864 13.4087 85.7825 8.20473 79.3631 8.20473C72.9437 8.20473 67.7397 13.4087 67.7397 19.8281C67.7397 26.2475 72.9437 31.4514 79.3631 31.4514Z" fill="#4F81FF"/>
<path d="M77.5857 26.6096C77.0269 26.6127 76.4893 26.3958 76.0892 26.0057L71.5996 21.4898C71.2375 21.0903 71.043 20.5668 71.0563 20.0278C71.0696 19.4888 71.2896 18.9756 71.6709 18.5943C72.0521 18.2131 72.5654 17.993 73.1044 17.9797C73.6434 17.9665 74.1668 18.161 74.5664 18.523L77.5857 21.5423L84.2808 14.821C84.679 14.4266 85.2168 14.2054 85.7773 14.2054C86.3378 14.2054 86.8756 14.4266 87.2739 14.821C87.6667 15.2148 87.8873 15.7483 87.8873 16.3045C87.8873 16.8606 87.6667 17.3941 87.2739 17.7879L79.056 26.0057C78.8627 26.1981 78.6333 26.3505 78.381 26.4541C78.1287 26.5577 77.8585 26.6105 77.5857 26.6096Z" fill="white"/>
</g>
<defs>
<clipPath id="clip0">
<rect width="104" height="80" fill="white"/>
</clipPath>
</defs>
</svg>
