<svg width="240" height="464" viewBox="0 0 240 464" fill="none" xmlns="http://www.w3.org/2000/svg">
<g clip-path="url(#clip0)">
<path d="M0 124.06H128C128 124.06 114.51 107.7 101.42 114.25C103.6 105.52 94.88 91.34 82.88 95.71C82.88 95.71 71.97 80.44 55.62 94.62C55.62 94.62 49.07 21.55 0 19H0V124.06Z" fill="#7D9DF5"/>
<path d="M79 80.06H20C20 80.06 33.83 66.66 42.13 74.7C42.13 74.7 61.48 61.29 79 80.06Z" fill="#B1C5FD"/>
<path opacity="0.55" d="M100.53 31.6801V36.5401L47 31.6801H100.53Z" fill="url(#paint0_linear)"/>
<path d="M105.69 31.68L106.84 19.9L112.83 31.66L105.69 31.68Z" fill="#8CA7F5"/>
<path d="M113.25 31.66V25.53L118.21 31.1L113.25 31.66Z" fill="#8CA7F5"/>
<path d="M102.15 31.1L107.69 31.99V22.77L102.15 31.1Z" fill="#8CA7F5"/>
<path d="M98.91 30.0601L120.77 30.5501L115.13 33.3101L112.83 34.9601C110.994 36.4731 108.689 37.3003 106.31 37.3001H100.86C100.482 37.2982 100.111 37.197 99.7837 37.0067C99.4568 36.8164 99.1856 36.5435 98.9973 36.2155C98.809 35.8874 98.7101 35.5157 98.7106 35.1374C98.711 34.7592 98.8108 34.3876 99 34.0601L98.91 30.0601Z" fill="#3643A8"/>
<path d="M113.84 34.11L99.27 33.55L99 34.06C98.8125 34.3888 98.7147 34.7611 98.7163 35.1396C98.718 35.5181 98.8191 35.8895 99.0095 36.2166C99.1999 36.5437 99.4729 36.8151 99.8012 37.0035C100.129 37.1919 100.501 37.2907 100.88 37.29H106.33C108.709 37.2903 111.014 36.4631 112.85 34.95L113.84 34.11Z" fill="#294391"/>
<path d="M100.37 33.7201L102.27 36.3801H103.46L102.55 33.7201H100.37Z" fill="#253C82"/>
<path d="M103.47 33.2201H97.29V34.2201H103.47V33.2201Z" fill="#244CBF"/>
<path d="M240 48.72C211.68 19.59 187 57.06 187 57.06C156 48.06 141 65.06 141 65.06H240V48.72Z" fill="#B1C5FD"/>
<path opacity="0.39" d="M212.91 26.06L214 28.58C214.005 28.5907 214.012 28.5998 214.022 28.6062C214.032 28.6126 214.043 28.616 214.055 28.616C214.067 28.616 214.078 28.6126 214.088 28.6062C214.098 28.5998 214.105 28.5907 214.11 28.58L215.28 26.06L217.84 24.93C217.848 24.9235 217.855 24.9151 217.86 24.9056C217.864 24.8961 217.867 24.8856 217.867 24.875C217.867 24.8644 217.864 24.854 217.86 24.8445C217.855 24.8349 217.848 24.8266 217.84 24.82L215.28 23.69L214.15 21.06C214.143 21.0517 214.135 21.045 214.126 21.0404C214.116 21.0357 214.106 21.0333 214.095 21.0333C214.084 21.0333 214.074 21.0357 214.064 21.0404C214.055 21.045 214.047 21.0517 214.04 21.06L212.91 23.62L210.36 24.75C210.349 24.7547 210.34 24.7624 210.334 24.7722C210.327 24.7819 210.324 24.7933 210.324 24.805C210.324 24.8167 210.327 24.8281 210.334 24.8379C210.34 24.8477 210.349 24.8554 210.36 24.86L212.91 25.99V26.06Z" fill="white"/>
<path d="M5.88672 41.3266C5.88672 25.8266 -13.1726 21.0566 -19.0833 29.3266C-19.0833 29.3266 -38.6822 8.32657 -57.772 42.8466H-60.3979C-65.8392 42.8466 -71.2008 44.9566 -76.073 49.0066L-78 50.6166H28.3867C28.3867 50.6166 17.3867 38.3266 5.88672 41.3266Z" fill="white"/>
</g>
<defs>
<linearGradient id="paint0_linear" x1="100.32" y1="34.1001" x2="72.57" y2="33.0701" gradientUnits="userSpaceOnUse">
<stop stop-color="#9CB5F7"/>
<stop offset="0.85" stop-color="#A37ECD" stop-opacity="0"/>
</linearGradient>
<clipPath id="clip0">
<rect width="240" height="464" fill="white"/>
</clipPath>
</defs>
</svg>
