<svg xmlns="http://www.w3.org/2000/svg" viewBox="0 0 660 188">
  <title>App-Management-Light</title>
  <g style="isolation: isolate">
    <g id="Layer_3" data-name="Layer 3">
      <path d="M393,107.3h-.7l-22.7-6.6a1.4,1.4,0,0,1-1.1-1.6,1.6,1.6,0,0,1,1.4-1.3l7.8-.5-7.2-.8a1.6,1.6,0,0,1-1.3-1.4,1.5,1.5,0,0,1,1.1-1.6l4.3-1.1-3.9.4a1.4,1.4,0,0,1-1.6-1.1,1.5,1.5,0,0,1,.7-1.7h.1a1.3,1.3,0,0,1-1.4-.8,1.4,1.4,0,0,1,.4-1.9l1.8-1.3-1.5.8a1.5,1.5,0,0,1-1.8-2.3l1.5-1.7-1.3,1.1a1.5,1.5,0,0,1-2.1-.2,1.4,1.4,0,0,1,.1-2.1l18.2-15.3a1.5,1.5,0,0,1,2,2.2L375.5,79.7l12.3-6.8a1.7,1.7,0,0,1,2,.5,1.6,1.6,0,0,1-.4,2.1l-10.7,8,12.8-4.6a1.4,1.4,0,0,1,1.9.8,1.5,1.5,0,0,1-.7,1.9l-14.3,7.3,15.5-1.6a1.5,1.5,0,0,1,.5,2.9l-15.6,4.1,15.6,1.9a1.4,1.4,0,0,1,1.3,1.5,1.5,1.5,0,0,1-1.4,1.5l-15.6,1,14.4,4.2a1.5,1.5,0,0,1,1.1,1.8A1.6,1.6,0,0,1,393,107.3Z" style="fill: #b3b9c0"/>
      <path d="M375.8,105.2a2.4,2.4,0,0,1-2.4-2.4c-.7-10.3,5.4-23.8,20.6-28.9a2.5,2.5,0,1,1,1.6,4.8c-14.6,4.9-17.7,17.7-17.3,23.8a2.3,2.3,0,0,1-2.3,2.6C376,105.2,375.9,105.2,375.8,105.2Z" style="fill: #5b6775"/>
      <path d="M370.8,85.2h0l3.2-.4V80.5l-3.2-.4a13,13,0,0,0-1.9-4.5h0l2-2.6-3.1-3-2.5,2a11.4,11.4,0,0,0-4.5-1.9l-.4-3.2h-4.3l-.4,3.2h0a12.7,12.7,0,0,0-4.5,1.9h0l-2.5-2-3.1,3,2,2.6h0a11.2,11.2,0,0,0-1.8,4.5l-3.2.4v4.3l3.1.4h.1a11.4,11.4,0,0,0,1.8,4.4h0l-2,2.6,3.1,3.1,2.5-2h0a12.5,12.5,0,0,0,4.5,1.8h0l.4,3.2h4.3l.4-3.2a11.2,11.2,0,0,0,4.5-1.8h0l2.5,2,3.1-3.1-2-2.5h0A12.7,12.7,0,0,0,370.8,85.2Zm-12.5,4.3a6.9,6.9,0,1,1,6.8-6.9A6.9,6.9,0,0,1,358.3,89.5Z" style="fill: #747f8d"/>
      <polygon points="109.2 49.7 63.7 49.7 77 0 95.9 0 109.2 49.7" style="fill: #ff9a15"/>
      <path d="M95,34.7a11.1,11.1,0,0,0-2.7-1.3,3,3,0,0,1-2-3.4,6.7,6.7,0,0,0,0-2,5.2,5.2,0,0,0-3.9-4,5.1,5.1,0,0,0-6.2,5,5.2,5.2,0,0,0,1.1,3.2,3.1,3.1,0,0,1-.3,4.1,11.2,11.2,0,0,0-2.5,4.4,10.9,10.9,0,1,0,16.5-6Z" style="fill: #ffd836"/>
      <path d="M503.3,9.4V70.5h45.3V9.4Zm39.8,54.9H508.8V15.5h34.3Z" style="fill: #9099a4"/>
      <rect x="508.8" y="15.5" width="34.3" height="48.79" transform="translate(1051.9 79.9) rotate(180)" style="fill: #e3e5e8"/>
      <path d="M539.7,55l3.7-8.8V33.7l-3.7-8.8,3.7-8.9v-.9h-2.6l-2.6,6.1-2.5-6.1h-3.1l4.1,9.8L532,36.3l-4.8-11.4,4.1-9.8h-3.1l-2.5,6.1-2.5-6.1h-3.1l4.1,9.8-4.8,11.4-4.7-11.4,4.1-9.8h-3.1l-2.5,6.1-2.6-6.1h-2.1v2.1l3.2,7.7-3.2,7.6v7.3l4.7-11.3,4.7,11.4-4.7,11.5L508.5,40v7.3l3.2,7.7-3.2,7.7v2.1h2.1l2.6-6.1,2.5,6.1h3.1L514.7,55l4.7-11.4L524.2,55l-4.1,9.8h3.1l2.5-6.1,2.5,6.1h3.1L527.2,55,532,43.6,536.7,55l-4.1,9.8h3.1l2.5-6.1,2.6,6.1h2.6v-.9Zm-14-3.6L521,39.9l4.7-11.4,4.7,11.4Zm7.8-11.5,4.7-11.4L543,39.9l-4.8,11.5Z" style="fill: #9099a4"/>
      <path d="M435.6,9.4V70.5h67.7V9.4Zm61.7,54.9H441.7V15.5h55.6Z" style="fill: #a2a9b3"/>
      <rect x="441.7" y="15.5" width="55.6" height="48.79" transform="translate(938.9 79.9) rotate(180)" style="fill: #e3e5e8"/>
      <circle cx="550.7" cy="24.3" r="7.3" style="fill: #fff"/>
      <g style="opacity: 0.30000000000000004;mix-blend-mode: multiply">
        <path d="M562.9,69.4a2.5,2.5,0,0,1-2.5-2.5V61.2a2.5,2.5,0,0,1,.8-1.8l25.5-25-33.4-13a2.4,2.4,0,0,1-1.4-3.2,2.5,2.5,0,0,1,3.2-1.5l37.1,14.4a2.7,2.7,0,0,1,1.5,1.9,2.5,2.5,0,0,1-.7,2.3l-27.6,27v4.6A2.5,2.5,0,0,1,562.9,69.4Z" style="fill: #5b6775"/>
      </g>
      <rect x="144.9" y="128.7" width="128.9" height="50.84" style="fill: #d8dbdf"/>
      <g>
        <rect x="223.2" y="18" width="69.8" height="66.64" style="fill: #d8dbdf"/>
        <circle cx="258.1" cy="51.3" r="23" style="fill: #b3b9c0"/>
        <rect x="255.9" y="22.3" width="4.5" height="58.07" rx="2.3" transform="translate(72.2 -135) rotate(33.8)" style="fill: #9ea6b3"/>
        <rect x="255.9" y="22.3" width="4.5" height="58.07" rx="2.3" transform="translate(318 -205) rotate(91.9)" style="fill: #9ea6b3"/>
        <rect x="255.9" y="22.3" width="4.5" height="58.07" rx="2.3" transform="translate(488.1 -76.7) rotate(139.7)" style="fill: #9ea6b3"/>
        <circle cx="258.1" cy="51.3" r="13.5" style="fill: #d8dbdf"/>
      </g>
      <polygon points="260.4 94.2 219.1 88 219.1 14.6 260.4 8.4 260.4 94.2" style="fill: #a2a9b3"/>
      <polygon points="255.4 89 222.6 84.6 222.6 18 255.4 13.6 255.4 89" style="fill: #919aa5"/>
      <path d="M222.6,30.9c13.7,1.3,17.1,17.5,17.1,17.5l15.7-3.2V13.6L222.6,18Z" style="fill: #bcc2c8"/>
      <path d="M231.1,71.5c-4.2,4.2-5.6,13.5-5.6,13.5l4.4.6Z" style="fill: #515b66"/>
      <rect x="260.4" y="8.4" width="3.9" height="85.79" style="fill: #747f8d"/>
      <rect x="48.5" y="49.6" width="2.5" height="16.43" style="fill: #7c8794"/>
      <rect x="31.3" y="48.8" width="2.5" height="17.2" style="fill: #828c98"/>
      <circle cx="41.4" cy="41.8" r="12.7" style="fill: #c8cfd6"/>
      <path d="M51.3,33.9a18.4,18.4,0,0,1-18,14.2l-3-.2a12.7,12.7,0,0,0,23.8-6.1A12.3,12.3,0,0,0,51.3,33.9Z" style="fill: #aab3bd"/>
      <path d="M42.7,49.6h0A1.3,1.3,0,0,1,44,50.9V66a0,0,0,0,1,0,0H41.4a0,0,0,0,1,0,0V50.9a1.3,1.3,0,0,1,1.3-1.3Z" style="fill: #7c8794"/>
      <rect x="406.2" y="70.5" width="142.4" height="108.98" style="fill: #d8dbdf"/>
      <rect x="412.2" y="77" width="130.5" height="18.44" style="fill: #c7ccd1"/>
      <rect x="412.2" y="77" width="130.5" height="3.31" style="fill: #b3b9c0"/>
      <rect x="412.2" y="142.2" width="130.5" height="18.44" style="fill: #c7ccd1"/>
      <rect x="412.2" y="142.2" width="130.5" height="3.31" style="fill: #b3b9c0"/>
      <rect x="412.2" y="101.5" width="130.5" height="35.63" style="fill: #c7ccd1"/>
      <rect x="412.2" y="101.5" width="130.5" height="3.31" style="fill: #b3b9c0"/>
      <rect x="548.6" y="70.5" width="67.1" height="108.98" transform="translate(1164.3 250) rotate(180)" style="fill: #c7ccd1"/>
      <path d="M488.5,87h0a3.1,3.1,0,0,0-3,2.2l-15.3,48.7a3.1,3.1,0,0,0,3,4h0a3.1,3.1,0,0,0,2.9-2.2L491.4,91A3.1,3.1,0,0,0,488.5,87Z" style="fill: #36393f"/>
      <rect x="202.6" y="107.6" width="3.6" height="15.59" style="fill: #4f5660"/>
      <path d="M180.3,121.2h49.9a1.6,1.6,0,0,1,1.6,1.6v5.9a0,0,0,0,1,0,0h-53a0,0,0,0,1,0,0v-5.9A1.6,1.6,0,0,1,180.3,121.2Z" style="fill: #a1adba"/>
      <path d="M197.9,121.2h32.3a1.6,1.6,0,0,1,1.6,1.6v5.9a0,0,0,0,1,0,0H196.3a0,0,0,0,1,0,0v-5.9A1.6,1.6,0,0,1,197.9,121.2Z" style="fill: #97a1ae"/>
      <circle cx="204.4" cy="97.9" r="11.2" style="fill: #bcc2c8"/>
      <path d="M198.7,107.5a10.6,10.6,0,0,0,8.4,1.2,11.1,11.1,0,0,0,8.2-13.5,11.6,11.6,0,0,0-3.6-5.9C212.8,97.9,205,104.8,198.7,107.5Z" style="fill: #a6adb6"/>
      <rect x="525.6" y="106.8" width="79.8" height="7.64" style="fill: #fff"/>
      <ellipse cx="199.6" cy="92.4" rx="2" ry="1.2" transform="translate(-6.9 168.2) rotate(-45)" style="fill: #fff"/>
      <g>
        <circle cx="323.6" cy="173.5" r="3" style="fill: #8e97a3"/>
        <path d="M316.8,112.8a30.8,30.8,0,0,1-2.9-27,9.9,9.9,0,0,1,10.7-6.4c6.4,1,12.7,4.4,18,14.6Z" style="fill: #8b939e"/>
        <path d="M332.2,105.8c-3.4-1.6-7.1-2.7-10.3-.7l.2-8.4,8.2.5Z" style="fill: #8b939e"/>
        <path d="M312.8,89.6a15,15,0,0,1,1.9-4.6c.6-1,1.6-2.2,2.8-2.2s2.6.8,3.9,2.1c3,3,7.7,10.9,10.8,20.9L342.7,94c-5.4-10.2-11.7-13.6-18.1-14.6a9.9,9.9,0,0,0-10.7,6.5A30.4,30.4,0,0,0,312.8,89.6Z" style="fill: #c7ccd1"/>
        <path d="M414.5,112.8a30.4,30.4,0,0,0,2.9-27,9.8,9.8,0,0,0-10.7-6.4c-6.4,1-12.6,4.4-18,14.6Z" style="fill: #8b939e"/>
        <path d="M319.6,128.6H305.3c-1.9,0-3.4,4.9-3.4,11s1.5,11,3.4,11h14.3c2.2,0,4-4.9,4-11S321.8,128.6,319.6,128.6Z" style="fill: #747f8d"/>
        <path d="M305.3,150.6h7.1v-8.1H302C302.4,147.2,303.7,150.6,305.3,150.6Z" style="fill: #666c75"/>
        <path d="M427.3,139.1c-.1.1-.1.1,0,.1s-.1,1.3-.2,2a13.6,13.6,0,0,1-.2,2c-.1.3-.1.7-.2,1a3.6,3.6,0,0,1-.2,1c-.2,1-.4,2-.7,3s-.7,1.9-1.1,2.8l-.7,1.8-.6,1a18.2,18.2,0,0,1-1.5,2.7h-.1a9.1,9.1,0,0,1-1.1,1.6l-.6.8-.5.7-.8.9-.7.8-.7.8-.8.7-.8.7a2.7,2.7,0,0,1-.8.7l-.8.7-.9.6-.9.7h0l-1.8,1.1h-88l-.9-.5-.9-.6-.8-.6-.9-.6h.1c-14.7-11.3-18-32.9-5.9-47.9a193.6,193.6,0,0,1,21.6-22.9c1.2-1.1,2.5-2.1,3.8-3.1h55.8l.3.2,3.5,2.9a193.6,193.6,0,0,1,21.6,22.9,37.3,37.3,0,0,1,3.3,4.8c.4.9.9,1.8,1.2,2.6l1.1,2.6.3,1,.2.7A35.3,35.3,0,0,1,427.3,139.1Z" style="fill: #c7ccd1"/>
        <path d="M427.3,139.1c-.1.1-.1.1,0,.1s-.1,1.3-.2,2a13.6,13.6,0,0,1-.2,2c-.1.3-.1.7-.2,1a3.6,3.6,0,0,1-.2,1c-.2,1-.4,2-.7,3s-.7,1.9-1.1,2.8l-.7,1.8-.6,1a18.2,18.2,0,0,1-1.5,2.7h-.1a9.1,9.1,0,0,1-1.1,1.6l-.6.8-.5.7-.8.9-.7.8-.7.8-.8.7-.8.7a2.7,2.7,0,0,1-.8.7l-.8.7-.9.6-.9.7h0l-1.8,1.1h-88l-.9-.5-.9-.6-.8-.6-.9-.6h58.4c11.9,0,22.4-8.4,24.3-20.2,2.3-14.4-3.6-29.7-19-53.7h11.7l.3.2,3.5,2.9a193.6,193.6,0,0,1,21.6,22.9,37.3,37.3,0,0,1,3.3,4.8c.4.9.9,1.8,1.2,2.6l1.1,2.6.3,1,.2.7A35.3,35.3,0,0,1,427.3,139.1Z" style="fill: #a0a8b1"/>
        <path d="M351.8,145.5l3.9,4.8a1.9,1.9,0,0,0,2.9,0l3.8-4.8a1.8,1.8,0,0,0-1.4-3h-7.7A1.9,1.9,0,0,0,351.8,145.5Z" style="fill: #747f8d"/>
        <rect x="367.2" y="128" width="14.7" height="6.29" rx="3.1" transform="translate(84.1 401.5) rotate(-62.2)" style="fill: #4f5660"/>
        <rect x="332.6" y="127.9" width="14.7" height="6.29" rx="3.1" transform="translate(366.9 494.3) rotate(-115.3)" style="fill: #4f545c"/>
        <rect x="334.4" y="129.7" width="11" height="2.65" rx="1.3" transform="translate(366.9 494.3) rotate(-115.3)" style="fill: #3f444d"/>
        <rect x="369" y="129.8" width="11" height="2.65" rx="1.3" transform="translate(84.1 401.5) rotate(-62.2)" style="fill: #3f444d"/>
        <rect x="378.9" y="146.2" width="7.4" height="3.14" rx="1.6" transform="translate(27.8 353.5) rotate(-51.2)" style="fill: #a6aeba"/>
        <rect x="385.6" y="146.2" width="7.4" height="3.14" rx="1.6" transform="translate(30.2 358.6) rotate(-51.2)" style="fill: #a6aeba"/>
        <rect x="328" y="146.2" width="7.4" height="3.14" rx="1.6" transform="translate(424.2 498.8) rotate(-128.8)" style="fill: #a6aeba"/>
        <rect x="321.4" y="146.2" width="7.4" height="3.14" rx="1.6" transform="translate(413.5 493.7) rotate(-128.8)" style="fill: #a6aeba"/>
        <path d="M322.6,167.4h88a0,0,0,0,1,0,0v10.1a2,2,0,0,1-2,2H324.5a2,2,0,0,1-2-2V167.4A0,0,0,0,1,322.6,167.4Z" style="fill: #747f8d"/>
        <circle cx="357.1" cy="173.5" r="3" style="fill: #8e97a3"/>
        <circle cx="409" cy="173.5" r="3" style="fill: #8e97a3"/>
        <ellipse cx="419.2" cy="139.6" rx="3.4" ry="11" style="fill: #747f8d"/>
        <ellipse cx="418.4" cy="139.6" rx="2.6" ry="10.7" style="fill: #202225"/>
        <path d="M420.1,157h5.6a0,0,0,0,1,0,0v6.9a0,0,0,0,1,0,0h-5.6a3.4,3.4,0,0,1-3.4-3.4v0a3.4,3.4,0,0,1,3.4-3.4Z" transform="translate(236.8 -250.8) rotate(45)" style="fill: #6f7885"/>
        <path d="M418.2,172.6c-1.6-1.6.7-6.3,5-10.6s9-6.5,10.6-5l6.5,6.5-15.6,15.6Z" style="fill: #a1a8b2"/>
        <path d="M421.2,164.1c-3,3.7-4.3,7.2-3,8.5l6.5,6.5,5.7-5.8Z" style="fill: #828c98"/>
        <ellipse cx="432.5" cy="171.3" rx="11" ry="3.6" transform="translate(5.5 356) rotate(-45)" style="fill: #36393f"/>
        <path d="M355.7,150.3a1.9,1.9,0,0,0,2.9,0l3.8-4.8H351.8Z" style="fill: #636f80"/>
        <path d="M399.1,105.8c3.4-1.6,7.1-2.7,10.3-.7l-.2-8.4-8.1.5Z" style="fill: #8b939e"/>
        <path d="M418.5,89.6a12.9,12.9,0,0,0-1.9-4.6c-.6-1-1.6-2.2-2.8-2.2s-2.5.8-3.8,2.1c-3,3-7.8,10.9-10.9,20.9L388.7,94c5.3-10.2,11.6-13.6,18-14.6a10,10,0,0,1,10.8,6.5C417.9,87.2,418.2,88.4,418.5,89.6Z" style="fill: #c7ccd1"/>
      </g>
      <rect x="499.1" y="147.4" width="52.9" height="32.07" style="fill: #87919d"/>
      <path d="M523,147.4h5.2l2-35.7a4.7,4.7,0,0,0-4.6-4.9h0a4.6,4.6,0,0,0-4.6,4.9Z" style="fill: #fff"/>
      <path d="M602.9,147.4H608l2-35.7a4.6,4.6,0,0,0-4.6-4.9h0a4.7,4.7,0,0,0-4.6,4.9Z" style="fill: #fff"/>
      <rect x="552.1" y="147.4" width="79.8" height="32.07" transform="translate(1183.9 326.9) rotate(180)" style="fill: #656f7d"/>
      <rect x="499.1" y="147.4" width="52.9" height="2" style="fill: #656f7d"/>
      <rect x="552.1" y="147.4" width="79.8" height="2" transform="translate(1183.9 296.9) rotate(180)" style="fill: #4f5763"/>
      <rect x="552.1" y="137.7" width="79.8" height="9.72" transform="translate(1183.9 285.1) rotate(180)" style="fill: #656f7d"/>
      <polygon points="540.2 125.8 511 125.8 499.1 137.7 499.1 147.4 552.1 147.4 552.1 137.7 540.2 125.8" style="fill: #87919d"/>
      <polygon points="517.8 125.8 514.3 179.5 492.1 179.5 511.4 125.8 517.8 125.8" style="fill: #5b6573"/>
      <polygon points="620 125.8 540.2 125.8 552.1 137.7 631.9 137.7 620 125.8" style="fill: #788390"/>
      <path d="M513.2,118.8l-6.2-5.6a3,3,0,0,0-2.2-.8H475.2a3.1,3.1,0,0,0-3,2.2l-18.9,60.7a3.3,3.3,0,0,0,3.1,4.2H494a3.1,3.1,0,0,0,3-2.3l17.1-55.1A3.1,3.1,0,0,0,513.2,118.8Z" style="fill: #3e70dd"/>
      <path d="M502.4,112.4H474.8a2.6,2.6,0,0,0-2.5,1.8l-19.2,61.9a2.7,2.7,0,0,0,2.6,3.4h27.6a2.7,2.7,0,0,0,2.5-1.9L505,115.8A2.7,2.7,0,0,0,502.4,112.4Z" style="fill: #7196ff"/>
      <ellipse cx="482.6" cy="132.6" rx="13.1" ry="10.9" transform="translate(36.7 359.9) rotate(-42.4)" style="fill: #5c83f2"/>
      <ellipse cx="482.6" cy="132.6" rx="2.1" ry="1.6" transform="translate(32.8 352) rotate(-41.4)" style="fill: #36393f"/>
      <ellipse cx="476.4" cy="137.6" rx="2.1" ry="1.6" transform="matrix(0.75, -0.66, 0.66, 0.75, 27.9, 349.14)" style="fill: #36393f"/>
      <ellipse cx="489.9" cy="132.6" rx="2.1" ry="1.6" transform="translate(34.6 356.8) rotate(-41.4)" style="fill: #36393f"/>
      <ellipse cx="475.4" cy="132.6" rx="2.1" ry="1.6" transform="translate(31 347.2) rotate(-41.4)" style="fill: #36393f"/>
      <ellipse cx="484.5" cy="125.4" rx="2.1" ry="1.6" transform="translate(38 351.4) rotate(-41.4)" style="fill: #36393f"/>
      <ellipse cx="478.3" cy="127.2" rx="2.1" ry="1.6" transform="translate(35.3 347.8) rotate(-41.4)" style="fill: #36393f"/>
      <ellipse cx="487.1" cy="137.6" rx="2.1" ry="1.6" transform="translate(30.6 356.2) rotate(-41.4)" style="fill: #36393f"/>
      <ellipse cx="489.2" cy="127.2" rx="2.1" ry="1.6" transform="translate(38 355) rotate(-41.4)" style="fill: #36393f"/>
      <ellipse cx="480.8" cy="139.8" rx="2.1" ry="1.6" transform="translate(27.5 352.6) rotate(-41.4)" style="fill: #36393f"/>
      <path d="M465.3,154.5h0a1.2,1.2,0,0,0-1.1.8l-6,19a1.2,1.2,0,0,0,1.2,1.5h0a1.1,1.1,0,0,0,1.1-.8l6-18.9A1.3,1.3,0,0,0,465.3,154.5Z" style="fill: #5c83f2"/>
      <path d="M472.3,154.5h0a1.4,1.4,0,0,0-1.2.8l-5.9,19a1.1,1.1,0,0,0,1.1,1.5h0a1.3,1.3,0,0,0,1.2-.8l5.9-18.9A1.2,1.2,0,0,0,472.3,154.5Z" style="fill: #5c83f2"/>
      <path d="M479.2,154.5h0a1.2,1.2,0,0,0-1.1.8l-6,19a1.2,1.2,0,0,0,1.1,1.5h0a1.2,1.2,0,0,0,1.2-.8l5.9-18.9A1.2,1.2,0,0,0,479.2,154.5Z" style="fill: #5c83f2"/>
      <path d="M486.1,154.5h0a1.2,1.2,0,0,0-1.1.8l-6,19a1.2,1.2,0,0,0,1.2,1.5h0a1.1,1.1,0,0,0,1.1-.8l6-18.9A1.3,1.3,0,0,0,486.1,154.5Z" style="fill: #5c83f2"/>
      <path d="M465.1,160.4,461.8,171a1.4,1.4,0,0,1-1.2.9,1.2,1.2,0,0,1-1.1-1.6l3.3-10.6a1.2,1.2,0,0,1,1.2-.8A1.1,1.1,0,0,1,465.1,160.4Z" style="fill: #3e70dd"/>
      <path d="M472,160.4,468.7,171a1.2,1.2,0,1,1-2.3-.7l3.4-10.6a1.1,1.1,0,0,1,1.1-.8A1.1,1.1,0,0,1,472,160.4Z" style="fill: #3e70dd"/>
      <path d="M479,160.4,475.6,171a1.2,1.2,0,0,1-1.1.9,1.3,1.3,0,0,1-1.2-1.6l3.4-10.6a1.1,1.1,0,0,1,1.1-.8A1.2,1.2,0,0,1,479,160.4Z" style="fill: #3e70dd"/>
      <path d="M485.9,160.4,482.6,171a1.4,1.4,0,0,1-1.2.9,1.2,1.2,0,0,1-1.1-1.6l3.3-10.6a1.2,1.2,0,0,1,1.2-.8A1.2,1.2,0,0,1,485.9,160.4Z" style="fill: #3e70dd"/>
      <path d="M505.3,142.6c-1.8,0-3.3-3.2-3.3-7s1.5-7,3.3-7h6.2v14Z" style="fill: #d4d8dc"/>
      <ellipse cx="511.5" cy="135.6" rx="3.3" ry="7" style="fill: #b3b9c0"/>
      <path d="M22.5,99.8h84.2a3.8,3.8,0,0,1,3.8,3.8v76a0,0,0,0,1,0,0H18.7a0,0,0,0,1,0,0v-76A3.8,3.8,0,0,1,22.5,99.8Z" style="fill: #9ba3ad"/>
      <path d="M58.6,99.8a3.7,3.7,0,0,0-3.8,3.7v15.9A1.6,1.6,0,0,1,53,121l-34.3-3.8V103.5a3.7,3.7,0,0,1,3.8-3.7Z" style="fill: #828c98"/>
      <path d="M71.5,99.8H172.3a0,0,0,0,1,0,0v76a3.8,3.8,0,0,1-3.8,3.8H75.3a3.8,3.8,0,0,1-3.8-3.8v-76A0,0,0,0,1,71.5,99.8Z" transform="translate(243.8 279.3) rotate(180)" style="fill: #747f8d"/>
      <path d="M76,103.2h91.8a1,1,0,0,1,1,1v24.9a0,0,0,0,1,0,0H75a0,0,0,0,1,0,0V104.2A1,1,0,0,1,76,103.2Z" style="fill: #87919d"/>
      <circle cx="140.7" cy="123.1" r="2.2" style="fill: #687282"/>
      <circle cx="150.8" cy="123.1" r="2.2" style="fill: #687282"/>
      <circle cx="161" cy="123.1" r="2.2" style="fill: #687282"/>
      <circle cx="140.7" cy="115.1" r="2.2" style="fill: #687282"/>
      <circle cx="150.8" cy="115.1" r="2.2" style="fill: #687282"/>
      <circle cx="161" cy="115.1" r="2.2" style="fill: #687282"/>
      <path d="M75,132.7h93.9a0,0,0,0,1,0,0v32.1a1,1,0,0,1-1,1H76a1,1,0,0,1-1-1V132.7A0,0,0,0,1,75,132.7Z" style="fill: #87919d"/>
      <rect x="137" y="136.8" width="24.6" height="24.88" rx="1.1" style="fill: #747f8d"/>
      <rect x="75" y="129.1" width="93.9" height="3.59" style="fill: #687282"/>
      <rect x="9.2" y="65.6" width="42.5" height="34.12" rx="1.4" style="fill: #c5cdd4"/>
      <rect x="46.9" y="65.6" width="104.8" height="34.12" rx="1.4" transform="translate(198.6 165.4) rotate(180)" style="fill: #b1b9c2"/>
      <rect x="52.6" y="71.3" width="31.1" height="22.74" rx="0.9" style="fill: #828c98"/>
      <path d="M69.6,90.7h0c-1.7,0-2.8-2.2-3.9-7.8-.7-3.4-1.7-8-2.4-8s-1.9,2-2.3,2.8-.3.4-.3.6c-1.7,3.1-3.4,5.4-8.1,5.4v-2c3.7,0,4.8-1.6,6.3-4.4l.3-.5c.8-1.6,2.1-3.9,4.1-3.9s3,3.2,4.3,9.6c1,4.7,1.8,5.9,2.1,6.2s1.1-1.5,2.3-6.3,2.3-6.3,4.1-6.6,2.3.3,3.4,1.7l1,1.5c1,1.7,1.7,2.7,3.1,2.7v2c-2.7,0-3.9-2.1-4.9-3.7a3.6,3.6,0,0,0-.8-1.2c-.6-.8-1.1-1.1-1.4-1.1s-1.4.5-2.6,5.2S71.3,90.7,69.6,90.7Z" style="fill: #9aa2ac"/>
      <circle cx="98.3" cy="77.8" r="6.5" style="fill: #687282"/>
      <circle cx="94.5" cy="91.3" r="2.7" style="fill: #ffc9ff"/>
      <circle cx="102.1" cy="91.3" r="2.7" style="fill: #ffc9ff"/>
      <rect x="112.8" y="71.3" width="1.9" height="15.31" rx="0.6" style="fill: #687282"/>
      <rect x="123.2" y="71.3" width="1.9" height="15.31" rx="0.6" style="fill: #687282"/>
      <rect x="133.6" y="71.3" width="1.9" height="15.31" rx="0.6" style="fill: #687282"/>
      <rect x="144" y="71.3" width="1.9" height="15.31" rx="0.6" style="fill: #687282"/>
      <rect x="110.9" y="80.4" width="5.7" height="3.22" rx="0.9" style="fill: #d5dbe3"/>
      <rect x="121.3" y="74.6" width="5.7" height="3.22" rx="0.9" style="fill: #d5dbe3"/>
      <rect x="131.7" y="82" width="5.7" height="3.22" rx="0.9" style="fill: #d5dbe3"/>
      <rect x="142.1" y="80.4" width="5.7" height="3.22" rx="0.9" style="fill: #d5dbe3"/>
      <circle cx="91.7" cy="8.3" r="4.1" style="fill: #ffd836"/>
      <polygon points="98.1 8.3 95.9 0 77 0 74.8 8.3 98.1 8.3" style="fill: #c7cfd6"/>
      <polygon points="89.2 8.3 88.7 0 95.9 0 98.1 8.3 89.2 8.3" style="fill: #b1b9c2"/>
      <polygon points="109.2 49.7 63.7 49.7 68.2 65.6 104.7 65.6 109.2 49.7" style="fill: #c7cfd6"/>
      <polygon points="89.8 49.7 109.2 49.7 104.7 65.6 89.2 65.6 89.8 49.7" style="fill: #b1b9c2"/>
      <path d="M51.7,35.8h0a8.7,8.7,0,0,0-3.9-4.9,12.7,12.7,0,0,0-3.2-1.3,11.3,11.3,0,0,1,5.2,6.8,4.5,4.5,0,0,1-2.9,5.5,4.4,4.4,0,0,1-5.5-2.7c-.8-2-2.9-7.1-6.4-8.3l-1.7,1.2c3.1.4,5,4.6,6.2,7.8a6.5,6.5,0,0,0,8,3.9A6.5,6.5,0,0,0,51.7,35.8Z" style="fill: #a6afbd"/>
      <path d="M250.2,64.1l-18.9,6.3a3.4,3.4,0,0,1-4.3-2.9l-1.5-15.1a3.3,3.3,0,0,1,2.3-3.5l18.9-6.2a3.3,3.3,0,0,1,4.3,2.8l1.5,15.2A3.3,3.3,0,0,1,250.2,64.1Z" style="fill: #646e7a"/>
      <path d="M250.4,88.3l-20.5-2.7a145.5,145.5,0,0,1,1.7-17.7l16.9-5.2A191.7,191.7,0,0,1,250.4,88.3Z" style="fill: #646e7a"/>
      <path d="M248.8,64.6c-11.1,9.9-18,8.7-18,8.7l.4-2.9Z" style="fill: #515b66"/>
      <path d="M232.5,55.9l9.4-3.2a1.1,1.1,0,0,1,1.4.8l.5,3.1a3.2,3.2,0,0,1-2.2,3.5l-7.9,2.2a1.2,1.2,0,0,1-1.6-1.2l-.4-4.1A1.1,1.1,0,0,1,232.5,55.9Z" style="fill: #828c98"/>
      <path d="M255.4,56.2a2,2,0,0,0-1.4,1.5,17.7,17.7,0,0,1-8.1,10.2l2.2,5.1a16.5,16.5,0,0,0,7.3-6.1Z" style="fill: #646e7a"/>
      <ellipse cx="246.7" cy="52.6" rx="1.1" ry="1.4" style="fill: #414952"/>
      <ellipse cx="229.9" cy="57.8" rx="0.8" ry="1" style="fill: #414952"/>
      <polygon points="232.9 60.1 235.1 59.3 235.1 58.6 232.9 59.3 232.9 60.1" style="fill: #747f8d"/>
      <polygon points="236.8 58.8 239.7 57.9 239.7 57.1 236.8 58 236.8 58.8" style="fill: #747f8d"/>
      <g>
        <path d="M230.8,47.9l5.2-1.7C230.1,42.9,226.6,45.6,230.8,47.9Z" style="fill: #747f8d"/>
        <path d="M236,46.2l7.5-2.5C244.6,37.4,238.3,37.6,236,46.2Z" style="fill: #747f8d"/>
      </g>
      <ellipse cx="244.6" cy="25.3" rx="6.3" ry="4.8" transform="translate(67.2 195.6) rotate(-49.7)" style="fill: #d8dbdf"/>
      <polygon points="79.1 8.3 80.5 0 84.3 0 84.3 8.3 79.1 8.3" style="fill: #fff"/>
      <polygon points="72 49.7 75.6 65.6 79.4 65.6 77.2 49.7 72 49.7" style="fill: #fff"/>
      <rect x="563.8" y="147.4" width="8.7" height="4" rx="2" style="fill: #a2a9b3"/>
      <rect x="611.3" y="147.4" width="8.7" height="4" rx="2" style="fill: #a2a9b3"/>
      <path d="M531.4,21l38.1,14.9A20.5,20.5,0,0,0,531.4,21Z" style="fill: #f47fff"/>
      <path d="M540.1,62.1h45.7a2,2,0,0,1,2,2v6.4a0,0,0,0,1,0,0H538a0,0,0,0,1,0,0V64.2A2,2,0,0,1,540.1,62.1Z" style="fill: #646e7a"/>
      <rect x="549.5" y="1.2" width="16.8" height="16.28" rx="4.3" transform="translate(41.9 -203) rotate(21.4)" style="fill: #f47fff"/>
      <rect x="79" y="107" width="32.5" height="18.32" rx="0.9" style="fill: #4f5660"/>
      <path d="M491.8,55l6-8.8V33.7l-6-8.8,6-8.9v-.9h-4.3l-4.1,6.1-4.2-6.1h-4.9l6.6,9.8-7.7,11.4-7.7-11.4,6.6-9.8h-4.9l-4.1,6.1-4.2-6.1H460l6.6,9.8-7.7,11.4-7.7-11.4,6.6-9.8h-4.9l-4.1,6.1-4.2-6.1h-3.5v2.1l5.2,7.7-5.2,7.6v7.3l7.7-11.3,7.7,11.4-7.7,11.5L441.1,40v7.3l5.2,7.7-5.2,7.7v2.1h3.5l4.2-6.1,4.1,6.1h4.9L451.2,55l7.7-11.4L466.6,55,460,64.8h4.9l4.2-6.1,4.1,6.1h4.9L471.5,55l7.7-11.4L486.9,55l-6.6,9.8h4.9l4.2-6.1,4.1,6.1h4.3v-.9Zm-22.7-3.6-7.7-11.5,7.7-11.4,7.7,11.4Zm12.6-11.5,7.7-11.4,7.7,11.4-7.7,11.5Z" style="fill: #a2a9b3"/>
      <polygon points="474.9 22.1 437 22.1 431.5 70.5 469.4 70.5 474.9 22.1" style="fill: #5b6573"/>
      <polygon points="467.6 22.1 429.6 22.1 424.1 70.5 462.1 70.5 467.6 22.1" style="fill: #5b6573"/>
      <circle cx="591.2" cy="33.5" r="3.9" style="fill: #5f656e"/>
      <polygon points="466.9 70.5 472.1 24.2 467.3 24.2 462.1 70.5 466.9 70.5" style="fill: #9099a4"/>
      <polygon points="469.1 28.5 468.6 32.6 475.2 32.6 475.6 28.5 469.1 28.5" style="fill: #4f5660"/>
      <polygon points="467.6 40.8 467.1 44.8 471.1 44.8 471.6 40.8 467.6 40.8" style="fill: #747f8d"/>
      <polygon points="465.8 46.9 465.5 49.4 473.6 49.4 473.9 46.9 465.8 46.9" style="fill: #2e3136"/>
      <ellipse cx="439.9" cy="41" rx="15.1" ry="12.1" transform="translate(84.7 303.8) rotate(-41.8)" style="fill: #a2a9b3"/>
      <ellipse cx="437.5" cy="41" rx="15.1" ry="12.1" transform="translate(84.1 302.2) rotate(-41.8)" style="fill: #d2d6da"/>
      <ellipse cx="437.5" cy="41" rx="13.2" ry="10.6" transform="matrix(0.75, -0.67, 0.67, 0.75, 84.12, 302.22)" style="fill: #747f8d"/>
      <path d="M428.6,41a15.6,15.6,0,0,1,12.9-11.7h-1.4c-6.5,0-12.9,5.3-14.4,11.8s2.7,11.8,9.2,11.8h1.4C430.6,52,427.2,47.1,428.6,41Z" style="fill: #a2a9b3"/>
      <polygon points="438.2 54.4 433.3 54.4 429.3 70.5 435.2 70.5 438.2 54.4" style="fill: #2e3136"/>
      <circle cx="86.7" cy="116.2" r="5.7" style="fill: #3e444d"/>
      <circle cx="86.7" cy="116.2" r="2" style="fill: #323740"/>
      <path d="M87.8,113.2c0,.2-.2.3-.4.2H85.9c-.2.1-.3,0-.3-.2V113l.2-1.4.2-.2h1.3l.2.2.2,1.4Z" style="fill: #323740"/>
      <path d="M88.7,118.6a.2.2,0,0,1-.1-.4l.3-.3c.1-.1.2-.2.2-.3a.8.8,0,0,0,.2-.4.4.4,0,0,0,.1-.3c0-.2.2-.3.4-.2h.1l1.2.9a.4.4,0,0,1,.1.3l-.3.6-.4.5h-.3l-1.4-.6Z" style="fill: #323740"/>
      <path d="M83.6,116.7a.2.2,0,0,1,.3.1.8.8,0,0,1,.1.4c.1.1.1.3.2.4s.2.2.2.3l.3.3a.2.2,0,0,1-.1.4h-.1l-1.4.6h-.3l-.3-.5-.3-.6c-.1-.1,0-.2.1-.3l1.1-.9Z" style="fill: #323740"/>
      <circle cx="103.8" cy="116.2" r="5.7" style="fill: #3e444d"/>
      <circle cx="103.8" cy="116.2" r="2" style="fill: #323740"/>
      <path d="M106.8,115.1a.2.2,0,0,0-.3.3c0,.1.1.2.1.3v.9a.4.4,0,0,1-.1.3.2.2,0,0,0,.3.3h.1l1.5-.2a.2.2,0,0,0,.2-.2v-1.3a.2.2,0,0,0-.2-.2l-1.5-.2Z" style="fill: #323740"/>
      <path d="M101.4,114.1c0,.2.3.2.4.1l.2-.3.4-.2.4-.2h.3c.2,0,.3-.2.1-.4h-.1l-.9-1.1c0-.1-.1-.2-.2-.1s-.4.1-.6.3l-.6.3a.2.2,0,0,0,0,.3l.5,1.4Z" style="fill: #323740"/>
      <path d="M103.3,119.3c.1-.2,0-.4-.2-.4h-.3a.5.5,0,0,1-.4-.2l-.4-.2-.2-.3c-.1-.1-.4-.1-.4.1v.2l-.5,1.3c-.1.1,0,.2,0,.3l.6.4.6.2a.1.1,0,0,0,.2,0l1-1.2Z" style="fill: #323740"/>
      <circle cx="123.2" cy="118.8" r="6.5" style="fill: #626b7a"/>
      <rect x="79" y="136.8" width="21.7" height="13.01" rx="1.2" style="fill: #9de4d1"/>
      <rect x="108" y="136.8" width="21.7" height="13.01" rx="1.2" transform="translate(237.7 286.6) rotate(-180)" style="fill: #9de4d1"/>
      <path d="M113.9,149.8h9.9a5.5,5.5,0,0,0-5-3.2A5.4,5.4,0,0,0,113.9,149.8Z" style="fill: #747f8d"/>
      <path d="M84.9,149.8h9.8a5.4,5.4,0,0,0-9.8,0Z" style="fill: #747f8d"/>
      <polygon points="118.4 149.2 117 149.8 113.4 141.4 114.3 141 118.4 149.2" style="fill: #747f8d"/>
      <polygon points="91.1 149.5 89.6 149.2 91.7 140.3 92.7 140.5 91.1 149.5" style="fill: #747f8d"/>
      <circle cx="83.3" cy="157.4" r="4.3" style="fill: #747f8d"/>
      <circle cx="96.4" cy="157.4" r="4.3" style="fill: #747f8d"/>
      <circle cx="112.3" cy="157.4" r="4.3" style="fill: #747f8d"/>
      <circle cx="125.4" cy="157.4" r="4.3" style="fill: #747f8d"/>
      <g>
        <path d="M97.6,133.5H89.1c-1.5-9.5-9.5-17.5-18.7-19.4a20.1,20.1,0,0,1,4.2-.5C85.5,113.6,95.9,122.6,97.6,133.5Z" style="fill: #687282"/>
        <path d="M102,179.5c9.7,0,16.3-7.9,14.7-17.6S106,144.3,96.3,144.3H89.5l5.6,35.2Z" style="fill: #4f5660"/>
        <polygon points="101.9 145.2 91 145.2 89.1 133.5 100 133.5 101.9 145.2" style="fill: #687282"/>
        <polygon points="101.9 145.2 99.5 145.2 97.6 133.5 100 133.5 101.9 145.2" style="fill: #bec3cc"/>
        <ellipse cx="92.3" cy="161.9" rx="16.2" ry="19" transform="translate(-89.3 120) rotate(-47.3)" style="fill: #40464f"/>
        <ellipse cx="92.3" cy="161.9" rx="8.2" ry="9.6" transform="translate(-89.3 120) rotate(-47.3)" style="fill: #323740"/>
        <ellipse cx="95.2" cy="161.9" rx="5.8" ry="8.6" transform="translate(-43.9 35.7) rotate(-17.3)" style="fill: #2c3038"/>
        <path d="M66.8,179.5c9.7,0,16.3-7.9,14.8-17.6s-10.8-17.6-20.4-17.6H54.3L60,179.5Z" style="fill: #4f5660"/>
        <polygon points="60.4 148.3 49.5 148.3 47.1 133.5 58 133.5 60.4 148.3" style="fill: #e4e6e8"/>
        <polygon points="59.9 145.2 57.6 145.2 55.7 133.5 58 133.5 59.9 145.2" style="fill: #bec3cc"/>
        <ellipse cx="57.2" cy="161.9" rx="16.2" ry="19" transform="translate(-100.6 94.1) rotate(-47.3)" style="fill: #e4e6e8"/>
        <path d="M55.7,133.5H47.2c-2-12.2,6.4-22.2,18.6-22.2h8.4C62.1,111.3,53.7,121.3,55.7,133.5Z" style="fill: #e4e6e8"/>
        <ellipse cx="54" cy="161.9" rx="10.8" ry="12.7" transform="translate(-101.6 91.8) rotate(-47.3)" style="fill: #bdc5cf"/>
        <path d="M52.7,169.3l-4.6-3.5c-.3-.2-.1-.6.3-.6h7.8c.4,0,.5.5.2.8l-3.2,3.2C53,169.3,52.8,169.4,52.7,169.3Z" style="fill: #fff"/>
        <path d="M100,133.5H97.6c-1.7-10.9-12.1-19.9-23-19.9s-18.4,9-16.6,19.9H55.7c-2-12.2,6.4-22.2,18.5-22.2S98,121.3,100,133.5Z" style="fill: #e9ebed"/>
        <path d="M100,133.5H97.6c-1.7-10.9-12.1-19.9-23-19.9s-18.4,9-16.6,19.9H55.7c-2-12.2,6.4-22.2,18.5-22.2S98,121.3,100,133.5Z" style="fill: #bec3cc"/>
      </g>
      <path d="M291.1,156.5h-.5L258,142.3a1.4,1.4,0,0,1-.7-1.6,1.2,1.2,0,0,1,1.7-.7l32.6,14.1a1.2,1.2,0,0,1,.7,1.6A1.3,1.3,0,0,1,291.1,156.5Z" style="fill: #e9ebed"/>
      <path d="M182.5,176.9a22.2,22.2,0,0,1-21.8-18.3c-1.2-6.7-1.9-13.1-2.6-18.8l-.2-2.3a14.9,14.9,0,0,0-14.8-13.2h-2.2a1.2,1.2,0,0,1-1.2-1.2,1.2,1.2,0,0,1,1.2-1.3h2.2a17.4,17.4,0,0,1,17.3,15.4l.2,2.3c.7,5.6,1.4,12,2.6,18.7a18.9,18.9,0,0,0,10.7,14.2A19.6,19.6,0,0,0,192,172c10-5.5,19.7-5.9,29.6-5.9a1.2,1.2,0,0,1,1.3,1.2,1.3,1.3,0,0,1-1.3,1.3c-11.8,0-19.8.9-28.4,5.6A22.7,22.7,0,0,1,182.5,176.9Z" style="fill: #42454d"/>
      <path d="M290.4,160l-1.2-.3-9.6-4.1-3.5,2.5a1.3,1.3,0,0,1-1.2.2l-20.1-8.7a1.2,1.2,0,0,1-.6-1.6,1.2,1.2,0,0,1,1.6-.7l19.4,8.4,3.5-2.6a1.5,1.5,0,0,1,1.3-.1l10.2,4.4a.5.5,0,0,0,.7-.3.5.5,0,0,0-.3-.7L258,142.3a1.4,1.4,0,0,1-.7-1.6,1.2,1.2,0,0,1,1.7-.7l32.6,14.1a2.9,2.9,0,0,1,1.7,1.7,2.7,2.7,0,0,1-.1,2.3A3,3,0,0,1,290.4,160Z" style="fill: #a8b0b5"/>
      <path d="M250.5,161.2l-4.9-2.1,3.3-7.6,4.9,2.1a.8.8,0,0,1,.2,1.4h0a5.9,5.9,0,0,0-2.3,5.3h0A.8.8,0,0,1,250.5,161.2Z" style="fill: #4f5660"/>
      <path d="M254.9,155.8,227.5,144a10.2,10.2,0,0,1-5.3-13.3h0a10.1,10.1,0,0,1,13.4-5.3l29.9,12.9a4.7,4.7,0,0,1,1.7,7.3l-7.4,9.1A4.1,4.1,0,0,1,254.9,155.8Z" style="fill: #8e97a3"/>
      <path d="M231.2,174.2v1a1.5,1.5,0,0,1-2.5,1.1l-8.6-6.5a3.5,3.5,0,0,1-.6-5l12.7-15.4a2.3,2.3,0,0,0-.9-3.7l-3.7-1.7,1.4-3,23.1,9.9,1,4.1-1.4-.6a1.2,1.2,0,0,0-1.4.6l-2.2,5.1a1.9,1.9,0,0,1-2.3,1l-2-.9a2.1,2.1,0,0,0-2.6.9,34.5,34.5,0,0,1-8.1,9.5A5.4,5.4,0,0,0,231.2,174.2Z" style="fill: #8e97a3"/>
      <path d="M281.4,141.2h0a1.8,1.8,0,0,1,1.8,1.8v36.5a0,0,0,0,1,0,0h-3.7a0,0,0,0,1,0,0V143A1.8,1.8,0,0,1,281.4,141.2Z" style="fill: #747f8d"/>
      <path d="M218.6,175.5h69.7a1.6,1.6,0,0,1,1.6,1.6v2.4a0,0,0,0,1,0,0H217a0,0,0,0,1,0,0v-2.4A1.6,1.6,0,0,1,218.6,175.5Z" style="fill: #747f8d"/>
      <path d="M221.9,131.3h0a10.1,10.1,0,0,0,5.6,12.8l3.7,1.6a2.3,2.3,0,0,1,.9,3.7l-12.7,15.4,1.2.8a2.3,2.3,0,0,0,3.2-.4l13.7-15.8a8.5,8.5,0,0,0,1.9-7.8l-.6-2.3a2.5,2.5,0,0,1,1.5-3.1l2.1-1a3.9,3.9,0,0,0,2.4-3.7v-2.1h0l-9.3-4.1A10.2,10.2,0,0,0,221.9,131.3Z" style="fill: #747f8d"/>
      <rect x="245.5" y="140.2" width="14.3" height="3.89" rx="1.9" transform="translate(77.2 -88.6) rotate(23.4)" style="fill: #ffd836"/>
      <path d="M29.6,62.9H53.2a.9.9,0,0,1,.9.9v1.8a0,0,0,0,1,0,0H28.7a0,0,0,0,1,0,0V63.8A.9.9,0,0,1,29.6,62.9Z" style="fill: #9aa2ac"/>
      <path d="M47,44.8h-.1a.6.6,0,0,1-.4-.6,5.1,5.1,0,0,0,.3-2.5.4.4,0,0,1,.4-.6.7.7,0,0,1,.6.4,7.1,7.1,0,0,1-.3,3A.7.7,0,0,1,47,44.8Z" style="fill: #8a939f"/>
      <path d="M42.9,44.3c-.2,0-.3,0-.4-.2a.5.5,0,0,1,.1-.7A3.4,3.4,0,0,0,44,41.6a.4.4,0,0,1,.6-.3c.3,0,.4.3.3.6a4.2,4.2,0,0,1-1.7,2.3Z" style="fill: #8a939f"/>
      <path d="M39.9,41.9a.5.5,0,0,1,0-1,5.6,5.6,0,0,0,2.2-.8.5.5,0,0,1,.7.1c.1.3.1.6-.2.7a5.5,5.5,0,0,1-2.7,1Z" style="fill: #8a939f"/>
      <path d="M38.7,39a.5.5,0,0,1-.5-.5.4.4,0,0,1,.4-.5l2.4-.4a.4.4,0,0,1,.6.3.5.5,0,0,1-.3.6l-2.6.5Z" style="fill: #8a939f"/>
      <path d="M37.2,36.2c-.2,0-.4-.1-.4-.3s0-.6.3-.6a5.5,5.5,0,0,1,2.8-.4.5.5,0,0,1,0,1,5.2,5.2,0,0,0-2.5.3Z" style="fill: #8a939f"/>
      <path d="M35.5,33.7c-.2,0-.4,0-.5-.2a.7.7,0,0,1,.2-.7,4.4,4.4,0,0,1,3-.4c.3.1.5.4.4.6s-.3.5-.6.4a3.1,3.1,0,0,0-2.3.3Z" style="fill: #8a939f"/>
      <path d="M50.1,42.9a.5.5,0,0,1-.5-.5,3.1,3.1,0,0,0-.9-2.1.5.5,0,0,1,.8-.7,4.4,4.4,0,0,1,1.1,2.7.6.6,0,0,1-.5.6Z" style="fill: #8a939f"/>
      <path d="M51.6,40a.5.5,0,0,1-.5-.3,3.5,3.5,0,0,0-1.4-1.9c-.3-.1-.3-.5-.2-.7a.7.7,0,0,1,.7-.2,4.9,4.9,0,0,1,1.9,2.5c.1.2-.1.5-.3.6Z" style="fill: #8a939f"/>
      <path d="M51.8,36.2h-.3a2.9,2.9,0,0,0-2.2-.4.7.7,0,0,1-.6-.4c0-.3.1-.6.4-.6a3.6,3.6,0,0,1,3,.7.5.5,0,0,1,.1.7Z" style="fill: #8a939f"/>
      <path d="M50.2,33.4h-.4a2.5,2.5,0,0,0-2-.4c-.2,0-.5-.2-.5-.4a.4.4,0,0,1,.4-.6,3.5,3.5,0,0,1,2.8.7c.2.1.2.5.1.7Z" style="fill: #8a939f"/>
      <circle cx="147.2" cy="95.2" r="2.2" style="fill: #9ba3ad"/>
      <path d="M166.3,116.3H161a1.2,1.2,0,0,1-1.3-1.2,1.3,1.3,0,0,1,1.3-1.3h5.3c5.1,0,8.6-1.9,10.2-5.4a8.3,8.3,0,0,0-.7-7.9,9.2,9.2,0,0,0-7.5-4.1H147.2a1.2,1.2,0,0,1-1.2-1.2,1.3,1.3,0,0,1,1.2-1.3h21.1a11.4,11.4,0,0,1,9.6,5.3,10.4,10.4,0,0,1,.9,10.2C176.8,113.9,172.4,116.3,166.3,116.3Z" style="fill: #585f6a"/>
      <circle cx="228.3" cy="136" r="2.5" style="fill: #626b7a"/>
      <path d="M498,166.2l-4.7-1.5a1,1,0,0,1-.6-1.3l5.6-18.1a1,1,0,0,1,1-.7h4.9l-.5,21.6Z" style="fill: #a2a9b3"/>
      <path d="M503.7,166.2l-5.7-1.8,1.5-11,4.7-8.8,4.9,1.5a.6.6,0,0,1,.3.9l-4.8,8.4Z" style="fill: #9099a4"/>
      <path d="M364.4,91.2h-5.1a4.8,4.8,0,0,0-2.1-.7,4.1,4.1,0,0,0-3.7,2.1,112.8,112.8,0,0,1-12.1,17.3,1.8,1.8,0,0,1-1.5.7,2.2,2.2,0,0,1-1.3-.4,2.1,2.1,0,0,1-.2-2.9A110.7,110.7,0,0,0,350,90.7a7.8,7.8,0,0,1,7.4-4.1A8,8,0,0,1,364.4,91.2Z" style="fill: #9ca4ae"/>
      <path d="M336.6,113.2a1.1,1.1,0,0,1-.7-.3,1,1,0,0,1,0-1.4l3-3.1a1.2,1.2,0,0,1,1.5-.1,1,1,0,0,1,0,1.4l-3.1,3.2A.9.9,0,0,1,336.6,113.2Z" style="fill: #8b939e"/>
      <path d="M339,113.3h-.3a1,1,0,0,1-.6-1.3l1-3a1,1,0,0,1,1.2-.7,1.2,1.2,0,0,1,.7,1.3l-1,3A.9.9,0,0,1,339,113.3Z" style="fill: #8b939e"/>
      <path d="M335.9,111.4a1.1,1.1,0,0,1-.9-.5,1,1,0,0,1,.5-1.3l3.1-1.6a1,1,0,1,1,.9,1.7l-3.1,1.6Z" style="fill: #8b939e"/>
      <path d="M362.4,93.3l5.9,3.9a10.8,10.8,0,0,0,9.1,1.3h0a10.8,10.8,0,0,0,1.3,9.1l3.9,5.9-5.8-3.9a10.7,10.7,0,0,0-9.2-1.3h0a10.7,10.7,0,0,0-1.3-9.2Z" style="fill: #c7ccd1"/>
      <polygon points="575.9 53.8 571.3 53.8 572 62.1 575.2 62.1 575.9 53.8" style="fill: #9099a4"/>
      <path d="M319.2,20.3l4.1-1.8a.8.8,0,0,0,0-1.5l-4.1-1.8-.4-.4L317,10.7a.8.8,0,0,0-1.5,0l-1.9,4.1-.4.4L309.1,17a.9.9,0,0,0,0,1.5l4.1,1.8.4.4,1.9,4.1a.8.8,0,0,0,1.5,0l1.8-4.1C318.9,20.6,319,20.4,319.2,20.3Z" style="fill: #d4e4ff"/>
      <path d="M393.6,52.5l4.3,1.7a.9.9,0,0,0,1.2-1.1l-1.7-4.4a.6.6,0,0,1,0-.6l1.7-4.4a.9.9,0,0,0-1.2-1.1l-4.3,1.7a.6.6,0,0,1-.6,0l-4.4-1.7a.8.8,0,0,0-1.1,1.1l1.7,4.4v.6l-1.7,4.4a.9.9,0,0,0,1.1,1.1l4.4-1.7A.6.6,0,0,1,393.6,52.5Z" style="fill: #ffd836"/>
      <g>
        <rect x="147.6" y="30.6" width="3.7" height="7.33" rx="1.9" style="fill: #7e9fff"/>
        <rect x="147.6" y="47.1" width="3.7" height="7.33" rx="1.9" style="fill: #7e9fff"/>
        <rect x="155.8" y="38.9" width="3.7" height="7.33" rx="1.9" transform="translate(200.2 -115.1) rotate(90)" style="fill: #7e9fff"/>
        <rect x="139.3" y="38.9" width="3.7" height="7.33" rx="1.9" transform="translate(183.7 -98.6) rotate(90)" style="fill: #7e9fff"/>
      </g>
      <g>
        <rect x="636.7" y="81.5" width="2.9" height="5.81" rx="1.5" transform="translate(246.6 -426.6) rotate(45)" style="fill: #51bc9d"/>
        <rect x="627.5" y="90.7" width="2.9" height="5.81" rx="1.5" transform="translate(250.4 -417.3) rotate(45)" style="fill: #51bc9d"/>
        <rect x="636.7" y="90.7" width="2.9" height="5.81" rx="1.5" transform="translate(1155.7 -291.5) rotate(135)" style="fill: #51bc9d"/>
        <rect x="627.5" y="81.5" width="2.9" height="5.81" rx="1.5" transform="translate(1133.4 -300.7) rotate(135)" style="fill: #51bc9d"/>
      </g>
    </g>
    <g id="Layer_2" data-name="Layer 2">
      <rect y="179.5" width="660" height="8.5" style="fill: #b7bfc7"/>
    </g>
  </g>
</svg>
