<svg width="24" height="24" viewBox="0 0 24 24" fill="none" xmlns="http://www.w3.org/2000/svg">
<path opacity="0.6" fill-rule="evenodd" clip-rule="evenodd" d="M9 2H7V4H5.7C4.5799 4 4.01984 4 3.59202 4.21799C3.21569 4.40973 2.90973 4.71569 2.71799 5.09202C2.5 5.51984 2.5 6.0799 2.5 7.2V18.8C2.5 19.9201 2.5 20.4802 2.71799 20.908C2.90973 21.2843 3.21569 21.5903 3.59202 21.782C4.01984 22 4.57989 22 5.7 22H11.4995C10.5579 20.7465 10 19.1884 10 17.5C10 16.2359 10.3127 15.0449 10.865 14H10.5V11H13.5V11.1546C14.6577 10.4232 16.0294 10 17.5 10C18.9706 10 20.3423 10.4232 21.5 11.1546V7.2C21.5 6.0799 21.5 5.51984 21.282 5.09202C21.0903 4.71569 20.7843 4.40973 20.408 4.21799C19.9802 4 19.4201 4 18.3 4H17V2H15V4H9V2ZM8.5 11V14H5.5V11H8.5ZM5.5 16V19H8.5V16H5.5ZM18.5 7H5.5V9H18.5V7Z" fill="#4F545C"/>
</svg>
