<svg width="640" height="40" viewBox="0 0 640 40" fill="none" xmlns="http://www.w3.org/2000/svg">
<path d="M631.755 5.91763V1.8697C631.755 1.56706 631.638 1.26906 631.412 1.00253C631.187 0.736005 630.861 0.509317 630.463 0.342886C630.066 0.176456 629.61 0.0755103 629.136 0.049135C628.661 0.0227597 628.185 0.0717784 627.748 0.19179L624.021 1.24048C622.891 1.54823 621.928 2.06001 621.251 2.71241C620.574 3.36482 620.212 4.1292 620.212 4.91089V5.95958H608.668V1.8697C608.669 1.56706 608.551 1.26906 608.326 1.00253C608.101 0.736005 607.774 0.509317 607.377 0.342886C606.979 0.176456 606.523 0.0755103 606.049 0.049135C605.575 0.0227597 605.098 0.0717784 604.661 0.19179L600.934 1.24048C599.804 1.54823 598.841 2.06001 598.164 2.71241C597.487 3.36482 597.126 4.1292 597.125 4.91089V5.95958H42.875V4.91089C42.8743 4.1292 42.513 3.36482 41.8359 2.71241C41.1588 2.06001 40.1956 1.54823 39.0657 1.24048L35.3389 0.19179C34.902 0.0717784 34.4251 0.0227597 33.951 0.049135C33.4769 0.0755103 33.0206 0.176456 32.6231 0.342886C32.2257 0.509317 31.8995 0.736005 31.6741 1.00253C31.4487 1.26906 31.331 1.56706 31.3317 1.8697V5.91763H19.7885V4.86895C19.7877 4.08726 19.4264 3.32287 18.7493 2.67046C18.0722 2.01806 17.1091 1.50629 15.9792 1.19854L12.2524 0.14985C11.8103 0.028309 11.3273 -0.020528 10.8478 0.00785061C10.3683 0.0362293 9.90769 0.140909 9.5085 0.312235C9.10932 0.483561 8.78437 0.716022 8.5636 0.988203C8.34282 1.26038 8.23332 1.56353 8.24519 1.8697V5.91763H0V31.8831C0 34.0359 0.106369 37.9778 2.5 39.5C4.89363 41.0222 9.37845 40 12.7636 40H627.236C630.622 40 634.606 40.5222 637 39C639.394 37.4778 640 34.0359 640 31.8831V5.91763H631.755Z" fill="#3244CD"/>
</svg>
