<svg width="24" height="24" viewBox="0 0 24 24" fill="none" xmlns="http://www.w3.org/2000/svg">
<path fill-rule="evenodd" clip-rule="evenodd" d="M14 7.72689V3.57977C14 3.05921 14.6162 2.80761 14.9806 3.172L20.8298 9.01961C21.1943 9.38401 20.9339 10 20.4219 10H18H16.2737C15.0154 10 14 8.98491 14 7.72689ZM10.5806 20.9978H4.79458C3.80756 20.9978 3 20.1902 3 19.2032V4.84655C3 3.85953 3.80756 3.05197 4.79458 3.05197H11.9729V7.8794C11.9729 9.26744 12.6564 10.497 13.705 11.2495C11.4774 12.6698 10 15.1623 10 18C10 19.0601 10.2062 20.072 10.5806 20.9978Z" fill="#4F545C" opacity=".6"/>
</svg>
