<svg width="240" height="464" viewBox="0 0 240 464" fill="none" xmlns="http://www.w3.org/2000/svg">
<path d="M72 389.43C72.0358 389.344 72.0359 389.247 72.0003 389.161C71.9647 389.074 71.8962 389.006 71.81 388.97C71.7238 388.934 71.6269 388.934 71.5407 388.97C71.4544 389.005 71.3858 389.074 71.35 389.16L68.63 393.81C68.34 393.62 68.05 393.45 67.76 393.24C66.0563 392.031 64.8933 390.203 64.5195 388.147C64.1458 386.092 64.591 383.972 65.76 382.24L75.63 367.65L96.16 369.53L99.9 386.83C100.116 387.847 100.009 388.906 99.5952 389.859C99.1812 390.813 98.4803 391.613 97.59 392.15C96.59 392.72 95.48 393.35 94.16 393.97L93.34 387.31C93.3278 387.246 93.2936 387.188 93.2434 387.147C93.1932 387.105 93.1301 387.083 93.065 387.083C92.9999 387.083 92.9368 387.105 92.8866 387.147C92.8364 387.188 92.8023 387.246 92.79 387.31L91.72 395.04C85.9 397.34 78.01 398.81 70.48 394.89L72 389.43Z" fill="#6E707D"/>
<path d="M116.26 354.26C115.18 351.56 110.57 350.17 108.49 349.57L107.76 349.25C106.89 348.859 105.953 348.642 105 348.61L83.52 347.81C82.8 347.81 85.12 349.29 85 350L81.84 350.26C81.8058 350.459 81.8141 350.662 81.8642 350.858C81.9143 351.053 82.0051 351.235 82.1307 351.393C82.2563 351.551 82.4138 351.68 82.593 351.773C82.7721 351.865 82.9687 351.919 83.17 351.93L105.23 353.13C104.93 354.921 105.138 356.761 105.83 358.44C107.43 362.44 111.06 364.73 113.94 363.57C116.82 362.41 117.86 358.25 116.26 354.26Z" fill="#ED9836"/>
<path d="M116.26 354.26C115.18 351.56 110.57 350.17 108.49 349.57L108.43 349.51C107.978 351.164 108.084 352.921 108.73 354.51C110.11 358.05 113.52 360.02 116.35 358.92C116.572 358.832 116.786 358.724 116.99 358.6C117.075 357.117 116.826 355.634 116.26 354.26Z" fill="#E0851B"/>
<path d="M103.14 331.44C110.14 344.23 122.33 353.44 135.39 359.93C136.542 360.491 137.811 360.768 139.092 360.737C140.373 360.706 141.627 360.367 142.75 359.75C146.94 357.46 153.26 353.91 152.45 353.75C151.26 353.45 150.39 353.47 149.19 353.2L148.77 353.11C151.84 353.11 153.15 355.25 155.97 354.03C158.79 352.81 163.13 348.2 164.75 345.59C165.84 343.85 166.52 341.72 165.67 339.74C165.441 339.164 165.061 338.66 164.57 338.282C164.079 337.904 163.495 337.665 162.88 337.59C160.8 337.42 159.48 339.3 158.02 340.64C156.699 341.808 155.108 342.629 153.39 343.03C155.265 342.205 156.943 340.989 158.312 339.465C159.681 337.941 160.71 336.143 161.33 334.19C161.9 332.34 161.9 329.94 160.27 328.89C159.733 328.592 159.129 328.436 158.515 328.436C157.901 328.436 157.297 328.592 156.76 328.89C155.7 329.508 154.758 330.311 153.98 331.26C150.26 335.26 146.42 339.7 141.15 341.26C136.15 342.74 130.77 341.38 126 339.26C117.92 335.74 109.47 330.59 105 322.97C104.32 324.77 105 325.97 104 327.65C103.295 328.565 102.85 329.653 102.71 330.8C102.701 330.932 102.729 331.063 102.79 331.18C102.89 331.32 103 331.52 103.14 331.44Z" fill="white"/>
<path opacity="0.51" d="M103.14 331.44C103.03 331.52 102.89 331.32 102.81 331.21C102.749 331.093 102.721 330.962 102.73 330.83C102.87 329.683 103.315 328.595 104.02 327.68C104.92 326.21 104.51 325.06 104.9 323.54L105.47 323.65C107.241 326.432 109.445 328.914 112 331C112 340 117.09 345 121.54 351.65C114.08 346.2 107.56 339.53 103.14 331.44Z" fill="#E4E4E4"/>
<path d="M110.22 283.05C104.466 288.83 100.306 296.002 98.1458 303.867C95.9851 311.731 95.897 320.021 97.89 327.93" stroke="white" stroke-width="11.24" stroke-miterlimit="10"/>
<path d="M105.16 349C105.16 349 114.86 333.44 105.35 322.2L102.76 321.34C102.76 321.34 101.16 327.39 100.3 327.39L98.06 320L86 321C86 321 83 325 80.06 324C80.06 324 77.06 329 84.06 351L105.16 349Z" fill="#484482"/>
<path d="M100.28 327.18V327.35L102.04 321L107.04 322C116.55 333.24 105.14 349 105.14 349H104.85L99.55 341.33L100.28 327.18Z" fill="#413D75"/>
<path d="M99.57 341.31L85.06 351L105.16 348.96L99.57 341.31Z" fill="#3A385B"/>
<path d="M127.26 340.93C126.96 340.46 126.67 339.93 126.41 339.45C131.08 341.45 136.33 342.69 141.18 341.25L141.49 341.15C142.697 341.213 143.907 341.187 145.11 341.07C145.839 340.926 146.594 340.989 147.29 341.25C147.676 341.476 147.986 341.812 148.181 342.214C148.377 342.616 148.45 343.067 148.39 343.51C148.258 344.396 147.828 345.211 147.17 345.82C145.52 347.311 143.393 348.166 141.17 348.23C139.17 348.42 137.153 348.19 135.247 347.557C133.341 346.923 131.588 345.899 130.1 344.55C129.009 343.464 128.055 342.248 127.26 340.93Z" fill="#CACACA"/>
<path d="M104.17 281.22L106.44 282.05L112.03 285.05L114.03 287.23C111.217 289.987 108.855 293.169 107.03 296.66C106.51 291.66 103.38 287.18 101.34 284.75C102.37 283.31 103.35 282.14 104.17 281.22Z" fill="#E4E4E4"/>
<path d="M112.62 253.66C111.62 256.19 110.77 265.88 110.77 265.88C110.77 265.88 116.53 258.04 117.49 255.51C118.45 252.98 118.14 250.51 116.79 250.01C115.44 249.51 113.58 251.13 112.62 253.66Z" fill="#CACACA"/>
<path d="M118.346 289.986C124.496 287.748 127.31 279.968 124.632 272.609C121.953 265.25 114.796 261.098 108.647 263.337C102.497 265.575 99.6826 273.355 102.361 280.715C105.04 288.074 112.196 292.225 118.346 289.986Z" fill="white"/>
<path d="M99.5 253.68C101.23 256.82 111.94 265.08 111.94 265.08C111.94 265.08 110.64 251.61 108.94 248.48C107.24 245.35 103.7 243.97 101.1 245.41C98.5 246.85 97.76 250.55 99.5 253.68Z" fill="white"/>
<path d="M98.9 258.43C101.66 258.7 110.9 263.31 110.9 263.31C110.9 263.31 100.98 266.02 98.22 265.75C95.46 265.48 93.39 263.62 93.59 261.6C93.79 259.58 96.14 258.16 98.9 258.43Z" fill="white"/>
<path d="M122 285C122 285 114 291 114.24 280.27L122 285Z" fill="#F5B41B"/>
<path d="M114.24 280.27C108.34 276.21 105.97 269.41 108.94 265.09C109.62 264.118 110.526 263.325 111.58 262.78C116.92 262.52 122.36 266.43 124.58 272.63C125.838 275.966 125.923 279.63 124.82 283.02C121.072 283.476 117.291 282.493 114.24 280.27Z" fill="#5AE6DC"/>
<path d="M114.24 280.27C115.951 279.298 117.837 278.673 119.79 278.433C121.743 278.193 123.725 278.341 125.62 278.87C125.62 278.87 129.51 287.01 139.19 295.13C140.27 296.038 141.001 297.293 141.26 298.68V298.89L114.24 280.27Z" fill="#F5CD1B"/>
<path d="M133.222 291.914C133.378 291.686 133.137 291.248 132.682 290.934C132.227 290.621 131.731 290.551 131.575 290.779C131.418 291.006 131.66 291.444 132.114 291.758C132.569 292.071 133.065 292.141 133.222 291.914Z" fill="#BD9E15"/>
<path d="M107.5 332C108.328 332 109 331.105 109 330C109 328.895 108.328 328 107.5 328C106.672 328 106 328.895 106 330C106 331.105 106.672 332 107.5 332Z" fill="#737093"/>
<g style="mix-blend-mode:multiply" opacity="0.32">
<path d="M92.06 350C92.06 350 87.06 338 80.68 338.08C80.24 338.08 84.06 352 84.06 352L102.56 351.5L92.06 350Z" fill="#3A385B"/>
</g>
<path d="M121.81 406.28H105.81C105.585 406.281 105.362 406.238 105.154 406.153C104.946 406.067 104.757 405.941 104.598 405.782C104.439 405.623 104.313 405.434 104.227 405.226C104.142 405.018 104.099 404.795 104.1 404.57V380L109.42 377.76L110.01 393.94C110.052 395.206 110.498 396.426 111.282 397.421C112.067 398.416 113.149 399.134 114.37 399.47C117.582 400.237 120.503 401.918 122.78 404.31C122.93 404.488 123.024 404.706 123.052 404.937C123.08 405.168 123.04 405.402 122.937 405.611C122.834 405.82 122.673 405.994 122.473 406.113C122.273 406.232 122.042 406.29 121.81 406.28Z" fill="#3A3445"/>
<path d="M111.81 376.3L113.05 378.3C113.228 378.603 113.327 378.946 113.338 379.297C113.348 379.648 113.27 379.996 113.111 380.309C112.951 380.622 112.716 380.889 112.425 381.087C112.135 381.285 111.8 381.406 111.45 381.44L102.05 382.44C101.732 382.468 101.411 382.419 101.116 382.297C100.82 382.175 100.558 381.984 100.351 381.741C100.145 381.497 99.9995 381.207 99.9279 380.895C99.8563 380.584 99.8605 380.26 99.94 379.95L100.06 378.05L111.81 376.3Z" fill="#7E808F"/>
<path d="M85.28 382.39L80.38 395.25C80.2214 395.657 80.1497 396.093 80.1696 396.529C80.1894 396.965 80.3004 397.393 80.4954 397.784C80.6904 398.175 80.965 398.52 81.3016 398.799C81.6383 399.077 82.0294 399.282 82.45 399.4C84.91 400.08 88.12 403.4 89.95 405.86C90.0985 406.06 90.1886 406.297 90.21 406.545C90.2314 406.793 90.1834 407.042 90.0713 407.264C89.9592 407.486 89.7874 407.673 89.5752 407.803C89.363 407.933 89.1188 408.001 88.87 408L73.38 406C73.0688 406.002 72.7619 405.928 72.4862 405.784C72.2104 405.64 71.9743 405.43 71.7985 405.173C71.6228 404.917 71.5127 404.621 71.4781 404.311C71.4435 404.002 71.4853 403.689 71.6 403.4L80.09 381.52L85.28 382.39Z" fill="#3A3445"/>
<path d="M86.78 380.84L87.06 382.21C87.1332 382.546 87.1275 382.895 87.0434 383.229C86.9593 383.562 86.7991 383.872 86.5754 384.134C86.3517 384.395 86.0705 384.601 85.7538 384.736C85.4371 384.871 85.0936 384.93 84.75 384.91L78.15 384.55C77.7568 384.528 77.3763 384.402 77.0467 384.187C76.717 383.971 76.4497 383.673 76.2716 383.321C76.0934 382.97 76.0105 382.578 76.0313 382.185C76.0521 381.792 76.1758 381.411 76.39 381.08L76.94 380.25L86.78 380.84Z" fill="#9395A6"/>
<path d="M105.06 351C105.31 351.73 125.15 376.49 106.43 379.61C92.06 382 87.53 360.68 94.3 351.75L105.06 351Z" fill="#7E808F"/>
<path d="M98.43 351.55C98.43 351.55 102.61 384.55 81 382C81 382 69 382 77 363L81 352L98.43 351.55Z" fill="#9395A6"/>
<path d="M111.56 370.5C111.56 370.5 103.56 378.5 98.56 371.5C98.56 371.5 99.56 384.5 111.56 370.5Z" fill="#6E707D"/>
<path d="M81.9 368.55C82.36 367.66 78.26 371.15 75.97 369.48C76 369.48 79.55 373 81.9 368.55Z" fill="#AAACBE"/>
<path d="M113 272C113 272 116 273 114 277" stroke="black" stroke-width="2" stroke-miterlimit="10" stroke-linecap="round"/>
<path d="M81 349H107V353H81C80.4696 353 79.9609 352.789 79.5858 352.414C79.2107 352.039 79 351.53 79 351C79 350.47 79.2107 349.961 79.5858 349.586C79.9609 349.211 80.4696 349 81 349Z" fill="#ED9836"/>
<path d="M123.986 324.737L126.936 321.889C128.342 320.532 130.23 319.788 132.185 319.823C134.139 319.857 135.999 320.667 137.357 322.073L123.774 335.186C123.099 334.487 122.569 333.662 122.215 332.758C121.86 331.853 121.688 330.888 121.708 329.917C121.727 328.946 121.939 327.989 122.33 327.099C122.721 326.21 123.284 325.408 123.986 324.737Z" fill="#A075E0"/>
<path d="M139.39 355.37C149.116 355.37 157 347.486 157 337.76C157 328.034 149.116 320.15 139.39 320.15C129.664 320.15 121.78 328.034 121.78 337.76C121.78 347.486 129.664 355.37 139.39 355.37Z" fill="#B78AFA"/>
<path d="M125 347.92C128.71 347.48 132.36 343.68 133.76 338.38C135.43 332.04 133.24 325.96 128.87 324.81C128.471 324.709 128.062 324.652 127.65 324.64C127.48 324.79 127.3 324.93 127.13 325.09C124.107 328.014 122.231 331.923 121.84 336.111C121.45 340.298 122.57 344.487 125 347.92Z" fill="#C4A0FA"/>
<path d="M146.48 344.2C143.05 347.51 141.8 351.77 143.69 353.73C144.026 354.068 144.437 354.322 144.89 354.47C147.687 353.562 150.21 351.962 152.224 349.819C154.238 347.676 155.678 345.058 156.41 342.21C156.322 342.044 156.218 341.886 156.1 341.74C154.22 339.79 149.91 340.89 146.48 344.2Z" fill="#9069C9"/>
<path opacity="0.46" d="M154.29 328.37C153.754 327.522 153.142 326.726 152.46 325.99C149.245 324.56 145.714 323.988 142.212 324.329C138.71 324.67 135.356 325.913 132.477 327.936C129.598 329.96 127.293 332.695 125.787 335.875C124.28 339.055 123.623 342.571 123.88 346.08C124.347 346.962 124.889 347.802 125.5 348.59C124.71 344.921 125.019 341.1 126.387 337.606C127.756 334.111 130.123 331.097 133.195 328.94C136.266 326.783 139.905 325.578 143.656 325.477C147.408 325.376 151.107 326.382 154.29 328.37Z" fill="#A075E0"/>
<path d="M70.68 384.32C69.6682 382.565 68.8116 380.724 68.12 378.82C62.87 364.82 62.07 341.46 75.73 325.82C77.9041 323.377 80.8591 321.765 84.09 321.26C84.2736 321.227 84.4626 321.244 84.6379 321.308C84.8132 321.371 84.9685 321.48 85.0882 321.623C85.2079 321.766 85.2877 321.938 85.3197 322.122C85.3516 322.306 85.3345 322.495 85.27 322.67C82.63 329.89 71.68 356.86 87 374L74.51 385.39C74 385.7 71 384.88 70.68 384.32Z" fill="white"/>
<path d="M91.22 320.57L82 321C81.9046 321.003 81.8115 321.031 81.7304 321.081C81.6493 321.132 81.583 321.203 81.5383 321.287C81.4936 321.371 81.472 321.466 81.4758 321.561C81.4797 321.657 81.5087 321.75 81.56 321.83C82.5386 323.361 83.1347 325.106 83.2983 326.915C83.4619 328.725 83.1881 330.548 82.5 332.23L91 324L91.22 320.57Z" fill="#484482"/>
<path d="M154 342.82C154.27 342.74 154.54 342.66 154.81 342.55C154.53 342.607 154.258 342.697 154 342.82Z" fill="#E4E4E4"/>
<path d="M154.82 342.55C154.55 342.66 154.28 342.74 154.01 342.82C152.67 343.45 151.18 345.11 149.65 348.35C146.54 354.95 139.72 358.1 134.76 359.61C138.065 361.264 141.852 361.686 145.44 360.8C149.183 359.984 152.606 358.093 155.29 355.36C156.476 354.116 157.452 352.687 158.18 351.13C158.514 350.445 158.788 349.732 159 349C159.66 346.38 157.73 342 154.82 342.55Z" fill="#CACACA"/>
<path d="M132.45 406.11C132.214 405.991 131.94 405.971 131.689 406.054C131.438 406.136 131.23 406.314 131.11 406.55C129.46 409.85 123.11 410.99 117.32 409.05C115.24 408.36 112.79 408.68 110.19 409.05C106.43 409.54 102.88 410.05 100.78 407.4C97 402.67 97.97 399.26 99.57 393.61C100.02 392.03 100.57 390.23 100.98 388.24C101.921 383.816 101.921 379.244 100.98 374.82C99.85 369.15 97.5 365.15 93.6 362.22C92.5178 361.43 91.2842 360.873 89.9764 360.582C88.6686 360.291 87.3149 360.273 86 360.53C84.7263 360.745 83.5108 361.221 82.43 361.928C81.3492 362.635 80.4265 363.559 79.72 364.64C76.78 369.3 73.72 374.11 72.26 379.64C71.26 383.33 70.53 387 69.83 390.54C68.9423 395.679 67.6789 400.746 66.05 405.7C63.47 413.01 61.05 418.82 55.12 421.42C48.715 424.15 41.5677 424.602 34.87 422.7C34.34 422.55 33.65 422.33 32.87 422.08C27.36 420.33 15.87 416.69 9.36999 422.27C6.36999 424.84 4.82999 428.75 3.04999 433.27C2.14999 435.54 1.20999 437.92 0.0499878 440.27V444.37C1.96419 441.062 3.58376 437.592 4.88999 434C6.56999 429.72 8.02999 426 10.65 423.78C16.32 418.92 27.08 422.33 32.25 423.97C33.09 424.24 33.8 424.46 34.36 424.62C41.4992 426.644 49.1167 426.157 55.94 423.24C63.1 420.08 65.79 412.47 67.94 406.35C69.6001 401.301 70.8902 396.137 71.8 390.9C72.5 387.39 73.21 383.76 74.2 380.14C75.61 374.93 78.57 370.24 81.42 365.71C81.9855 364.858 82.7219 364.132 83.5827 363.58C84.4434 363.027 85.4096 362.659 86.42 362.5C87.4559 362.296 88.5225 362.306 89.5544 362.53C90.5862 362.753 91.5614 363.186 92.42 363.8C95.93 366.45 98 370 99 375.2C99.8807 379.347 99.8807 383.633 99 387.78C98.57 389.72 98.07 391.49 97.63 393.04C95.97 398.88 94.77 403.04 99.2 408.62C102 412.12 106.48 411.53 110.43 411.01C112.79 410.7 115.02 410.4 116.66 410.95C122.76 412.95 130.49 412.23 132.87 407.45C132.99 407.216 133.013 406.945 132.935 406.694C132.856 406.443 132.682 406.233 132.45 406.11Z" fill="#9069C9"/>
<path d="M33.2896 418.356L36.9806 420.141C38.7403 420.992 40.0898 422.508 40.7323 424.354C41.3748 426.2 41.2576 428.225 40.4066 429.985L23.437 421.778C23.8588 420.906 24.4483 420.126 25.1719 419.482C25.8955 418.838 26.7389 418.342 27.654 418.025C28.569 417.707 29.5378 417.573 30.5048 417.63C31.4718 417.686 32.4181 417.933 33.2896 418.356Z" fill="#A075E0"/>
<path d="M26.38 454.92C36.1058 454.92 43.99 447.036 43.99 437.31C43.99 427.584 36.1058 419.7 26.38 419.7C16.6543 419.7 8.77002 427.584 8.77002 437.31C8.77002 447.036 16.6543 454.92 26.38 454.92Z" fill="#B78AFA"/>
<path d="M11.89 427.33C13.58 430.66 18.41 432.78 23.89 432.26C30.42 431.64 35.37 427.49 34.89 422.98C34.8439 422.572 34.7568 422.17 34.63 421.78C34.43 421.67 34.24 421.55 34.03 421.45C30.2452 419.626 25.9329 419.217 21.8725 420.295C17.812 421.373 14.2712 423.869 11.89 427.33Z" fill="#C4A0FA"/>
<path d="M22.79 446.19C18.5 444.11 14.06 444.41 12.88 446.86C12.675 447.29 12.5756 447.763 12.59 448.24C14.4118 450.552 16.7872 452.367 19.4965 453.517C22.2059 454.667 25.1615 455.115 28.09 454.82C28.2111 454.681 28.3182 454.53 28.41 454.37C29.59 451.93 27.08 448.26 22.79 446.19Z" fill="#9069C9"/>
<path opacity="0.46" d="M40.34 448.06C40.9437 447.26 41.479 446.41 41.94 445.52C42.1714 442.009 41.4895 438.498 39.9605 435.329C38.4316 432.16 36.1078 429.441 33.2156 427.437C30.3234 425.433 26.9614 424.212 23.4571 423.894C19.9529 423.575 16.426 424.17 13.22 425.62C12.5539 426.365 11.9518 427.164 11.42 428.01C14.5916 425.999 18.2855 424.968 22.0399 425.046C25.7942 425.123 29.4425 426.306 32.5285 428.445C35.6146 430.585 38.0015 433.586 39.3908 437.075C40.7802 440.564 41.1103 444.385 40.34 448.06Z" fill="#A075E0"/>
<path d="M62.42 440.16C70.2956 440.16 76.68 433.776 76.68 425.9C76.68 418.024 70.2956 411.64 62.42 411.64C54.5444 411.64 48.16 418.024 48.16 425.9C48.16 433.776 54.5444 440.16 62.42 440.16Z" fill="#B78AFA"/>
<path d="M48.18 426C50.85 427.43 55.03 426.61 58.42 423.74C62.42 420.31 63.84 415.27 61.48 412.47C61.2617 412.218 61.0169 411.99 60.75 411.79C60.56 411.79 60.38 411.79 60.2 411.85C56.8361 412.383 53.7743 414.103 51.5693 416.699C49.3643 419.295 48.162 422.594 48.18 426Z" fill="#C4A0FA"/>
<path d="M64.14 433.47C60.33 434.07 57.52 436.32 57.86 438.47C57.9252 438.851 58.0794 439.21 58.31 439.52C60.5876 440.219 63.005 440.33 65.3373 439.844C67.6696 439.358 69.8411 438.29 71.65 436.74C71.665 436.59 71.665 436.44 71.65 436.29C71.31 434.14 68 432.86 64.14 433.47Z" fill="#9069C9"/>
<path opacity="0.46" d="M64.5 416C60.7948 416.014 57.2022 417.275 54.3 419.578C51.3979 421.882 49.355 425.095 48.5 428.7C48.6428 429.46 48.8502 430.206 49.12 430.93C49.4233 427.914 50.6055 425.053 52.5199 422.703C54.4343 420.353 56.9966 418.616 59.8889 417.709C62.7812 416.802 65.8763 416.763 68.7901 417.599C71.7039 418.435 74.3083 420.108 76.28 422.41C76.0888 421.664 75.838 420.935 75.53 420.23C72.5059 417.5 68.5743 415.992 64.5 416Z" fill="#A075E0"/>
<path d="M82.19 367.58C81.388 366.235 80.7182 364.815 80.19 363.34C79.7091 362.328 79.4176 361.237 79.33 360.12C79.2932 359.563 79.4042 359.006 79.6518 358.505C79.8994 358.005 80.2748 357.579 80.74 357.27C82.11 356.51 83.86 357.27 84.92 358.45C87.02 360.74 88.03 362.54 87.49 367.19C87.33 368.55 86.03 370.51 85.96 371.89C85.9 372.98 86.54 373.04 85.96 373.96C85.3427 374.433 84.6347 374.773 83.88 374.96C83.16 375.1 83.18 374.57 82.88 373.96C82.14 372.55 82.88 371.03 82.57 369.46C82.4828 368.884 82.3284 368.32 82.11 367.78L82.19 367.58Z" fill="#E4E4E4"/>
<path d="M78.31 362.44C78.7374 362.194 79.2151 362.048 79.707 362.014C80.1989 361.979 80.6923 362.056 81.15 362.24C82.088 362.631 82.923 363.233 83.59 364C86.1749 366.911 87.5707 370.688 87.5 374.58C87.5267 375.808 87.3475 377.031 86.97 378.2C86.1565 380.255 84.7191 382.004 82.86 383.2C82.6709 383.375 82.4487 383.51 82.2066 383.598C81.9644 383.685 81.7072 383.723 81.45 383.71C80.71 383.56 80.32 382.71 80.14 381.87C79.44 378.76 80.04 375.48 79.24 372.4C78.59 369.88 76.49 368.83 76.59 365.98C76.5692 365.295 76.7148 364.615 77.0144 363.998C77.3139 363.382 77.7585 362.847 78.31 362.44Z" fill="#CACACA"/>
<path d="M79.54 368.43C78.01 367.26 75.54 366.64 74.48 368.78C73.48 370.78 74.48 373.17 75.22 375.05C75.829 376.318 76.2597 377.664 76.5 379.05C76.6099 379.785 76.6334 380.53 76.57 381.27C76.4505 381.612 76.2557 381.923 76 382.18C75.2 382.94 74.08 382.57 73.19 382.18C69.32 380.23 68.12 378.85 68.12 378.85C68.6971 380.8 69.5598 382.653 70.68 384.35C72 386.26 73.8 388 75.93 388C80.18 388 83.24 383.27 83.88 379.54C84.2249 377.469 84.0036 375.343 83.2396 373.387C82.4757 371.432 81.1974 369.719 79.54 368.43Z" fill="#B5B5B5"/>
<path d="M71.36 388C71.9 385.32 72.49 382.61 73.23 379.87" stroke="#9069C9" stroke-width="2" stroke-miterlimit="10" stroke-linecap="round"/>
</svg>
