<svg width="240" height="464" viewBox="0 0 240 464" fill="none" xmlns="http://www.w3.org/2000/svg">
<g clip-path="url(#clip0)">
<path d="M38 367H31V399H38V367Z" fill="#837C8A"/>
<path d="M12.08 395H55.92C57.0021 395 58.0398 395.43 58.805 396.195C59.5701 396.96 60 397.998 60 399.08V401.79C60 402.641 59.6618 403.458 59.0598 404.06C58.4578 404.662 57.6413 405 56.79 405H11C10.2043 405 9.44128 404.684 8.87867 404.121C8.31606 403.559 7.99999 402.796 7.99999 402V399.1C7.99735 398.563 8.10094 398.03 8.3048 397.533C8.50866 397.035 8.80877 396.583 9.1879 396.202C9.56702 395.821 10.0177 395.519 10.514 395.312C11.0103 395.106 11.5425 395 12.08 395Z" fill="#BAB5BF"/>
<path d="M8 398.53H60V402.53C60.0026 402.853 59.9412 403.174 59.8193 403.474C59.6973 403.773 59.5173 404.046 59.2895 404.275C59.0618 404.505 58.7908 404.687 58.4922 404.812C58.1937 404.936 57.8734 405 57.55 405H10.45C9.80022 405 9.17705 404.742 8.71759 404.282C8.25812 403.823 8 403.2 8 402.55V398.55V398.53Z" fill="#978CA2"/>
<path d="M8 398.53H19V405H10.82C10.0721 405 9.35481 404.703 8.82596 404.174C8.29711 403.645 8 402.928 8 402.18V398.53Z" fill="#877D91"/>
<path d="M16.32 353.16C16.3414 352.22 16.6071 351.301 17.091 350.495C17.5749 349.688 18.2604 349.021 19.08 348.56C20.1671 348.046 21.1346 347.31 21.92 346.4C23.53 344.46 26.27 342.06 27.28 346.59C27.28 346.59 30.2 359.01 21.43 359.01C21.43 359 17.05 359.74 16.32 353.16Z" fill="#F3C46B"/>
<path d="M20.49 352.34C20.4874 353.887 19.8709 355.37 18.776 356.463C17.681 357.556 16.1971 358.17 14.65 358.17C11.43 358.17 7.2 355.46 7.98 352.34C9.65 345.67 12.98 349.84 13.82 349C17.59 345.23 20.49 349.11 20.49 352.34Z" fill="#E29391"/>
<path d="M1 355H35C35 355 19 379 1 355Z" fill="#E4E4E4"/>
<path d="M11.73 346.92C11.8 346.64 13.4 346.92 13.4 349.42" stroke="#C28988" stroke-width="0.83" stroke-miterlimit="10" stroke-linecap="round"/>
<path d="M38 375L31 373V367H38V375Z" fill="#736E78"/>
<path d="M7.89001 355C8.00001 355 11 363 17 364C17 364 27 365 34 355H7.89001Z" fill="#D6D6D6"/>
<path d="M0 362H45C46.0609 362 47.0783 362.421 47.8284 363.172C48.5786 363.922 49 364.939 49 366C49 367.061 48.5786 368.078 47.8284 368.828C47.0783 369.579 46.0609 370 45 370H0V362Z" fill="#9B93A2"/>
<path d="M86 402.65L73 370C73 370 134 335 178 244C178 244 218 254 240 247V402.65H86Z" fill="#D56B95"/>
<path d="M182 323C182 324 191 367 216 381C216 381 207 388 207.31 402.65H196.41L182 323Z" fill="#923963"/>
<path d="M184.15 265.74L184 283L186.77 278.94C186.77 278.94 183.79 268 184.15 265.74Z" fill="#BD94FA"/>
<path d="M187 279.78C187 279.78 186 303 189 308C189 308 191 300 195 296.64C190.565 292.044 187.755 286.123 187 279.78Z" fill="#BD94FA"/>
<path d="M196.49 297.24L198 307C198 307 203.94 295.69 205 290.35C205 290.35 203 296.48 196.49 297.24Z" fill="#A075E0"/>
<path d="M207.11 290.69C207.11 290.69 202 307 205 322C205 322 208 313 211 310C207.776 304.106 206.42 297.372 207.11 290.69Z" fill="#BD94FA"/>
<path d="M212 312L215 324L224 312C224 312 217 319 212 312Z" fill="#A075E0"/>
<path d="M224.44 312L226 316L227.58 309.48L224.44 312Z" fill="#BD94FA"/>
<path d="M230.07 309.31C230.07 309.31 228 329 230 333L237.22 320.32C237.22 320.32 233.14 319.62 230.07 309.31Z" fill="#A075E0"/>
<path d="M240 321.37C231.26 317.7 230.05 307.92 230 307.44L229.87 306.35L229.13 307.16C223.59 313.16 218.99 315.55 215.48 314.16C207.1 310.89 207 287.71 207 287.48V285.36L206.05 287.26C202.63 294.09 199.47 297.26 196.65 296.75C186.65 294.84 182.54 249.4 182.5 248.94L181.5 249.02C181.67 250.93 185.69 295.68 196.5 297.73C199.58 298.32 202.73 295.6 206.08 289.44C206.3 295.28 207.57 312.14 215.16 315.1C218.94 316.57 223.67 314.37 229.22 308.55C229.81 311.37 232.14 319.28 240.04 322.42L240 321.37Z" fill="#BD94FA"/>
<path d="M178 244C178 244 194 290.76 240 313.88V246C240 246 219 253 178 244Z" fill="#AF4A70"/>
<path d="M178 247.16C177.625 247.163 177.262 247.028 176.98 246.781C176.698 246.534 176.517 246.192 176.47 245.82L175.52 238.75C175.492 238.531 175.51 238.309 175.575 238.098C175.639 237.887 175.748 237.692 175.893 237.526C176.039 237.36 176.219 237.228 176.42 237.137C176.621 237.046 176.839 237 177.06 237H178.94C179.161 237 179.379 237.046 179.58 237.137C179.781 237.228 179.961 237.36 180.107 237.526C180.252 237.692 180.361 237.887 180.426 238.098C180.49 238.309 180.509 238.531 180.48 238.75L179.53 245.82C179.483 246.192 179.302 246.534 179.02 246.781C178.738 247.028 178.375 247.163 178 247.16Z" fill="#D58DA9"/>
<path opacity="0.25" d="M176 311C176 311 148 331 138 331C128 331 138 312 138 312L118.06 331.94C109.982 340.52 101.368 348.58 92.27 356.07L111 361L104 390L98.08 402.61H100.15H116L118 385L132 369L137.94 402.65H156.08L176 311Z" fill="#923963"/>
<path d="M155.08 402.65C155.08 402.65 178 325 178 267C178 267 182.36 368.31 203.18 402.65H155.08Z" fill="#59374B"/>
<path opacity="0.25" d="M199 351C197.32 349.52 215 382 234 373C221.244 367.562 209.431 360.137 199 351Z" fill="#923963"/>
<path opacity="0.55" d="M203 265C203 265 233 277 240 265.8V298C240 298 222 297 203 265Z" fill="#923963"/>
</g>
<defs>
<clipPath id="clip0">
<rect width="240" height="464" fill="white"/>
</clipPath>
</defs>
</svg>
