<svg width="240" height="464" viewBox="0 0 240 464" fill="none" xmlns="http://www.w3.org/2000/svg">
<path d="M30.3499 206.9C30.3499 206.9 31.7299 195.11 48.3499 193.28C60.4399 191.96 67.5099 176.47 67.5099 176.47C67.5099 176.47 72.1099 192.83 59.0299 201.71C59.0299 201.71 69.7399 202.85 71.6899 195.03C71.6899 195.03 73.5599 209.03 55.8099 216.11C50.6868 218.144 46.1052 221.338 42.425 225.442C38.7448 229.545 36.0663 234.446 34.5999 239.76L30.3499 206.9Z" fill="#BD94FA"/>
<path d="M37.9999 226.34C39.7299 222.07 46.2799 213.45 56.2699 209.47L56.7399 209.27C53.6299 208.19 44.3499 208.65 44.3499 208.65C49.1399 208.65 56.4399 195.23 56.4399 195.23C53.0499 200.23 48.9199 197.36 44.6199 197.72C36.6199 198.38 36.5599 205.08 36.5599 205.08L37.9999 226.34Z" fill="#B78AFA"/>
<path d="M28.9099 195.7L49.0799 351.74" stroke="#E08055" stroke-width="4" stroke-miterlimit="10" stroke-linecap="round"/>
</svg>
