<svg xmlns="http://www.w3.org/2000/svg" viewBox="0 0 14 20">
    <path d="M14 3.17V1a1 1 0 00-1-1H1a1 1 0 00-1 1v2.17a3 3 0 00.88 2.12L5.59 10 .88 14.71A3 3 0 000 16.83V19a1 1 0 001 1h12a1 1 0 001-1v-2.17a3 3 0 00-.88-2.12L8.41 10l4.71-4.71A3 3 0 0014 3.17zm-2 13.66V18H2v-1.17a1 1 0 01.29-.71L7 11.41l4.71 4.71a1 1 0 01.29.71zm0-13.66a1.05 1.05 0 01-.29.71L7 8.59 2.29 3.88A1.05 1.05 0 012 3.17V2h10z" fill="B9BBBE" style="fill:#B9BBBE"/>
    <path d="M.94 18.16L6.99 14l6.04 4.16H.94z" fill="B9BBBE" style="fill:#B9BBBE"/>
</svg>