<svg xmlns="http://www.w3.org/2000/svg" viewBox="0 0 24 24">
    <path className="0" fill="B9BBBE" d="M19.9924 7.44C19.9624 6.91 19.5224 6.5 18.9924 6.5H16.8824C16.6324 3.98 14.5224 2 11.9424 2C9.36242 2 7.24242 3.98 6.99242 6.5H4.88242C4.35242 6.5 3.91242 6.91 3.88242 7.44L3.00242 21.44C2.96242 22.02 3.42242 22.5 4.00242 22.5H19.8724C20.4524 22.5 20.9024 22.01 20.8724 21.44L19.9924 7.44ZM5.94243 12C5.39243 12 4.94242 11.55 4.94242 11C4.94242 10.45 5.39243 10 5.94243 10C6.49242 10 6.94243 10.45 6.94243 11C6.94243 11.55 6.49242 12 5.94243 12ZM11.9424 3.5C13.7024 3.5 15.1424 4.81 15.3924 6.5H8.49242C8.73242 4.81 10.1824 3.5 11.9424 3.5ZM11.9424 14.03C9.70243 14.03 7.88242 12.21 7.88242 9.97H9.50242C9.50242 11.31 10.5924 12.41 11.9424 12.41C13.2824 12.41 14.3824 11.32 14.3824 9.97H16.0024C16.0024 12.21 14.1824 14.03 11.9424 14.03ZM17.9424 12C17.3924 12 16.9424 11.55 16.9424 11C16.9424 10.45 17.3924 10 17.9424 10C18.4924 10 18.9424 10.45 18.9424 11C18.9424 11.55 18.4924 12 17.9424 12Z" style="fill:#B9BBBE"/>
</svg>