<svg xmlns="http://www.w3.org/2000/svg" viewBox="0 0 24 24">
    <path fillRule="evenodd" clipRule="evenodd" d="M12 2C5.93 2 1 6.93 1 13C1 15 1.55 16.88 2.48 18.49L3.77 17.74C2.97 16.35 2.5 14.73 2.5 13C2.5 7.75 6.75 3.5 12 3.5C17.25 3.5 21.5 7.75 21.5 13H23C23 6.93 18.07 2 12 2ZM5.5 13C5.5 9.42 8.42 6.5 12 6.5C15.58 6.5 18.5 9.42 18.5 13H17C17 10.24 14.76 8 12 8C9.24 8 7 10.24 7 13C7 13.91 7.26 14.75 7.69 15.49L6.38 16.25C5.82 15.29 5.5 14.18 5.5 13ZM12 15C13.1046 15 14 14.1046 14 13C14 11.8954 13.1046 11 12 11C10.8954 11 10 11.8954 10 13C10 14.1046 10.8954 15 12 15ZM12 16.5C9.94 16.5 8.5 17.8 8.5 19.5V20H13V16.62C12.69 16.55 12.36 16.5 12 16.5ZM17 15H22C23.1 15 24 15.9 24 17V22C24 23.1 23.1 24 22 24H17C15.9 24 15 23.1 15 22V17C15 15.9 15.9 15 17 15ZM17 22H22V21H17V22ZM17 20H22V19H17V20ZM17 18H22V17H17V18Z" fill="B9BBBE" style="fill:#B9BBBE"/>
</svg>