<svg xmlns="http://www.w3.org/2000/svg" viewBox="0 0 24 24">
    <path d="M13.8003 3.59643V7.86267C13.8003 9.15683 14.8448 10.2011 16.1393 10.2011H20.4067C20.9334 10.2011 21.2012 9.56739 20.8263 9.19253L14.8091 3.17694C14.4341 2.80208 13.8003 3.06092 13.8003 3.59643Z" fill="B9BBBE" style="fill:#B9BBBE"/>
    <path fillRule="evenodd" clipRule="evenodd" d="M11.9727 7.88073C11.9727 10.1692 13.8304 12.0269 16.1189 12.0269H20.9471V19.2064C20.9471 20.1936 20.1394 21.0013 19.1523 21.0013H4.79318C3.80599 21.0013 2.99829 20.1936 2.99829 19.2064V4.84737C2.99829 3.86019 3.80599 3.05249 4.79318 3.05249H11.9727V7.88073ZM13.8 14C13.8 14.9941 12.9941 15.8 12 15.8C11.0059 15.8 10.2 14.9941 10.2 14H9C9 15.6569 10.3431 17 12 17C13.6569 17 15 15.6569 15 14H13.8ZM7 15C7 15.5523 6.55228 16 6 16C5.44772 16 5 15.5523 5 15C5 14.4477 5.44772 14 6 14C6.55228 14 7 14.4477 7 15ZM18 16C18.5523 16 19 15.5523 19 15C19 14.4477 18.5523 14 18 14C17.4477 14 17 14.4477 17 15C17 15.5523 17.4477 16 18 16Z" fill="B9BBBE" style="fill:#B9BBBE"/>
</svg>