<svg width="16" height="16" viewBox="0 0 16 16" fill="none" xmlns="http://www.w3.org/2000/svg">
<path d="M11.1501 10.4573L15.3147 9.06841C15.5192 8.97466 15.6925 8.82414 15.814 8.63475C15.9354 8.44535 16 8.22504 16 8C16 7.77496 15.9354 7.55465 15.814 7.36525C15.6925 7.17586 15.5192 7.02534 15.3147 6.93159L11.1501 5.54265C10.8657 5.41417 10.6378 5.18623 10.5094 4.90161L9.01446 0.7348C8.94423 0.521045 8.80835 0.334927 8.62619 0.202982C8.44403 0.0710365 8.22488 0 7.99999 0C7.77511 0 7.55597 0.0710365 7.37381 0.202982C7.19165 0.334927 7.05576 0.521045 6.98554 0.7348L5.49057 4.90161C5.36216 5.18623 5.13433 5.41417 4.84986 5.54265L0.685276 6.93159C0.480802 7.02534 0.307523 7.17586 0.186045 7.36525C0.0645662 7.55465 0 7.77496 0 8C0 8.22504 0.0645662 8.44535 0.186045 8.63475C0.307523 8.82414 0.480802 8.97466 0.685276 9.06841L4.84986 10.4573C5.0011 10.5032 5.1387 10.5858 5.25046 10.6976C5.36222 10.8094 5.44469 10.9471 5.49057 11.0984L6.98554 15.2652C7.05576 15.479 7.19165 15.6651 7.37381 15.797C7.55597 15.929 7.77511 16 7.99999 16C8.22488 16 8.44403 15.929 8.62619 15.797C8.80835 15.6651 8.94423 15.479 9.01446 15.2652L10.5094 11.0984C10.5553 10.9471 10.6378 10.8094 10.7495 10.6976C10.8613 10.5858 10.9989 10.5032 11.1501 10.4573Z" fill="#FFD01A"/>
</svg>
