<svg width="343" height="108" viewBox="0 0 343 108" fill="none" xmlns="http://www.w3.org/2000/svg">
<rect x="72.8159" y="29.936" width="110.448" height="61.776" rx="6.552" fill="#5E87F9" stroke="white" stroke-width="1.872"/>
<g clip-path="url(#clip0)">
<path d="M73.752 64.1808C84.1737 61.313 96.5023 65.1016 100.237 73.5732C111.443 69.9688 124.398 76.6514 130.51 84.5179H73.752V64.1808Z" fill="#6E94FF"/>
<path d="M182.322 52.0259C175.504 50.8683 167.459 52.3942 165.004 55.8145C157.691 54.3674 149.228 57.0773 145.231 60.2344H182.322V52.0259Z" fill="#7A9DFF"/>
<path d="M157.475 88.333C155.386 83.834 155.438 83.6499 151.729 82.3081L156.665 89.438L157.475 88.333Z" fill="#FF707E"/>
<path d="M100.169 48.6578L100.405 48.8683L100.901 49.3418L101.084 49.4997L101.475 49.8417C110.199 57.3925 121.379 60.5759 128.953 62.8649C138.722 65.8115 146.846 66.6797 152.931 66.706C160.846 66.6271 162.439 62.4702 159.096 57.5241L157.215 55.1825L147.551 43.3433L147.081 42.7645C140.707 35.1611 134.987 31.7409 122.946 34.3718L104.636 38.3708H104.584C98.1844 39.7915 95.1806 43.7116 100.169 48.6578Z" fill="url(#paint0_linear)"/>
<path d="M121.247 35.8456C113.933 37.661 101.396 41.3443 101.396 41.3443L98.3657 41.7652C99.4366 40.213 101.657 39.0291 104.582 38.3713H104.634L122.944 34.3723C128.639 33.1358 132.896 33.2673 136.501 34.5039C130.937 33.1621 127.698 34.2408 121.247 35.8456Z" fill="#FFFDC4"/>
<path d="M128.404 63.8375C121.979 61.8906 108.24 56.3919 102.911 51.0248C104.165 52.2876 102.937 50.025 105.34 51.209C117.982 57.418 146.688 65.8107 152.93 66.7052C146.818 67.0735 134.96 65.8107 128.404 63.8375Z" fill="#FFFDC4"/>
<path d="M98.7056 41.3432C104.347 39.6331 117.068 41.1853 131.172 45.6316C145.878 50.262 157.553 56.6552 160.688 61.3646C161.054 64.4428 158.65 66.6528 152.93 66.7054C147.21 66.758 138.721 65.8109 128.952 62.8642C121.378 60.5753 110.198 57.3919 101.474 49.8411L101.083 49.4991L100.9 49.3412L100.403 48.8677L100.168 48.6572C97.269 45.7631 97.0862 43.2374 98.7056 41.3432Z" fill="url(#paint1_linear)"/>
<path d="M153.056 62.8594C153.88 60.2111 143.444 54.5594 129.748 50.236C116.051 45.9126 104.28 44.5546 103.456 47.2029C102.632 49.8512 113.067 55.5029 126.764 59.8263C140.46 64.1497 152.232 65.5077 153.056 62.8594Z" fill="#6B3143"/>
<path d="M103.564 48.1573C103.409 47.8581 103.363 47.5138 103.433 47.1839C103.492 47.0356 103.581 46.9012 103.694 46.7892L117.825 52.893L107.22 45.8684C107.681 45.842 108.144 45.842 108.605 45.8684L118.426 52.472C119.006 52.391 119.595 52.391 120.176 52.472L114.795 46.5261L116.832 46.8945L120.959 52.5773C121.795 52.6825 122.762 52.8667 123.833 53.1035L120.75 47.7364L122.579 48.1836L124.616 53.2876L126.549 53.8138L125.139 48.8677C125.87 49.0431 126.601 49.2535 127.333 49.4991L128.012 54.1822H127.855L128.377 54.3663L129.866 50.2621L131.512 50.8146L128.926 54.5242L130.232 54.9714L133.941 51.6301L135.9 52.3405L131.329 55.3661L132.687 55.8923L138.355 53.2876L140.758 54.2611L133.732 56.3132L135.378 57.0762L145.329 56.3921C146.165 56.8131 146.975 57.234 147.706 57.655H136.475L137.258 58.1549L150.919 59.7597C151.507 60.1846 152.042 60.6793 152.512 61.2331L137.911 58.76C137.956 58.8087 137.989 58.8675 138.007 58.9315C138.026 58.9955 138.028 59.063 138.016 59.1283C137.993 59.1855 137.958 59.2367 137.913 59.2779C137.868 59.319 137.813 59.3488 137.754 59.3651L152.878 63.1536C152.643 63.4694 152.173 63.7325 151.493 63.9166L136.318 59.4966C135.502 59.4514 134.69 59.3459 133.889 59.1809L145.956 64.0482C145.381 64.0219 144.755 63.9429 144.102 63.864L132.322 58.8652L131.904 58.7863L139.478 63.101C138.329 62.8642 137.128 62.6275 135.874 62.3117L130.415 58.418L127.463 57.5498C126.209 57.1551 125.034 56.7342 123.963 56.3395L119.314 57.2077C117.747 56.6289 116.284 56.0238 114.926 55.4187L122.03 55.5502H122.004L111.112 53.656C109.885 53.0245 108.761 52.4194 107.795 51.8406L119.836 54.5242L119.053 54.0769L103.564 48.1573Z" fill="#7A384C"/>
<path d="M166.696 97.5138H103.382C104.505 96.3562 105.863 95.6458 108.031 94.6461L112.915 93.962L114.718 93.7252L118.636 93.1728L121.613 92.7781L123.389 92.5413L124.147 92.4361L131.486 91.4363L133.184 91.1996L135.953 90.8312L137.05 90.6734L139.192 90.384L139.714 90.305L144.468 89.6473L155.752 88.1214L156.326 88.0424C156.665 88.0161 157.006 88.0161 157.345 88.0424C162.7 88.174 164.554 90.5681 166.696 97.5138Z" fill="#2347A1"/>
<path d="M156.325 88.0425L156.011 88.4898C155.907 88.595 155.829 88.7529 155.698 88.9107L155.358 89.358C154.758 90.1473 153.922 91.2523 152.877 92.5677L150.422 95.567L149.612 96.5141C149.325 96.8298 149.064 97.1719 148.776 97.5139H108.473C108.16 95.7512 108.029 94.6462 108.029 94.6462C108.026 94.3717 108.097 94.1014 108.235 93.8648C108.373 93.6282 108.573 93.4344 108.813 93.3044L112.47 91.1733H112.496V90.9102C112.496 90.805 112.47 90.7261 112.47 90.6471C112.47 90.5682 112.418 89.8052 112.418 89.4895V89.1475C112.398 88.9904 112.39 88.8322 112.391 88.6739C112.378 88.6401 112.369 88.6048 112.365 88.5687L112.235 86.3587C112.21 85.9202 112.292 85.4822 112.474 85.0831C112.656 84.684 112.933 84.3361 113.28 84.0698L118.112 80.2286L118.53 79.8866L119.888 78.8342L123.257 76.177L125.164 75.9139H125.19L127.724 75.5193H127.75L131.198 75.0194L132.19 74.8615L134.75 74.4669L135.978 74.2827H136.187L136.866 74.388L137.754 74.5195L139.556 74.8089C140.343 74.9353 141.094 75.228 141.76 75.6679C142.427 76.1077 142.993 76.6847 143.422 77.3609L145.407 80.4391L145.564 80.4917L146.791 80.8601L150.892 82.0966L151.728 82.3334L152.276 82.5439H152.329C153.427 83.0326 154.316 83.9002 154.836 84.9906L156.325 88.0425Z" fill="#EF6270"/>
<path d="M146.792 80.8346C145.826 78.3879 145.303 75.4938 139.191 74.2573L134.672 73.5732L135.038 77.2829L143.579 82.9657L146.792 80.8346Z" fill="#FF707E"/>
<path d="M156.327 88.0423L156.013 88.4896C155.909 88.5948 155.83 88.7527 155.7 88.9105L155.36 89.3578C154.76 90.1471 153.924 91.2521 152.879 92.5675L150.424 95.5668L149.614 96.514L148.752 97.5137H129.867C130.311 95.9351 130.964 93.5673 131.278 92.2255C131.329 91.9577 131.399 91.694 131.487 91.4362C131.931 89.7788 132.297 88.7527 129.554 88.3317L129.841 86.8847L131.095 80.4915L131.408 78.7814L131.67 77.5449L132.088 75.4401L132.192 74.8876L134.752 74.493L135.979 74.3088H136.188L136.867 74.4141L137.756 74.5456L139.558 74.835C140.345 74.9614 141.096 75.2541 141.762 75.694C142.428 76.1339 142.995 76.7109 143.424 77.387L145.409 80.4652L145.565 80.5178L146.793 80.8862L150.894 82.1227L151.73 82.3595L152.278 82.57H152.33C153.429 83.0587 154.318 83.9264 154.838 85.0168L156.327 88.0423Z" fill="#E05164"/>
<path d="M138.931 81.2034C142.013 78.8619 141.804 79.0461 140.08 77.9148C139.043 77.2325 137.844 76.8419 136.606 76.7834L138.931 81.2034Z" fill="#BD3C53"/>
<path d="M139.714 90.3049L134.673 97.5137H130.885C132.949 95.2511 135.117 92.8569 137.05 90.6733C139.792 87.5161 142.065 84.7536 142.926 83.4119L142.665 85.122L142.482 86.3322L139.714 90.3049Z" fill="#E05164"/>
<path d="M117.198 81.9398C113.776 84.9391 112.078 84.1235 120.149 95.2787L122.082 93.9895L127.724 87.6226L120.567 78.5459L117.198 81.9398Z" fill="#C74153"/>
<path d="M118.244 52.0247C118.453 51.3406 123.076 52.1299 128.613 53.7874C134.151 55.4449 138.434 57.3392 138.251 58.0232C137.102 67.2841 137.285 75.4927 138.93 81.2018L122.083 93.9881C115.031 76.887 117.173 61.7328 118.244 52.0247Z" fill="#FFB685"/>
<path d="M125.662 75.5469L132.192 75.4417L132.897 79.2828C130.338 81.8611 126.603 80.8351 124.696 79.125C122.188 81.335 119.733 81.3086 118.009 79.3618L117.957 79.3091C117.8 78.2568 117.644 77.2044 117.539 76.152C120.203 75.3627 125.662 75.5469 125.662 75.5469Z" fill="#FE9B77"/>
<path d="M132.191 85.8603C130.572 74.7314 130.938 61.3399 131.146 54.6047C135.378 56.0254 138.408 57.4461 138.251 58.025C137.102 67.2859 137.285 75.4944 138.93 81.2035L132.191 85.8603Z" fill="#FE9B77"/>
<g style="mix-blend-mode:multiply" opacity="0.4">
<path d="M118.243 52.0247C118.452 51.3406 123.075 52.1299 128.613 53.7874C134.15 55.4449 138.434 57.3392 138.251 58.0232C138.094 59.2071 137.964 60.3648 137.859 61.5224C131.852 60.7857 123.519 61.7328 117.198 63.6797C117.407 59.2598 117.878 55.3134 118.243 52.0247Z" fill="#A8387E"/>
</g>
<path d="M124.407 37.9761L121.272 38.5812L122.186 40.0545L124.407 37.9761Z" fill="#FFCD8F"/>
<path d="M129.771 70.4917C130.144 69.8194 130.058 69.0561 129.58 68.7867C129.101 68.5174 128.411 68.844 128.038 69.5162C127.665 70.1884 127.751 70.9518 128.229 71.2211C128.708 71.4905 129.398 71.1639 129.771 70.4917Z" fill="#543247"/>
<path d="M132.898 34.8711C132.898 34.8711 131.279 34.7396 130.574 35.2921C131.383 36.2392 132.898 34.8711 132.898 34.8711Z" fill="#FFD08F"/>
<path d="M127.725 34.8447C124.277 34.0291 123.99 35.8445 123.99 35.8445L127.725 34.8447Z" fill="#FFFDC4"/>
<path d="M153.087 56.3123C152.904 57.5751 150.109 58.3907 150.109 58.3907L151.258 59.2852C154.157 59.2063 154.915 57.733 154.915 57.733C154.38 57.169 153.764 56.69 153.087 56.3123V56.3123Z" fill="#D4655B"/>
<path d="M160.506 61.7856C160.036 63.18 154.054 62.3381 154.054 62.3381L153.871 63.0485C158.286 63.8378 160.192 63.4431 160.192 63.4431C160.192 63.4431 160.454 63.0222 160.506 61.7856Z" fill="#D4655B"/>
<path d="M138.488 48.8695C138.149 50.5007 136.163 51.6057 136.163 51.6057L132.925 50.6059C133.839 49.2904 134.231 47.4751 134.231 47.4751C134.231 47.4751 136.451 48.0802 138.488 48.8695Z" fill="#DC7363"/>
<path d="M117.093 97.4609L117.015 97.5135H113.724C113.463 96.4874 113.175 95.1983 112.914 93.9617C112.653 92.7252 112.522 91.8307 112.47 91.1466V90.8835C112.47 90.7783 112.444 90.6994 112.444 90.6204C112.444 90.5415 112.392 89.7785 112.392 89.4628V89.1208C112.373 88.9637 112.364 88.8055 112.366 88.6472C112.353 88.6134 112.344 88.5781 112.34 88.542C112.98 90.3406 113.785 92.0757 114.743 93.7249C115.605 95.2246 116.467 96.54 117.093 97.4609Z" fill="#D14658"/>
<path d="M150.893 82.0702C148.896 84.7174 146.751 87.2473 144.467 89.6473C141.751 92.5676 138.878 95.4091 136.605 97.5138H133.941C135.378 95.6458 137.258 93.1201 139.191 90.384C140.367 88.6739 141.568 86.8848 142.665 85.1221C143.214 84.2539 143.736 83.3857 144.232 82.5438C144.65 81.8334 145.042 81.1494 145.408 80.4653H145.564L146.792 80.8337L150.893 82.0702Z" fill="#CC4355"/>
<path d="M142.142 80.439L133.81 88.5423L132.19 95.6195L141.332 83.9644L142.142 80.439Z" fill="#E65568"/>
<path d="M121.587 92.6981L138.747 80.5958L139.061 80.359C139.557 79.9117 139.949 79.9117 138.93 81.2009L122.083 93.9872L121.587 92.6981Z" fill="#BD3C53"/>
<path d="M163.718 43.7109L161.55 42.7375C161.524 42.7375 161.524 42.6585 161.55 42.6585L163.718 41.6851H163.744L164.711 39.5014C164.711 39.4751 164.789 39.4751 164.789 39.5014L165.756 41.6851H165.782L167.95 42.6585C167.976 42.6585 167.976 42.7375 167.95 42.7375L165.782 43.7109H165.756L164.789 45.8946H164.711L163.744 43.7109H163.718Z" fill="#FF99B9"/>
<path d="M89.3032 77.8078L87.1352 76.8344C87.1214 76.8344 87.1081 76.8288 87.0983 76.8189C87.0885 76.8091 87.083 76.7957 87.083 76.7817C87.083 76.7678 87.0885 76.7544 87.0983 76.7445C87.1081 76.7347 87.1214 76.7291 87.1352 76.7291L89.3032 75.7557H89.3293L90.2957 73.5983C90.2957 73.5457 90.348 73.5457 90.3741 73.5983L91.3405 75.7557H91.3666L93.5346 76.7291C93.5474 76.7436 93.5545 76.7623 93.5545 76.7817C93.5545 76.8012 93.5474 76.8199 93.5346 76.8344L91.3666 77.8078H91.3405L90.3741 79.9652C90.348 80.0178 90.2957 80.0178 90.2957 79.9652L89.3293 77.8078H89.3032Z" fill="#5580F9"/>
<path d="M152.877 49.8934C149.403 46.71 146.504 45.3945 146.504 45.3945C149.743 46.0523 152.067 47.131 152.877 49.8934Z" fill="#EB9363"/>
<path d="M117.617 35.8445L112.105 37.0547C112.758 35.7919 113.49 35.5551 117.617 35.8445Z" fill="#FFFDC4"/>
<path d="M127.594 78.6236C125.321 78.6236 123.153 78.5709 122.474 79.1497C121.795 79.7286 122.866 81.0703 124.538 82.3332C125.269 82.8857 125.608 82.9383 127.358 81.386C128.638 80.2811 129.344 78.5973 127.594 78.6236Z" fill="#C74153"/>
<path d="M126.654 78.729L128.561 79.0447C128.822 79.5972 128.247 80.6233 127.359 81.3863C125.609 82.9385 125.27 82.8859 124.538 82.3334L123.781 81.702C124.068 81.0179 124.982 79.2815 126.654 78.729Z" fill="#A82C3C"/>
<path d="M123.26 78.834C124.253 78.5972 125.898 78.6235 127.596 78.6235C128.562 78.5972 128.771 79.1234 128.562 79.7548L123.391 79.86C123.103 79.86 123.156 79.2812 123.26 78.834Z" fill="white"/>
<path d="M115.711 75.5964C115.188 74.6756 115.476 73.2023 116.599 72.4393C116.535 72.6116 116.509 72.796 116.523 72.9795C116.537 73.1629 116.59 73.3411 116.68 73.5015C116.77 73.6619 116.893 73.8006 117.041 73.908C117.19 74.0154 117.36 74.0888 117.539 74.1231C118.166 74.2283 119.315 73.9915 119.811 73.8074C121.196 73.2812 122.763 73.2549 124.644 74.2283C127.203 72.8339 128.927 74.0442 131.252 74.0442C131.888 74.0508 132.522 73.9621 133.133 73.7811C135.092 73.2023 135.065 72.2551 134.621 71.2554C137.416 71.9131 137.286 74.9124 136.058 76.2278C135.327 77.1487 133.968 77.5696 132.166 77.1224C129.345 79.5428 127.961 79.7007 124.644 77.5696C121.953 79.8322 119.367 79.5954 117.826 76.754C117.826 76.754 116.259 76.6225 115.711 75.5964Z" fill="#6B3143"/>
<path d="M124.643 77.5703C121.952 79.8329 119.367 79.5961 117.825 76.7547C117.825 76.7547 115.396 76.5442 115.449 74.6762C115.762 75.4129 117.042 76.1233 118.243 75.8602C120.176 77.4387 122.24 76.9652 124.173 75.4655C124.173 75.4655 128.273 77.6755 131.173 75.255C134.49 76.0706 136.841 74.5447 136.449 72.4399C137.232 73.6239 136.893 75.334 136.057 76.2285C135.326 77.1493 133.968 77.5703 132.165 77.123C129.344 79.5435 127.96 79.7013 124.643 77.5703Z" fill="#5E2737"/>
<path d="M122.021 71.2122C122.499 71.007 122.657 70.2989 122.374 69.6306C122.091 68.9624 121.474 68.587 120.996 68.7922C120.519 68.9974 120.361 69.7056 120.644 70.3738C120.927 71.0421 121.543 71.4174 122.021 71.2122Z" fill="#543247"/>
</g>
<g clip-path="url(#clip1)">
<g clip-path="url(#clip2)">
<g clip-path="url(#clip3)">
<mask id="mask0" mask-type="alpha" maskUnits="userSpaceOnUse" x="161" y="43" width="114" height="65">
<rect x="162.672" y="44.9121" width="110.448" height="61.776" rx="6.552" fill="#C4C4C4" stroke="white" stroke-width="1.872"/>
</mask>
<g mask="url(#mask0)">
<path d="M274.056 46.0658C274.056 44.9117 273.121 43.9761 271.966 43.9761H163.826C162.672 43.9761 161.736 44.9117 161.736 46.0657V105.534C161.736 106.688 162.672 107.624 163.826 107.624H271.966C273.121 107.624 274.056 106.688 274.056 105.534V46.0658Z" fill="#A8BFFF"/>
<path d="M273.12 47.0018C273.12 45.8477 272.185 44.9121 271.03 44.9121H164.762C163.608 44.9121 162.672 45.8477 162.672 47.0018V104.598C162.672 105.753 163.608 106.688 164.762 106.688H271.03C272.185 106.688 273.12 105.753 273.12 104.598V47.0018Z" fill="#A8BFFF"/>
<path d="M226.777 92.9988C230.643 81.552 241.535 79.7363 247.178 82.6046C246.394 76.4733 254.282 63.7635 269.197 71.5262H274.056V111.866H227.3L226.777 92.9988Z" fill="#C2D2FF"/>
<path d="M177.618 93.8434C176.573 90.8436 171.871 83.3703 161.736 84.6334V106.632H200.735C200.63 95.5276 188.353 89.5015 177.618 93.8434Z" fill="#C2D2FF"/>
<g clip-path="url(#clip4)">
<path d="M161.736 113.974H274.056V88.3175H254.727V108.659H247.674V102.264H231.531L202.354 88.6333H189.477V84.1072H183.103V100.238L179.838 99.1853L175.397 103.975H161.736V113.974Z" fill="#648AE8"/>
</g>
<path d="M225.967 59.9497C226.803 59.9497 227.482 59.2664 227.482 58.4235C227.482 57.5805 226.803 56.8972 225.967 56.8972C225.13 56.8972 224.452 57.5805 224.452 58.4235C224.452 59.2664 225.13 59.9497 225.967 59.9497Z" fill="#7D2952"/>
<path d="M215.623 63.4743C216.46 63.4743 217.138 62.791 217.138 61.9481C217.138 61.1052 216.46 60.4219 215.623 60.4219C214.786 60.4219 214.108 61.1052 214.108 61.9481C214.108 62.791 214.786 63.4743 215.623 63.4743Z" fill="#7D2952"/>
<path d="M202.329 67.0539C203.166 67.0539 203.844 66.3706 203.844 65.5277C203.844 64.6848 203.166 64.0015 202.329 64.0015C201.492 64.0015 200.814 64.6848 200.814 65.5277C200.814 66.3706 201.492 67.0539 202.329 67.0539Z" fill="#7D2952"/>
<path d="M192.794 68.8418C193.63 68.8418 194.309 68.1585 194.309 67.3155C194.309 66.4726 193.63 65.7893 192.794 65.7893C191.957 65.7893 191.279 66.4726 191.279 67.3155C191.279 68.1585 191.957 68.8418 192.794 68.8418Z" fill="#7D2952"/>
<path d="M182.424 69.9751C183.261 69.9751 183.939 69.2918 183.939 68.4488C183.939 67.6059 183.261 66.9226 182.424 66.9226C181.588 66.9226 180.909 67.6059 180.909 68.4488C180.909 69.2918 181.588 69.9751 182.424 69.9751Z" fill="#7D2952"/>
<path d="M172.575 69.7119C173.411 69.7119 174.09 69.0286 174.09 68.1857C174.09 67.3427 173.411 66.6594 172.575 66.6594C171.738 66.6594 171.06 67.3427 171.06 68.1857C171.06 69.0286 171.738 69.7119 172.575 69.7119Z" fill="#7D2952"/>
<path d="M266.193 92.9219C267.029 92.9219 267.708 92.2385 267.708 91.3956C267.708 90.5527 267.029 89.8694 266.193 89.8694C265.356 89.8694 264.678 90.5527 264.678 91.3956C264.678 92.2385 265.356 92.9219 266.193 92.9219Z" fill="#7D2952"/>
<g clip-path="url(#clip5)">
<path d="M271.966 43.9761H161.736V64.3171C183.913 70.2642 220.691 61.2383 241.013 48.4232C247.909 82.3951 274.056 92.9472 274.056 92.9472V46.0812C274.056 45.5229 273.836 44.9875 273.444 44.5927C273.052 44.1979 272.521 43.9761 271.966 43.9761V43.9761Z" fill="#7D2952"/>
</g>
<g clip-path="url(#clip6)">
<path d="M161.736 43.9761V48.1074C187.753 62.7646 221.997 54.8966 236.364 43.9761H161.736Z" fill="#70254A"/>
<path d="M274.057 43.9761H251.749C252.611 64.2908 261.884 80.1584 274.057 88.3159V43.9761Z" fill="#70254A"/>
</g>
<path d="M237.878 87.659C236.572 90.7641 234.221 96.7111 234.221 96.7111L240.203 100.448C242.606 94.7902 243.416 91.7903 243.808 90.2115C244.199 88.6326 244.461 87.1064 242.423 85.8696C240.386 84.6328 239.263 84.396 237.878 87.659Z" fill="#F073AB"/>
<path d="M243.131 97.1576L239.552 105.473C239.272 106.129 238.865 106.723 238.353 107.218C237.841 107.712 237.236 108.099 236.574 108.354C235.912 108.609 235.205 108.728 234.496 108.703C233.787 108.678 233.091 108.511 232.447 108.21L219.073 102.078L225.734 91.5L233.884 96.0787L235.086 92.4999C239.291 94.1841 241.537 95.6577 243.131 97.1576Z" fill="#F7E5BC"/>
<path d="M227.585 93.1306C232.966 94.0253 233.462 95.1568 234.899 97.9988L229.126 97.3409L227.585 93.1306Z" fill="#F7E5BC"/>
<path d="M202.248 48.0559C201.178 48.3919 200.274 49.1255 199.721 50.1077C199.168 51.09 199.007 52.2474 199.27 53.3451L204.625 75.3703L214.211 73.3704L207.759 51.0558C207.598 50.4912 207.326 49.9647 206.96 49.507C206.594 49.0494 206.142 48.6698 205.629 48.3905C205.115 48.1112 204.552 47.9378 203.972 47.8803C203.391 47.8229 202.805 47.8826 202.248 48.0559V48.0559Z" fill="#D6569B"/>
<path d="M207.577 70.212L211.365 70.0541L207.342 56.7917C207.287 56.601 207.193 56.424 207.066 56.2715C206.939 56.1191 206.783 55.9946 206.607 55.9057C206.43 55.8168 206.237 55.7655 206.04 55.755C205.843 55.7444 205.646 55.7748 205.462 55.8443V55.8443C205.137 55.9691 204.87 56.2098 204.711 56.5205C204.552 56.8312 204.513 57.1901 204.6 57.5285L207.577 70.212Z" fill="#E374B0"/>
<path d="M205.539 70.0544C203.293 61.4232 201.099 53.2394 200.106 49.5554C199.683 50.0774 199.387 50.692 199.241 51.35C199.096 52.0081 199.106 52.6912 199.27 53.3447L203.345 70.1333L205.539 70.0544Z" fill="#F06EA8"/>
<path d="M224.428 47.9492C225.503 48.2744 226.414 48.9995 226.976 49.977C227.539 50.9545 227.712 52.1112 227.458 53.2121L222.339 75.2636L212.726 73.3952L218.943 51.0017C219.099 50.4353 219.366 49.9059 219.727 49.4446C220.089 48.9833 220.539 48.5993 221.049 48.315C221.56 48.0308 222.122 47.852 222.702 47.7892C223.282 47.7264 223.869 47.7808 224.428 47.9492V47.9492Z" fill="#D6569B"/>
<path d="M214.006 68.8445L214.894 70.6076C214.894 70.6076 218.29 55.4505 219.883 49.2666C219.45 49.771 219.129 50.3633 218.943 51.0034L214.006 68.8445Z" fill="#F06EA8"/>
<path d="M220.795 70.1574L217.033 70.0258L220.899 56.7107C220.954 56.5201 221.048 56.3433 221.175 56.1917C221.302 56.04 221.46 55.9168 221.637 55.83C221.814 55.7432 222.007 55.6948 222.204 55.6879C222.401 55.6809 222.597 55.7156 222.78 55.7897V55.7897C223.103 55.9091 223.372 56.1436 223.536 56.449C223.699 56.7544 223.746 57.1096 223.668 57.4475L220.795 70.1574Z" fill="#E374B0"/>
<path d="M225.955 68.3865L198.265 69.5556C194.302 69.723 191.223 73.0957 191.389 77.0888L191.399 77.328C191.565 81.3211 194.913 84.4225 198.877 84.2551L226.567 83.0859C230.531 82.9186 233.609 79.5459 233.443 75.5528L233.433 75.3135C233.267 71.3205 229.919 68.2191 225.955 68.3865Z" fill="#F06EA8"/>
<path d="M202.221 109.578C200.602 108.052 199.008 106.631 198.669 106.078C198.329 105.526 198.904 105.341 199.713 105.052C200.523 104.763 201.255 105.763 202.09 107.473C202.926 109.183 203.71 110.946 202.221 109.578Z" fill="#F2C591"/>
<path d="M231.53 102.263L229.963 107.262L229.754 107.894L227.821 113.999H191.879C191.539 112.657 191.957 112.394 192.871 110.894C193.785 109.394 193.315 109.789 193.446 106.157C193.55 103.605 194.464 101.236 197.73 98.2891C198.722 97.4208 198.957 97.0787 199.976 96.1314L200.289 95.8419L200.446 95.684L200.655 95.5261L225.209 91.6316L230.146 99.9206L231.53 102.263Z" fill="#F7E5BC"/>
<path d="M229.127 102.29C230.643 98.2113 230.695 97.8692 231.217 99.0534C231.74 100.238 232.053 100.159 229.545 103.474C227.038 106.79 228.474 104.053 229.127 102.29Z" fill="#E8C282"/>
<path d="M229.965 107.262C229.808 109.657 229.599 111.92 229.338 113.999H202.93C202.956 112.92 202.982 111.578 203.034 109.946C203.03 109.771 203.039 109.595 203.061 109.42V107.394C202.878 102.578 201.519 99.2891 197.732 98.2891C198.437 97.5786 199.169 96.8682 199.978 96.1314L200.292 95.8419L200.657 95.5261L225.211 91.6316C227.144 92.3421 228.424 92.8421 229.887 94.342C230.044 96.2366 230.122 98.1049 230.148 99.9206C230.174 102.473 230.096 104.92 229.965 107.262Z" fill="#1F3A70"/>
<path d="M225.209 91.6316L224.87 91.6842L224.53 92.0263C223.276 97.3155 220.638 102.842 220.638 102.842C220.638 102.842 220.769 104.184 222.597 101.578C224.426 98.9733 225.993 95.8945 226.777 92.9999L225.209 91.6316Z" fill="#172E5C"/>
<path d="M203.399 95.5513C208.153 101.314 209.773 102.604 211.523 103.788C213.273 104.972 211.81 103.209 209.982 100.472C208.153 97.7354 206.011 94.3408 206.011 94.3408L203.399 95.5513Z" fill="#172E5C"/>
<path d="M205.28 98.8945C205.28 98.8945 205.045 99.3682 204.026 100.079C203.008 100.789 202.72 101.105 202.616 100.868C202.218 100.037 201.641 99.3061 200.927 98.728C200.213 98.1499 199.38 97.7394 198.489 97.5262C199.168 96.842 199.925 96.1315 200.735 95.3684C204.392 96.9473 205.28 98.8945 205.28 98.8945Z" fill="#244AB0"/>
<path d="M223.042 91.6316L218.079 110.341L205.384 92.1842L223.042 91.6316Z" fill="#D4BF9B"/>
<path d="M220.718 100.395L212.255 98.1586C210.74 97.7639 211.498 98.2902 212.255 99.2375C213.013 100.185 217.532 105.369 218.968 107.027L220.718 100.395Z" fill="#CCAC89"/>
<path d="M208.152 95.1838L219.75 96.7363C221.056 96.8942 221.082 95.4732 221.761 92.7102L209.249 93.6312L208.152 95.1838Z" fill="#CF518A"/>
<path d="M227.606 81.2152L199.108 82.3635C195.358 82.5147 192.439 85.7004 192.589 89.479L192.589 89.4895C192.739 93.2681 195.901 96.2087 199.652 96.0576L228.15 94.9092C231.901 94.7581 234.82 91.5724 234.67 87.7938L234.669 87.7833C234.519 84.0047 231.357 81.064 227.606 81.2152Z" fill="#F06EA8"/>
<path d="M228.057 94.6856C231.714 94.5277 234.718 91.5541 234.718 87.8701C234.73 86.5305 234.35 85.217 233.626 84.0938C232.901 82.9705 231.864 82.0874 230.643 81.5547C231.562 80.8488 232.298 79.9301 232.789 78.8764C233.281 77.8228 233.512 76.6654 233.464 75.5024V75.2655C233.424 74.3149 233.198 73.3817 232.8 72.5191C232.401 71.6566 231.837 70.8818 231.141 70.2389C230.445 69.5961 229.629 69.098 228.742 68.7729C227.854 68.4479 226.911 68.3024 225.968 68.3448L201.257 69.3974C199.037 73.6867 199.351 78.2917 200.996 81.6073C201.236 82.1092 201.372 82.6553 201.394 83.212C201.417 83.7687 201.326 84.3241 201.127 84.844C198.75 91.2121 201.884 95.8171 201.884 95.8171L228.057 94.6856Z" fill="#E05FA3"/>
<path d="M208.104 81.783C208.732 81.3692 208.767 80.3042 208.182 79.4043C207.598 78.5044 206.615 78.1104 205.987 78.5242C205.359 78.938 205.324 80.0029 205.909 80.9028C206.494 81.8027 207.476 82.1968 208.104 81.783Z" fill="#1B1926"/>
<path d="M220.481 79.8205C220.753 78.8406 220.432 77.8942 219.765 77.7066C219.098 77.5191 218.337 78.1613 218.066 79.1411C217.794 80.121 218.115 81.0674 218.782 81.255C219.449 81.4425 220.21 80.8003 220.481 79.8205Z" fill="#1B1926"/>
<path d="M195.825 82.3677C194.284 81.7887 193.892 81.6045 192.822 81.2625C193.514 82.2235 194.429 83.0002 195.486 83.5255L195.172 83.7886C195.884 83.8612 196.599 83.8963 197.314 83.8939C198.803 83.8413 199.064 83.6307 195.825 82.3677Z" fill="#E05FA3"/>
<path d="M196.341 73.8807C197.493 72.8243 198.097 71.602 197.689 71.1505C197.281 70.6991 196.016 71.1894 194.864 72.2458C193.712 73.3021 193.108 74.5244 193.516 74.9759C193.924 75.4274 195.188 74.937 196.341 73.8807Z" fill="#F792C0"/>
<path d="M194.492 110.287C196.686 109.392 197.443 109.024 198.175 108.761C198.906 108.498 198.279 108.208 196.608 107.471C194.936 106.735 194.544 106.471 194.439 107.919C194.335 109.366 193.786 110.576 194.492 110.287Z" fill="#FAD596"/>
<path d="M203.688 109.499C204.393 105.71 204.315 104.684 204.628 104.605C204.942 104.526 205.543 105.473 206.117 106.657C206.692 107.842 203.688 109.499 203.688 109.499Z" fill="#172E5C"/>
<path d="M210.843 84.9491C212.567 87.8963 215.101 88.5804 216.798 84.7649C216.819 84.7307 216.829 84.6916 216.828 84.652C216.827 84.6123 216.814 84.5738 216.793 84.5408C216.771 84.5078 216.74 84.4816 216.704 84.4654C216.668 84.4492 216.628 84.4435 216.59 84.4491L211.026 84.607C210.988 84.6113 210.952 84.6248 210.921 84.6462C210.889 84.6676 210.864 84.6964 210.846 84.73C210.828 84.7635 210.818 84.801 210.818 84.8392C210.817 84.8773 210.826 84.915 210.843 84.9491Z" fill="#751B40"/>
<path d="M205.75 82.3946C206.952 80.0789 209.276 81.0525 209.276 81.0525L208.127 83.6313L205.75 82.3946Z" fill="#E05FA3"/>
<path d="M217.505 80.5004C219.908 79.5267 221.057 81.7898 221.057 81.7898L218.524 83.0002L217.505 80.5004Z" fill="#E05FA3"/>
<path d="M214.317 84.5276L211.026 84.6065C210.988 84.6109 210.952 84.6244 210.921 84.6458C210.889 84.6672 210.864 84.6959 210.846 84.7295C210.828 84.7631 210.818 84.8006 210.818 84.8387C210.817 84.8769 210.826 84.9146 210.843 84.9486C212.332 87.4748 214.395 88.3432 216.041 86.1328C215.633 85.4409 215.034 84.8832 214.317 84.5276V84.5276Z" fill="#9C2455"/>
<path d="M233.908 97.4739C233.908 97.4739 235.605 101.632 236.18 103.289C236.755 104.947 235.945 104.763 235.031 104.631C234.117 104.5 234.038 103.289 233.908 101.105C233.777 98.9212 233.385 96.4213 233.908 97.4739Z" fill="#FAD596"/>
<path d="M235.711 96.3663C235.972 98.1557 236.887 99.8135 237.069 100.261C237.252 100.708 238.611 100.419 239.786 100.129C240.962 99.8398 240.23 99.4188 238.793 98.2083C237.357 96.9979 235.476 94.919 235.711 96.3663Z" fill="#FAD596"/>
<path d="M182.789 106.079L181.039 105.29C181.013 105.29 181.013 105.237 181.039 105.237L182.789 104.448L183.572 102.685H183.651L184.434 104.448L186.184 105.237C186.211 105.237 186.211 105.29 186.184 105.29L184.434 106.079L183.651 107.842H183.572L182.789 106.079Z" fill="#3366E0"/>
<path d="M238.871 70.5278L238.062 70.1594C238.035 70.1594 238.035 70.1331 238.062 70.1331L238.871 69.7647L239.237 68.9226H239.289L239.655 69.7647L240.491 70.1331L239.655 70.5015L239.289 71.3172C239.263 71.3435 239.263 71.3435 239.237 71.3172L238.871 70.5015V70.5278Z" fill="#FAFAFA"/>
<path d="M189.347 60.2639L188.511 59.8955L189.347 59.5271L189.712 58.6851H189.738L190.104 59.5271H190.13L190.94 59.8955C190.966 59.8955 190.966 59.9218 190.94 59.9218L190.13 60.2902H190.104L189.738 61.106C189.738 61.1323 189.712 61.1323 189.712 61.106L189.347 60.2902V60.2639Z" fill="#F7E5BC"/>
<path d="M266.193 43.9761H262.118V113.988H266.193V43.9761Z" fill="#783837"/>
<path d="M172.29 43.9761H168.215V113.988H172.29V43.9761Z" fill="#783837"/>
<path d="M266.193 43.9761H262.118V97.3101H266.193V43.9761Z" fill="#571E2F"/>
<path d="M172.29 43.9761H168.215V75.8034H172.29V43.9761Z" fill="#571E2F"/>
<path d="M240.698 57.6316C241.535 57.6316 242.213 56.9483 242.213 56.1053C242.213 55.2624 241.535 54.5791 240.698 54.5791C239.861 54.5791 239.183 55.2624 239.183 56.1053C239.183 56.9483 239.861 57.6316 240.698 57.6316Z" fill="#7D2952"/>
<path d="M232.003 57.3428C232.84 57.3428 233.518 56.6594 233.518 55.8165C233.518 54.9736 232.84 54.2903 232.003 54.2903C231.167 54.2903 230.488 54.9736 230.488 55.8165C230.488 56.6594 231.167 57.3428 232.003 57.3428Z" fill="#7D2952"/>
<path d="M161.736 65.5261V68.5523C162.133 68.5523 162.515 68.3952 162.798 68.1146C163.082 67.834 163.244 67.4526 163.251 67.0524C163.251 66.6476 163.091 66.2594 162.807 65.9731C162.523 65.6869 162.138 65.5261 161.736 65.5261V65.5261Z" fill="#7D2952"/>
<path d="M242.526 64.1326C243.363 64.1326 244.041 63.4492 244.041 62.6063C244.041 61.7634 243.363 61.0801 242.526 61.0801C241.689 61.0801 241.011 61.7634 241.011 62.6063C241.011 63.4492 241.689 64.1326 242.526 64.1326Z" fill="#7D2952"/>
<path d="M251.747 79.4485C252.584 79.4485 253.262 78.7651 253.262 77.9222C253.262 77.0793 252.584 76.396 251.747 76.396C250.91 76.396 250.232 77.0793 250.232 77.9222C250.232 78.7651 250.91 79.4485 251.747 79.4485Z" fill="#7D2952"/>
<path d="M257.129 85.6313C257.966 85.6313 258.644 84.948 258.644 84.1051C258.644 83.2622 257.966 82.5789 257.129 82.5789C256.292 82.5789 255.614 83.2622 255.614 84.1051C255.614 84.948 256.292 85.6313 257.129 85.6313Z" fill="#7D2952"/>
<path d="M246.292 71.2109C247.129 71.2109 247.807 70.5276 247.807 69.6847C247.807 68.8418 247.129 68.1584 246.292 68.1584C245.455 68.1584 244.777 68.8418 244.777 69.6847C244.777 70.5276 245.455 71.2109 246.292 71.2109Z" fill="#7D2952"/>
<path d="M259.167 93.1562H258.122V95.2219H259.167V93.1562Z" fill="#5177D6"/>
<path d="M270.242 99.946H269.197V102.012H270.242V99.946Z" fill="#5177D6"/>
<path d="M261.258 101.606H260.214V103.672H261.258V101.606Z" fill="#5177D6"/>
<path d="M191.826 96.1836H190.781V98.2493H191.826V96.1836Z" fill="#5177D6"/>
<path d="M189.972 83.1602H182.606V84.1154H189.972V83.1602Z" fill="#8F80CF"/>
</g>
</g>
<rect x="162.672" y="44.9121" width="110.448" height="61.776" rx="6.552" stroke="white" stroke-width="1.872"/>
</g>
</g>
<g clip-path="url(#clip7)">
<g clip-path="url(#clip8)">
<mask id="mask1" mask-type="alpha" maskUnits="userSpaceOnUse" x="-18" y="43" width="113" height="65">
<rect x="-17.9761" y="43.9761" width="112.32" height="63.648" rx="7.488" fill="#C4C4C4"/>
</mask>
<g mask="url(#mask1)">
<rect x="-17.0401" y="44.9121" width="110.448" height="61.776" rx="6.552" stroke="white" stroke-width="1.872"/>
<g clip-path="url(#clip9)">
<rect x="-17.9761" y="45.8481" width="112.32" height="63.648" rx="7.488" fill="#F7E5BC"/>
<path d="M-21.1857 105.073V80.4683C-16.0154 78.5422 -3.81677 81.7976 1.8113 89.6376C8.43573 82.8556 21.1999 82.4215 32.9407 89.6376C36.0914 81.6891 47.8861 75.9108 63.2892 81.5263C64.4472 72.14 81.5199 63.9473 94.6072 74.9342V110.797H-15.5038C-17.0085 110.79 -18.4496 110.185 -19.5137 109.113C-20.5777 108.041 -21.1786 106.589 -21.1857 105.073V105.073Z" fill="#6ADBC6"/>
<path d="M23.489 87.8767C10.7248 87.9581 -0.181232 94.089 -5.4323 110.827H32.9409L23.489 87.8767Z" fill="#44C9C5"/>
<path d="M10.3196 110.799H-21.1869V96.041C-13.5391 96.8277 0.329078 99.7847 10.3196 110.799Z" fill="#44C9C5"/>
</g>
<rect x="-17.0401" y="44.9121" width="110.448" height="61.776" rx="6.552" stroke="white" stroke-width="1.872"/>
<g clip-path="url(#clip10)">
<path d="M-5.08457 103.825H63.691C68.0265 107.976 68.2419 110.797 68.2419 110.797H-10.2279C-10.2279 110.797 -8.10057 106.185 -5.08457 103.825Z" fill="#FAFAFA"/>
<path d="M-6.70179 106.866C-6.9288 106.675 -7.08071 106.409 -7.13009 106.116C-7.17947 105.822 -7.12308 105.52 -6.97108 105.265C-5.97472 103.61 -5.65158 102.308 -3.38958 101.115C-1.12758 99.9209 0.353489 98.4831 7.2472 97.5879C8.64749 93.9527 8.35128 92.8405 18.7726 92.0266H47.5862C52.3256 92.7862 52.6488 92.7862 53.4836 95.6075C54.3184 98.4288 54.2914 98.0762 56.7689 99.0799C59.2463 100.084 63.0971 100.274 64.5781 103.583C65.0629 104.668 65.2514 105.455 62.4239 110.799H-1.07372C-3.06194 109.659 -4.9454 108.343 -6.70179 106.866Z" fill="#CC4F79"/>
<path d="M16.0002 93.1929C11.0184 94.061 11.2069 94.061 14.573 98.0488C17.939 102.037 22.2207 105.726 27.0409 107.706C34.5809 110.799 41.0438 107.896 44.9753 103.285C50.6842 96.5839 53.1347 93.1929 48.3145 93.1929H16.0002Z" fill="#590942"/>
<path d="M1.10951 55.4588L3.34458 54.4551C3.35886 54.4551 3.37256 54.4493 3.38266 54.4392C3.39276 54.429 3.39844 54.4152 3.39844 54.4008C3.39844 54.3864 3.39276 54.3726 3.38266 54.3624C3.37256 54.3523 3.35886 54.3465 3.34458 54.3465L1.10951 53.3428C1.10237 53.3428 1.09552 53.3399 1.09047 53.3349C1.08542 53.3298 1.08258 53.3229 1.08258 53.3157L0.0862195 51.064C0.0862195 51.0369 0.0323656 51.0369 0.00543705 51.064L-0.990923 53.3157C-0.990923 53.3428 -0.990916 53.3428 -1.01785 53.3428L-3.25292 54.3465C-3.26617 54.3615 -3.27349 54.3808 -3.27349 54.4008C-3.27349 54.4208 -3.26617 54.4401 -3.25292 54.4551L-1.01785 55.4588H-0.990923L0.00543705 57.7104C0.0323656 57.7647 0.0862195 57.7647 0.0862195 57.7104L1.08258 55.4588H1.10951Z" fill="#FAFAFA"/>
<path d="M63.8535 58.6327L65.3077 57.9816C65.3346 57.9816 65.3346 57.9274 65.3077 57.9274L63.8535 57.2763C63.8535 57.2691 63.8507 57.2622 63.8457 57.2571C63.8406 57.252 63.8338 57.2492 63.8266 57.2492L63.1803 55.7843C63.1803 55.7571 63.1265 55.7571 63.1265 55.7843L62.4802 57.2492H62.4533L60.9991 57.9274C60.9722 57.9274 60.9722 57.9816 60.9991 57.9816L62.4533 58.6327C62.4533 58.6399 62.4561 58.6468 62.4611 58.6519C62.4662 58.657 62.473 58.6598 62.4802 58.6598L63.1265 60.1248H63.1803L63.8266 58.6598C63.8535 58.6598 63.8535 58.6598 63.8535 58.6327Z" fill="#F7D78D"/>
<path d="M44.33 71.1639C46.2689 65.7383 49.6619 61.7776 51.2776 61.0452C52.8933 60.3127 52.4894 61.2351 50.9814 65.8197C49.4734 70.4044 49.4464 77.9188 46.6459 77.9731C43.8453 78.0273 44.33 71.1639 44.33 71.1639Z" fill="#2E64E8"/>
<path d="M47.8839 72.603C49.0418 70.27 49.1226 69.1306 49.5804 67.3673C49.8227 66.4178 50.1728 65.0885 50.469 64.0305C49.0687 66.5534 46.6182 72.1689 46.1066 73.9594C45.5949 75.7498 46.7259 74.9089 47.8839 72.603Z" fill="#1C4BBA"/>
<path d="M18.7745 71.5168C16.0278 65.7385 11.6384 61.6422 9.61876 60.964C7.59912 60.2858 8.13769 61.2353 10.292 66.1183C12.4463 71.0013 12.9848 79.2211 16.4048 79.0855C19.8247 78.9499 18.7745 71.5168 18.7745 71.5168Z" fill="#2E64E8"/>
<path d="M29.0065 56.0274C25.8685 56.0274 23.3246 53.4647 23.3246 50.3034C23.3246 47.1421 25.8685 44.5793 29.0065 44.5793C32.1446 44.5793 34.6885 47.1421 34.6885 50.3034C34.6885 53.4647 32.1446 56.0274 29.0065 56.0274Z" fill="#201E2F"/>
<path d="M23.5931 51.7984C23.401 50.3278 25.7673 48.8012 28.8785 48.3885C31.9897 47.9759 34.6676 48.8335 34.8598 50.3041C35.052 51.7747 32.6856 53.3013 29.5744 53.7139C26.4632 54.1266 23.7853 53.2689 23.5931 51.7984Z" fill="#41314A"/>
<path d="M19.5007 54.8866C25.3711 49.3525 35.0115 48.6472 41.636 53.4488C48.2604 58.2505 46.887 65.7378 45.8099 73.9576L17.7772 74.7715C16.6193 70.2954 13.6572 60.4479 19.5007 54.8866Z" fill="#4D7AE8"/>
<path d="M17.1303 72.3302L45.4592 71.4893C50.6564 82.9916 55.8267 104.396 32.4796 105.074C10.2097 105.725 11.9331 85.2974 17.1303 72.3302Z" fill="#4D7AE8"/>
<path d="M17.1295 72.33C15.9178 67.3114 14.5713 59.5799 19.4993 54.8867L20.0378 54.4255H21.5189C21.5189 54.4255 20.8995 64.1103 21.4112 67.9624C21.9228 71.8146 21.7343 72.2215 20.5764 72.737C19.4185 73.2524 18.3413 73.8763 18.5568 78.8137C18.7722 83.751 19.0684 84.402 17.9913 90.2617C16.9141 96.1214 18.3683 99.865 21.4112 102.958C11.0975 97.4506 13.0364 82.5845 17.1295 72.33Z" fill="#2E64E8"/>
<path d="M39.0257 94.4942C35.9559 98.6448 27.6619 99.7028 24.2958 94.657C22.5993 92.1341 27.0694 91.9985 31.5934 92.0256C36.1174 92.0527 40.6684 92.2426 39.0257 94.4942Z" fill="#3366E0"/>
<path d="M27.3183 72.9568C27.2464 70.5157 29.056 68.481 31.3602 68.4121C33.6644 68.3432 35.5906 70.2662 35.6625 72.7073C35.7344 75.1483 33.9248 77.183 31.6206 77.2519C29.3164 77.3208 27.3902 75.3978 27.3183 72.9568Z" fill="#DBE7FF"/>
<path d="M29.9549 73.5114C29.9108 72.5685 30.5976 71.7699 31.4889 71.7275C32.3803 71.6852 33.1386 72.4152 33.1828 73.358C33.2269 74.3009 32.5401 75.0995 31.6488 75.1419C30.7574 75.1842 29.9991 74.4542 29.9549 73.5114Z" fill="#201E2F"/>
<path d="M36.0339 65.143C34.2836 61.4536 27.8207 61.8334 26.3396 65.4414L36.0339 65.143Z" fill="#201E2F"/>
<path d="M37.6508 80.578L36.8698 80.8493L36.0889 81.0392L35.308 81.2291L34.5271 81.3376C32.4054 81.5937 30.2537 81.3332 28.2527 80.578L27.4987 80.2796L26.7716 79.927L26.0446 79.5472L25.3175 79.1131H25.2367C25.0055 78.9848 24.7513 78.9041 24.4888 78.8756C24.2264 78.8471 23.9609 78.8714 23.7079 78.9471C23.4548 79.0228 23.2192 79.1484 23.0148 79.3166C22.8103 79.4849 22.6411 79.6923 22.5169 79.927C22.3527 80.2377 22.2714 80.586 22.2808 80.9379C22.2903 81.2897 22.3902 81.6331 22.5708 81.9344C23.435 83.3442 24.6393 84.5107 26.0715 85.3254C27.5025 86.152 29.0844 86.679 30.7225 86.8748C32.3605 87.0706 34.0209 86.9311 35.6042 86.4648C37.1795 85.9843 38.6069 85.1066 39.7512 83.9148C40.1224 83.5261 40.3252 83.005 40.3151 82.4658C40.305 81.9266 40.0828 81.4135 39.6973 81.0392C39.4399 80.8023 39.1267 80.6356 38.7874 80.5549C38.4481 80.4742 38.0939 80.4822 37.7585 80.578H37.6508Z" fill="#400015"/>
<path d="M38.5129 84.9737C37.6249 85.6111 36.6437 86.1054 35.6047 86.4386C34.0214 86.9049 32.361 87.0444 30.7229 86.8486C29.0849 86.6528 27.5029 86.1258 26.0719 85.2992C25.0532 84.7091 24.1424 83.9476 23.3791 83.0476C24.5579 81.879 25.9351 80.9326 27.4453 80.2534H27.4992L28.2531 80.5518C30.2542 81.307 32.4059 81.5675 34.5275 81.3114L35.3084 81.2029H35.3892C36.7132 82.1918 37.784 83.4845 38.5129 84.9737Z" fill="#590942"/>
<path d="M23.97 81.6354L23.8892 78.8955C24.3456 78.7824 24.8277 78.8503 25.2356 79.0854H25.3164L26.0435 79.5194L26.7706 79.8992L27.4976 80.2519L28.2516 80.5503C30.2527 81.3054 32.4043 81.5659 34.526 81.3099L35.3069 81.2013L36.0879 81.0115L36.8688 80.8216L37.6497 80.5503H37.7574C38.0204 80.4782 38.2951 80.4597 38.5653 80.496L38.6191 81.9067C33.2604 84.5381 27.2014 83.0461 23.97 81.6354Z" fill="#DBE7FF"/>
<path d="M36.6264 80.9035L36.8688 80.8492L37.6497 80.578H37.7574C38.0204 80.5059 38.2951 80.4874 38.5653 80.5237L38.6191 81.9344C38.068 82.1953 37.5014 82.4218 36.9226 82.6126L36.6264 80.9035Z" fill="#B5CDFF"/>
<path d="M26.959 82.6663C25.9351 82.4099 24.935 82.065 23.9699 81.6354L23.8892 78.8955C24.3455 78.7824 24.8276 78.8503 25.2356 79.0854H25.3164L26.0434 79.5194L26.7705 79.8992L27.0398 80.0348L26.959 82.6663Z" fill="#B5CDFF"/>
<path d="M24.8862 76.646L20.7392 78.7349C20.6854 76.212 22.7589 75.9136 24.8862 76.646Z" fill="#3366E0"/>
<path d="M42.9827 82.2037L39.1588 78.4058C42.0671 78.3244 43.225 80.2776 42.9827 82.2037Z" fill="#3366E0"/>
<path d="M40.6921 86.0852C39.3996 87.9299 38.0801 89.639 38.0801 89.639C40.7191 89.422 40.6921 86.0852 40.6921 86.0852Z" fill="#3366E0"/>
<path d="M19.5001 54.8866C25.3706 49.3525 35.011 48.6472 41.6354 53.4488C44.6784 55.6462 45.9979 58.576 46.4287 61.9399C42.7934 64.7612 42.3894 59.8511 40.8545 54.751C35.4149 59.2 27.1748 59.2542 21.8968 55.2935L21.6814 59.6069C21.439 63.7846 18.6384 64.2729 16.1341 62.0484C16.4572 59.417 17.3997 56.867 19.5001 54.8866Z" fill="#201E2F"/>
<path d="M37.7273 61.5494C37.0393 60.8441 36.7739 59.9829 37.1346 59.6259C37.4952 59.2688 38.3453 59.5511 39.0333 60.2564C39.7213 60.9617 39.9867 61.8229 39.626 62.1799C39.2654 62.537 38.4153 62.2547 37.7273 61.5494Z" fill="#618AED"/>
<path d="M11.2884 63.7321C12.7496 65.8484 14.0546 68.0698 15.193 70.3785C15.8662 71.7892 15.1661 71.9791 14.9507 73.6881C14.7352 75.3972 14.1967 74.5833 13.4965 71.6806C12.7964 68.7779 12.4194 67.7471 11.7192 66.1737C11.0191 64.6002 9.83423 61.6161 11.2884 63.7321Z" fill="#1C4BBA"/>
<path d="M7.73299 98.9448C9.05249 102.499 12.5532 110.8 12.5532 110.8H22.813C17.3734 106.975 13.2533 102.661 11.3953 99.3517C9.5372 96.0421 9.1602 94.0617 7.75991 97.7512C7.60381 98.1318 7.59421 98.5574 7.73299 98.9448V98.9448Z" fill="#BA3B66"/>
<path d="M9.64331 110.8C4.71538 104.913 3.09967 102.906 1.78017 102.146C0.460672 101.387 -1.74748 100.22 0.622238 103.855C2.99195 107.49 6.97738 110.8 6.97738 110.8H9.64331Z" fill="#BA3B66"/>
<path d="M43.6555 110.797C47.4794 106.131 50.1184 101.573 51.1147 99.0504C52.1111 96.5275 52.4073 95.9036 52.6497 97.3142C52.892 98.7249 53.4306 99.376 52.9459 101.329C52.4612 103.282 50.8724 108.572 49.876 110.797H43.6555Z" fill="#BA3B66"/>
<path d="M59.408 110.798H60.916C62.6395 106.403 63.3396 104.423 63.4204 102.958C63.5012 101.493 61.7508 106.349 59.408 110.798Z" fill="#BA3B66"/>
<path d="M53.1353 110.826H56.3129C57.1477 104.45 57.1477 103.203 56.9592 101.412C56.7707 99.6217 55.882 101.168 55.2357 104.369C54.7469 106.585 54.0434 108.748 53.1353 110.826V110.826Z" fill="#BA3B66"/>
<path d="M65.897 98.3483C63.0695 93.7365 60.0266 91.4849 56.3374 89.4503C52.6482 87.4157 52.1635 86.2492 54.8832 85.3268C57.603 84.4045 59.9458 84.7571 63.2042 86.1135C66.4625 87.4699 68.7784 88.2566 69.7748 92.1088C70.7711 95.961 69.3708 98.294 65.897 98.3483Z" fill="#542113"/>
<path d="M64.9557 93.5175C63.2053 86.1116 62.0205 80.4961 60.8895 75.4502C59.7585 70.4044 58.4928 67.4746 60.4317 66.5794C62.3705 65.6842 63.4208 66.0097 65.979 71.7608C68.5372 77.512 69.6682 81.6626 70.503 84.6467C71.3378 87.6307 74.1383 95.742 64.9557 93.5175Z" fill="#542113"/>
<path d="M68.6204 81.907L70.3169 81.6628C69.4013 71.8425 68.9166 67.6647 68.7012 64.8434C68.4858 62.0221 69.6437 61.9679 71.421 61.8865C73.1983 61.8051 73.8446 62.5375 74.6255 66.227C75.4064 69.9164 76.3489 76.3186 76.699 78.8415C77.0491 81.3644 77.6415 87.1698 77.5876 89.0145C77.5338 90.8592 68.6204 91.7002 68.6204 81.907Z" fill="#542113"/>
<path d="M76.8581 84.3774C76.5888 80.5524 77.1543 70.3522 77.2082 68.4532C77.2621 66.5543 77.9353 66.7713 79.551 66.7171C81.1667 66.6628 81.8399 67.3953 82.0553 71.8714C82.2708 76.3475 82.6208 81.2034 82.567 83.4551C83.7295 86.6256 84.1712 90.0186 83.8596 93.3839C83.5364 96.9377 83.0786 97.8872 82.4323 98.9994C81.7861 100.112 77.9353 101.36 73.0073 101.848C68.0794 102.336 67.6216 101.631 65.8982 98.3484C64.1748 95.0659 67.4062 86.2221 67.4062 86.2221L76.8581 84.3774Z" fill="#542113"/>
<path d="M83.5353 95.9316C84.2623 97.6406 85.6896 101.683 87.0898 105.698C86.9314 107.098 86.268 108.391 85.2255 109.332C84.183 110.272 82.8341 110.794 81.4348 110.798H67.6205C67.6474 110.337 68.0244 103.826 66.7318 99.8651C66.7318 99.8651 81.8926 92.1336 83.5353 95.9316Z" fill="#542113"/>
<path d="M66.7325 88.2813C69.91 90.3159 70.7987 91.2925 71.5796 92.7032C72.3605 94.1138 73.1145 94.2495 75.9959 94.3037C78.8772 94.358 78.9311 94.4122 79.739 90.967C80.5468 87.5217 79.335 86.0568 76.2113 86.1924C72.0643 86.3552 64.8205 87.1962 66.7325 88.2813Z" fill="#4A1A0D"/>
<path d="M81.2473 82.3428H70.5836C73.8958 80.8236 78.5275 81.0135 81.2473 82.3428Z" fill="#4A1A0D"/>
<path d="M68.6697 82.8304C67.0809 83.4001 63.9841 84.7294 63.9841 84.7294C66.2461 81.3655 68.6697 82.8304 68.6697 82.8304Z" fill="#4A1A0D"/>
<path d="M66.9478 75.6142C65.3051 75.9398 62.0198 76.7536 62.0198 76.7536C64.7935 73.7966 66.9478 75.6142 66.9478 75.6142Z" fill="#4A1A0D"/>
<path d="M74.9731 73.2821C73.4382 73.4177 70.3414 73.7975 70.3414 73.7975C73.3305 71.2475 74.9731 73.2821 74.9731 73.2821Z" fill="#4A1A0D"/>
<path d="M81.4885 75.6673C80.2229 75.4774 77.6108 75.2604 77.6108 75.2604C80.5191 73.6598 81.4885 75.6673 81.4885 75.6673Z" fill="#4A1A0D"/>
<path d="M53.4319 86.0852C55.9094 87.9842 59.5986 88.364 63.1262 90.1815C66.6539 91.9991 67.2732 93.9252 68.2427 96.5838C68.8586 98.3423 69.3711 100.136 69.7776 101.955C67.731 101.738 67.1386 100.707 65.8999 98.3471C63.0724 93.7353 60.0294 91.4837 56.3402 89.4491C53.5666 87.957 52.5972 86.9262 53.4319 86.0852Z" fill="#732D1A"/>
<path d="M66.7342 99.865L65.8994 98.3458C65.7378 98.0474 65.5494 97.8032 65.3878 97.5319C67.1381 99.8921 71.716 100.38 75.6476 100.652C79.5791 100.923 82.8106 99.6479 83.5376 95.9314C83.9954 97.0165 85.6381 101.221 87.1191 105.128V110.798H67.6229C67.6498 110.336 68.0268 103.826 66.7342 99.865Z" fill="#4A1A0D"/>
<path d="M60.4062 66.5791C60.1502 67.5273 60.1317 68.5246 60.3523 69.4818C60.864 71.9505 62.0219 76.7521 64.4724 86.6267L63.2606 86.1656C62.3451 82.1506 61.5911 78.6782 60.8909 75.45C59.7599 70.4584 58.4943 67.5015 60.4062 66.5791Z" fill="#732D1A"/>
<path d="M68.6999 64.8452C68.9154 67.6394 69.427 71.9799 70.3157 81.6646L71.0427 81.5018L69.8579 62.0781C69.0231 62.3223 68.5653 62.9734 68.6999 64.8452Z" fill="#732D1A"/>
</g>
</g>
</g>
</g>
<mask id="mask2" mask-type="alpha" maskUnits="userSpaceOnUse" x="251" y="29" width="113" height="64">
<rect x="252.528" y="29.936" width="110.448" height="61.776" rx="6.552" fill="#C4C4C4" stroke="white" stroke-width="1.872"/>
</mask>
<g mask="url(#mask2)">
<rect x="253.464" y="29.936" width="109.512" height="61.776" rx="7.488" fill="#225B73"/>
<path fill-rule="evenodd" clip-rule="evenodd" d="M362.742 86.0899C362.895 85.4934 362.976 84.8682 362.976 84.224V37.424C362.976 33.2885 359.624 29.936 355.488 29.936H260.952C256.817 29.936 253.464 33.2885 253.464 37.424V43.3065C284.633 61.4719 321.469 75.9867 362.742 86.0899Z" fill="#236682"/>
<path d="M281.968 44.0099L279.577 42.9168C279.509 42.9168 279.509 42.8485 279.577 42.8485L281.968 41.7554C282.037 41.7554 282.037 41.7554 282.037 41.6871L283.13 39.2959H283.198L284.291 41.6871L286.751 42.7802C286.819 42.7802 286.819 42.8485 286.751 42.8485L284.291 43.9416L283.198 46.4694C283.198 46.5377 283.13 46.5377 283.13 46.4694L282.037 44.0099H281.968Z" fill="#FF9CCD"/>
</g>
<rect x="252.528" y="29.936" width="110.448" height="61.776" rx="6.552" stroke="white" stroke-width="1.872"/>
<g clip-path="url(#clip11)">
<path d="M326.394 5.44487L335.362 0.919922L341.532 8.90028L332.236 14.8238L326.394 5.44487Z" fill="#133DBD"/>
<path d="M324.748 24.2031L306.813 57.8522C306.449 58.6118 306.317 59.4621 306.434 60.2963C306.551 61.1306 306.912 61.9117 307.471 62.5417L307.718 62.7885C310.697 65.8743 314.413 68.1507 318.515 69.4029C322.617 70.6552 326.971 70.8421 331.165 69.9462V69.9462C331.768 69.8154 332.308 69.4835 332.697 69.005C333.085 68.5265 333.3 67.93 333.304 67.3135L334.209 26.7535C334.209 11.3687 333.469 7.91329 324.748 24.2031Z" fill="#33BEB5"/>
<path d="M307.718 62.7884C307.066 62.0948 306.644 61.2162 306.512 60.2733C306.379 59.3304 306.542 58.3696 306.978 57.523L324.748 24.203C329.027 16.3049 331.33 13.014 332.646 13.5899C329.273 37.1196 322.28 67.807 322.28 67.807L317.508 69.041C313.788 67.7771 310.429 65.6319 307.718 62.7884V62.7884Z" fill="#33A2BE"/>
<path d="M312.079 48.0618C313.148 46.005 313.642 45.3468 314.135 46.334C321.54 34.5692 325.078 36.9551 325.078 48.3908C325.078 48.3908 330.178 45.6759 329.685 55.7953C330.411 55.5846 331.187 55.6241 331.889 55.9076C332.59 56.1911 333.176 56.7021 333.552 57.3585L333.305 67.3133C333.299 67.84 333.141 68.3538 332.849 68.792C332.557 69.2302 332.143 69.574 331.659 69.7815C327.26 70.4713 322.76 70.14 318.509 68.8133C314.258 67.4866 310.369 65.2 307.142 62.1302C306.708 61.5127 306.447 60.7894 306.39 60.0364C306.332 59.2834 306.478 58.5288 306.813 57.8521L312.079 48.0618Z" fill="#F7E5BC"/>
<path d="M306.814 57.8521L312.079 48.0618C313.149 46.005 313.642 45.3468 314.136 46.334C321.54 34.5692 325.078 36.9551 325.078 48.3908C325.517 48.1866 325.993 48.0746 326.477 48.0618V48.0618C325.078 48.3908 325.078 49.7895 324.173 52.8335C323.268 55.8776 322.774 58.6748 322.774 58.6748L309.693 64.2693C308.806 63.6011 307.955 62.8871 307.143 62.1302C306.708 61.5127 306.448 60.7894 306.39 60.0364C306.332 59.2834 306.478 58.5288 306.814 57.8521V57.8521Z" fill="#F7D197"/>
<path d="M307.389 58.2634C313.724 51.4349 319.401 49.049 332.153 67.7247C332.277 67.9233 332.352 68.1485 332.372 68.3817C332.391 68.615 332.356 68.8496 332.268 69.0663C332.179 69.2831 332.041 69.4758 331.864 69.6287C331.686 69.7816 331.475 69.8904 331.248 69.946V69.946C327.042 70.8728 322.667 70.7012 318.546 69.4476C314.425 68.194 310.696 65.9007 307.718 62.7884L307.472 62.5416L306.978 61.8011C306.64 61.2508 306.496 60.6027 306.571 59.961C306.646 59.3194 306.934 58.7215 307.389 58.2634Z" fill="#242236"/>
<path d="M308.541 64.0223L310.187 55.5484C314.794 51.7639 319.648 51.6816 327.957 62.0478L324.502 70.0282C318.738 69.4986 313.224 67.4237 308.541 64.0223V64.0223Z" fill="#90423B"/>
<path d="M308.131 63.7742L314.137 63.1983L314.96 65.5019L316.44 62.2933C317.921 59.0024 318.004 59.0847 319.238 61.8819C320.472 64.6792 325.984 63.7742 325.984 63.7742L327.218 61.1415C319.978 52.4207 315.371 51.9271 311.175 54.8066L308.131 63.7742Z" fill="#7A2F28"/>
<path d="M291.509 121.367H356.257C357.169 119.258 357.832 117.049 358.231 114.786C358.889 109.849 359.465 108.944 355.845 102.527C355.599 97.6731 354.035 94.629 350.251 89.8572C348.137 86.5795 345.772 83.4713 343.176 80.5605L296.939 82.206C295.037 83.5065 293.248 84.9651 291.591 86.5664L287.807 86.7309C287.56 95.8631 290.522 111.906 291.509 121.367Z" fill="#244AB0"/>
<path d="M257.45 82.2046L261.07 76.5278C262.224 74.6935 263.846 73.2003 265.77 72.2024C267.693 71.2045 269.848 70.738 272.012 70.8511H272.177C272.786 70.883 273.368 71.1074 273.842 71.4918C274.315 71.8762 274.654 72.4008 274.81 72.9901L277.771 84.0968L278.759 85.1663C278.965 85.3822 279.117 85.6438 279.203 85.9298C279.289 86.2158 279.306 86.518 279.252 86.8118L279.005 89.0331L279.499 88.2927C279.681 87.9501 279.938 87.6535 280.252 87.4253C280.566 87.1972 280.927 87.0437 281.309 86.9763C282.79 86.565 285.669 85.8245 288.631 84.755C289.289 83.6854 290.688 82.04 295.953 81.9577V85.2486L289.783 91.3367L289.948 109.107L277.525 113.632C276.139 114.108 274.644 114.166 273.226 113.801C271.807 113.435 270.527 112.662 269.544 111.576C263.032 103.833 258.713 94.4861 257.039 84.5082C256.881 83.7159 257.028 82.8933 257.45 82.2046Z" fill="#1E397D"/>
<path d="M337.419 98.4131L338.571 103.514L352.228 104.913C352.644 104.952 353.031 105.14 353.318 105.443C353.605 105.745 353.773 106.141 353.792 106.558V107.874C353.786 108.061 353.738 108.245 353.651 108.41C353.564 108.576 353.441 108.72 353.29 108.83C353.139 108.941 352.966 109.017 352.782 109.051C352.598 109.084 352.409 109.076 352.228 109.026L338.571 104.584L326.477 106.476C326.202 106.535 325.957 106.693 325.79 106.921C325.623 107.148 325.546 107.429 325.572 107.71L327.382 121.367H291.512C287.234 95.2868 285.588 90.0214 293.651 83.4397L325.326 91.0087L338.571 83.0283L337.255 91.1732C336.857 93.5756 336.913 96.0313 337.419 98.4131V98.4131Z" fill="#1E397D"/>
<path d="M331.824 70.1914C334.622 71.0141 334.868 70.1914 336.761 75.5391L332.812 75.8682L331.824 70.1914Z" fill="#3EE8DD"/>
<path d="M335.609 75.2922L334.458 72.4127C334.226 71.8605 333.866 71.3713 333.409 70.9851C332.951 70.599 332.408 70.3269 331.825 70.1913L327.629 69.2864L310.846 69.0396L301.713 73.6468C301.346 73.8267 301.026 74.0926 300.783 74.422C300.539 74.7513 300.379 75.1345 300.315 75.539L299.986 77.6781L295.543 80.6399C295.295 80.8094 295.1 81.0471 294.984 81.3244C294.867 81.6017 294.833 81.9068 294.885 82.203C296.037 92.2402 306.403 107.707 320.883 100.796C331.66 95.6133 341.615 88.2089 346.387 84.4244L348.279 86.8925C348.773 84.5066 348.279 83.5194 346.798 82.2853L345.317 81.2158C345.187 80.7874 345.104 80.3459 345.071 79.8994C344.742 78.0072 345.153 77.5135 342.849 77.0199L335.609 75.2922Z" fill="#33BEB5"/>
<path d="M332.234 72.9066L326.969 76.4442C325.159 77.596 324.172 79.7351 326.722 78.7478C328.823 77.9473 330.859 76.9846 332.81 75.8683C334.291 74.8811 333.715 74.552 333.551 73.7293C333.386 72.9066 333.139 72.3306 332.234 72.9066Z" fill="#37CFC5"/>
<path d="M295.542 80.6399L299.984 77.6781L300.314 75.539C300.378 75.1345 300.538 74.7513 300.782 74.422C301.025 74.0926 301.344 73.8267 301.712 73.6468L310.844 69.0396H313.477L324.008 91.8288C323.021 96.7651 321.54 97.4233 320.306 98.5751C319.072 99.7269 319.072 99.8092 319.483 101.29C305.743 106.638 295.953 91.8288 294.884 82.1207C294.848 81.8373 294.89 81.5494 295.006 81.2884C295.122 81.0273 295.307 80.803 295.542 80.6399V80.6399Z" fill="#33A2BE"/>
<path d="M301.384 76.1987C300.89 77.4328 300.561 77.515 301.384 79.7364C302.695 82.7002 304.322 85.5138 306.238 88.1281C307.39 89.609 308.048 89.609 306.238 85.084C304.428 80.5591 304.016 79.4896 303.523 77.4328C303.029 75.376 302.206 73.8128 301.384 76.1987Z" fill="#2B98B3"/>
<path d="M333.799 78.0086C331.015 81.924 327.595 85.3446 323.679 88.128C320.553 90.2671 321.622 89.1153 323.021 86.6471C324.42 84.179 326.97 82.9449 329.85 80.23C332.729 77.515 336.184 74.7177 333.799 78.0086Z" fill="#319BB5"/>
<path d="M344.576 80.9693C344.616 81.1444 344.597 81.3276 344.522 81.491C344.448 81.6544 344.323 81.789 344.165 81.8743C336.596 86.0702 325.818 91.3356 321.951 92.6519C318.084 93.9682 320.388 92.6519 325.242 89.4433C330.096 86.2347 338.406 81.0516 341.038 79.4884C343.671 77.9253 343.671 77.5962 344.576 80.9693Z" fill="#33A2BE"/>
<path d="M327.546 70.356C331.413 71.0141 333.552 71.0141 327.546 74.5518C321.54 78.0895 327.546 70.356 327.546 70.356Z" fill="#1E6470"/>
<path d="M316.849 58.0984L316.026 61.5538L314.134 61.8006L315.368 59.1679L315.45 57.3579L316.849 58.0984Z" fill="#90423B"/>
<path d="M322.772 61.3066L320.551 61.6357C321.373 62.8698 322.361 62.7053 322.772 61.3066Z" fill="#5E221D"/>
<path d="M314.545 60.4841L312.324 59.8259C312.571 61.3068 313.558 61.6359 314.545 60.4841Z" fill="#5E221D"/>
<path d="M321.295 61.7199C320.931 61.7199 320.637 61.2042 320.637 60.5681C320.637 59.9319 320.931 59.4163 321.295 59.4163C321.658 59.4163 321.953 59.9319 321.953 60.5681C321.953 61.2042 321.658 61.7199 321.295 61.7199Z" fill="#201E2F"/>
<path d="M313.313 60.2392C312.95 60.2392 312.655 59.7235 312.655 59.0873C312.655 58.4512 312.95 57.9355 313.313 57.9355C313.677 57.9355 313.971 58.4512 313.971 59.0873C313.971 59.7235 313.677 60.2392 313.313 60.2392Z" fill="#201E2F"/>
<path d="M311.175 54.8096C310.532 55.253 309.927 55.7483 309.365 56.2905C308.707 58.1004 308.46 60.6509 307.719 62.7899C306.979 64.929 306.238 68.1376 306.567 70.0298C306.897 71.9221 306.65 72.0044 305.498 74.3902C304.346 76.7761 302.207 79.162 302.947 82.0415C301.713 83.8515 302.043 85.0856 302.454 86.8133C302.865 88.541 304.182 93.2305 307.39 93.0659C308.419 94.5713 309.889 95.7201 311.599 96.3538C313.308 96.9875 315.172 97.0748 316.934 96.6036C322.035 95.2873 327.135 91.8318 326.477 87.2246C328.205 85.9083 327.794 82.4529 327.629 80.5606C327.459 78.8594 327.684 77.1419 328.287 75.542C328.945 73.8966 328.945 72.2512 328.452 68.7958C328.981 67.3502 329.394 65.8646 329.686 64.3531C328.923 63.2125 328.099 62.1139 327.218 61.0622L325.984 63.7772C325.426 64.8441 324.931 65.943 324.503 67.0681C324.09 66.8853 323.632 66.8281 323.186 66.9035C322.898 66.25 322.442 65.6847 321.864 65.2654C321.285 64.8462 320.606 64.5882 319.895 64.5176L314.959 65.5049L314.136 63.2013C311.833 62.9545 310.599 62.8722 309.858 63.4481C309.424 62.1184 309.368 60.6946 309.694 59.3345C310.105 57.8536 311.175 54.8096 311.175 54.8096Z" fill="white"/>
<path d="M314.547 67.4794L316.439 67.0681C317.427 66.8212 317.262 66.739 319.895 64.5176L314.959 65.5049L314.136 63.2013C311.832 62.9545 310.598 62.8722 309.858 63.4481C309.381 62.1265 309.324 60.69 309.693 59.3345C310.105 57.8536 311.174 54.8096 311.174 54.8096C310.531 55.253 309.926 55.7483 309.364 56.2905C308.706 58.1004 308.459 60.6509 307.719 62.7899C306.978 64.929 306.238 68.1376 306.567 70.0298C306.896 71.9221 306.649 72.0044 305.497 74.3902C304.346 76.7761 302.206 79.162 302.947 82.0415C301.713 83.8515 302.042 85.0856 302.453 86.8133C302.865 88.541 304.181 93.2305 307.39 93.0659C308.418 94.5713 309.889 95.7201 311.598 96.3538C313.308 96.9875 315.172 97.0748 316.933 96.6036C322.034 95.2873 327.135 91.8318 326.477 87.2246C324.913 91.585 321.623 90.7623 321.623 90.7623C319.596 90.3281 317.525 90.1348 315.452 90.1864C314.3 88.1296 312.902 86.0728 311.668 85.2501C309.282 80.5606 311.092 75.542 312.326 72.6625C313.56 69.783 314.547 67.4794 314.547 67.4794Z" fill="#D6DFFF"/>
<path d="M314.547 67.4778C313.313 67.7247 313.395 66.6551 313.477 65.5033C313.564 64.7036 313.787 63.9246 314.136 63.1997L314.958 65.5033L319.895 64.5161C317.262 66.7374 317.426 66.8197 316.439 67.0665L314.547 67.4778Z" fill="#CAD5FC"/>
<path d="M324.008 59.9106L319.318 58.512C320.13 58.0959 321.07 58.0091 321.944 58.2696C322.818 58.5302 323.557 59.1181 324.008 59.9106V59.9106Z" fill="#CFDEFF"/>
<path d="M316.03 58.0991L311.34 57.1942C311.704 56.934 312.116 56.7506 312.553 56.6551C312.989 56.5596 313.441 56.554 313.88 56.6387C314.318 56.7234 314.735 56.8966 315.105 57.1476C315.475 57.3987 315.789 57.7225 316.03 58.0991Z" fill="#CFDEFF"/>
<path d="M318.496 62.7895L316.933 63.7767L318.99 63.3654C319.236 63.3654 319.236 63.2831 319.154 62.954C319.072 62.6249 318.825 62.6249 318.496 62.7895Z" fill="#5E221D"/>
<path d="M312.573 69.122C312.57 69.4444 312.686 69.7565 312.898 69.9992C313.111 70.2418 313.405 70.3981 313.724 70.4384C318.743 71.1788 320.882 69.8625 321.705 69.2866C321.804 69.1932 321.879 69.0767 321.922 68.9475C321.965 68.8182 321.975 68.6803 321.952 68.5461V68.3816C319.319 69.2866 315.37 68.8752 314.383 68.7107C313.395 68.5461 313.807 68.2993 313.889 67.8879C313.554 67.8873 313.231 68.0146 312.986 68.244C312.742 68.4733 312.594 68.7874 312.573 69.122V69.122Z" fill="#DE5D70"/>
<path d="M314.547 70.5204C315.118 69.9369 315.722 69.3875 316.357 68.875C318.236 69.075 320.137 68.9073 321.952 68.3813V68.5459C321.975 68.6801 321.965 68.818 321.922 68.9472C321.879 69.0765 321.804 69.193 321.705 69.2863H321.623C320.882 69.8622 318.908 71.014 314.547 70.5204Z" fill="#B83D50"/>
<path d="M318.708 47.4146C317.847 47.0023 317.738 45.439 318.465 43.9228C319.191 42.4067 320.478 41.5119 321.338 41.9241C322.199 42.3364 322.307 43.8997 321.581 45.4159C320.855 46.932 319.568 47.8269 318.708 47.4146Z" fill="#FF9CCD"/>
<path d="M318.413 43.9491C319.154 42.3859 320.47 41.4809 321.293 41.8923C321.391 41.9428 321.478 42.0125 321.549 42.0973C321.62 42.1821 321.672 42.2803 321.704 42.3859C320.306 42.3037 321.046 43.9491 318.413 43.9491Z" fill="#FFEBF5"/>
<path d="M321.953 43.4531C321.934 44.1131 321.765 44.7601 321.459 45.3454L321.212 45.839C320.883 45.839 320.39 45.6745 320.061 46.0858C319.732 46.4972 319.567 47.1554 318.58 47.3199C318.367 47.1418 318.202 46.9125 318.101 46.6536C318 46.3946 317.967 46.1144 318.004 45.839H318.168C319.896 45.839 320.966 44.029 321.953 43.4531Z" fill="#FF70B7"/>
<path d="M327.135 52.7511C326.68 52.7511 326.312 52.2723 326.312 51.6816C326.312 51.0909 326.68 50.6121 327.135 50.6121C327.589 50.6121 327.957 51.0909 327.957 51.6816C327.957 52.2723 327.589 52.7511 327.135 52.7511Z" fill="#F7D197"/>
<path d="M331.576 59.9101C331.122 59.9101 330.753 59.4312 330.753 58.8405C330.753 58.2498 331.122 57.771 331.576 57.771C332.031 57.771 332.399 58.2498 332.399 58.8405C332.399 59.4312 332.031 59.9101 331.576 59.9101Z" fill="#F7D197"/>
<path d="M335.362 0.919922L337.172 6.5144L341.532 8.90028L335.362 0.919922Z" fill="#179DE0"/>
<path d="M329.686 64.3526C329.442 65.6349 329.112 66.8993 328.699 68.1371V68.1371C328.616 67.0676 328.205 65.9158 327.547 65.7513C326.889 65.5867 326.806 63.7767 325.984 63.7767L327.218 61.0618C328.099 62.1135 328.923 63.212 329.686 64.3526Z" fill="#A8C3FF"/>
<path d="M326.97 86.7295C326.85 86.9331 326.68 87.1029 326.477 87.2231L326.97 86.7295Z" fill="#D6DFFF"/>
<path d="M321.211 73.2371C319.154 74.3889 318.249 75.1293 318.249 77.1038C319.539 76.0776 320.556 74.7496 321.211 73.2371V73.2371Z" fill="#D6DFFF"/>
<path d="M311.996 73.5659C309.939 75.6227 309.117 77.1036 309.034 78.2554C309.871 77.9497 310.65 77.5046 311.338 76.9391L311.996 73.5659Z" fill="white"/>
<path d="M327.546 70.356C327.415 71.6443 327.053 72.8984 326.477 74.0582C327.957 72.9887 327.957 72.0837 327.546 70.356Z" fill="#D6DFFF"/>
<path d="M322.611 80.1472C321.377 82.0395 318.415 82.0395 318.415 82.0395C321.13 83.4381 322.282 83.5204 322.611 80.1472Z" fill="#D6DFFF"/>
<path d="M309.28 64.5972C308.603 65.647 308.285 66.8887 308.375 68.1348C308.375 68.1348 306.072 66.1603 309.28 64.5972Z" fill="#C7D3FC"/>
<path d="M305.498 81.5476C305.004 83.2753 305.498 84.8385 306.567 85.2498C306.506 83.949 306.14 82.6808 305.498 81.5476V81.5476Z" fill="#C7D3FC"/>
<path d="M319.979 57.0292C318.166 56.4938 316.326 56.0544 314.466 55.7129C317.346 55.4661 319.074 55.9597 319.979 57.0292Z" fill="#5E221D"/>
<path d="M325.244 60.8142C324.75 60.6496 324.174 60.3205 323.68 60.8142H325.244Z" fill="#5E221D"/>
<path d="M324.995 61.8847C324.666 61.4734 324.254 60.9798 323.596 61.2266L324.995 61.8847Z" fill="#5E221D"/>
<path d="M310.679 57.771C311.172 57.9355 311.831 58.0178 311.913 58.7583L310.679 57.771Z" fill="#5E221D"/>
<path d="M310.185 58.7581C310.679 58.6758 311.337 58.5112 311.748 59.1694L310.185 58.7581Z" fill="#5E221D"/>
<path d="M318.086 60.6503C317.964 61.4346 317.588 62.1572 317.016 62.7071C316.687 62.9539 316.934 62.378 317.427 61.3907C317.921 60.4035 318.25 59.9921 318.086 60.6503Z" fill="#A25751"/>
<path d="M321.048 67.8058C321.24 67.7927 321.432 67.8416 321.595 67.9452C321.758 68.0488 321.883 68.2017 321.953 68.3817C319.32 69.2867 315.371 68.8753 314.384 68.7108C313.397 68.5462 313.808 68.2994 313.89 67.8881H313.973C316.326 68.1459 318.701 68.1182 321.048 67.8058V67.8058Z" fill="#D6DFFF"/>
<path d="M309.364 56.2905C309.926 55.7483 310.532 55.253 311.174 54.8096C311.174 54.8096 310.516 56.7018 310.023 58.265L308.624 59.0877C308.801 58.1382 309.049 57.2033 309.364 56.2905V56.2905Z" fill="#A8C3FF"/>
<path d="M272.014 70.8505H272.179C272.787 70.8825 273.37 71.1069 273.843 71.4913C274.316 71.8757 274.655 72.4003 274.811 72.9896L277.773 84.0963L278.76 85.1658C278.967 85.3817 279.119 85.6433 279.205 85.9293C279.29 86.2153 279.307 86.5175 279.254 86.8113L279.007 89.0326C278.102 93.8044 278.184 89.4439 275.305 88.7035C272.425 87.9631 274.564 86.3176 274.153 85.2481C272.301 82.4109 271.067 79.2151 270.533 75.8691L268.065 71.3442C269.34 70.9378 270.679 70.7704 272.014 70.8505V70.8505Z" fill="#244AB0"/>
<path d="M272.257 71.6741C272.497 71.6818 272.732 71.7479 272.941 71.8667C273.15 71.9855 273.327 72.1534 273.457 72.3559C273.586 72.5584 273.665 72.7894 273.685 73.029C273.705 73.2685 273.667 73.5094 273.574 73.7309C271.764 76.8572 266.334 80.3949 262.22 81.7112C258.106 83.0276 258.024 81.958 260.657 78.9963C263.29 76.0345 265.84 71.1805 272.257 71.6741Z" fill="#242236"/>
<path d="M262.22 81.7101C266.092 80.3417 269.606 78.1205 272.504 75.2107L273.574 73.7298C273.667 73.5083 273.705 73.2674 273.685 73.0279C273.665 72.7883 273.586 72.5573 273.457 72.3548C273.327 72.1523 273.15 71.9844 272.941 71.8656C272.732 71.7468 272.497 71.6807 272.257 71.673H272.175C266.663 71.2616 264.359 74.3057 261.809 77.432C261.449 77.9917 261.036 78.5153 260.575 78.9952C258.024 81.9569 257.201 83.2733 262.22 81.7101Z" fill="#242236"/>
<path d="M262.22 81.7106H262.467C265.382 80.7038 268.087 79.1701 270.447 77.1857L272.093 75.7048L272.504 75.2112C272.906 74.7812 273.264 74.3127 273.574 73.8126C273.667 73.5911 273.705 73.3502 273.685 73.1107C273.665 72.8711 273.586 72.6401 273.457 72.4376C273.327 72.2351 273.15 72.0672 272.941 71.9484C272.732 71.8296 272.497 71.7635 272.257 71.7558H271.517C270.772 71.6807 270.021 71.7364 269.295 71.9203C265.758 72.4962 263.865 74.9644 261.809 77.5148L261.562 77.9261L260.657 78.9957C258.024 81.9575 257.201 83.2738 262.22 81.7106Z" fill="#242236"/>
<path d="M289.289 108.038C289.109 102.466 289.273 96.8881 289.783 91.3366C290.112 88.5394 288.96 89.938 287.809 92.4061C286.657 94.8743 287.315 98.9056 287.809 103.184C288.302 107.462 289.372 109.93 289.289 108.038Z" fill="#152D69"/>
<path d="M279.416 91.5834C279.893 96.5602 279.975 101.567 279.663 106.557C279.334 110.506 280.897 108.12 281.967 105.981C283.036 103.842 282.214 103.184 281.556 99.2346C280.897 95.2856 280.815 94.2161 280.486 92.1593C280.157 90.1025 279.252 88.9507 279.416 91.5834Z" fill="#152D69"/>
<path d="M275.797 92.3238C275.879 97.2601 274.727 101.045 272.506 100.962C270.735 100.841 269.03 100.244 267.57 99.2346C266.582 98.5764 267.158 98.4119 268.968 97.5892C270.672 96.7136 272.118 95.4092 273.164 93.8047C273.987 92.3238 275.715 88.9506 275.797 92.3238Z" fill="#173275"/>
<path d="M260.576 73.4819L261.564 77.8423L262.386 81.4623C262.386 81.5445 272.012 75.2096 272.012 75.0451C271.918 74.8086 271.863 74.5586 271.848 74.3046C271.747 73.9567 271.692 73.5972 271.683 73.2351C271.601 72.9883 271.601 72.6592 271.519 72.4124V71.6719C271.41 70.7988 271.383 69.9175 271.436 69.0392V68.2165C271.601 64.432 271.765 58.8375 271.765 58.8375C262.716 58.4262 259.754 61.388 259.754 61.388C259.26 69.4506 260.001 71.3428 260.576 73.4819Z" fill="#7A2F28"/>
<path d="M271.274 71.5106C271.247 70.4658 271.455 69.4283 271.882 68.4744C272.309 67.5204 272.945 66.6744 273.742 65.9984C275.058 65.0934 275.223 64.5175 275.963 63.2835C276.704 62.0494 277.033 61.638 277.444 61.1444C277.576 60.9341 277.624 60.6819 277.578 60.438C277.533 60.194 277.397 59.9763 277.198 59.8281C276.786 59.4167 275.963 59.2522 274.894 59.9103C273.824 60.5685 271.768 62.2962 270.287 63.2835C268.806 64.2707 267.325 69.9475 271.274 71.5106Z" fill="#7A2F28"/>
<path d="M271.438 64.5967C271.603 61.3881 272.179 55.3 272.261 53.9837C272.407 52.6174 272.435 51.2411 272.343 49.8701C272.261 49.2119 272.261 48.7183 271.356 48.7183C270.451 48.7183 269.875 49.7878 269.628 51.8446C269.381 53.9014 269.299 55.0532 269.299 55.0532C268.769 56.6944 268.356 58.3716 268.065 60.0718C267.983 61.7995 271.438 64.5967 271.438 64.5967Z" fill="#7A2F28"/>
<path d="M268.308 59.4144C268.226 56.6995 267.568 50.1177 267.403 48.6369C267.239 47.156 266.992 46.8269 266.169 46.9091C265.347 46.9914 264.524 47.156 264.853 51.7632C265.1 54.1491 265.1 55.6299 265.1 55.6299C265.1 55.6299 265.1 59.6613 265.182 60.8131C265.264 61.9649 268.308 59.4144 268.308 59.4144Z" fill="#7A2F28"/>
<path d="M265.347 59.7439C265.018 56.8644 264.36 52.4217 264.195 51.1054C264.031 49.789 263.701 49.0486 262.797 49.2954C261.892 49.5422 261.398 50.2004 261.645 52.5863C261.892 54.9722 262.056 56.6176 262.138 57.2758C262.221 57.9339 262.385 61.5539 262.385 61.5539L265.347 59.7439Z" fill="#7A2F28"/>
<path d="M262.715 61.3074C262.139 58.757 261.317 54.9725 261.07 53.7384C260.823 52.5043 260.494 52.0107 259.589 52.2575C258.684 52.5043 258.355 53.1625 258.766 55.3016C259.069 56.6304 259.289 57.9768 259.424 59.3329L260 63.1174L262.715 61.3074Z" fill="#7A2F28"/>
<path d="M271.683 62.2126C269.709 63.4467 267.487 63.9403 266.665 65.2567C265.928 66.1883 265.37 67.2483 265.019 68.383C264.855 69.288 264.608 68.9589 263.785 67.8071C262.962 66.6553 262.222 65.7503 261.893 64.6808C261.564 63.6112 261.975 62.8708 265.348 62.3772L271.683 61.4722V62.2126Z" fill="#5E221D"/>
<path d="M269.215 71.1803C269.215 71.4022 269.242 71.6234 269.297 71.8384C269.462 72.8257 269.873 74.7179 270.202 76.2811C270.285 76.5279 272.012 75.2116 272.012 75.047C271.918 74.8106 271.863 74.5606 271.848 74.3066C271.747 73.9587 271.692 73.5992 271.683 73.237C271.601 72.9902 271.601 72.6611 271.519 72.4143V71.6739C271.45 71.1282 271.423 70.5782 271.436 70.0284C271.619 69.0643 271.982 68.1433 272.506 67.3135V67.3135L271.436 68.2185C269.38 70.0284 269.215 70.2753 269.215 71.1803Z" fill="#91423B"/>
<path d="M272.668 73.2371L273.244 74.2243L272.504 75.2116C269.606 78.1214 266.092 80.3427 262.22 81.711H261.726C269.954 77.3506 272.668 73.2371 272.668 73.2371Z" fill="#242236"/>
<path d="M270.941 56.1254C270.346 56.1704 269.75 56.0569 269.213 55.7963C269.213 55.7963 270.53 54.2331 270.941 56.1254Z" fill="#5E221D"/>
<path d="M271.189 52.9979C270.69 53.0666 270.181 53.0101 269.709 52.8334C269.709 52.8334 270.943 51.9284 271.189 52.9979Z" fill="#5E221D"/>
<path d="M266.992 55.3841C266.44 55.585 265.845 55.6417 265.264 55.5486C265.264 55.5486 266.416 54.15 266.992 55.3841Z" fill="#5E221D"/>
<path d="M269.709 59.2517C266.856 59.2539 264.012 59.5852 261.235 60.239C259.672 60.7326 259.754 61.2262 262.14 60.7326C264.314 60.2651 266.511 59.9081 268.722 59.6631C270.038 59.4985 271.19 59.2517 269.709 59.2517Z" fill="#5E221D"/>
<path d="M266.418 51.5993C265.925 50.9412 265.266 51.5171 265.184 52.0107C265.102 52.5043 266.254 52.6689 266.418 51.5993Z" fill="#5E221D"/>
</g>
<path d="M296.109 101.166L293.958 100.2C293.932 100.2 293.932 100.122 293.958 100.122L296.109 99.1559H296.135L297.094 96.9895C297.094 96.9634 297.171 96.9634 297.171 96.9895L298.13 99.1559H298.156L300.307 100.122C300.333 100.122 300.333 100.2 300.307 100.2L298.156 101.166H298.13L297.171 103.332H297.094L296.135 101.166H296.109Z" fill="#FF99B9"/>
<path d="M19.9102 37.462L17.4627 36.3742C17.4174 36.3742 17.4174 36.3289 17.4627 36.2836L19.9102 35.1958H19.9555L21.0433 32.7483C21.0433 32.703 21.1339 32.703 21.1339 32.7483L22.2217 35.1958H22.267L24.6691 36.2836C24.7145 36.3289 24.7145 36.3742 24.6691 36.3742L22.267 37.462C22.255 37.462 22.2434 37.4668 22.2349 37.4753C22.2264 37.4838 22.2217 37.4953 22.2217 37.5073L21.1339 39.9548H21.0433L19.9555 37.5073C19.9555 37.4953 19.9507 37.4838 19.9422 37.4753C19.9337 37.4668 19.9222 37.462 19.9102 37.462Z" fill="#F7D197"/>
<path d="M121.155 100.758L119.593 100.061C119.564 100.061 119.564 100.032 119.593 100.003L121.155 99.3053H121.184L121.878 97.7359C121.878 97.7068 121.936 97.7068 121.936 97.7359L122.631 99.3053H122.66L124.193 100.003C124.222 100.032 124.222 100.061 124.193 100.061L122.66 100.758C122.652 100.758 122.645 100.762 122.639 100.767C122.634 100.772 122.631 100.78 122.631 100.788L121.936 102.357H121.878L121.184 100.788C121.184 100.78 121.181 100.772 121.176 100.767C121.17 100.762 121.163 100.758 121.155 100.758Z" fill="#FAFAFA"/>
<defs>
<linearGradient id="paint0_linear" x1="122.847" y1="36.3055" x2="134.397" y2="65.8499" gradientUnits="userSpaceOnUse">
<stop stop-color="#FFC285"/>
<stop offset="1" stop-color="#DB8D6B"/>
</linearGradient>
<linearGradient id="paint1_linear" x1="160.727" y1="53.6849" x2="97.6817" y2="53.6849" gradientUnits="userSpaceOnUse">
<stop stop-color="#D67569"/>
<stop offset="1" stop-color="#E39E7F"/>
</linearGradient>
<clipPath id="clip0">
<rect x="71.8799" y="30.8721" width="112.32" height="59.904" rx="7.488" fill="white"/>
</clipPath>
<clipPath id="clip1">
<path d="M161.736 51.4641C161.736 47.3286 165.089 43.9761 169.224 43.9761H266.568C270.704 43.9761 274.056 47.3286 274.056 51.4641V100.136C274.056 104.272 270.704 107.624 266.568 107.624H169.224C165.089 107.624 161.736 104.272 161.736 100.136V51.4641Z" fill="white"/>
</clipPath>
<clipPath id="clip2">
<rect x="161.736" y="43.9761" width="112.32" height="70.2" rx="7.488" fill="white"/>
</clipPath>
<clipPath id="clip3">
<rect width="110.448" height="61.776" fill="white" transform="translate(162.672 44.9121)"/>
</clipPath>
<clipPath id="clip4">
<rect width="110.448" height="22.464" fill="white" transform="translate(162.672 84.2241)"/>
</clipPath>
<clipPath id="clip5">
<rect width="110.448" height="47.736" fill="white" transform="translate(162.672 44.9121)"/>
</clipPath>
<clipPath id="clip6">
<rect width="110.448" height="43.056" fill="white" transform="translate(162.672 44.9121)"/>
</clipPath>
<clipPath id="clip7">
<rect x="-17.9761" y="43.9761" width="112.32" height="63.648" rx="7.488" fill="white"/>
</clipPath>
<clipPath id="clip8">
<rect x="-17.9761" y="43.9761" width="112.32" height="70.0237" rx="7.488" fill="white"/>
</clipPath>
<clipPath id="clip9">
<rect x="-16.104" y="45.8481" width="108.576" height="59.904" rx="5.616" fill="white"/>
</clipPath>
<clipPath id="clip10">
<rect width="97.344" height="61.776" fill="white" transform="translate(-10.488 43.9761)"/>
</clipPath>
<clipPath id="clip11">
<rect width="101.088" height="89.856" fill="white" transform="matrix(-1 0 0 1 358.296 0.919922)"/>
</clipPath>
</defs>
</svg>
