<svg width="88" height="80" viewBox="0 0 88 80" fill="none" xmlns="http://www.w3.org/2000/svg">
<path d="M83.0026 1.0838C83.0026 0.485236 82.5173 0 81.9188 0C81.3202 0 80.835 0.485236 80.835 1.0838V2.18567C80.835 2.78424 81.3202 3.26948 81.9188 3.26948C82.5173 3.26948 83.0026 2.78424 83.0026 2.18567V1.0838Z" fill="#5AE6DC"/>
<path d="M83.0026 9.81427C83.0026 9.2157 82.5173 8.73047 81.9188 8.73047C81.3202 8.73047 80.835 9.2157 80.835 9.81427V10.9161C80.835 11.5147 81.3202 11.9999 81.9188 11.9999C82.5173 11.9999 83.0026 11.5147 83.0026 10.9161V9.81427Z" fill="#5AE6DC"/>
<path d="M86.9162 7.10511C87.5148 7.10511 88 6.61987 88 6.0213C88 5.42274 87.5148 4.9375 86.9162 4.9375H85.8143C85.2158 4.9375 84.7305 5.42274 84.7305 6.0213C84.7305 6.61987 85.2158 7.10511 85.8143 7.10511H86.9162Z" fill="#5AE6DC"/>
<path d="M78.1857 7.04505C78.7843 7.04505 79.2695 6.55981 79.2695 5.96125C79.2695 5.36268 78.7843 4.87744 78.1857 4.87744H77.0839C76.4853 4.87744 76.0001 5.36268 76.0001 5.96125C76.0001 6.55981 76.4853 7.04505 77.0839 7.04505H78.1857Z" fill="#5AE6DC"/>
<path d="M8.36261 75.843L11.486 74.8013C11.6394 74.731 11.7694 74.6181 11.8605 74.4761C11.9516 74.334 12 74.1688 12 74C12 73.8312 11.9516 73.666 11.8605 73.5239C11.7694 73.3819 11.6394 73.269 11.486 73.1987L8.36261 72.157C8.14925 72.0606 7.97838 71.8897 7.88207 71.6762L6.76084 68.5511C6.70818 68.3908 6.60626 68.2512 6.46964 68.1522C6.33302 68.0533 6.16866 68 5.99999 68C5.83133 68 5.66698 68.0533 5.53036 68.1522C5.39374 68.2512 5.29182 68.3908 5.23916 68.5511L4.11793 71.6762C4.02162 71.8897 3.85075 72.0606 3.63739 72.157L0.513957 73.1987C0.360602 73.269 0.230643 73.3819 0.139534 73.5239C0.0484247 73.666 0 73.8312 0 74C0 74.1688 0.0484247 74.334 0.139534 74.4761C0.230643 74.6181 0.360602 74.731 0.513957 74.8013L3.63739 75.843C3.75083 75.8774 3.85403 75.9393 3.93785 76.0232C4.02167 76.107 4.08352 76.2103 4.11793 76.3238L5.23916 79.4489C5.29182 79.6092 5.39374 79.7488 5.53036 79.8478C5.66698 79.9467 5.83133 80 5.99999 80C6.16866 80 6.33302 79.9467 6.46964 79.8478C6.60626 79.7488 6.70818 79.6092 6.76084 79.4489L7.88207 76.3238C7.91648 76.2103 7.97834 76.107 8.06215 76.0232C8.14597 75.9393 8.24917 75.8774 8.36261 75.843Z" fill="#FFD01A"/>
<path d="M64.5632 25.5039H23.4368C21.5387 25.5039 20 27.0426 20 28.9407V59.5858C20 61.4839 21.5387 63.0226 23.4368 63.0226H64.5632C66.4613 63.0226 68 61.4839 68 59.5858V28.9407C68 27.0426 66.4613 25.5039 64.5632 25.5039Z" fill="#FFD836"/>
<path d="M44 47.6799L20 32.0703V36.6015L42.4832 51.1935C42.932 51.494 43.4599 51.6544 44 51.6544C44.5401 51.6544 45.068 51.494 45.5168 51.1935L68 36.6015V32.0703L44 47.6799Z" fill="#FFB713"/>
<path d="M63.5 33C68.1944 33 72 29.1944 72 24.5C72 19.8056 68.1944 16 63.5 16C58.8056 16 55 19.8056 55 24.5C55 29.1944 58.8056 33 63.5 33Z" fill="#4F81FF"/>
<path d="M62.2002 29.4592C61.7915 29.4615 61.3984 29.3029 61.1058 29.0176L57.8226 25.7152C57.5578 25.423 57.4156 25.0402 57.4253 24.6461C57.435 24.2519 57.5959 23.8766 57.8747 23.5978C58.1535 23.319 58.5288 23.158 58.923 23.1483C59.3172 23.1386 59.7 23.2809 59.9922 23.5456L62.2002 25.7536L67.0962 20.8384C67.3874 20.55 67.7807 20.3882 68.1906 20.3882C68.6004 20.3882 68.9937 20.55 69.285 20.8384C69.5722 21.1264 69.7335 21.5165 69.7335 21.9232C69.7335 22.33 69.5722 22.7201 69.285 23.008L63.2754 29.0176C63.134 29.1583 62.9662 29.2697 62.7817 29.3455C62.5972 29.4213 62.3996 29.4599 62.2002 29.4592Z" fill="white"/>
</svg>
