<svg width="120" height="96" viewBox="0 0 120 96" fill="none" xmlns="http://www.w3.org/2000/svg">
<circle cx="60" cy="48" r="40" fill="#202225"/>
<path d="M79.414 64.586L68.628 53.8C70.806 51.008 72 47.598 72 44C72 39.726 70.334 35.708 67.312 32.688C64.292 29.664 60.274 28 56 28C51.726 28 47.708 29.664 44.688 32.688C41.666 35.708 40 39.726 40 44C40 48.274 41.666 52.292 44.688 55.312C47.708 58.336 51.726 60 56 60C59.598 60 63.008 58.808 65.8 56.628L76.586 67.412L79.414 64.586ZM56 56C52.794 56 49.782 54.752 47.516 52.486C45.248 50.22 44 47.206 44 44C44 40.796 45.248 37.782 47.516 35.516C49.782 33.248 52.794 32 56 32C59.206 32 62.218 33.248 64.484 35.516C66.752 37.782 68 40.796 68 44C68 47.206 66.752 50.22 64.484 52.486C62.218 54.752 59.206 56 56 56Z" fill="#B9BBBE"/>
<path d="M103.671 1.80634C103.671 0.808724 102.863 0 101.865 0C100.867 0 100.059 0.808724 100.059 1.80634V3.64278C100.059 4.64039 100.867 5.44911 101.865 5.44911C102.863 5.44911 103.671 4.64039 103.671 3.64278V1.80634Z" fill="#58F287"/>
<path d="M103.671 16.3574C103.671 15.3597 102.863 14.551 101.865 14.551C100.867 14.551 100.059 15.3597 100.059 16.3574V18.1938C100.059 19.1914 100.867 20.0001 101.865 20.0001C102.863 20.0001 103.671 19.1914 103.671 18.1938V16.3574Z" fill="#58F287"/>
<path d="M110.194 11.8411C111.191 11.8411 112 11.0323 112 10.0347C112 9.03712 111.191 8.22839 110.194 8.22839H108.357C107.36 8.22839 106.551 9.03712 106.551 10.0347C106.551 11.0323 107.36 11.8411 108.357 11.8411H110.194Z" fill="#58F287"/>
<path d="M95.6429 11.7412C96.6405 11.7412 97.4492 10.9325 97.4492 9.93488C97.4492 8.93726 96.6405 8.12854 95.6429 8.12854H93.8064C92.8088 8.12854 92.0001 8.93726 92.0001 9.93488C92.0001 10.9325 92.8088 11.7412 93.8064 11.7412H95.6429Z" fill="#58F287"/>
<path d="M19.1501 90.4573L23.3147 89.0684C23.5192 88.9747 23.6925 88.8241 23.814 88.6347C23.9354 88.4454 24 88.225 24 88C24 87.775 23.9354 87.5546 23.814 87.3653C23.6925 87.1759 23.5192 87.0253 23.3147 86.9316L19.1501 85.5427C18.8657 85.4142 18.6378 85.1862 18.5094 84.9016L17.0145 80.7348C16.9442 80.521 16.8083 80.3349 16.6262 80.203C16.444 80.071 16.2249 80 16 80C15.7751 80 15.556 80.071 15.3738 80.203C15.1917 80.3349 15.0558 80.521 14.9855 80.7348L13.4906 84.9016C13.3622 85.1862 13.1343 85.4142 12.8499 85.5427L8.68528 86.9316C8.4808 87.0253 8.30752 87.1759 8.18604 87.3653C8.06457 87.5546 8 87.775 8 88C8 88.225 8.06457 88.4454 8.18604 88.6347C8.30752 88.8241 8.4808 88.9747 8.68528 89.0684L12.8499 90.4573C13.0011 90.5032 13.1387 90.5858 13.2505 90.6976C13.3622 90.8094 13.4447 90.9471 13.4906 91.0984L14.9855 95.2652C15.0558 95.479 15.1917 95.6651 15.3738 95.797C15.556 95.929 15.7751 96 16 96C16.2249 96 16.444 95.929 16.6262 95.797C16.8083 95.6651 16.9442 95.479 17.0145 95.2652L18.5094 91.0984C18.5553 90.9471 18.6378 90.8094 18.7495 90.6976C18.8613 90.5858 18.9989 90.5032 19.1501 90.4573Z" fill="#FFD01A"/>
</svg>
