<svg width="343" height="177" viewBox="0 0 343 177" fill="none" xmlns="http://www.w3.org/2000/svg">
<g clip-path="url(#clip0)">
<path d="M338 117.026C338.006 127.012 335.71 136.865 331.292 145.82C326.874 154.774 320.452 162.589 312.525 168.658C308.098 172.027 303.268 174.829 298.146 177H247.854C237.011 172.449 227.606 165.041 220.639 155.564C213.672 146.088 209.405 134.898 208.292 123.187C207.179 111.476 209.262 99.6828 214.319 89.0626C219.376 78.4424 227.217 69.3935 237.008 62.8797C246.799 56.3658 258.173 52.6311 269.917 52.0732C281.662 51.5153 293.338 54.1552 303.702 59.7117C314.066 65.2681 322.729 73.5331 328.769 83.6262C334.809 93.7192 337.999 105.262 338 117.026Z" fill="#3895F2"/>
<path d="M315.151 100.341L312.591 103.363C312.591 103.363 317.778 110.326 319.156 111.771C320.535 113.216 321.914 112.888 322.636 111.902C323.358 110.917 324.146 108.749 315.151 100.341Z" fill="#FFAE17"/>
<path d="M265.909 76.3649C265.939 74.5828 266.093 72.8049 266.369 71.0441C266.566 70.5186 266.96 70.0587 268.273 71.6353C269.586 73.2118 271.818 76.5619 271.818 76.5619L265.909 76.3649Z" fill="#FF8C19"/>
<path d="M278.187 76.8247C281.01 72.949 283.243 71.3068 284.359 71.3725C285.475 71.4382 285.344 72.6206 284.359 79.7807C283.374 86.9407 278.187 76.8247 278.187 76.8247Z" fill="#FF8C19"/>
<path d="M297.359 113.282C296.505 116.632 296.177 120.902 297.753 124.843L308.652 120.902L307.929 116.698C312 116.698 315.611 117.289 316.924 112.953C317.909 109.8 318.566 103.429 316.924 100.013C315.283 96.597 312.197 94.4293 306.157 95.7431C302.546 96.597 301.758 98.502 300.97 100.998C296.636 100.67 293.419 101.589 292.697 105.99C291.975 110.392 294.273 112.494 297.359 113.282Z" fill="#FFD73B"/>
<path d="M314.232 96.7941L312.459 100.407C312.459 100.407 318.631 106.516 320.141 107.764C321.651 109.012 323.03 108.487 323.687 107.436C324.343 106.385 324.343 103.888 314.232 96.7941Z" fill="#FFD73B"/>
<path d="M304.252 101.327L302.151 101.129C302.677 99.4216 303.333 98.8961 304.055 98.8961C304.778 98.8961 305.303 99.75 304.252 101.327Z" fill="white"/>
<path d="M309.833 102.312L306.813 101.721C307.732 99.8157 308.586 99.0932 309.702 99.2245C310.818 99.3559 310.949 100.538 309.833 102.312Z" fill="white"/>
<path d="M298.278 103.429C298.316 103.36 298.375 103.305 298.445 103.27C298.515 103.235 298.594 103.221 298.672 103.232C301.83 103.056 304.994 103.479 307.995 104.48C309.177 104.939 308.586 105.728 306.485 106.844C304.452 107.931 302.151 108.41 299.854 108.224C297.818 108.092 297.03 105.859 298.278 103.429Z" fill="black"/>
<path d="M308.389 105.465C304.975 104.677 300.641 105.071 298.54 107.698C300.247 109.275 306.55 107.698 308.389 105.465Z" fill="#EB459F"/>
<path d="M307.47 105.334C305.595 105.49 303.768 106.003 302.086 106.844" stroke="black" stroke-width="0.861558" stroke-miterlimit="10" stroke-linecap="round"/>
<path d="M307.995 104.48C305.272 103.54 302.404 103.095 299.525 103.166C298.934 104.217 298.803 105.268 301.101 105.465C302.086 105.531 302.151 104.742 302.151 104.742C304.081 105.033 305.989 105.45 307.863 105.99C308.783 105.334 308.848 104.808 307.995 104.48Z" fill="white"/>
<path d="M293.157 120.442C303.202 119.128 308.98 118.603 312.46 118.471C315.939 118.34 317.646 119.785 317.843 121.165C318.172 123.726 314.692 136.798 314.692 136.798C314.692 136.798 315.02 140.608 314.955 142.71C314.889 144.812 314.429 146.192 308.258 146.389C304.384 146.455 291.384 144.681 286.722 143.236C282.061 141.791 281.076 140.937 283.111 134.696C283.434 133.795 283.697 132.873 283.899 131.937C284.556 128.916 286.854 121.427 293.157 120.442Z" fill="white"/>
<path d="M266.566 135.813L258.49 120.114C254.419 118.537 249.823 118.274 248.838 122.544C247.854 126.814 249.626 129.901 253.303 137.127C250.217 138.441 248.247 138.901 246.343 141.003C244.439 143.105 242.864 145.732 244.308 146.849C245.753 147.966 247 147.309 247.985 146.389C248.97 145.469 250.217 144.156 251.465 143.63C252.712 143.105 257.111 141.528 259.015 140.608C262.561 138.901 266.303 137.193 266.566 135.813Z" fill="#FF8C19"/>
<path d="M304.712 129.704L310.162 121.493" stroke="black" stroke-width="0.861558" stroke-miterlimit="10" stroke-linecap="round"/>
<path opacity="0.6" d="M306.025 130.689C293.682 132.397 283.374 134.105 284.555 129.573C284.279 130.344 284.059 131.134 283.899 131.938C283.697 132.874 283.434 133.795 283.111 134.696C281.076 140.937 282.389 142.054 286.722 143.302C291.055 144.55 304.384 146.652 308.192 146.52C314.363 146.389 314.889 144.878 314.954 142.71C315.02 140.543 314.823 136.798 314.823 136.798L316.53 129.31L306.025 130.689Z" fill="#949CFF"/>
<path d="M308.586 145.535L308.126 147.834C304.613 146.657 301.013 145.756 297.359 145.141C295.795 144.869 294.216 144.693 292.631 144.615L286.263 144.353L286.788 142.579C292.566 141.134 301.232 140.608 308.586 145.535Z" fill="black"/>
<path d="M313.379 177H274.379C276.545 168.066 279.04 158.016 279.566 155.98C281.207 149.871 281.995 146.323 286.263 144.353C290.53 142.382 305.172 143.696 308.126 147.834C311.212 150.133 310.818 153.286 311.737 161.235C311.737 161.563 312.066 164.585 312.525 168.657C312.788 171.154 313.116 174.11 313.379 177Z" fill="white"/>
<path d="M256.783 165.899C256.067 165.9 255.377 165.63 254.853 165.142C254.329 164.654 254.009 163.986 253.959 163.271C253.106 153.155 260.788 148.163 264.465 145.798L264.858 145.535C267.222 143.959 268.273 142.382 267.747 137.652C267.692 137.28 267.714 136.9 267.811 136.536C267.909 136.172 268.079 135.831 268.313 135.536C268.547 135.241 268.839 134.996 269.17 134.818C269.502 134.64 269.867 134.531 270.242 134.499C270.618 134.444 271.002 134.466 271.37 134.562C271.737 134.659 272.082 134.829 272.382 135.062C272.683 135.295 272.933 135.587 273.118 135.919C273.303 136.251 273.419 136.617 273.459 136.996C274.182 143.433 272.54 147.374 267.944 150.396L267.616 150.593C263.348 153.418 259.146 156.636 259.672 162.811C259.726 163.568 259.482 164.315 258.99 164.893C258.499 165.47 257.8 165.832 257.045 165.899H256.783Z" fill="#FF8C19"/>
<path d="M256.914 109.8C255.404 113.807 253.5 120.114 255.273 127.208C256.586 132.594 261.773 139.163 271.753 139.163C281.732 139.163 288.955 132.66 287.97 125.303C287.51 122.281 285.081 117.946 282.52 115.909C283.505 114.004 285.869 109.603 286.591 107.436C287.313 105.268 288.298 103.034 285.147 99.0931C276.086 87.7947 264.465 90.9477 261.838 93.0498C259.212 95.1518 258.227 98.3706 257.374 103.363C257.051 105.493 256.898 107.646 256.914 109.8Z" fill="white"/>
<path d="M261.116 103.626C260.178 101.479 259.86 99.1125 260.197 96.7941H259.015C258.243 98.8987 257.693 101.078 257.374 103.297C257.051 105.428 256.897 107.58 256.914 109.735C254.813 114.99 254.288 119.128 254.091 127.142L252.581 132.594L259.934 134.828C259.068 133.941 258.317 132.948 257.702 131.872C254.551 124.712 255.929 116.041 261.116 103.626Z" fill="#FF8C19"/>
<path d="M287.97 125.303C287.51 122.281 285.081 117.946 282.52 115.909C283.505 114.004 285.869 109.603 286.591 107.436C287.313 105.268 288.298 103.034 285.147 99.0931C284.422 98.1624 283.608 97.3044 282.717 96.5313L278.647 94.1665C281.798 98.8961 279.237 101.918 276.02 104.808C279.697 109.538 280.222 120.77 280.288 129.835L279.828 137.521C285.278 135.156 288.626 130.427 287.97 125.303Z" fill="#FF8C19"/>
<path d="M287.773 128.916C286.985 132.332 284.359 135.288 280.616 137.193C278.646 141.068 277.202 141.922 274.444 141.331C273.772 141.207 273.133 140.944 272.568 140.56C272.003 140.175 271.524 139.677 271.162 139.098C270.115 137.414 269.235 135.632 268.535 133.777C266.303 128.39 263.217 125.697 264.596 123.529C265.975 121.362 268.338 122.084 269.52 123.792C270.988 126.125 272.325 128.537 273.525 131.018C273.066 122.741 274.576 118.931 278.056 119.063C281.535 119.194 286.131 121.821 287.773 128.916Z" fill="#FF8C19"/>
<path d="M289.874 115.056C289.414 113.742 287.839 109.406 287.51 108.749C287.182 108.093 286.919 107.698 284.293 106.779C283.012 106.313 281.645 106.133 280.288 106.253C279.106 106.319 278.45 106.713 278.45 107.304C278.45 107.895 278.647 108.815 281.404 108.946C282.239 109.078 283.042 109.368 283.768 109.8C282.372 109.853 280.996 110.141 279.697 110.654C278.844 111.049 277.99 111.377 277.662 111.902C277.467 112.381 277.421 112.908 277.53 113.413C277.552 113.831 277.595 114.248 277.662 114.661C277.727 115.384 277.793 116.763 278.121 117.158C278.45 117.552 279.631 117.617 281.798 117.617C282.389 118.865 283.505 120.179 284.818 120.311C286.131 120.442 289.874 115.056 289.874 115.056Z" fill="#FFD73B"/>
<path d="M283.702 103.363C278.975 101.655 276.808 100.998 274.05 104.742L269.914 110.26C268.535 112.165 268.207 114.004 269.914 114.858C271.621 115.712 273.657 113.807 274.773 112.625C275.889 111.443 280.682 106.647 283.702 106.582H286.919C287.576 104.677 287.838 102.509 285.146 99.0932L284.752 98.6333L282.52 98.4363L283.702 103.363Z" fill="#FF8C19"/>
<path d="M285.475 104.677C285.399 105.478 285.245 106.27 285.015 107.042L284.424 106.844C284.696 106.129 284.851 105.375 284.884 104.611C284.884 104.48 285.081 104.348 285.212 104.348C285.343 104.348 285.475 104.545 285.475 104.677Z" fill="black"/>
<path d="M317.844 119.194C317.253 118.8 316.53 118.471 313.773 118.471C311.278 121.624 307.929 125.894 305.172 129.573C304.056 128.522 292.434 118.274 291.778 117.617C290.927 116.947 290.27 116.063 289.874 115.056L289.414 113.939L283.505 117.946C283.505 117.946 288.364 124.712 289.939 126.485C293.485 130.558 301.692 139.229 306.354 142.842H306.813C311.606 139.36 312 138.309 313.576 135.353C315.152 132.397 318.172 126.814 319.025 124.055C319.879 121.296 319.222 120.048 317.844 119.194Z" fill="#FFD73B"/>
<path d="M287.05 102.509C287.247 103.166 286.853 104.414 283.702 103.363L282.52 102.969C279.106 101.721 277.136 101.392 274.97 103.626C262.889 104.808 261.247 100.144 258.424 100.144H258.03C258.752 96.9911 259.803 94.7577 261.838 93.0498C263.874 91.3419 276.086 87.7947 285.146 99.0932L285.54 99.553C285.611 99.7306 285.724 99.8883 285.869 100.013C285.942 100.174 286.03 100.328 286.131 100.473C286.388 100.868 286.607 101.286 286.788 101.721L286.985 102.115C286.985 102.246 287.05 102.378 287.05 102.509Z" fill="black"/>
<path d="M254.879 92.9184L263.02 93.9037L278.646 94.1665L288.429 99.6843L291.712 87.2692L281.732 75.708L267.55 75.1824L256.98 74.3942L255.995 85.5613L254.879 92.9184Z" fill="#FFD73B"/>
<path d="M278.646 94.1665L280.682 85.824L281.732 75.708L291.712 87.2692L288.429 99.6844L278.646 94.1665Z" fill="#FFB619"/>
<path d="M254.879 92.9184L249.298 96.6627L249.757 97.7794L261.116 99.6843H273.262L278.515 95.4146L280.616 100.341L289.677 104.02L290.399 103.626L288.429 99.6843L285.672 99.75L278.646 94.1665L259.54 96.794L254.879 92.9184Z" fill="#FFD73B"/>
<path d="M254.879 92.9184L249.298 96.6627L261.444 98.699H272.869L278.646 94.1665L263.02 93.9037L254.879 92.9184Z" fill="#FFF2A6"/>
<path d="M288.429 99.6843L278.646 94.1665L281.404 99.6843L290.399 103.626L288.429 99.6843Z" fill="#FFB619"/>
<path d="M275.889 87.2035C275.004 88.6582 273.593 89.7165 271.949 90.1595C271.415 90.3262 270.842 90.3262 270.308 90.1595C270.242 90.0938 270.242 90.0281 270.242 89.8967C269.904 88.4521 270.019 86.9384 270.571 85.5613C271.293 83.9847 273.657 82.0798 275.298 82.0141H275.889L276.086 82.6053C276.348 83.6563 276.677 85.824 275.889 87.2035Z" fill="black"/>
<path d="M275.889 82.0798H275.298C273.657 82.1455 271.293 84.0505 270.571 85.627C270.019 87.0042 269.904 88.5179 270.242 89.9625C270.242 90.0938 270.242 90.1595 270.308 90.2252C270.077 90.1436 269.878 89.9923 269.737 89.7923C269.595 89.5923 269.52 89.3533 269.52 89.1085C269.182 87.6639 269.297 86.1502 269.849 84.773C270.571 83.1965 272.934 81.2915 274.576 81.2259C274.861 81.1833 275.152 81.2467 275.394 81.404C275.636 81.5613 275.812 81.8016 275.889 82.0798Z" fill="#FFB012"/>
<path d="M264.399 87.6633C264.071 88.6486 263.808 89.5026 263.217 89.634C262.626 89.7654 261.51 88.583 260.722 87.3349C260.066 86.0211 260 84.3132 260.263 82.4082C260.525 80.5032 261.707 79.5836 262.561 80.8317C263.237 82.0024 263.851 83.2084 264.399 84.4446C264.693 85.4973 264.693 86.6106 264.399 87.6633Z" fill="black"/>
<path d="M262.561 80.8317C261.707 79.5836 260.591 80.2405 260.263 82.4082C259.934 84.576 260.066 86.0211 260.722 87.3349C260.613 87.2196 260.524 87.0863 260.46 86.9407C259.54 85.5613 259.344 83.5906 259.672 81.4229C260 79.2552 261.051 78.4012 261.904 79.715L262.561 80.8317Z" fill="#FFB012"/>
<path d="M260.723 87.3352C260.657 87.2694 260.657 87.2035 260.591 87.2035C260.525 87.2035 260.657 87.2694 260.723 87.3352Z" fill="#FFB012"/>
<path d="M258.227 103.626C256.717 101.786 255.01 98.3706 253.96 95.1518C252.909 91.9331 251.727 91.2762 250.349 91.1448C250.003 91.107 249.652 91.144 249.322 91.2533C248.992 91.3626 248.688 91.5416 248.433 91.7783C248.178 92.015 247.977 92.3038 247.843 92.6252C247.709 92.9466 247.645 93.293 247.657 93.641C247.657 96.3999 248.904 99.553 250.611 104.348C252.318 109.144 253.04 110.195 256.914 109.8C259.672 109.538 259.672 105.399 258.227 103.626Z" fill="#FF8C19"/>
<path d="M252.056 93.7067C252.037 93.545 251.982 93.3897 251.893 93.2531C251.805 93.1165 251.686 93.0023 251.546 92.9195C251.406 92.8367 251.249 92.7876 251.087 92.776C250.924 92.7644 250.762 92.7907 250.611 92.8527C250.536 92.667 250.41 92.5066 250.247 92.3902C250.084 92.2738 249.892 92.2064 249.692 92.1959C249.167 92.1959 248.904 92.59 248.97 93.1155C249.035 93.641 247.788 93.1812 248.051 94.4293C248.241 95.2475 248.575 96.0258 249.035 96.7284C249.246 97.0819 249.562 97.3607 249.938 97.5257C250.315 97.6906 250.734 97.7334 251.136 97.648C251.477 97.5425 251.77 97.3197 251.962 97.0191C252.154 96.7186 252.234 96.3596 252.187 96.0058C252.271 95.2375 252.227 94.4605 252.056 93.7067Z" fill="white"/>
<path d="M262.495 109.997C262.17 111.626 261.663 113.212 260.985 114.727C260.394 115.909 259.803 115.909 258.49 115.975H256.651C254.879 117.617 254.616 118.537 254.616 118.537C252.646 116.96 252.646 116.96 253.237 114.661C253.6 112.903 254.339 111.245 255.404 109.8L255.798 109.406C257.045 108.027 258.752 107.501 260.853 107.37C262.954 107.239 262.889 108.355 262.495 109.997Z" fill="#FFD73B"/>
<path d="M287.838 142.71C286.653 142.401 285.538 141.866 284.555 141.134" stroke="black" stroke-width="0.861558" stroke-miterlimit="10" stroke-linecap="round"/>
<path d="M275.889 87.2035C275.593 87.758 275.192 88.249 274.707 88.6486C274.905 88.3324 275.018 87.9704 275.035 87.5976C275.298 86.0868 274.641 84.9044 273.591 84.9701C272.54 85.0358 271.49 86.2182 271.227 87.6633C270.964 89.1085 271.424 89.7653 272.081 90.0938H271.949L271.096 90.2252C270.563 89.4112 270.374 88.4192 270.57 87.4662C270.833 85.5613 272.212 83.9191 273.722 83.9191C275.232 83.9191 276.02 85.3642 275.889 87.2035Z" fill="#57F287"/>
<path d="M264.399 84.4446L264.071 83.722C263.768 83.5573 263.43 83.4672 263.086 83.4592C261.773 83.4592 260.722 84.9044 260.722 86.678C260.711 86.9424 260.734 87.2072 260.788 87.4662C261.576 88.7143 262.363 89.831 263.217 89.634C264.071 89.4369 264.071 88.6486 264.399 87.6633C264.693 86.6106 264.693 85.4973 264.399 84.4446Z" fill="#57F287"/>
<path d="M264.399 87.6633C264.609 86.8484 264.653 85.9996 264.53 85.1671C264.401 84.9306 264.212 84.7327 263.981 84.5941C263.75 84.4555 263.486 84.3812 263.217 84.3789C262.232 84.3789 261.444 85.5613 261.444 87.0721C261.399 87.8605 261.658 88.6363 262.167 89.2398C262.295 89.3875 262.459 89.5008 262.642 89.5696C262.825 89.6384 263.023 89.6605 263.217 89.634C263.808 89.5026 264.071 88.6486 264.399 87.6633Z" fill="black"/>
<path d="M302.283 105.201L300.51 105.004C300.379 104.939 300.313 104.873 300.313 104.742C300.313 104.611 300.445 104.545 300.576 104.545L302.349 104.742C302.414 104.808 302.546 104.873 302.48 105.004C302.48 105.057 302.459 105.107 302.422 105.144C302.385 105.181 302.335 105.201 302.283 105.201Z" fill="black"/>
<path d="M317.909 105.728L315.545 103.429C315.414 103.297 315.217 103.297 315.151 103.429C315.123 103.453 315.101 103.484 315.086 103.518C315.07 103.552 315.062 103.588 315.063 103.626C315.062 103.663 315.07 103.7 315.086 103.734C315.101 103.768 315.123 103.798 315.151 103.823L317.909 106.516V105.728Z" fill="black"/>
<path d="M315.545 103.429C317.318 105.137 319.353 107.107 320.141 107.764C320.462 108.062 320.854 108.273 321.279 108.376C321.704 108.48 322.149 108.473 322.571 108.355C323.03 107.698 323.162 106.45 321.192 104.939C319.222 103.429 316.465 103.034 315.545 103.429Z" fill="white"/>
<path d="M303.662 99.4873C303.202 99.4873 302.677 100.078 302.414 100.735C302.152 101.392 302.348 100.998 302.348 101.129L303.859 101.327C303.973 101.142 304.061 100.944 304.121 100.735C304.318 100.078 304.121 99.4873 303.662 99.4873Z" fill="black"/>
<path d="M306.813 101.721L308.586 102.049C308.72 101.867 308.83 101.668 308.914 101.458C309.242 100.67 308.98 100.013 308.454 99.9471C308.22 99.9423 307.991 100.011 307.798 100.144C307.411 100.631 307.081 101.16 306.813 101.721Z" fill="black"/>
<path d="M307.864 114.596C307.732 114.596 307.601 114.727 307.667 114.858L307.929 116.698H308.455L308.192 114.793C308.126 114.661 307.995 114.53 307.864 114.596Z" fill="black"/>
<path d="M297.358 113.348C299.109 113.721 300.888 113.941 302.677 114.005C302.677 114.005 296.768 121.362 297.358 113.348Z" fill="black"/>
<path d="M307.929 145.864C309.371 145.458 310.743 144.838 312 144.024" stroke="black" stroke-width="0.861558" stroke-miterlimit="10" stroke-linecap="round"/>
<path d="M308.783 141.331C310.922 139.762 312.692 137.744 313.97 135.419C316.175 131.826 317.96 127.991 319.288 123.989C320.142 121.23 319.222 120.048 317.844 119.194C316.465 118.34 316.333 118.143 311.606 118.471C311.278 121.099 307.929 125.894 305.172 129.573C307.732 131.938 308.914 134.368 308.783 141.331Z" fill="white"/>
<path d="M311.081 118.537C303.859 121.296 300.379 122.216 298.869 122.15C297.359 122.084 296.899 121.493 295.652 120.114L296.636 119.982C300.248 119.457 305.106 118.997 308.323 118.734C309.226 118.523 310.157 118.457 311.081 118.537Z" fill="#5865F2"/>
<path opacity="0.6" d="M294.995 155.52C305.237 152.104 310.753 151.644 311.409 158.147C310.95 151.973 310.556 150.068 308.455 147.834C304.318 143.302 290.465 142.316 286.263 144.353C283.111 145.798 281.864 148.097 280.748 151.71C278.45 160.249 284.818 158.936 294.995 155.52Z" fill="#949CFF"/>
<path d="M296.439 142.119C295.944 141.638 295.523 141.084 295.192 140.477" stroke="black" stroke-width="0.861558" stroke-miterlimit="10" stroke-linecap="round"/>
<path d="M308.257 118.734C299.459 121.559 298.54 121.69 296.702 119.982C296.702 119.457 297.227 119.391 297.555 119.26C302.151 117.814 308.257 118.734 308.257 118.734Z" fill="#FFD73B"/>
<path d="M303.136 98.1735C304.121 97.3853 305.631 96.9911 306.156 98.6334C308.914 96.8597 310.555 97.1882 311.015 98.3049" stroke="black" stroke-width="0.861558" stroke-linecap="round" stroke-linejoin="round"/>
<path d="M305.106 129.179C307.231 130.253 308.956 131.98 310.03 134.105" stroke="black" stroke-width="0.861558" stroke-linecap="round" stroke-linejoin="round"/>
<path d="M266.697 136.339C267.19 136.889 267.867 137.24 268.601 137.324" stroke="black" stroke-width="0.902235" stroke-miterlimit="10" stroke-linecap="round"/>
<path d="M266.697 137.324C267.049 137.311 267.394 137.216 267.702 137.044C268.01 136.873 268.273 136.631 268.47 136.339" stroke="black" stroke-width="0.902235" stroke-miterlimit="10" stroke-linecap="round"/>
<path d="M257.768 102.575L259.081 104.545" stroke="black" stroke-width="0.902235" stroke-miterlimit="10" stroke-linecap="round"/>
<path d="M285.869 112.559C283.077 112.884 280.312 113.411 277.596 114.136C277.596 114.267 277.662 114.464 277.662 114.661C280.377 113.918 283.141 113.369 285.934 113.019C286.131 113.019 286.263 112.888 286.197 112.756C286.131 112.625 286.066 112.494 285.869 112.559Z" fill="black"/>
<path d="M285.081 117.486L281.798 117.617C281.882 117.827 281.993 118.025 282.126 118.208L285.081 118.076C285.278 118.076 285.344 117.945 285.344 117.748C285.344 117.679 285.316 117.612 285.267 117.563C285.217 117.514 285.151 117.486 285.081 117.486Z" fill="black"/>
<path d="M285.278 109.275L284.753 109.735H283.768L284.818 108.749C284.88 108.689 284.962 108.656 285.048 108.656C285.134 108.656 285.217 108.689 285.278 108.749C285.409 108.946 285.344 109.144 285.278 109.275Z" fill="black"/>
<path d="M292.172 142.908C289.939 143.63 288.101 146.061 288.101 146.061" stroke="black" stroke-width="0.861558" stroke-miterlimit="10" stroke-linecap="round"/>
<path d="M251.447 94.54C251.684 94.4474 251.768 94.0984 251.636 93.7606C251.503 93.4229 251.205 93.2242 250.968 93.3168C250.732 93.4095 250.648 93.7584 250.78 94.0962C250.912 94.434 251.211 94.6327 251.447 94.54Z" fill="#FF78B9"/>
<path d="M249.915 94.0765C250.152 93.9838 250.236 93.6349 250.104 93.2971C249.971 92.9593 249.673 92.7606 249.436 92.8533C249.2 92.946 249.116 93.2949 249.248 93.6327C249.38 93.9704 249.679 94.1692 249.915 94.0765Z" fill="#FF78B9"/>
<path d="M248.977 94.8786C249.18 94.7992 249.247 94.4884 249.128 94.1844C249.009 93.8804 248.748 93.6983 248.546 93.7778C248.343 93.8572 248.275 94.168 248.395 94.472C248.514 94.776 248.774 94.9581 248.977 94.8786Z" fill="#FF78B9"/>
<path d="M249.495 94.7577C249.232 95.4803 249.232 95.9401 249.626 96.0715C249.883 96.1811 250.164 96.2207 250.441 96.1861C250.717 96.1514 250.98 96.0439 251.202 95.8744C251.661 95.546 251.464 95.2175 251.005 94.8891C250.545 94.5606 249.757 94.0351 249.495 94.7577Z" fill="#FF78B9"/>
<path d="M256.455 113.151C258.183 112.79 259.963 112.746 261.707 113.019L261.904 112.428C259.409 112.165 257.571 112.231 256.323 112.625C255.576 112.741 254.861 113.009 254.222 113.413C253.739 113.71 253.387 114.18 253.238 114.727C253.172 114.858 253.172 114.99 253.106 115.121C253.954 114.089 255.141 113.39 256.455 113.151Z" fill="black"/>
<path d="M257.177 109.603L256.455 109.866C255.93 110.059 255.451 110.357 255.044 110.741C254.638 111.125 254.314 111.587 254.091 112.1L253.96 112.428C254.775 111.279 255.995 110.481 257.374 110.195C259.065 109.753 260.822 109.62 262.561 109.8C262.626 109.603 262.626 109.406 262.692 109.275C260.849 109.049 258.98 109.16 257.177 109.603Z" fill="black"/>
<path d="M256.389 116.304L254.551 116.238" stroke="black" stroke-width="0.902235" stroke-miterlimit="10" stroke-linecap="round"/>
<path d="M273.854 131.018L275.232 133.842" stroke="black" stroke-width="0.902235" stroke-miterlimit="10" stroke-linecap="round"/>
<path d="M287.97 127.471C287.92 127.767 287.782 128.041 287.576 128.259C286 130.427 282.651 127.274 280.944 125.631C278.252 122.938 275.101 122.938 273.656 124.777L273.853 123.464C275.561 121.23 279.763 122.15 282.783 123.726C284.056 124.48 285.371 125.159 286.722 125.763C287.51 126.026 287.97 125.96 287.97 125.303C288.035 126.024 288.035 126.75 287.97 127.471Z" fill="#ED5F00"/>
<path d="M273.459 129.31C273.525 128.259 275.035 127.733 276.02 129.244C277.005 130.755 278.712 133.186 281.01 133.711C281.864 133.908 281.798 133.514 281.01 133.12C280.222 132.726 279.237 131.281 278.318 129.507C277.399 127.733 276.48 126.354 275.101 126.617C274.696 126.699 274.325 126.898 274.033 127.19C273.741 127.482 273.542 127.854 273.459 128.259V129.31Z" fill="#ED5F00"/>
<path d="M279.04 139.754C279.697 138.112 278.909 137.258 278.318 136.339C277.727 135.419 279.5 135.616 280.616 137.193C280.178 138.097 279.65 138.956 279.04 139.754Z" fill="#ED5F00"/>
<path d="M268.732 124.975C267.861 124.616 267.026 124.176 266.237 123.661C265.712 123.661 265.45 123.989 265.581 124.449C265.712 124.909 264.399 124.515 264.793 125.566C265.081 126.295 265.505 126.964 266.04 127.536C266.315 127.828 266.654 128.051 267.03 128.188C267.406 128.325 267.81 128.372 268.207 128.325C269.061 128.193 269.126 127.405 269.126 126.945C269.117 126.27 268.983 125.602 268.732 124.975Z" fill="white"/>
<path d="M268.276 125.759C268.446 125.623 268.418 125.306 268.214 125.052C268.01 124.797 267.707 124.701 267.538 124.837C267.368 124.973 267.396 125.29 267.599 125.544C267.803 125.799 268.106 125.895 268.276 125.759Z" fill="#FF78B9"/>
<path d="M266.744 125.294C266.914 125.158 266.886 124.841 266.682 124.586C266.479 124.332 266.176 124.236 266.006 124.372C265.836 124.508 265.864 124.824 266.068 125.079C266.272 125.333 266.575 125.43 266.744 125.294Z" fill="#FF78B9"/>
<path d="M265.832 125.946C266.002 125.81 265.992 125.516 265.811 125.29C265.63 125.064 265.345 124.99 265.176 125.127C265.006 125.263 265.015 125.556 265.197 125.783C265.378 126.009 265.662 126.082 265.832 125.946Z" fill="#FF78B9"/>
<path d="M266.303 125.828C266.106 126.485 266.172 126.814 266.565 127.011C266.827 127.089 267.103 127.112 267.374 127.078C267.645 127.044 267.907 126.954 268.141 126.814C268.535 126.485 268.273 126.288 267.747 125.96C267.222 125.631 266.5 125.237 266.303 125.828Z" fill="#FF78B9"/>
<path d="M256.651 128.85C255.47 128.456 254.485 128.85 253.5 129.507C252.515 130.164 249.889 129.573 249.101 127.865C248.907 127.267 248.775 126.651 248.707 126.026C248.97 127.405 250.742 127.996 253.106 126.814L254.157 126.42C254.805 126.175 255.502 126.085 256.192 126.157C256.281 127.064 256.435 127.964 256.651 128.85Z" fill="#ED5F00"/>
<path d="M249.364 121.165C250.283 119.654 252.975 120.836 254.616 121.296C256.258 121.756 255.47 120.442 253.631 119.063C251.727 118.997 250.217 119.588 249.364 121.165Z" fill="#ED5F00"/>
<path d="M251.727 133.974C252.055 134.696 253.172 134.762 254.813 134.499C255.614 134.346 256.439 134.367 257.232 134.559C258.025 134.752 258.767 135.112 259.409 135.616C260.262 136.339 259.606 136.47 258.293 136.076C256.98 135.682 255.01 137.127 253.04 136.667L251.727 133.974Z" fill="#ED5F00"/>
<path d="M252.384 143.302C252.336 142.662 252.057 142.061 251.597 141.613C251.137 141.165 250.53 140.902 249.889 140.871C248.904 140.805 248.838 140.477 249.889 140.346C250.939 140.214 255.47 139.952 254.288 142.513C253.678 142.832 253.041 143.096 252.384 143.302Z" fill="#ED5F00"/>
<path d="M272.54 145.404C272.954 144.387 273.262 143.331 273.46 142.251C270.768 142.842 267.813 142.251 267.813 141.2C267.714 141.882 267.515 142.546 267.222 143.17C267.813 144.55 269.98 144.878 272.54 145.404Z" fill="#ED5F00"/>
<path d="M264.465 145.798L261.904 147.506C264.005 147.966 265.121 149.673 265.253 152.235C265.975 151.644 266.828 151.119 267.616 150.593L267.944 150.396C267.711 149.432 267.282 148.526 266.683 147.735C266.084 146.943 265.329 146.284 264.465 145.798Z" fill="#ED5F00"/>
<path d="M258.753 150.265C258.259 150.736 257.799 151.241 257.374 151.776C258.44 151.882 259.433 152.362 260.178 153.132C260.924 153.902 261.372 154.911 261.444 155.98C261.898 155.308 262.426 154.691 263.02 154.14C262.626 150.856 259.212 149.739 258.753 150.265Z" fill="#ED5F00"/>
<path d="M259.869 159.527C259.081 157.031 254.485 156.636 254.091 159.133C253.88 160.502 253.836 161.891 253.96 163.271C254.01 163.986 254.329 164.654 254.853 165.142C255.377 165.63 256.067 165.9 256.783 165.899H257.046C257.801 165.832 258.499 165.47 258.99 164.893C259.482 164.315 259.726 163.568 259.672 162.811C259.6 161.712 259.666 160.609 259.869 159.527Z" fill="#FFF2A6"/>
<path d="M285.934 80.5033L285.343 85.4299L288.035 87.9918L288.56 83.5906L285.934 80.5033Z" fill="white"/>
<path d="M262.364 85.6927C262.726 85.6927 263.02 85.3986 263.02 85.0358C263.02 84.673 262.726 84.3789 262.364 84.3789C262.001 84.3789 261.707 84.673 261.707 85.0358C261.707 85.3986 262.001 85.6927 262.364 85.6927Z" fill="white"/>
<path d="M272.146 86.6123C272.509 86.6123 272.803 86.3182 272.803 85.9554C272.803 85.5926 272.509 85.2985 272.146 85.2985C271.784 85.2985 271.49 85.5926 271.49 85.9554C271.49 86.3182 271.784 86.6123 272.146 86.6123Z" fill="white"/>
<path d="M272.344 107.041C273.263 105.793 276.808 105.596 278.056 106.319C279.303 107.041 278.712 106.188 278.187 105.728C277.662 105.268 275.101 103.363 273.066 106.056L272.344 107.041Z" fill="#ED5F00"/>
<path d="M278.646 101.983C280.354 102.049 281.141 103.297 281.601 104.217C282.061 105.137 282.258 103.954 281.798 102.706C280.779 102.345 279.721 102.102 278.646 101.983Z" fill="#ED5F00"/>
<path d="M254.551 106.056C252.515 106.188 251.268 106.188 250.874 105.137C251.247 106.181 251.708 107.192 252.253 108.158C255.601 107.239 256.652 105.99 254.551 106.056Z" fill="#ED5F00"/>
<path d="M240.172 177H239.646C239.485 174.693 239.111 172.406 238.53 170.168C238.202 169.052 237.874 167.804 237.414 166.555L236.823 164.979C233.606 155.914 232.621 151.316 236.823 143.433L237.348 142.579L236.823 142.054C232.949 137.915 234.657 134.499 236.035 131.806C236.298 131.215 236.626 130.689 236.823 130.098C237.099 129.522 237.255 128.897 237.283 128.259C237.283 128.189 237.31 128.122 237.36 128.073C237.409 128.024 237.476 127.996 237.545 127.996C237.615 127.996 237.682 128.024 237.731 128.073C237.78 128.122 237.808 128.189 237.808 128.259C237.725 129.413 237.388 130.534 236.823 131.543L236.561 132.135C235.247 134.696 233.803 137.652 236.823 141.265L237.874 142.382L238.005 142.513V142.71L236.889 144.747C233.606 151.316 234.197 155.454 236.889 163.271L238.005 166.49L238.596 168.198C239.483 171.055 240.013 174.012 240.172 177Z" fill="black"/>
<path d="M238.53 128.982V177H236.823V128.982C236.822 128.83 236.865 128.681 236.946 128.552C237.028 128.424 237.145 128.322 237.283 128.259H237.808C237.99 128.285 238.159 128.37 238.289 128.5C238.419 128.63 238.504 128.799 238.53 128.982Z" fill="black"/>
<path d="M242.732 130.755L237.677 128.982L233.015 130.755L233.54 124.58L233.015 118.34L237.545 120.114L242.732 118.34L241.55 124.58L242.732 130.755Z" stroke="black" stroke-width="0.861558" stroke-miterlimit="10" stroke-linecap="round"/>
<path d="M237.874 132.792C241.971 132.792 245.293 129.115 245.293 124.58C245.293 120.046 241.971 116.369 237.874 116.369C233.776 116.369 230.455 120.046 230.455 124.58C230.455 129.115 233.776 132.792 237.874 132.792Z" stroke="#2C2770" stroke-width="1.72312" stroke-miterlimit="10"/>
<path d="M237.546 129.047C239.758 129.047 241.551 127.047 241.551 124.58C241.551 122.113 239.758 120.114 237.546 120.114C235.334 120.114 233.541 122.113 233.541 124.58C233.541 127.047 235.334 129.047 237.546 129.047Z" fill="white"/>
<path d="M154 178H-32C-30.4581 154.305 -19.9893 132.085 -2.71801 115.851C14.5533 99.6163 37.3335 90.5824 61 90.5824C84.6665 90.5824 107.447 99.6163 124.718 115.851C141.989 132.085 152.458 154.305 154 178Z" fill="#FFE75C"/>
<path d="M55.0597 127.47C53.7396 131.311 51.4294 138.662 51.4294 138.662H61.8581C64.1683 130.384 64.8283 126.742 64.8283 126.742L55.0597 127.47Z" fill="#FF78B9"/>
<path d="M80.0093 138.464C80.6971 137.775 81.5017 137.214 82.3854 136.808L79.1512 136.212C77.4351 135.947 77.0391 135.616 76.313 134.954C71.1647 130.649 67.6005 131.974 57.9638 134.026C49.1853 131.775 42.7169 129.788 39.6147 131.179C36.5125 132.57 37.8326 138.795 39.6147 145.881C41.3968 152.967 43.1789 159.523 43.1789 159.523H74.9929C75.389 155.682 74.6629 148.861 73.9369 144.093L77.5011 144.954C77.5011 142.57 77.9631 140.384 80.0093 138.464Z" fill="#3442D9"/>
<path d="M45.687 131.046C48.9872 131.709 50.3733 135.351 51.4294 138.662C52.4855 141.974 55.9177 144.689 61.066 143.364C66.2143 142.04 71.1647 138.927 66.6104 132.305C64.3002 132.57 61.594 133.232 57.9638 134.027C53.0795 132.768 48.9212 131.576 45.687 131.046Z" fill="white"/>
<path d="M57.8977 142.768L57.7657 144.49C57.7326 144.96 57.8037 145.43 57.9741 145.869C58.1444 146.307 58.4096 146.703 58.7506 147.026C59.0917 147.349 59.4999 147.592 59.946 147.738C60.392 147.883 60.8647 147.928 61.33 147.868C61.7815 147.788 62.2103 147.61 62.5868 147.348C62.9634 147.085 63.2786 146.744 63.5108 146.347C63.743 145.95 63.8866 145.508 63.9317 145.05C63.9768 144.592 63.9224 144.13 63.7721 143.695L63.1781 142.04L57.8977 142.768Z" fill="white"/>
<path d="M151.162 160.781H34.5324C34.3652 160.772 34.1979 160.798 34.0414 160.858C33.8849 160.917 33.7428 161.01 33.6243 161.129C33.5059 161.247 33.4139 161.39 33.3543 161.547C33.2946 161.704 33.2687 161.872 33.2783 162.04C33.2783 162.205 33.3108 162.369 33.3738 162.521C33.4368 162.674 33.5292 162.813 33.6456 162.929C33.7621 163.046 33.9003 163.139 34.0525 163.202C34.2046 163.265 34.3677 163.298 34.5324 163.298H151.822C151.624 162.437 151.426 161.642 151.162 160.781Z" fill="#FFC619"/>
<path d="M52.4853 137.404C54.9275 142.371 59.6798 143.166 64.1021 140.517C68.5244 137.868 66.2142 133.166 65.8182 132.371C63.7061 132.768 61.1979 132.967 57.9637 133.629C53.8714 132.57 50.2412 131.973 47.271 131.377C48.7231 131.709 50.3072 132.967 52.4853 137.404Z" fill="#FF78B9"/>
<path d="M42.3208 160.384C43.7729 168.861 44.829 174.159 47.9312 175.086C51.0334 176.013 54.7956 174.225 59.2179 170.715C66.3463 165.02 69.9766 163.828 73.2108 163.894L42.3208 160.384Z" fill="black"/>
<path d="M39.9445 131.046C36.5123 132.172 34.6641 135.616 37.1063 141.179C37.5023 141.974 37.6343 142.305 37.7663 144.556C37.8983 146.808 38.3604 153.762 41.7266 164.954C42.5186 167.801 43.8387 167.272 48.063 166.874C52.2873 166.477 71.5605 163.298 71.5605 163.298V157.073L49.5151 156.742C48.129 148.132 46.9409 140.781 46.1489 137.073C45.3568 133.364 43.7727 129.854 39.9445 131.046Z" fill="#FF78B9"/>
<path d="M46.8752 137.073C46.0832 133.43 43.773 129.854 39.9448 131.046C36.1165 132.238 34.6644 135.616 37.1066 141.179C37.5026 141.973 37.6346 142.305 37.7666 144.556C37.9352 147.559 38.3102 150.546 38.8887 153.497C38.9531 152.11 39.3845 150.765 40.1386 149.602C40.8926 148.438 41.9421 147.496 43.179 146.874L47.5353 144.755C48.5913 144.225 47.2713 138.861 46.8752 137.073Z" fill="#3442D9"/>
<path d="M73.739 140.649C73.607 140.715 73.475 140.848 73.541 140.98L74.003 144.093L74.531 144.225L74.069 140.914C74.039 140.847 73.9934 140.787 73.936 140.741C73.8786 140.695 73.811 140.664 73.739 140.649Z" fill="black"/>
<path d="M59.2839 140.715V144.556C59.2905 144.81 59.3506 145.059 59.4603 145.287C59.57 145.515 59.7268 145.717 59.9202 145.88C60.1137 146.043 60.3394 146.162 60.5825 146.231C60.8255 146.3 61.0804 146.316 61.3301 146.278C61.5793 146.243 61.8177 146.153 62.0283 146.014C62.2389 145.876 62.4167 145.693 62.549 145.478C62.6812 145.263 62.7648 145.022 62.7937 144.771C62.8226 144.52 62.7961 144.266 62.7162 144.026L61.4621 140.053L59.2839 140.715Z" fill="#FF78B9"/>
<path d="M49.1192 156.676C47.9311 157.205 46.083 158.066 44.9609 159.788" stroke="black" stroke-width="0.938578" stroke-miterlimit="10" stroke-linecap="round"/>
<path d="M49.1194 154.49L46.6772 139.325C49.1194 141.444 50.3735 141.179 49.1194 154.49Z" fill="black"/>
<path d="M64.8282 126.742L57.3037 127.272L57.7657 128L62.7161 135.351C64.3662 129.391 64.8282 126.742 64.8282 126.742Z" fill="black"/>
<path d="M47.4272 105.442C50.2556 104.73 52.0517 102.168 51.4389 99.7199C50.8262 97.2722 48.0366 95.8659 45.2082 96.5787C42.3798 97.2915 40.5837 99.8536 41.1964 102.301C41.8092 104.749 44.5988 106.155 47.4272 105.442Z" fill="black"/>
<path d="M41.3308 122.636C42.0568 116.742 44.895 107.669 47.0071 102.768C51.6274 92.1722 53.8716 88.596 56.8418 88.596C59.812 88.596 62.6501 92.6358 66.8744 98.2649C71.0987 103.894 76.049 112.172 78.4252 118.927C79.8773 122.967 78.4252 124.424 75.917 125.219C73.4088 126.013 66.6764 127.47 59.5479 128.331C54.0518 128.993 48.5101 129.193 42.9809 128.927C40.8027 128.795 40.7367 126.675 41.3308 122.636Z" fill="#FF78B9"/>
<path d="M60.0759 108L61.726 106.742" stroke="black" stroke-width="0.938578" stroke-miterlimit="10" stroke-linecap="round"/>
<path d="M59.5479 107.868L60.0099 105.881" stroke="black" stroke-width="0.938578" stroke-miterlimit="10" stroke-linecap="round"/>
<path d="M50.0432 100.98C50.1092 100.649 49.8452 100.384 49.4492 100.318C49.3712 100.318 49.2939 100.333 49.2219 100.363C49.1498 100.393 49.0843 100.437 49.0292 100.492C48.974 100.548 48.9302 100.614 48.9004 100.686C48.8705 100.758 48.8552 100.836 48.8552 100.914C48.6572 104.755 47.4691 107.073 44.7629 108.728C44.5649 109.258 44.4329 109.854 44.2349 110.384C48.1291 108.53 49.8452 105.748 50.0432 100.98Z" fill="black"/>
<path d="M52.8814 100.583C52.8822 100.418 52.8218 100.259 52.712 100.136C52.6021 100.014 52.4507 99.937 52.2874 99.9205C52.1271 99.9326 51.9754 99.9976 51.8559 100.105C51.7365 100.213 51.6561 100.358 51.6273 100.517C51.3633 105.947 49.1852 108.993 43.9708 111.179C43.8471 111.695 43.6928 112.204 43.5088 112.702C49.8452 110.318 52.5514 106.808 52.8814 100.583Z" fill="black"/>
<path d="M69.9106 107.47C72.3528 108.066 73.2109 106.808 73.2109 106.808" stroke="black" stroke-width="0.938578" stroke-miterlimit="10" stroke-linecap="round"/>
<path d="M65.9504 98.0662C69.1218 98.0662 71.6927 95.4867 71.6927 92.3047C71.6927 89.1226 69.1218 86.5431 65.9504 86.5431C62.779 86.5431 60.208 89.1226 60.208 92.3047C60.208 95.4867 62.779 98.0662 65.9504 98.0662Z" fill="black"/>
<path d="M58.8879 92.1722C62.7884 92.1722 65.9504 88.9996 65.9504 85.0861C65.9504 81.1726 62.7884 78 58.8879 78C54.9874 78 51.8254 81.1726 51.8254 85.0861C51.8254 88.9996 54.9874 92.1722 58.8879 92.1722Z" fill="black"/>
<path d="M49.6474 97.6026C53.2198 97.6026 56.1158 94.6969 56.1158 91.1126C56.1158 87.5282 53.2198 84.6225 49.6474 84.6225C46.075 84.6225 43.179 87.5282 43.179 91.1126C43.179 94.6969 46.075 97.6026 49.6474 97.6026Z" fill="black"/>
<path d="M47.601 102.57L54.3994 98.4636L65.9502 97.0066V89.8543L55.3895 86.9404L49.1851 91.9073L46.3469 101.576L47.601 102.57Z" fill="black"/>
<path d="M67.6004 92.3046C67.0063 93.894 66.1483 95.8145 63.8381 96.6755" stroke="#0E156E" stroke-width="0.938578" stroke-miterlimit="10" stroke-linecap="round"/>
<path d="M60.2738 85.6159C62.0559 88.596 61.8579 93.6291 58.1616 97.6026" stroke="#0E156E" stroke-width="0.938578" stroke-miterlimit="10" stroke-linecap="round"/>
<path d="M100.075 147.007C99.6787 147.47 98.8866 147.47 96.8405 147.272C95.4167 147.105 93.9814 147.061 92.5502 147.139C89.58 147.338 84.2337 146.477 77.5012 144.954C77.5012 142.57 77.9633 140.384 80.0094 138.464C80.6972 137.775 81.5018 137.214 82.3855 136.808L87.6659 137.735C87.6659 137.735 86.5438 127.669 85.1577 114.755L89.91 112.967C93.1442 120.98 97.7645 133.43 99.2166 139.656C100.669 145.881 100.537 146.477 100.075 147.007Z" fill="#FF78B9"/>
<path d="M90.2397 113.695C90.1077 113.364 90.2397 113.099 90.7017 112.503C91.239 111.912 91.684 111.242 92.0218 110.517C92.2858 109.987 92.2858 109.391 92.2858 107.603C92.2858 105.815 92.2198 104.689 91.6918 103.96C91.1637 103.232 88.9856 101.444 87.9955 100.583C87.0055 99.7219 84.1673 97.6689 82.5832 96.6093C80.9991 95.5497 79.943 95.351 78.953 96.1457C77.9629 96.9404 77.8969 98.1325 77.5009 100.781C77.3029 101.841 77.3029 101.709 76.0488 103.033C74.7947 104.358 75.1907 104.623 75.5868 105.02C75.9828 105.417 77.3689 105.417 78.4909 104.358C79.0962 103.838 79.5896 103.2 79.9414 102.483C80.2931 101.765 80.4958 100.984 80.5371 100.185L81.6591 100.914C81.1677 102.157 80.7921 103.443 80.5371 104.755C80.4711 105.417 80.6031 106.146 81.3291 107.404C79.811 106.477 78.4909 105.285 77.1709 105.815C75.8508 106.344 75.9168 107.868 76.9068 108.662C77.8969 109.457 79.547 110.781 79.943 111.179C80.3391 111.576 80.4711 111.974 80.7351 112.967C80.9991 113.96 81.1971 115.483 83.8373 115.616C84.4973 115.682 85.2894 115.483 85.3554 116.013L85.4874 117.338L90.7017 114.954L90.2397 113.695Z" fill="#FF78B9"/>
<path d="M71.5605 115.086C69.7124 115.417 68.9863 113.629 68.5903 111.709C68.1943 109.788 67.7323 106.344 68.3263 105.815C68.9203 105.285 69.7124 105.947 70.7684 108C71.8245 110.053 74.2667 114.689 71.5605 115.086Z" fill="white"/>
<path d="M59.2179 116.94C61.6601 117.272 63.1121 115.152 63.0461 113.232C62.8185 111.267 62.0404 109.407 60.802 107.868C59.8779 106.874 57.8978 106.808 56.8418 109.391C55.7857 111.974 54.5976 116.344 59.2179 116.94Z" fill="white"/>
<path d="M64.7622 121.377C64.5929 121.024 64.5106 120.635 64.5221 120.244C64.5335 119.852 64.6385 119.468 64.8282 119.126C65.6203 117.669 66.7423 116.874 68.0624 116.94C69.3825 117.007 70.2406 118 69.3825 119.987C71.0326 121.576 70.2406 122.901 68.5905 123.298C66.9404 123.695 65.6863 123.43 64.7622 121.377Z" fill="#EB459F"/>
<path d="M45.1591 107.603C46.4132 104.225 49.8454 102.172 53.1456 100.583C56.4458 98.9934 65.6864 96.3444 68.1946 100.053C68.5246 99.8543 68.3926 99.5894 68.1946 99.0596C67.8226 98.3903 67.4036 97.7485 66.9405 97.1391C64.6963 94.3576 56.6438 95.5497 52.3535 98C48.0633 100.45 46.7432 102.503 45.9511 104.424C45.1591 106.344 44.631 107.205 45.1591 107.603Z" fill="#312CC7"/>
<path d="M68.3263 118.795C68.1504 119.183 67.8739 119.517 67.5257 119.762C67.1774 120.006 66.7701 120.153 66.3462 120.185" stroke="black" stroke-width="0.938578" stroke-miterlimit="10" stroke-linecap="round"/>
<path d="M68.2606 120.583L67.6006 119.722" stroke="black" stroke-width="0.938578" stroke-miterlimit="10" stroke-linecap="round"/>
<path d="M87.4019 137.934L87.6652 140.848" stroke="black" stroke-width="0.938578" stroke-miterlimit="10" stroke-linecap="round"/>
<path d="M84.9596 109.854H87.7978C88.1035 109.849 88.3987 109.741 88.6374 109.55C88.8762 109.358 89.0451 109.093 89.1178 108.795L89.5139 107.47C89.5799 107.338 89.5139 107.139 89.3819 107.139C89.3507 107.107 89.3098 107.087 89.2657 107.082C89.2217 107.076 89.1771 107.085 89.139 107.108C89.1009 107.131 89.0716 107.166 89.0558 107.208C89.04 107.25 89.0386 107.295 89.0518 107.338L88.5898 108.662C88.5583 108.849 88.4612 109.019 88.3159 109.14C88.1706 109.262 87.9868 109.327 87.7978 109.325H84.9596C82.6494 109.325 82.5174 109.192 81.3293 107.404L80.2073 106.676L80.8013 107.536C82.1874 109.589 82.4514 109.854 84.9596 109.854Z" fill="black"/>
<path d="M85.9496 109.854H87.0056C87.0756 109.854 87.1428 109.826 87.1923 109.777C87.2418 109.727 87.2696 109.66 87.2696 109.589C87.2696 109.519 87.2418 109.452 87.1923 109.402C87.1428 109.352 87.0756 109.324 87.0056 109.324H85.9496C85.6964 109.32 85.4498 109.243 85.2392 109.102C85.0285 108.961 84.8627 108.763 84.7615 108.53L84.1014 107.139C83.7908 106.499 83.7434 105.761 83.9694 105.086C84.5635 103.497 85.4215 101.245 85.5535 100.715C85.6855 100.185 86.0156 99.8543 86.3456 99.788C86.7185 99.7356 87.0972 99.8306 87.4016 100.053L86.8076 99.6556C86.7024 99.5582 86.5762 99.4867 86.4388 99.4467C86.3013 99.4067 86.1565 99.3992 86.0158 99.4249C85.875 99.4506 85.7421 99.5087 85.6275 99.5947C85.5129 99.6807 85.4198 99.7922 85.3555 99.9205C85.2428 100.107 85.1541 100.307 85.0915 100.517L83.5074 104.954C83.3505 105.347 83.281 105.77 83.3038 106.193C83.3266 106.617 83.4411 107.03 83.6394 107.404L84.2995 108.795C84.4413 109.114 84.6731 109.384 84.9664 109.572C85.2596 109.761 85.6014 109.859 85.9496 109.854Z" fill="black"/>
<path d="M87.5337 106.742L90.5039 107.536" stroke="black" stroke-width="0.938578" stroke-miterlimit="10" stroke-linecap="round"/>
<path d="M84.8275 98.1987C84.2115 97.8013 83.7494 97.6689 83.4414 97.8013C82.7814 98.0662 82.2533 99.1258 81.6593 100.914L81.1973 100.583C81.8573 98.6622 82.3193 97.6026 83.1774 97.3377C83.2634 97.3009 83.3576 97.2876 83.4503 97.2992C83.5431 97.3109 83.6312 97.347 83.7054 97.404L84.8275 98.1987Z" fill="black"/>
<path d="M85.7515 115.351L87.5336 115.417" stroke="black" stroke-width="0.938578" stroke-miterlimit="10" stroke-linecap="round"/>
<path d="M110.701 136.212C110.437 136.808 107.929 136.477 107.599 137.139C107.269 137.801 109.315 139.391 109.051 140.053C108.787 140.715 106.213 140.318 105.949 140.98C105.685 141.642 107.599 143.298 107.269 143.894C106.939 144.49 104.497 144.026 104.167 144.622C103.837 145.219 105.553 147.139 105.223 147.735C104.893 148.331 102.385 147.404 101.989 147.934C101.593 148.464 102.517 150.848 101.989 151.179C101.461 151.51 100.207 149.391 99.5465 149.324C98.8865 149.258 97.3024 151.113 96.7083 150.583C96.1143 150.053 97.5004 148 97.0383 147.338C96.5763 146.675 94.2662 147.868 93.7381 147.47C93.2101 147.073 93.2101 144.424 92.484 144.358C91.758 144.291 91.296 146.742 90.5699 147.073C89.8439 147.404 87.9958 145.616 87.3357 146.146C86.6757 146.675 87.7977 148.927 87.2037 149.523C86.6097 150.119 84.3655 148.927 83.8375 149.523C83.3095 150.119 84.8276 152.305 84.3655 152.901C83.9035 153.497 81.4613 152.702 80.9993 153.364C80.5373 154.026 82.1874 156.013 81.7254 156.675C81.2633 157.338 78.8212 156.543 78.4252 157.271C78.0291 158 79.6792 159.854 79.2832 160.517" stroke="white" stroke-width="2.34644" stroke-miterlimit="10" stroke-linecap="round"/>
<path d="M69.8446 157.007C71.4335 156.883 72.9286 156.203 74.0688 155.086C75.9121 153.353 77.4124 151.285 78.4911 148.993C78.5975 148.786 78.748 148.605 78.932 148.463C79.1159 148.321 79.3288 148.221 79.5555 148.17C79.7822 148.12 80.0173 148.12 80.2439 148.17C80.4706 148.221 80.6834 148.321 80.8673 148.464C81.3953 148.927 81.5273 149.722 79.5472 154.556C82.5834 155.815 82.7814 156.079 84.4975 158C85.3556 158.927 85.0255 159.523 84.2995 160.45C84.0519 160.789 83.7214 161.059 83.34 161.233C82.9585 161.407 82.5388 161.48 82.1213 161.444C81.1313 164.026 80.2072 166.278 79.2172 167.603C78.2271 168.927 77.9631 169.06 77.039 169.06C74.8609 169.06 74.1348 168.662 74.0028 167.205C71.8247 166.808 70.9666 166.146 70.6366 165.086L70.3066 164.093C70.2911 164.013 70.2597 163.938 70.2143 163.872C70.1689 163.805 70.1105 163.748 70.0426 163.705C69.9747 163.661 69.8987 163.632 69.8193 163.619C69.7399 163.606 69.6586 163.61 69.5805 163.629L67.7324 163.894L69.8446 157.007Z" fill="#FF78B9"/>
<path d="M117.794 132.609C121.239 125.06 121.506 117.78 118.39 116.349C115.274 114.918 109.956 119.877 106.512 127.426C103.067 134.975 102.8 142.255 105.916 143.686C109.031 145.117 114.349 140.158 117.794 132.609Z" fill="#3895F2"/>
<path d="M114.331 121.377L115.652 120.185L112.615 118.331C112.055 118.851 111.526 119.404 111.031 119.987L114.331 121.377Z" fill="white"/>
<path d="M120.206 118.993C120.155 118.719 120.038 118.461 119.866 118.242C119.693 118.022 119.47 117.849 119.216 117.735C116.312 116.477 111.361 121.179 108.259 128.199C105.157 135.219 104.893 141.841 107.797 143.099L108.127 143.232C108.62 143.336 109.133 143.266 109.579 143.033C112.351 141.377 115.52 137.404 117.764 132.305C120.008 127.205 120.998 122.04 120.206 118.993Z" fill="#8CD9FF"/>
<path d="M62.2867 114.214C62.5093 113.065 62.1386 112.026 61.4587 111.893C60.7788 111.761 60.0472 112.585 59.8246 113.734C59.6021 114.882 59.9728 115.921 60.6527 116.054C61.3326 116.187 62.0641 115.363 62.2867 114.214Z" fill="black"/>
<path d="M71.9198 114.353C72.4441 114.197 72.6425 113.303 72.363 112.356C72.0834 111.41 71.4318 110.768 70.9075 110.924C70.3833 111.08 70.1849 111.974 70.4644 112.921C70.7439 113.868 71.3956 114.509 71.9198 114.353Z" fill="black"/>
<path d="M68.3264 105.815C68.0624 106.079 67.9964 106.94 68.0624 108C68.745 107.564 69.5083 107.271 70.3065 107.139C69.5145 105.815 68.8544 105.417 68.3264 105.815Z" fill="#D11583"/>
<path d="M72.8806 105.219C72.8301 105.827 72.5486 106.394 72.0942 106.8C71.6397 107.207 71.047 107.423 70.4384 107.404H70.3064C69.495 107.484 68.72 107.782 68.0623 108.265V107.669C68.696 107.244 69.4188 106.972 70.1744 106.874H70.2404C71.2305 106.808 72.1545 106.543 72.3525 105.152C72.3393 105.11 72.3407 105.064 72.3565 105.022C72.3723 104.981 72.4016 104.946 72.4397 104.923C72.4778 104.9 72.5224 104.89 72.5664 104.896C72.6105 104.902 72.6514 104.922 72.6826 104.954C72.8146 104.954 72.8806 105.086 72.8806 105.219Z" fill="black"/>
<path d="M70.1086 107.139C70.9007 106.411 70.8347 105.815 70.7027 104.954" stroke="black" stroke-width="0.938578" stroke-miterlimit="10" stroke-linecap="round"/>
<path d="M74.9928 105.483H71.7585" stroke="black" stroke-width="3.75431" stroke-miterlimit="10" stroke-linecap="round"/>
<path d="M80.6694 106.013H75.455C75.3199 105.999 75.1938 105.938 75.0977 105.842C75.0016 105.746 74.9413 105.619 74.927 105.483C74.927 105.343 74.9826 105.208 75.0817 105.109C75.1807 105.009 75.315 104.954 75.455 104.954H80.5374C80.4934 105.312 80.5387 105.676 80.6694 106.013Z" fill="white"/>
<path d="M61.1979 108.265L60.8019 107.868C60.0098 106.94 58.2937 106.808 57.1716 108.728L61.1979 108.265Z" fill="#D11583"/>
<path d="M74.5308 165.947C73.8946 167.029 73.189 168.069 72.4187 169.06" stroke="black" stroke-width="2.81573" stroke-miterlimit="10" stroke-linecap="round"/>
<path d="M72.4186 170.649C73.2206 170.649 73.8707 169.997 73.8707 169.192C73.8707 168.387 73.2206 167.735 72.4186 167.735C71.6167 167.735 70.9666 168.387 70.9666 169.192C70.9666 169.997 71.6167 170.649 72.4186 170.649Z" fill="#57F287"/>
<path d="M80.1412 166.079C80.2655 165.833 80.2892 165.548 80.2072 165.285C80.0801 164.963 79.9255 164.653 79.7452 164.358V164.159L78.7552 162.437C78.7114 162.376 78.6451 162.334 78.5708 162.322C78.4965 162.309 78.4204 162.327 78.3591 162.371C78.2979 162.415 78.2565 162.481 78.2441 162.556C78.2317 162.63 78.2494 162.707 78.2931 162.768C78.6383 163.298 78.9471 163.852 79.2172 164.424L79.3492 164.623C79.8772 165.616 80.2072 166.212 79.3492 167.536C79.6555 167.075 79.9205 166.588 80.1412 166.079Z" fill="black"/>
<path d="M82.1214 161.444H82.7154C82.7807 161.094 82.7672 160.734 82.6758 160.39C82.5844 160.047 82.4175 159.728 82.1874 159.457L81.9233 158.993L80.9993 157.338C80.9796 157.305 80.9531 157.277 80.9215 157.255C80.89 157.234 80.8541 157.219 80.8165 157.213C80.7788 157.207 80.7403 157.209 80.7035 157.219C80.6667 157.229 80.6325 157.247 80.6033 157.272C80.4712 157.338 80.4712 157.47 80.5373 157.603L81.4613 159.258L81.7253 159.722C81.9343 159.95 82.0807 160.228 82.1502 160.53C82.2196 160.832 82.2096 161.147 82.1214 161.444Z" fill="black"/>
<path d="M82.2532 160.053H83.4412" stroke="black" stroke-width="0.938578" stroke-miterlimit="10" stroke-linecap="round"/>
<path d="M74.9927 165.682C75.4121 166.519 75.9959 167.263 76.7088 167.868" stroke="black" stroke-width="0.938578" stroke-miterlimit="10" stroke-linecap="round"/>
<path d="M128.324 140.715C127.805 140.702 127.294 140.847 126.858 141.13C126.422 141.414 126.082 141.823 125.882 142.305L118.094 159.457H116.642L124.43 142.305C124.63 141.823 124.97 141.414 125.406 141.13C125.842 140.847 126.353 140.702 126.872 140.715H128.324Z" fill="black"/>
<path d="M103.507 158.596H137.433V160.781H105.025C104.826 160.781 104.628 160.742 104.444 160.666C104.26 160.589 104.092 160.477 103.951 160.335C103.811 160.194 103.699 160.026 103.622 159.841C103.546 159.656 103.507 159.458 103.507 159.258V158.596Z" fill="white"/>
<path d="M152.284 140.715H128.324C127.805 140.702 127.294 140.847 126.858 141.13C126.422 141.414 126.082 141.823 125.882 142.305L117.5 160.781H143.175C143.701 160.782 144.215 160.633 144.659 160.352C145.103 160.07 145.458 159.668 145.684 159.192L153.274 142.238C153.354 142.074 153.39 141.891 153.379 141.708C153.367 141.525 153.309 141.349 153.209 141.195C153.11 141.042 152.972 140.917 152.81 140.833C152.648 140.749 152.466 140.708 152.284 140.715Z" fill="white"/>
<path d="M136.679 152.32C137.724 151.408 138.009 150.02 137.316 149.219C136.622 148.419 135.213 148.509 134.167 149.421C133.122 150.333 132.836 151.721 133.53 152.521C134.224 153.322 135.633 153.232 136.679 152.32Z" fill="#FFD73B"/>
<path d="M145.023 134.556H134.925C133.794 134.556 132.878 135.475 132.878 136.609V136.629C132.878 137.763 133.794 138.682 134.925 138.682H145.023C146.153 138.682 147.069 137.763 147.069 136.629V136.609C147.069 135.475 146.153 134.556 145.023 134.556Z" fill="#2B2854"/>
<path d="M141.657 140.715H136.641L136.905 136.94H140.337L141.657 140.715Z" fill="#2B2854"/>
<path d="M145.023 134.556H137.433C136.303 134.556 135.387 135.475 135.387 136.609V136.629C135.387 137.763 136.303 138.682 137.433 138.682H145.023C146.153 138.682 147.069 137.763 147.069 136.629V136.609C147.069 135.475 146.153 134.556 145.023 134.556Z" fill="black"/>
<path d="M144.231 140.715H139.215L137.895 136.94H142.911L144.231 140.715Z" fill="black"/>
<path opacity="0.3" d="M55.0499 121.912C55.6642 121.395 55.4784 120.158 54.6349 119.149C53.7914 118.14 52.6095 117.742 51.9952 118.259C51.3808 118.776 51.5666 120.013 52.4102 121.022C53.2537 122.031 54.4356 122.429 55.0499 121.912Z" fill="#FF0077"/>
<path opacity="0.3" d="M75.8511 112.901C75.3891 113.166 75.0591 114.093 75.1251 115.152C75.1911 116.212 75.7191 117.536 76.3132 117.536C76.9072 117.536 77.1712 116.94 77.3032 116.079C77.4352 115.219 76.3792 113.96 75.8511 112.901Z" fill="#FF0077"/>
<path d="M172 119.997C205.137 119.997 232 93.1347 232 59.9985C232 26.8622 205.137 0 172 0C138.863 0 112 26.8622 112 59.9985C112 93.1347 138.863 119.997 172 119.997Z" fill="#5865F2"/>
<path d="M172 0L117 83.9562C121.668 94.6612 129.358 103.771 139.127 110.17C148.897 116.568 160.322 119.976 172 119.976C183.679 119.976 195.103 116.568 204.873 110.17C214.643 103.771 222.333 94.6612 227 83.9562L172 0Z" fill="url(#paint0_linear)"/>
<path d="M145.472 113.817C153.724 117.885 162.801 120 172 120C181.2 120 190.276 117.885 198.528 113.817V99.9981H145.472V113.817Z" fill="#221EA6"/>
<path d="M200.264 102.359C200.264 105.067 187.556 108.123 172 108.123C156.445 108.123 143.736 105.067 143.736 102.359V99.9981H200.264V102.359Z" fill="#312CC7"/>
<path d="M172 104.929C187.61 104.929 200.264 102.721 200.264 99.9981C200.264 97.2751 187.61 95.0677 172 95.0677C156.391 95.0677 143.736 97.2751 143.736 99.9981C143.736 102.721 156.391 104.929 172 104.929Z" fill="#FFD73B"/>
<path d="M145.542 95.276L143.805 99.5815H150.68V95.276H145.542Z" fill="#FFD73B"/>
<path d="M198.458 95.276L200.125 99.5815H193.32V95.276H198.458Z" fill="#FFD73B"/>
<path d="M172 100.206C186.651 100.206 198.528 98.1544 198.528 95.6232C198.528 93.0919 186.651 91.04 172 91.04C157.349 91.04 145.472 93.0919 145.472 95.6232C145.472 98.1544 157.349 100.206 172 100.206Z" fill="white"/>
<path d="M172 97.3593C177.715 97.3593 182.347 96.2401 182.347 94.8594C182.347 93.4787 177.715 92.3594 172 92.3594C166.285 92.3594 161.653 93.4787 161.653 94.8594C161.653 96.2401 166.285 97.3593 172 97.3593Z" fill="#FF78B9"/>
<path d="M194.778 52.5687C196.514 54.7909 196.305 57.5686 194.292 58.6797C192.278 59.7908 189.292 58.8186 187.694 56.527C186.097 54.2354 186.375 51.7354 188.25 50.6938C190.125 49.6521 193.042 50.416 194.778 52.5687Z" fill="#242145"/>
<path d="M200.958 58.1242C202.833 60.5547 202.208 63.5407 199.847 64.3046C197.486 65.0684 194.639 63.4713 193.25 60.9019C191.861 58.3325 192.555 55.902 194.639 55.277C196.722 54.6521 199.222 55.7631 200.958 58.1242Z" fill="#242145"/>
<path d="M172 86.3873C184.925 86.3873 195.403 77.0291 195.403 65.4851C195.403 53.9411 184.925 44.5828 172 44.5828C159.075 44.5828 148.597 53.9411 148.597 65.4851C148.597 77.0291 159.075 86.3873 172 86.3873Z" fill="white"/>
<path d="M186.861 57.5686C187.024 63.3492 186.512 69.1289 185.333 74.7904H186.861C188.432 69.004 188.996 62.9906 188.528 57.0131C188.25 53.6799 186.861 48.055 183.528 46.5967L181.792 45.9717C185.472 47.2217 186.722 52.9854 186.861 57.5686Z" fill="#FFD73B"/>
<path d="M164.222 60.2769C165.264 67.3601 163.944 77.4293 163.944 77.4293H166.167C167.105 71.7522 167.129 65.9614 166.236 60.2769C164.292 48.3328 158.597 47.4995 156.583 48.6105L155.75 49.2355C158.597 47.1523 163.181 53.1938 164.222 60.2769Z" fill="#FFD73B"/>
<path d="M183.805 89.0956C183.805 91.7345 181.653 95.6927 172 95.6927C162.347 95.6927 160.194 91.7345 160.194 89.0956C160.194 86.4568 165.472 84.3041 172 84.3041C178.528 84.3041 183.805 85.5541 183.805 89.0956Z" fill="#3442D9"/>
<path d="M185.194 82.9152C185.194 85.5541 182.833 89.5123 172 89.5123C161.167 89.5123 158.736 85.5541 158.736 82.9152C158.736 80.2764 164.708 78.1237 172 78.1237C179.292 78.1237 185.194 79.582 185.194 82.9152Z" fill="#312CC7"/>
<path d="M172 75.1377C159.57 75.1377 149.431 71.3878 148.736 67.7768C149.986 78.2626 159.917 86.3874 172 86.3874C184.084 86.3874 193.945 78.2626 195.264 67.7768C194.57 71.3878 184.431 75.1377 172 75.1377Z" fill="black"/>
<path d="M172 74.2349C159.57 74.2349 149.431 71.3878 148.736 67.7768C148.894 68.8791 149.126 69.9695 149.431 71.0406C151.236 74.4433 160.681 77.0821 172 77.0821C183.32 77.0821 192.695 74.4433 194.57 71.0406C194.874 69.9695 195.106 68.8791 195.264 67.7768C194.57 71.3878 184.431 74.2349 172 74.2349Z" fill="#3F99F2"/>
<path d="M172 16.2502C169.844 16.2514 167.713 16.7219 165.757 17.6291C163.8 18.5363 162.065 19.8584 160.67 21.5036C159.276 23.1489 158.257 25.0778 157.683 27.1565C157.109 29.2353 156.995 31.414 157.347 33.5415C158.166 38.3895 159.492 43.1378 161.306 47.7078C161.792 48.9577 166.375 49.8605 172 49.8605C177.625 49.8605 182.208 48.9577 182.625 47.7078C184.46 43.1398 185.81 38.3916 186.653 33.5415C187.006 31.414 186.891 29.2353 186.317 27.1565C185.743 25.0778 184.724 23.1489 183.33 21.5036C181.936 19.8584 180.2 18.5363 178.244 17.6291C176.287 16.7219 174.157 16.2514 172 16.2502Z" fill="white"/>
<path d="M157.139 53.8188C155.82 56.4576 153.32 58.6103 152.07 57.8464C150.82 57.0826 151.722 54.4437 153.32 52.3605C154.917 50.2772 156.167 49.6522 157.07 49.93C157.972 50.2077 158.111 51.7355 157.139 53.8188Z" fill="#242145"/>
<path d="M157.417 50.1383C156.44 49.3821 155.237 48.9776 154.002 48.9902C152.767 49.0028 151.572 49.4318 150.611 50.2077C148.18 52.0827 146.792 55.6243 147.555 59.4436C148.319 63.263 152.069 57.8464 152.069 57.8464L157.417 50.1383Z" fill="#242145"/>
<path d="M148.736 55.2771C145.819 55.4854 141.514 57.9853 141.792 62.0824C142.069 66.1796 146.097 65.9018 148.736 63.888C151.375 61.8741 152.903 59.1658 152.764 56.8742C152.625 54.5826 150.819 55.0687 148.736 55.2771Z" fill="#242145"/>
<path d="M153.181 57.9159H152.695C152.752 57.5485 152.775 57.1765 152.764 56.8048C152.75 56.532 152.665 56.2674 152.519 56.0364C152.374 55.8054 152.171 55.6157 151.931 55.4854C151.912 55.4854 151.894 55.4818 151.877 55.4748C151.861 55.4679 151.845 55.4576 151.832 55.4447C151.82 55.4318 151.809 55.4165 151.802 55.3997C151.795 55.3828 151.792 55.3648 151.792 55.3465V55.2076H151.861C151.931 55.1382 152 55.0688 152.07 55.1382C152.407 55.291 152.696 55.5339 152.904 55.8402C153.112 56.1465 153.232 56.5043 153.25 56.8743C153.261 57.2229 153.238 57.5718 153.181 57.9159Z" fill="black"/>
<path d="M145.194 73.1933C148.071 73.1933 150.403 70.8615 150.403 67.9851C150.403 65.1086 148.071 62.7769 145.194 62.7769C142.318 62.7769 139.986 65.1086 139.986 67.9851C139.986 70.8615 142.318 73.1933 145.194 73.1933Z" fill="#242145"/>
<path d="M148.875 63.749C147.855 62.8056 146.515 62.2844 145.125 62.2907C144.029 62.2806 142.958 62.6213 142.07 63.2629C142.072 63.4344 142.12 63.6021 142.208 63.749C143.052 63.1224 144.074 62.7818 145.125 62.7768C145.74 62.7654 146.352 62.8761 146.924 63.1026C147.496 63.3291 148.018 63.6668 148.458 64.0962L148.736 63.8879L148.875 63.749Z" fill="black"/>
<path d="M150.055 72.846C153.277 72.846 155.889 70.2344 155.889 67.0128C155.889 63.7913 153.277 61.1797 150.055 61.1797C146.834 61.1797 144.222 63.7913 144.222 67.0128C144.222 70.2344 146.834 72.846 150.055 72.846Z" fill="#242145"/>
<path d="M144.222 67.0129C144.132 66.1887 144.217 65.3548 144.471 64.5656C144.725 63.7763 145.143 63.0495 145.696 62.4323C146.25 61.8151 146.927 61.3215 147.684 60.9835C148.441 60.6456 149.261 60.4709 150.09 60.4709C150.919 60.4709 151.739 60.6456 152.496 60.9835C153.253 61.3215 153.931 61.8151 154.484 62.4323C155.038 63.0495 155.455 63.7763 155.709 64.5656C155.963 65.3548 156.048 66.1887 155.958 67.0129" stroke="black" stroke-width="0.811127" stroke-miterlimit="10" stroke-linecap="round"/>
<path d="M199.5 72.1517C202.798 72.1517 205.472 69.4779 205.472 66.1796C205.472 62.8813 202.798 60.2076 199.5 60.2076C196.202 60.2076 193.528 62.8813 193.528 66.1796C193.528 69.4779 196.202 72.1517 199.5 72.1517Z" fill="#242145"/>
<path d="M202.069 60.8325C202 60.6242 202 60.4158 201.93 60.2075C201.176 59.9225 200.375 59.7812 199.569 59.7909C198.555 59.7805 197.555 60.0226 196.658 60.4954C195.76 60.9682 194.995 61.6568 194.43 62.4991L194.778 62.8463C195.291 62.0396 195.998 61.3751 196.836 60.9139C197.673 60.4527 198.613 60.2098 199.569 60.2075C200.442 60.2001 201.303 60.4152 202.069 60.8325Z" fill="black"/>
<path d="M194.431 68.0545C197.461 68.0545 199.917 65.5984 199.917 62.5685C199.917 59.5387 197.461 57.0826 194.431 57.0826C191.401 57.0826 188.945 59.5387 188.945 62.5685C188.945 65.5984 191.401 68.0545 194.431 68.0545Z" fill="#242145"/>
<path d="M194.43 57.0131C195.207 56.9259 195.994 57.0036 196.739 57.2412C197.484 57.4788 198.17 57.871 198.753 58.3921C199.336 58.9132 199.802 59.5515 200.122 60.2652C200.441 60.9789 200.606 61.752 200.606 62.5338C200.606 63.3157 200.441 64.0888 200.122 64.8025C199.802 65.5162 199.336 66.1545 198.753 66.6756C198.17 67.1967 197.484 67.5888 196.739 67.8265C195.994 68.0641 195.207 68.1418 194.43 68.0545" stroke="black" stroke-width="0.811127" stroke-miterlimit="10" stroke-linecap="round"/>
<path d="M176.861 55.4853C177.12 54.4581 177.306 53.4139 177.417 52.3604C177.417 52.3051 177.395 52.2522 177.356 52.2131C177.317 52.174 177.264 52.1521 177.209 52.1521C175.581 52.4403 173.931 52.5798 172.278 52.5687C172.139 52.5687 172.07 52.6382 172.139 52.777L173.945 55.7631C174.175 58.883 174.198 62.0148 174.014 65.1378C174.014 65.2767 174.084 65.3462 174.153 65.3462C175.804 65.4038 177.457 65.2874 179.083 64.999L179.222 64.7906C178.806 60.763 177.972 57.4297 176.861 55.4853Z" fill="#57F287"/>
<path d="M172 49.9299C177.906 49.9299 182.694 48.8728 182.694 47.5688C182.694 46.2649 177.906 45.2078 172 45.2078C166.093 45.2078 161.305 46.2649 161.305 47.5688C161.305 48.8728 166.093 49.9299 172 49.9299Z" fill="black"/>
<path d="M183.25 45.9717V46.2495L182.625 47.7078C182.208 48.9578 177.556 49.8605 172 49.8605C169.555 49.8968 167.112 49.6874 164.708 49.2355C162.833 48.8883 161.583 48.3328 161.306 47.7078C161.151 47.2106 160.965 46.7236 160.75 46.2495V45.9717C160.75 44.6523 165.819 43.5412 172.069 43.5412C178.319 43.5412 183.25 44.6523 183.25 45.9717Z" fill="#5562F2"/>
<path d="M172 48.124C165.194 48.124 160.958 46.8741 160.958 45.9713C160.958 45.0686 165.194 43.8186 172 43.8186C178.805 43.8186 182.972 45.0686 182.972 45.9713C182.972 46.8741 178.805 48.124 172 48.124Z" fill="black"/>
<path d="M172 44.0968C178.736 44.0968 182.625 45.3468 182.694 45.9717C182.764 46.5967 178.736 47.8467 172 47.8467C165.264 47.8467 161.375 46.5967 161.236 45.9717C161.097 45.3468 165.264 44.0968 172 44.0968ZM172 43.5412C165.75 43.5412 160.68 44.6523 160.68 45.9717C160.68 47.2911 165.75 48.4022 172 48.4022C178.25 48.4022 183.25 47.3606 183.25 45.9717C183.25 44.5829 178.25 43.5412 172 43.5412Z" fill="#99A1FF"/>
<path d="M173.528 45.9718V46.1106L172.417 46.2495L171.306 46.1106C171.281 46.0825 171.261 46.0495 171.249 46.0136C171.238 45.9778 171.233 45.9399 171.236 45.9023C171.415 43.0251 170.764 40.1572 169.361 37.6386C169.227 37.349 169.202 37.0206 169.292 36.7141C169.381 36.4077 169.578 36.144 169.847 35.972C170.127 35.8419 170.444 35.8196 170.739 35.9093C171.034 35.999 171.285 36.1945 171.445 36.4581C173.029 39.367 173.752 42.667 173.528 45.9718Z" fill="#EB459F"/>
<path d="M177.764 32.8471C176.861 33.5415 175.472 35.347 176.306 37.1525L174.292 37.0136L171.167 35.6942L169.847 33.6109L169.5 31.0415L170.056 29.861L171.444 29.7221L174.917 32.0832L177.764 32.8471Z" fill="black"/>
<path d="M182.347 33.1248C182.378 33.3055 182.368 33.4907 182.319 33.6673C182.27 33.8439 182.183 34.0076 182.064 34.1467C181.944 34.2859 181.796 34.3971 181.629 34.4725C181.462 34.5479 181.28 34.5857 181.097 34.5831C179.986 34.722 179.569 34.4442 179.361 34.097C179.11 34.3669 178.785 34.557 178.427 34.6435C178.069 34.7299 177.693 34.7089 177.347 34.5831C176.583 34.2359 176.097 33.8192 176.375 32.9165C176.653 32.0137 182.347 33.1248 182.347 33.1248Z" fill="#8CD9FF"/>
<path d="M172.139 30.5555C171.653 31.3888 172.278 32.0138 173.389 32.6388C174.5 33.2637 174.917 31.8749 174.917 31.8749L172.139 30.5555Z" fill="#8CD9FF"/>
<path d="M172.139 33.6109C173.042 33.0553 174.222 33.7498 174.708 34.9303C174.935 35.5796 175.264 36.1889 175.681 36.7358H173.389L171.306 35.3469L172.139 33.6109Z" fill="#57F287"/>
<path d="M169.917 32.2221C171.028 31.9443 172.417 32.8471 173.25 35.1387L174.083 37.4303L170.472 35.4859L169.5 33.3332L169.917 32.2221Z" fill="#57F287"/>
<path d="M169.917 32.2221C171.028 31.9443 172.417 32.8471 173.25 35.1387L174.083 37.4303" stroke="black" stroke-width="0.856299" stroke-miterlimit="10" stroke-linecap="round"/>
<path d="M181.583 38.4719C181.818 38.4127 182.034 38.293 182.208 38.1247C182.486 37.8469 182.556 37.3608 181.861 36.6664C181.167 35.9719 177.903 36.0414 176.722 36.3191C175.807 36.6151 174.827 36.6483 173.894 36.4151C172.961 36.1819 172.113 35.6915 171.444 34.9997C170.125 33.7498 170.194 31.597 170.264 30.9026C170.333 30.2082 170.819 29.9999 171.93 30.6943C176.167 33.3331 178.042 33.9581 180.611 34.0275C183.181 34.097 183.458 33.1942 183.528 32.9165C183.573 32.7277 183.564 32.5302 183.503 32.3462C183.441 32.1621 183.33 31.9989 183.181 31.8748L181.583 32.7081L176.514 31.597L171.93 28.8888L169.639 28.7499L168.597 31.3193L169.569 35.1386L172.139 37.3608L175.819 38.0552L180.194 37.2219L181.375 37.7774L181.583 38.4719Z" fill="#EB459F"/>
<path d="M183.042 32.2915C184.083 30.4165 183.805 28.4027 181.305 26.9444C181.792 24.1667 180.68 22.014 176.792 21.9445C175.889 19.6529 173.389 19.3057 171.375 19.4446C170.599 19.4419 169.839 19.6633 169.186 20.0822C168.533 20.501 168.015 21.0995 167.694 21.8057C163.805 21.7362 160.958 23.3334 161.236 27.0833C159.292 28.2638 158.667 30.9721 160.055 32.6387C158.667 35.7636 161.792 37.7775 164.083 38.1247C164.708 41.319 167.278 43.6107 171.305 42.4996C172.494 43.0693 173.817 43.2994 175.128 43.1646C176.44 43.0298 177.688 42.5353 178.736 41.7357C181.514 41.944 182.278 40.2774 181.93 38.4719C181.9 38.2481 181.822 38.0334 181.702 37.8419C181.583 37.6503 181.424 37.4864 181.236 37.3608C180.264 36.7358 178.805 36.9442 177.139 37.2914C173.805 37.9858 171.167 37.083 169.778 34.3748C169.014 32.9859 168.805 30.6249 169.639 29.5138C170.472 28.4027 171.861 29.3749 173.319 30.2777C176.097 32.0137 179.708 33.7498 182.417 32.7776C182.677 32.6978 182.9 32.5248 183.042 32.2915Z" fill="#FF78B9"/>
<path d="M183.042 32.2915C184.083 30.4165 183.805 28.4027 181.305 26.9444C181.792 24.1667 180.68 22.014 176.792 21.9445C175.889 19.6529 173.389 19.3057 171.375 19.4446C170.599 19.4419 169.839 19.6633 169.186 20.0822C168.533 20.501 168.015 21.0995 167.694 21.8057C163.805 21.7362 160.958 23.3334 161.236 27.0833C159.292 28.2638 158.667 30.9721 160.055 32.6387C158.667 35.7636 161.792 37.7775 164.083 38.1247C164.708 41.319 167.278 43.6107 171.305 42.4996C172.494 43.0693 173.817 43.2994 175.128 43.1646C176.44 43.0298 177.688 42.5353 178.736 41.7357C181.514 41.944 182.278 40.2774 181.93 38.4719C181.9 38.2481 181.822 38.0334 181.702 37.8419C181.583 37.6503 181.424 37.4864 181.236 37.3608C180.264 36.7358 178.805 36.9442 177.139 37.2914C173.805 37.9858 171.167 37.083 169.778 34.3748C169.014 32.9859 168.805 30.6249 169.639 29.5138C170.472 28.4027 171.861 29.3749 173.319 30.2777C176.097 32.0137 179.708 33.7498 182.417 32.7776C182.677 32.6978 182.9 32.5248 183.042 32.2915Z" fill="#FF78B9"/>
<path d="M178.111 23.7492L178.944 23.1251" stroke="black" stroke-width="0.856299" stroke-miterlimit="10" stroke-linecap="round"/>
<path d="M178.528 24.0276L179.708 23.8889" stroke="black" stroke-width="0.856299" stroke-miterlimit="10" stroke-linecap="round"/>
<path d="M171.236 21.8056L171.445 20.6945" stroke="black" stroke-width="0.856299" stroke-miterlimit="10" stroke-linecap="round"/>
<path d="M172.07 21.8057L172.556 20.764" stroke="black" stroke-width="0.856299" stroke-miterlimit="10" stroke-linecap="round"/>
<path d="M172.625 21.9445L173.458 21.1807" stroke="black" stroke-width="0.856299" stroke-miterlimit="10" stroke-linecap="round"/>
<path d="M175.889 22.5002C175.859 22.4379 175.806 22.3892 175.742 22.3635C175.678 22.3378 175.606 22.337 175.542 22.3613C175.472 22.5002 175.403 22.639 175.472 22.7085C176.239 24.0308 176.463 25.5992 176.097 27.0834C176.061 27.1961 176.061 27.3176 176.099 27.4301C176.136 27.5425 176.209 27.64 176.305 27.7084C176.797 28.0692 177.211 28.526 177.521 29.0512C177.831 29.5764 178.032 30.159 178.111 30.7638C178.209 31.3573 178.111 31.9666 177.833 32.4999L178.25 32.6388C178.607 32.0573 178.754 31.3711 178.667 30.6944C178.426 29.3744 177.709 28.1886 176.653 27.3611C176.612 27.3255 176.588 27.2758 176.583 27.2223C176.79 26.4288 176.835 25.6019 176.716 24.7906C176.597 23.9794 176.315 23.2004 175.889 22.5002Z" fill="black"/>
<path d="M170.681 27.7778C170.812 28.2051 170.836 28.6584 170.75 29.0972H171.236C171.372 28.5644 171.323 28.0014 171.097 27.5C170.542 26.4584 169.153 25.8334 167.625 25.3473C166.097 24.8612 165.194 24.3751 164.847 23.5418C164.5 22.7085 164.708 23.3335 164.569 23.4029C164.431 23.4723 164.361 23.5418 164.431 23.6807C164.847 24.8612 165.472 25.2084 167.486 25.8334C169.5 26.4584 170.194 26.875 170.681 27.7778Z" fill="black"/>
<path d="M165.958 32.5692H166.097L166.306 32.4304C166.33 32.3656 166.329 32.2941 166.303 32.2299C166.278 32.1657 166.229 32.1133 166.167 32.0832C162 30.1388 161.375 28.5416 161.236 27.0833L160.75 27.4305C160.958 28.8888 161.861 30.5554 165.958 32.5692Z" fill="black"/>
<path d="M169.222 39.1663H169.361C169.5 39.1663 169.569 39.0969 169.569 39.0275C169.569 38.958 169.639 38.7497 169.5 38.6802L167.486 37.5692H167.069C166.144 38.0246 165.111 38.2168 164.083 38.1247C164.097 38.3165 164.144 38.5045 164.222 38.6802C165.275 38.7063 166.32 38.4926 167.278 38.0553L169.222 39.1663Z" fill="black"/>
<path d="M179.5 41.7357C180.009 41.1513 180.325 40.4235 180.403 39.6525C180.505 38.7051 180.285 37.751 179.778 36.9442H179.153C179.704 37.6831 179.975 38.5937 179.917 39.5136C179.799 40.351 179.379 41.1164 178.736 41.6663H179.5V41.7357Z" fill="black"/>
<path d="M161.305 34.3748H161.444L161.653 34.2359C161.677 34.1711 161.676 34.0996 161.65 34.0354C161.625 33.9712 161.576 33.9189 161.514 33.8887C160.978 33.5074 160.488 33.0646 160.056 32.5692L159.847 33.1248C160.269 33.6111 160.76 34.0323 161.305 34.3748Z" fill="black"/>
<path d="M174.43 26.4583C174.014 26.5278 173.597 26.1806 173.25 25.4861C172.875 24.7025 172.3 24.0318 171.583 23.5417C170.403 22.7084 170.68 21.8751 171.236 21.5279C171.792 21.1807 173.528 21.3196 174.43 22.7779C175.333 24.2362 175.403 26.25 174.43 26.4583Z" fill="white"/>
<path d="M178.973 27.3763C179.68 27.1988 180.033 26.1804 179.762 25.1017C179.491 24.023 178.698 23.2925 177.992 23.47C177.285 23.6475 176.932 24.6659 177.203 25.7446C177.473 26.8233 178.266 27.5538 178.973 27.3763Z" fill="white"/>
<path d="M174.014 24.0973C174.222 24.0279 174.57 24.3056 174.639 25.0001C174.708 25.6945 174.431 25.8334 174.292 25.8334C174.153 25.8334 174.083 25.5556 174.014 25.1389C173.945 24.7223 173.667 24.2362 174.014 24.0973Z" fill="black"/>
<path d="M179.293 26.2226C179.317 25.763 179.119 25.379 178.851 25.365C178.583 25.3509 178.346 25.7121 178.322 26.1717C178.298 26.6313 178.495 27.0153 178.764 27.0293C179.032 27.0434 179.268 26.6822 179.293 26.2226Z" fill="black"/>
<path d="M166.167 24.9306L166.514 23.6112" stroke="black" stroke-width="0.856299" stroke-miterlimit="10" stroke-linecap="round"/>
<path d="M164.779 31.8749L164.639 32.6387" stroke="black" stroke-width="0.856299" stroke-miterlimit="10" stroke-linecap="round"/>
<path d="M184.57 27.9166C184.991 27.9166 185.333 27.5746 185.333 27.1528C185.333 26.7309 184.991 26.3889 184.57 26.3889C184.148 26.3889 183.806 26.7309 183.806 27.1528C183.806 27.5746 184.148 27.9166 184.57 27.9166Z" fill="#8CD9FF"/>
<path d="M163.528 42.9162C163.796 42.9162 164.014 42.6986 164.014 42.4301C164.014 42.1617 163.796 41.944 163.528 41.944C163.259 41.944 163.042 42.1617 163.042 42.4301C163.042 42.6986 163.259 42.9162 163.528 42.9162Z" fill="#8CD9FF"/>
<path d="M163.25 24.0973C163.825 24.0973 164.292 23.6309 164.292 23.0556C164.292 22.4804 163.825 22.014 163.25 22.014C162.675 22.014 162.208 22.4804 162.208 23.0556C162.208 23.6309 162.675 24.0973 163.25 24.0973Z" fill="#8CD9FF"/>
<path d="M156.93 70.2072C160.114 70.2072 162.694 67.6267 162.694 64.4435C162.694 61.2603 160.114 58.6798 156.93 58.6798C153.747 58.6798 151.167 61.2603 151.167 64.4435C151.167 67.6267 153.747 70.2072 156.93 70.2072Z" fill="#242145"/>
<path d="M151.583 61.3186C151.027 62.2652 150.739 63.3455 150.75 64.4435C150.749 65.5332 151.03 66.6046 151.565 67.5537C152.101 68.5028 152.873 69.2973 153.806 69.8601H154.153C154.183 69.8032 154.193 69.7373 154.181 69.674C154.168 69.6106 154.134 69.5536 154.083 69.5129C153.406 69.1408 152.813 68.6331 152.34 68.0216C151.868 67.41 151.527 66.7077 151.338 65.9584C151.149 65.2091 151.116 64.4289 151.242 63.6664C151.368 62.904 151.65 62.1757 152.07 61.5269L151.583 61.3186Z" fill="black"/>
<path d="M156.931 59.3048C157.694 58.1937 158.25 57.8465 159.153 58.402L162.903 62.9852C163.667 64.0963 163.319 64.7907 161.931 65.6935C160.542 66.5962 159.083 66.3879 157.486 64.7907C155.889 63.1935 156.236 60.4158 156.931 59.3048Z" fill="#5865F2"/>
<path d="M157.556 60.2769C157.644 59.7248 157.808 59.1874 158.042 58.6797C159.084 56.8048 160.125 54.8604 160.611 54.166C161.097 53.4715 161.861 53.4715 163.875 53.4715C165.889 53.4715 165.889 53.4715 166.514 54.2354C167.139 54.9993 167.139 55.1382 166.584 56.2492C168.111 57.152 167.972 57.2909 167.972 59.4436C167.972 61.5963 167.347 61.6658 165.472 61.9435C164.222 63.6102 163.459 64.8601 161.445 64.8601C160.881 64.8355 160.328 64.6946 159.821 64.4464C159.315 64.1982 158.865 63.848 158.499 63.4177C158.134 62.9874 157.862 62.4863 157.7 61.9458C157.537 61.4054 157.488 60.8372 157.556 60.2769Z" fill="#FF78B9"/>
<path d="M166.583 74.096L164.292 73.8877C164.71 69.5228 164.71 65.128 164.292 60.7631L164.639 60.277L166.375 60.7631C166.993 65.1818 167.063 69.6601 166.583 74.096Z" fill="#FFD73B"/>
<path d="M193.528 57.6381C192.903 56.7353 192.417 56.4575 191.653 56.8742L188.528 60.763C187.833 61.7352 188.18 62.3602 189.361 63.124C190.542 63.8879 191.722 63.6796 193.111 62.2907C193.637 61.6456 193.958 60.8576 194.033 60.0283C194.107 59.199 193.931 58.3664 193.528 57.6381Z" fill="#5865F2"/>
<path d="M184.43 55.2076C183.25 55.9715 183.319 56.527 183.736 57.5687C184.228 58.6343 184.808 59.6564 185.472 60.6242C185.889 61.3186 186.444 61.3186 188.458 61.2491C188.732 61.693 189.167 62.0134 189.672 62.1429C190.177 62.2724 190.713 62.201 191.167 61.9436C192.069 61.5269 193.042 60.4158 192.694 58.1242C192.654 57.7996 192.534 57.4897 192.347 57.2215C191.305 55.4854 189.569 52.916 189.153 52.4299C188.736 51.9438 188.25 51.8744 186.305 51.8744C184.361 51.8744 184.153 52.291 183.875 53.1244C183.597 53.9577 183.875 54.2354 184.43 55.2076Z" fill="#FF78B9"/>
<path d="M174.431 89.5123C175.333 90.5252 175.827 91.8364 175.819 93.1927C175.778 94.0441 175.488 94.8647 174.986 95.5538H174.222C174.559 95.2421 174.83 94.8669 175.021 94.4497C175.212 94.0325 175.318 93.5817 175.333 93.1233C175.355 92.4633 175.237 91.8061 174.985 91.1955C174.734 90.5848 174.355 90.0347 173.875 89.5817L173.597 89.3734L173.875 89.2345C174.417 88.8645 174.871 88.3808 175.207 87.8171C175.543 87.2534 175.752 86.6233 175.819 85.9707C175.889 85.4638 175.889 84.9498 175.819 84.443C175.635 83.0458 175.029 81.7379 174.083 80.6931C174.053 80.6403 174.037 80.5804 174.037 80.5194C174.037 80.4585 174.053 80.3986 174.083 80.3458H174.431C175.476 81.4767 176.133 82.9122 176.306 84.443C176.375 84.9731 176.375 85.51 176.306 86.0401C176.153 87.3964 175.481 88.6409 174.431 89.5123Z" fill="black"/>
<path d="M152.208 50.6938C151.722 51.041 150.958 51.3882 150.819 51.1799C150.681 50.9716 151.236 50.4855 151.792 50.2077C152.347 49.9299 152.486 49.9994 152.556 50.0688C152.625 50.1383 152.486 50.416 152.208 50.6938Z" fill="#625ABD"/>
<path d="M188.667 59.8603C188.762 64.1082 188.343 68.352 187.417 72.4989C186.872 72.6785 186.315 72.8178 185.75 72.9155C186.473 68.601 186.845 64.2349 186.861 59.8603L188.111 59.1659L188.667 59.8603Z" fill="#FFD73B"/>
<path d="M195.264 57.0825C195.489 56.709 195.675 56.3134 195.819 55.902" stroke="black" stroke-width="0.811127" stroke-miterlimit="10" stroke-linecap="round"/>
<path d="M175.68 55.5548C176.028 57.0826 176.305 58.5409 176.305 58.5409" stroke="black" stroke-width="0.811127" stroke-miterlimit="10" stroke-linecap="round"/>
<path d="M172.139 77.0821C174.785 77.0671 177.428 76.9049 180.055 76.596V73.8183C177.426 74.103 174.783 74.2421 172.139 74.2349V77.0821Z" fill="#FFD73B"/>
<path d="M187.764 52.9854C187.694 52.8465 187.555 52.8465 187.417 52.916L184.222 54.7909L184.43 55.2076L187.694 53.2632C187.764 53.1937 187.833 53.0549 187.764 52.9854Z" fill="black"/>
<path d="M185.75 54.1655L184.57 53.8188" stroke="black" stroke-width="0.811127" stroke-miterlimit="10" stroke-linecap="round"/>
<path d="M185.75 57.9853L188.806 56.1103C188.944 56.0409 188.944 55.902 188.875 55.7631C188.834 55.7129 188.777 55.6786 188.714 55.6659C188.65 55.6532 188.585 55.663 188.528 55.6937L185.472 57.5686C185.11 57.7422 184.781 57.9771 184.5 58.263C184.421 58.3588 184.372 58.476 184.359 58.5997C184.347 58.7234 184.372 58.8479 184.431 58.9575L184.639 59.3741C184.583 59.2427 184.559 59.0999 184.569 58.9575C184.639 58.6797 185.125 58.3325 185.75 57.9853Z" fill="black"/>
<path d="M186.722 59.9991L188.25 59.0963" stroke="black" stroke-width="0.811127" stroke-miterlimit="10" stroke-linecap="round"/>
<path d="M188.25 59.0963C188.56 59.6676 189.015 60.1468 189.569 60.4852" stroke="black" stroke-width="0.811127" stroke-miterlimit="10" stroke-linecap="round"/>
<path d="M166.583 56.2492L166.792 55.8326L163.389 54.5132C163.25 54.5132 163.111 54.5132 163.111 54.6521C163.087 54.7168 163.088 54.7883 163.113 54.8526C163.139 54.9168 163.188 54.9691 163.25 54.9993L166.583 56.2492Z" fill="black"/>
<path d="M167.556 58.6798L163.458 57.2215C163.386 57.2155 163.313 57.2324 163.251 57.2698C163.189 57.3072 163.14 57.3631 163.111 57.4298L163.25 57.7076L167.417 59.1659C167.587 59.2258 167.733 59.3395 167.834 59.4898C167.934 59.6401 167.982 59.8188 167.972 59.9992V59.0964C167.972 58.8881 167.694 58.7492 167.556 58.6798Z" fill="black"/>
<path d="M166.583 60.6936L164.708 60.0686H164.639C164.452 60.8533 164.097 61.5879 163.597 62.2213" stroke="black" stroke-width="0.811127" stroke-miterlimit="10" stroke-linecap="round"/>
<path d="M176.097 40.4163C176.122 40.3515 176.121 40.2801 176.095 40.2158C176.069 40.1516 176.021 40.0993 175.958 40.0691C175.889 39.9997 175.681 40.0691 175.611 40.1386C175.409 40.5144 175.088 40.8133 174.699 40.989C174.31 41.1647 173.874 41.2075 173.458 41.1107C173.441 41.099 173.421 41.0914 173.4 41.0885C173.379 41.0857 173.357 41.0877 173.337 41.0944C173.317 41.1011 173.299 41.1123 173.284 41.1272C173.269 41.1421 173.257 41.1602 173.25 41.1802C172.793 41.8511 172.098 42.3228 171.306 42.4996L172.07 42.7774C172.695 42.5639 173.233 42.1487 173.597 41.5968C174.085 41.6878 174.589 41.6227 175.038 41.4108C175.487 41.1988 175.858 40.8509 176.097 40.4163Z" fill="black"/>
<path d="M192.972 44.3746C195.197 44.3746 197 42.5713 197 40.3469C197 38.1225 195.197 36.3192 192.972 36.3192C190.748 36.3192 188.945 38.1225 188.945 40.3469C188.945 42.5713 190.748 44.3746 192.972 44.3746Z" fill="white"/>
<path d="M205.472 46.2495C205.241 46.7939 204.809 47.2279 204.265 47.4609C203.722 47.6939 203.109 47.7077 202.556 47.4994L194.778 44.9995L197.764 38.7496L204.639 43.194C205.12 43.5196 205.469 44.0068 205.622 44.5674C205.774 45.1279 205.722 45.7246 205.472 46.2495Z" fill="black"/>
<path d="M196.107 41.7539C196.959 39.9509 197.256 38.3033 196.771 38.0738C196.285 37.8444 195.201 39.12 194.349 40.923C193.496 42.726 193.199 44.3737 193.684 44.6031C194.17 44.8326 195.254 43.557 196.107 41.7539Z" fill="#8CD9FF"/>
<path d="M193.805 44.7217L194.778 44.9995C194.292 44.7912 194.569 43.194 195.333 41.4579C196.097 39.7219 197.208 38.5413 197.764 38.7497L196.861 38.1941L194.708 41.1802L193.805 44.7217Z" fill="#8CD9FF"/>
<path d="M194.778 44.9995C194.292 44.7912 194.569 43.194 195.333 41.4579C196.097 39.7219 197.208 38.5413 197.764 38.7497L198.389 39.1663L195.472 45.2773L194.778 44.9995Z" fill="black"/>
<path d="M174.619 158.198C174.267 157.957 173.967 157.648 173.736 157.289C173.505 156.931 173.348 156.53 173.275 156.11L173.051 154.694C173.051 154.619 172.976 154.619 172.901 154.619H172.752L172.602 156.036C172.424 156.872 171.946 157.614 171.258 158.123H171.034V158.272L171.258 158.421C171.604 158.651 171.902 158.948 172.133 159.293C172.364 159.639 172.523 160.027 172.602 160.434L172.752 161.851C172.826 161.925 172.826 162 172.901 162C172.941 162 172.979 161.984 173.007 161.956C173.035 161.928 173.051 161.89 173.051 161.851L173.275 160.434C173.341 160.022 173.495 159.629 173.727 159.282C173.959 158.934 174.263 158.641 174.619 158.421L174.769 158.272H174.843C174.843 158.198 174.843 158.123 174.769 158.123L174.619 158.198Z" fill="#808AFF"/>
<path d="M326.776 139.187C326.431 138.964 326.138 138.668 325.919 138.32C325.7 137.973 325.559 137.582 325.506 137.174L325.282 135.758L325.133 135.609C325.093 135.609 325.055 135.625 325.027 135.652C324.999 135.68 324.983 135.718 324.983 135.758L324.759 137.174C324.693 137.587 324.538 137.98 324.306 138.327C324.074 138.674 323.77 138.968 323.415 139.187L323.265 139.336C323.19 139.336 323.19 139.411 323.19 139.485H323.265L323.415 139.635C323.77 139.854 324.074 140.148 324.306 140.495C324.538 140.842 324.693 141.235 324.759 141.647L324.983 143.064C324.983 143.103 324.999 143.141 325.027 143.169C325.055 143.197 325.093 143.213 325.133 143.213L325.282 143.064L325.506 141.647C325.559 141.24 325.7 140.849 325.919 140.502C326.138 140.154 326.431 139.858 326.776 139.635L327 139.485V139.336L326.776 139.187Z" fill="#FFE75C"/>
<path d="M89.6892 108.547C89.344 108.323 89.0516 108.027 88.8324 107.68C88.6131 107.332 88.4722 106.941 88.4194 106.534L88.1953 105.117C88.1953 105.078 88.1795 105.04 88.1515 105.012C88.1235 104.984 88.0855 104.968 88.0459 104.968C88.0063 104.968 87.9683 104.984 87.9402 105.012C87.9122 105.04 87.8965 105.078 87.8965 105.117L87.6724 106.534C87.6196 106.941 87.4787 107.332 87.2594 107.68C87.0401 108.027 86.7478 108.323 86.4026 108.547H86.1785V108.696C86.1785 108.77 86.2532 108.77 86.2532 108.845H86.4773C86.8245 109.084 87.1172 109.393 87.3361 109.753C87.555 110.113 87.695 110.515 87.7471 110.932L87.9712 112.349C87.9712 112.423 88.0459 112.423 88.1206 112.423C88.1953 112.423 88.27 112.423 88.27 112.349L88.4941 110.932C88.5461 110.515 88.6862 110.113 88.9051 109.753C89.1239 109.393 89.4166 109.084 89.7639 108.845H89.988C89.988 108.77 90.0627 108.77 90.0627 108.696V108.547H89.6892Z" fill="#FFB619"/>
<path d="M221.304 6.63507C220.641 6.21887 220.076 5.66292 219.651 5.00616C219.225 4.3494 218.948 3.60768 218.839 2.83295L218.466 0.223653C218.466 0.0745507 218.317 0 218.167 0C218.108 0 218.051 0.0235633 218.009 0.0655065C217.967 0.10745 217.943 0.164337 217.943 0.223653L217.495 2.83295C217.386 3.5985 217.117 4.33259 216.705 4.9876C216.293 5.64261 215.748 6.2039 215.105 6.63507L214.731 6.85872L214.582 7.08237C214.582 7.15692 214.656 7.30602 214.731 7.30602L215.105 7.52968C215.742 7.96752 216.282 8.53061 216.693 9.18442C217.104 9.83823 217.377 10.569 217.495 11.3318L217.943 14.0156C217.962 14.067 217.992 14.1137 218.03 14.1524C218.069 14.191 218.116 14.2207 218.167 14.2393C218.235 14.2414 218.302 14.2205 218.356 14.1798C218.41 14.1392 218.449 14.0813 218.466 14.0156L218.839 11.3318C218.957 10.5601 219.238 9.82209 219.663 9.16666C220.088 8.51124 220.647 7.95329 221.304 7.52968L221.678 7.30602C221.753 7.30602 221.753 7.15692 221.753 7.08237C221.756 7.04198 221.751 7.00132 221.738 6.96286C221.726 6.92441 221.705 6.88897 221.678 6.85872L221.304 6.63507Z" fill="#3442D9"/>
<path d="M10.2866 40.034C9.97233 39.8193 9.70453 39.5436 9.49921 39.2234C9.29388 38.9032 9.15523 38.5451 9.0915 38.1703L8.86741 36.8283C8.86741 36.8086 8.85954 36.7896 8.84554 36.7756C8.83153 36.7616 8.81253 36.7538 8.79272 36.7538C8.71802 36.7538 8.64332 36.7538 8.64332 36.8283L8.41923 38.1703C8.36902 38.5493 8.23595 38.9128 8.02942 39.2349C7.82289 39.5569 7.54796 39.8298 7.22409 40.034L7 40.1831V40.4068H7.22409C7.55706 40.6188 7.83758 40.9033 8.04457 41.2391C8.25157 41.5748 8.37966 41.9529 8.41923 42.3451L8.64332 43.6125L8.79272 43.7616V43.6125L9.0168 42.3451C9.07091 41.9571 9.20506 41.5845 9.41077 41.2509C9.61648 40.9173 9.88929 40.6299 10.212 40.4068H10.436V40.2577L10.2866 40.034Z" fill="#459FF7"/>
<path d="M91.1829 33.6972C90.5259 33.2736 89.9664 32.7157 89.5415 32.0602C89.1166 31.4048 88.8359 30.6668 88.7179 29.8951L88.3444 27.2858C88.2697 27.1367 88.195 26.9876 88.0456 26.9876C87.8962 26.9876 87.8215 27.1367 87.8215 27.2858L87.3734 29.8951C87.2554 30.6668 86.9747 31.4048 86.5498 32.0602C86.1249 32.7157 85.5654 33.2736 84.9084 33.6972L84.6096 33.9209C84.5349 33.9209 84.4602 34.07 84.4602 34.1445C84.4602 34.2191 84.5349 34.2936 84.6096 34.3682L84.9084 34.5918C85.572 35.008 86.1365 35.564 86.5623 36.2207C86.9881 36.8775 87.2649 37.6192 87.3734 38.394L87.8215 41.0032C87.8215 41.0626 87.8452 41.1194 87.8872 41.1614C87.9292 41.2033 87.9862 41.2269 88.0456 41.2269C88.195 41.2269 88.2697 41.1523 88.3444 41.0032L88.7179 38.394C88.8264 37.6192 89.1032 36.8775 89.529 36.2207C89.9548 35.564 90.5192 35.008 91.1829 34.5918L91.4817 34.3682C91.5564 34.2936 91.6311 34.2191 91.6311 34.1445C91.6311 34.07 91.5564 33.9209 91.4817 33.9209L91.1829 33.6972Z" fill="#57F287"/>
<path d="M277.925 63.7414C277.532 63.495 277.195 63.1683 276.938 62.7829C276.68 62.3974 276.507 61.9618 276.431 61.5049L276.207 59.9393C276.207 59.8997 276.191 59.8618 276.163 59.8338C276.135 59.8059 276.097 59.7902 276.057 59.7902C276.018 59.7902 275.98 59.8059 275.952 59.8338C275.924 59.8618 275.908 59.8997 275.908 59.9393L275.684 61.5049C275.607 61.9618 275.434 62.3974 275.177 62.7829C274.919 63.1683 274.583 63.495 274.19 63.7414L274.041 63.8905H273.966C273.966 63.9103 273.974 63.9292 273.988 63.9432C274.002 63.9572 274.021 63.965 274.041 63.965L274.19 64.1141C274.583 64.3605 274.919 64.6872 275.177 65.0727C275.434 65.4582 275.607 65.8937 275.684 66.3507L275.908 67.9162C275.908 67.9558 275.924 67.9937 275.952 68.0217C275.98 68.0496 276.018 68.0653 276.057 68.0653L276.207 67.9162L276.431 66.3507C276.507 65.8937 276.68 65.4582 276.938 65.0727C277.195 64.6872 277.532 64.3605 277.925 64.1141L278.074 63.965C278.094 63.965 278.113 63.9572 278.127 63.9432C278.141 63.9292 278.149 63.9103 278.149 63.8905H278.074L277.925 63.7414Z" fill="#5865F2"/>
<path d="M198.447 94.0092C198.254 93.8826 198.088 93.7183 197.96 93.5261C197.831 93.334 197.743 93.1179 197.701 92.8909V92.0708H197.551C197.531 92.0708 197.512 92.0787 197.498 92.0927C197.484 92.1066 197.476 92.1256 197.476 92.1454L197.327 92.9654C197.299 93.1972 197.217 93.4191 197.087 93.6133C196.957 93.8076 196.784 93.9687 196.58 94.0837C196.792 94.1881 196.973 94.3465 197.104 94.5428C197.235 94.7391 197.312 94.9665 197.327 95.202L197.476 95.9475H197.626V95.202C197.659 94.9719 197.744 94.7522 197.873 94.5588C198.002 94.3654 198.173 94.2031 198.373 94.0837L198.447 94.0092Z" fill="#8CD9FF"/>
</g>
<defs>
<linearGradient id="paint0_linear" x1="172" y1="3.75685" x2="172" y2="72.4565" gradientUnits="userSpaceOnUse">
<stop stop-color="#FFE75C"/>
<stop offset="1" stop-color="#5865F2"/>
</linearGradient>
<clipPath id="clip0">
<rect width="343" height="178" fill="white"/>
</clipPath>
</defs>
</svg>
