<svg width="12" height="12" viewBox="0 0 12 12" fill="none" xmlns="http://www.w3.org/2000/svg">
<path d="M7.93605 7.8709L11.9511 6.08342C11.9661 6.07517 11.9785 6.06309 11.9872 6.04842C11.9959 6.03375 12.0004 6.01703 12.0004 6C12.0004 5.98297 11.9959 5.96625 11.9872 5.95158C11.9785 5.93691 11.9661 5.92483 11.9511 5.91658L7.93605 4.1291C7.92337 4.1291 7.91121 4.12407 7.90225 4.11514C7.89329 4.1062 7.88825 4.09407 7.88825 4.08143L6.09581 0.0536246C6.04802 -0.0178749 5.95242 -0.0178749 5.92852 0.0536246L4.13608 4.08143C4.11218 4.10526 4.11218 4.1291 4.08828 4.1291L0.0493183 5.91658C0.0343764 5.92483 0.0219213 5.93691 0.0132486 5.95158C0.00457583 5.96625 0 5.98297 0 6C0 6.01703 0.00457583 6.03375 0.0132486 6.04842C0.0219213 6.06309 0.0343764 6.07517 0.0493183 6.08342L4.08828 7.8709C4.11218 7.8709 4.11218 7.89474 4.13608 7.91857L5.92852 11.9464C5.95242 12.0179 6.04802 12.0179 6.09581 11.9464L7.88825 7.91857C7.88825 7.90593 7.89329 7.8938 7.90225 7.88487C7.91121 7.87593 7.92337 7.8709 7.93605 7.8709Z" fill="#FFD01A"/>
</svg>
