<svg width="121" height="96" viewBox="0 0 121 96" fill="none" xmlns="http://www.w3.org/2000/svg">
<circle cx="60.5" cy="48" r="40" fill="#E3E5E8"/>
<path d="M60.5 45.8C59.28 45.8 58.3 46.78 58.3 48C58.3 49.22 59.28 50.2 60.5 50.2C61.72 50.2 62.7 49.22 62.7 48C62.7 46.78 61.72 45.8 60.5 45.8ZM60.5 28C49.46 28 40.5 36.96 40.5 48C40.5 59.04 49.46 68 60.5 68C71.54 68 80.5 59.04 80.5 48C80.5 36.96 71.54 28 60.5 28ZM64.88 52.38L48.5 60L56.12 43.62L72.5 36L64.88 52.38Z" fill="#4F5660"/>
<path d="M104.17 1.80634C104.17 0.808724 103.362 0 102.364 0C101.366 0 100.558 0.808724 100.558 1.80634V3.64278C100.558 4.64039 101.366 5.44911 102.364 5.44911C103.362 5.44911 104.17 4.64039 104.17 3.64278V1.80634Z" fill="#58F287"/>
<path d="M104.17 16.3571C104.17 15.3595 103.362 14.5508 102.364 14.5508C101.366 14.5508 100.558 15.3595 100.558 16.3571V18.1936C100.558 19.1912 101.366 19.9999 102.364 19.9999C103.362 19.9999 104.17 19.1912 104.17 18.1936V16.3571Z" fill="#58F287"/>
<path d="M110.694 11.8412C111.691 11.8412 112.5 11.0325 112.5 10.0349C112.5 9.03724 111.691 8.22852 110.694 8.22852H108.857C107.86 8.22852 107.051 9.03724 107.051 10.0349C107.051 11.0325 107.86 11.8412 108.857 11.8412H110.694Z" fill="#58F287"/>
<path d="M96.1429 11.7416C97.1405 11.7416 97.9492 10.9329 97.9492 9.93524C97.9492 8.93763 97.1405 8.12891 96.1429 8.12891H94.3064C93.3088 8.12891 92.5001 8.93763 92.5001 9.93524C92.5001 10.9329 93.3088 11.7416 94.3064 11.7416H96.1429Z" fill="#58F287"/>
<path d="M19.6501 90.4573L23.8147 89.0684C24.0192 88.9747 24.1925 88.8241 24.314 88.6347C24.4354 88.4454 24.5 88.225 24.5 88C24.5 87.775 24.4354 87.5546 24.314 87.3653C24.1925 87.1759 24.0192 87.0253 23.8147 86.9316L19.6501 85.5427C19.3657 85.4142 19.1378 85.1862 19.0094 84.9016L17.5145 80.7348C17.4442 80.521 17.3083 80.3349 17.1262 80.203C16.944 80.071 16.7249 80 16.5 80C16.2751 80 16.056 80.071 15.8738 80.203C15.6917 80.3349 15.5558 80.521 15.4855 80.7348L13.9906 84.9016C13.8622 85.1862 13.6343 85.4142 13.3499 85.5427L9.18528 86.9316C8.9808 87.0253 8.80752 87.1759 8.68604 87.3653C8.56457 87.5546 8.5 87.775 8.5 88C8.5 88.225 8.56457 88.4454 8.68604 88.6347C8.80752 88.8241 8.9808 88.9747 9.18528 89.0684L13.3499 90.4573C13.5011 90.5032 13.6387 90.5858 13.7505 90.6976C13.8622 90.8094 13.9447 90.9471 13.9906 91.0984L15.4855 95.2652C15.5558 95.479 15.6917 95.6651 15.8738 95.797C16.056 95.929 16.2751 96 16.5 96C16.7249 96 16.944 95.929 17.1262 95.797C17.3083 95.6651 17.4442 95.479 17.5145 95.2652L19.0094 91.0984C19.0553 90.9471 19.1378 90.8094 19.2495 90.6976C19.3613 90.5858 19.4989 90.5032 19.6501 90.4573Z" fill="#FFD01A"/>
</svg>
