<svg xmlns="http://www.w3.org/2000/svg" xmlns:xlink="http://www.w3.org/1999/xlink" width="140" height="96" viewBox="0 0 140 96">
  <defs>
    <polygon id="a" points="0 0 0 84 37.279 84 74.557 84 74.557 0"/>
  </defs>
  <g fill="none" fill-rule="evenodd">
    <g transform="translate(15 6)">
      <path fill="#72767D" d="M14.3021 13.2642C16.1791 14.1052 18.0861 14.8452 20.0151 15.4972 20.9881 15.8272 22.0361 15.3342 22.4601 14.3982 23.5731 11.9482 24.8411 9.5522 26.2661 7.2272 26.7791 6.3892 25.9001 5.3772 25.0111 5.7962 21.0181 7.6792 17.3851 10.2052 14.2431 13.2382L14.3021 13.2642zM36.1282 37.5C35.0482 36.899 34.2002 35.886 33.7532 34.693L32.3592 30.976C31.9652 29.924 31.8572 28.763 32.1822 27.687 32.6252 26.219 33.6712 25.081 35.0542 24.521 35.3142 23.167 35.9312 21.915 36.8142 20.882 32.7322 20.609 28.6702 19.97 24.6742 18.96 23.6742 18.708 22.6302 19.223 22.2842 20.194 20.3852 25.525 19.2052 31.06 18.7462 36.646 18.5502 39.042 20.3322 41 22.7362 41L37.4092 41C37.4132 40.99 37.4172 40.98 37.4212 40.97 37.9172 39.676 37.3402 38.174 36.1282 37.5"/>
      <path fill="#4F545C" d="M70.1849,16.7842 C70.5949,16.1512 71.1959,15.7032 71.8749,15.4412 C71.4999,15.0192 71.1149,14.6072 70.7219,14.2022 C70.6229,14.3642 70.4939,14.5092 70.3089,14.5962 C69.3039,15.0672 68.2879,15.5012 67.2669,15.9212 C67.3639,16.0342 67.5139,16.3062 67.6829,16.6452 C68.1799,17.6432 69.5789,17.7202 70.1849,16.7842"/>
      <path fill="#72767D" d="M57.7591,12.5078 C57.9801,12.5078 58.1991,12.5178 58.4181,12.5368 C57.2351,10.2218 55.9041,7.9658 54.4241,5.7828 C53.4051,4.2808 51.8581,3.1978 50.0801,2.8328 C48.4781,2.5028 46.8411,2.2688 45.1761,2.1378 C44.0061,2.0458 43.0001,2.9638 43.0001,4.1368 L43.0001,17.5138 L55.0241,13.0038 C55.8991,12.6758 56.8251,12.5078 57.7591,12.5078"/>
      <path fill="#4F545C" d="M26.0325 17.2339C30.3675 18.2679 34.7775 18.8569 39.2005 19.0009 39.4575 18.8689 39.7195 18.7449 39.9935 18.6419L41.0005 18.2639 41.0005 4.1369C41.0005 2.9639 39.9935 2.0459 38.8235 2.1379 37.1585 2.2689 35.5215 2.5029 33.9205 2.8329 32.1395 3.1989 30.5925 4.2839 29.5725 5.7889 27.6985 8.5529 26.0625 11.4349 24.6655 14.4029 24.1155 15.5709 24.7755 16.9349 26.0325 17.2339M60.9739 13.2002C61.5819 13.4742 62.1569 13.8252 62.6799 14.2482 62.9589 14.1992 63.2419 14.1742 63.5269 14.1742 64.1569 14.1742 64.7629 14.3092 65.3289 14.5352 66.6769 14.0112 68.0169 13.4542 69.3369 12.8382 66.3029 9.9922 62.8279 7.6112 59.0259 5.8142 58.1189 5.3852 57.2129 6.3772 57.7369 7.2342 58.9249 9.1762 60.0029 11.1682 60.9739 13.2002"/>
      <path fill="#36393F" d="M50.2523,59.7119 L43.0003,50.7699 L43.0003,60.0519 C43.0003,61.6539 44.2593,62.9659 45.8593,63.0429 C47.3923,63.1149 48.9213,63.2409 50.4473,63.4169 L50.5893,60.7489 C50.6093,60.3739 50.4893,60.0039 50.2523,59.7119"/>
      <path fill="#4F545C" d="M50.3411 65.4189C48.9451 65.2549 47.5451 65.1349 46.1441 65.0599 44.4331 64.9679 43.0001 66.3479 43.0001 68.0619L43.0001 79.8639C43.0001 81.0369 44.0051 81.9549 45.1751 81.8629 46.6891 81.7449 48.1801 81.5439 49.6421 81.2589 49.5701 80.9449 49.5321 80.6229 49.5501 80.2919L50.3411 65.4189zM4.137 41L12.707 41C14.825 41 16.548 39.347 16.699 37.233 17.117 31.32 18.318 25.455 20.299 19.808 20.659 18.782 20.108 17.645 19.079 17.292 17.192 16.643 15.324 15.913 13.485 15.089L12.746 14.759C6.764 21.18 2.868 29.562 2.138 38.824 2.045 39.994 2.964 41 4.137 41"/>
      <path fill="#36393F" d="M37.7776,65.146 C33.8606,65.435 29.9646,66.072 26.1336,67.059 C24.8956,67.378 24.2576,68.735 24.8076,69.889 C26.1436,72.69 27.6896,75.412 29.4506,78.03 C30.5446,79.656 32.2206,80.829 34.1416,81.212 C35.6736,81.519 37.2356,81.737 38.8236,81.862 C39.9936,81.954 41.0006,81.036 41.0006,79.863 L41.0006,68.146 C41.0006,66.402 39.5166,65.018 37.7776,65.146"/>
      <path fill="#72767D" d="M37.2161,43 L22.7371,43 C20.3291,43 18.5491,44.96 18.7471,47.359 C19.2161,53.056 20.4341,58.7 22.4021,64.129 C22.7551,65.105 23.8151,65.614 24.8181,65.342 C29.2181,64.148 33.7071,63.404 38.2221,63.11 C39.7891,63.008 41.0001,61.696 41.0001,60.125 L41.0001,48.304 L37.9251,44.513 C37.5621,44.065 37.3271,43.544 37.2161,43"/>
      <path fill="#4F545C" d="M20.431 64.5571C18.371 58.7971 17.126 52.8051 16.699 46.7631 16.548 44.6511 14.826 43.0001 12.708 43.0001L4.137 43.0001C2.968 43.0001 2.045 44.0001 2.137 45.1661 2.888 54.7031 6.993 63.3071 13.278 69.7981 13.376 69.6361 13.506 69.4911 13.692 69.4041 15.511 68.5511 17.36 67.7901 19.23 67.1091 20.258 66.7351 20.8 65.5871 20.431 64.5571M22.639 69.9775C22.205 69.0365 21.139 68.5495 20.163 68.9005 18.305 69.5685 16.469 70.3185 14.663 71.1615 17.698 74.0085 21.173 76.3895 24.977 78.1875 25.883 78.6155 26.789 77.6255 26.266 76.7705 24.916 74.5655 23.708 72.2965 22.639 69.9775"/>
      <mask id="b" fill="white">
        <use xlink:href="#a"/>
      </mask>
      <path fill="#202225" d="M4.137,43 L12.708,43 C14.825,43 16.548,44.651 16.699,46.763 C17.126,52.805 18.371,58.797 20.431,64.557 C20.8,65.587 20.258,66.735 19.23,67.109 C17.36,67.79 15.511,68.551 13.692,69.404 C13.506,69.491 13.376,69.636 13.278,69.798 C6.993,63.307 2.888,54.703 2.137,45.167 C2.045,44 2.968,43 4.137,43 M22.46,14.398 C22.036,15.334 20.988,15.827 20.015,15.498 C18.086,14.845 16.179,14.105 14.302,13.264 L14.243,13.238 C17.385,10.206 21.018,7.679 25.011,5.796 C25.9,5.377 26.779,6.39 26.266,7.227 C24.841,9.552 23.573,11.948 22.46,14.398 M12.707,41 L4.138,41 C2.964,41 2.045,39.994 2.138,38.824 C2.868,29.562 6.764,21.179 12.746,14.759 L13.485,15.089 C15.324,15.913 17.192,16.643 19.079,17.292 C20.108,17.645 20.659,18.782 20.299,19.808 C18.318,25.455 17.117,31.32 16.699,37.233 C16.549,39.347 14.825,41 12.707,41 M24.977,78.188 C21.173,76.39 17.698,74.008 14.663,71.162 C16.469,70.319 18.305,69.569 20.163,68.901 C21.139,68.55 22.205,69.036 22.639,69.978 C23.708,72.297 24.916,74.565 26.266,76.771 C26.789,77.626 25.883,78.616 24.977,78.188 M41,68.146 L41,79.863 C41,81.036 39.993,81.954 38.824,81.862 C37.236,81.737 35.673,81.519 34.142,81.212 C32.221,80.829 30.544,79.656 29.45,78.03 C27.69,75.412 26.144,72.69 24.808,69.889 C24.258,68.735 24.896,67.378 26.134,67.059 C29.964,66.072 33.861,65.435 37.778,65.146 C39.517,65.018 41,66.402 41,68.146 M49.642,81.259 C48.18,81.543 46.689,81.745 45.175,81.863 C44.005,81.955 43,81.037 43,79.864 L43,68.062 C43,66.348 44.433,64.968 46.144,65.06 C47.545,65.135 48.945,65.255 50.341,65.419 L50.448,63.417 C48.921,63.241 47.392,63.115 45.86,63.042 C44.259,62.966 43,61.654 43,60.052 L43,50.77 L41,48.304 L41,60.125 C41,61.696 39.789,63.008 38.222,63.11 C33.707,63.404 29.218,64.148 24.818,65.342 C23.815,65.614 22.755,65.106 22.402,64.129 C20.435,58.701 19.216,53.056 18.747,47.359 C18.55,44.96 20.329,43 22.737,43 L37.216,43 C37.096,42.414 37.119,41.8 37.311,41.209 C37.335,41.135 37.38,41.072 37.409,41 L22.737,41 C20.332,41 18.55,39.042 18.746,36.646 C19.205,31.06 20.385,25.525 22.284,20.194 C22.63,19.223 23.674,18.708 24.674,18.96 C28.67,19.969 32.732,20.609 36.814,20.882 C37.472,20.113 38.28,19.471 39.2,19.001 C34.778,18.856 30.367,18.268 26.033,17.234 C24.776,16.935 24.116,15.571 24.665,14.403 C26.063,11.435 27.699,8.553 29.573,5.789 C30.592,4.284 32.14,3.199 33.92,2.833 C35.522,2.502 37.158,2.269 38.824,2.138 C39.993,2.046 41,2.964 41,4.137 L41,18.264 L43,17.514 L43,4.137 C43,2.964 44.006,2.046 45.176,2.138 C46.841,2.269 48.478,2.503 50.08,2.833 C51.858,3.198 53.406,4.281 54.424,5.783 C55.904,7.966 57.235,10.222 58.418,12.537 C59.308,12.612 60.171,12.838 60.974,13.2 C60.003,11.168 58.925,9.176 57.737,7.234 C57.213,6.377 58.118,5.385 59.026,5.814 C62.828,7.611 66.303,9.992 69.337,12.838 C68.017,13.455 66.677,14.011 65.329,14.535 C66.077,14.833 66.743,15.307 67.267,15.921 C68.287,15.501 69.304,15.067 70.309,14.596 C70.493,14.509 70.623,14.364 70.722,14.202 C71.115,14.607 71.5,15.019 71.875,15.441 C72.275,15.287 72.694,15.18 73.137,15.18 C73.639,15.18 74.115,15.307 74.557,15.503 C66.118,5.153 52.858,-1.117 38.232,0.166 C17.921,1.946 1.647,18.444 0.121,38.776 C-1.725,63.384 17.776,84 42,84 C44.994,84 47.915,83.679 50.735,83.08 C50.188,82.591 49.802,81.964 49.642,81.259" mask="url(#b)"/>
      <path fill="#202225" d="M41.2864 37.8394C41.2704 37.8194 41.2524 37.8004 41.2364 37.7804 41.2524 37.8014 41.2704 37.8194 41.2864 37.8394M63.7503 16.1914C63.8733 16.2014 63.9943 16.2174 64.1133 16.2424 63.9943 16.2174 63.8733 16.2014 63.7503 16.1914M63.5267 16.1743C63.4267 16.1743 63.3267 16.1903 63.2267 16.2013 63.3507 16.1883 63.4737 16.1763 63.5967 16.1793 63.5737 16.1793 63.5497 16.1743 63.5267 16.1743M64.2776 16.2798C64.4026 16.3128 64.5236 16.3558 64.6426 16.4048 64.5236 16.3558 64.4026 16.3128 64.2776 16.2798M62.5042 16.3604C62.6832 16.2934 62.8642 16.2484 63.0462 16.2174 62.8642 16.2484 62.6842 16.2934 62.5042 16.3604M39.7923 20.9507C39.8453 20.9207 39.8973 20.8907 39.9513 20.8627 39.8973 20.8907 39.8453 20.9207 39.7923 20.9507M64.7591 16.4507C64.9111 16.5217 65.0581 16.6057 65.1961 16.7027 65.0581 16.6057 64.9111 16.5217 64.7591 16.4507M62.1448 16.4951C62.1448 16.4951 62.1438 16.4951 62.1438 16.4951L62.1438 16.4951 62.1448 16.4951z"/>
      <path fill="#FFFFFF" d="M27.9075 57.5146C28.9755 57.5146 29.8445 58.3836 29.8445 59.4516 29.8445 60.5196 28.9755 61.3886 27.9075 61.3886 26.8395 61.3886 25.9705 60.5196 25.9705 59.4516 25.9705 58.3836 26.8395 57.5146 27.9075 57.5146M27.9075 62.3886C29.5265 62.3886 30.8455 61.0716 30.8455 59.4516 30.8455 57.8316 29.5265 56.5146 27.9075 56.5146 26.2875 56.5146 24.9695 57.8316 24.9695 59.4516 24.9695 61.0716 26.2875 62.3886 27.9075 62.3886M12.2103 58.5273C12.2103 58.8033 12.4343 59.0273 12.7103 59.0273 12.9863 59.0273 13.2103 58.8033 13.2103 58.5273 13.2103 57.4573 14.0773 56.5903 15.1483 56.5903 15.4243 56.5903 15.6483 56.3663 15.6483 56.0903 15.6483 55.8143 15.4243 55.5903 15.1483 55.5903 14.0773 55.5903 13.2103 54.7233 13.2103 53.6533L13.2103 53.6523C13.2103 53.3763 12.9863 53.1523 12.7103 53.1523 12.4343 53.1523 12.2103 53.3763 12.2103 53.6523L12.2103 53.6533C12.2103 54.7233 11.3433 55.5903 10.2733 55.5903 9.9973 55.5903 9.7733 55.8143 9.7733 56.0903 9.7733 56.3663 9.9973 56.5903 10.2733 56.5903 11.3433 56.5903 12.2103 57.4573 12.2103 58.5273M6.22 71.7803L5.283 71.7803C4.731 71.7803 4.283 71.3323 4.283 70.7803L4.283 69.8433C4.283 69.5663 4.059 69.3423 3.782 69.3423 3.506 69.3423 3.282 69.5663 3.282 69.8433L3.282 70.7803C3.282 71.3323 2.835 71.7803 2.282 71.7803L1.346 71.7803C1.07 71.7803.846 72.0043.846 72.2803.846 72.5563 1.07 72.7803 1.346 72.7803L2.282 72.7803C2.835 72.7803 3.282 73.2283 3.282 73.7803L3.282 74.7173C3.282 74.9933 3.506 75.2173 3.782 75.2173 4.059 75.2173 4.283 74.9933 4.283 74.7173L4.283 73.7803C4.283 73.2283 4.731 72.7803 5.283 72.7803L6.22 72.7803C6.496 72.7803 6.72 72.5563 6.72 72.2803 6.72 72.0043 6.496 71.7803 6.22 71.7803"/>
      <path fill="#FFD773" d="M61.139 35.8701C61.092 35.8341 61.043 35.8031 60.999 35.7641 61.044 35.8031 61.092 35.8341 61.139 35.8701M54.0882 40.0312C54.4872 40.5922 54.6212 41.2612 54.5162 41.8902 54.6212 41.2612 54.4872 40.5922 54.0892 40.0312L52.5532 37.8742 55.5852 36.7372 52.5532 37.8742 54.0882 40.0312z"/>
      <polygon fill="#FFD773" points="47.72 39.678 47.72 39.678 49.07 41.573"/>
      <path fill="#FFD773" d="M45.8138 40C45.8218 40 45.8288 39.998 45.8358 39.998 45.8228 39.998 45.8078 39.999 45.7938 39.998 45.8008 39.998 45.8078 40 45.8138 40M50.5491 43.4443C50.5031 43.4083 50.4541 43.3773 50.4101 43.3383 50.4541 43.3773 50.5021 43.4083 50.5491 43.4443M52.5325 43.9175C52.4245 43.9385 52.3145 43.9515 52.2055 43.9575 52.3145 43.9505 52.4245 43.9385 52.5325 43.9175"/>
      <path fill="#FFD773" d="M94.4691,58.4521 L106.7961,43.2531 C107.1271,42.8461 107.2241,42.3261 107.0621,41.8271 C106.9001,41.3281 106.5161,40.9641 106.0091,40.8291 L87.1021,35.7791 C86.2581,35.5531 85.5321,35.0261 85.0581,34.2941 L74.4111,17.8721 C74.1261,17.4321 73.6611,17.1801 73.1371,17.1801 C72.6131,17.1801 72.1491,17.4321 71.8631,17.8721 L69.6191,21.3331 L69.6671,21.4621 C70.3781,23.3571 69.8391,25.4191 68.4641,26.7401 C69.0031,29.0181 68.4931,31.4111 67.0831,33.2681 C67.3121,34.8901 66.6401,36.5741 65.2531,37.5611 C64.4881,38.1061 63.5881,38.3931 62.6511,38.3931 C61.5711,38.3931 60.5371,38.0041 59.7321,37.3171 L55.6911,38.8331 L55.7181,38.8711 C56.4131,39.8491 56.6871,41.0391 56.4881,42.2221 C56.2881,43.4051 55.6411,44.4401 54.6631,45.1361 C53.8981,45.6801 52.9981,45.9681 52.0611,45.9681 C50.6091,45.9681 49.2401,45.2631 48.4001,44.0811 L46.8671,41.9291 C46.5191,41.9761 46.1671,42.0001 45.8141,42.0001 C44.1681,42.0001 42.6081,41.4631 41.3131,40.5491 L40.2661,40.8291 C39.7591,40.9641 39.3751,41.3281 39.2131,41.8271 C39.0511,42.3261 39.1481,42.8461 39.4781,43.2531 L51.8061,58.4521 C52.3561,59.1301 52.6331,59.9831 52.5861,60.8551 L51.5471,80.3981 C51.5201,80.9211 51.7461,81.3981 52.1711,81.7071 C52.5961,82.0151 53.1191,82.0841 53.6101,81.8961 L71.8741,74.8691 C72.6891,74.5541 73.5851,74.5541 74.4011,74.8691 L92.6651,81.8961 C93.1561,82.0841 93.6801,82.0151 94.1041,81.7071 C94.5281,81.3981 94.7551,80.9211 94.7281,80.3971 L93.6881,60.8551 C93.6421,59.9831 93.9191,59.1301 94.4691,58.4521"/>
      <path fill="#FFD773" d="M51.0374 43.7383C50.9774 43.7113 50.9194 43.6843 50.8624 43.6523 50.9204 43.6843 50.9774 43.7113 51.0374 43.7383M52.9749 43.7856C52.8769 43.8246 52.7779 43.8586 52.6759 43.8846 52.7779 43.8586 52.8769 43.8256 52.9749 43.7856M52.0609 43.9683C52.0729 43.9683 52.0829 43.9663 52.0949 43.9663 52.0459 43.9663 51.9979 43.9573 51.9489 43.9553 51.9869 43.9573 52.0229 43.9683 52.0609 43.9683M51.554 43.9087C51.492 43.8957 51.432 43.8777 51.371 43.8597 51.433 43.8777 51.492 43.8957 51.554 43.9087M66.5228 27.249C66.5378 27.312 66.5498 27.375 66.5628 27.439 66.5498 27.375 66.5378 27.312 66.5228 27.249M64.7405 35.248C64.6885 35.328 64.6285 35.402 64.5665 35.476 64.6275 35.401 64.6895 35.328 64.7405 35.248M62.6507 36.3936C62.6617 36.3936 62.6727 36.3916 62.6847 36.3916 62.6357 36.3916 62.5877 36.3826 62.5387 36.3806 62.5767 36.3826 62.6127 36.3936 62.6507 36.3936M64.9456 34.8501C64.9186 34.9161 64.8836 34.9791 64.8506 35.0441 64.8836 34.9791 64.9186 34.9161 64.9456 34.8501M61.6273 36.1636C61.5673 36.1376 61.5093 36.1096 61.4513 36.0786 61.5093 36.1096 61.5673 36.1366 61.6273 36.1636M63.5657 36.2109C63.4667 36.2509 63.3667 36.2839 63.2647 36.3099 63.3667 36.2839 63.4667 36.2509 63.5657 36.2109M63.1224 36.3428C63.0144 36.3638 62.9044 36.3768 62.7954 36.3828 62.9044 36.3768 63.0144 36.3638 63.1224 36.3428M62.1429 36.3345C62.0809 36.3215 62.0219 36.3035 61.9609 36.2855 62.0219 36.3035 62.0809 36.3215 62.1429 36.3345M63.6937 36.1597C63.8307 36.0967 63.9647 36.0227 64.0927 35.9317 64.2267 35.8367 64.3467 35.7287 64.4567 35.6147 64.3467 35.7287 64.2267 35.8367 64.0927 35.9317 63.9647 36.0227 63.8307 36.0967 63.6937 36.1597M60.5775 35.29L60.6185 35.347 60.5775 35.29zM65.0325 34.5864C65.0475 34.5354 65.0625 34.4844 65.0735 34.4334 65.0615 34.4844 65.0475 34.5354 65.0325 34.5864M66.3021 26.4897C66.3011 26.4887 66.3011 26.4877 66.3011 26.4867L66.2921 26.4647 66.3011 26.4867C66.3011 26.4877 66.3011 26.4887 66.3021 26.4897M53.5013 43.5073C53.3743 43.5973 53.2403 43.6703 53.1053 43.7343 53.2403 43.6703 53.3743 43.5973 53.5013 43.5073M66.6517 28.9634C66.6477 29.0254 66.6417 29.0864 66.6347 29.1484 66.6417 29.0864 66.6477 29.0254 66.6517 28.9634M65.1273 34.0088C65.1253 34.0448 65.1223 34.0798 65.1193 34.1158 65.1223 34.0798 65.1253 34.0448 65.1273 34.0088M65.0179 33.1685C65.0209 33.1775 65.0239 33.1865 65.0269 33.1955 65.0239 33.1865 65.0209 33.1775 65.0179 33.1685M65.1087 33.5845C65.1107 33.6055 65.1137 33.6275 65.1167 33.6485 65.1137 33.6275 65.1117 33.6055 65.1087 33.5845M66.2874 30.6035C66.2664 30.6595 66.2434 30.7155 66.2214 30.7715 66.2434 30.7155 66.2664 30.6605 66.2874 30.6035M65.4759 32.0669C65.4399 32.1149 65.4019 32.1619 65.3639 32.2089 65.4019 32.1619 65.4389 32.1149 65.4759 32.0669"/>
      <path fill="#8BA4E8" d="M54.0882 40.0312L52.5532 37.8742 47.8662 39.6322C47.8172 39.6502 47.7692 39.6612 47.7202 39.6782L49.0692 41.5732 50.0282 42.9212C50.1412 43.0792 50.2712 43.2152 50.4102 43.3382 50.4542 43.3772 50.5032 43.4082 50.5492 43.4442 50.6502 43.5212 50.7522 43.5922 50.8622 43.6522 50.9192 43.6842 50.9782 43.7112 51.0372 43.7382 51.1472 43.7872 51.2572 43.8272 51.3712 43.8602 51.4322 43.8772 51.4922 43.8962 51.5542 43.9082 51.6842 43.9362 51.8162 43.9492 51.9482 43.9552 51.9972 43.9572 52.0462 43.9662 52.0952 43.9662 52.1322 43.9652 52.1682 43.9592 52.2052 43.9572 52.3152 43.9512 52.4242 43.9382 52.5322 43.9172 52.5802 43.9082 52.6282 43.8962 52.6762 43.8842 52.7772 43.8582 52.8772 43.8242 52.9752 43.7852 53.0192 43.7682 53.0622 43.7532 53.1052 43.7342 53.2402 43.6702 53.3742 43.5972 53.5012 43.5072 53.5012 43.5072 53.5032 43.5072 53.5032 43.5062 53.9242 43.2072 54.2242 42.8012 54.3922 42.3512 54.4472 42.2012 54.4892 42.0472 54.5162 41.8902 54.6212 41.2612 54.4872 40.5922 54.0882 40.0312M62.887 33.998L60.338 34.954 60.577 35.29 60.618 35.347C60.731 35.504 60.861 35.641 60.999 35.764 61.043 35.803 61.092 35.834 61.139 35.87 61.24 35.947 61.342 36.018 61.451 36.078 61.509 36.109 61.568 36.137 61.627 36.164 61.736 36.213 61.847 36.253 61.961 36.286 62.022 36.303 62.081 36.322 62.143 36.334 62.274 36.361 62.406 36.374 62.538 36.381 62.587 36.383 62.636 36.392 62.685 36.391 62.722 36.391 62.758 36.385 62.795 36.383 62.905 36.376 63.014 36.364 63.122 36.343 63.17 36.333 63.217 36.322 63.265 36.31 63.366 36.284 63.467 36.25 63.566 36.211 63.609 36.194 63.652 36.179 63.694 36.16 63.83 36.096 63.965 36.023 64.093 35.932 64.227 35.836 64.347 35.729 64.456 35.614 64.497 35.57 64.53 35.521 64.567 35.476 64.628 35.402 64.689 35.328 64.741 35.248 64.783 35.183 64.815 35.113 64.851 35.044 64.884 34.979 64.918 34.916 64.946 34.85 64.981 34.764 65.007 34.676 65.033 34.586 65.047 34.536 65.062 34.485 65.074 34.433 65.097 34.328 65.11 34.223 65.119 34.116 65.122 34.08 65.125 34.044 65.127 34.009 65.132 33.889 65.128 33.769 65.116 33.648 65.114 33.627 65.111 33.606 65.109 33.584 65.091 33.453 65.065 33.324 65.027 33.196 65.024 33.186 65.021 33.178 65.018 33.168 64.976 33.032 64.923 32.899 64.856 32.769L64.856 32.768C64.305 33.291 63.643 33.714 62.887 33.998M63.2278 18.2939L66.0878 25.9199C66.6538 25.7079 67.1148 25.3379 67.4398 24.8799 67.6578 24.5749 67.8138 24.2309 67.9008 23.8659 68.0328 23.3199 68.0068 22.7299 67.7948 22.1639L66.2578 18.0669C66.1938 17.8969 66.1118 17.7379 66.0208 17.5859 65.9928 17.5399 65.9598 17.4969 65.9298 17.4519 65.8598 17.3499 65.7848 17.2519 65.7038 17.1599 65.6658 17.1169 65.6268 17.0749 65.5868 17.0349 65.4948 16.9409 65.3938 16.8559 65.2898 16.7759 65.2578 16.7519 65.2288 16.7249 65.1968 16.7029 65.0578 16.6059 64.9118 16.5219 64.7588 16.4509 64.7208 16.4329 64.6818 16.4209 64.6428 16.4049 64.5238 16.3559 64.4028 16.3129 64.2778 16.2799 64.2238 16.2649 64.1688 16.2529 64.1138 16.2419 63.9948 16.2169 63.8738 16.2009 63.7498 16.1909 63.6998 16.1879 63.6488 16.1809 63.5968 16.1799 63.4738 16.1769 63.3508 16.1889 63.2268 16.2009 63.1658 16.2079 63.1068 16.2069 63.0458 16.2169 62.8648 16.2479 62.6828 16.2939 62.5038 16.3599L62.5028 16.3609 62.1448 16.4949C62.5978 17.0119 62.9718 17.6119 63.2278 18.2939M39.9251 35.7329L40.1431 35.6509 37.2821 28.0249C37.0271 27.3429 36.9131 26.6449 36.9161 25.9579L36.0221 26.2929 35.8741 26.3479C35.8721 26.3489 35.8711 26.3509 35.8691 26.3509 35.3061 26.5639 34.8471 26.9309 34.5231 27.3869 34.1971 27.8449 34.0071 28.3929 33.9841 28.9599 33.9681 29.3389 34.0271 29.7269 34.1681 30.1039L35.7041 34.1999C35.7041 34.2009 35.7051 34.2019 35.7051 34.2019 35.7701 34.3729 35.8521 34.5309 35.9431 34.6809 35.9711 34.7279 36.0021 34.7709 36.0321 34.8159 36.1031 34.9189 36.1791 35.0169 36.2601 35.1079 36.2981 35.1509 36.3351 35.1919 36.3741 35.2329 36.4691 35.3269 36.5701 35.4129 36.6751 35.4929 36.7061 35.5169 36.7341 35.5429 36.7661 35.5649 36.9041 35.6619 37.0511 35.7459 37.2031 35.8169 37.2411 35.8349 37.2801 35.8469 37.3191 35.8619 37.4381 35.9119 37.5601 35.9549 37.6861 35.9879 37.7391 36.0029 37.7931 36.0149 37.8481 36.0259 37.9681 36.0509 38.0901 36.0669 38.2131 36.0769 38.2641 36.0809 38.3141 36.0869 38.3651 36.0879 38.4881 36.0909 38.6131 36.0799 38.7381 36.0659 38.7981 36.0609 38.8571 36.0609 38.9151 36.0509 39.0981 36.0199 39.2801 35.9749 39.4601 35.9069L39.9251 35.7329z"/>
      <path fill="#AABFF2" d="M41.7894,29.6357 C42.5404,29.3537 43.3864,29.7387 43.6674,30.4897 C43.9494,31.2397 43.5644,32.0847 42.8134,32.3667 C42.0624,32.6487 41.2184,32.2647 40.9364,31.5137 C40.6544,30.7627 41.0384,29.9177 41.7894,29.6357 M61.9324,25.1967 C61.1814,25.4777 60.3354,25.0937 60.0544,24.3437 C59.7724,23.5927 60.1564,22.7467 60.9074,22.4657 C61.6584,22.1837 62.5034,22.5677 62.7854,23.3187 C63.0664,24.0697 62.6834,24.9147 61.9324,25.1967 M55.3004,32.2587 L52.5684,33.2827 C49.5524,34.4147 46.1894,32.8857 45.0584,29.8697 L44.5464,28.5037 C43.9794,26.9957 44.7444,25.3147 46.2524,24.7487 L54.4454,21.6757 C55.9544,21.1097 57.6364,21.8737 58.2014,23.3827 L58.7134,24.7477 C59.8454,27.7647 58.3164,31.1277 55.3004,32.2587 M37.2824,28.0247 L40.1434,35.6507 L40.1544,35.6827 L40.3554,36.2187 C40.4534,36.4797 40.5734,36.7257 40.7034,36.9637 C40.7324,37.0177 40.7634,37.0717 40.7934,37.1247 C40.9294,37.3547 41.0744,37.5747 41.2364,37.7807 C41.2524,37.8007 41.2704,37.8197 41.2864,37.8397 C42.3894,39.1997 44.0514,39.9907 45.7944,39.9977 C45.8084,39.9987 45.8224,39.9977 45.8364,39.9977 C46.4624,39.9957 47.0974,39.8937 47.7204,39.6777 C47.7684,39.6617 47.8174,39.6497 47.8664,39.6317 L52.5534,37.8737 L55.5854,36.7367 L60.3384,34.9537 L62.8874,33.9977 C63.6434,33.7147 64.3054,33.2907 64.8554,32.7677 C65.0394,32.5937 65.2054,32.4047 65.3634,32.2087 C65.4014,32.1617 65.4394,32.1147 65.4764,32.0667 C65.7794,31.6677 66.0284,31.2327 66.2214,30.7717 C66.2434,30.7157 66.2664,30.6597 66.2874,30.6037 C66.4644,30.1367 66.5824,29.6487 66.6354,29.1477 C66.6424,29.0867 66.6474,29.0257 66.6514,28.9637 C66.6714,28.7117 66.6794,28.4577 66.6644,28.2017 L66.6644,28.2017 C66.6494,27.9477 66.6114,27.6937 66.5624,27.4387 C66.5504,27.3757 66.5374,27.3117 66.5224,27.2487 C66.4654,26.9947 66.3954,26.7407 66.3024,26.4897 C66.3014,26.4887 66.3014,26.4877 66.3014,26.4867 L66.2924,26.4647 L66.0884,25.9197 L63.2274,18.2937 C62.9724,17.6127 62.5984,17.0117 62.1444,16.4947 C62.1444,16.4947 62.1434,16.4947 62.1434,16.4947 C61.3204,15.5577 60.2234,14.9147 59.0214,14.6487 C58.9844,14.6407 58.9454,14.6347 58.9074,14.6277 C58.7544,14.5967 58.6014,14.5707 58.4444,14.5517 C58.3834,14.5447 58.3214,14.5407 58.2604,14.5347 C58.1254,14.5237 57.9904,14.5157 57.8554,14.5127 C57.7994,14.5117 57.7424,14.5137 57.6854,14.5147 C57.3834,14.5187 57.0804,14.5427 56.7764,14.5957 C56.7374,14.6027 56.6994,14.6127 56.6604,14.6197 C56.3444,14.6817 56.0284,14.7627 55.7174,14.8807 L40.6954,20.5137 C40.4354,20.6127 40.1884,20.7327 39.9514,20.8627 C39.8974,20.8907 39.8454,20.9207 39.7924,20.9507 C39.5614,21.0857 39.3404,21.2327 39.1344,21.3947 C39.1174,21.4067 39.1034,21.4217 39.0874,21.4347 C38.8894,21.5937 38.7054,21.7667 38.5314,21.9487 C38.5024,21.9797 38.4734,22.0097 38.4434,22.0407 C38.2624,22.2397 38.0934,22.4507 37.9404,22.6727 C37.9344,22.6827 37.9274,22.6937 37.9204,22.7047 C37.7664,22.9327 37.6294,23.1707 37.5084,23.4167 C37.5044,23.4247 37.5004,23.4317 37.4964,23.4397 C37.1204,24.2177 36.9194,25.0767 36.9164,25.9567 L36.9164,25.9577 C36.9134,26.6447 37.0264,27.3437 37.2824,28.0247"/>
      <path fill="#040405" d="M63.4691,46.4521 C62.9201,47.1291 62.6421,47.9861 62.6881,48.8561 L63.7281,68.3971 C63.7551,68.9211 63.5281,69.3981 63.1041,69.7071 C62.6801,70.0151 62.1561,70.0841 61.6651,69.8961 L43.4011,62.8691 C42.5851,62.5541 41.6891,62.5541 40.8741,62.8691 L22.6101,69.8961 C22.1191,70.0841 21.5961,70.0151 21.1711,69.7071 C20.7461,69.3981 20.5201,68.9211 20.5471,68.3981 L21.5861,48.8551 C21.6331,47.9851 21.3551,47.1291 20.8061,46.4521 L8.4781,31.2531 C8.1481,30.8461 8.0511,30.3261 8.2131,29.8271 C8.3751,29.3281 8.7591,28.9641 9.2661,28.8291 L10.3131,28.5491 C11.6081,29.4631 13.1681,30.0001 14.8141,30.0001 C15.1671,30.0001 15.5191,29.9761 15.8671,29.9291 L17.2991,31.9411 C18.0331,32.9721 19.1281,33.7331 20.3801,33.9181 C21.5581,34.0921 22.7141,33.8111 23.6631,33.1361 C24.6411,32.4401 25.2881,31.4051 25.4881,30.2221 C25.5371,29.9261 25.5131,29.5661 25.4481,29.1931 C25.1981,27.7721 25.9361,26.3661 27.2861,25.8591 L27.3401,25.8391 C28.0751,25.5641 28.9071,25.5451 29.6071,25.9011 C30.2321,26.2201 30.9311,26.3931 31.6511,26.3931 C32.5881,26.3931 33.4881,26.1061 34.2531,25.5611 C35.6401,24.5741 36.3121,22.8901 36.0831,21.2681 C37.4931,19.4111 38.0031,17.0181 37.4641,14.7401 C38.8391,13.4191 39.3781,11.3571 38.6671,9.4621 L38.6191,9.3331 L40.8631,5.8721 C41.1491,5.4321 41.6131,5.1801 42.1371,5.1801 C42.6611,5.1801 43.1261,5.4321 43.4111,5.8721 L54.0581,22.2941 C54.5311,23.0251 55.2591,23.5541 56.1011,23.7781 L75.0091,28.8291 C75.5161,28.9641 75.9001,29.3281 76.0621,29.8271 C76.2241,30.3261 76.1271,30.8461 75.7961,31.2531 L63.4691,46.4521 Z M8.4601,23.9071 C8.2811,23.9741 8.0981,24.0201 7.9151,24.0511 C7.8571,24.0601 7.7981,24.0601 7.7391,24.0661 C7.6381,24.0771 7.5361,24.0941 7.4361,24.0941 C7.4121,24.0941 7.3891,24.0891 7.3651,24.0881 C7.3141,24.0871 7.2641,24.0801 7.2131,24.0771 C7.0901,24.0671 6.9681,24.0511 6.8481,24.0261 C6.7931,24.0151 6.7401,24.0031 6.6861,23.9881 C6.5601,23.9551 6.4381,23.9121 6.3191,23.8621 C6.2811,23.8471 6.2411,23.8341 6.2031,23.8171 C6.0511,23.7461 5.9051,23.6621 5.7661,23.5651 C5.7341,23.5431 5.7061,23.5161 5.6751,23.4931 C5.5701,23.4131 5.4691,23.3271 5.3741,23.2321 C5.3351,23.1921 5.2981,23.1511 5.2601,23.1081 C5.1781,23.0161 5.1031,22.9191 5.0321,22.8151 C5.0021,22.7711 4.9711,22.7281 4.9431,22.6811 C4.8521,22.5311 4.7701,22.3731 4.7051,22.2021 C4.7051,22.2021 4.7041,22.2011 4.7041,22.2001 L3.1681,18.1031 C3.0271,17.7261 2.9681,17.3391 2.9841,16.9601 C3.0071,16.3921 3.1981,15.8451 3.5231,15.3871 C3.8471,14.9311 4.3061,14.5631 4.8691,14.3511 C4.8711,14.3501 4.8721,14.3491 4.8751,14.3481 L5.0221,14.2931 L5.9161,13.9571 L5.9161,13.9571 C5.9191,13.0771 6.1201,12.2181 6.4961,11.4391 C6.5001,11.4321 6.5041,11.4251 6.5081,11.4171 C6.6291,11.1701 6.7661,10.9321 6.9201,10.7041 C6.9271,10.6941 6.9341,10.6821 6.9411,10.6721 C7.0931,10.4511 7.2621,10.2401 7.4441,10.0411 C7.4731,10.0101 7.5021,9.9791 7.5311,9.9491 C7.7051,9.7671 7.8891,9.5941 8.0871,9.4341 C8.1041,9.4221 8.1171,9.4071 8.1341,9.3951 C8.3401,9.2321 8.5621,9.0861 8.7921,8.9511 C8.8451,8.9201 8.8981,8.8911 8.9511,8.8621 C9.1891,8.7321 9.4351,8.6121 9.6961,8.5141 L24.7171,2.8801 C25.0291,2.7631 25.3441,2.6811 25.6601,2.6201 C25.6991,2.6131 25.7381,2.6021 25.7771,2.5961 C26.0801,2.5431 26.3831,2.5181 26.6851,2.5141 C26.7101,2.5141 26.7351,2.5081 26.7591,2.5081 C26.7911,2.5081 26.8231,2.5131 26.8561,2.5131 C26.9901,2.5151 27.1251,2.5231 27.2601,2.5351 C27.3221,2.5401 27.3831,2.5441 27.4451,2.5521 C27.6011,2.5701 27.7541,2.5971 27.9071,2.6271 C27.9461,2.6351 27.9851,2.6401 28.0221,2.6491 C29.2231,2.9151 30.3211,3.5581 31.1441,4.4941 L31.1441,4.4951 L31.5031,4.3611 L31.5041,4.3611 C31.6841,4.2931 31.8651,4.2481 32.0461,4.2171 C32.1071,4.2071 32.1661,4.2071 32.2271,4.2011 C32.3261,4.1901 32.4271,4.1741 32.5271,4.1741 C32.5501,4.1741 32.5731,4.1791 32.5971,4.1801 C32.6491,4.1811 32.6991,4.1871 32.7501,4.1911 C32.8731,4.2011 32.9941,4.2171 33.1141,4.2421 C33.1691,4.2531 33.2241,4.2651 33.2781,4.2801 C33.4031,4.3131 33.5241,4.3551 33.6431,4.4051 C33.6821,4.4211 33.7211,4.4331 33.7591,4.4511 C33.9111,4.5221 34.0581,4.6061 34.1971,4.7021 C34.2291,4.7251 34.2581,4.7521 34.2891,4.7761 C34.3941,4.8561 34.4931,4.9411 34.5871,5.0351 C34.6271,5.0751 34.6651,5.1171 34.7031,5.1601 C34.7841,5.2521 34.8601,5.3491 34.9301,5.4521 C34.9601,5.4971 34.9921,5.5391 35.0211,5.5861 C35.1121,5.7381 35.1941,5.8961 35.2581,6.0671 L36.7951,10.1641 C37.0071,10.7301 37.0321,11.3201 36.9011,11.8661 C36.8141,12.2301 36.6571,12.5751 36.4401,12.8801 C36.1151,13.3381 35.6541,13.7071 35.0881,13.9201 L35.2921,14.4641 L35.3011,14.4871 C35.3011,14.4881 35.3011,14.4891 35.3021,14.4901 C35.3961,14.7411 35.4651,14.9941 35.5231,15.2491 C35.5371,15.3121 35.5501,15.3751 35.5631,15.4391 C35.6121,15.6931 35.6501,15.9481 35.6641,16.2021 L35.6641,16.2021 C35.6791,16.4581 35.6711,16.7111 35.6521,16.9631 C35.6481,17.0251 35.6421,17.0861 35.6351,17.1481 C35.5821,17.6481 35.4641,18.1371 35.2871,18.6031 C35.2661,18.6601 35.2431,18.7161 35.2211,18.7711 C35.0291,19.2321 34.7801,19.6671 34.4761,20.0671 C34.4391,20.1151 34.4021,20.1621 34.3641,20.2091 C34.2051,20.4041 34.0391,20.5941 33.8561,20.7681 L33.8561,20.7681 C33.9231,20.8991 33.9761,21.0321 34.0181,21.1681 C34.0211,21.1781 34.0241,21.1861 34.0271,21.1961 C34.0651,21.3241 34.0911,21.4531 34.1091,21.5841 C34.1121,21.6061 34.1141,21.6271 34.1161,21.6481 C34.1281,21.7691 34.1321,21.8891 34.1271,22.0091 C34.1251,22.0451 34.1221,22.0801 34.1191,22.1161 C34.1101,22.2231 34.0971,22.3281 34.0731,22.4331 C34.0631,22.4851 34.0471,22.5351 34.0321,22.5861 C34.0071,22.6761 33.9811,22.7641 33.9461,22.8501 C33.9181,22.9161 33.8841,22.9791 33.8511,23.0441 C33.8151,23.1131 33.7821,23.1821 33.7401,23.2481 C33.6901,23.3281 33.6271,23.4011 33.5671,23.4751 C33.5301,23.5211 33.4971,23.5701 33.4561,23.6141 C33.3471,23.7291 33.2271,23.8361 33.0931,23.9311 C32.9651,24.0231 32.8301,24.0961 32.6941,24.1601 C32.6521,24.1791 32.6091,24.1941 32.5661,24.2111 C32.4671,24.2501 32.3661,24.2841 32.2651,24.3101 C32.2171,24.3221 32.1701,24.3331 32.1221,24.3431 C32.0141,24.3641 31.9051,24.3761 31.7951,24.3831 C31.7581,24.3851 31.7221,24.3901 31.6851,24.3911 C31.6731,24.3911 31.6611,24.3931 31.6511,24.3931 C31.6131,24.3931 31.5761,24.3821 31.5381,24.3811 C31.4061,24.3741 31.2741,24.3611 31.1431,24.3341 C31.0811,24.3221 31.0221,24.3031 30.9611,24.2851 C30.8471,24.2531 30.7361,24.2131 30.6271,24.1631 C30.5681,24.1371 30.5091,24.1091 30.4511,24.0781 C30.3421,24.0181 30.2401,23.9471 30.1391,23.8701 C30.0921,23.8341 30.0441,23.8031 29.9991,23.7641 C29.8611,23.6401 29.7311,23.5041 29.6181,23.3471 L29.5771,23.2901 L29.3381,22.9541 L24.5851,24.7371 L21.5531,25.8741 L23.0891,28.0311 C23.4881,28.5921 23.6211,29.2611 23.5161,29.8901 C23.4901,30.0471 23.4481,30.2021 23.3921,30.3511 C23.2241,30.8011 22.9241,31.2071 22.5031,31.5061 C22.5031,31.5071 22.5021,31.5071 22.5021,31.5071 C22.3741,31.5981 22.2401,31.6701 22.1051,31.7341 C22.0621,31.7531 22.0191,31.7681 21.9751,31.7851 C21.8771,31.8251 21.7781,31.8581 21.6761,31.8841 C21.6281,31.8961 21.5801,31.9081 21.5321,31.9171 C21.4241,31.9381 21.3151,31.9511 21.2051,31.9571 C21.1681,31.9591 21.1321,31.9651 21.0951,31.9661 C21.0831,31.9661 21.0731,31.9681 21.0611,31.9681 C21.0231,31.9681 20.9871,31.9571 20.9481,31.9551 C20.8161,31.9491 20.6841,31.9361 20.5541,31.9091 C20.4911,31.8961 20.4331,31.8771 20.3711,31.8601 C20.2571,31.8271 20.1471,31.7871 20.0371,31.7381 C19.9781,31.7111 19.9201,31.6841 19.8631,31.6521 C19.7521,31.5921 19.6501,31.5211 19.5491,31.4441 C19.5021,31.4091 19.4541,31.3771 19.4101,31.3381 C19.2711,31.2151 19.1411,31.0791 19.0291,30.9211 L18.0701,29.5731 L16.7201,27.6781 C16.0971,27.8931 15.4621,27.9961 14.8361,27.9981 C14.8281,27.9981 14.8221,28.0001 14.8141,28.0001 C14.8081,28.0001 14.8011,27.9981 14.7941,27.9981 C13.0511,27.9911 11.3891,27.2001 10.2861,25.8391 C10.2711,25.8191 10.2521,25.8011 10.2371,25.7811 C10.0741,25.5751 9.9291,25.3541 9.7931,25.1241 C9.7631,25.0721 9.7341,25.0181 9.7031,24.9641 C9.5731,24.7251 9.4531,24.4791 9.3561,24.2181 L9.1551,23.6831 L9.1431,23.6511 L8.9251,23.7331 L8.4601,23.9071 Z M77.2731,32.6081 C77.8611,31.8841 78.2071,30.9661 78.1291,30.0361 C78.0001,28.4981 76.9481,27.2771 75.5261,26.8961 L56.6171,21.8471 C56.2541,21.7491 55.9401,21.5211 55.7361,21.2051 L45.0891,4.7841 C44.7111,4.2001 44.1701,3.7751 43.5571,3.5031 C43.1151,3.3061 42.6391,3.1801 42.1371,3.1801 C41.6941,3.1801 41.2751,3.2861 40.8751,3.4411 C40.1961,3.7031 39.5951,4.1511 39.1851,4.7841 C38.5781,5.7201 37.1801,5.6431 36.6831,4.6451 C36.5141,4.3061 36.3641,4.0341 36.2671,3.9211 C35.7431,3.3061 35.0771,2.8331 34.3291,2.5351 C33.7631,2.3091 33.1571,2.1741 32.5271,2.1741 C32.2411,2.1741 31.9591,2.1991 31.6801,2.2481 C31.1561,1.8251 30.5821,1.4741 29.9741,1.2001 C29.1711,0.8381 28.3081,0.6121 27.4181,0.5361 C27.1991,0.5181 26.9801,0.5081 26.7591,0.5081 C25.8251,0.5081 24.8991,0.6761 24.0241,1.0041 L12.0001,5.5141 L10.0001,6.2641 L8.9931,6.6411 C8.7191,6.7441 8.4571,6.8691 8.2001,7.0011 C7.2801,7.4711 6.4721,8.1131 5.8141,8.8821 C4.9311,9.9141 4.3141,11.1661 4.0541,12.5211 C2.6711,13.0801 1.6251,14.2191 1.1821,15.6871 C0.8571,16.7631 0.9651,17.9241 1.3601,18.9761 L2.7531,22.6931 C3.2001,23.8861 4.0481,24.8991 5.1281,25.5001 C6.3401,26.1741 6.9171,27.6761 6.4211,28.9701 C6.4171,28.9801 6.4131,28.9901 6.4091,29.0001 C6.3801,29.0721 6.3351,29.1351 6.3111,29.2091 C6.1191,29.8001 6.0961,30.4141 6.2161,31.0001 C6.3271,31.5441 6.5621,32.0651 6.9251,32.5131 L10.0001,36.3041 L12.0001,38.7701 L19.2521,47.7121 C19.4901,48.0041 19.6101,48.3731 19.5891,48.7491 L18.5501,68.2911 C18.5321,68.6221 18.5711,68.9451 18.6421,69.2591 C18.8021,69.9641 19.1881,70.5911 19.7351,71.0801 C19.8231,71.1601 19.8981,71.2531 19.9951,71.3251 C20.6081,71.7691 21.3291,71.9981 22.0611,71.9981 C22.4871,71.9981 22.9161,71.9211 23.3271,71.7621 L41.5921,64.7351 C41.9441,64.6001 42.3301,64.6001 42.6831,64.7351 L60.9481,71.7621 C62.3231,72.2931 63.8961,71.9211 64.9031,70.7491 C65.5111,70.0411 65.7671,69.0941 65.7181,68.1621 L64.6851,48.7491 C64.6651,48.3741 64.7851,48.0041 65.0221,47.7131 L77.2731,32.6081 Z" transform="translate(31 12)"/>
      <path fill="#040405" d="M61.9319 25.1963C62.6829 24.9153 63.0669 24.0703 62.7859 23.3193 62.5029 22.5683 61.6589 22.1833 60.9079 22.4653 60.1569 22.7473 59.7729 23.5923 60.0539 24.3433 60.3349 25.0943 61.1809 25.4783 61.9319 25.1963M42.8138 32.3672C43.5648 32.0852 43.9498 31.2402 43.6678 30.4892 43.3858 29.7382 42.5408 29.3542 41.7898 29.6362 41.0388 29.9172 40.6548 30.7632 40.9368 31.5132 41.2178 32.2642 42.0628 32.6482 42.8138 32.3672"/>
      <path fill="#CBDAF7" d="M55.8978,29.6982 L54.5318,30.2102 C54.1548,30.3522 53.7348,30.1602 53.5928,29.7832 C53.4518,29.4062 53.6428,28.9862 54.0198,28.8442 L55.3848,28.3322 C55.7618,28.1912 56.1828,28.3822 56.3248,28.7592 C56.4648,29.1362 56.2748,29.5562 55.8978,29.6982 L55.8978,29.6982 Z M51.6298,31.2992 L50.2648,31.8112 C49.8868,31.9522 49.4668,31.7612 49.3258,31.3842 C49.1838,31.0072 49.3758,30.5872 49.7518,30.4452 L51.1178,29.9332 C51.4958,29.7922 51.9158,29.9832 52.0568,30.3602 C52.1988,30.7372 52.0068,31.1572 51.6298,31.2992 L51.6298,31.2992 Z M58.2018,23.3822 C57.6358,21.8742 55.9548,21.1102 54.4458,21.6762 L46.2518,24.7482 C44.7448,25.3142 43.9798,26.9952 44.5458,28.5042 L45.0578,29.8692 C46.1898,32.8862 49.5518,34.4142 52.5688,33.2832 L55.2998,32.2592 C58.3168,31.1272 59.8448,27.7642 58.7128,24.7482 L58.2018,23.3822 Z"/>
      <path fill="#AABFF2" d="M55.3851 28.3325L54.0201 28.8445C53.6431 28.9865 53.4511 29.4065 53.5931 29.7835 53.7351 30.1605 54.1551 30.3525 54.5311 30.2105L55.8981 29.6985C56.2751 29.5565 56.4651 29.1365 56.3241 28.7595 56.1831 28.3825 55.7621 28.1915 55.3851 28.3325M51.1175 29.9331L49.7525 30.4451C49.3755 30.5871 49.1835 31.0071 49.3255 31.3841 49.4675 31.7611 49.8875 31.9521 50.2645 31.8111L51.6305 31.2991C52.0075 31.1571 52.1985 30.7371 52.0565 30.3601 51.9155 29.9831 51.4955 29.7921 51.1175 29.9331"/>
      <path fill="#FFFFFF" d="M95.2571 15.001C95.1481 15.001 95.0371 14.965 94.9451 14.891 94.7301 14.718 94.6951 14.403 94.8681 14.188L95.7991 13.029C95.9731 12.814 96.2871 12.78 96.5021 12.953 96.7171 13.126 96.7511 13.44 96.5781 13.655L95.6481 14.814C95.5491 14.937 95.4031 15.001 95.2571 15.001M90.5716 19.8423C90.4616 19.8423 90.3506 19.8063 90.2596 19.7323 90.0436 19.5593 90.0096 19.2443 90.1816 19.0293L91.1136 17.8703C91.2866 17.6553 91.6016 17.6213 91.8156 17.7943 92.0316 17.9673 92.0656 18.2813 91.8926 18.4963L90.9616 19.6553C90.8626 19.7783 90.7176 19.8423 90.5716 19.8423M96.3802 19.6953C96.2442 19.6953 96.1092 19.6403 96.0102 19.5303L95.0042 18.4213C94.8182 18.2163 94.8342 17.9003 95.0392 17.7153 95.2442 17.5293 95.5602 17.5443 95.7452 17.7503L96.7512 18.8603C96.9372 19.0643 96.9212 19.3803 96.7162 19.5663 96.6202 19.6523 96.5002 19.6953 96.3802 19.6953M91.386 15.0991C91.249 15.0991 91.114 15.0441 91.015 14.9341L90.01 13.8251C89.824 13.6201 89.84 13.3041 90.045 13.1191 90.249 12.9331 90.565 12.9491 90.751 13.1541L91.756 14.2641C91.942 14.4681 91.926 14.7841 91.721 14.9701 91.625 15.0561 91.505 15.0991 91.386 15.0991"/>
    </g>
    <rect width="140" height="96"/>
  </g>
</svg>
