<svg width="357" height="172" viewBox="0 0 357 172" fill="none" xmlns="http://www.w3.org/2000/svg">
<g clip-path="url(#clip0)">
<path opacity="0.5" d="M262.734 162.644C262.161 130.757 223.851 83.5934 174.532 99.3145C154.55 6.77028 11.3028 1.10559 4.87543 126.683C-42.2162 120.382 -112.217 127.383 -117.181 192.495C-143.972 193.068 -177.191 196.25 -184 229.92H174.532L403.245 229.729C374.799 180.911 346.862 142.786 262.734 162.644Z" fill="#82A5FF"/>
<g clip-path="url(#clip1)">
<path d="M146.003 124.046H108.496V188.455H146.003V124.046Z" fill="#FFF0DB"/>
<path d="M141.743 188.452H169.142V114.061H141.743V188.452Z" fill="#FFF0DB"/>
<path d="M139.695 178.135H152.977V157.54H139.695V178.135Z" fill="#F7E5BC"/>
<path d="M186.893 154.287H169.142V157.503H186.893V154.287Z" fill="#F7E5BC"/>
<path d="M175.575 154.287H159.328L154.441 147.104H170.354L175.575 154.287Z" fill="#F595BA"/>
<path d="M190.485 157.502H169.142V188.443H190.485V157.502Z" fill="#FFF0DB"/>
<path d="M184.552 161.722C184.929 161.722 185.29 161.871 185.557 162.138C185.823 162.404 185.972 162.765 185.972 163.142V166.901H183.132V163.142C183.132 162.765 183.282 162.404 183.548 162.138C183.815 161.871 184.176 161.722 184.552 161.722V161.722Z" fill="#FFD191"/>
<path d="M177.997 161.722C178.374 161.722 178.735 161.871 179.002 162.138C179.268 162.404 179.418 162.765 179.418 163.142V166.901H176.577V163.142C176.577 162.765 176.727 162.404 176.993 162.138C177.26 161.871 177.621 161.722 177.997 161.722V161.722Z" fill="#FFD191"/>
<path d="M171.44 161.722C171.816 161.722 172.178 161.871 172.444 162.138C172.71 162.404 172.86 162.765 172.86 163.142V166.901H170.02V163.142C170.02 162.765 170.169 162.404 170.436 162.138C170.702 161.871 171.063 161.722 171.44 161.722V161.722Z" fill="#FFD191"/>
<path d="M133.974 149.191C134.16 149.191 134.345 149.228 134.517 149.299C134.689 149.37 134.846 149.475 134.978 149.607C135.11 149.739 135.214 149.895 135.286 150.068C135.357 150.24 135.394 150.425 135.394 150.611V154.37H132.553V150.611C132.553 150.425 132.59 150.24 132.662 150.068C132.733 149.895 132.838 149.739 132.969 149.607C133.101 149.475 133.258 149.37 133.43 149.299C133.602 149.228 133.787 149.191 133.974 149.191Z" fill="#F7E5BC"/>
<path d="M133.974 165.104C134.16 165.104 134.345 165.141 134.517 165.213C134.689 165.284 134.846 165.389 134.978 165.52C135.11 165.652 135.214 165.809 135.286 165.981C135.357 166.153 135.394 166.338 135.394 166.525V170.284H132.553V166.525C132.553 166.148 132.703 165.787 132.969 165.52C133.236 165.254 133.597 165.104 133.974 165.104Z" fill="#F7E5BC"/>
<path d="M166.468 118.033H164.212V122.143H166.468V118.033Z" fill="#FFD191"/>
<path d="M158.283 118.033H156.027V122.143H158.283V118.033Z" fill="#FFD191"/>
<path d="M149.177 124.046H108.496V126.327H149.177V124.046Z" fill="#F595BA"/>
<path d="M137.189 161.261H130.757V162.201H137.189V161.261Z" fill="#BED3FF"/>
<path fill-rule="evenodd" clip-rule="evenodd" d="M154.777 99.5719C154.964 99.4537 155.183 99.3954 155.404 99.4048C155.608 99.399 155.812 99.4351 156.002 99.5107C156.192 99.5863 156.365 99.6999 156.509 99.8446C156.654 99.9893 156.768 100.162 156.843 100.352C156.919 100.542 156.955 100.746 156.949 100.95C156.951 101.165 156.909 101.379 156.824 101.577C156.545 101.64 156.254 101.627 155.982 101.539C155.71 101.451 155.467 101.29 155.278 101.075C155.067 100.893 154.909 100.658 154.82 100.393C154.732 100.128 154.717 99.8444 154.777 99.5719ZM167.558 110.14H170.19C170.708 110.128 171.21 110.317 171.591 110.668C171.973 111.018 172.204 111.503 172.236 112.02C172.248 112.284 172.205 112.549 172.111 112.796C172.018 113.044 171.875 113.271 171.692 113.462C171.508 113.653 171.288 113.805 171.044 113.909C170.8 114.013 170.538 114.066 170.273 114.066H140.577C140.312 114.066 140.05 114.013 139.806 113.909C139.562 113.805 139.342 113.653 139.158 113.462C138.975 113.271 138.832 113.044 138.739 112.796C138.645 112.549 138.603 112.284 138.614 112.02C138.646 111.503 138.877 111.018 139.259 110.668C139.64 110.317 140.143 110.128 140.66 110.14H143.292C145.704 110.132 148.016 109.171 149.724 107.467L155.404 101.745L161.126 107.467C162.834 109.171 165.146 110.132 167.558 110.14Z" fill="#BED3FF"/>
<path d="M154.441 147.104V154.371H159.328L154.441 147.104Z" fill="#F7E5BC"/>
<path fill-rule="evenodd" clip-rule="evenodd" d="M156.947 100.949C156.947 101.803 156.255 102.495 155.402 102.495C155.346 102.495 155.291 102.492 155.236 102.486L153.523 110.14H143.29C145.702 110.132 148.014 109.171 149.722 107.467L154.785 102.367C154.238 102.129 153.856 101.583 153.856 100.949C153.856 100.096 154.548 99.4038 155.402 99.4038C156.255 99.4038 156.947 100.096 156.947 100.949Z" fill="#ABC5FF"/>
<path d="M159.325 154.286H175.573L174.779 153.2H158.615L159.325 154.286Z" fill="#F08DB4"/>
<path d="M156.903 150.695H172.984L172.19 149.65H156.193L156.903 150.695Z" fill="#F08DB4"/>
<path d="M144.543 144.304C144.953 144.304 145.346 144.467 145.636 144.756C145.925 145.046 146.088 145.439 146.088 145.849V148.397H142.998V145.849C142.998 145.439 143.16 145.046 143.45 144.756C143.74 144.467 144.133 144.304 144.543 144.304V144.304Z" fill="#F7E5BC"/>
<path d="M125.247 133.612C125.523 133.612 125.789 133.722 125.985 133.918C126.181 134.113 126.291 134.379 126.291 134.656V137.663H124.202V134.614C124.213 134.345 124.328 134.09 124.523 133.903C124.717 133.716 124.977 133.612 125.247 133.612V133.612Z" fill="#F7E5BC"/>
</g>
<g clip-path="url(#clip2)">
<path d="M108.247 27.106C109.291 28.6096 109.709 31.4497 110.127 34.3734C110.544 37.2971 111.129 42.0168 110.419 45.5252L108.247 27.106Z" fill="#C2FFCE"/>
<path d="M24.6743 64.9043C23.7137 68.2457 23.4213 69.2898 24.6326 70.5428C25.8438 71.7958 24.6743 64.9043 24.6743 64.9043Z" fill="#7D9FFF"/>
<path d="M19.7869 35.2918C21.1234 32.4099 21.0817 32.2846 23.5041 31.4492L20.2881 36.0018L19.7869 35.2918Z" fill="#FF707E"/>
<path d="M123.452 102.118H-64.8337V188.279H123.452V102.118Z" fill="#FECCAF"/>
<path d="M70.1578 118.073C68.7377 128.181 66.4405 125.884 64.4357 120.955C62.4309 116.027 61.1779 110.889 61.1361 114.022C61.0943 117.154 63.6839 123.712 59.2566 127.053C54.8293 130.394 53.2839 127.471 51.5715 122.668C49.859 117.864 47.1024 113.145 45.2229 102.118H69.406C69.406 102.118 71.5778 107.966 70.1578 118.073Z" fill="#ED988D"/>
<path d="M-0.470215 157L18.2414 139.082L19.7032 154.912L-0.470215 177.508V157Z" fill="#FFC3A5"/>
<path d="M79.4727 130.311L114.599 116.236L108.417 130.311H79.4727Z" fill="#FEC6A5"/>
<path d="M123.493 102.118H-64.8337V114.815L123.493 106.295V102.118Z" fill="#ED988D"/>
<path d="M85.9885 106.003L86.3227 110.89C86.3227 110.89 107.081 109.93 113.555 106.003H85.9885Z" fill="#ED988D"/>
<path d="M101.9 105.794C102.61 108.175 103.153 108.593 105.408 109.553C107.663 110.514 111.798 112.31 107.705 104.75L101.9 105.794Z" fill="#ED988D"/>
<path d="M92.7124 109.511C93.1301 111.934 93.6313 112.435 95.7196 113.646C97.808 114.858 101.734 117.196 98.6015 109.177L92.7124 109.511Z" fill="#ED988D"/>
<path d="M123.495 139.792L76.1728 133.235L39.3761 142.047L38.0814 146.349L37.9561 102.118H32.4428V109.01H14.9007V102.118H9.3457L9.67986 188.283H15.1931V184.441H26.6372L25.4678 188.283H123.495V139.792ZM14.9007 112.268H32.4846V127.053H14.9425L14.9007 112.268ZM14.9425 130.311H32.5681V145.096H15.026L14.9425 130.311ZM15.026 148.354H32.6099V163.14H15.0678L15.026 148.354ZM15.1096 181.183V166.397H32.0669L27.6396 181.183H15.1096Z" fill="url(#paint0_linear)"/>
<path d="M88.2437 147.269C86.509 147.269 84.8132 147.783 83.3708 148.747C81.9284 149.711 80.8042 151.081 80.1403 152.684C79.4765 154.286 79.3028 156.05 79.6412 157.751C79.9796 159.453 80.815 161.016 82.0416 162.242C83.2683 163.469 84.8311 164.304 86.5326 164.643C88.234 164.981 89.9976 164.807 91.6003 164.144C93.203 163.48 94.5728 162.355 95.5366 160.913C96.5004 159.471 97.0148 157.775 97.0148 156.04C97.0148 153.714 96.0907 151.483 94.4458 149.838C92.8009 148.193 90.57 147.269 88.2437 147.269ZM88.2437 162.472C86.9716 162.472 85.728 162.095 84.6702 161.388C83.6125 160.681 82.7881 159.677 82.3012 158.502C81.8144 157.326 81.687 156.033 81.9352 154.785C82.1834 153.538 82.796 152.391 83.6955 151.492C84.5951 150.592 85.7412 149.98 86.9889 149.732C88.2366 149.483 89.5299 149.611 90.7052 150.098C91.8805 150.584 92.8851 151.409 93.5918 152.467C94.2986 153.524 94.6758 154.768 94.6758 156.04C94.6758 157.746 93.9982 159.382 92.7919 160.588C91.5857 161.795 89.9496 162.472 88.2437 162.472V162.472Z" fill="#CC8564"/>
<path d="M116.645 163.308V141.38" stroke="#612D46" stroke-width="3.34136" stroke-miterlimit="10" stroke-linecap="round"/>
<path d="M55.916 163.308V141.38" stroke="#612D46" stroke-width="3.34136" stroke-miterlimit="10" stroke-linecap="round"/>
<path d="M123.452 120.956H-64.8337V123.716H123.452V120.956Z" fill="#F8AB64"/>
<path d="M69.6581 120.957H64.4373C64.8077 121.91 65.2547 122.832 65.7738 123.713H68.8228C69.2026 122.828 69.4827 121.904 69.6581 120.957Z" fill="#DB8669"/>
<path d="M61.846 120.956H50.9448C51.1537 121.541 51.4043 122.126 51.5713 122.669L51.989 123.713H61.5119C61.7511 122.814 61.8636 121.886 61.846 120.956Z" fill="#DB8669"/>
<path d="M37.9983 120.957H32.5269V123.713H38.0401L37.9983 120.957Z" fill="#DB8669"/>
<path d="M9.42871 123.712H14.942V120.956H9.42871V123.712Z" fill="#DB8669"/>
<path d="M153.902 128.975C146.551 128.975 142.541 131.522 138.907 134.195L137.78 135.073L136.527 136.033C133.227 138.456 129.76 140.544 123.454 140.544C117.147 140.544 114.014 138.665 110.84 136.409L109.086 135.073L108.417 134.571L108.919 134.195C112.552 131.522 116.562 128.975 123.871 128.975H153.902Z" fill="#DE548C"/>
<path d="M117.104 137.663H127.212L131.514 134.572H121.657L117.104 137.663Z" fill="#DE5B90"/>
<path d="M115.057 140.544L121.656 136.033H108.04L102.61 140.544H115.057Z" fill="#D94C86"/>
<path d="M121.198 130.645H134.939L138.865 128.975H126.168L121.198 130.645Z" fill="#E85A94"/>
<path d="M123.452 143.467H93.422C86.071 143.467 82.0614 140.92 78.4277 138.205L78.01 137.912L78.6783 137.328L80.3072 136.033C83.3562 133.736 86.9064 131.898 92.9626 131.898C99.0188 131.898 102.736 133.945 106.036 136.409L107.33 137.369L108.416 138.205C112.05 140.92 116.06 143.467 123.452 143.467Z" fill="#B03A73"/>
<path d="M90.7072 133.11H85.4863C83.6201 133.813 81.8732 134.799 80.3072 136.034L78.6783 137.329L78.01 137.914L78.4277 138.206L80.516 139.668H100.063L90.7072 133.11Z" fill="#A3366B"/>
<path d="M62.9745 129.016C54.8299 129.016 50.5279 132.023 46.8107 135.114L39.9191 140.878C39.6217 141.123 39.4329 141.475 39.3938 141.858C39.3547 142.241 39.4684 142.625 39.7103 142.925C39.85 143.089 40.0225 143.222 40.2167 143.315C40.4109 143.409 40.6226 143.461 40.838 143.467H70.8267C70.6162 143.466 70.4089 143.416 70.2207 143.322C70.0325 143.228 69.8683 143.092 69.7407 142.925C69.494 142.63 69.3732 142.25 69.4044 141.867C69.4357 141.484 69.6165 141.129 69.9078 140.878L75.6299 136.116L76.8411 135.114L77.9271 134.195C81.3937 131.439 85.6122 129.016 92.9632 129.016H62.9745Z" fill="#DE548C"/>
<path d="M69.9078 140.879H39.9191C39.6217 141.124 39.4329 141.476 39.3938 141.859C39.3547 142.242 39.4684 142.626 39.7103 142.925C39.85 143.09 40.0225 143.223 40.2167 143.316C40.4109 143.41 40.6226 143.462 40.838 143.468H70.8267C70.6162 143.467 70.4089 143.417 70.2207 143.323C70.0325 143.229 69.8683 143.093 69.7407 142.925C69.494 142.631 69.3732 142.251 69.4045 141.868C69.4357 141.485 69.6165 141.13 69.9078 140.879V140.879Z" fill="#B03A73"/>
<path d="M63.0167 136.41L57.5034 140.67H40.1702L45.3075 136.41H63.0167Z" fill="#D94C86"/>
<path d="M176.039 143.467H154.32C146.969 143.467 142.959 140.919 139.326 138.204L138.908 137.912L139.493 137.411H139.534L141.205 136.158C144.212 133.986 147.387 132.19 152.775 131.939H155.03C161.462 132.19 164.929 134.654 168.187 137.369H168.228L175.12 143.133C175.379 143.347 175.703 143.465 176.039 143.467Z" fill="#B03A73"/>
<path d="M149.643 137.872L153.276 140.879H174.786L171.236 137.872H149.643Z" fill="#A3366B"/>
<path d="M176.956 140.878L170.023 135.114C166.347 132.023 162.045 129.016 153.901 129.016C146.55 129.016 142.54 131.522 138.906 134.195L137.779 135.072L136.526 136.033C133.226 138.455 129.759 140.544 123.411 140.544C117.062 140.544 114.013 138.664 110.839 136.409L109.085 135.072L108.416 134.571C104.699 131.773 100.648 129.016 92.9627 129.016C85.2776 129.016 81.3933 131.439 77.9266 134.195L76.8407 135.114L75.6294 136.116L69.9074 140.878C69.6161 141.129 69.4353 141.484 69.404 141.867C69.3728 142.25 69.4936 142.63 69.7403 142.925C69.8679 143.092 70.032 143.228 70.2203 143.322C70.4085 143.416 70.6158 143.466 70.8262 143.467C71.1618 143.465 71.4863 143.347 71.7451 143.133L78.0102 137.912L78.6784 137.328L80.3073 136.033C83.3563 133.736 86.9065 131.898 92.9627 131.898C99.0189 131.898 102.736 133.945 106.036 136.409L107.331 137.37L108.416 138.205C112.05 140.92 116.102 143.467 123.411 143.467C130.72 143.467 135.106 140.711 138.865 137.912L139.533 137.37L141.204 136.116C144.378 133.819 147.845 131.898 153.901 131.898C161.085 131.898 164.76 134.446 168.185 137.328L175.118 143.133C175.377 143.347 175.702 143.465 176.037 143.467C176.248 143.466 176.455 143.416 176.643 143.322C176.831 143.228 176.996 143.092 177.123 142.925C177.37 142.63 177.491 142.25 177.459 141.867C177.428 141.484 177.247 141.129 176.956 140.878V140.878Z" fill="#F06FA2"/>
<path d="M-73.6874 81.8198H131.388C131.71 81.8198 132.018 81.9474 132.245 82.1746C132.472 82.4017 132.6 82.7098 132.6 83.0311V97.6495H-74.8987V83.0311C-74.8987 82.7098 -74.7711 82.4017 -74.5439 82.1746C-74.3168 81.9474 -74.0087 81.8198 -73.6874 81.8198V81.8198Z" fill="#E46A9B"/>
<path d="M118.941 97.6495H87.9915C87.9915 97.6495 87.6573 94.3499 86.3208 81.8198H114.681L118.941 97.6495Z" fill="#C84B8B"/>
<path d="M42.6744 81.8198C42.6744 81.8198 42.5491 86.7066 43.8021 88.7949C44.3868 91.5098 45.8904 96.1041 45.8904 96.1041V97.6495H59.2558V81.8198H42.6744Z" fill="#C84B8B"/>
<path d="M125.498 81.8198L127.67 87.3748L132.598 89.7138V87.7507L129.716 82.5299L128.046 81.8198H125.498Z" fill="#E86F9F"/>
<path d="M132.641 84.2422H-74.8987V85.5871H132.641V84.2422Z" fill="#E49B9B"/>
<path d="M132.641 93.8071H-74.8987V95.152H132.641V93.8071Z" fill="#E49B9B"/>
<path d="M59.2572 84.2422V85.5787H42.8846C42.8035 85.1378 42.7615 84.6905 42.7593 84.2422H59.2572Z" fill="#C46999"/>
<path d="M59.2568 93.8071V95.1437H45.5991L45.1814 93.8071H59.2568Z" fill="#C46999"/>
<path d="M-73.6874 81.8198H7.34044C7.66168 81.8198 7.96976 81.9474 8.19691 82.1746C8.42406 82.4017 8.55169 82.7098 8.55169 83.0311V97.6495H-74.8987V83.0311C-74.8987 82.7098 -74.7711 82.4017 -74.5439 82.1746C-74.3168 81.9474 -74.0087 81.8198 -73.6874 81.8198V81.8198Z" fill="#C45999"/>
<path d="M-74.8987 97.6494V98.443C-72.2674 98.443 -69.0513 99.6542 -67.8401 102.118H125.541C126.752 99.6542 129.968 98.443 132.6 98.443V97.6494H-74.8987Z" fill="#C84B8B"/>
<path d="M132.599 98.4429H2.03516V99.5539H132.599V98.4429Z" fill="#B03A73"/>
<path d="M-74.8987 97.6494V98.443C-72.2674 98.443 -69.0513 99.6542 -67.8401 102.118H1.49306C2.7043 99.6542 5.92037 98.443 8.55169 98.443V97.6494H-74.8987Z" fill="#B03A73"/>
<path d="M111.841 188.284H63.6418C63.6418 179.262 70.9511 171.828 79.931 171.828H95.51C99.8562 171.85 104.016 173.595 107.078 176.68C110.139 179.764 111.852 183.938 111.841 188.284V188.284Z" fill="#CC8564"/>
<path d="M97.0553 162.471H78.4272C72.1353 162.471 66.1012 164.971 61.6521 169.42C57.2031 173.869 54.7036 179.903 54.7036 186.195V188.283H57.0426V186.195C57.0426 180.523 59.2956 175.084 63.306 171.074C67.3164 167.063 72.7557 164.81 78.4272 164.81H97.0553C102.727 164.81 108.166 167.063 112.177 171.074C116.187 175.084 118.44 180.523 118.44 186.195V188.283H120.737V186.195C120.737 179.91 118.243 173.882 113.803 169.434C109.363 164.987 103.34 162.482 97.0553 162.471Z" fill="#CC8564"/>
<path d="M100.062 147.727H95.342V159.639H100.062V147.727Z" fill="#C95A3E"/>
<path d="M100.064 147.727H97.3489V159.639H100.064V147.727Z" fill="#D15C42"/>
<path d="M76.1736 158.795H71.3704V170.707H76.1736V158.795Z" fill="#C95A3E"/>
<path d="M120.112 166.606H115.308V178.518H120.112V166.606Z" fill="#C95A3E"/>
<path d="M120.111 166.606H117.73V178.518H120.111V166.606Z" fill="#D4674C"/>
<path d="M76.171 158.795H72.7461V170.707H76.171V158.795Z" fill="#D4704C"/>
<path d="M145.213 168.528H140.41V180.44H145.213V168.528Z" fill="#CE644A"/>
<path d="M154.109 155.454H149.306V167.366H154.109V155.454Z" fill="#CE644A"/>
<path d="M154.109 155.454H152.146V167.366H154.109V155.454Z" fill="#D17736"/>
<path d="M145.213 168.528H142.248V180.44H145.213V168.528Z" fill="#E38B4C"/>
<path d="M56.917 9.77094L56.7917 9.89625L56.4576 10.1886L56.3323 10.3139L56.0817 10.5228C50.4431 15.3677 43.1757 17.4561 38.289 18.9179C31.9404 20.7974 26.6777 21.3822 22.7099 21.3822C17.5725 21.3404 16.5701 18.6673 18.7003 15.4512L19.9533 13.9476L26.2183 6.34605L26.5107 5.97015C30.6456 1.08342 34.3629 -1.13023 42.1733 0.582215L54.0351 3.13H54.0769C58.2118 4.04887 60.1748 6.55489 56.917 9.77094Z" fill="url(#paint1_linear)"/>
<path d="M43.2603 1.50176C48.0218 2.67123 56.1246 5.05195 56.1246 5.05195L58.1294 5.34432C57.4194 4.34191 55.9993 3.54834 54.078 3.13067H54.0362L42.1744 0.582883C38.4572 -0.252456 35.7005 -0.168922 33.3616 0.666417C36.9953 -0.210689 39.0836 0.457582 43.2603 1.50176Z" fill="#FFFDC4"/>
<path d="M38.6232 19.5451C42.7999 18.2921 51.6962 14.7419 55.1629 11.2752C54.3693 12.1106 55.1629 10.6487 53.5757 11.4005C45.3894 15.4102 26.7614 20.7981 22.71 21.3828C26.6778 21.6334 34.363 20.7981 38.6232 19.5451Z" fill="#FFFDC4"/>
<path d="M57.8795 5.0522C54.2458 3.96626 45.9759 4.9269 36.829 7.80882C27.682 10.6907 19.7045 14.9092 17.6997 17.9582C17.4491 19.9212 18.9945 21.3413 22.7117 21.3831C26.429 21.4248 31.9422 20.7983 38.2908 18.9188C43.1775 17.457 50.445 15.3686 56.0835 10.5237L56.3341 10.3148L56.4594 10.1895L56.7936 9.89717L56.9189 9.77187C58.8401 7.89236 58.9654 6.26345 57.8795 5.0522Z" fill="url(#paint2_linear)"/>
<path d="M39.6906 16.8812C48.5613 14.1012 55.3219 10.4737 54.7907 8.77879C54.2596 7.08389 46.6379 7.96347 37.7672 10.7434C28.8965 13.5233 22.1359 17.1508 22.6671 18.8457C23.1982 20.5406 30.8199 19.6611 39.6906 16.8812Z" fill="#6B3143"/>
<path d="M54.7449 9.43752C54.8343 9.24159 54.8634 9.02351 54.8285 8.81102L54.6614 8.56041L45.4727 12.4865L52.3642 7.97568C52.0594 7.93389 51.7502 7.93389 51.4454 7.97568L45.0968 12.2359C44.7258 12.1502 44.3401 12.1502 43.9691 12.2359L47.4357 8.39335L46.141 8.64395L43.4679 12.2777L41.5883 12.6118L43.5932 9.18692L42.3819 9.47929L41.0871 12.7371L39.8341 13.0712L40.753 9.89696L39.3329 10.3146L38.8735 13.3218H38.9988L38.6647 13.4471L37.6623 10.8158L36.6181 11.15L38.2888 13.5307L37.4534 13.823L35.0309 11.6929L33.7779 12.1524L36.7434 14.0737L35.8663 14.4078L32.149 12.7371L30.6036 13.3636L35.1563 14.7002L34.1121 15.2014L27.6382 14.7419L26.0928 15.5355H33.402L32.9008 15.8696L24.0045 16.9138C23.6318 17.1912 23.295 17.5139 23.0021 17.8744L32.4414 16.2455C32.3996 16.3708 32.3579 16.4544 32.3996 16.4961C32.4414 16.5379 32.4832 16.6214 32.5667 16.6632L22.7515 19.0857C22.9979 19.3446 23.3192 19.5198 23.6703 19.5869L33.4856 16.7467C34.0179 16.705 34.5477 16.6353 35.0727 16.5379L27.2205 19.6704L28.4318 19.5451L36.0751 16.3291H36.3675L31.439 19.0857L33.7779 18.5845L37.3281 16.0785L39.2494 15.5355L41.5048 14.7419L44.512 15.3267L47.394 14.1572L42.7578 14.2407H42.7996L49.8582 12.9877C50.6518 12.6118 51.3618 12.1941 51.9883 11.8182L44.1779 13.5307L44.6791 13.2383L54.7449 9.43752Z" fill="#7A384C"/>
<path d="M52.7402 52.2071L50.5684 42.9766L49.0648 46.4432L46.7676 53.1677L52.7402 52.2071Z" fill="#1F40A1"/>
<path d="M20.4954 35.1243L51.8624 39.3845C54.5355 40.6375 55.3708 41.1387 56.6656 44.3548L57.6262 46.7355C58.5451 47.4873 58.6286 47.6126 58.378 48.6985L51.6118 53.1676L55.3291 65.8647L26.7187 69.3314L20.6625 55.966L11.432 50.411C11.2252 50.289 11.0528 50.1165 10.9308 49.9098C10.5549 49.1162 10.6384 48.3644 12.0585 47.6961C12.9356 44.6889 12.8938 44.1459 13.6039 41.807C15.1492 36.5861 16.3605 35.0407 20.4954 35.1243Z" fill="#2347A1"/>
<path d="M46.3916 61.8133C45.4521 60.4728 44.9956 58.8529 45.0969 57.219C45.2639 53.0005 43.3844 51.7893 42.7997 48.6567H42.382L41.2961 48.782C41.4214 51.9563 39.7925 53.5435 40.8784 57.6366C41.2966 59.2171 41.1791 60.8915 40.5443 62.3981C39.6254 64.4864 39.7089 66.6165 41.0455 68.329L44.3451 67.9948H44.6374L47.1852 67.7442C48.1041 65.7812 47.77 63.6928 46.3916 61.8133Z" fill="#1A378A"/>
<path d="M52.1565 54.9638L42.3413 51.9565L43.9285 60.6023L54.9132 64.4031L52.1565 54.9638Z" fill="#1A378A"/>
<path d="M23.9212 63.4008C22.3341 63.4843 22.2505 63.359 21.4152 62.0224C20.6756 60.637 20.0065 59.2152 19.4104 57.7622L20.3293 56.6763L23.9212 63.4008Z" fill="#7D9FFF"/>
<path d="M43.5517 59.5987L33.0264 56.8838L32.4417 59.5987L34.5718 61.52L36.7437 68.1192L34.7389 68.328L25.5501 70.124L25.2995 71.4605L24.6313 70.5416C24.4404 70.2802 24.3081 69.9808 24.2432 69.6637C24.1783 69.3466 24.1825 69.0192 24.2554 68.7039L24.7148 66.2396L23.9212 63.3995H23.5453C22.71 63.316 22.71 63.0654 22.0835 61.9794C21.0549 60.1971 20.1614 58.3403 19.4104 56.4244L20.6634 55.965L23.5453 49.7417C35.5324 53.8766 39.7091 55.6726 44.8047 58.0533C49.9003 60.434 50.0256 60.434 50.9444 61.1858C51.8633 61.9376 51.3621 61.5617 43.5517 59.5987Z" fill="#1A378A"/>
<path d="M34.5729 46.6943C27.5143 53.0429 25.8436 57.6373 23.9224 63.4011L24.7159 66.2413C28.0991 59.6003 29.5609 56.8437 31.7745 54.5465C33.9882 52.2493 37.956 48.6991 37.956 48.6991L34.5729 46.6943Z" fill="#242236"/>
<path d="M24.5892 37.0034L19.9531 39.593L24.5892 45.3986L29.1836 41.6813L24.5892 37.0034Z" fill="#2A52C2"/>
<path d="M33.5687 26.2285L31.3968 26.6044C30.8866 26.6801 30.3987 26.8648 29.9663 27.1458C29.5339 27.4269 29.1671 27.7978 28.8908 28.2333L27.596 30.2381L23.5028 31.4494C23.0681 31.5785 22.6633 31.7927 22.312 32.0794C21.9606 32.3662 21.6698 32.72 21.4562 33.1201L20.4956 35.1249C20.4956 35.1249 31.898 50.9128 40.9197 53.5023C49.9413 56.0919 51.8626 39.3851 51.8626 39.3851C51.8649 39.2024 51.815 39.0228 51.7188 38.8675C51.6226 38.7121 51.4842 38.5874 51.3196 38.508L48.9389 37.1297L49.1477 34.0389C49.1678 33.7528 49.1173 33.4661 49.0008 33.2039C48.8843 32.9418 48.7053 32.7122 48.4795 32.5353L41.9638 27.4815L33.5687 26.2285Z" fill="#EF6270"/>
<path d="M26.6792 30.4884C27.3475 28.9013 27.6398 27.0218 31.6495 26.2282L34.5732 25.8105L34.3226 28.1913L28.7675 31.8668L26.6792 30.4884Z" fill="#FF707E"/>
<path d="M31.3968 26.6044C30.8866 26.6801 30.3987 26.8648 29.9663 27.1458C29.5339 27.4269 29.1671 27.7978 28.8908 28.2333L27.596 30.2381L23.5028 31.4494C23.0681 31.5785 22.6633 31.7927 22.312 32.0794C21.9606 32.3662 21.6698 32.72 21.4562 33.1201L20.4956 35.1249C23.1898 38.7513 26.1346 42.1846 29.3084 45.3995L30.5615 42.2253H37.9542C37.9542 42.2253 37.0771 39.1763 36.7847 37.798C36.4923 36.4197 35.8241 35.6261 37.8707 35.2919L36.1582 26.6462L33.5687 26.2285L31.3968 26.6044Z" fill="#E05164"/>
<path d="M31.8167 30.6961C29.8118 29.1925 29.9371 29.3178 31.0648 28.6078C31.7331 28.1543 32.5136 27.8941 33.3203 27.856L31.8167 30.6961Z" fill="#BD3C53"/>
<path d="M29.1859 32.1587C30.8984 34.7482 41.0477 45.7329 42.5931 46.7771C44.1385 47.8213 41.9666 49.2831 41.9666 49.2831C39.0469 47.8472 36.2281 46.2145 33.5297 44.3964C30.1048 41.9322 28.0582 40.3868 27.0976 39.4679C26.1369 38.549 25.8446 37.7555 27.7241 38.9667C29.7261 40.133 31.8387 41.0983 34.0309 41.8486L34.5739 41.2221L29.5201 34.0382L29.1859 32.1587Z" fill="#E05164"/>
<path d="M45.8913 31.1987C48.1049 33.12 49.2326 32.6188 43.97 39.761L42.717 38.9674L39.0833 34.8325L43.7194 29.0269L45.8913 31.1987Z" fill="#C74153"/>
<path d="M45.2214 11.9443C45.0961 11.4848 42.0889 11.986 38.4969 13.072C34.905 14.1579 32.1066 15.3692 32.2319 15.7868C32.9837 21.7595 32.8584 27.0221 31.8142 30.6976L42.7154 38.9675C47.3097 27.941 45.8897 18.1675 45.2214 11.9443Z" fill="#FFB685"/>
<path d="M36.8689 28.8182C38.3307 30.4889 41.0456 30.0712 42.1733 28.9435C43.6351 30.3636 44.4705 30.1548 45.4729 28.9017C46.4753 27.6487 41.0456 26.4375 41.0456 26.4375L36.8689 28.8182Z" fill="#FE9B77"/>
<path d="M37.8704 35.2911C37.4198 31.7712 37.1549 28.23 37.0768 24.6823C36.9098 21.2156 36.7845 17.0807 36.8262 13.5723C34.1114 14.4911 32.1483 15.41 32.2319 15.7859C32.9837 21.7586 32.8584 27.0212 31.8142 30.6967L37.8704 35.2911Z" fill="#FE9B77"/>
<g style="mix-blend-mode:multiply" opacity="0.4">
<path d="M45.2233 11.9443C45.098 11.4848 42.0908 11.986 38.4988 13.072C34.9069 14.1579 32.1085 15.3692 32.2338 15.7868C32.3591 16.2045 32.4008 17.2904 32.4844 18.0422C36.3687 17.5828 41.7984 18.1675 45.8916 19.4205C45.7663 16.5804 45.4321 14.0744 45.2233 11.9443Z" fill="#A8387E"/>
</g>
<path d="M37.0362 29.778L35.8667 27.9403L37.0362 23.9307C37.1421 25.3186 37.7164 26.6293 38.6651 27.6479C39.1245 28.0656 38.9157 28.1491 38.6651 29.0262C38.4145 29.9033 37.5374 31.6576 37.6209 33.1612C37.7045 34.6648 37.0362 29.778 37.0362 29.778Z" fill="#FE9B77"/>
<path d="M36.0333 69.4564L33.6108 81.8194H56.5409V88.2515H61.9706L62.1794 92.637H74.4171L73.9577 88.2933L75.8372 86.539C75.9851 86.3931 76.0991 86.2164 76.1713 86.0216C76.2435 85.8267 76.272 85.6184 76.2549 85.4113L75.1272 73.3407C75.0255 72.2152 74.6954 71.1222 74.157 70.1286C73.6186 69.135 72.8832 68.2616 71.9958 67.5619C71.1084 66.8621 70.0876 66.3507 68.9959 66.0588C67.9041 65.767 66.7643 65.7008 65.6461 65.8644L36.0333 69.4564Z" fill="#232233"/>
<path d="M68.7791 113.313L68.445 113.605C68.2636 113.751 68.1442 113.96 68.1108 114.19L68.0273 114.775C67.9922 115.069 68.0665 115.367 68.2361 115.61C69.0297 116.696 69.9068 116.947 70.9092 117.281C72.0597 117.544 73.1325 118.074 74.0417 118.826C75.5753 119.965 77.3999 120.645 79.3044 120.789C81.4345 120.956 82.2698 119.996 82.228 119.202C82.1863 118.409 81.1004 117.657 81.1004 117.657L68.7791 113.313Z" fill="#4F2431"/>
<path d="M68.4454 111.222C68.7796 108.34 67.1924 106.628 65.2294 102.785C63.2663 98.9429 62.3892 94.4321 61.6792 88.6265H72.1209C72.1209 88.6265 74.3763 102.618 75.0028 105.626C75.3787 107.463 75.5876 110.387 77.5506 112.81C80.1402 116.067 81.9779 117.613 81.5603 118.74C81.1426 119.868 79.6807 120.328 76.7571 119.158C75.9635 118.824 75.0864 118.197 74.0422 117.613C72.998 117.028 71.6197 116.569 70.7844 116.151C68.6543 115.148 68.0695 114.647 68.4454 111.222Z" fill="#6B313F"/>
<path d="M76.7153 117.487C75.0864 115.817 73.7081 114.606 73.4575 113.645C73.2069 112.684 72.998 111.139 72.7057 109.761C72.4133 108.382 67.8189 95.9357 66.5659 89.0024L65.4382 88.6265H61.6792C62.3892 94.4321 63.2663 98.9429 65.2294 102.785C67.1924 106.628 68.7796 108.34 68.4454 111.222C68.1113 114.104 68.6543 115.148 70.7844 116.151C71.6197 116.569 72.7057 116.861 74.0422 117.613C75.3787 118.365 75.9635 118.824 76.7571 119.158C78.4695 119.826 79.639 119.952 80.4325 119.743C79.0398 119.28 77.7693 118.509 76.7153 117.487V117.487Z" fill="#592534"/>
<path d="M64.8958 89.0034C65.1046 94.7673 66.8588 100.197 68.1118 102.578C69.3648 104.958 70.4508 107.506 70.7849 112.56" stroke="#4F2431" stroke-width="0.835339" stroke-miterlimit="10" stroke-linecap="round"/>
<path d="M76.0047 109.971C75.7997 109.459 75.6458 108.927 75.5452 108.384C75.3466 108.174 75.1071 108.006 74.8414 107.891C74.5757 107.776 74.2893 107.716 73.9999 107.716C72.8722 107.799 72.0368 108.635 71.7027 110.013C71.3685 111.391 70.8256 112.519 70.2408 112.728C69.6561 112.937 69.2802 112.686 68.6119 112.227C68.5796 112.194 68.5401 112.169 68.4966 112.155C68.4531 112.14 68.4067 112.136 68.3613 112.143V113.104C68.8192 113.419 69.3525 113.606 69.9067 113.647L70.5332 113.563C71.4521 113.229 72.0786 112.143 72.538 110.222C72.7886 109.219 73.3316 108.635 74.0416 108.593C74.7517 108.551 75.5035 109.094 76.0047 109.971Z" fill="#4F2431"/>
<path d="M74.4192 84.9107C73.3751 84.9524 71.4955 85.036 65.0634 86.2054L61.9727 88.795L62.0562 90.1733L69.6995 91.9275C69.6995 91.9275 72.4144 90.6327 74.0016 88.5862V88.2938L74.6281 87.709C76.0064 85.1195 75.4634 84.8689 74.4192 84.9107Z" fill="#1C1B29"/>
<path d="M62.1794 92.6365H74.4171L73.9577 88.2927L73.8741 87.165L69.3216 87.4574C67.3585 87.6245 59.0469 87.7498 59.0469 87.7498L59.214 88.251H61.9706L62.1794 92.6365Z" fill="#28263B"/>
<path d="M61.3445 77.726C65.5629 75.9718 66.6489 75.4706 67.526 75.1783C68.4031 74.8859 67.526 74.3011 66.2312 73.6746C64.9364 73.0481 64.5605 73.6746 61.3445 77.726Z" fill="#1C1B29"/>
<path d="M47.1443 55.7982C46.2107 54.4548 45.7548 52.837 45.8496 51.2038C46.0166 46.9854 44.1371 45.7741 43.5524 42.6416H43.1347L42.0488 42.7251C42.1741 45.9412 40.5452 47.5283 41.6311 51.6215C42.0493 53.1879 41.9317 54.8493 41.297 56.3412C40.3781 58.4713 40.4616 60.6014 41.7982 62.3138H42.0488C44.037 62.5129 46.0448 62.285 47.9379 61.6456V61.6456C48.8568 59.7243 48.5226 57.6777 47.1443 55.7982Z" fill="#B8C5FF"/>
<path d="M45.4313 47.7383C44.8884 46.0258 44.0113 44.8146 43.6353 42.9351H43.4265C43.4265 42.9351 44.3871 45.9423 45.0554 47.3206C45.2225 47.6547 45.3478 47.7383 45.4313 47.7383Z" fill="#E0E6FF"/>
<path d="M42.4643 42.7261H42.0466C42.1719 45.9421 40.543 47.5293 41.6289 51.6224C41.7563 52.1436 41.8401 52.6745 41.8795 53.2096L45.5133 50.4947C44.2926 47.9901 43.273 45.3924 42.4643 42.7261V42.7261Z" fill="#9CA8F5"/>
<path d="M41.7142 55.0471C41.6643 55.3164 41.5945 55.5816 41.5054 55.8406C42.3788 55.9345 43.2358 56.1452 44.0532 56.4671C44.0532 56.4671 46.3504 59.4326 48.1046 61.2286C48.7728 59.3908 48.3969 57.5113 47.1439 55.7989C46.8525 55.3483 46.601 54.8731 46.3921 54.3788L42.5913 54.0864L41.7142 55.0471Z" fill="#9CA8F5"/>
<path d="M60.0507 52.8332L58.38 48.6982L52.7414 52.2067L44.6804 49.283V54.7962L47.1447 55.7986C54.4121 58.8058 55.7904 60.6018 58.9229 60.3095C62.0555 60.0171 61.429 56.2163 60.0507 52.8332Z" fill="#FEA77F"/>
<path d="M55.8317 50.2861L57.5442 54.0869L52.8663 52.5415L52.741 52.2074L55.8317 50.2861Z" fill="#FA8E70"/>
<path d="M59.3814 113.814L59.0472 114.106C58.9608 114.169 58.8897 114.25 58.839 114.344C58.7884 114.438 58.7597 114.543 58.7549 114.649L58.6296 115.276C58.5945 115.57 58.6688 115.868 58.8384 116.111C59.632 117.197 60.5509 117.448 61.5115 117.74C62.6671 118.046 63.7475 118.586 64.6858 119.327C66.2113 120.48 68.0405 121.163 69.9484 121.29C72.0368 121.457 72.8721 120.497 72.8721 119.661C72.8721 118.826 71.7027 118.158 71.7027 118.158L59.3814 113.814Z" fill="#4F2431"/>
<path d="M59.048 111.725C59.3821 108.843 57.795 107.131 55.8319 103.288C53.8689 99.4456 52.9918 94.893 52.2817 89.0874H62.7235C62.7235 89.0874 65.0207 103.121 65.6472 106.128C66.0231 107.966 66.2319 110.89 68.1532 113.312C70.7427 116.57 72.5805 118.115 72.1628 119.201C71.7451 120.287 70.2833 120.83 67.3596 119.661C66.4409 119.195 65.5485 118.679 64.6865 118.115C63.3082 117.322 62.2223 117.071 61.3869 116.654C59.2986 115.651 58.6721 115.15 59.048 111.725Z" fill="#6B313F"/>
<path d="M67.3178 117.99C65.6889 116.319 64.3106 115.108 64.1018 114.148C63.8929 113.187 63.6006 111.642 63.3082 110.221C63.0158 108.801 58.4215 96.3966 57.1685 89.4633L56.0825 89.0874H52.2817C52.9918 94.893 53.8689 99.4456 55.8319 103.288C57.795 107.131 59.3821 108.843 59.048 111.725C58.7138 114.607 59.2986 115.651 61.3869 116.654C62.2223 117.071 63.3082 117.322 64.6865 118.115C65.5485 118.679 66.4409 119.195 67.3596 119.661C69.072 120.329 70.2833 120.454 71.0769 120.204C69.6701 119.765 68.3836 119.008 67.3178 117.99V117.99Z" fill="#612936"/>
<path d="M55.498 89.4629C55.7069 95.2685 57.4611 100.698 58.7141 103.037C59.9671 105.376 61.0531 108.007 61.3872 113.061" stroke="#4F2431" stroke-width="0.835339" stroke-miterlimit="10" stroke-linecap="round"/>
<path d="M25.5496 70.1246L23.2942 81.8194H46.1825L46.9761 85.8708C47.0713 86.3222 47.2958 86.7363 47.622 87.0625C47.9483 87.3888 48.3623 87.6132 48.8138 87.7085L50.8604 88.1262L51.8628 92.637H64.2258L63.7246 89.1704L65.27 88.6274C65.5314 88.5498 65.7558 88.3801 65.9017 88.1497C66.0476 87.9193 66.1051 87.6439 66.0636 87.3744L64.8105 73.3407C64.7089 72.2152 64.3787 71.1222 63.8403 70.1286C63.3019 69.135 62.5665 68.2616 61.6791 67.5619C60.7917 66.8621 59.771 66.3507 58.6792 66.0588C57.5875 65.767 56.4476 65.7008 55.3294 65.8644V65.8644C55.3294 65.8644 35.2813 68.2034 31.2717 68.7881C27.262 69.3728 25.5496 70.1246 25.5496 70.1246Z" fill="#1C1B29"/>
<path d="M27.4711 73.0903C30.8351 71.1236 34.339 69.4065 37.9545 67.953C36.8686 67.4936 36.1168 67.6189 32.9008 68.5795L25.0903 72.5474L27.4711 73.0903Z" fill="#733544"/>
<path d="M52.7412 52.2074L58.7974 54.421C58.8146 54.4325 58.8288 54.448 58.8385 54.4662C58.8483 54.4844 58.8534 54.5048 58.8534 54.5254C58.8534 54.5461 58.8483 54.5665 58.8385 54.5847C58.8288 54.6029 58.8146 54.6184 58.7974 54.6299V54.6299L44.7219 50.0355V49.2837L52.7412 52.2074Z" fill="#FFD096"/>
<path d="M1.90925 78.7295L-5.39996 80.4837L-6.3606 81.8202H2.91167L1.90925 78.7295Z" fill="#F7DC9E"/>
<path d="M28.808 72.3805L23.1694 72.6311C22.73 72.6469 22.308 72.8068 21.9684 73.086C21.6288 73.3653 21.3904 73.7484 21.2899 74.1765L19.4104 81.8198H29.9357L30.3116 73.8841C30.3173 73.6851 30.2824 73.487 30.2089 73.3019C30.1354 73.1169 30.0248 72.9488 29.884 72.808C29.7432 72.6673 29.5752 72.5567 29.3901 72.4832C29.2051 72.4097 29.007 72.3747 28.808 72.3805V72.3805Z" fill="#4F2431"/>
<path d="M26.5108 81.8202C26.6778 80.4001 27.0537 77.2258 27.2626 75.3881C27.4714 73.5503 27.6385 72.7568 28.3068 72.3809H27.722L23.1694 72.5897C22.73 72.6055 22.308 72.7654 21.9684 73.0446C21.6288 73.3239 21.3904 73.707 21.2899 74.1351L19.4104 81.7784L26.5108 81.8202Z" fill="#401D2B"/>
<path d="M98.559 97.5251C98.6008 99.2793 97.5983 100.699 99.3943 101.493C102.067 102.662 103.237 103.874 105.242 104.458C107.247 105.043 110.254 105.92 108.667 102.871C107.079 99.8223 105.993 97.0239 105.993 97.0239L98.559 97.5251Z" fill="#1C1B29"/>
<path d="M112.759 92.6794C113.01 94.4336 112.174 95.9372 114.054 96.5219C116.852 97.3573 118.189 98.4432 120.194 98.7356C122.198 99.0279 125.373 99.6127 123.451 96.7725C121.53 93.9324 120.068 91.2593 120.068 91.2593L112.759 92.6794Z" fill="#28263B"/>
<path d="M120.862 75.8889C120.533 74.6358 119.87 73.4958 118.943 72.5908C118.016 71.6858 116.86 71.0501 115.599 70.7516L112.968 70.1251C110.921 55.8408 113.26 52.9588 102.359 48.4062L93.254 46.9026C93.254 46.9026 83.9399 45.8585 79.9303 50.0352L82.6869 66.2825C82.6869 66.2825 79.3873 76.4319 79.5962 81.8198H91.7086L94.7158 99.1949C114.555 98.819 124.788 91.0085 124.788 91.0085L120.862 75.8889Z" fill="#CFDEFF"/>
<path d="M100.607 77.9348C100.105 75.0947 100.147 74.0087 96.597 73.6746L91.042 73.1734L91.4597 72.0875L103.405 71.5863L94.7175 63.3164L82.2292 65.4465C81.8345 67.0048 81.6105 68.6013 81.5609 70.208V70.208C80.0991 71.1268 80.4332 72.2963 80.7256 73.4658C80.0573 76.3477 79.5143 79.522 79.5979 81.8192H91.7103C91.7938 85.5782 92.9215 87.9589 93.1304 90.3814C93.3392 92.8039 94.2163 99.236 94.2163 99.236C97.5708 99.1482 100.918 98.8693 104.24 98.4006L100.607 77.9348Z" fill="#ABBAFF"/>
<path d="M82.898 70.1673L94.718 70.9609C94.718 70.9609 91.6273 70.0838 88.7454 69.5826C87.0065 69.2434 85.2493 69.0063 83.4827 68.8726C83.0233 68.8726 82.8145 69.2485 82.6474 69.7914C82.6348 69.8328 82.6316 69.8764 82.6379 69.9191C82.6442 69.9618 82.6599 70.0027 82.6839 70.0386C82.7078 70.0745 82.7395 70.1047 82.7765 70.127C82.8135 70.1493 82.855 70.163 82.898 70.1673Z" fill="#8FA2FA"/>
<path d="M98.6013 72.2969C103.07 73.5499 103.655 73.8005 105.911 77.3924C108.166 80.9844 108.25 80.7755 110.087 78.9378C111.925 77.1 114.515 74.3434 115.392 73.2993C116.269 72.2551 115.35 72.0462 109.503 71.2527C103.655 70.4591 95.6777 71.4615 98.6013 72.2969Z" fill="#BDD1FF"/>
<path d="M85.4032 60.0584C86.2377 58.4819 86.8424 56.7941 87.1991 55.0464C87.5333 53.7516 88.4104 55.464 87.7004 57.6777C87.2088 59.1405 86.3452 60.4503 85.1943 61.4785L85.4032 60.0584Z" fill="#B8C5FF"/>
<path d="M82.562 46.7773C93.9644 60.6022 104.615 70.4174 105.116 50.9958L82.562 46.7773Z" fill="#B8C5FF"/>
<path d="M88.7432 49.0332C99.352 55.7994 102.025 58.1802 102.109 51.7063L88.7432 49.0332Z" fill="#5697B0"/>
<path d="M111.966 61.1446C111.339 55.1302 110.629 52.4988 105.116 49.6587C106.202 53.5013 105.91 61.1446 105.91 61.1446H111.966Z" fill="white"/>
<path d="M106.953 56.1746C106.73 57.722 106.366 59.2459 105.867 60.7272L106.827 60.8525C107.334 59.3673 107.725 57.8452 107.997 56.2999C108.206 54.5457 107.245 54.2533 106.953 56.1746Z" fill="#DBE6FF"/>
<path d="M96.3024 30.6134V27.3556C96.2982 26.2924 95.956 25.2582 95.3253 24.4022C94.6947 23.5463 93.8082 22.9131 92.794 22.5942V22.5942C91.6792 22.248 90.4782 22.3053 89.4014 22.7558C88.3247 23.2064 87.4408 24.0215 86.9048 25.0584C84.9418 28.8175 81.851 34.8737 79.5956 40.011C76.0036 48.1973 87.0301 51.6222 98.2237 52.207C109.417 52.7917 111.088 48.072 110.461 40.8881C110.044 36.3355 109.375 31.6994 108.958 28.8592C108.828 28.0446 108.462 27.286 107.905 26.6772C107.348 26.0685 106.625 25.6364 105.825 25.4343V25.4343C104.935 25.2272 104.002 25.3148 103.166 25.6839C102.329 26.053 101.636 26.6836 101.189 27.4809L99.5184 30.6134H96.3024Z" fill="#7CE4CC"/>
<path d="M108.541 44.0208L107.789 43.6449L103.571 44.522H99.3943L92.4609 42.1831C92.4609 42.1831 89.3284 35.6257 88.7437 42.3919C88.3678 47.0698 89.9967 49.9935 91.0409 51.3718C93.4161 51.7896 95.8157 52.0547 98.2248 52.1654C100.037 52.2972 101.858 52.2271 103.654 51.9566C105.075 50.4529 107.414 47.5293 108.541 44.0208Z" fill="#AAFAE7"/>
<path opacity="0.74" d="M88.7022 41.807C88.1174 39.1339 87.1568 33.5789 88.368 29.611C89.5793 25.6432 90.9158 22.3853 92.7953 22.5942C91.6806 22.248 90.4796 22.3053 89.4028 22.7558C88.326 23.2064 87.4422 24.0215 86.9062 25.0584C84.9431 28.8175 81.8524 34.8737 79.597 40.011C76.3809 47.3202 84.8596 50.8286 94.7166 51.9146C92.6283 51.2881 90.2058 48.6985 88.7022 41.807Z" fill="url(#paint3_linear)"/>
<path d="M94.7164 51.9138L93.9228 51.8303L93.171 51.7468L92.0015 51.5797L91.6256 51.4962L91.0409 51.4126C89.9967 50.0343 88.3678 47.1106 88.7437 42.4327C88.7376 42.3471 88.7519 42.2612 88.7854 42.1821C90.2891 48.7813 92.6698 51.3291 94.7164 51.9138Z" fill="#AAFAE7"/>
<path opacity="0.5" d="M94.7164 51.9138L93.9228 51.8303L93.171 51.7468L92.0015 51.5797L91.6256 51.4962L91.0409 51.4126C89.9967 50.0343 88.3678 47.1106 88.7437 42.4327C88.7376 42.3471 88.7519 42.2612 88.7854 42.1821C90.2891 48.7813 92.6698 51.3291 94.7164 51.9138Z" fill="url(#paint4_linear)"/>
<path d="M107.456 43.0596L107.331 43.8531C102.695 45.7744 101.901 46.3592 91.334 42.1825V41.4307L91.7934 41.5977C100.815 44.6467 102.569 45.0226 107.456 43.0596Z" fill="#2C4661"/>
<path d="M90.1257 44.6299C91.6326 44.4128 92.6568 42.8671 92.4133 41.1776C92.1698 39.4881 90.7509 38.2945 89.2441 38.5116C87.7372 38.7288 86.713 40.2744 86.9565 41.9639C87.1999 43.6535 88.6188 44.8471 90.1257 44.6299Z" fill="#738EFF"/>
<path d="M109.725 43.7667C110.203 42.3943 109.954 41.0604 109.17 40.7873C108.386 40.5142 107.363 41.4053 106.885 42.7777C106.407 44.1501 106.655 45.4841 107.44 45.7572C108.224 46.0303 109.247 45.1391 109.725 43.7667Z" fill="#738EFF"/>
<path opacity="0.41" d="M99.0178 39.5924C98.8507 39.2583 99.2266 39.0912 99.519 39.0077C99.6365 38.9796 99.7598 38.9886 99.872 39.0335C99.9842 39.0784 100.08 39.1569 100.145 39.2583L101.023 40.7619C101.273 41.2214 100.814 41.1796 100.396 40.8455C99.9784 40.5113 99.2684 40.1354 99.0178 39.5924Z" fill="#284E7A"/>
<path opacity="0.41" d="M103.654 40.8466C103.809 40.6193 103.948 40.3821 104.072 40.1365C104.145 40.0152 104.18 39.8748 104.172 39.7334C104.165 39.592 104.115 39.456 104.03 39.343L103.905 39.1759C103.821 39.0924 103.738 39.1341 103.696 39.2177C103.423 39.7097 103.199 40.2273 103.028 40.763C102.902 41.3478 103.278 41.3896 103.654 40.8466Z" fill="#284E7A"/>
<path d="M108.291 58.8897C109.335 55.7154 111.967 54.4624 114.932 54.5459L111.967 58.8897H108.291Z" fill="#F7AEA5"/>
<path d="M97.0139 56.1318C104.991 53.4169 108.542 58.3872 108.542 58.3872C109.454 57.164 110.699 56.2297 112.129 55.6963C113.559 55.163 115.112 55.0531 116.603 55.38L117.939 57.8024L105.869 62.5221L97.0139 56.1318Z" fill="#FECCAF"/>
<path d="M108.416 60.1004L108.541 58.8892L110.003 59.7663L108.416 60.1004Z" fill="#6B3143"/>
<path d="M96.1358 55.7988L90.6643 70.0831L104.03 73.8004H104.907L114.221 69.4566L119.442 56.6342L118.982 56.133L109.042 59.7249L96.1358 55.7988Z" fill="#133BBA"/>
<path d="M119.441 56.6343L109.459 60.3098L104.906 73.8005L114.053 69.9579L119.441 56.6343Z" fill="#1541CC"/>
<path d="M95.927 56.3838L108.541 60.3099L104.03 73.8006L90.6643 70.0834L95.927 56.3838Z" fill="#0B2585"/>
<path d="M132.683 61.6463L133.56 61.2704C133.602 61.2704 133.602 61.2286 133.56 61.2286L132.683 60.8527L132.265 59.9756H132.223L131.848 60.8527L130.929 61.2286L131.848 61.6045L132.223 62.4816H132.265L132.683 61.6045V61.6463Z" fill="#194DF2"/>
<path d="M90.4984 115.609L92.2526 114.857C92.2944 114.815 92.2944 114.774 92.2526 114.774L90.4984 113.98L89.7466 112.268C89.7048 112.226 89.6631 112.226 89.6631 112.268L88.8695 113.98L87.1571 114.774C87.1153 114.774 87.1153 114.815 87.1571 114.857L88.8695 115.609L89.6631 117.363C89.6631 117.405 89.7048 117.405 89.7466 117.363L90.4984 115.609Z" fill="white"/>
<path d="M39.6664 81.8198H34.1949L34.3619 90.9668H18.7411L18.5323 81.8198H13.019L13.3532 97.6495H18.8664L18.7829 94.2246H34.4455L34.529 97.6495H40.0005L39.6664 81.8198Z" fill="#C84B8B"/>
<path d="M34.3206 79.2736C35.943 78.3981 37.8294 78.1456 39.6249 78.5636H39.7085L55.9558 188.285H50.4426L34.3206 79.2736Z" fill="#8C3F49"/>
<path d="M34.3206 79.2728L50.4426 188.285H53.2827L37.0354 78.4375C36.082 78.5232 35.1572 78.8078 34.3206 79.2728V79.2728Z" fill="#632D3E"/>
<path d="M36.3656 89.8398H14.8556C14.0483 89.8398 13.3938 90.4943 13.3938 91.3017V91.3351C13.3938 92.1424 14.0483 92.7969 14.8556 92.7969H36.3656C37.173 92.7969 37.8275 92.1424 37.8275 91.3351V91.3017C37.8275 90.4943 37.173 89.8398 36.3656 89.8398Z" fill="#823B51"/>
<path d="M30.3094 89.8398H14.8556C14.0483 89.8398 13.3938 90.4943 13.3938 91.3017V91.3351C13.3938 92.1424 14.0483 92.7969 14.8556 92.7969H30.3094C31.1168 92.7969 31.7713 92.1424 31.7713 91.3351V91.3017C31.7713 90.4943 31.1168 89.8398 30.3094 89.8398Z" fill="#753549"/>
<path d="M25.1721 89.8398H14.8556C14.0483 89.8398 13.3938 90.4943 13.3938 91.3017V91.3351C13.3938 92.1424 14.0483 92.7969 14.8556 92.7969H25.1721C25.9794 92.7969 26.6339 92.1424 26.6339 91.3351V91.3017C26.6339 90.4943 25.9794 89.8398 25.1721 89.8398Z" fill="#632D3E"/>
<path d="M38.7902 106.254H17.2802C16.4728 106.254 15.8184 106.909 15.8184 107.716V107.75C15.8184 108.557 16.4728 109.212 17.2802 109.212H38.7902C39.5975 109.212 40.252 108.557 40.252 107.75V107.716C40.252 106.909 39.5975 106.254 38.7902 106.254Z" fill="#823B51"/>
<path d="M32.734 106.254H17.2802C16.4728 106.254 15.8184 106.909 15.8184 107.716V107.75C15.8184 108.557 16.4728 109.212 17.2802 109.212H32.734C33.5413 109.212 34.1958 108.557 34.1958 107.75V107.716C34.1958 106.909 33.5413 106.254 32.734 106.254Z" fill="#753549"/>
<path d="M27.5966 106.254H17.2802C16.4728 106.254 15.8184 106.909 15.8184 107.716V107.75C15.8184 108.557 16.4728 109.212 17.2802 109.212H27.5966C28.404 109.212 29.0585 108.557 29.0585 107.75V107.716C29.0585 106.909 28.404 106.254 27.5966 106.254Z" fill="#632D3E"/>
<path d="M41.2125 122.669H19.7026C18.8952 122.669 18.2407 123.323 18.2407 124.131V124.164C18.2407 124.972 18.8952 125.626 19.7026 125.626H41.2125C42.0199 125.626 42.6744 124.972 42.6744 124.164V124.131C42.6744 123.323 42.0199 122.669 41.2125 122.669Z" fill="#823B51"/>
<path d="M35.1563 122.669H19.7026C18.8952 122.669 18.2407 123.323 18.2407 124.131V124.164C18.2407 124.972 18.8952 125.626 19.7026 125.626H35.1563C35.9637 125.626 36.6182 124.972 36.6182 124.164V124.131C36.6182 123.323 35.9637 122.669 35.1563 122.669Z" fill="#753549"/>
<path d="M30.019 122.669H19.7026C18.8952 122.669 18.2407 123.323 18.2407 124.131V124.164C18.2407 124.972 18.8952 125.626 19.7026 125.626H30.019C30.8263 125.626 31.4808 124.972 31.4808 124.164V124.131C31.4808 123.323 30.8263 122.669 30.019 122.669Z" fill="#632D3E"/>
<path d="M43.6344 139.083H22.1244C21.3171 139.083 20.6626 139.737 20.6626 140.545V140.578C20.6626 141.386 21.3171 142.04 22.1244 142.04H43.6344C44.4418 142.04 45.0963 141.386 45.0963 140.578V140.545C45.0963 139.737 44.4418 139.083 43.6344 139.083Z" fill="#823B51"/>
<path d="M37.5782 139.083H22.1244C21.3171 139.083 20.6626 139.737 20.6626 140.545V140.578C20.6626 141.386 21.3171 142.04 22.1244 142.04H37.5782C38.3856 142.04 39.0401 141.386 39.0401 140.578V140.545C39.0401 139.737 38.3856 139.083 37.5782 139.083Z" fill="#753549"/>
<path d="M32.4409 139.083H22.1244C21.3171 139.083 20.6626 139.737 20.6626 140.545V140.578C20.6626 141.386 21.3171 142.04 22.1244 142.04H32.4409C33.2482 142.04 33.9027 141.386 33.9027 140.578V140.545C33.9027 139.737 33.2482 139.083 32.4409 139.083Z" fill="#632D3E"/>
<path d="M46.0565 155.498H24.5466C23.7392 155.498 23.0847 156.152 23.0847 156.959V156.993C23.0847 157.8 23.7392 158.455 24.5466 158.455H46.0565C46.8639 158.455 47.5184 157.8 47.5184 156.993V156.959C47.5184 156.152 46.8639 155.498 46.0565 155.498Z" fill="#823B51"/>
<path d="M48.4787 171.912H26.9687C26.1613 171.912 25.5068 172.567 25.5068 173.374V173.407C25.5068 174.215 26.1613 174.869 26.9687 174.869H48.4787C49.286 174.869 49.9405 174.215 49.9405 173.407V173.374C49.9405 172.567 49.286 171.912 48.4787 171.912Z" fill="#823B51"/>
<path d="M40.0003 155.498H24.5466C23.7392 155.498 23.0847 156.152 23.0847 156.959V156.993C23.0847 157.8 23.7392 158.455 24.5466 158.455H40.0003C40.8077 158.455 41.4622 157.8 41.4622 156.993V156.959C41.4622 156.152 40.8077 155.498 40.0003 155.498Z" fill="#753549"/>
<path d="M34.863 155.498H24.5466C23.7392 155.498 23.0847 156.152 23.0847 156.959V156.993C23.0847 157.8 23.7392 158.455 24.5466 158.455H34.863C35.6704 158.455 36.3248 157.8 36.3248 156.993V156.959C36.3248 156.152 35.6704 155.498 34.863 155.498Z" fill="#632D3E"/>
<path d="M48.4787 171.912H26.9687C26.1613 171.912 25.5068 172.567 25.5068 173.374V173.407C25.5068 174.215 26.1613 174.869 26.9687 174.869H48.4787C49.286 174.869 49.9405 174.215 49.9405 173.407V173.374C49.9405 172.567 49.286 171.912 48.4787 171.912Z" fill="#823B51"/>
<path d="M42.4225 171.912H26.9687C26.1613 171.912 25.5068 172.567 25.5068 173.374V173.407C25.5068 174.215 26.1613 174.869 26.9687 174.869H42.4225C43.2298 174.869 43.8843 174.215 43.8843 173.407V173.374C43.8843 172.567 43.2298 171.912 42.4225 171.912Z" fill="#753549"/>
<path d="M37.2851 171.912H26.9687C26.1613 171.912 25.5068 172.567 25.5068 173.374V173.407C25.5068 174.215 26.1613 174.869 26.9687 174.869H37.2851C38.0925 174.869 38.747 174.215 38.747 173.407V173.374C38.747 172.567 38.0925 171.912 37.2851 171.912Z" fill="#632D3E"/>
<path d="M13.103 79.2719C14.71 78.3955 16.5839 78.1427 18.3657 78.5619H18.491L34.7383 188.284H29.2251L13.103 79.2719Z" fill="#8C3F49"/>
<path d="M32.9006 188.284H29.2251L13.103 79.2724C14.1918 78.6761 15.4119 78.3603 16.6532 78.3535L32.9006 188.284Z" fill="#632D3E"/>
<path d="M14.8556 92.805C15.663 92.805 16.3175 92.1505 16.3175 91.3432C16.3175 90.5358 15.663 89.8813 14.8556 89.8813C14.0483 89.8813 13.3938 90.5358 13.3938 91.3432C13.3938 92.1505 14.0483 92.805 14.8556 92.805Z" fill="#753549"/>
<path d="M17.2802 109.22C18.0876 109.22 18.742 108.566 18.742 107.758C18.742 106.951 18.0876 106.296 17.2802 106.296C16.4728 106.296 15.8184 106.951 15.8184 107.758C15.8184 108.566 16.4728 109.22 17.2802 109.22Z" fill="#753549"/>
<path d="M19.7026 125.635C20.5099 125.635 21.1644 124.98 21.1644 124.173C21.1644 123.365 20.5099 122.711 19.7026 122.711C18.8952 122.711 18.2407 123.365 18.2407 124.173C18.2407 124.98 18.8952 125.635 19.7026 125.635Z" fill="#753549"/>
<path d="M22.1659 142.049C22.9733 142.049 23.6278 141.395 23.6278 140.587C23.6278 139.78 22.9733 139.125 22.1659 139.125C21.3586 139.125 20.7041 139.78 20.7041 140.587C20.7041 141.395 21.3586 142.049 22.1659 142.049Z" fill="#753549"/>
<path d="M24.5881 158.421C25.3954 158.421 26.0499 157.767 26.0499 156.959C26.0499 156.152 25.3954 155.498 24.5881 155.498C23.7807 155.498 23.1262 156.152 23.1262 156.959C23.1262 157.767 23.7807 158.421 24.5881 158.421Z" fill="#753549"/>
<path d="M27.0102 174.836C27.8175 174.836 28.472 174.181 28.472 173.374C28.472 172.567 27.8175 171.912 27.0102 171.912C26.2028 171.912 25.5483 172.567 25.5483 173.374C25.5483 174.181 26.2028 174.836 27.0102 174.836Z" fill="#753549"/>
<path d="M8.55169 84.2422H-74.8987V85.5871H8.55169V84.2422Z" fill="#C46999"/>
<path d="M8.55169 93.8071H-74.8987V95.152H8.55169V93.8071Z" fill="#C46999"/>
<path d="M94.4251 133.611L55.916 163.307" stroke="#612D46" stroke-width="3.34136" stroke-miterlimit="10" stroke-linecap="round"/>
<path d="M155.154 133.611L116.645 163.307" stroke="#612D46" stroke-width="3.34136" stroke-miterlimit="10" stroke-linecap="round"/>
<path d="M116.184 133.445C116.184 133.866 116.016 134.269 115.719 134.567C115.421 134.865 115.017 135.032 114.596 135.032H81.7258C84.4824 133.236 87.8238 131.899 92.9611 131.899H114.596C115.01 131.899 115.408 132.061 115.704 132.349C116.001 132.638 116.173 133.031 116.184 133.445Z" fill="#6B3143"/>
<path d="M114.598 135.031C115.475 135.031 116.185 134.32 116.185 133.444C116.185 132.567 115.475 131.856 114.598 131.856C113.722 131.856 113.011 132.567 113.011 133.444C113.011 134.32 113.722 135.031 114.598 135.031Z" fill="#9C4651"/>
<path d="M91.4157 133.445C91.4263 133.038 91.5925 132.651 91.8801 132.364C92.1676 132.076 92.5546 131.91 92.9611 131.899C87.8238 131.899 84.4824 133.236 81.7258 135.032H92.9611C92.5475 135.021 92.1544 134.849 91.8658 134.553C91.5771 134.256 91.4156 133.859 91.4157 133.445V133.445Z" fill="#522539"/>
<path d="M177.081 133.444C177.081 133.865 176.914 134.269 176.616 134.566C176.318 134.864 175.915 135.031 175.494 135.031H142.79C145.616 133.17 148.891 132.102 152.271 131.94H175.494C175.9 131.94 176.292 132.096 176.587 132.375C176.883 132.655 177.059 133.038 177.081 133.444V133.444Z" fill="#6B3143"/>
<path d="M175.493 135.031C176.37 135.031 177.081 134.32 177.081 133.444C177.081 132.567 176.37 131.856 175.493 131.856C174.617 131.856 173.906 132.567 173.906 133.444C173.906 134.32 174.617 135.031 175.493 135.031Z" fill="#9C4651"/>
<path d="M153.9 135.03H142.79C145.73 133.077 149.161 131.992 152.689 131.898H153.9C153.673 131.861 153.44 131.873 153.219 131.935C152.997 131.996 152.791 132.105 152.616 132.254C152.44 132.403 152.3 132.589 152.203 132.798C152.106 133.007 152.056 133.234 152.056 133.464C152.056 133.694 152.106 133.922 152.203 134.13C152.3 134.339 152.44 134.525 152.616 134.674C152.791 134.823 152.997 134.932 153.219 134.993C153.44 135.055 153.673 135.068 153.9 135.03V135.03Z" fill="#522539"/>
<path d="M63.8911 155.748C63.8911 155.748 88.0742 164.686 100.354 135.031C106.619 156.291 120.778 168.445 133.767 168.445C146.757 168.445 160.916 156.291 167.181 135.031C154.567 160.091 134.728 158.463 127.377 155.038" stroke="#5A4E70" stroke-width="1.04417" stroke-linecap="round" stroke-linejoin="round"/>
<path d="M151.854 138.372L151.562 133.109" stroke="#522539" stroke-width="1.25301" stroke-miterlimit="10" stroke-linecap="round"/>
<path d="M148.639 133.276L153.902 136.91" stroke="#522539" stroke-width="1.25301" stroke-miterlimit="10" stroke-linecap="round"/>
<path d="M90.2477 138.372L89.9553 133.109" stroke="#522539" stroke-width="1.25301" stroke-miterlimit="10" stroke-linecap="round"/>
<path d="M87.0737 133.276L92.2946 136.91" stroke="#522539" stroke-width="1.25301" stroke-miterlimit="10" stroke-linecap="round"/>
<path d="M116.184 123.754H120.236V120.993H116.184V123.754Z" fill="#F8A457"/>
<path d="M71.2431 134.404H59.0054L54.7451 137.913H67.0664L71.2431 134.404Z" fill="#CC4D80"/>
<path d="M66.146 129.016L63.4729 130.019H68.8608L71.2415 129.016H66.146Z" fill="#E85A94"/>
<path d="M153.817 163.14L152.689 164.017L153.942 163.933L153.817 163.14Z" fill="#F09E48"/>
<path d="M64.4335 120.956L64.7677 122.334L63.4729 121.916L64.4335 120.956Z" fill="#FFBD67"/>
<path d="M77.7161 130.687L75.4189 132.191H72.7876L75.1683 130.687H77.7161Z" fill="#E85A94"/>
<path d="M130.3 135.448V134.571H131.512L130.3 135.448Z" fill="#ED5C97"/>
<path d="M41.2119 2.88037L43.2585 3.25627L42.6738 4.21691L41.2119 2.88037Z" fill="#FFCD8F"/>
<path d="M45.1625 23.6566C45.2476 23.2266 45.0782 22.8309 44.784 22.7726C44.4899 22.7144 44.1824 23.0157 44.0973 23.4457C44.0121 23.8756 44.1816 24.2713 44.4757 24.3296C44.7699 24.3878 45.0774 24.0865 45.1625 23.6566Z" fill="#543247"/>
<path d="M40.0783 24.0392C40.4005 23.8592 40.4701 23.3704 40.2338 22.9476C39.9974 22.5247 39.5447 22.3279 39.2225 22.508C38.9003 22.688 38.8307 23.1768 39.0671 23.5996C39.3034 24.0225 39.7562 24.2193 40.0783 24.0392Z" fill="#543247"/>
<path d="M35.7007 0.875584C35.7007 0.875584 36.7448 0.79205 37.2043 1.16795C36.7031 1.75269 35.7007 0.875584 35.7007 0.875584Z" fill="#FFD08F"/>
<path d="M39.0833 0.874768C41.2969 0.331798 41.5057 1.50127 41.5057 1.50127L39.0833 0.874768Z" fill="#FFFDC4"/>
<path d="M22.6258 14.6997C22.7093 15.4933 24.5471 16.0362 24.5471 16.0362L23.7953 16.5792C21.9158 16.5375 21.4146 15.6186 21.4146 15.6186C21.7634 15.246 22.173 14.9353 22.6258 14.6997V14.6997Z" fill="#D4655B"/>
<path d="M17.8247 18.208C18.117 19.0851 22.0014 18.5839 22.0014 18.5839L22.1267 19.0433C19.2447 19.5446 18.0335 19.2939 18.0335 19.2939C17.8635 18.9587 17.7911 18.5824 17.8247 18.208Z" fill="#D4655B"/>
<path d="M32.0662 9.89664C32.3168 10.9408 33.6115 11.6508 33.6115 11.6508L35.6999 11.0243C35.3091 10.4086 35.0266 9.73057 34.8646 9.01953C34.8646 9.01953 33.4027 9.39543 32.0662 9.89664Z" fill="#DC7363"/>
<path d="M49.0666 35.4585C49.0666 35.4585 49.0248 36.1685 48.9413 37.1292C48.7754 38.5383 48.5102 39.934 48.1477 41.3059C47.8553 42.5589 47.8553 42.5171 47.4377 42.2247L45.9758 41.1806C46.8112 39.9693 48.3148 37.6721 49.0666 35.4585Z" fill="#D14658"/>
<path d="M34.4469 42.2249L34.0292 41.849C31.2308 39.4265 26.3441 34.4145 24.0469 31.282L27.5135 30.2378H27.5971C29.8942 34.498 34.0292 40.0113 35.8252 42.2249L36.1593 42.6426C37.6629 44.3968 37.0782 44.4386 34.4469 42.2249Z" fill="#CC4355"/>
<path d="M29.7271 30.2378L35.115 35.4587L36.1591 40.0113L30.2282 32.4932L29.7271 30.2378Z" fill="#E65568"/>
<path d="M43.0518 38.1316L31.9 30.3212L31.7329 30.1542C31.3988 29.8618 31.1482 29.9036 31.8165 30.6971L42.7176 38.967C42.8429 38.6746 42.9265 38.3823 43.0518 38.1316Z" fill="#BD3C53"/>
<path d="M14.5663 9.27029L15.9446 8.64379C15.9864 8.60202 15.9864 8.56025 15.9446 8.56025L14.5663 7.93375H14.5245L13.898 6.51367H13.8562L13.2297 7.93375L11.8096 8.56025C11.7679 8.56025 11.7679 8.60202 11.8096 8.64379L13.2297 9.27029L13.8562 10.6904H13.898L14.5245 9.27029H14.5663Z" fill="#FF7ABC"/>
<path d="M116.769 48.8232L118.356 48.1131V48.0296L116.769 47.3196H116.727L116.017 45.7324H115.975L115.265 47.3196H115.223L113.636 48.0296V48.1131L115.223 48.8232H115.265L115.975 50.4103H116.017L116.727 48.8232H116.769Z" fill="#FFF0DB"/>
<path d="M22.7515 10.5658C23.9903 9.40753 25.3814 8.42388 26.8864 7.64209C24.798 8.10153 23.2944 8.7698 22.7515 10.5658Z" fill="#EB9363"/>
<path d="M45.5967 1.50151L49.1886 2.29508C48.771 1.45974 48.3115 1.33444 45.5967 1.50151Z" fill="#FFFDC4"/>
<path d="M50.6514 50.3279C52.6144 47.8637 54.1598 46.3183 54.7863 45.9424C55.4128 45.5665 55.3293 45.7336 54.3686 47.0701C53.408 48.4067 51.6955 51.1633 51.6955 51.1633L50.6514 50.3279Z" fill="#1A378A"/>
<path d="M52.1548 42.6423C52.1548 42.6423 52.113 46.109 52.1548 46.5267C52.1966 46.9443 52.3219 46.4849 52.6142 45.5242C52.9066 44.5636 53.1572 43.8118 53.199 43.5612C53.2407 43.3106 53.3243 43.2271 52.7395 42.6841C52.1548 42.1411 52.1548 42.1411 52.1548 42.6423Z" fill="#2A52C2"/>
<path d="M59.3814 59.3906C58.2914 59.3272 57.2257 59.043 56.2488 58.5553C55.7059 58.3047 56.04 58.9312 57.0006 59.5159C57.9613 60.1006 60.1332 59.4741 59.3814 59.3906Z" fill="#FA8E70"/>
<path d="M40.5867 55.3811L43.3851 55.0469C44.0068 55.5869 44.7797 55.9223 45.5987 56.0076L49.5666 58.6389L51.1955 59.5995C51.1955 59.5995 53.7015 57.7618 51.1955 50.4108C50.9867 49.7008 50.8614 49.5337 49.5666 49.8261L47.3947 49.0743L46.3088 47.5289C46.1576 47.3137 45.9578 47.1372 45.7255 47.0138C45.4933 46.8905 45.2352 46.8237 44.9722 46.8188H40.169C40.0029 46.8188 39.8435 46.8849 39.726 47.0023C39.6085 47.1198 39.5425 47.2792 39.5425 47.4454V47.4454C39.5305 47.605 39.58 47.7633 39.681 47.8875C39.782 48.0118 39.9267 48.0927 40.0855 48.1136L44.0116 48.8237L41.1297 50.2437C40.9006 50.3643 40.7161 50.555 40.6034 50.7881C40.4906 51.0211 40.4555 51.2841 40.5032 51.5385C40.5708 51.8267 40.6989 52.0972 40.879 52.3321C40.2108 52.9586 40.6702 53.8775 40.6702 53.8775C39.8766 54.1281 39.5843 54.2951 39.5007 54.9634C39.4172 55.6317 39.8767 55.5064 40.5867 55.3811Z" fill="#592938"/>
<path d="M50.1096 57.3024L45.5987 54.6293C45.1809 54.4021 44.7765 54.1511 44.3875 53.8775C43.761 53.418 43.8445 52.9586 44.1369 52.8751C44.2321 52.8467 44.3193 52.7962 44.3911 52.7276C44.4629 52.6589 44.5174 52.5742 44.5501 52.4803C44.5827 52.3865 44.5926 52.2862 44.5788 52.1878C44.5651 52.0894 44.5281 51.9957 44.471 51.9144C44.2204 51.2879 44.0951 51.0373 44.4292 50.7032C44.7634 50.369 44.9722 50.2437 44.8052 50.0349C44.6381 49.8261 44.2622 49.3666 44.5546 48.9907C44.8469 48.6148 45.1811 48.7401 44.9722 48.1136C44.7634 47.4871 44.5546 46.8188 44.9722 46.8188H40.169C40.0029 46.8188 39.8435 46.8849 39.726 47.0023C39.6085 47.1198 39.5425 47.2792 39.5425 47.4454C39.5305 47.605 39.58 47.7633 39.681 47.8875C39.782 48.0118 39.9267 48.0927 40.0855 48.1136L44.0116 48.8237L41.1297 50.2437C40.9006 50.3643 40.7161 50.555 40.6034 50.7881C40.4906 51.0211 40.4555 51.2841 40.5032 51.5385C40.5708 51.8267 40.6989 52.0972 40.879 52.3321C40.2108 52.9586 40.6702 53.8775 40.6702 53.8775C39.8766 54.1281 39.5843 54.2951 39.5007 54.9634C39.4172 55.6317 39.8767 55.5064 40.5867 55.3811L43.3851 55.0469C44.0068 55.5869 44.7797 55.9223 45.5987 56.0076L49.5666 58.6389L50.1096 58.973V57.3024Z" fill="#4F2431"/>
<path d="M49.5659 58.6397L51.1948 59.6004C51.1948 59.6004 53.7008 57.7626 51.1948 50.4116C50.986 49.7016 50.8607 49.5345 49.5659 49.8269L50.1089 50.0357C50.6519 51.8735 51.0695 55.4654 49.5659 58.6397Z" fill="#6B313F"/>
<path d="M45.8896 47.1118C46.3908 49.9937 45.5137 53.1263 45.5137 53.1263L47.6438 54.1287C47.9361 53.001 47.8944 51.6226 47.3932 49.0749L46.3072 47.5295C46.2009 47.3609 46.0582 47.2181 45.8896 47.1118Z" fill="#733544"/>
<path d="M40.878 52.3325C42.841 51.3718 44.47 50.4947 44.47 50.4947L44.3864 50.2441L40.7109 52.1237L40.878 52.3325Z" fill="#401D2B"/>
<path d="M40.6699 53.8783L44.1366 52.8759L43.9278 52.5835L40.5864 53.7112L40.6699 53.8783Z" fill="#401D2B"/>
<path d="M44.0105 48.8233L44.5534 48.5727L44.5117 48.1133L43.551 48.7398L44.0105 48.8233Z" fill="#401D2B"/>
<path d="M50.1089 57.3018C49.9533 57.7572 49.772 58.2034 49.5659 58.6383L51.1948 59.5989C51.5574 59.2765 51.8186 58.8557 51.9466 58.3877L50.1089 57.3018Z" fill="#592938"/>
<path d="M20.6635 55.9658C20.2377 57.6446 19.5917 59.2597 18.7422 60.769C17.4892 62.7738 14.8996 66.7417 14.8996 66.7417C14.8996 66.7417 11.3494 74.4686 7.75749 78.4365L1.99365 77.0999C1.99365 77.0999 5.87798 66.0734 7.21452 62.8992C8.21693 60.5184 10.5559 53.7522 11.6836 50.5361C16.1527 52.3739 20.6635 55.9658 20.6635 55.9658Z" fill="#D68272"/>
<path d="M11.2248 77.3085L10.0135 78.1021L7.17339 81.8193H-8.02979L-7.57035 81.1511C-7.19408 80.6417 -6.66855 80.2622 -6.06673 80.0651L-0.929405 78.478L2.66254 70.3334C2.70364 70.2752 2.76229 70.2316 2.82993 70.209C2.89756 70.1865 2.97063 70.1862 3.03846 70.2081C6.37981 72.2547 9.93 75.2202 11.3083 76.8073C11.3394 76.8443 11.3621 76.8875 11.3748 76.9341C11.3875 76.9807 11.39 77.0295 11.3821 77.0772C11.3741 77.1248 11.356 77.1701 11.3288 77.2101C11.3016 77.25 11.2661 77.2836 11.2248 77.3085Z" fill="#4F2431"/>
<path d="M12.7691 61.5624C13.8133 64.7785 14.0221 65.6974 14.6068 64.9456C15.0788 64.3808 15.4851 63.7642 15.8181 63.1078C15.9016 62.9407 16.1104 62.5231 14.5651 61.5624C13.0197 60.6018 12.2261 59.9335 12.7691 61.5624Z" fill="#D4655B"/>
<path d="M11.3066 76.8073C9.9283 75.2202 6.37811 72.2547 3.03675 70.2081C2.96893 70.1862 2.89586 70.1865 2.82823 70.209C2.76059 70.2316 2.70194 70.2752 2.66084 70.3334L2.20142 71.4611C7.50582 75.3455 10.0118 78.1021 10.0118 78.1021L11.2231 77.3085C11.2644 77.2836 11.2999 77.25 11.3271 77.2101C11.3543 77.1701 11.3724 77.1248 11.3804 77.0772C11.3883 77.0295 11.3858 76.9807 11.3731 76.9341C11.3604 76.8875 11.3377 76.8443 11.3066 76.8073Z" fill="#572836"/>
<path d="M3.7481 80.2744C2.03566 80.8591 0.323212 81.5274 -2.30811 81.8197H7.173L7.67418 81.1515C7.88302 78.9796 5.50231 79.6896 3.7481 80.2744Z" fill="#421E29"/>
<path d="M28.8083 72.3809C27.3047 72.4644 27.0123 72.9238 26.7617 75.1375C26.5111 77.3511 26.3858 77.8941 26.3022 78.3953C26.2921 78.4654 26.2569 78.5294 26.2031 78.5755C26.1494 78.6216 26.0807 78.6466 26.0099 78.6459H19.9537C19.8701 78.6459 19.8284 78.5624 19.8284 78.4788L20.9143 74.3021C21.0281 73.8125 21.3051 73.3762 21.6999 73.065C22.0946 72.7537 22.5835 72.5861 23.0862 72.5897L28.8083 72.3809Z" fill="#592938"/>
<path d="M22.1241 77.2672C22.1032 77.4388 22.0611 77.6071 21.9988 77.7684C21.9988 77.7905 22.0076 77.8118 22.0232 77.8274C22.0389 77.8431 22.0601 77.8519 22.0823 77.8519H23.7948C23.8546 77.8527 23.9127 77.8321 23.9587 77.7938C24.0046 77.7555 24.0354 77.7021 24.0453 77.6431L24.1706 77.1836C24.1706 77.1419 24.1707 77.1001 24.1289 77.1001H22.3747C22.3217 77.1026 22.2703 77.1194 22.2262 77.1489C22.1821 77.1783 22.1468 77.2192 22.1241 77.2672Z" fill="#733544"/>
<path d="M70.3245 73.5081C71.4139 73.7329 72.488 74.0258 73.5406 74.3852C74.0418 74.5941 74.0836 74.6358 73.2065 75.6382C72.3294 76.6406 72.2041 77.0583 71.3269 75.68C70.4498 74.3017 69.7398 73.3411 70.3245 73.5081Z" fill="#1C1B29"/>
<path d="M50.8616 88.127L59.0061 89.7141C60.3009 89.9647 60.5097 90.0065 63.7258 89.1711L64.227 92.6378H51.864L50.8616 88.127Z" fill="#232133"/>
<path d="M46.1836 81.8196C50.1097 79.4806 51.1121 78.8124 51.9474 78.4365C52.7828 78.0606 51.8221 77.5176 50.4856 77.0999C49.149 76.6823 48.8149 77.3088 46.1836 81.8196Z" fill="#171621"/>
<path d="M53.5342 83.7821C57.2097 84.6175 60.1751 85.2858 61.6787 85.5364C63.1824 85.787 62.6812 85.1605 60.7599 83.6568C59.441 82.5688 58.0452 81.5778 56.5832 80.6914C55.6643 80.1902 55.4137 80.5243 53.7848 81.9026C52.1559 83.2809 52.0724 83.448 53.5342 83.7821Z" fill="#171621"/>
<path d="M20.0775 44.9812C23.6277 49.0326 24.2542 50.6197 24.2542 50.6197L23.5024 51.9563C23.5024 51.9563 23.21 51.3715 21.6647 48.8237C20.1193 46.2759 18.1145 42.7675 20.0775 44.9812Z" fill="#1A378A"/>
<path d="M43.5762 42.4387L41.9176 42.6394C41.7115 42.6644 41.5645 42.8507 41.5893 43.0557C41.6141 43.2606 41.8013 43.4066 42.0074 43.3816L43.666 43.1809C43.8721 43.156 44.0191 42.9696 43.9943 42.7646C43.9695 42.5597 43.7823 42.4138 43.5762 42.4387Z" fill="#B8C5FF"/>
<path d="M66.6083 110.43C66.417 109.927 66.2634 109.41 66.1489 108.885C65.9502 108.674 65.7107 108.506 65.445 108.391C65.1793 108.276 64.893 108.217 64.6035 108.216C63.4758 108.3 62.6405 109.135 62.3063 110.513C61.9722 111.892 61.4292 112.978 60.8445 113.228C60.2598 113.479 59.8839 113.187 59.2156 112.727C59.1738 112.644 59.0903 112.644 59.0067 112.644C58.9729 112.963 58.959 113.283 58.965 113.604C59.4228 113.919 59.9562 114.106 60.5103 114.147C60.7256 114.15 60.939 114.107 61.1369 114.022C62.0557 113.688 62.6822 112.644 63.1834 110.722C63.3923 109.72 63.9352 109.135 64.6453 109.093C65.3553 109.052 66.1071 109.553 66.6083 110.43Z" fill="#4F2431"/>
<path d="M42.382 42.6842L43.5932 42.5171L43.6767 42.8512H42.0479L42.382 42.6842Z" fill="#E0E6FF"/>
<path d="M100.229 31.4494L96.3027 30.6141H99.5188L101.189 27.4815C101.636 26.6842 102.33 26.0536 103.166 25.6845C104.002 25.3154 104.935 25.2278 105.826 25.435V25.435L106.577 25.7273C104.74 25.1008 103.821 27.1892 103.111 29.7787C102.735 31.1988 102.693 31.9506 100.229 31.4494Z" fill="#61C7C7"/>
<path d="M107.694 31.8117C107.83 30.8059 107.273 29.9004 106.45 29.7891C105.627 29.6778 104.85 30.403 104.714 31.4088C104.578 32.4146 105.134 33.3202 105.957 33.4314C106.78 33.5427 107.558 32.8176 107.694 31.8117Z" fill="#21354A"/>
<path d="M93.8702 29.3614C94.0985 28.3725 93.6276 27.4193 92.8185 27.2325C92.0094 27.0457 91.1683 27.696 90.94 28.685C90.7117 29.6739 91.1825 30.627 91.9917 30.8138C92.8008 31.0006 93.6418 30.3504 93.8702 29.3614Z" fill="#21354A"/>
<path d="M93.2538 61.479C94.4232 61.6878 95.5927 62.022 96.0522 62.1473C96.5116 62.2726 96.6786 62.3561 96.5116 62.8991C96.3445 63.4421 96.3445 63.4003 95.3421 63.3168L93.0032 63.1915L93.2538 61.479Z" fill="#61C7C7"/>
<path d="M82.6867 66.2824C84.3992 66.533 86.6128 66.6583 88.5758 66.8254C88.6348 66.0264 88.8035 65.2394 89.0771 64.4864C89.5415 63.2452 90.1589 62.0666 90.9148 60.978C89.3694 60.6439 87.4899 60.268 85.9445 60.0174C86.6128 52.2905 83.1044 47.6126 80.5984 49.4503C79.4021 50.3288 78.5817 51.6266 78.3012 53.0841C78.0924 54.2118 77.967 56.133 77.8417 56.5507C77.4658 57.929 76.4217 58.2214 77.2988 60.978C77.7582 62.3563 76.1711 65.4053 82.6867 66.2824Z" fill="white"/>
<path d="M90.0374 60.7689L88.4503 60.4766C87.6567 60.3095 87.2808 60.393 87.7403 60.6436C88.1997 60.8942 88.2415 61.1031 87.0302 61.2701C85.819 61.4372 85.9443 62.0637 86.3202 62.3561C86.6961 62.6484 86.9467 63.1079 86.0278 63.4003C85.109 63.6926 84.9419 64.1103 85.4849 64.4444C86.0278 64.7786 86.3202 65.1962 85.4013 65.4886C84.4825 65.781 84.6078 66.2822 85.4013 66.5745L87.4897 66.6998L90.0374 60.7689Z" fill="#FFE8AD"/>
<path d="M88.5769 66.8249C88.7022 65.5719 88.9946 63.8177 90.9159 60.9775L93.8396 61.604L93.4636 63.0241L95.3432 64.3189C95.9697 64.7783 95.9697 64.9036 95.8444 65.196C95.749 65.4189 95.5889 65.608 95.3849 65.739C95.2596 65.8643 94.9255 65.6554 94.4243 65.4884L93.0042 65.0289C92.7536 64.9454 92.7118 65.1125 92.8789 65.2378C93.046 65.3631 94.2155 65.9478 94.4661 66.1149C94.7167 66.2819 94.7584 66.3655 94.6749 66.5743C94.5914 66.7831 94.4661 67.2008 94.0484 67.159C93.6307 67.1173 92.1271 66.6578 92.1271 66.6578C91.1247 67.0755 89.8299 66.9084 88.5769 66.8249Z" fill="#61C7C7"/>
<path d="M85.9461 60.0176C84.8184 60.0593 82.9389 60.9364 81.5606 61.8971C80.1823 62.8577 79.8899 62.1894 80.3494 61.4794C80.8088 60.7694 82.5213 60.3935 84.1502 60.0176C85.7791 59.6417 85.9879 59.7252 85.9879 59.7252L85.9461 60.0176Z" fill="#DBE6FF"/>
<path d="M84.5258 59.9342C85.0687 59.8506 85.4029 59.3076 84.4005 59.0153L82.0615 58.347C81.7692 58.3052 81.5186 57.4281 82.5627 57.6787C83.6069 57.9293 86.0294 59.1823 86.0294 59.1823C86.0294 59.1823 86.6977 59.8088 85.9459 60.0177L84.5258 59.9342Z" fill="#DBE6FF"/>
<path d="M93.8383 63.2748L93.0447 62.7319L93.2118 62.356L94.1306 63.2748H93.8383Z" fill="#5697B0"/>
<path d="M92.8786 65.238L92.3774 64.9874L92.628 64.7368L93.0039 65.0292L92.8786 65.238Z" fill="#5697B0"/>
<path d="M89.2876 60.6445C88.0764 61.6887 86.6981 63.5682 86.5728 66.6172L88.5776 66.826C88.6365 66.0271 88.8052 65.24 89.0788 64.4871C89.5433 63.2458 90.1606 62.0673 90.9165 60.9787L89.2876 60.6445Z" fill="#FFD978"/>
<path d="M78.5103 58.6393C78.5721 58.5221 78.6719 58.4293 78.7933 58.3762C78.9147 58.3231 79.0506 58.3128 79.1786 58.347C79.9029 58.5212 80.6146 58.7445 81.3087 59.0152C81.7264 59.2658 80.1392 59.7253 78.8862 59.9759C77.6332 60.2265 77.8838 59.767 78.5103 58.6393Z" fill="#E6EDFF"/>
<path d="M92.0845 65.0707C91.7504 64.6948 91.7086 64.3189 92.2516 64.0683C92.7945 63.8177 92.7528 63.4 92.5439 63.1077C92.3351 62.8153 91.9174 62.3558 92.6692 62.1052C93.421 61.8546 93.0869 61.437 92.5022 61.3117H92.4604L90.9151 60.9775C89.5367 63.0241 88.9938 64.486 88.7432 65.6137C88.7849 65.6137 91.2909 65.906 91.8339 65.7807C92.3769 65.6554 92.4604 65.4048 92.0845 65.0707Z" fill="#66D4CD"/>
<path d="M117.48 61.479L115.768 62.3143C115.63 62.383 115.525 62.503 115.476 62.6485C115.267 63.0661 115.141 63.4003 115.476 63.4003L117.23 63.275C118.357 62.4814 118.149 62.1473 117.48 61.479Z" fill="#5EC7C7"/>
<path d="M116.938 62.9834L115.184 63.8187C115.057 63.9 114.955 64.0159 114.891 64.1529C114.724 64.5705 114.557 64.9047 114.891 64.9047L116.646 64.7794C117.773 63.9858 117.564 63.6517 116.938 62.9834Z" fill="#5EC7C7"/>
<path d="M116.226 64.8209L115.265 65.2385C115.193 65.4112 115.151 65.5948 115.14 65.7815C115.14 66.0739 115.265 66.0321 115.599 65.9903L116.518 65.865C116.769 65.8233 116.769 65.7815 116.81 65.5309V64.6538L116.226 64.8209Z" fill="#5EC7C7"/>
<path d="M91.7074 81.8193C91.1226 78.3526 91.0391 77.6844 90.9138 77.2249C90.7885 76.7655 89.9114 80.6081 89.8696 81.8193H91.7074Z" fill="#7C90EB"/>
<path d="M98.3494 79.5221C97.7229 84.4923 96.8458 89.8385 96.4699 92.6369C96.094 95.4353 95.551 93.3469 95.0916 91.1751C94.6322 89.0032 94.7575 88.2096 95.9269 84.2417C97.0964 80.2739 98.6836 76.7655 98.3494 79.5221Z" fill="#9EB0FF"/>
<path d="M104.908 77.4759C107.831 81.7779 112.718 88.7948 113.679 90.6325C114.639 92.4703 113.512 91.4261 111.674 90.0478C109.836 88.6695 109.544 88.2936 108.333 86.247C107.121 84.2004 103.279 75.0535 104.908 77.4759Z" fill="#E0EAFF"/>
<path d="M117.855 74.135C116.852 77.9775 115.182 82.8225 114.764 84.2843C114.346 85.7462 112.718 85.245 111.423 84.6185C110.128 83.992 110.671 84.2843 111.632 85.4956C112.408 86.4058 113.398 87.1091 114.514 87.5421C115.182 87.7927 116.31 88.5445 116.936 84.3261C117.563 80.1076 118.398 72.1719 117.855 74.135Z" fill="#BDD1FF"/>
<path d="M121.616 90.2983C121.323 92.7208 119.152 92.0526 118.024 91.3008C116.896 90.549 115.434 90.7996 114.975 93.2638C114.766 94.308 113.722 95.2686 112.093 93.9738C110.464 92.6791 109.211 93.0967 108.919 94.8092C108.626 96.5216 107.206 96.9393 105.786 95.3104C104.366 93.6815 102.612 94.475 102.194 96.5216C101.776 98.5682 99.8969 98.1088 98.9363 96.4381C97.9757 94.7674 96.305 95.5192 96.0126 97.357C95.7203 99.1947 94.2166 98.067 94.0078 97.4405L94.2166 99.2365C96.0126 99.1947 97.8504 99.1112 99.6464 98.9441C116.228 97.524 124.79 91.0084 124.79 91.0084L124.498 89.7136C123.996 87.9176 121.95 87.8759 121.616 90.2983Z" fill="#94A7FF"/>
<path d="M103.531 94.5586C102.904 94.8092 102.403 95.5192 102.194 96.5216C101.86 98.1923 99.8969 98.1088 98.9363 96.4381C97.9757 94.7674 96.305 95.5192 96.0126 97.357C95.7203 99.1947 94.2166 98.067 94.0078 97.4405C94.0913 98.1923 94.1749 98.7771 94.2166 99.0277V99.2365C97.5712 99.1488 100.918 98.8699 104.241 98.4012L103.531 94.5586Z" fill="#7D93FF"/>
<path d="M40.7539 28.9001C42.0069 28.9001 43.1764 28.8583 43.5523 29.1925C43.9282 29.5266 43.3435 30.2367 42.4246 30.9049C41.5057 31.5732 41.8398 31.2391 40.8792 30.4037C39.9186 29.5684 39.7933 28.9001 40.7539 28.9001Z" fill="#C74153"/>
<path d="M41.2545 28.9424L40.2103 29.1094C40.085 29.4436 40.3774 29.9866 40.8786 30.4042C41.3798 30.8219 42.0063 31.1978 42.424 30.9054L42.8417 30.5713C42.6746 30.1954 42.1734 29.2348 41.2545 28.9424Z" fill="#A82C3C"/>
<path d="M43.1353 29.0261C42.3473 28.9112 41.5504 28.8692 40.7546 28.9008C40.2116 28.9008 40.1281 29.1514 40.2117 29.5273H43.0518C43.2189 29.5691 43.1771 29.2349 43.1353 29.0261Z" fill="white"/>
<path d="M47.6036 27.2716C47.6454 27.2298 47.6454 27.1463 47.6872 27.1045C47.8141 26.7449 47.826 26.3547 47.7212 25.988C47.6165 25.6213 47.4002 25.2962 47.1024 25.058C47.1481 25.17 47.1676 25.2909 47.1594 25.4116C47.1512 25.5323 47.1155 25.6495 47.055 25.7543C46.9946 25.8591 46.911 25.9487 46.8106 26.0162C46.7102 26.0837 46.5958 26.1274 46.4759 26.1439C46.0654 26.1622 45.6549 26.1056 45.2647 25.9768C44.7583 25.7754 44.2124 25.6932 43.6692 25.7367C43.126 25.7801 42.6 25.948 42.1322 26.2274C40.4615 25.3503 39.3338 26.1021 37.8302 26.1021C37.4201 26.1114 37.0112 26.055 36.6189 25.9351C35.3242 25.5592 35.3659 24.9744 35.6583 24.3062C33.8205 24.7238 33.9041 26.6869 34.7394 27.5222C35.1989 28.1069 36.076 28.3575 37.2454 28.1069C39.0832 29.6523 39.9603 29.7776 42.1322 28.3575C43.8864 29.8612 45.5571 29.6941 46.5595 27.8563C46.7685 27.8537 46.9735 27.7988 47.1559 27.6967C47.3382 27.5946 47.4922 27.4484 47.6036 27.2716V27.2716Z" fill="#6B3143"/>
<path d="M42.1304 28.3587C43.8846 29.8623 45.5553 29.6952 46.5577 27.8575C46.7667 27.8548 46.9717 27.7999 47.1541 27.6978C47.3365 27.5957 47.4904 27.4496 47.6019 27.2727V27.2727C47.6437 27.231 47.6437 27.1474 47.6854 27.1057C47.7366 26.9148 47.7646 26.7185 47.7689 26.5209C47.6561 26.8103 47.4398 27.0475 47.1619 27.1864C46.8841 27.3253 46.5646 27.3561 46.2653 27.2727C45.0123 28.3169 43.6758 27.9828 42.4228 27.0221C42.4228 27.0221 39.7915 28.4422 37.8702 26.8968C35.7401 27.4398 34.1947 26.4374 34.4453 25.0591C34.2174 25.4452 34.1226 25.8954 34.1754 26.3406C34.2282 26.7858 34.4258 27.2013 34.7377 27.5233V27.5233C35.1971 28.1081 36.0742 28.3587 37.2437 28.1081C39.0814 29.6534 39.9585 29.7787 42.1304 28.3587Z" fill="#5E2737"/>
<path d="M82.519 73.6744C82.7696 74.3009 83.1455 74.0086 83.8138 73.8415C85.8604 73.2568 87.9487 72.4214 88.8676 72.3379C89.7865 72.2544 90.1206 71.8785 88.2411 71.9202C86.3616 71.962 83.6885 72.0873 82.8531 72.1708C82.0178 72.2544 82.1013 72.6303 82.519 73.6744Z" fill="#8FA2FA"/>
<path d="M93.7144 23.0117C95.1762 24.223 95.2597 26.729 95.2597 27.7314C95.2597 28.7338 95.2597 30.5298 95.2597 30.9892C95.2597 31.4486 95.385 31.6157 96.8051 32.4928C98.2252 33.3699 97.6822 32.6181 97.0975 31.7828L96.3039 30.6133V27.3555C96.3005 26.466 96.0584 25.5937 95.6029 24.8296C95.1474 24.0656 94.4952 23.4378 93.7144 23.0117V23.0117Z" fill="#D4FFDC"/>
<path d="M106.998 30.446C107.541 30.7383 107.499 32.0749 106.998 31.4901C106.497 30.9054 106.246 30.0701 106.998 30.446Z" fill="#335A70"/>
<path d="M93.2966 27.8989C93.7978 28.1912 93.756 29.5695 93.2966 28.943C92.8371 28.3165 92.503 27.523 93.2966 27.8989Z" fill="#335A70"/>
<g style="mix-blend-mode:multiply">
<path d="M87.8673 28.8166C89.6632 29.652 90.4568 30.6544 90.9998 31.8656C91.5428 33.0769 90.7074 34.9981 88.7444 32.868C86.7813 30.7379 85.9878 27.9395 87.8673 28.8166Z" fill="#DAD4FF"/>
</g>
<g style="mix-blend-mode:multiply">
<path d="M109.835 35.1231C109.626 33.7031 109.459 32.3665 109.292 31.1553C108.759 31.8653 108.414 32.6986 108.29 33.5778C108.123 34.5802 108.833 35.8332 109.835 35.1231Z" fill="#DAD4FF"/>
</g>
<g style="mix-blend-mode:multiply">
<path d="M85.82 34.9154C88.0336 36.2937 88.7854 36.3773 89.8296 36.252C90.8738 36.1267 90.6649 35.3749 89.036 34.2054C87.4071 33.0359 86.4882 32.8271 85.4441 33.2447C84.3999 33.6624 85.1099 34.4142 85.82 34.9154Z" fill="#DAD4FF"/>
</g>
<g style="mix-blend-mode:multiply">
<path d="M110.128 37.9223L110.002 36.4604C109.209 37.4211 109.292 37.9641 110.128 37.9223Z" fill="#DAD4FF"/>
</g>
<path d="M91.2411 43.028C91.8245 42.8099 91.9962 41.8274 91.6246 40.8335C91.2529 39.8396 90.4788 39.2107 89.8954 39.4288C89.312 39.6469 89.1404 40.6294 89.512 41.6233C89.8836 42.6172 90.6577 43.2461 91.2411 43.028Z" fill="#B2A6FF"/>
<path d="M109.802 42.5232C109.888 41.8598 109.698 41.2883 109.378 41.2467C109.058 41.2051 108.728 41.7092 108.642 42.3726C108.556 43.036 108.746 43.6074 109.066 43.649C109.386 43.6906 109.716 43.1866 109.802 42.5232Z" fill="#B2A6FF"/>
<path d="M107.581 27.0216C108.375 27.857 108.458 29.1935 107.581 28.1493C106.704 27.1052 106.621 26.0192 107.581 27.0216Z" fill="#D4FFDC"/>
<path d="M98.309 47.4446C100.564 48.3634 102.235 48.0293 103.279 47.6116C104.323 47.194 104.198 48.3217 102.36 49.2405C100.523 50.1594 100.063 49.8253 99.1026 49.0317C98.142 48.2381 97.0143 46.9016 98.309 47.4446Z" fill="#7CE4CC"/>
<path d="M84.4414 87.751L85.9868 88.6281L85.235 89.4634L84.4414 87.751Z" fill="#F77BB0"/>
</g>
</g>
<defs>
<linearGradient id="paint0_linear" x1="66.4161" y1="107.46" x2="66.4161" y2="177.812" gradientUnits="userSpaceOnUse">
<stop stop-color="#E8827D"/>
<stop offset="1" stop-color="#E2A395"/>
</linearGradient>
<linearGradient id="paint1_linear" x1="42.2318" y1="1.80599" x2="34.8307" y2="20.8684" gradientUnits="userSpaceOnUse">
<stop stop-color="#FFC285"/>
<stop offset="1" stop-color="#DB8D6B"/>
</linearGradient>
<linearGradient id="paint2_linear" x1="17.6621" y1="12.9963" x2="58.5561" y2="12.9963" gradientUnits="userSpaceOnUse">
<stop stop-color="#D67569"/>
<stop offset="1" stop-color="#E39E7F"/>
</linearGradient>
<linearGradient id="paint3_linear" x1="78.4526" y1="40.5581" x2="87.1944" y2="38.4782" gradientUnits="userSpaceOnUse">
<stop stop-color="#61C7C7"/>
<stop offset="1" stop-color="#54B9C7"/>
</linearGradient>
<linearGradient id="paint4_linear" x1="4534.68" y1="1138.85" x2="4621.78" y2="1138.85" gradientUnits="userSpaceOnUse">
<stop stop-color="#61C7C7"/>
<stop offset="1" stop-color="#54B9C7"/>
</linearGradient>
<clipPath id="clip0">
<rect width="357" height="172" fill="white"/>
</clipPath>
<clipPath id="clip1">
<rect width="81.9468" height="89.0471" fill="white" transform="translate(108.499 99.4043)"/>
</clipPath>
<clipPath id="clip2">
<rect width="396.828" height="188.285" fill="white" transform="translate(-219.371)"/>
</clipPath>
</defs>
</svg>
