<svg width="72" height="96" viewBox="0 0 72 96" fill="none" xmlns="http://www.w3.org/2000/svg">
<g clip-path="url(#clip0)">
<g clip-path="url(#clip1)">
<path d="M72 29.3L72 89.6C72 91.84 72 92.96 71.56 93.82C71.18 94.56 70.56 95.18 69.82 95.56C68.96 96 67.84 96 65.6 96L6.39998 96C4.15998 96 3.03998 96 2.17998 95.56C1.43998 95.18 0.819983 94.56 0.439984 93.82C-1.62536e-05 92.96 -1.60578e-05 91.84 -1.56662e-05 89.6L-1.11901e-06 6.4C-7.27357e-07 4.16 -5.3153e-07 3.04 0.44 2.18C0.82 1.44 1.44 0.82 2.18 0.44C3.04 5.3153e-07 4.16 7.27357e-07 6.4 1.11901e-06L42.7 7.46591e-06C44.66 7.8086e-06 45.64 7.97995e-06 46.56 0.220008C47.06 0.340008 47.54 0.500008 48 0.720008L48 17.6C48 19.84 48 20.96 48.44 21.82C48.82 22.56 49.44 23.18 50.18 23.56C51.04 24 52.16 24 54.4 24L71.28 24C71.5 24.46 71.66 24.94 71.78 25.44C72 26.36 72 27.34 72 29.3Z" fill="#D3D6FD"/>
<path d="M68.26 20.26C69.64 21.64 70.32 22.32 70.82 23.14C71 23.42 71.14 23.7 71.28 24L54.4 24C52.16 24 51.04 24 50.18 23.56C49.44 23.18 48.82 22.56 48.44 21.82C48 20.96 48 19.84 48 17.6L48 0.719971C48.3 0.859971 48.58 0.999971 48.86 1.17997C49.68 1.67997 50.36 2.35997 51.74 3.73997L68.26 20.26Z" fill="#939BF9"/>
</g>
<g clip-path="url(#clip2)">
<path d="M24 56C28.4183 56 32 52.4183 32 48C32 43.5817 28.4183 40 24 40C19.5817 40 16 43.5817 16 48C16 52.4183 19.5817 56 24 56Z" fill="#5865F2"/>
<path d="M44 55.998L33.648 71.526L28 63.998L16 79.998H56L44 55.998Z" fill="#5865F2"/>
</g>
</g>
<defs>
<clipPath id="clip0">
<rect width="72" height="96" fill="white"/>
</clipPath>
<clipPath id="clip1">
<rect width="72" height="96" fill="white"/>
</clipPath>
<clipPath id="clip2">
<rect width="48" height="48" fill="white" transform="translate(12 36)"/>
</clipPath>
</defs>
</svg>
