<svg width="327" height="231" viewBox="0 0 327 231" fill="none" xmlns="http://www.w3.org/2000/svg">
<path opacity="0.4" d="M645.054 170.929C633.11 113.634 562.556 120.838 541.544 124.938C531.149 70.6357 484.813 43.9278 434.938 38.276C426.202 16.6659 400.325 -9.70952 353.878 3.589C294.604 22.2069 301.46 92.5782 301.46 92.5782C218.188 81.0528 160.462 115.961 135.027 153.862C21.5645 154.527 0 271 0 271L353.878 270.668H797C785.499 211.6 742.923 167.493 645.054 170.929Z" fill="#7196FF"/>
<g clip-path="url(#clip0)">
<path d="M177.505 131.194L180.425 112.515C180.513 111.865 180.84 111.272 181.344 110.853C181.847 110.433 182.489 110.218 183.144 110.249C183.522 110.259 183.894 110.349 184.235 110.514C184.576 110.679 184.878 110.914 185.121 111.205C185.364 111.495 185.542 111.834 185.644 112.199C185.746 112.564 185.769 112.946 185.712 113.32L182.842 132.654L177.505 131.194Z" fill="#E66CA5"/>
<path d="M180.628 127.775L183.146 116.044C183.17 115.946 183.23 115.86 183.314 115.804C183.397 115.749 183.499 115.726 183.599 115.742V115.742C183.8 115.792 183.951 115.943 183.901 116.144L182.29 127.624L180.628 127.775Z" fill="#F085B7"/>
<path d="M180.423 112.514C180.513 111.843 180.855 111.231 181.38 110.802C180.927 113.873 180.071 119.311 178.863 128.374L177.906 128.525L180.423 112.514Z" fill="#FFABBB"/>
<path d="M411.472 25.9688H237.974V222.526H411.472V25.9688Z" fill="#FEC9AA"/>
<path d="M217.33 93.3345L211.892 90.5654L208.167 95.4491L213.806 98.9735L217.33 93.3345Z" fill="#133DBD"/>
<path d="M218.335 104.717L229.21 125.108C229.462 125.565 229.559 126.092 229.487 126.61C229.414 127.127 229.176 127.607 228.807 127.978L228.656 128.129C226.86 130.007 224.61 131.393 222.124 132.151C219.637 132.909 216.998 133.015 214.458 132.458V132.458C214.09 132.378 213.759 132.175 213.521 131.883C213.283 131.59 213.152 131.225 213.149 130.847L212.646 106.227C212.596 96.9131 213.049 94.8489 218.335 104.717Z" fill="#33BEB5"/>
<path d="M228.658 128.123C229.053 127.706 229.309 127.177 229.39 126.609C229.472 126.041 229.374 125.461 229.112 124.951L218.337 104.711C215.769 99.9282 214.36 97.9143 213.554 98.2667C215.618 112.565 219.848 131.194 219.848 131.194L222.768 131.899C225.002 131.122 227.02 129.828 228.658 128.123V128.123Z" fill="#33A2BE"/>
<path d="M226.038 119.162C225.384 117.953 225.081 117.551 224.779 118.155C220.298 111.006 218.133 112.415 218.133 119.363C218.133 119.363 215.012 117.702 215.364 123.844C214.92 123.724 214.448 123.752 214.021 123.925C213.593 124.098 213.234 124.405 212.998 124.801L213.149 130.842C213.152 131.165 213.249 131.479 213.428 131.747C213.607 132.016 213.86 132.226 214.156 132.353C216.821 132.777 219.548 132.579 222.125 131.776C224.701 130.972 227.057 129.585 229.009 127.721C229.285 127.348 229.451 126.904 229.487 126.441C229.522 125.978 229.426 125.514 229.21 125.103L226.038 119.162Z" fill="#F7E5BC"/>
<path d="M229.212 125.103L226.04 119.162C225.385 117.953 225.083 117.551 224.781 118.155C220.3 111.006 218.135 112.415 218.135 119.363C217.87 119.229 217.577 119.16 217.279 119.162V119.162C218.135 119.363 218.186 120.219 218.689 122.082C219.193 123.945 219.545 125.606 219.545 125.606L227.5 128.98C228.038 128.603 228.543 128.182 229.01 127.721C229.287 127.348 229.453 126.904 229.488 126.441C229.524 125.978 229.428 125.514 229.212 125.103V125.103Z" fill="#F7D197"/>
<path d="M228.861 125.352C225.034 121.223 221.611 119.763 213.857 131.091C213.781 131.213 213.736 131.351 213.723 131.493C213.711 131.636 213.733 131.78 213.787 131.912C213.841 132.045 213.926 132.163 214.034 132.257C214.143 132.35 214.272 132.417 214.411 132.451V132.451C216.958 133.002 219.604 132.893 222.097 132.135C224.591 131.378 226.849 129.996 228.659 128.121L228.81 127.97L229.163 127.517C229.355 127.172 229.429 126.774 229.375 126.383C229.32 125.993 229.14 125.631 228.861 125.352Z" fill="#242236"/>
<path d="M228.207 128.884L227.2 123.748C224.38 121.432 221.41 121.382 216.425 127.625L218.49 132.509C221.992 132.181 225.345 130.93 228.207 128.884V128.884Z" fill="#9E4B34"/>
<path d="M228.458 128.682L224.783 128.38L224.279 129.789L223.373 127.826C222.517 125.812 222.467 125.862 221.712 127.574C220.956 129.286 217.583 128.682 217.583 128.682L216.878 127.121C221.258 121.834 224.028 121.532 226.595 123.294L228.458 128.682Z" fill="#7A2F28"/>
<path d="M205.852 139.252C203.586 140.964 203.133 140.762 203.687 143.934C204.241 147.106 205.852 139.252 205.852 139.252Z" fill="#3EE8DD"/>
<path d="M245.326 155.869C245.98 162.213 244.117 162.213 241.248 163.673H199.258C198.676 162.391 198.27 161.036 198.049 159.646C197.647 156.625 197.294 156.121 199.459 152.244C199.61 149.274 200.617 147.461 202.883 144.541C204.158 142.551 205.589 140.666 207.162 138.902L235.206 139.909C236.368 140.688 237.463 141.564 238.478 142.527C240.039 143.987 240.945 145.296 241.097 146.303C241.152 146.721 241.185 147.141 241.197 147.562C244.973 149.173 244.973 152.748 245.326 155.869Z" fill="#274BA3"/>
<path d="M235.352 149.674C238.322 146.552 238.826 145.697 239.128 145.294C239.43 144.891 238.927 144.539 238.473 144.186C238.02 143.834 238.071 143.632 237.013 145.445C235.956 147.257 233.59 151.487 235.352 149.674Z" fill="#1E397D"/>
<path d="M236.463 148.416C241.246 148.718 242.253 148.819 243.008 149.675C243.763 150.531 243.864 151.235 244.065 151.991C244.266 152.746 243.914 152.746 241.346 151.487C238.779 150.229 235.808 149.121 235.808 149.121L236.463 148.416Z" fill="#1E397D"/>
<path d="M210.631 149.723L209.926 152.845L201.669 153.65C201.42 153.675 201.189 153.792 201.021 153.978C200.853 154.165 200.761 154.407 200.763 154.657V155.463C200.758 155.575 200.78 155.687 200.827 155.789C200.875 155.89 200.945 155.98 201.034 156.049C201.123 156.118 201.227 156.164 201.337 156.185C201.447 156.206 201.561 156.2 201.669 156.168L209.926 153.499L217.327 154.657C217.407 154.669 217.483 154.697 217.552 154.74C217.621 154.782 217.681 154.837 217.728 154.903C217.774 154.969 217.808 155.043 217.825 155.122C217.843 155.201 217.845 155.283 217.83 155.362L216.723 163.669H236.862C240.688 159.339 236.811 150.831 235.15 147.558L218.032 145.242L209.926 140.358L210.782 145.343C211.035 146.798 210.984 148.289 210.631 149.723V149.723Z" fill="#1A3578"/>
<path d="M217.531 157.678C219.596 158.886 221.156 159.792 222.214 160.296C223.271 160.799 226.241 161.706 227.148 162.008C228.054 162.31 228.759 162.763 228.205 163.669H216.826L217.531 157.678Z" fill="#7A2F28"/>
<path d="M218.991 158.534L217.531 157.678L216.826 163.669H217.833L218.991 158.534Z" fill="#5E221D"/>
<path d="M214.053 132.609C212.341 133.112 212.19 132.609 211.032 135.881L213.449 136.033L214.053 132.609Z" fill="#3EE8DD"/>
<path d="M211.79 135.68L212.444 133.969C212.586 133.631 212.806 133.331 213.086 133.095C213.366 132.859 213.698 132.692 214.055 132.609L216.623 132.106L226.793 131.904L232.331 134.724C232.557 134.834 232.752 134.997 232.901 135.198C233.05 135.4 233.148 135.634 233.187 135.882L233.389 137.191L236.057 138.953C236.205 139.049 236.322 139.185 236.394 139.346C236.465 139.507 236.488 139.685 236.46 139.859C235.755 146.002 229.462 155.366 220.701 151.187C214.156 148.066 208.114 143.535 205.194 141.219L204.086 142.729C203.784 141.269 204.036 140.715 204.993 139.96C205.299 139.752 205.586 139.516 205.849 139.255C205.937 139.012 205.988 138.758 206 138.5C206.251 137.342 206 137.04 207.359 136.738L211.79 135.68Z" fill="#33BEB5"/>
<path d="M213.806 134.268C215.267 135.225 215.921 135.728 217.029 136.383C218.136 137.037 218.69 138.397 217.129 137.792C215.864 137.294 214.635 136.705 213.454 136.03C212.548 135.476 212.9 135.275 213.001 134.721C213.102 134.167 213.253 133.916 213.806 134.268Z" fill="#37CFC5"/>
<path d="M236.057 138.953L233.389 137.191L233.187 135.882C233.148 135.634 233.05 135.4 232.901 135.198C232.752 134.997 232.556 134.834 232.331 134.724L226.793 131.904H225.232L218.838 145.7C219.392 148.72 220.298 149.123 221.053 149.828C221.809 150.533 221.809 150.583 221.557 151.49C229.864 154.712 235.805 145.75 236.46 139.809C236.478 139.643 236.45 139.475 236.379 139.324C236.308 139.173 236.196 139.045 236.057 138.953V138.953Z" fill="#33A2BE"/>
<path d="M232.534 136.235C232.836 136.99 233.038 137.04 232.534 138.4C231.732 140.198 230.736 141.903 229.564 143.485C228.859 144.391 228.506 144.391 229.564 141.622C230.621 138.853 230.923 138.249 231.225 136.99C231.527 135.731 232.031 134.825 232.534 136.235Z" fill="#2B98B3"/>
<path d="M212.849 137.391C214.534 139.757 216.612 141.818 218.992 143.484C220.854 144.793 220.25 144.088 219.394 142.577C218.539 141.067 216.978 140.362 215.266 138.7C213.554 137.039 211.389 135.378 212.849 137.391Z" fill="#319BB5"/>
<path d="M206.354 139.152C206.328 139.202 206.314 139.255 206.31 139.311C206.307 139.366 206.315 139.421 206.334 139.473C206.353 139.525 206.382 139.572 206.42 139.613C206.458 139.653 206.504 139.685 206.555 139.706C210.926 142.139 215.431 144.324 220.048 146.251C222.465 147.107 221.005 146.201 218.034 144.288C215.064 142.375 210.079 139.203 208.468 138.246C206.857 137.289 206.857 137.138 206.354 139.152Z" fill="#33A2BE"/>
<path d="M216.671 132.707C214.304 133.109 212.995 133.059 216.671 135.224C220.346 137.389 216.671 132.707 216.671 132.707Z" fill="#1E6470"/>
<path d="M223.171 125.402L223.574 127.215C223.624 127.265 223.674 127.366 223.775 127.366L224.53 127.466L223.876 125.956V125.855L224.027 124.798L223.322 125.201L223.171 125.402Z" fill="#66251F"/>
<path d="M219.549 127.222L220.908 127.424C220.405 128.179 219.801 128.078 219.549 127.222Z" fill="#5E221D"/>
<path d="M224.529 126.719L225.888 126.316C225.737 127.223 225.133 127.374 224.529 126.719Z" fill="#5E221D"/>
<path d="M220.456 127.474C220.678 127.474 220.859 127.159 220.859 126.769C220.859 126.38 220.678 126.064 220.456 126.064C220.234 126.064 220.053 126.38 220.053 126.769C220.053 127.159 220.234 127.474 220.456 127.474Z" fill="black"/>
<path d="M225.287 126.563C225.51 126.563 225.69 126.247 225.69 125.858C225.69 125.468 225.51 125.153 225.287 125.153C225.065 125.153 224.885 125.468 224.885 125.858C224.885 126.247 225.065 126.563 225.287 126.563Z" fill="black"/>
<path d="M226.592 123.291L227.7 124.146C228.103 125.254 228.254 126.815 228.657 128.124C229.06 129.433 229.613 131.396 229.362 132.504C229.11 133.612 229.311 133.712 230.016 135.122C230.721 136.532 232.03 138.042 231.577 139.754C232.332 140.912 232.08 141.617 231.879 142.674C231.678 143.732 230.822 146.551 228.908 146.501C228.263 147.402 227.359 148.086 226.316 148.464C225.274 148.841 224.141 148.894 223.068 148.615C219.997 147.86 216.926 145.746 217.278 142.976C216.271 142.171 216.473 140.056 216.624 138.898C216.732 137.869 216.576 136.83 216.171 135.877C215.818 134.87 215.818 133.864 216.12 131.749C215.767 130.874 215.514 129.962 215.365 129.03L216.875 127.067L217.58 128.678C217.918 129.35 218.221 130.039 218.487 130.742C218.74 130.631 219.016 130.579 219.292 130.591C219.479 130.203 219.763 129.87 220.115 129.624C220.468 129.377 220.878 129.224 221.306 129.181L224.277 129.785L224.78 128.376C226.19 128.174 226.895 128.174 227.398 128.527C227.665 127.73 227.7 126.875 227.499 126.06C227.247 125.103 226.592 123.291 226.592 123.291Z" fill="white"/>
<path d="M224.528 130.943L223.37 130.692C222.817 130.541 222.867 130.49 221.306 129.181L224.277 129.785L224.78 128.376C226.19 128.174 226.895 128.174 227.398 128.527C227.665 127.73 227.7 126.875 227.499 126.06C227.247 125.103 226.593 123.291 226.593 123.291L227.65 124.146C228.103 125.254 228.254 126.815 228.657 128.124C229.06 129.433 229.614 131.396 229.362 132.504C229.11 133.612 229.311 133.712 230.016 135.122C230.721 136.532 232.03 138.042 231.577 139.754C232.332 140.912 232.081 141.617 231.879 142.674C231.678 143.732 230.822 146.551 228.909 146.501C228.263 147.402 227.359 148.086 226.317 148.464C225.274 148.841 224.142 148.894 223.068 148.615C219.997 147.86 216.926 145.746 217.278 142.976C218.235 145.594 220.249 145.091 220.249 145.091C221.473 144.826 222.723 144.708 223.975 144.739C224.68 143.48 225.535 142.272 226.24 141.768C227.751 138.898 226.593 135.827 225.888 134.115L224.528 130.943Z" fill="#D6DFFF"/>
<path d="M224.531 130.948C225.286 131.099 225.235 130.444 225.185 129.79C225.157 129.296 225.02 128.814 224.782 128.38L224.279 129.79L221.308 129.185C222.869 130.494 222.819 130.545 223.373 130.696L224.531 130.948Z" fill="#CAD5FC"/>
<path d="M218.838 126.364L221.607 125.558C221.373 125.426 221.115 125.341 220.848 125.31C220.581 125.279 220.311 125.302 220.053 125.377C219.795 125.452 219.554 125.578 219.346 125.748C219.137 125.917 218.965 126.126 218.838 126.364Z" fill="#CFDEFF"/>
<path d="M223.618 125.253L226.488 124.699C226.03 124.404 225.476 124.297 224.942 124.401C224.407 124.504 223.933 124.809 223.618 125.253V125.253Z" fill="#CFDEFF"/>
<path d="M222.212 128.325L223.219 128.879L221.96 128.678C221.809 128.628 221.759 128.628 221.859 128.426C221.96 128.225 222.01 128.225 222.212 128.325Z" fill="#7A2F28"/>
<path d="M225.738 131.999C225.728 132.187 225.652 132.366 225.523 132.504C225.394 132.642 225.221 132.731 225.034 132.754C222.013 133.157 220.704 132.452 220.2 132.049C220.14 131.992 220.094 131.921 220.068 131.842C220.041 131.763 220.035 131.678 220.049 131.596V131.495C221.66 132.049 224.077 131.798 224.631 131.697C225.185 131.596 224.983 131.445 224.933 131.193C225.039 131.193 225.143 131.214 225.241 131.255C225.339 131.295 225.428 131.354 225.503 131.429C225.577 131.504 225.637 131.593 225.677 131.691C225.718 131.788 225.738 131.893 225.738 131.999Z" fill="#DE5D70"/>
<path d="M224.53 132.807C224.215 132.43 223.841 132.107 223.423 131.85C222.286 131.928 221.145 131.809 220.049 131.498V131.598C220.035 131.68 220.041 131.765 220.068 131.844C220.094 131.923 220.14 131.994 220.2 132.051H220.251C220.704 132.404 221.912 133.109 224.53 132.807Z" fill="#B83D50"/>
<path d="M236.866 163.672H234.6C230.925 159.09 232.838 150.632 234.449 147.258L236.463 148.416C236.463 148.416 242.152 159.744 236.866 163.672Z" fill="#1C1B29"/>
<path d="M232.734 148.314C234.069 148.314 235.151 147.232 235.151 145.898C235.151 144.563 234.069 143.481 232.734 143.481C231.4 143.481 230.318 144.563 230.318 145.898C230.318 147.232 231.4 148.314 232.734 148.314Z" fill="#F7E9CB"/>
<path d="M235.148 146.752C235.815 146.752 236.356 146.211 236.356 145.544C236.356 144.876 235.815 144.335 235.148 144.335C234.481 144.335 233.94 144.876 233.94 145.544C233.94 146.211 234.481 146.752 235.148 146.752Z" fill="#F7E9CB"/>
<path d="M235.604 145.292H228.455C226.996 148.928 226.996 152.986 228.455 156.621H235.604C237.013 152.976 237.013 148.937 235.604 145.292V145.292Z" fill="#DB7B47"/>
<path d="M230.473 145.292C229.734 149.024 229.632 152.855 230.171 156.621H230.524L230.876 145.292H230.473Z" fill="#C2612C"/>
<path d="M233.642 145.292C234.8 149.622 234.146 156.621 234.146 156.621H233.642L233.189 145.292H233.642Z" fill="#C2612C"/>
<path d="M222.041 118.754C222.542 118.514 222.598 117.588 222.166 116.685C221.733 115.782 220.976 115.245 220.474 115.485C219.973 115.726 219.917 116.652 220.349 117.555C220.782 118.458 221.539 118.995 222.041 118.754Z" fill="#FF9CCD"/>
<path d="M222.166 116.645C221.763 115.739 220.957 115.185 220.454 115.437C220.394 115.468 220.341 115.51 220.297 115.562C220.254 115.614 220.222 115.674 220.202 115.739C221.058 115.689 220.605 116.696 222.166 116.645Z" fill="#FFEBF5"/>
<path d="M220.053 116.344C220.064 116.759 220.15 117.168 220.305 117.553L220.506 117.855C220.657 117.804 221.01 117.704 221.161 117.955C221.312 118.207 221.513 118.66 222.067 118.761C222.203 118.654 222.311 118.516 222.381 118.358C222.452 118.2 222.482 118.027 222.47 117.855H222.319C221.262 117.855 220.657 116.747 220.053 116.344Z" fill="#FF70B7"/>
<path d="M216.877 122.038C217.155 122.038 217.38 121.745 217.38 121.384C217.38 121.022 217.155 120.729 216.877 120.729C216.599 120.729 216.374 121.022 216.374 121.384C216.374 121.745 216.599 122.038 216.877 122.038Z" fill="#F7D197"/>
<path d="M214.206 126.359C214.484 126.359 214.71 126.066 214.71 125.704C214.71 125.343 214.484 125.05 214.206 125.05C213.928 125.05 213.703 125.343 213.703 125.704C213.703 126.066 213.928 126.359 214.206 126.359Z" fill="#F7D197"/>
<path d="M211.892 90.5654L210.835 93.9891L208.167 95.4491L211.892 90.5654Z" fill="#179DE0"/>
<path d="M215.365 129.031C215.514 129.816 215.716 130.589 215.969 131.347V131.347C215.969 130.743 216.221 130.038 216.624 129.887C217.026 129.736 217.077 128.729 217.58 128.679L216.875 127.067L215.365 129.031Z" fill="#A8C3FF"/>
<path d="M217.027 142.674L217.279 142.976L217.027 142.674Z" fill="#D6DFFF"/>
<path d="M220.5 134.42C221.709 135.176 222.313 135.629 222.313 136.787C221.523 136.159 220.901 135.346 220.5 134.42V134.42Z" fill="#D6DFFF"/>
<path d="M226.094 134.621C227.352 135.88 227.806 136.786 227.906 137.491C227.394 137.304 226.918 137.031 226.497 136.685L226.094 134.621Z" fill="white"/>
<path d="M216.674 132.707C216.737 133.492 216.942 134.259 217.278 134.972C216.422 134.318 216.372 133.764 216.674 132.707Z" fill="#D6DFFF"/>
<path d="M219.646 138.65C220.401 139.808 222.164 139.808 222.164 139.808C220.552 140.664 219.848 140.715 219.646 138.65Z" fill="#D6DFFF"/>
<path d="M227.698 129.233C228.403 129.989 228.303 131.348 228.303 131.348C228.303 131.348 229.662 130.19 227.698 129.233Z" fill="#C7D3FC"/>
<path d="M230.015 139.504C230.317 140.561 230.015 141.467 229.361 141.77C229.428 140.979 229.65 140.209 230.015 139.504V139.504Z" fill="#C7D3FC"/>
<path d="M221.257 124.65C222.365 124.317 223.491 124.048 224.63 123.845C222.818 123.644 221.811 123.946 221.257 124.65Z" fill="#66251F"/>
<path d="M218.036 126.912C218.338 126.811 218.69 126.609 218.992 126.912H218.036Z" fill="#5E221D"/>
<path d="M218.185 127.568C218.386 127.316 218.638 127.014 219.041 127.165L218.185 127.568Z" fill="#5E221D"/>
<path d="M226.895 125.102C226.593 125.152 226.19 125.253 226.14 125.655L226.895 125.102Z" fill="#5E221D"/>
<path d="M227.2 125.655C226.897 125.605 226.495 125.504 226.243 125.907L227.2 125.655Z" fill="#5E221D"/>
<path d="M222.417 126.814C222.427 127.046 222.486 127.274 222.59 127.482C222.694 127.69 222.841 127.874 223.021 128.022C223.272 128.224 223.071 127.871 222.769 127.217C222.467 126.562 222.316 126.411 222.417 126.814Z" fill="#C27059"/>
<path d="M220.607 131.148C220.491 131.147 220.376 131.18 220.278 131.242C220.18 131.305 220.102 131.395 220.053 131.5C221.664 132.054 224.081 131.802 224.635 131.702C225.189 131.601 224.987 131.45 224.937 131.198H224.887C223.463 131.356 222.026 131.339 220.607 131.148Z" fill="#D6DFFF"/>
<path d="M227.65 124.146L226.593 123.291C226.593 123.291 226.995 124.398 227.297 125.355L228.103 125.858C228.012 125.273 227.86 124.7 227.65 124.146V124.146Z" fill="#A8C3FF"/>
<path d="M237.723 153.548C237.916 153.977 237.934 154.465 237.773 154.907C237.685 155.083 237.548 155.229 237.378 155.327C237.208 155.426 237.013 155.472 236.817 155.461H233.544C232.89 155.461 232.739 155.058 232.739 154.958C232.739 154.857 232.688 154.253 233.041 154.152C233.734 153.965 234.441 153.831 235.155 153.749C234.267 153.804 233.375 153.804 232.487 153.749C231.53 153.699 231.43 153.196 231.43 152.34C231.43 152.34 230.473 152.44 230.372 151.887C230.272 151.333 230.02 150.628 230.976 150.426L235.357 149.671L231.581 149.42C230.775 149.319 230.473 149.268 230.322 148.765C230.171 148.262 230.523 147.909 231.178 147.859C232.638 147.708 235.004 147.557 236.515 147.557C236.74 147.562 236.956 147.652 237.119 147.808C237.317 147.989 237.449 148.231 237.495 148.495C237.54 148.76 237.497 149.032 237.371 149.268V149.268C238.176 150.225 238.277 150.426 237.723 151.282C238.01 151.59 238.169 151.995 238.169 152.415C238.169 152.836 238.01 153.24 237.723 153.548Z" fill="#7A2F28"/>
<path d="M235.351 149.675L236.76 149.474L236.66 149.121L235.149 149.625L235.351 149.675Z" fill="#5E221D"/>
<path d="M236.365 151.081L231.028 152.239L231.431 152.34L234.955 151.635L236.567 151.484L236.365 151.081Z" fill="#5E221D"/>
<path d="M235.149 153.751L237.012 153.701L236.962 153.248L236.055 153.449L235.149 153.751Z" fill="#5E221D"/>
<path d="M227.9 154.959C227.698 151.888 228.806 147.558 229.763 145.292H228.454C227.242 148.373 227.048 151.76 227.9 154.959V154.959Z" fill="#FFAE82"/>
<path d="M232.232 145.293C233.742 146.652 234.195 145.293 234.195 145.293L232.836 144.84L232.232 145.293Z" fill="#F7E9CB"/>
<path d="M208.516 155.768C203.985 157.832 202.323 157.933 201.619 158.134C200.914 158.336 200.108 158.487 201.619 159.544C203.129 160.601 203.381 160.702 205.848 158.839C208.315 156.976 210.53 154.862 208.516 155.768Z" fill="#1A3E9C"/>
<path d="M209.927 152.845C209.446 150.922 208.824 149.038 208.064 147.206C207.611 146.199 207.863 145.797 208.266 145.495C208.669 145.193 208.82 145.495 209.122 146.602C209.424 147.71 210.38 152.493 210.38 152.493L209.927 152.845Z" fill="#1E397D"/>
<path d="M204.291 146.6C205.902 148.664 206.808 149.671 207.312 150.427C207.815 151.182 207.664 151.031 205.348 150.779C203.032 150.527 201.623 150.678 201.824 149.822C202.025 148.967 202.831 147.154 203.032 146.6C203.234 146.046 203.687 145.845 204.291 146.6Z" fill="#1A3E9C"/>
<path d="M393.548 42.5327H237.974V100.382L411.522 176.86V88.1476L401.201 48.1716L393.548 42.5327Z" fill="url(#paint0_linear)"/>
<path d="M411.472 56.0293H237.974V59.8658H411.472V56.0293Z" fill="#C9795F"/>
<path d="M324.773 88.147C331.103 88.147 337.173 90.6613 341.648 95.1368C346.124 99.6123 348.638 105.682 348.638 112.012V222.525H300.909V112.012C300.909 105.682 303.423 99.6123 307.899 95.1368C312.374 90.6613 318.444 88.147 324.773 88.147Z" fill="#1C1B29"/>
<path d="M330.664 88.8518C325.532 90.1799 320.987 93.1753 317.743 97.3674C314.498 101.56 312.739 106.711 312.74 112.012V222.525H300.909V112.012C300.909 105.682 303.423 99.6123 307.899 95.1368C312.374 90.6613 318.444 88.147 324.773 88.147C326.758 88.1456 328.736 88.3822 330.664 88.8518Z" fill="#41314A"/>
<path d="M229.06 59.8521H222.162V73.3905H229.06V59.8521Z" fill="#F7AB5B"/>
<path d="M229.06 59.8521H224.277V73.3905H229.06V59.8521Z" fill="#F09E48"/>
<path d="M232.94 71.0278H226.042V84.5663H232.94V71.0278Z" fill="#FFB464"/>
<path d="M256.352 76.5181H249.454V90.0565H256.352V76.5181Z" fill="#FFB464"/>
<path d="M256.3 76.5181H253.632V90.0565H256.3V76.5181Z" fill="#FAA255"/>
<path d="M292.298 74.6045H285.4V88.143H292.298V74.6045Z" fill="#FFB464"/>
<path d="M292.245 74.6045H288.822V88.143H292.245V74.6045Z" fill="#FAA255"/>
<path d="M145.935 192.867C151.121 198.405 153.688 211.445 148.049 222.522H124.99C119.251 213.258 121.063 200.671 126.752 192.867H145.935Z" fill="#914343"/>
<path d="M127.357 222.522H148.05C153.689 211.445 151.121 198.405 145.935 192.867H136.017L127.357 222.522Z" fill="#803333"/>
<path d="M143.318 192.867C145.548 202.586 146.127 212.611 145.03 222.522H145.936C148.151 210.489 146.691 201.577 144.577 192.867H143.318Z" fill="#732A2A"/>
<path d="M138.132 192.867C139.551 202.685 139.905 212.628 139.189 222.522H140.347C141.807 210.489 140.8 201.577 139.491 192.867H138.132Z" fill="#732A2A"/>
<path d="M122.222 201.782C124.185 197.05 133.5 196.194 128.968 206.817H123.128L122.222 201.782Z" fill="#1A606E"/>
<path d="M120.312 206.818C120.312 206.818 114.724 199.87 117.291 195.792C119.859 191.714 125.951 194.282 125.045 206.818H120.312Z" fill="#216C7A"/>
<path d="M118.399 196.347C114.824 191.765 108.732 191.916 108.783 195.793C108.833 199.67 118.399 197.354 118.399 197.354V196.347Z" fill="#216C7A"/>
<path d="M123.181 182.099C118.801 182.854 121.419 188.191 120.01 195.441L122.326 197.052C127.411 190.003 127.562 181.344 123.181 182.099Z" fill="#216C7A"/>
<path d="M115.096 191.991C115.335 190.792 114.867 189.686 114.049 189.523C113.231 189.36 112.373 190.2 112.133 191.399C111.894 192.599 112.362 193.704 113.18 193.868C113.998 194.031 114.856 193.191 115.096 191.991Z" fill="#216C7A"/>
<path d="M126.904 200.375C126.904 192.672 127.71 189.45 129.824 189.551C131.939 189.651 128.364 200.728 128.364 200.728L126.904 200.375Z" fill="#1A606E"/>
<path d="M124.44 185.012C126.454 181.085 129.978 182.042 128.719 185.012C127.461 187.983 124.842 186.472 124.842 186.472L124.44 185.012Z" fill="#216C7A"/>
<path d="M128.165 203.648C131.588 196.801 134.861 191.666 137.63 195.442C140.399 199.218 129.826 208.28 129.826 208.28H128.165V203.648Z" fill="#216C7A"/>
<path d="M134.257 196.04C132.747 192.767 131.639 190.149 132.747 187.732C133.854 185.316 138.788 185.568 135.868 195.788L134.257 196.04Z" fill="#216C7A"/>
<path d="M123.935 207.878C125.295 202.692 128.92 202.29 129.977 203.901C131.034 205.512 127.913 207.727 127.913 207.727L123.935 207.878Z" fill="#2A858C"/>
<path d="M132.693 222.531H119.2L114.92 214.676L115.676 206.822H136.217L137.124 214.676L132.693 222.531Z" fill="#F77C7C"/>
<path d="M247.236 222.528L246.632 181.293C246.609 179.727 246.213 178.188 245.478 176.805C244.742 175.422 243.688 174.234 242.402 173.338L237.368 169.764L203.433 167.851L206.605 170.67C204.44 172.08 204.491 173.087 204.239 177.165L201.117 222.528H247.236Z" fill="#244AB0"/>
<path d="M246.632 181.293C246.609 179.727 246.214 178.188 245.479 176.805C244.743 175.422 243.689 174.233 242.403 173.338L240.641 172.08H206.304L210.281 175.05C211.354 175.852 212.201 176.918 212.739 178.145C213.277 179.371 213.489 180.716 213.353 182.048L209.526 222.528H247.237L246.632 181.293Z" fill="#203D87"/>
<path d="M201.117 222.527C207.411 217.291 209.475 217.19 212.244 217.19C215.013 217.19 215.416 222.527 215.416 222.527H201.117Z" fill="#203D87"/>
<path d="M220.906 177.165C227.149 183.156 231.429 186.278 232.486 186.932C233.543 187.587 234.852 185.321 236.01 182.049C237.168 178.776 238.024 175.403 238.477 174.295C238.93 173.187 240.592 170.922 233.795 170.922C226.998 170.922 211.088 168.606 220.906 177.165Z" fill="#1A3578"/>
<path d="M243.31 179.278C238.326 186.629 231.126 195.641 229.062 198.36C226.998 201.078 223.977 198.863 221.711 196.547C219.446 194.231 220.453 195.288 221.56 198.611C222.462 201.143 224.027 203.386 226.091 205.106C227.249 206.113 229.062 208.53 233.644 200.122C238.225 191.714 245.928 175.502 243.31 179.278Z" fill="#1A3578"/>
<path d="M206.149 222.525C210.832 217.088 215.917 216.735 219.693 222.525H206.149Z" fill="#30868C"/>
<path d="M210.23 219.104C213.653 220.262 214.711 222.226 214.862 222.528H219.695C216.976 218.399 213.653 217.393 210.23 219.104Z" fill="#2B7585"/>
<path d="M239.331 219.253C235.606 219.052 232.736 220.663 229.211 222.526H242.755C243.208 220.059 241.899 219.404 239.331 219.253Z" fill="#2B7585"/>
<path d="M198.047 204.954H160.89V207.693H198.047V204.954Z" fill="#3D1A10"/>
<path d="M181.885 178.729L185.863 222.531H180.828L176.8 178.729H181.885Z" fill="#542518"/>
<path d="M197.897 178.729L201.874 222.531H196.839L192.761 178.729H197.897Z" fill="#542518"/>
<path d="M161.543 177.164L157.566 222.527H162.601L166.628 177.164H161.543Z" fill="#542518"/>
<path d="M161.544 180.689L154.395 146.05C154.373 145.943 154.374 145.833 154.399 145.726C154.424 145.62 154.471 145.52 154.538 145.434C154.605 145.348 154.69 145.278 154.787 145.227C154.884 145.177 154.991 145.149 155.1 145.144H158.624C158.798 145.149 158.966 145.211 159.102 145.32C159.239 145.429 159.336 145.579 159.379 145.748L166.629 180.689H161.544Z" fill="#6E2B17"/>
<path d="M179.621 148.164H157.921V151.985H179.621V148.164Z" fill="#6E2B17"/>
<path d="M160.536 177.164H193.966V181.091H160.536C160.271 181.098 160.008 181.053 159.761 180.957C159.514 180.862 159.288 180.72 159.097 180.537C158.905 180.355 158.751 180.137 158.644 179.895C158.537 179.653 158.478 179.392 158.471 179.128C158.478 178.863 158.537 178.603 158.644 178.361C158.751 178.119 158.905 177.901 159.097 177.718C159.288 177.536 159.514 177.393 159.761 177.298C160.008 177.203 160.271 177.158 160.536 177.164Z" fill="#6E2B17"/>
<path d="M171.464 177.164H199.105C199.367 177.157 199.628 177.203 199.872 177.299C200.116 177.395 200.338 177.538 200.526 177.721C200.714 177.904 200.863 178.123 200.965 178.365C201.066 178.606 201.119 178.866 201.119 179.128V179.128C201.119 179.39 201.066 179.649 200.965 179.891C200.863 180.133 200.714 180.351 200.526 180.534C200.338 180.717 200.116 180.861 199.872 180.957C199.628 181.052 199.367 181.098 199.105 181.091H171.464V177.164Z" fill="#542113"/>
<path d="M167.935 111.907C167.151 112.223 166.517 112.826 166.161 113.593C165.806 114.36 165.756 115.233 166.022 116.036L171.46 131.945L178.458 129.881L172.215 113.77C171.89 112.959 171.258 112.309 170.457 111.961C169.656 111.612 168.75 111.593 167.935 111.907V111.907Z" fill="#E66CA5"/>
<path d="M173.326 127.973L176.095 127.57L172.268 118.054C172.221 117.912 172.143 117.783 172.039 117.675C171.936 117.567 171.81 117.483 171.67 117.43C171.53 117.377 171.38 117.356 171.231 117.368C171.082 117.38 170.938 117.425 170.808 117.5V117.5C170.581 117.61 170.4 117.796 170.299 118.027C170.197 118.258 170.181 118.518 170.254 118.759L173.326 127.973Z" fill="#F085B7"/>
<path d="M171.816 127.972L166.429 113.169C166.152 113.588 165.973 114.062 165.903 114.559C165.834 115.055 165.876 115.561 166.026 116.039L170.154 128.173L171.816 127.972Z" fill="#FFA3B5"/>
<path d="M185.177 125.731L164.656 128.396C161.706 128.78 159.625 131.482 160.008 134.433L160.027 134.577C160.41 137.528 163.112 139.609 166.063 139.226L186.583 136.561C189.534 136.178 191.615 133.475 191.232 130.525L191.213 130.38C190.83 127.429 188.127 125.348 185.177 125.731Z" fill="#FF85AB"/>
<path d="M169.096 157.676C167.837 156.568 166.679 155.511 166.428 155.058C166.176 154.604 166.579 154.554 167.233 154.302C167.888 154.051 168.341 154.856 168.995 156.115C169.65 157.374 170.204 158.683 169.096 157.676Z" fill="#F2C591"/>
<path d="M186.266 144.335L167.889 147.256C166.68 148.313 166.58 148.565 165.724 149.32C163.257 151.485 162.602 153.247 162.552 155.16C162.401 157.829 162.653 157.728 162.099 158.685C161.545 159.641 160.991 159.994 161.495 161.353C161.839 162.218 162.353 163.005 163.005 163.669H192.005C198.5 156.066 192.609 149.874 186.266 144.335Z" fill="#F7E5BC"/>
<path d="M188.982 163.67H169.498C169.498 163.67 169.598 161.958 169.699 157.578C169.8 153.198 168.944 150.177 165.721 149.321C166.376 148.666 167.081 147.961 167.886 147.257L186.263 144.387C187.472 145.444 188.68 146.501 189.788 147.609C190.064 152.976 189.794 158.357 188.982 163.67V163.67Z" fill="#1F3A70"/>
<path d="M186.264 144.387H186.012L185.761 144.689C185.019 147.436 184.042 150.114 182.841 152.694C182.841 152.694 182.941 153.701 184.301 151.737C185.677 149.805 186.731 147.663 187.422 145.394L186.264 144.387Z" fill="#172E5C"/>
<path d="M169.951 147.255C173.526 151.534 174.734 152.541 176.043 153.397C177.352 154.253 176.244 152.944 174.885 150.93C173.526 148.916 171.914 146.399 171.914 146.399L169.951 147.255Z" fill="#172E5C"/>
<path d="M180.877 159.39C179.568 158.987 173.979 157.074 169.7 156.067V157.577C169.599 161.958 169.499 163.669 169.499 163.669H188.983C189.285 161.504 189.587 159.037 189.738 156.419L180.877 159.39Z" fill="#172E5C"/>
<path d="M171.362 149.773C171.362 149.773 171.211 150.125 170.406 150.629C169.6 151.132 169.449 151.384 169.349 151.233C169.065 150.61 168.639 150.063 168.106 149.635C167.573 149.206 166.946 148.909 166.277 148.766C166.781 148.212 167.335 147.709 167.939 147.155C170.708 148.313 171.362 149.773 171.362 149.773Z" fill="#244AB0"/>
<path d="M184.655 144.335L180.929 158.231L171.464 144.789L184.655 144.335Z" fill="#D4BF9B"/>
<path d="M176.599 149.223L183.698 151.085L181.03 155.315L176.599 150.028C175.995 149.323 175.441 148.92 176.599 149.223Z" fill="#CCAC89"/>
<path d="M173.527 147.006L182.187 148.164C183.144 148.265 183.194 147.208 183.698 145.144L174.333 145.848L173.527 147.006Z" fill="#DE5D98"/>
<path d="M187.324 134.71L166.24 137.479C163.459 137.844 161.501 140.392 161.866 143.171C162.231 145.95 164.781 147.907 167.561 147.542L188.645 144.773C191.425 144.408 193.384 141.86 193.019 139.081C192.654 136.302 190.104 134.345 187.324 134.71Z" fill="#FF85AB"/>
<path d="M188.431 145.094C189.753 144.942 190.966 144.288 191.819 143.266C192.672 142.245 193.099 140.934 193.013 139.607C192.929 138.623 192.56 137.685 191.953 136.907C191.345 136.129 190.523 135.545 189.589 135.226C190.224 134.636 190.71 133.905 191.007 133.091C191.305 132.277 191.406 131.404 191.301 130.544V130.393C191.22 129.692 191 129.014 190.654 128.399C190.307 127.784 189.841 127.245 189.282 126.813C188.724 126.381 188.085 126.066 187.402 125.885C186.72 125.704 186.008 125.662 185.31 125.761L168.645 127.926C172.219 130.393 172.219 132.508 171.615 136.535C171.573 137.15 171.713 137.763 172.018 138.297C172.827 139.712 173.179 141.342 173.025 142.964C172.872 144.587 172.221 146.122 171.162 147.36L188.431 145.094Z" fill="#F06EA8"/>
<path d="M181.178 193.828C181.178 195.691 180.12 197.202 182.034 198.057C184.853 199.316 186.162 200.625 188.226 201.229C190.291 201.833 193.613 202.79 191.952 199.518C190.883 197.49 189.925 195.406 189.082 193.274L181.178 193.828Z" fill="#914343"/>
<path d="M191.602 191.36C191.451 193.122 190.343 194.431 192.055 195.388C194.623 196.797 195.68 198.157 197.593 198.862C199.507 199.567 202.477 200.825 201.218 197.603C199.96 194.381 199.054 191.561 199.054 191.561L191.602 191.36Z" fill="#914343"/>
<path d="M186.919 177.259H186.163L190.141 194.327L187.875 195.384C186.71 195.915 185.45 196.206 184.17 196.241C182.89 196.275 181.616 196.053 180.424 195.586V195.586L176.446 177.36H171.261C170.945 177.354 170.635 177.284 170.347 177.156C170.059 177.028 169.799 176.844 169.583 176.614C169.368 176.384 169.2 176.113 169.09 175.818C168.981 175.522 168.931 175.208 168.945 174.893L169.196 170.412H192.054C193.397 170.418 194.689 170.919 195.684 171.821C196.679 172.723 197.305 173.96 197.441 175.296L199.757 193.169L197.844 193.371C195.48 193.631 193.091 193.563 190.745 193.169V193.169L186.919 177.259Z" fill="#1C1B29"/>
<path d="M177.051 169.759H167.888V222.544H177.051V169.759Z" fill="#AD482C"/>
<path d="M171.412 169.759H167.888V222.544H171.412V169.759Z" fill="#EB9151"/>
<path d="M177.051 169.759H167.888V179.34H177.051V169.759Z" fill="#AD482C"/>
<path d="M220.155 160.297H208.625V163.665H220.155V160.297Z" fill="#BA4E5D"/>
<path d="M211.845 160.297L210.989 162.663H209.479L210.436 160.297H211.845Z" fill="#D65A6B"/>
<path d="M220.097 160.297H213.451V163.665H220.097V160.297Z" fill="#AD4452"/>
<path d="M266.167 160.704H261.686V152.9H265.26C265.501 152.9 265.731 152.995 265.901 153.165C266.071 153.335 266.167 153.566 266.167 153.806V160.704V160.704Z" fill="#692F1C"/>
<path d="M261.737 160.297H265.06V154.532H261.737V160.297Z" fill="#FEC9AA"/>
<path d="M263.196 151.887C264.253 151.887 265.11 151.03 265.11 149.974C265.11 148.917 264.253 148.061 263.196 148.061C262.14 148.061 261.283 148.917 261.283 149.974C261.283 151.03 262.14 151.887 263.196 151.887Z" fill="white"/>
<path d="M261.232 152.09C262.65 152.09 263.8 150.94 263.8 149.522C263.8 148.104 262.65 146.954 261.232 146.954C259.814 146.954 258.664 148.104 258.664 149.522C258.664 150.94 259.814 152.09 261.232 152.09Z" fill="white"/>
<path d="M257.656 152.841C259.074 152.841 260.223 151.691 260.223 150.273C260.223 148.855 259.074 147.705 257.656 147.705C256.238 147.705 255.088 148.855 255.088 150.273C255.088 151.691 256.238 152.841 257.656 152.841Z" fill="white"/>
<path d="M263.953 150.278H253.632V164.074H263.953V150.278Z" fill="#8C422A"/>
<path d="M263.952 150.278H257.306V164.074H263.952V150.278Z" fill="#7A3721"/>
<path d="M263.953 150.278H253.632V152.212H263.953V150.278Z" fill="#6D6996"/>
<path d="M256.551 150.278H254.738V152.212H256.551V150.278Z" fill="#807BB0"/>
<path d="M186.012 158.279L182.538 160.997C182.484 161.045 182.421 161.081 182.351 161.102C182.282 161.123 182.209 161.129 182.138 161.12C182.066 161.11 181.997 161.085 181.936 161.047C181.875 161.008 181.823 160.957 181.783 160.897L177.806 155.56C177.733 155.442 177.704 155.302 177.722 155.164C177.74 155.027 177.806 154.9 177.906 154.805L181.431 152.086C181.546 152.003 181.688 151.967 181.829 151.986C181.969 152.005 182.097 152.076 182.186 152.187L186.113 157.524C186.161 157.578 186.197 157.641 186.218 157.71C186.239 157.78 186.245 157.852 186.236 157.924C186.226 157.996 186.201 158.065 186.163 158.126C186.124 158.187 186.073 158.239 186.012 158.279V158.279Z" fill="#BA4E5D"/>
<path d="M191.601 158.336L187.422 158.034C187.333 158.023 187.249 157.983 187.185 157.919C187.121 157.855 187.081 157.771 187.07 157.681L187.372 150.683C187.384 150.585 187.432 150.495 187.507 150.43C187.581 150.365 187.676 150.33 187.775 150.331L191.954 150.633C192.052 150.645 192.142 150.693 192.207 150.767C192.272 150.841 192.307 150.937 192.306 151.035L192.004 157.983C191.992 158.081 191.944 158.171 191.87 158.236C191.795 158.301 191.7 158.337 191.601 158.336V158.336Z" fill="#BA4E5D"/>
<path d="M191.719 153.607L189.953 151.54L187.763 153.41L189.529 155.477L191.719 153.607Z" fill="#AD3B4B"/>
<path d="M191.652 157.379C191.699 157.368 191.743 157.347 191.782 157.317C191.821 157.288 191.853 157.25 191.877 157.208C191.901 157.165 191.915 157.118 191.92 157.07C191.924 157.021 191.919 156.972 191.903 156.926L190.292 150.532L187.775 150.331C187.676 150.33 187.581 150.365 187.507 150.43C187.432 150.495 187.384 150.585 187.372 150.683L187.07 157.681V157.782C187.109 157.821 187.157 157.851 187.209 157.868C187.262 157.886 187.317 157.891 187.372 157.883L191.652 157.379Z" fill="#872C39"/>
<path d="M191.099 157.329L186.869 157.832C186.784 157.838 186.699 157.817 186.627 157.772C186.555 157.727 186.498 157.659 186.467 157.58L184.755 150.783C184.738 150.736 184.733 150.686 184.741 150.637C184.748 150.587 184.768 150.541 184.798 150.501C184.828 150.461 184.867 150.429 184.912 150.408C184.957 150.387 185.007 150.378 185.057 150.381L189.286 149.827C189.371 149.821 189.456 149.842 189.528 149.887C189.601 149.932 189.657 149.999 189.689 150.078L191.401 156.875C191.416 156.925 191.42 156.978 191.412 157.029C191.404 157.081 191.386 157.13 191.357 157.173C191.328 157.217 191.29 157.253 191.245 157.28C191.2 157.307 191.15 157.323 191.099 157.329Z" fill="#BA4E5D"/>
<path d="M189.783 152.994L187.609 151.362L185.88 153.665L188.054 155.297L189.783 152.994Z" fill="#AD3B4B"/>
<path d="M183.347 154.961H180.628V157.841H183.347V154.961Z" fill="#AD3B4B"/>
<path d="M188.581 156.37L185.762 150.278L185.057 150.379C185.007 150.376 184.957 150.386 184.912 150.407C184.867 150.428 184.828 150.459 184.798 150.499C184.768 150.539 184.748 150.586 184.741 150.635C184.733 150.684 184.738 150.735 184.755 150.782L186.467 157.528L188.329 156.874C188.429 156.839 188.511 156.767 188.558 156.673C188.605 156.579 188.613 156.471 188.581 156.37Z" fill="#872C39"/>
<path d="M182.188 152.187C182.099 152.076 181.971 152.005 181.831 151.986C181.69 151.967 181.548 152.003 181.433 152.086L180.124 153.093L182.843 159.034C182.859 159.07 182.883 159.103 182.912 159.131C182.941 159.158 182.975 159.18 183.013 159.194C183.05 159.208 183.09 159.214 183.13 159.213C183.17 159.211 183.209 159.202 183.246 159.185L186.015 158.279C186.075 158.239 186.126 158.187 186.165 158.126C186.203 158.065 186.228 157.996 186.238 157.924C186.247 157.852 186.241 157.78 186.22 157.71C186.199 157.641 186.163 157.578 186.115 157.524L182.188 152.187Z" fill="#872C39"/>
<path d="M188.077 157.173L183.496 158.683C183.409 158.705 183.317 158.697 183.235 158.661C183.153 158.624 183.085 158.561 183.043 158.482L180.123 152.138C180.022 151.937 180.123 151.735 180.374 151.635L184.906 150.124C184.993 150.103 185.085 150.111 185.167 150.147C185.249 150.184 185.316 150.246 185.359 150.326L188.279 156.67C188.304 156.715 188.318 156.765 188.321 156.817C188.324 156.869 188.316 156.92 188.296 156.969C188.277 157.017 188.248 157.06 188.21 157.095C188.172 157.13 188.127 157.157 188.077 157.173Z" fill="#BA4E5D"/>
<path d="M177.805 160.749C177.201 159.994 176.647 159.339 175.741 159.087C173.664 158.594 171.564 158.208 169.447 157.93C168.853 157.819 168.239 157.889 167.685 158.131C165.973 158.836 165.42 159.994 166.477 163.669H176.748L177.553 162.864C178.309 161.907 178.359 161.504 177.805 160.749Z" fill="#FF8FB1"/>
<path d="M189.536 154.505C191.247 155.361 193.614 156.771 193.614 156.771C194.019 157.025 194.359 157.372 194.604 157.784C194.849 158.195 194.993 158.659 195.023 159.137V159.59C195.037 159.991 194.97 160.39 194.828 160.765C194.685 161.14 194.469 161.483 194.193 161.774C193.916 162.064 193.585 162.297 193.217 162.458C192.85 162.619 192.454 162.705 192.053 162.712C191.952 162.762 191.852 162.712 191.751 162.712C191.351 162.676 190.964 162.554 190.617 162.354C190.269 162.154 189.969 161.881 189.737 161.554C189.191 160.801 188.585 160.094 187.924 159.439C187.572 159.087 186.615 158.533 186.313 158.231C185.306 157.123 185.508 156.619 186.313 155.361C187.119 154.102 187.622 153.548 189.536 154.505Z" fill="#F57FB5"/>
<path d="M177.901 136.247C178.338 135.903 178.288 135.11 177.79 134.477C177.291 133.843 176.532 133.608 176.095 133.952C175.658 134.296 175.708 135.088 176.207 135.722C176.706 136.356 177.464 136.591 177.901 136.247Z" fill="#1E1C2B"/>
<path d="M187.076 134.111C187.216 133.373 186.908 132.696 186.389 132.597C185.869 132.499 185.336 133.018 185.196 133.756C185.057 134.493 185.365 135.171 185.884 135.269C186.403 135.367 186.937 134.848 187.076 134.111Z" fill="#1E1C2B"/>
<path d="M272.059 126.716L270.448 126.968C268.35 127.275 266.426 128.308 265.011 129.888V129.888C265.011 129.888 263.953 135.929 267.327 140.964L273.217 139.554C275.382 145.344 280.719 148.818 280.719 148.818C280.719 148.818 283.287 156.723 285.15 159.089C287.013 161.456 297.132 163.167 314.1 148.567C314.402 143.028 310.122 139.655 310.122 139.655C310.122 139.655 310.122 130.24 305.49 124.45C300.858 118.66 272.059 126.716 272.059 126.716Z" fill="#F7E9CB"/>
<path d="M316.316 216.886C316.115 217.289 316.115 217.49 315.813 218.044C316.014 219.504 316.215 222.525 316.215 222.525H304.988L299.55 193.877L313.295 191.108C314.504 197.351 315.41 206.011 315.964 212.657C316.819 215.023 316.82 215.778 316.316 216.886Z" fill="#8C422A"/>
<path d="M292.197 193.228L282.732 222.53H272.058L279.207 188.999L292.197 193.228Z" fill="#7D361F"/>
<path d="M314.094 148.565L285.144 157.376L279.757 179.73L276.837 187.735C276.618 188.108 276.498 188.53 276.489 188.962C276.48 189.394 276.583 189.821 276.787 190.202L278.297 193.223L292.193 197.301L297.328 181.14C297.028 183.376 296.977 185.639 297.177 187.886C297.177 187.886 296.674 190.202 296.473 192.015C296.448 192.222 296.467 192.431 296.528 192.631C296.588 192.83 296.69 193.015 296.825 193.173L298.134 194.683C298.3 194.86 298.504 194.998 298.731 195.085C298.958 195.172 299.201 195.207 299.443 195.187L305.434 194.683L312.181 195.791C312.496 195.834 312.816 195.791 313.109 195.667C313.401 195.543 313.655 195.342 313.842 195.086L314.648 193.928L316.309 191.813C316.655 191.4 316.852 190.884 316.87 190.346C316.889 189.807 316.727 189.279 316.41 188.843L315.252 187.182C315.252 187.182 316.007 183.959 317.065 177.062C318.122 170.164 319.934 157.779 314.094 148.565Z" fill="#34355E"/>
<path d="M294.31 193.631L297.33 181.145C297.834 176.564 298.891 166.091 298.891 166.091C298.891 166.091 285.851 179.131 283.435 181.145C281.018 183.159 281.32 183.209 282.377 184.77C283.435 186.331 283.988 187.187 283.988 187.187L278.299 188.496V193.229L292.195 197.307L294.31 193.631Z" fill="#2C2D57"/>
<path d="M315.055 150.277C314.753 149.723 314.451 149.119 314.099 148.565L285.149 157.376L284.242 160.497L314.501 152.089L315.055 150.277Z" fill="#451B10"/>
<path d="M307.001 150.73L314.15 148.414C314.909 148.188 315.723 148.235 316.45 148.548C317.177 148.861 317.771 149.419 318.128 150.126L322.307 158.685C322.511 159.094 322.626 159.542 322.644 159.999C322.663 160.455 322.583 160.911 322.412 161.335C322.24 161.759 321.981 162.141 321.65 162.457C321.319 162.773 320.925 163.014 320.494 163.166L312.992 165.935C312.626 166.066 312.236 166.116 311.848 166.083C311.461 166.049 311.085 165.933 310.746 165.743C310.407 165.552 310.113 165.29 309.884 164.976C309.655 164.662 309.496 164.302 309.418 163.921L307.001 150.73Z" fill="#451B10"/>
<path d="M293.403 120.121C291.238 127.673 282.528 132.859 275.479 127.976C268.43 123.092 275.429 112.922 275.429 112.922C275.429 112.922 271.652 103.356 281.168 101.09C290.684 98.8243 293.05 102.953 293.403 120.121Z" fill="#4D7AE8"/>
<path d="M293.406 120.122C293.104 105.119 291.241 100.084 284.445 100.537L285.603 102.803C284.696 104.313 284.092 105.975 284.042 110.053C284.042 112.016 284.747 112.57 285.804 112.822C286.861 113.074 287.163 113.124 287.516 113.627C287.868 114.131 287.767 114.584 287.415 115.943C286.861 118.108 285.603 119.971 285.502 122.69C285.401 125.409 285.351 127.02 285.804 128.933C287.623 128.087 289.242 126.865 290.553 125.346C291.864 123.826 292.836 122.046 293.406 120.122Z" fill="#2E64E8"/>
<path d="M285.601 101.335L286.305 97.6095C286.379 97.2677 286.524 96.9454 286.731 96.664C286.939 96.3825 287.203 96.1484 287.508 95.977C287.813 95.8056 288.15 95.7009 288.499 95.6699C288.847 95.6389 289.198 95.6822 289.528 95.797V95.797C289.9 95.9204 290.236 96.1326 290.508 96.4151C290.78 96.6977 290.979 97.0421 291.088 97.4188C291.197 97.7954 291.213 98.1929 291.134 98.577C291.055 98.9611 290.884 99.3202 290.635 99.6234L287.917 102.946L285.601 101.335Z" fill="#201E2F"/>
<path d="M290.082 100.336C288.767 99.8271 287.36 99.604 285.953 99.6815L285.601 101.343L287.917 102.954L290.082 100.336Z" fill="#41314A"/>
<path d="M279.307 114.585C280.363 114.585 281.22 113.435 281.22 112.017C281.22 110.599 280.363 109.449 279.307 109.449C278.25 109.449 277.394 110.599 277.394 112.017C277.394 113.435 278.25 114.585 279.307 114.585Z" fill="#DBE7FF"/>
<path d="M278.495 113.86C278.772 113.841 278.97 113.421 278.936 112.922C278.902 112.422 278.649 112.033 278.372 112.052C278.094 112.071 277.897 112.491 277.931 112.99C277.965 113.489 278.218 113.879 278.495 113.86Z" fill="#201E2F"/>
<path d="M277.095 107.283C277.224 106.903 277.467 106.574 277.793 106.341C278.118 106.107 278.508 105.982 278.908 105.982C279.308 105.982 279.698 106.107 280.023 106.341C280.349 106.574 280.592 106.903 280.72 107.283H277.095Z" fill="#201E2F"/>
<path d="M277.29 118.159C279.153 118.662 281.167 118.209 282.828 116.396C283.043 116.148 283.344 115.989 283.67 115.952C283.997 115.915 284.325 116.001 284.591 116.195V116.195C284.877 116.389 285.075 116.689 285.141 117.029C285.207 117.368 285.136 117.72 284.943 118.008C282.375 122.186 278.398 122.791 275.931 120.475C275.758 120.319 275.63 120.121 275.559 119.9C275.488 119.679 275.477 119.443 275.528 119.216V119.216C275.562 119.024 275.636 118.841 275.746 118.681C275.857 118.52 276 118.385 276.168 118.285C276.335 118.185 276.521 118.121 276.715 118.1C276.909 118.078 277.105 118.098 277.29 118.159Z" fill="#590942"/>
<path d="M277.296 121.379C279.713 122.487 282.835 121.48 284.949 118.006C285.112 117.751 285.186 117.45 285.159 117.149C285.131 116.848 285.004 116.565 284.798 116.344L279.914 118.509C278.718 119.111 277.786 120.133 277.296 121.379V121.379Z" fill="#400015"/>
<path d="M285.151 117.252C285.149 117.045 285.098 116.841 285.001 116.657C284.905 116.473 284.767 116.315 284.597 116.195C284.332 116.001 284.003 115.915 283.677 115.952C283.35 115.989 283.05 116.148 282.835 116.396C281.173 118.209 279.159 118.662 277.297 118.159H276.844V119.417C276.844 119.417 277.548 119.921 280.317 119.669V119.166C282.059 118.924 283.716 118.268 285.151 117.252V117.252Z" fill="#DBE7FF"/>
<path d="M291.341 104.558C289.629 100.58 286.508 99.8252 281.171 101.084C280.091 101.328 279.056 101.736 278.1 102.292C277.848 103.853 280.214 104.356 284.695 102.896C283.235 105.565 286.306 110.297 291.341 104.558Z" fill="#201E2F"/>
<path d="M267.327 140.966L261.688 142.175C261.111 142.308 260.506 142.253 259.962 142.018C259.418 141.782 258.964 141.378 258.667 140.866C257.207 138.298 254.74 133.162 254.589 127.171L262.896 122.992L266.27 129.688C267.421 133.33 267.781 137.175 267.327 140.966V140.966Z" fill="#3467E3"/>
<path d="M303.273 120.774C304.129 121.278 304.079 121.227 304.18 122.335C304.28 123.443 304.23 123.04 305.086 123.392C305.942 123.745 306.395 124.148 306.345 125.608C292.952 120.271 294.513 123.745 289.075 142.172C289.075 142.172 285.551 144.488 280.315 142.172C275.079 139.856 272.058 126.715 272.058 126.715L273.568 126.212C274.121 126.885 274.765 127.479 275.481 127.974C279.962 131.096 285.148 130.089 288.824 127.017L288.975 125.004C289.006 124.308 289.189 123.628 289.511 123.01C289.833 122.393 290.286 121.853 290.837 121.429L293.405 119.365L293.305 116.797L294.412 117.25C294.93 117.492 295.406 117.815 295.822 118.207L296.476 118.861L297.937 118.307C298.591 118.106 299.397 117.502 301.41 119.918C302.074 120.101 302.703 120.39 303.273 120.774V120.774Z" fill="#F76574"/>
<path d="M306.347 125.608C306.397 124.148 306.196 123.846 305.088 123.392C303.981 122.939 304.232 123.09 304.182 122.335C304.132 121.58 304.132 121.278 303.276 120.774C302.705 120.39 302.076 120.101 301.413 119.918C299.399 117.502 298.593 118.106 297.939 118.307L296.479 118.861L295.824 118.207C295.408 117.815 294.932 117.492 294.415 117.25L293.307 116.797L293.408 119.365L290.84 121.429C290.288 121.853 289.835 122.393 289.513 123.01C289.192 123.628 289.009 124.308 288.977 125.004L288.826 127.017C287.674 128.025 286.333 128.794 284.88 129.278C283.428 129.762 281.894 129.952 280.368 129.837L280.015 130.29C278.454 132.807 279.713 133.814 279.713 133.814L280.317 136.583L282.734 138.396C282.193 138.936 281.788 139.596 281.552 140.322C281.316 141.048 281.255 141.82 281.374 142.575C286.006 144.186 289.078 142.172 289.078 142.172C294.515 123.745 292.954 120.271 306.347 125.608Z" fill="#EB495B"/>
<path d="M262.997 119.67C262.896 118.161 263.049 116.647 263.45 115.189C263.802 113.779 263.752 113.376 263.601 110.658C263.604 110.564 263.585 110.471 263.546 110.385C263.506 110.3 263.448 110.225 263.374 110.167C263.301 110.108 263.215 110.067 263.123 110.048C263.032 110.028 262.937 110.03 262.846 110.053L260.832 110.456L261.285 112.218L260.53 113.427L252.927 114.585L253.431 129.085C253.431 129.085 261.335 128.682 264.658 124.705L262.997 119.67Z" fill="#542113"/>
<path d="M260.833 115.942H254.489C254.373 115.943 254.257 115.919 254.15 115.873C254.043 115.827 253.946 115.759 253.866 115.674C253.786 115.589 253.724 115.489 253.684 115.379C253.644 115.27 253.627 115.153 253.634 115.036L254.641 104.665C254.64 104.561 254.661 104.459 254.702 104.363C254.743 104.268 254.804 104.183 254.879 104.112C254.955 104.041 255.044 103.987 255.142 103.952C255.239 103.917 255.343 103.902 255.446 103.909H261.84C261.955 103.908 262.069 103.932 262.174 103.979C262.279 104.025 262.372 104.094 262.449 104.18C262.525 104.266 262.582 104.367 262.616 104.476C262.65 104.586 262.66 104.702 262.646 104.816L261.639 115.187C261.639 115.291 261.618 115.393 261.577 115.488C261.536 115.583 261.476 115.669 261.4 115.74C261.325 115.811 261.235 115.865 261.138 115.9C261.04 115.935 260.937 115.949 260.833 115.942V115.942Z" fill="#BA4E5D"/>
<path d="M261.338 111.109H254.692L255.297 104.664H261.892L261.338 111.109Z" fill="#F7E9CB"/>
<path d="M260.984 115.185H254.389L254.64 112.063H261.286L260.984 115.185Z" fill="#B53F50"/>
<path d="M257.861 110.454C256.099 110.202 256.099 108.49 257.005 107.383C257.519 106.802 257.959 106.159 258.314 105.469C258.465 105.218 258.616 105.318 258.767 106.275L258.969 107.232C259.12 107.007 259.255 106.771 259.371 106.527C259.472 106.225 259.573 106.728 259.825 107.483C260.076 108.239 260.832 110.907 257.861 110.454Z" fill="#EB495B"/>
<path d="M253.177 121.076L258.816 120.119L259.219 115.638C259.319 114.934 259.37 114.38 257.809 114.279C256.248 114.178 253.781 114.178 253.781 114.178L258.363 112.718C259.168 112.467 259.118 112.114 259.068 111.46C259.017 110.805 258.665 110.05 257.557 110.302L252.522 111.359C252.1 111.426 251.703 111.607 251.375 111.882C251.047 112.157 250.8 112.515 250.659 112.92C250.408 113.675 250.861 113.977 251.515 114.581C252.17 115.185 251.616 115.185 251.314 115.638C251.068 115.953 250.957 116.351 251.004 116.748C251.051 117.144 251.253 117.505 251.566 117.753C252.422 118.659 250.659 119.465 253.177 121.076Z" fill="#542113"/>
<path d="M226.136 169.759H217.124V222.544H226.136V169.759Z" fill="#EB9151"/>
<path d="M226.092 169.759H220.151V222.544H226.092V169.759Z" fill="#AD482C"/>
<path d="M226.136 169.759H217.124V179.34H226.136V169.759Z" fill="#AD482C"/>
<path d="M286.002 222.526H295.115V169.741H286.002V222.526Z" fill="#AD482C"/>
<path d="M259.517 169.759H251.059V222.544H259.517V169.759Z" fill="#A13A20"/>
<path d="M286.002 176.207H295.115V169.732H286.002V176.207Z" fill="#9C361C"/>
<path d="M259.517 169.759H251.059V176.234H259.517V169.759Z" fill="#A13A20"/>
<path d="M312.689 163.667H149.462V172.09H312.689V163.667Z" fill="#EB9151"/>
<path d="M312.737 163.667H221.91V172.09H312.737V163.667Z" fill="#C45F3D"/>
<path d="M287.211 112.465L296.324 103.957C296.407 103.877 296.505 103.815 296.613 103.777C296.722 103.738 296.837 103.723 296.951 103.733C297.066 103.742 297.177 103.776 297.277 103.832C297.377 103.888 297.464 103.965 297.532 104.057V104.057C297.633 104.183 297.696 104.336 297.714 104.496C297.731 104.656 297.703 104.818 297.633 104.964L290.333 118.507L287.211 112.465Z" fill="#2E64E8"/>
<path d="M198.85 105.163L200.864 104.206C200.914 104.206 200.914 104.156 200.864 104.156L198.85 103.249H198.8L197.893 101.185H197.793L196.886 103.249L194.822 104.156C194.772 104.156 194.772 104.206 194.822 104.206L196.886 105.163L197.793 107.227H197.893L198.8 105.163H198.85Z" fill="#6ADBC6"/>
<path d="M263.9 102.549L264.907 102.146L263.9 101.693L263.498 100.736C263.447 100.686 263.447 100.686 263.447 100.736L262.994 101.693L262.038 102.146C261.987 102.146 261.987 102.196 262.038 102.196L262.994 102.599L263.447 103.606H263.498L263.9 102.599V102.549Z" fill="#FFE091"/>
<path d="M330.461 178.625L332.474 177.719C332.525 177.719 332.525 177.669 332.474 177.669L330.461 176.712H330.41L329.504 174.648H329.403L328.497 176.712L326.433 177.669C326.382 177.669 326.382 177.719 326.433 177.719L328.497 178.625L329.403 180.69H329.504L330.41 178.625H330.461Z" fill="#4F81FF"/>
<path d="M130.833 176.509L132.041 175.956C132.091 175.956 132.091 175.905 132.041 175.905L130.833 175.351L130.279 174.143H130.228L129.675 175.351L128.466 175.905C128.416 175.905 128.416 175.956 128.466 175.956L129.675 176.509L130.228 177.718H130.279L130.833 176.509V176.509Z" fill="#FF85AB"/>
<path d="M264.862 69.2701V47.6206" stroke="#612D46" stroke-width="3.02085" stroke-miterlimit="10" stroke-linecap="round"/>
<path d="M324.776 69.2701V47.6206" stroke="#612D46" stroke-width="3.02085" stroke-miterlimit="10" stroke-linecap="round"/>
<path d="M228.108 35.3843C235.358 35.3843 239.335 37.9017 242.86 40.5197L244.017 41.3756L245.226 42.3322C248.498 44.7489 251.922 46.8132 258.165 46.8132C264.408 46.8132 267.479 44.9503 270.601 42.6847L272.313 41.3756L272.967 40.9225L272.464 40.5197C268.94 37.9017 264.962 35.3843 257.712 35.3843H228.108Z" fill="#DE548C"/>
<path d="M264.411 43.9418H254.442L250.213 40.9209H259.93L264.411 43.9418Z" fill="#DE5B90"/>
<path d="M266.428 46.8115L259.933 42.3306H273.376L278.712 46.8115H266.428Z" fill="#D94C86"/>
<path d="M260.382 36.9954H246.788L242.911 35.3843H255.448L260.382 36.9954Z" fill="#E85A94"/>
<path d="M258.168 49.6848H287.772C295.022 49.6848 299 47.1674 302.574 44.499L302.977 44.1969C302.783 43.9859 302.563 43.7999 302.323 43.643L300.711 42.334C297.741 40.0684 294.217 38.2559 288.225 38.2559C282.234 38.2559 278.609 40.3201 275.336 42.6864L274.027 43.643L272.97 44.499C269.395 47.1674 265.418 49.6848 258.168 49.6848Z" fill="#B03A73"/>
<path d="M318.282 49.6848H347.886C355.136 49.6848 359.114 47.1674 362.689 44.499L363.091 44.1969L362.437 43.643L360.775 42.334C357.805 40.0684 354.28 38.2559 348.289 38.2559C342.298 38.2559 338.673 40.3201 335.451 42.6864L334.141 43.643L333.084 44.499C329.509 47.1674 325.532 49.6848 318.282 49.6848Z" fill="#B03A73"/>
<path d="M290.488 39.4648H295.624C297.46 40.1467 299.176 41.1153 300.709 42.3347L302.32 43.6437C302.56 43.8006 302.78 43.9866 302.974 44.1975L302.571 44.4996L300.507 45.9597H281.224L290.488 39.4648Z" fill="#A3366B"/>
<path d="M333.084 40.8684L332.429 41.3215L330.667 42.6809C327.596 44.9466 324.172 46.8094 318.282 46.8094C312.391 46.8094 308.615 44.7452 305.342 42.3285L304.084 41.3719L303.077 40.516C300.157 38.2503 296.733 36.1357 291.396 35.5819L290.188 35.4309H317.829C325.381 35.3805 329.61 38.049 333.084 40.8684Z" fill="#DE548C"/>
<path d="M322.611 46.4118C325.55 45.8149 328.309 44.539 330.667 42.686H317.778L322.611 46.4118Z" fill="#D94C86"/>
<path d="M206.26 49.6857H227.708C234.958 49.6857 238.936 47.1683 242.51 44.4999L242.913 44.1978L242.309 43.6943H242.259L240.597 42.486C237.677 40.321 234.505 38.5589 229.219 38.3071H227.003C220.609 38.5589 217.186 40.9755 214.014 43.6943H213.963C208.375 48.427 207.167 49.3836 207.167 49.3836C206.907 49.5831 206.588 49.6894 206.26 49.6857V49.6857Z" fill="#B03A73"/>
<path d="M232.341 44.1475L228.716 47.118H207.47L210.994 44.1475H232.341Z" fill="#A3366B"/>
<path d="M303.077 40.5197C299.653 37.801 295.475 35.3843 288.224 35.3843C280.974 35.3843 276.645 38.103 272.969 40.9225L272.315 41.3756L270.603 42.6847C267.481 44.9503 264.108 46.8132 258.167 46.8132C252.226 46.8132 248.5 44.7489 245.228 42.3322L244.019 41.3756L242.861 40.5197C239.337 37.9017 235.36 35.3843 228.109 35.3843C220.054 35.3843 215.825 38.3548 212.2 41.426L205.352 47.1153C205.065 47.3599 204.884 47.7062 204.846 48.0817C204.809 48.4571 204.918 48.8325 205.151 49.1292C205.284 49.297 205.452 49.4336 205.643 49.5293C205.835 49.625 206.045 49.6775 206.259 49.683C206.426 49.6902 206.593 49.6626 206.749 49.602C206.905 49.5413 207.046 49.4489 207.165 49.3306L214.012 43.6413C217.385 40.7715 221.01 38.2541 228.109 38.2541C234.101 38.2541 237.474 40.1673 240.596 42.4329L242.257 43.6413L242.962 44.1951C246.637 46.9642 250.615 49.683 258.167 49.683C265.719 49.683 269.394 47.1656 272.969 44.4972L274.077 43.6413L275.335 42.6847C278.608 40.3183 282.032 38.2541 288.224 38.2541C294.417 38.2541 297.74 40.0666 300.711 42.3322L304.134 41.426L303.077 40.5197Z" fill="#F06FA2"/>
<path d="M286.766 39.9697L324.779 69.272" stroke="#612D46" stroke-width="3.02085" stroke-miterlimit="10" stroke-linecap="round"/>
<path d="M226.847 39.9697L264.859 69.272" stroke="#612D46" stroke-width="3.02085" stroke-miterlimit="10" stroke-linecap="round"/>
<path d="M265.314 39.8166C265.314 40.0193 265.355 40.2199 265.434 40.4065C265.513 40.5931 265.629 40.7619 265.774 40.9029C265.92 41.0438 266.092 41.154 266.281 41.2269C266.471 41.2997 266.672 41.3338 266.875 41.3271H299.299C296.63 39.5649 293.307 38.2559 288.222 38.2559H266.875C266.67 38.2559 266.467 38.2962 266.278 38.3747C266.088 38.4531 265.916 38.5681 265.771 38.713C265.626 38.8579 265.511 39.03 265.433 39.2194C265.355 39.4087 265.314 39.6117 265.314 39.8166V39.8166Z" fill="#6B3143"/>
<path d="M266.875 41.3774C267.737 41.3774 268.436 40.6786 268.436 39.8166C268.436 38.9546 267.737 38.2559 266.875 38.2559C266.013 38.2559 265.314 38.9546 265.314 39.8166C265.314 40.6786 266.013 41.3774 266.875 41.3774Z" fill="#9C4651"/>
<path d="M289.738 39.8166C289.745 39.6141 289.711 39.4122 289.638 39.2231C289.565 39.034 289.455 38.8615 289.314 38.7159C289.173 38.5703 289.004 38.4545 288.818 38.3755C288.631 38.2964 288.43 38.2557 288.228 38.2559V38.2559C293.313 38.2559 296.636 39.5649 299.304 41.3271H288.228C288.428 41.3341 288.628 41.2998 288.814 41.2264C289 41.153 289.17 41.042 289.311 40.9003C289.453 40.7586 289.564 40.5893 289.638 40.4029C289.711 40.2164 289.745 40.0169 289.738 39.8166V39.8166Z" fill="#522539"/>
<path d="M205.253 39.8176C205.246 40.0178 205.28 40.2174 205.353 40.4038C205.427 40.5902 205.538 40.7596 205.679 40.9012C205.821 41.0429 205.99 41.1539 206.177 41.2273C206.363 41.3008 206.563 41.335 206.763 41.328H239.036C236.247 39.4885 233.009 38.4441 229.671 38.3071H206.763C206.362 38.3071 205.978 38.4663 205.695 38.7495C205.412 39.0328 205.253 39.417 205.253 39.8176V39.8176Z" fill="#6B3143"/>
<path d="M206.761 41.3774C207.623 41.3774 208.322 40.6786 208.322 39.8166C208.322 38.9546 207.623 38.2559 206.761 38.2559C205.899 38.2559 205.2 38.9546 205.2 39.8166C205.2 40.6786 205.899 41.3774 206.761 41.3774Z" fill="#9C4651"/>
<path d="M228.108 41.3271H239.033C236.127 39.4136 232.744 38.3499 229.266 38.2559H228.108C228.522 38.2559 228.919 38.4203 229.211 38.713C229.504 39.0057 229.668 39.4027 229.668 39.8166C229.669 40.0193 229.628 40.2199 229.549 40.4065C229.47 40.5931 229.354 40.7619 229.208 40.9029C229.063 41.0438 228.89 41.154 228.701 41.2269C228.512 41.2997 228.31 41.3338 228.108 41.3271V41.3271Z" fill="#522539"/>
<path d="M254.288 61.0613C247.037 64.485 227.402 66.0457 214.966 41.3251C221.159 62.32 235.105 74.3027 247.944 74.3027C260.782 74.3027 274.729 62.32 280.921 41.3251C293.76 101.944 340.684 97.7144 343.151 40.5195C356.241 70.7784 367.62 76.0146 377.891 62.8235" stroke="#735980" stroke-width="1.25869" stroke-linecap="round" stroke-linejoin="round"/>
<path d="M230.125 44.6506L230.427 39.4648" stroke="#522539" stroke-width="1.51043" stroke-miterlimit="10" stroke-linecap="round"/>
<path d="M233.293 39.6143L228.108 43.2393" stroke="#522539" stroke-width="1.51043" stroke-miterlimit="10" stroke-linecap="round"/>
<path d="M290.893 44.6506L291.195 39.4648" stroke="#522539" stroke-width="1.51043" stroke-miterlimit="10" stroke-linecap="round"/>
<path d="M294.067 39.6143L288.881 43.2393" stroke="#522539" stroke-width="1.51043" stroke-miterlimit="10" stroke-linecap="round"/>
<path d="M305.544 36.2383L308.213 37.2452H302.876L300.51 36.2383H305.544Z" fill="#D94C86"/>
<path d="M309.674 39.064L311.939 40.524H314.558L312.191 39.064H309.674Z" fill="#E85A94"/>
<path d="M371.05 47.1153L365.411 42.4329L364.253 41.426L363.145 40.5197C359.721 37.801 355.593 35.3843 348.292 35.3843C340.992 35.3843 336.763 38.103 333.087 40.9225L332.433 41.3756L330.671 42.6847C327.6 44.9503 324.176 46.8132 318.285 46.8132C312.395 46.8132 308.568 44.7489 305.346 42.3322L304.087 41.3756L302.98 40.5197C299.405 37.9017 295.427 35.3843 288.228 35.3843V38.2541C294.169 38.2541 297.592 40.1673 300.714 42.4329L302.375 43.6413L303.03 44.1951C306.756 46.9642 310.733 49.683 318.285 49.683C325.837 49.683 329.513 47.1656 333.087 44.4972L334.145 43.6413L335.454 42.6847C338.676 40.3183 342.1 38.2541 348.292 38.2541C354.485 38.2541 357.808 40.0666 360.779 42.3322L362.44 43.6413L363.095 44.1951L369.237 49.3306C369.485 49.5557 369.808 49.6813 370.143 49.683C370.359 49.685 370.571 49.6358 370.764 49.5395C370.956 49.4432 371.123 49.3026 371.251 49.1292C371.373 48.9849 371.464 48.8177 371.52 48.6374C371.576 48.4571 371.595 48.2674 371.576 48.0796C371.558 47.8918 371.501 47.7096 371.411 47.544C371.32 47.3783 371.197 47.2325 371.05 47.1153V47.1153Z" fill="#F06FA2"/>
<path d="M325.435 39.8166C325.434 40.0193 325.475 40.2199 325.554 40.4065C325.633 40.5931 325.749 40.7619 325.895 40.9029C326.04 41.0438 326.213 41.154 326.402 41.2269C326.591 41.2997 326.793 41.3338 326.995 41.3271H359.419C356.7 39.5649 353.428 38.2559 348.292 38.2559H326.995C326.581 38.2559 326.184 38.4203 325.892 38.713C325.599 39.0057 325.435 39.4027 325.435 39.8166V39.8166Z" fill="#6B3143"/>
<path d="M326.995 41.3774C327.857 41.3774 328.556 40.6786 328.556 39.8166C328.556 38.9546 327.857 38.2559 326.995 38.2559C326.133 38.2559 325.435 38.9546 325.435 39.8166C325.435 40.6786 326.133 41.3774 326.995 41.3774Z" fill="#9C4651"/>
<path d="M503.351 22.2437L230.266 22.2437V9.95885C230.266 9.69179 230.372 9.43567 230.561 9.24683C230.75 9.05799 231.006 8.9519 231.273 8.9519L502.294 8.9519C502.561 8.9519 502.817 9.05799 503.006 9.24683C503.195 9.43567 503.301 9.69179 503.301 9.95885V22.2437H503.351Z" fill="#E46A9B"/>
<path d="M297.883 15.5499L310.671 14.1401L309.06 22.2461H304.126L297.883 15.5499Z" fill="#EB6EA0"/>
<path d="M503.351 22.2437V22.8478C501.136 22.8478 498.417 23.9051 497.41 25.9694H236.207C235.2 23.9051 232.481 22.8478 230.266 22.8478V22.2437H503.351Z" fill="#C84B8B"/>
<path d="M230.319 12.0767L407.039 12.0767V10.9338L230.319 10.9338V12.0767Z" fill="#E49B9B"/>
<path d="M230.319 20.1807L407.039 20.1807V19.0378L230.319 19.0378V20.1807Z" fill="#E49B9B"/>
<path d="M366.611 236.223L108.63 236.223V223.586C108.63 223.305 108.742 223.037 108.94 222.838C109.138 222.64 109.407 222.529 109.688 222.529L365.554 222.529C365.693 222.529 365.83 222.556 365.958 222.609C366.087 222.662 366.203 222.74 366.301 222.838C366.4 222.936 366.477 223.053 366.531 223.181C366.584 223.31 366.611 223.447 366.611 223.586V236.223Z" fill="#E46A9B"/>
<path d="M180.325 236.22L185.208 230.33L191.653 228.165L193.969 222.526H208.62L201.873 229.373L205.347 231.941L202.981 236.22H180.325Z" fill="#E36497"/>
<path d="M232.382 222.526L227.297 228.668L233.037 230.33L245.12 222.526H232.382Z" fill="#E86D9E"/>
<path d="M405.377 236.223H324.72V223.586C324.72 223.305 324.832 223.037 325.03 222.838C325.228 222.64 325.497 222.529 325.777 222.529H405.327V236.223H405.377Z" fill="#C45999"/>
<path d="M108.63 225.747L324.722 225.747V224.569L108.63 224.569V225.747Z" fill="#E49B9B"/>
<path d="M324.767 225.747H394.952V224.569H324.767V225.747Z" fill="#C46999"/>
<path d="M250.961 15.5499L255.694 14.1401L257.708 16.6575L250.961 15.5499Z" fill="#EB6EA0"/>
<path d="M289.628 14.1401L288.621 15.5499L291.44 14.1401H289.628Z" fill="#F078A8"/>
<path d="M135.063 227.965L134.51 229.979L138.135 228.317L135.063 227.965Z" fill="#E36497"/>
<path d="M154.19 222.526L154.744 223.634L156.758 222.526H154.19Z" fill="#E35B91"/>
<path d="M259.116 230.735L256.75 228.017H261.281L259.116 230.735Z" fill="#E35B91"/>
<path d="M228.106 71.0278H226.042V84.5663H228.106V71.0278Z" fill="#FFD380"/>
<path d="M253.633 86.287L249.454 82.8633V80.5474L253.633 83.971V86.287Z" fill="#FFC485"/>
<path d="M226.042 72.3403L228.106 74.0018V77.6772L226.042 74.757V72.3403Z" fill="#FFE2AB"/>
<path d="M220.098 160.956H209.525V161.202H220.098V160.956Z" fill="#913945"/>
<path d="M220.155 161.959H208.625V162.206H220.155V161.959Z" fill="#913945"/>
<path d="M220.155 163.065H208.625V163.312H220.155V163.065Z" fill="#913945"/>
<path d="M271.708 160.096H259.524V163.661H271.708V160.096Z" fill="#BA4E5D"/>
<path d="M262.998 160.096L262.042 162.563H260.481L261.488 160.096H262.998Z" fill="#D65A6B"/>
<path d="M271.657 160.096H264.659V163.661H271.657V160.096Z" fill="#AD4452"/>
<path d="M271.704 160.801H260.527V161.063H271.704V160.801Z" fill="#913945"/>
<path d="M271.708 161.861H259.524V162.123H271.708V161.861Z" fill="#913945"/>
<path d="M271.708 163.019H259.524V163.281H271.708V163.019Z" fill="#913945"/>
<path d="M208.668 181.996C204.842 198.661 205.496 197 206.201 199.165C206.906 201.33 207.208 201.481 208.014 197C208.819 192.519 209.272 188.693 209.776 184.463C210.279 180.234 209.977 176.156 208.668 181.996Z" fill="#1A40A1"/>
<path d="M230.269 219.257C232.443 218.443 234.662 217.754 236.915 217.193C238.073 216.941 238.475 216.841 238.979 213.719C239.482 210.598 239.684 207.073 239.785 206.368C239.885 205.663 237.368 209.54 235.455 212.259C233.541 214.978 227.55 220.315 230.269 219.257Z" fill="#1A3578"/>
<path d="M180.473 138.042L181.782 138.898C181.987 139.029 182.217 139.115 182.457 139.15C182.697 139.185 182.942 139.169 183.175 139.102C183.408 139.035 183.625 138.92 183.81 138.763C183.995 138.607 184.145 138.412 184.249 138.193L184.652 137.337" stroke="#BA4173" stroke-width="1.00695" stroke-miterlimit="10" stroke-linecap="round"/>
<path d="M164.667 138.196C163.459 137.894 161.998 137.491 161.394 137.44C161.969 138.104 162.694 138.622 163.509 138.951L163.307 139.152L166.429 139.001C167.537 138.85 167.084 138.749 164.667 138.196Z" fill="#F071AB"/>
<path d="M163.502 131.747C164.294 130.888 164.671 129.948 164.344 129.646C164.017 129.344 163.11 129.796 162.318 130.654C161.526 131.512 161.149 132.453 161.476 132.754C161.803 133.056 162.71 132.605 163.502 131.747Z" fill="#FFA1BD"/>
<path d="M163.308 158.235L166.077 157.077C166.631 156.875 166.128 156.674 164.869 156.12C163.61 155.566 163.359 155.365 163.258 156.472C163.157 157.58 162.755 158.436 163.308 158.235Z" fill="#FAD596"/>
<path d="M166.527 157.681C163.758 158.436 163.708 158.788 163.658 159.292C163.607 159.795 163.607 160.198 164.664 159.443C165.53 158.784 166.457 158.21 167.434 157.731C167.937 157.53 167.685 157.328 166.527 157.681Z" fill="#F7D08D"/>
<path d="M170.152 157.631C170.706 154.812 170.655 154.057 170.857 154.006C171.058 153.956 171.562 154.661 171.964 155.517C172.367 156.373 170.152 157.631 170.152 157.631Z" fill="#172E5C"/>
<path d="M167.685 158.131C165.973 158.835 165.42 159.993 166.477 163.669H166.779C165.923 158.08 168.34 158.08 169.447 157.979C168.858 157.853 168.244 157.905 167.685 158.131V158.131Z" fill="#F278B0"/>
<path d="M175.995 159.185C176.7 159.537 176.398 160.292 175.844 161.45C175.29 162.608 174.988 163.112 174.737 163.666H176.75L177.556 162.86C178.311 161.903 178.362 161.501 177.808 160.745C177.254 159.99 176.75 159.436 175.995 159.185Z" fill="#F278B0"/>
<path d="M195.027 159.142C194.996 158.664 194.852 158.2 194.607 157.789C194.362 157.377 194.023 157.03 193.617 156.776C193.617 156.776 191.704 155.618 190.093 154.812C189.145 155.671 188.36 156.695 187.777 157.833C187.568 158.189 187.431 158.582 187.374 158.991L187.978 159.444C188.626 160.11 189.231 160.816 189.79 161.559C190.14 162.048 190.633 162.417 191.2 162.616C191.881 162.81 192.606 162.775 193.264 162.515C193.831 162.251 194.303 161.82 194.618 161.28C194.932 160.74 195.075 160.117 195.027 159.494V159.142Z" fill="#F073AB"/>
<path d="M186.301 153.649L183.872 152.428L182.578 155.001L185.007 156.222L186.301 153.649Z" fill="#AD3B4B"/>
<path d="M284.593 116.195C284.327 116.001 283.999 115.915 283.672 115.952C283.346 115.989 283.045 116.148 282.83 116.396C282.671 116.59 282.484 116.759 282.277 116.9L283.082 118.41C283.807 118.093 284.498 117.706 285.146 117.252V117.252C285.145 117.045 285.093 116.841 284.997 116.657C284.901 116.473 284.762 116.315 284.593 116.195V116.195Z" fill="#B5CDFF"/>
<path d="M280.317 119.611V119.158C279.164 119.292 278.004 119.359 276.844 119.36C276.844 119.36 277.548 119.863 280.317 119.611Z" fill="#B5CDFF"/>
<path d="M283.234 114.983L286.154 115.537C286.154 115.537 285.65 113.472 283.234 114.983Z" fill="#3366E0"/>
<path d="M276.037 125.812C277.547 128.077 281.978 128.833 283.941 126.265C284.898 124.956 282.481 124.754 280.065 124.654C277.648 124.553 275.181 124.553 276.037 125.812Z" fill="#3366E0"/>
<path d="M274.725 119.158L275.833 122.33C275.833 122.33 273.718 121.676 274.725 119.158Z" fill="#3366E0"/>
<path d="M277.433 105.173C277.821 104.563 277.964 103.959 277.752 103.825C277.541 103.691 277.056 104.077 276.668 104.688C276.281 105.298 276.138 105.902 276.349 106.036C276.561 106.17 277.046 105.784 277.433 105.173Z" fill="#78ACFA"/>
<path d="M293.805 107.736C293.048 108.387 292.341 109.093 291.691 109.851C291.389 110.254 291.54 110.808 291.338 111.613C291.137 112.419 290.885 113.275 291.439 112.872C291.745 112.701 291.991 112.44 292.144 112.125C292.297 111.81 292.35 111.456 292.295 111.11C292.144 110.304 292.144 110.355 292.748 109.901C293.407 109.37 293.94 108.699 294.309 107.938C294.712 106.981 294.913 106.78 293.805 107.736Z" fill="#204FBF"/>
<path d="M291.993 115.939C291.237 116.443 291.086 116.04 290.835 115.385C290.583 114.731 290.482 114.63 290.986 114.731C291.224 114.787 291.472 114.784 291.709 114.722C291.946 114.661 292.164 114.543 292.345 114.378C292.446 114.932 292.395 115.637 291.993 115.939Z" fill="#2158DE"/>
<path d="M297.987 118.862C294.614 120.423 293.154 121.329 291.694 122.084C290.234 122.84 290.435 122.588 290.234 124.249C290.032 125.911 290.083 125.659 292.852 123.696C295.621 121.732 296.477 121.078 297.685 120.071C298.894 119.064 299.699 118.107 297.987 118.862Z" fill="#D43545"/>
<path d="M293.404 119.361C294.411 118.656 294.713 118.455 293.303 117.347L293.404 119.361Z" fill="#A63843"/>
<path d="M284.743 132.304C281.773 133.966 281.118 134.368 280.564 134.268C280.011 134.167 278.702 133.059 277.946 132.304C277.191 131.549 276.537 130.945 276.839 131.549C278.299 134.721 279.406 136.433 280.766 137.641C282.125 138.849 283.132 140.209 288.368 135.577C289.778 134.368 290.886 133.21 291.842 132.254C292.274 130.577 292.812 128.929 293.453 127.32L284.743 132.304Z" fill="#D93B4C"/>
<path d="M304.483 123.14C302.322 122.289 299.963 122.08 297.686 122.535C296.276 122.938 297.031 122.334 298.29 121.982C299.549 121.629 301.915 120.924 304.181 122.334L304.483 123.14Z" fill="#D43545"/>
<path d="M272.461 126.563L272.058 126.714C272.058 126.714 272.36 128.073 272.964 129.987C275.834 136.733 278.1 139.351 279.056 139.553C280.013 139.754 280.365 139.754 279.66 139.1C277.747 137.287 276.237 135.374 272.461 126.563Z" fill="#E84D5C"/>
<path d="M291.04 135.171C288.623 138.142 286.458 140.055 284.897 140.81C283.337 141.566 280.668 142.623 277.949 140.206C278.586 141.025 279.394 141.695 280.316 142.17C280.907 142.409 281.512 142.61 282.128 142.774C283.105 142.687 284.059 142.432 284.948 142.019C287.264 141.012 289.278 138.696 290.587 136.833L291.04 135.171Z" fill="#D43545"/>
<path d="M288.822 127.021C285.952 129.438 282.176 130.546 278.551 129.438C280.968 131.956 281.673 132.66 288.822 127.021Z" fill="#590942"/>
<path d="M301.361 123.847C302.729 124.169 304.017 124.763 305.15 125.593C306.283 126.423 307.238 127.473 307.957 128.68C308.511 127.019 309.065 126.263 306.245 125.005C304.719 124.272 303.054 123.877 301.361 123.847V123.847Z" fill="#EB495B"/>
<path d="M295.669 124.047C291.742 126.816 291.137 127.521 291.188 133.966C290.533 134.57 290.684 134.973 290.886 135.778C299.143 136.987 303.976 140.159 303.976 140.159L295.669 124.047Z" fill="#F7E9CB"/>
<path d="M291.186 133.966C291.186 133.966 292.797 133.261 293.401 132.909C294.005 132.556 294.055 132.556 294.106 132.103C294.156 131.65 293.955 127.27 295.667 124.047C291.739 126.816 291.135 127.521 291.186 133.966Z" fill="white"/>
<path d="M304.531 140.156C305.623 138.386 306.502 136.494 307.149 134.517C307.602 133.107 307.904 133.711 307.501 136.229C307.098 138.746 306.645 139.149 304.531 140.156Z" fill="#EDC993"/>
<path d="M303.978 140.159H303.927C303.676 139.958 298.893 136.937 290.887 135.779L285.148 155.465L294.915 159.14L297.986 155.012C299.709 152.6 300.528 149.659 300.302 146.704L300.202 145.093L303.978 140.159Z" fill="#4D7AE8"/>
<path d="M303.924 140.154C303.672 139.953 299.997 137.637 293.754 136.277C292.999 143.678 292.344 144.031 291.488 145.743C290.632 147.454 289.726 148.562 289.172 150.274C288.685 152.338 287.739 154.265 286.403 155.913L294.912 159.135L297.983 155.007C299.705 152.595 300.525 149.654 300.299 146.699L300.198 145.088L303.974 140.154H303.924Z" fill="#3467E3"/>
<path d="M296.424 158.887L292.497 163.67H275.479V163.066C275.482 162.872 275.548 162.685 275.666 162.53C275.783 162.376 275.947 162.264 276.134 162.21C277.493 161.808 280.715 160.801 281.924 160.096C283.535 157.88 283.837 156.521 284.743 153.299C286.606 153.802 293.906 155.867 296.424 158.887Z" fill="#542113"/>
<path d="M299.699 145.745L296.628 148.565C296.628 148.565 299.598 150.125 299.699 145.745Z" fill="#1C53D9"/>
<path d="M279.76 161.858L283.788 160.499L287.111 154.004C286.104 153.651 285.248 153.45 284.745 153.299C283.839 156.521 283.537 157.88 281.925 160.096H282.781L279.76 161.858Z" fill="#732D1A"/>
<path d="M273.218 139.552L271.104 133.964C270.801 133.209 270.701 133.36 270.399 133.762C270.097 134.165 270.6 135.625 271.406 137.387C272.211 139.15 273.218 139.552 273.218 139.552Z" fill="#EDC993"/>
<path d="M259.27 129.991L254.738 129.286C255.281 133.364 256.615 137.298 258.665 140.866L258.766 141.017L259.219 141.57C259.492 141.786 259.798 141.956 260.125 142.074L258.162 137.895C258.644 138.293 259.148 138.663 259.672 139.003C260.579 139.557 260.528 138.902 260.478 138.499C259.974 135.227 259.27 129.991 259.27 129.991Z" fill="#4D7AE8"/>
<path d="M260.481 140.358L261.991 141.114C261.991 141.114 260.531 142.221 260.481 140.358Z" fill="#1C53D9"/>
<path d="M254.338 117.102L258.517 116.9C258.819 116.9 258.668 117.001 257.258 117.202L253.834 117.756C253.633 117.756 253.482 117.807 253.431 117.454C253.381 117.102 253.683 117.152 254.338 117.102Z" fill="#40180C"/>
<path d="M258.665 119.21L257.407 119.512C256.563 119.833 255.684 120.053 254.789 120.167C254.436 120.217 254.184 120.217 254.889 120.67C255.594 121.123 255.745 121.375 256.551 120.872C257.356 120.368 259.37 119.059 258.665 119.21Z" fill="#40180C"/>
<path d="M252.623 118.914C252.975 118.158 252.774 117.856 252.371 117.202C251.969 116.547 251.616 115.993 252.12 115.339C252.623 114.684 252.371 114.282 252.069 113.426C251.767 112.57 251.918 112.117 252.824 111.261L252.522 111.361C252.1 111.429 251.703 111.61 251.375 111.884C251.047 112.159 250.8 112.518 250.659 112.922C250.408 113.677 250.861 113.98 251.515 114.584C252.17 115.188 251.616 115.188 251.314 115.641C251.068 115.955 250.957 116.354 251.004 116.75C251.051 117.146 251.253 117.508 251.566 117.756C252.422 118.662 250.659 119.467 253.177 121.079C252.905 120.796 252.712 120.449 252.614 120.069C252.517 119.69 252.52 119.292 252.623 118.914V118.914Z" fill="#732D1A"/>
<path d="M261.936 120.57C259.872 122.383 258.16 123.843 257.405 124.246C256.649 124.648 257.002 124.9 258.21 125.806C259.419 126.713 259.771 126.964 260.879 124.9C261.986 122.836 263.245 119.362 261.936 120.57Z" fill="#4D1D0F"/>
<path d="M258.208 106.423L257.604 107.38C258.46 107.38 258.208 106.423 258.208 106.423Z" fill="#FF904F"/>
<path d="M257.861 109.998C257.005 109.796 257.257 108.789 258.314 107.581C259.523 109.142 259.271 110.3 257.861 109.998Z" fill="#FF904F"/>
<path d="M258.06 110.104C257.758 110.053 257.859 109.701 258.262 109.197C258.715 109.801 258.614 110.204 258.06 110.104Z" fill="#F7E9CB"/>
<path d="M318.374 149.775C318.049 149.132 317.505 148.627 316.84 148.35C316.176 148.073 315.434 148.043 314.749 148.264L308.455 150.278H308.405L309.311 150.026C309.765 149.896 310.252 149.943 310.673 150.158C311.093 150.373 311.416 150.74 311.577 151.184L313.742 157.73C313.788 157.875 313.862 158.011 313.96 158.128C314.058 158.245 314.179 158.341 314.315 158.411C314.45 158.481 314.599 158.524 314.751 158.537C314.903 158.549 315.057 158.532 315.202 158.485L321.093 156.421C321.164 156.393 321.229 156.351 321.283 156.298C321.338 156.244 321.38 156.18 321.409 156.109C321.437 156.038 321.451 155.962 321.448 155.886C321.446 155.809 321.428 155.734 321.395 155.665L318.374 149.775Z" fill="#572214"/>
<path d="M312.136 186.026C312.136 186.026 306.447 188.694 304.836 189.651C303.225 190.607 303.325 190.809 304.987 190.96C306.88 191.094 308.779 191.128 310.676 191.061C312.287 190.96 312.841 191.111 313.043 189.5C313.244 187.889 313.747 185.271 312.136 186.026Z" fill="#2C2D57"/>
<path d="M298.743 185.215C298.592 186.524 298.491 186.675 300.002 187.078C301.211 187.353 302.44 187.538 303.677 187.632C304.382 187.682 304.734 187.38 305.943 186.675C307.151 185.97 307.352 185.819 305.389 185.215C303.425 184.611 301.311 183.755 300.153 183.453C298.995 183.151 299.045 183.252 298.743 185.215Z" fill="#2C2D57"/>
<path d="M303.37 214.119C303.773 216.284 302.715 217.844 301.205 218.851C299.694 219.858 298.184 219.959 297.781 220.916C297.55 221.424 297.413 221.97 297.378 222.527H313.49L303.37 214.119Z" fill="#8C422A"/>
<path d="M304.278 214.878C304.832 213.116 305.839 212.965 309.464 216.388C313.089 219.812 310.521 218.1 307.601 216.992C304.681 215.885 305.084 215.734 304.278 216.539C303.473 217.345 303.825 216.539 304.278 214.878Z" fill="#7D361F"/>
<path d="M309.267 212.962C310.828 214.12 312.641 215.581 313.245 215.127C313.849 214.674 314.655 213.567 314.755 212.962C314.856 212.358 314.352 212.66 312.036 212.409C309.721 212.157 308.26 212.207 309.267 212.962Z" fill="#7D361F"/>
<path d="M273.62 215.173C273.167 217.388 271.556 218.697 268.636 219.754C267.277 220.258 266.773 220.258 266.471 221.366C266.35 221.739 266.298 222.132 266.32 222.524H283.891V216.734L273.62 215.173Z" fill="#7D361F"/>
<path d="M198.401 188.54L199.66 189.849C199.834 190.002 199.953 190.208 199.998 190.436C200.044 190.663 200.013 190.899 199.911 191.108L199.307 192.467L198.401 188.54Z" fill="#1C1B29"/>
<path d="M179.47 188.54L179.218 191.762C179.182 191.978 179.205 192.2 179.285 192.404C179.364 192.608 179.498 192.786 179.671 192.92L181.031 194.229L179.47 188.54Z" fill="#1C1B29"/>
<path d="M191.953 189.853L199.203 190.507L196.887 191.715C196.337 191.992 195.716 192.096 195.105 192.016C194.495 191.935 193.923 191.672 193.463 191.262L191.953 189.853Z" fill="#13121C"/>
<path d="M185.864 190.506L181.534 192.721C181.534 192.721 184.756 195.39 185.864 190.506Z" fill="#13121C"/>
<path d="M156.506 146.502C157.535 146.502 158.369 145.668 158.369 144.639C158.369 143.61 157.535 142.776 156.506 142.776C155.477 142.776 154.643 143.61 154.643 144.639C154.643 145.668 155.477 146.502 156.506 146.502Z" fill="#6E2B17"/>
<path d="M181.987 163.667L184.202 165.58L185.662 163.667H181.987Z" fill="#DB704C"/>
<path d="M114.92 214.676H120.861L121.617 206.822H115.676L114.92 214.676Z" fill="#FF9191"/>
<path d="M114.017 189.601C113.212 189.45 112.356 190.256 112.104 191.464C112.018 191.932 112.035 192.413 112.155 192.874C110.694 192.874 109.436 193.478 108.983 194.636C110.144 194.153 111.415 193.996 112.658 194.183C112.658 194.183 112.356 191.313 114.118 189.652C114.118 189.601 114.068 189.601 114.017 189.601Z" fill="#2A858C"/>
<path d="M124.44 185.018L128.266 182.601C127.31 182.098 125.648 182.702 124.44 185.018Z" fill="#2A858C"/>
<path d="M120.462 190.959C120.966 187.133 121.368 184.313 123.181 182.098C119.757 182.702 120.613 186.076 120.462 190.959Z" fill="#2A858C"/>
<path d="M132.745 187.739C132.26 188.886 132.171 190.162 132.494 191.364L134.81 186.481C134.376 186.439 133.94 186.539 133.568 186.766C133.195 186.993 132.907 187.334 132.745 187.739V187.739Z" fill="#2A858C"/>
<path d="M118.802 197.652L118.399 198.508L119.557 198.307L118.802 197.652Z" fill="#2A858C"/>
<path d="M123.938 188.139L122.881 189.548H124.442L123.938 188.139Z" fill="#2A858C"/>
<path d="M133.951 197.652L133.146 198.508L134.304 198.81L133.951 197.652Z" fill="#2A858C"/>
<path d="M123.133 200.925V202.234L124.24 201.58L123.133 200.925Z" fill="#1A606E"/>
<path d="M120.308 180.589C120.39 180.922 120.537 181.235 120.742 181.51C120.947 181.785 121.205 182.016 121.501 182.189C121.796 182.363 122.124 182.476 122.464 182.521C122.803 182.566 123.149 182.542 123.48 182.452C123.807 182.369 124.115 182.223 124.386 182.022C124.657 181.82 124.885 181.567 125.058 181.277C125.231 180.987 125.346 180.666 125.394 180.332C125.443 179.998 125.425 179.657 125.342 179.33L120.308 180.589Z" fill="#FFB869"/>
</g>
<defs>
<linearGradient id="paint0_linear" x1="324.748" y1="43.6806" x2="324.748" y2="122.726" gradientUnits="userSpaceOnUse">
<stop stop-color="#E8827D"/>
<stop offset="1" stop-color="#E2A395"/>
</linearGradient>
<clipPath id="clip0">
<rect width="478.304" height="250.888" fill="white" transform="translate(108.627 8)"/>
</clipPath>
</defs>
</svg>
