<svg width="200" height="245" viewBox="0 0 200 245" fill="none" xmlns="http://www.w3.org/2000/svg">
<g clip-path="url(#clip0)">
<path opacity="0.5" d="M15.94 41.2201H59.63C59.63 41.2201 56.86 36.8601 52.69 38.0001C52.69 38.0001 51.84 31.7301 46.76 34.6801C46.76 34.6801 44.05 22.5501 30.86 36.2301C30.86 36.2301 22 35.4601 15.94 41.2201Z" fill="white"/>
<path d="M87 57.4801C93.38 49.6801 106.07 39.6501 121.8 30.5701C138.26 21.0001 154 14.9301 163.9 13.6801" stroke="#FFFFEB" stroke-width="1.92" stroke-miterlimit="10"/>
<path d="M45.38 159.8C45.51 159.8 45.2 159.41 45.07 159.43C42.8135 159.859 40.7296 160.932 39.07 162.52C37.4194 164.107 35.5867 165.494 33.61 166.65C30.6648 167.926 27.406 168.295 24.25 167.71C20.3018 167.184 16.4864 165.926 13 164C13 164 30.4 185.52 51.09 170.34L45.38 159.8Z" fill="#E875FF"/>
<path d="M13.19 164.06L13 164C13 164 30.4 185.52 51.09 170.34L49.09 166.58C32.46 179.15 18 168.45 13.19 164.06Z" fill="#EC8CFF"/>
<path d="M29 182.64C29 182.64 45.18 183.24 52 171.64L58 182.7C58 182.7 41.17 192 29 182.64Z" fill="#57E6CA"/>
<path d="M65.63 200.79L67.34 199.93L45.06 155.49L43.35 156.36L65.63 200.79Z" fill="#7992E8"/>
<path d="M43.75 157.49C44.9871 157.49 45.99 156.487 45.99 155.25C45.99 154.013 44.9871 153.01 43.75 153.01C42.5129 153.01 41.51 154.013 41.51 155.25C41.51 156.487 42.5129 157.49 43.75 157.49Z" fill="#194AD3"/>
<path d="M78.12 185H105.4V208H68.35V194.72C68.3632 192.138 69.3984 189.665 71.2292 187.844C73.06 186.022 75.5375 185 78.12 185Z" fill="white"/>
<path d="M336.97 134.49H90.71V224.56H336.97V134.49Z" fill="#C9E0FF"/>
<path d="M65.79 195.17H217.79V218.17H42.8C42.8 212.072 45.2218 206.223 49.533 201.91C53.8442 197.597 59.6917 195.173 65.79 195.17Z" fill="white"/>
<path d="M158.42 96.16L172.75 69.89L173.75 68.05H263.82V76.35L282.35 94.88L158.42 96.16Z" fill="#BDD7FF"/>
<path d="M97.88 206.94L78.08 166.06L75.38 166.43L95.58 208.06L97.88 206.94Z" fill="#824731"/>
<path d="M75.38 166.43L83.94 178.17L78.08 166.06L75.38 166.43Z" fill="#572F20"/>
<path d="M345 136.4H77.29V117.72C77.3006 111.16 79.9139 104.873 84.5561 100.238C89.1984 95.6031 95.4901 93 102.05 93H345V136.4Z" fill="#E6F0FF"/>
<path d="M171.84 96.16L186.16 69.89L187.17 68.05H277.24V76.35L295.77 94.88L171.84 96.16Z" fill="#E6F0FF"/>
<path opacity="0.33" d="M193.56 133.85V118.35C193.559 117.617 193.702 116.891 193.982 116.213C194.262 115.536 194.673 114.92 195.191 114.401C195.71 113.883 196.325 113.472 197.003 113.192C197.681 112.912 198.407 112.769 199.14 112.77H214V95.7701H220.78V89.9401C220.78 89.0463 221.135 88.1891 221.767 87.5571C222.399 86.9251 223.256 86.5701 224.15 86.5701H267.48C268.374 86.5701 269.231 86.9251 269.863 87.5571C270.495 88.1891 270.85 89.0463 270.85 89.9401V94.2401" stroke="#CCE0FF" stroke-width="1.28" stroke-miterlimit="10"/>
<path d="M187.81 119.7H209.52V138.21H184V123.54C184 122.527 184.4 121.554 185.114 120.835C185.828 120.116 186.797 119.708 187.81 119.7Z" fill="#879DE8"/>
<path d="M164.81 123.42H175.37C175.956 123.42 176.518 123.653 176.933 124.067C177.347 124.482 177.58 125.044 177.58 125.63V135.76H162.25V126C162.247 125.662 162.312 125.327 162.439 125.014C162.567 124.701 162.755 124.417 162.993 124.177C163.231 123.937 163.514 123.747 163.826 123.617C164.138 123.487 164.472 123.42 164.81 123.42Z" fill="#879DE8"/>
<path d="M347.19 136.4H100.93V224.56H347.19V136.4Z" fill="#C9E0FF"/>
<path d="M100.93 161.25V165.79L196.82 195.17H217.82V147.93C217.82 145.721 216.942 143.602 215.38 142.04C213.818 140.478 211.699 139.6 209.49 139.6H120.73L100.93 161.25Z" fill="#B3D3FF"/>
<g opacity="0.91">
<g opacity="0.69">
<path opacity="0.69" d="M167.83 191.39C176.915 191.39 184.28 184.025 184.28 174.94C184.28 165.855 176.915 158.49 167.83 158.49C158.745 158.49 151.38 165.855 151.38 174.94C151.38 184.025 158.745 191.39 167.83 191.39Z" fill="#153FB3"/>
<path opacity="0.69" d="M167.83 161.65C170.459 161.65 173.028 162.43 175.214 163.89C177.399 165.35 179.102 167.426 180.108 169.854C181.114 172.283 181.377 174.955 180.865 177.533C180.352 180.111 179.086 182.479 177.227 184.338C175.369 186.196 173.001 187.462 170.423 187.975C167.845 188.488 165.173 188.224 162.744 187.218C160.316 186.213 158.24 184.509 156.78 182.324C155.319 180.138 154.54 177.569 154.54 174.94C154.54 171.415 155.94 168.035 158.433 165.543C160.925 163.05 164.305 161.65 167.83 161.65ZM167.83 155.32C163.949 155.318 160.155 156.467 156.927 158.622C153.699 160.776 151.183 163.84 149.696 167.425C148.21 171.01 147.82 174.955 148.576 178.762C149.332 182.568 151.2 186.065 153.943 188.81C156.687 191.555 160.182 193.424 163.989 194.182C167.795 194.94 171.74 194.552 175.326 193.068C178.912 191.583 181.976 189.068 184.133 185.841C186.289 182.615 187.44 178.821 187.44 174.94C187.435 169.74 185.367 164.754 181.691 161.076C178.015 157.398 173.03 155.328 167.83 155.32Z" fill="#E6F0FF"/>
</g>
<path opacity="0.15" d="M167.83 160.39C168.879 160.39 169.73 159.539 169.73 158.49C169.73 157.441 168.879 156.59 167.83 156.59C166.781 156.59 165.93 157.441 165.93 158.49C165.93 159.539 166.781 160.39 167.83 160.39Z" fill="#FFA840"/>
<path opacity="0.91" d="M184.28 176.84C185.329 176.84 186.18 175.989 186.18 174.94C186.18 173.891 185.329 173.04 184.28 173.04C183.231 173.04 182.38 173.891 182.38 174.94C182.38 175.989 183.231 176.84 184.28 176.84Z" fill="#CFE2FF"/>
<path opacity="0.5" d="M167.83 193.29C168.879 193.29 169.73 192.439 169.73 191.39C169.73 190.341 168.879 189.49 167.83 189.49C166.781 189.49 165.93 190.341 165.93 191.39C165.93 192.439 166.781 193.29 167.83 193.29Z" fill="#FFA840"/>
<path opacity="0.91" d="M151.38 176.84C152.429 176.84 153.28 175.989 153.28 174.94C153.28 173.891 152.429 173.04 151.38 173.04C150.331 173.04 149.48 173.891 149.48 174.94C149.48 175.989 150.331 176.84 151.38 176.84Z" fill="#CFE2FF"/>
<path opacity="0.15" d="M179.46 165.2C180.509 165.2 181.36 164.349 181.36 163.3C181.36 162.251 180.509 161.4 179.46 161.4C178.411 161.4 177.56 162.251 177.56 163.3C177.56 164.349 178.411 165.2 179.46 165.2Z" fill="#FFA840"/>
<path opacity="0.91" d="M179.46 188.47C180.509 188.47 181.36 187.619 181.36 186.57C181.36 185.521 180.509 184.67 179.46 184.67C178.411 184.67 177.56 185.521 177.56 186.57C177.56 187.619 178.411 188.47 179.46 188.47Z" fill="#CFE2FF"/>
<path opacity="0.91" d="M156.19 188.47C157.239 188.47 158.09 187.619 158.09 186.57C158.09 185.521 157.239 184.67 156.19 184.67C155.141 184.67 154.29 185.521 154.29 186.57C154.29 187.619 155.141 188.47 156.19 188.47Z" fill="#EDBA7E"/>
<path opacity="0.15" d="M156.19 165.2C157.239 165.2 158.09 164.349 158.09 163.3C158.09 162.251 157.239 161.4 156.19 161.4C155.141 161.4 154.29 162.251 154.29 163.3C154.29 164.349 155.141 165.2 156.19 165.2Z" fill="#FFA840"/>
</g>
<path d="M77.29 135.76H122.65V164.51H94.51C89.943 164.51 85.563 162.696 82.3336 159.466C79.1042 156.237 77.29 151.857 77.29 147.29V135.76Z" fill="#B3D3FF"/>
<path d="M106.8 187.225C108.454 185.769 108.29 182.881 106.436 180.776C104.581 178.671 101.737 178.145 100.084 179.602C98.4304 181.059 98.5934 183.946 100.448 186.051C102.303 188.156 105.147 188.682 106.8 187.225Z" stroke="#412CAB" stroke-width="0.89" stroke-miterlimit="10"/>
<path d="M104.82 193.18C109.73 193.18 113.71 190.538 113.71 187.28C113.71 184.022 109.73 181.38 104.82 181.38C99.9102 181.38 95.93 184.022 95.93 187.28C95.93 190.538 99.9102 193.18 104.82 193.18Z" fill="#6C53E6"/>
<path d="M99.66 184.28C98.5462 184.268 97.4525 184.577 96.51 185.17C96.1375 185.811 95.9377 186.538 95.93 187.28C95.93 189.44 97.68 191.33 100.29 192.36C102.77 192.11 104.69 190.36 104.69 188.36C104.69 186.09 102.44 184.28 99.66 184.28Z" fill="#5439DB"/>
<path d="M110.16 188C110.179 188.578 110.341 189.142 110.633 189.641C110.925 190.141 111.336 190.56 111.83 190.86C112.388 190.431 112.845 189.884 113.168 189.258C113.491 188.633 113.673 187.944 113.7 187.24C113.691 186.294 113.372 185.377 112.79 184.63C112.062 184.859 111.421 185.304 110.951 185.906C110.482 186.508 110.206 187.238 110.16 188Z" fill="#5439DB"/>
<path d="M99.61 184.84C98.3096 184.805 97.0469 185.279 96.09 186.16C95.9817 186.523 95.9277 186.901 95.93 187.28C95.93 189.12 97.2 190.77 99.2 191.85H99.61C102.1 191.85 104.12 190.28 104.12 188.33C104.12 186.38 102.1 184.84 99.61 184.84Z" fill="#412CAB"/>
<path d="M110.73 188C110.755 188.513 110.908 189.012 111.175 189.45C111.442 189.889 111.815 190.253 112.26 190.51C112.701 190.095 113.055 189.597 113.302 189.044C113.55 188.492 113.685 187.895 113.7 187.29C113.695 186.501 113.47 185.729 113.05 185.06C112.417 185.267 111.858 185.656 111.446 186.179C111.033 186.702 110.784 187.336 110.73 188Z" fill="#412CAB"/>
<path d="M108.47 189H106.75C106.485 189 106.23 188.895 106.043 188.707C105.855 188.52 105.75 188.265 105.75 188C105.75 187.735 105.855 187.48 106.043 187.293C106.23 187.105 106.485 187 106.75 187C106.978 187.213 107.278 187.331 107.59 187.331C107.902 187.331 108.202 187.213 108.43 187C108.695 187 108.95 187.105 109.137 187.293C109.325 187.48 109.43 187.735 109.43 188C109.43 188.258 109.33 188.507 109.151 188.693C108.972 188.88 108.728 188.99 108.47 189Z" fill="#37258F" stroke="#5439DB" stroke-width="0.42" stroke-miterlimit="10"/>
<path d="M106.83 186.41C107.001 186.41 107.14 186.271 107.14 186.1C107.14 185.929 107.001 185.79 106.83 185.79C106.659 185.79 106.52 185.929 106.52 186.1C106.52 186.271 106.659 186.41 106.83 186.41Z" fill="#37258F"/>
<path d="M107.61 186.41C107.781 186.41 107.92 186.271 107.92 186.1C107.92 185.929 107.781 185.79 107.61 185.79C107.439 185.79 107.3 185.929 107.3 186.1C107.3 186.271 107.439 186.41 107.61 186.41Z" fill="#37258F"/>
<path d="M108.4 186.41C108.571 186.41 108.71 186.271 108.71 186.1C108.71 185.929 108.571 185.79 108.4 185.79C108.229 185.79 108.09 185.929 108.09 186.1C108.09 186.271 108.229 186.41 108.4 186.41Z" fill="#37258F"/>
<path d="M110.69 182.85C110.596 183.179 110.432 183.485 110.209 183.745C109.987 184.006 109.711 184.215 109.4 184.36C107.07 185.43 102.63 183.36 100.46 182.13L99.95 182.34C101.64 183.29 105.17 185.07 107.85 185.07C108.44 185.084 109.027 184.972 109.57 184.74C109.919 184.582 110.23 184.352 110.485 184.066C110.74 183.78 110.933 183.444 111.05 183.08L110.69 182.85Z" fill="#4D34C7"/>
<path d="M99.93 187.8C100.239 187.8 100.49 187.549 100.49 187.24C100.49 186.931 100.239 186.68 99.93 186.68C99.6207 186.68 99.37 186.931 99.37 187.24C99.37 187.549 99.6207 187.8 99.93 187.8Z" fill="#37258F"/>
<path d="M101.15 188.55C101.459 188.55 101.71 188.299 101.71 187.99C101.71 187.681 101.459 187.43 101.15 187.43C100.841 187.43 100.59 187.681 100.59 187.99C100.59 188.299 100.841 188.55 101.15 188.55Z" fill="#37258F"/>
<path d="M98.71 188.55C99.0193 188.55 99.27 188.299 99.27 187.99C99.27 187.681 99.0193 187.43 98.71 187.43C98.4007 187.43 98.15 187.681 98.15 187.99C98.15 188.299 98.4007 188.55 98.71 188.55Z" fill="#37258F"/>
<path d="M99.93 189.4C100.239 189.4 100.49 189.149 100.49 188.84C100.49 188.531 100.239 188.28 99.93 188.28C99.6207 188.28 99.37 188.531 99.37 188.84C99.37 189.149 99.6207 189.4 99.93 189.4Z" fill="#37258F"/>
<path d="M213.39 208.06L215.69 206.94L201.69 177.93L201.64 177.81L187.78 149.07L185.48 150.18L213.39 208.06Z" fill="#824731"/>
<path d="M193.47 166.75L193.74 167.31L201.69 177.93L194.74 163.51L193.47 166.75Z" fill="#572F20"/>
<path d="M203.14 190.7H83.68V211.78H203.14V190.7Z" fill="#DE935D"/>
<g opacity="0.7">
<path opacity="0.7" d="M147.93 101.54H133.14V115.05H147.93V101.54Z" fill="#DF76A5"/>
<path opacity="0.7" d="M147 102.45V114.14H134V102.45H147ZM148.82 100.63H132.23V116H148.84V100.63H148.82Z" fill="#EE8BAA"/>
</g>
<g opacity="0.7">
<path opacity="0.7" d="M167.73 104.73H161.88V112.5H167.73V104.73Z" fill="#4A4285"/>
<path opacity="0.7" d="M166.82 105.64V111.64H162.82V105.64H166.82ZM168.64 103.82H161V113.4H168.66V103.82H168.64Z" fill="#FFBB69"/>
</g>
<g opacity="0.7">
<path opacity="0.7" d="M152.932 112.474L152.379 117.011L156.916 117.564L157.469 113.027L152.932 112.474Z" fill="#DE6B73"/>
<path opacity="0.7" d="M153.71 113.47L156.44 113.8L156.11 116.53L153.37 116.2L153.71 113.47ZM152.12 111.47L151.35 117.82L157.69 118.59L158.46 112.25L152.12 111.47Z" fill="#FC8717"/>
</g>
<path d="M191.64 167.06C191.64 167.06 209.53 164.51 217.83 148.83V147.9H215.91L191.64 165.15V167.06Z" fill="#D6621B"/>
<path opacity="0.5" d="M196.28 192.24V211.78L197.58 211.67L196.93 192.24H196.28Z" fill="#B76445"/>
<path opacity="0.5" d="M190.39 211.52V191.98L189.08 192.09L189.74 211.52H190.39Z" fill="#B76445"/>
<path d="M128.08 147.9H105.4C101.89 160.69 72.18 166.43 72.18 166.43H96.18C104.61 164.32 124.24 158.36 128.08 147.9Z" fill="#F1975C"/>
<path d="M150.44 147.9H128.08C124.24 158.36 104.61 164.32 96.18 166.43H123.28C132.6 163.21 147.17 156.89 150.44 147.9Z" fill="#FFBE61"/>
<path d="M193.88 147.9H150.44C147.17 156.9 132.6 163.21 123.28 166.43H167.69C175.66 163.75 190.46 157.59 193.88 147.9Z" fill="#F1975C"/>
<path d="M193.88 147.9C190.46 157.59 175.66 163.75 167.69 166.43H191.64C211.44 162.43 217.83 147.9 217.83 147.9H193.88Z" fill="#FFBE61"/>
<g opacity="0.25">
<path opacity="0.25" d="M145.79 200.92H126.34C125.852 200.862 125.361 200.996 124.97 201.292C124.578 201.589 124.317 202.025 124.24 202.51V205.62C124.294 205.967 124.481 206.279 124.761 206.492C125.04 206.704 125.391 206.8 125.74 206.76H133.51V211.14H138.62V206.76H146.39C146.738 206.8 147.087 206.704 147.365 206.491C147.643 206.278 147.828 205.966 147.88 205.62V202.51C147.806 202.026 147.546 201.589 147.156 201.293C146.766 200.996 146.276 200.863 145.79 200.92Z" fill="#B76445"/>
<path opacity="0.25" d="M109.7 200.92H90.24C89.7535 200.863 89.2637 200.996 88.8738 201.293C88.4839 201.589 88.2244 202.026 88.15 202.51V205.62C88.2045 205.967 88.3911 206.279 88.6706 206.492C88.9502 206.704 89.3012 206.8 89.65 206.76H97.41V211.14H102.53V206.76H110.29C110.639 206.8 110.99 206.704 111.269 206.492C111.549 206.279 111.736 205.967 111.79 205.62V202.51C111.716 202.026 111.456 201.589 111.066 201.293C110.676 200.996 110.187 200.863 109.7 200.92Z" fill="#B76445"/>
<path opacity="0.25" d="M181.88 200.92H162.43C161.944 200.863 161.454 200.996 161.064 201.293C160.674 201.589 160.414 202.026 160.34 202.51V205.62C160.392 205.966 160.577 206.279 160.855 206.491C161.133 206.704 161.482 206.8 161.83 206.76H169.6V211.14H174.71V206.76H182.48C182.828 206.8 183.177 206.704 183.455 206.491C183.733 206.279 183.918 205.966 183.97 205.62V202.51C183.896 202.026 183.636 201.589 183.246 201.293C182.856 200.996 182.367 200.863 181.88 200.92Z" fill="#B76445"/>
<path opacity="0.25" d="M133 193.9H136.66C137.222 193.897 137.767 194.086 138.207 194.435C138.647 194.784 138.955 195.273 139.08 195.82L140.55 202.2H131.61L133 193.9Z" fill="#B76445"/>
<path opacity="0.25" d="M145.79 200.92H126.34C125.852 200.862 125.361 200.996 124.97 201.292C124.578 201.589 124.317 202.025 124.24 202.51V205.62C124.294 205.967 124.481 206.279 124.761 206.492C125.04 206.704 125.391 206.8 125.74 206.76H133.51V211.14H138.62V206.76H146.39C146.738 206.8 147.087 206.704 147.365 206.491C147.643 206.278 147.828 205.966 147.88 205.62V202.51C147.806 202.026 147.546 201.589 147.156 201.293C146.766 200.996 146.276 200.863 145.79 200.92Z" fill="#B76445"/>
<path opacity="0.25" d="M109.7 200.92H90.24C89.7535 200.863 89.2637 200.996 88.8738 201.293C88.4839 201.589 88.2244 202.026 88.15 202.51V205.62C88.2045 205.967 88.3911 206.279 88.6706 206.492C88.9502 206.704 89.3012 206.8 89.65 206.76H97.41V211.14H102.53V206.76H110.29C110.639 206.8 110.99 206.704 111.269 206.492C111.549 206.279 111.736 205.967 111.79 205.62V202.51C111.716 202.026 111.456 201.589 111.066 201.293C110.676 200.996 110.187 200.863 109.7 200.92Z" fill="#B76445"/>
<path opacity="0.25" d="M181.88 200.92H162.43C161.944 200.863 161.454 200.996 161.064 201.293C160.674 201.589 160.414 202.026 160.34 202.51V205.62C160.392 205.966 160.577 206.279 160.855 206.491C161.133 206.704 161.482 206.8 161.83 206.76H169.6V211.14H174.71V206.76H182.48C182.828 206.8 183.177 206.704 183.455 206.491C183.733 206.279 183.918 205.966 183.97 205.62V202.51C183.896 202.026 183.636 201.589 183.246 201.293C182.856 200.996 182.367 200.863 181.88 200.92Z" fill="#B76445"/>
<path opacity="0.25" d="M133 193.9H136.66C137.222 193.897 137.767 194.086 138.207 194.435C138.647 194.784 138.955 195.273 139.08 195.82L140.55 202.2H131.61L133 193.9Z" fill="#B76445"/>
</g>
<path d="M127.76 203.48H122.65V211.15H127.76V203.48Z" fill="#824731"/>
<path d="M113.38 202.2H137V203.9C137 204.096 136.961 204.289 136.887 204.47C136.812 204.651 136.702 204.815 136.564 204.954C136.425 205.092 136.261 205.202 136.08 205.277C135.899 205.351 135.706 205.39 135.51 205.39H114.88C114.485 205.39 114.106 205.233 113.826 204.954C113.547 204.674 113.39 204.295 113.39 203.9V202.2H113.38Z" fill="#00C0B5"/>
<path d="M115.48 197.73H134.94C135.494 197.73 136.026 197.95 136.418 198.342C136.81 198.734 137.03 199.266 137.03 199.82V202.82H113.38V199.82C113.38 199.545 113.434 199.272 113.54 199.018C113.646 198.764 113.801 198.533 113.996 198.339C114.191 198.144 114.422 197.991 114.677 197.886C114.932 197.782 115.205 197.729 115.48 197.73Z" fill="#57E6CA"/>
<path d="M137.02 202.2H113.38V202.84H137.02V202.2Z" fill="#068D89"/>
<path d="M91.66 203.48H86.55V211.15H91.66V203.48Z" fill="#824731"/>
<path d="M77.29 202.2H100.93V203.9C100.93 204.295 100.773 204.674 100.494 204.954C100.214 205.233 99.8352 205.39 99.44 205.39H78.79C78.3948 205.39 78.0158 205.233 77.7364 204.954C77.457 204.674 77.3 204.295 77.3 203.9V202.2H77.29Z" fill="#00C0B5"/>
<path d="M79.38 197.73H98.84C99.3943 197.73 99.9259 197.95 100.318 198.342C100.71 198.734 100.93 199.266 100.93 199.82V202.82H77.29V199.82C77.29 199.266 77.5102 198.734 77.9021 198.342C78.2941 197.95 78.8257 197.73 79.38 197.73Z" fill="#57E6CA"/>
<path d="M100.93 202.2H77.29V202.84H100.93V202.2Z" fill="#068D89"/>
<path d="M163.85 203.48H158.74V211.15H163.85V203.48Z" fill="#824731"/>
<path d="M149.48 202.2H173.12V203.9C173.12 204.295 172.963 204.674 172.684 204.954C172.404 205.233 172.025 205.39 171.63 205.39H151C150.605 205.39 150.226 205.233 149.946 204.954C149.667 204.674 149.51 204.295 149.51 203.9V202.2H149.48Z" fill="#00C0B5"/>
<path d="M151.57 197.73H171C171.554 197.73 172.086 197.95 172.478 198.342C172.87 198.734 173.09 199.266 173.09 199.82V202.82H149.48V199.82C149.48 199.266 149.7 198.734 150.092 198.342C150.484 197.95 151.016 197.73 151.57 197.73Z" fill="#57E6CA"/>
<path d="M173.12 202.2H149.48V202.84H173.12V202.2Z" fill="#068D89"/>
<path d="M136.7 110.85H126.48V119.79H136.7V110.85Z" fill="#58B6B8"/>
<path d="M97.73 117V124.29H88.79V134.52H135.42V116.42C135.42 114.943 134.833 113.526 133.789 112.481C132.744 111.437 131.327 110.85 129.85 110.85H103.85C103.044 110.85 102.245 111.009 101.501 111.319C100.757 111.628 100.081 112.082 99.5118 112.653C98.9432 113.225 98.493 113.903 98.1872 114.649C97.8814 115.395 97.726 116.194 97.73 117Z" fill="#74D4D6"/>
<path d="M135.42 110.85V124.26H120.09V134.49H145V116.42C145 114.943 144.413 113.526 143.369 112.481C142.324 111.437 140.907 110.85 139.43 110.85H135.42Z" fill="#58B6B8"/>
<path d="M89 124.26C89.968 124.26 90.8964 124.645 91.5809 125.329C92.2654 126.014 92.65 126.942 92.65 127.91V134.48H85.35V127.91C85.35 126.942 85.7345 126.014 86.419 125.329C87.1035 124.645 88.0319 124.26 89 124.26Z" fill="#74D4D6"/>
<path d="M156.15 27.37C155.15 24.22 158.09 19.09 156.15 16.48C154.21 13.87 148.42 15.01 145.81 13.12C143.2 11.23 142.41 5.17002 139.38 4.33002C139.129 4.2634 138.87 4.22648 138.61 4.22002H134.19V5.28002H135.19C133.19 6.28002 130.99 7.69002 129.05 7.69002C125.96 7.69002 122.44 3.96002 119.44 4.18002H115L115.17 5.66002H116.85C115.1 7.77002 114.26 11.56 112.2 13.13C109.55 15.13 103.63 14.01 101.78 16.49C99.93 18.97 102.78 24.4 101.78 27.38C100.78 30.36 95.38 32.85 95.38 36.17C95.38 39.49 100.89 41.8 101.86 44.96C102.83 48.12 99.93 53.24 101.86 55.85C103.79 58.46 109.6 57.32 112.2 59.21C114.33 60.75 115.28 65.06 117.2 67.06H114.97V68.06H119.49C122.4 68.06 125.99 64.58 129.06 64.58C132.43 64.58 136.3 69 139.45 67.95C142.6 66.9 143.32 61.05 145.93 59.16C148.54 57.27 154.42 58.28 156.27 55.8C158.12 53.32 155.27 47.89 156.27 44.91C157.27 41.93 162.66 39.44 162.66 36.12C162.66 32.8 157.12 30.52 156.15 27.37Z" fill="#5C74C9"/>
<path d="M129.68 61.02H122.65V89.77H129.68V61.02Z" fill="#D0E3FF"/>
<path opacity="0.75" d="M129.65 73.8L127.93 71.8C127.274 71.0329 126.46 70.4168 125.543 69.9939C124.627 69.571 123.629 69.3514 122.62 69.35V61H129.62L129.65 73.8Z" fill="#5865f2"/>
<path d="M138.51 68.15H134.06V67.11H138.5L138.51 68.15Z" fill="#5C74C9"/>
<path d="M158.19 36.1601C158.19 39.4801 152.81 41.9601 151.8 44.9501C150.79 47.9401 153.65 53.3601 151.8 55.8401C149.95 58.3201 144.06 57.3101 141.46 59.2001C138.86 61.0901 138.13 66.9401 135 68.0001C131.87 69.0601 128 64.6301 124.62 64.6301C121.24 64.6301 117.26 68.8401 114.23 68.0001C111.2 67.1601 110.36 61.1001 107.76 59.2101C105.16 57.3201 99.35 58.4501 97.41 55.8501C95.47 53.2501 98.41 48.1101 97.41 44.9601C96.41 41.8101 90.94 39.4901 90.94 36.1701C90.94 32.8501 96.32 30.3701 97.33 27.3801C98.34 24.3901 95.48 18.9701 97.33 16.4901C99.18 14.0101 105.11 15.1501 107.76 13.1301C110.41 11.1101 111.03 5.39008 114.19 4.34008C117.35 3.29008 121.19 7.70008 124.57 7.70008C127.95 7.70008 131.93 3.50008 134.96 4.34008C137.99 5.18008 138.79 11.2401 141.39 13.1301C143.99 15.0201 149.8 13.8801 151.74 16.4901C153.68 19.1001 150.74 24.2301 151.74 27.3801C152.74 30.5301 158.19 32.8401 158.19 36.1601Z" fill="#5865f2"/>
<path opacity="0.75" d="M127.76 89.13V64.61" stroke="#5865f2" stroke-width="0.64" stroke-miterlimit="10"/>
<path d="M151.72 16.4801C149.78 13.8701 143.98 15.0101 141.37 13.1201C139.6 11.8301 138.66 8.62006 137.3 6.44006L99.87 57.3201C102.41 58.0401 105.87 57.8601 107.74 59.2001C110.34 61.0901 111.18 67.2001 114.21 67.9901C114.588 68.0889 114.98 68.1227 115.37 68.0901L152.3 17.8801C152.214 17.3759 152.016 16.8975 151.72 16.4801Z" fill="#7992E8"/>
<path d="M151.72 27.37C151.545 26.7631 151.477 26.1302 151.52 25.5L122.39 65.1C123.091 64.8059 123.84 64.6432 124.6 64.62C126.4 64.62 128.35 65.9 130.26 66.91L155.7 32.06C154.1 30.55 152.24 29.08 151.72 27.37Z" fill="#7992E8"/>
<path d="M120.87 34L122.94 32.66C123.525 32.2787 124.184 32.0271 124.874 31.9218C125.564 31.8166 126.268 31.8603 126.94 32.05C127.616 32.2452 128.241 32.5866 128.77 33.05H128.6V33.6H129.96C130.226 33.6016 130.487 33.5251 130.71 33.38L136.71 29.52C136.879 29.4114 137.023 29.2686 137.133 29.1008C137.243 28.9329 137.316 28.7438 137.348 28.5458C137.38 28.3477 137.37 28.1451 137.319 27.9511C137.268 27.7572 137.176 27.5762 137.05 27.42C134.97 24.8924 132.105 23.1325 128.91 22.42C126.947 21.9982 124.92 21.972 122.947 22.3428C120.975 22.7137 119.095 23.4743 117.42 24.58L104.67 32.84C103.878 33.3557 103.251 34.0882 102.863 34.9503C102.476 35.8124 102.345 36.7677 102.485 37.7024C102.625 38.6371 103.031 39.5118 103.654 40.2223C104.277 40.9328 105.092 41.4492 106 41.71V41.9H107.39C108.324 41.8933 109.237 41.6191 110.02 41.11L120.87 34Z" fill="#5C74C9"/>
<path d="M148.4 32.6701C147.958 31.9789 147.348 31.4104 146.628 31.0171C145.908 30.6238 145.101 30.4185 144.28 30.4201H143V30.5801C142.499 30.7127 142.023 30.9255 141.59 31.2101L140.37 31.9901L131.51 37.7401L128.62 39.6101C128.036 39.993 127.377 40.2464 126.687 40.3534C125.997 40.4603 125.292 40.4183 124.62 40.2301C123.877 40.0225 123.193 39.646 122.62 39.1301C122.35 38.8718 121.994 38.7223 121.62 38.7101H120.32V39.0001H120.7L114.91 42.7501C114.742 42.8594 114.599 43.0028 114.49 43.1711C114.381 43.3393 114.309 43.5286 114.277 43.7266C114.246 43.9246 114.257 44.1269 114.309 44.3205C114.361 44.514 114.454 44.6945 114.58 44.8501C115.966 46.5394 117.709 47.9007 119.683 48.8361C121.658 49.7715 123.815 50.2578 126 50.2601C128.841 50.2581 131.62 49.4313 134 47.8801L147 39.4701C147.543 39.1195 148.011 38.665 148.377 38.1329C148.743 37.6008 149.001 37.0016 149.134 36.3696C149.268 35.7376 149.276 35.0854 149.157 34.4505C149.037 33.8156 148.794 33.2105 148.44 32.6701H148.4Z" fill="#5C74C9"/>
<path d="M135.34 29.52L129.34 33.38C129.063 33.5512 128.737 33.6254 128.413 33.591C128.089 33.5566 127.785 33.4155 127.55 33.19C126.985 32.6635 126.297 32.2856 125.55 32.09C124.878 31.9003 124.174 31.8566 123.484 31.9619C122.794 32.0671 122.135 32.3187 121.55 32.7L119.55 34L108.65 41.07C108.107 41.4213 107.5 41.6622 106.864 41.7789C106.228 41.8956 105.575 41.886 104.943 41.7504C104.31 41.6148 103.711 41.356 103.178 40.9888C102.646 40.6215 102.191 40.153 101.84 39.61C101.489 39.067 101.248 38.4601 101.131 37.824C101.014 37.1879 101.024 36.535 101.16 35.9026C101.295 35.2702 101.554 34.6708 101.921 34.1384C102.288 33.6061 102.757 33.1513 103.3 32.8L116.05 24.54C117.725 23.4338 119.604 22.6729 121.577 22.302C123.55 21.9311 125.577 21.9576 127.54 22.38C130.734 23.0947 133.598 24.8541 135.68 27.38C135.813 27.537 135.91 27.7209 135.966 27.919C136.021 28.1171 136.033 28.3248 136.001 28.5279C135.968 28.7311 135.893 28.9248 135.779 29.096C135.665 29.2672 135.515 29.4119 135.34 29.52Z" fill="white"/>
<path d="M147.88 35.34C147.881 36.1619 147.676 36.9709 147.283 37.6926C146.89 38.4143 146.321 39.0255 145.63 39.47L132.63 47.88C130.252 49.4344 127.471 50.2615 124.63 50.26C122.452 50.257 120.303 49.7732 118.334 48.8432C116.365 47.9132 114.625 46.5599 113.24 44.88C113.112 44.725 113.019 44.5447 112.966 44.3509C112.913 44.1571 112.901 43.9542 112.932 43.7557C112.964 43.5573 113.037 43.3676 113.146 43.1994C113.256 43.0312 113.401 42.8883 113.57 42.78L119.57 38.93C119.847 38.7566 120.175 38.6821 120.5 38.7184C120.825 38.7547 121.128 38.8997 121.36 39.13C122.162 39.8708 123.189 40.3209 124.277 40.4079C125.365 40.495 126.451 40.214 127.36 39.61L130.25 37.74L139.06 32L140.28 31.22C141.024 30.7444 141.882 30.477 142.765 30.4457C143.648 30.4144 144.523 30.6204 145.299 31.0421C146.075 31.4638 146.724 32.0859 147.178 32.8436C147.632 33.6013 147.874 34.4668 147.88 35.35V35.34Z" fill="white"/>
<path d="M105.3 23.5L106 25C106 25 106 25 106.06 25L106.72 23.52L108.2 22.86V22.8L106.72 22.14L106 20.61C106 20.61 106 20.61 105.94 20.61L105.29 22.09L103.81 22.75V22.81L105.29 23.47C105.29 23.47 105.29 23.49 105.3 23.5Z" fill="#6D83D1"/>
<path d="M108.8 19.73L108.48 20.55L109.3 20.23L110.12 20.55L109.81 19.73L110.12 18.91L109.3 19.22L108.48 18.91L108.8 19.73Z" fill="#6D83D1"/>
<path d="M146.5 53.32L146.19 54.14L147.01 53.83L147.83 54.14L147.51 53.32L147.83 52.5L147.01 52.82L146.19 52.5L146.5 53.32C146.5 53.32 146.51 53.32 146.5 53.32Z" fill="#6D83D1"/>
<path d="M118.15 88.49H134.15C134.738 88.4939 135.319 88.6138 135.861 88.8427C136.402 89.0716 136.893 89.405 137.306 89.8239C137.718 90.2429 138.044 90.739 138.264 91.284C138.485 91.829 138.595 92.4121 138.59 93H113.68C113.675 92.4096 113.786 91.8241 114.009 91.2771C114.231 90.7302 114.559 90.2327 114.975 89.8133C115.391 89.394 115.885 89.0612 116.43 88.834C116.975 88.6069 117.56 88.49 118.15 88.49Z" fill="#72A0FF"/>
<path d="M185.25 127.46H175.67V135.76H185.25V127.46Z" fill="#879DE8"/>
<path opacity="0.6" d="M187.81 66.77L187.17 68.05L277.24 73.8V65.49L187.81 66.77Z" fill="#ACC8F2"/>
<path d="M270.21 50.16H179.5V62.3H270.21V50.16Z" fill="#DBEAFF"/>
<path d="M261.91 50.16H196.11V62.3H261.91V50.16Z" fill="#C7DDFF"/>
<path d="M196.11 50.16H192.28V62.3H196.11V50.16Z" fill="#EDF4FF"/>
<path d="M183.33 50.16H179.5V62.3H183.33V50.16Z" fill="#EDF4FF"/>
<path opacity="0.6" d="M270.21 56.55L179.5 51.44V47.61H270.21V56.55Z" fill="#ACC8F2"/>
<path d="M276.6 43.35C276.6 42.9548 276.443 42.5758 276.164 42.2964C275.884 42.017 275.505 41.86 275.11 41.86H260.21C259.814 41.86 259.434 42.0166 259.153 42.2958C258.872 42.5749 258.713 42.9539 258.71 43.35V46.35H254.71V43.35C254.71 42.9548 254.553 42.5758 254.274 42.2964C253.994 42.017 253.615 41.86 253.22 41.86H239.61C239.214 41.86 238.834 42.0166 238.553 42.2958C238.272 42.5749 238.113 42.9539 238.11 43.35V46.35H232.84V43.35C232.84 42.9548 232.683 42.5758 232.404 42.2964C232.124 42.017 231.745 41.86 231.35 41.86H219C218.604 41.86 218.224 42.0166 217.943 42.2958C217.662 42.5749 217.503 42.9539 217.5 43.35V46.35H212.23V43.35C212.23 42.9548 212.073 42.5758 211.794 42.2964C211.514 42.017 211.135 41.86 210.74 41.86H197.13C196.734 41.86 196.354 42.0166 196.073 42.2958C195.792 42.5749 195.633 42.9539 195.63 43.35V46.35H191.63V43.35C191.627 42.9539 191.468 42.5749 191.187 42.2958C190.906 42.0166 190.526 41.86 190.13 41.86H175.25C174.854 41.86 174.474 42.0166 174.193 42.2958C173.912 42.5749 173.753 42.9539 173.75 43.35C173.75 46.75 179.5 50.16 179.5 50.16H270.21C270.21 50.16 276.6 47 276.6 43.35Z" fill="#E6F0FF"/>
<path d="M284.27 61.02H166.72C164.605 61.02 162.89 62.7348 162.89 64.85V64.86C162.89 66.9753 164.605 68.69 166.72 68.69H284.27C286.385 68.69 288.1 66.9753 288.1 64.86V64.85C288.1 62.7348 286.385 61.02 284.27 61.02Z" fill="#D99D9C"/>
<path d="M225.81 75.4H195.16C193.746 75.4 192.6 76.5439 192.6 77.955C192.6 79.3661 193.746 80.51 195.16 80.51H225.81C227.224 80.51 228.37 79.3661 228.37 77.955C228.37 76.5439 227.224 75.4 225.81 75.4Z" fill="#071C69" stroke="#7992E8" stroke-width="1.82" stroke-miterlimit="10"/>
<path d="M191.64 166.43H72.18V167.07H191.64V166.43Z" fill="#D6621B"/>
<path d="M284.27 61.02H166.72C164.605 61.02 162.89 62.7348 162.89 64.85V64.86C162.89 66.9753 164.605 68.69 166.72 68.69H284.27C286.385 68.69 288.1 66.9753 288.1 64.86V64.85C288.1 62.7348 286.385 61.02 284.27 61.02Z" fill="#D0E3FF"/>
<path d="M166.73 68.69H284.27C285.287 68.6873 286.261 68.2816 286.979 67.5617C287.697 66.8419 288.1 65.8667 288.1 64.85H162.89C162.89 65.3543 162.989 65.8536 163.182 66.3195C163.375 66.7854 163.658 67.2087 164.015 67.5653C164.371 67.9218 164.795 68.2047 165.261 68.3977C165.726 68.5907 166.226 68.69 166.73 68.69Z" fill="#91B5FF"/>
<path d="M361.75 134.49H153.31V139.6H350C352.205 139.604 354.387 139.152 356.409 138.273C358.431 137.393 360.249 136.105 361.75 134.49Z" fill="#F2F7FF"/>
<path d="M202.77 123.63H227.87V134.49H199.94V126.49C199.936 126.116 200.006 125.745 200.147 125.398C200.287 125.051 200.495 124.735 200.758 124.469C201.021 124.203 201.335 123.992 201.68 123.848C202.025 123.704 202.396 123.63 202.77 123.63Z" fill="#A8CAFF"/>
<path d="M80.17 190.7H217.83V192.62H80.17C79.9048 192.62 79.6504 192.515 79.4629 192.327C79.2753 192.14 79.17 191.885 79.17 191.62C79.17 191.355 79.2753 191.1 79.4629 190.913C79.6504 190.725 79.9048 190.62 80.17 190.62V190.7Z" fill="#EDB58C"/>
<path d="M72.18 167.06C72.18 167.06 74.37 178.56 81.26 167.06C81.26 167.06 83.68 173.45 86.87 167.06C86.87 167.06 91.44 179.84 96.18 167.06H72.18Z" fill="#D6621B"/>
<path opacity="0.16" d="M204.42 61.02H166.72C164.605 61.02 162.89 62.7348 162.89 64.85V64.86C162.89 66.9753 164.605 68.69 166.72 68.69H204.42C206.535 68.69 208.25 66.9753 208.25 64.86V64.85C208.25 62.7348 206.535 61.02 204.42 61.02Z" fill="#355ED3"/>
<path d="M42.93 179.68C38.5513 181.665 33.7977 182.688 28.99 182.68C34.56 186.96 41.11 187.33 46.57 186.47L42.93 179.68Z" fill="#00C0B5"/>
<path d="M71.33 119.79H81.76V135.79H67.07V124C67.0832 122.879 67.5378 121.808 68.3353 121.02C69.1328 120.232 70.2088 119.79 71.33 119.79Z" fill="#E6F0FF"/>
<path opacity="0.33" d="M104.44 93V94C104.44 94.7612 104.742 95.4912 105.281 96.0294C105.819 96.5676 106.549 96.87 107.31 96.87H165.14C165.522 96.8688 165.9 96.7913 166.252 96.6421C166.603 96.4929 166.922 96.2751 167.188 96.0012C167.454 95.7274 167.663 95.4031 167.803 95.0475C167.942 94.6918 168.009 94.3119 168 93.93V93" stroke="#CCE0FF" stroke-width="0.64" stroke-miterlimit="10"/>
<path d="M84.25 61.25C85.0711 59.9263 85.9903 58.6661 87 57.48" stroke="#FFFFEB" stroke-width="1.92" stroke-miterlimit="10"/>
<path d="M166.14 13.47C170.08 13.26 172.8 14.02 173.87 15.87C177.55 22.24 160.18 39.16 135.07 53.66C109.96 68.16 86.63 74.74 83 68.36C82.23 67.03 82.38 65.24 83.33 63.11" stroke="#FFFFEB" stroke-width="1.92" stroke-miterlimit="10"/>
<path d="M163.9 13.68L164.99 13.55" stroke="#D4E4FF" stroke-width="1.92" stroke-miterlimit="10"/>
<path d="M94.86 72.84C96.2738 72.84 97.42 71.6938 97.42 70.28C97.42 68.8661 96.2738 67.72 94.86 67.72C93.4461 67.72 92.3 68.8661 92.3 70.28C92.3 71.6938 93.4461 72.84 94.86 72.84Z" fill="#9686E7"/>
<path d="M84.64 62.62C86.0539 62.62 87.2 61.4739 87.2 60.06C87.2 58.6462 86.0539 57.5 84.64 57.5C83.2262 57.5 82.08 58.6462 82.08 60.06C82.08 61.4739 83.2262 62.62 84.64 62.62Z" fill="#74D9C0"/>
<path d="M162.89 16.3101C164.304 16.3101 165.45 15.1639 165.45 13.7501C165.45 12.3362 164.304 11.1901 162.89 11.1901C161.476 11.1901 160.33 12.3362 160.33 13.7501C160.33 15.1639 161.476 16.3101 162.89 16.3101Z" fill="#E4806D"/>
<path d="M83.28 63.11C83.5739 62.4696 83.9079 61.8483 84.28 61.25" stroke="#FFFFEB" stroke-width="1.92" stroke-miterlimit="10" stroke-linecap="round"/>
<path d="M165 13.55L166.15 13.47" stroke="#FFFFEB" stroke-width="1.92" stroke-miterlimit="10" stroke-linecap="round"/>
<path opacity="0.5" d="M80.51 26.5L79.23 27.07C79.23 27.07 79.23 27.07 79.23 27.12L80.51 27.7L81.1 29H81.15L81.72 27.71L83 27.12C83 27.12 83 27.12 83 27.07L81.72 26.5L81.15 25.22C81.15 25.22 81.15 25.22 81.1 25.22L80.53 26.5H80.51Z" fill="white"/>
<path opacity="0.75" d="M142.72 77.71L140.55 76.88L140.49 76.94L141.32 79.11L140.49 81.28L140.55 81.34L142.72 80.51L144.89 81.34L144.95 81.28L144.12 79.11L144.95 76.94L144.89 76.88L142.72 77.71Z" fill="white"/>
<path opacity="0.5" d="M36.4 199.49L35.46 197.37H35.37L34.43 199.49L32.31 200.49V200.57L34.43 201.57L35.37 203.69H35.46L36.4 201.57L38.52 200.57V200.49L36.4 199.49C36.4 199.49 36.41 199.5 36.4 199.49Z" fill="white"/>
<path d="M140.53 185.59L141.17 190.7H144.74L145.65 185.59H140.53Z" fill="#FFD199"/>
<path opacity="0.12" d="M113.1 152.1C148.1 155.21 195.61 151.1 195.61 151.1C195.61 151.1 133.37 167.49 113.1 152.1Z" fill="#853C11"/>
<path opacity="0.58" d="M125.87 197.86L128.4 205.39H135.53L133.62 197.73H125.87" fill="#068D89"/>
<path d="M56.73 113C56.73 113 59.09 136.72 63.56 125.22C63.56 125.22 69.31 138 75.7 125.86C75.7 125.86 85.28 134.8 94.22 124.58" stroke="#836EE6" stroke-width="0.9" stroke-miterlimit="10"/>
<path d="M142.31 189.56C142.114 189.264 141.831 189.037 141.5 188.91C140.687 188.723 139.867 188.573 139.04 188.46C138.902 188.43 138.758 188.43 138.62 188.46C138.529 188.471 138.441 188.499 138.36 188.54C137.69 188.81 137.47 189.27 137.88 190.7H141.88L142.2 190.39C142.5 190 142.52 189.86 142.31 189.56Z" fill="#EF94B0"/>
<path d="M141.6 189C141.87 189.14 141.76 189.43 141.54 189.89C141.32 190.35 141.21 190.53 141.11 190.75H141.89L142.21 190.44C142.5 190.06 142.52 189.91 142.31 189.61C142.141 189.339 141.893 189.126 141.6 189Z" fill="#E280AD"/>
<path d="M136.7 188.15C137.02 188.034 137.364 188.002 137.7 188.056C138.036 188.11 138.353 188.249 138.62 188.46C138.452 188.586 138.31 188.744 138.203 188.925C138.096 189.106 138.026 189.307 137.997 189.515C137.969 189.724 137.981 189.936 138.035 190.139C138.089 190.342 138.182 190.533 138.31 190.7H133.6L132.87 186.23C132.87 186.23 134.31 187.4 134.56 187.29C134.75 187.167 134.966 187.091 135.191 187.069C135.416 187.048 135.643 187.08 135.853 187.165C136.063 187.249 136.25 187.382 136.397 187.554C136.544 187.725 136.648 187.93 136.7 188.15Z" fill="#D0BE9E"/>
<path d="M124.45 191.05C123.995 190.688 123.579 190.279 123.21 189.83C123.09 189.62 123.28 189.59 123.58 189.48C123.88 189.37 124.1 189.74 124.4 190.32C124.7 190.9 125 191.52 124.45 191.05Z" fill="#EAC597"/>
<path d="M132.23 185L123.89 186.25C123.32 186.74 123.28 186.86 122.89 187.25C122.454 187.562 122.094 187.969 121.838 188.44C121.581 188.911 121.435 189.434 121.41 189.97C121.34 191.21 121.41 191.16 121.2 191.61C120.99 192.06 120.69 192.21 120.92 192.85C121.011 193.08 121.128 193.298 121.27 193.5C121.365 193.633 121.491 193.742 121.638 193.815C121.784 193.888 121.946 193.924 122.11 193.92H132.31C133.11 193.92 131.65 191.19 132.24 190.79C133.84 189.72 134.06 190.03 132.88 188.24C132.11 187 133.41 186 132.23 185Z" fill="#F3E4C0"/>
<path d="M133.7 193.83H124.64C124.64 193.83 124.64 193.04 124.73 191C124.82 188.96 124.38 187.56 122.88 187.16C123.18 186.85 123.51 186.53 123.88 186.16L132.43 184.82C132.9 185.24 133.38 185.66 133.82 186.09C133.979 186.238 134.072 186.443 134.08 186.66C134.18 189.044 134.05 191.432 133.69 193.79L133.7 193.83Z" fill="#243B6C"/>
<path d="M132.44 184.86H132.32L132.2 185C131.857 186.281 131.402 187.529 130.84 188.73C130.84 188.73 130.84 189.2 131.52 188.28C132.161 187.382 132.65 186.386 132.97 185.33L132.44 184.86Z" fill="#1C2F59"/>
<path d="M124.85 186.2C125.637 187.296 126.592 188.261 127.68 189.06C128.29 189.45 127.78 188.85 127.14 187.91C126.5 186.97 125.76 185.8 125.76 185.8L124.85 186.2Z" fill="#1C2F59"/>
<path d="M129.93 191.84C129.32 191.66 126.72 190.77 124.73 190.3V191C124.73 193 124.64 194.95 124.64 194.95L133.7 195.42C133.84 194.42 133.98 191.68 134.05 190.42L129.93 191.84Z" fill="#1C2F59"/>
<path d="M131.69 184.84L130 191.3L125.6 185.05L131.69 184.84Z" fill="#D0BE9E"/>
<path d="M125.84 185.59L130.54 186.59C130.98 186.59 131.01 186.15 131.24 185.18L126.88 185.51L125.84 185.59Z" fill="#CE6695"/>
<path d="M130.07 205.52C130.07 206.39 129.58 207.09 130.47 207.52C131.405 208.061 132.366 208.555 133.35 209C134.35 209.28 135.86 209.72 135.08 208.2C134.584 207.255 134.14 206.283 133.75 205.29L130.07 205.52Z" fill="#864745"/>
<path d="M134.92 204.37C134.85 205.19 134.33 205.8 135.13 206.25C135.957 206.838 136.818 207.376 137.71 207.86C138.6 208.19 139.98 208.78 139.39 207.28C138.8 205.78 138.39 204.47 138.39 204.47L134.92 204.37Z" fill="#864745"/>
<path d="M132.74 197.82H132.39L134.24 205.76L133.19 206.25C132.648 206.498 132.061 206.634 131.464 206.65C130.868 206.665 130.275 206.56 129.72 206.34L127.87 197.86H125.46C125.312 197.86 125.166 197.829 125.03 197.77C124.9 197.708 124.781 197.623 124.68 197.52C124.581 197.412 124.503 197.286 124.45 197.15C124.398 197.013 124.374 196.867 124.38 196.72L124.5 194.63H135.13C135.756 194.634 136.358 194.869 136.82 195.29C137.28 195.709 137.571 196.282 137.64 196.9L138.71 205.22L137.82 205.31C136.721 205.43 135.611 205.4 134.52 205.22L132.74 197.82Z" fill="#1C1B28"/>
<path d="M127.91 194.78L127.75 194.27L124.06 192.36C123.896 192.274 123.707 192.247 123.525 192.283C123.343 192.319 123.179 192.417 123.06 192.56C122.27 193.56 122.33 194.05 122.81 194.62C122.983 194.841 123.221 195.002 123.49 195.08C124.424 195.42 125.375 195.71 126.34 195.95C126.76 196.005 127.186 195.917 127.55 195.7C128 195.51 128 195.33 127.91 194.78Z" fill="#EF94B0"/>
<path d="M128.36 178.73L129.72 170.04C129.758 169.734 129.912 169.455 130.15 169.26C130.392 169.072 130.694 168.98 131 169C131.177 169.008 131.351 169.052 131.51 169.13C131.671 169.201 131.812 169.311 131.92 169.45C132.038 169.582 132.123 169.739 132.17 169.91C132.2 170.082 132.2 170.258 132.17 170.43L130.83 179.43L128.36 178.73Z" fill="#EE8BAA"/>
<path d="M129.81 177.13L130.98 171.68C130.992 171.635 131.021 171.596 131.06 171.57C131.08 171.561 131.103 171.556 131.125 171.556C131.147 171.556 131.17 171.561 131.19 171.57C131.29 171.57 131.36 171.66 131.34 171.75L130.59 177.09L129.81 177.13Z" fill="#DF76A5"/>
<path d="M129.72 170C129.76 169.687 129.917 169.401 130.16 169.2C129.95 170.63 129.56 173.2 128.99 177.37L128.55 177.45L129.72 170Z" fill="#F2AEBA"/>
<path d="M123.91 169.76C123.728 169.829 123.562 169.933 123.421 170.067C123.281 170.201 123.168 170.362 123.09 170.54C122.922 170.897 122.897 171.305 123.02 171.68L125.55 179.08L128.81 178.08L125.9 170.58C125.749 170.201 125.453 169.897 125.078 169.736C124.703 169.575 124.279 169.569 123.9 169.72L123.91 169.76Z" fill="#EE8BAA"/>
<path d="M126.42 177.23L127.7 177.04L125.92 172.61C125.901 172.546 125.866 172.488 125.82 172.44C125.77 172.391 125.713 172.351 125.65 172.32H125.44C125.372 172.328 125.307 172.352 125.25 172.39C125.143 172.437 125.057 172.523 125.01 172.63C124.966 172.739 124.966 172.861 125.01 172.97L126.42 177.23Z" fill="#DF76A5"/>
<path d="M125.71 177.23L123.21 170.34C123.079 170.535 122.994 170.757 122.96 170.99C122.93 171.222 122.95 171.457 123.02 171.68L124.94 177.32L125.71 177.23Z" fill="#F1A6B4"/>
<path d="M131.93 176.19L122.38 177.43C122.054 177.471 121.739 177.576 121.453 177.739C121.168 177.902 120.917 178.12 120.717 178.38C120.516 178.64 120.368 178.938 120.283 179.255C120.198 179.573 120.177 179.904 120.22 180.23V180.3C120.262 180.627 120.368 180.942 120.532 181.227C120.696 181.513 120.915 181.763 121.176 181.964C121.437 182.165 121.735 182.312 122.054 182.397C122.372 182.482 122.704 182.504 123.03 182.46L132.57 181.22C132.897 181.179 133.212 181.074 133.498 180.912C133.784 180.749 134.035 180.531 134.236 180.271C134.438 180.011 134.586 179.713 134.673 179.396C134.759 179.078 134.782 178.746 134.74 178.42V178.35C134.653 177.691 134.308 177.094 133.781 176.689C133.255 176.284 132.589 176.105 131.93 176.19Z" fill="#EE8BAA"/>
<path d="M132.93 180.36L123.12 181.65C122.506 181.738 121.951 182.065 121.576 182.559C121.201 183.054 121.036 183.676 121.116 184.291C121.196 184.906 121.515 185.465 122.005 185.847C122.494 186.228 123.114 186.402 123.73 186.33L133.54 185.04C133.85 185.004 134.151 184.906 134.423 184.753C134.695 184.6 134.935 184.394 135.127 184.147C135.319 183.901 135.46 183.619 135.543 183.317C135.625 183.016 135.647 182.701 135.606 182.391C135.566 182.081 135.464 181.782 135.307 181.512C135.151 181.241 134.942 181.005 134.693 180.816C134.444 180.627 134.16 180.489 133.857 180.411C133.554 180.333 133.239 180.315 132.93 180.36Z" fill="#EE8BAA"/>
<path d="M128.55 181.08C128.75 180.92 128.73 180.55 128.49 180.25C128.25 179.95 127.91 179.85 127.7 180.01C127.604 180.129 127.556 180.28 127.567 180.432C127.579 180.584 127.647 180.727 127.76 180.83C128 181.13 128.34 181.24 128.55 181.08Z" fill="#1E1C2A"/>
<path d="M132.81 180.08C132.88 179.74 132.73 179.42 132.49 179.38C132.25 179.34 132 179.57 131.94 179.92C131.88 180.27 132.02 180.58 132.26 180.62C132.5 180.66 132.75 180.43 132.81 180.08Z" fill="#1E1C2A"/>
<path d="M131.69 181.58L131.5 181.98C131.448 182.08 131.381 182.171 131.3 182.25C131.211 182.32 131.109 182.37 131 182.4C130.891 182.425 130.779 182.425 130.67 182.4C130.556 182.381 130.448 182.341 130.35 182.28L129.74 181.88L131.69 181.58Z" fill="#AB4A72"/>
<path d="M122.39 182C121.89 181.857 121.383 181.74 120.87 181.65C121.139 181.964 121.483 182.204 121.87 182.35L121.78 182.45L123.23 182.38C123.72 182.29 123.51 182.24 122.39 182Z" fill="#DF79A8"/>
<path d="M121.85 179C122.22 178.6 122.39 178.16 122.24 178C122.09 177.84 121.66 178.07 121.3 178.47C120.94 178.87 120.75 179.31 120.91 179.47C121.07 179.63 121.48 179.38 121.85 179Z" fill="#F1A5BC"/>
<path d="M121.76 191.3L123.04 190.77C123.3 190.67 123.04 190.58 122.48 190.32C121.92 190.06 121.78 189.97 121.73 190.48C121.68 190.99 121.5 191.4 121.76 191.3Z" fill="#F3D59D"/>
<path d="M123.25 191.05C121.97 191.4 121.94 191.56 121.92 191.8C121.9 192.04 121.92 192.22 122.39 191.87C122.79 191.558 123.223 191.29 123.68 191.07C123.91 191 123.79 190.88 123.25 191.05Z" fill="#F0D095"/>
<path d="M132.61 191C132.86 189.69 132.84 189.34 132.93 189.32C133.02 189.3 133.26 189.62 133.45 190.02C133.64 190.42 132.61 191 132.61 191Z" fill="#1C2F59"/>
<path d="M127.56 195.7C127.95 195.51 128.01 195.33 127.91 194.78C127.88 194.604 127.826 194.432 127.75 194.27C127.492 194.087 127.209 193.942 126.91 193.84C126.91 194.12 126.91 194.4 126.91 194.99C126.91 195.58 126.85 195.99 126.48 195.99C126.862 196.016 127.242 195.914 127.56 195.7Z" fill="#E280AD"/>
<path d="M138.08 203.06L138.67 203.67C138.748 203.742 138.8 203.836 138.82 203.94C138.855 204.044 138.855 204.156 138.82 204.26L138.54 204.89L138.08 203.06Z" fill="#1C1B28"/>
<path d="M129.27 203.06L129.16 204.56C129.13 204.658 129.13 204.762 129.16 204.86C129.193 204.957 129.256 205.041 129.34 205.1L129.97 205.71L129.27 203.06Z" fill="#1C1B28"/>
<path d="M135.08 203.67L138.46 203.98L137.38 204.54C137.124 204.67 136.834 204.719 136.55 204.68C136.268 204.641 136.003 204.519 135.79 204.33L135.08 203.67Z" fill="#13121B"/>
<path d="M132.25 204L130.25 205C130.25 205 131.73 206.25 132.25 204Z" fill="#13121B"/>
<path d="M103.75 110.2C103.75 110.2 101.82 103.65 101.05 106.73C100.28 109.81 101.05 112.9 103.36 112.13L103.75 110.2Z" fill="#7567EF"/>
<path d="M114.35 114.57C110.787 114.026 107.535 112.228 105.18 109.5C105.057 109.364 104.896 109.268 104.718 109.224C104.54 109.179 104.353 109.188 104.18 109.25H103.98C103.934 109.238 103.886 109.236 103.839 109.243C103.792 109.251 103.747 109.267 103.707 109.293C103.667 109.318 103.632 109.351 103.605 109.39C103.578 109.429 103.559 109.473 103.55 109.52L102.7 113C102.679 113.091 102.694 113.188 102.743 113.268C102.791 113.348 102.869 113.406 102.96 113.43L103.19 113.49V113.8C103.19 117.39 106.37 117.57 108.19 118.54C109.4 119.18 111.5 121.42 113.19 122.01C114.88 122.6 115.56 122.19 117.43 122.4L114.35 114.57Z" fill="#CF5B67"/>
<path d="M117.79 124.18L121.29 121.73C121.29 121.73 126.65 122.62 128.04 118.99C128.91 116.71 129.82 117.23 130.37 117.99C130.764 118.506 130.988 119.131 131.01 119.78C131.09 121.92 130.34 127.35 120.81 128.09L117.79 124.18Z" fill="#6250F0"/>
<path d="M107.8 112.33C109.381 113.903 111.392 114.975 113.58 115.41L116.9 121.41L116.68 122.31C115.506 122.408 114.325 122.296 113.19 121.98C112.094 121.471 111.082 120.796 110.19 119.98C109.965 119.121 109.965 118.219 110.19 117.36L107.8 112.33Z" fill="#CF5B67"/>
<path d="M114.35 120C113.499 119.445 112.782 118.71 112.25 117.845C111.717 116.981 111.383 116.009 111.27 115C111.27 115 103.56 112.69 108.18 108.84C108.18 108.84 108.95 105.37 111.65 104.98L117.43 106.91L119.36 110.76C119.36 110.76 118.21 114.23 120.52 116.16" fill="#7567EF"/>
<path d="M108.95 112.33C109.165 112.33 109.34 112.07 109.34 111.75C109.34 111.43 109.165 111.17 108.95 111.17C108.735 111.17 108.56 111.43 108.56 111.75C108.56 112.07 108.735 112.33 108.95 112.33Z" fill="#FFFEBD"/>
<path d="M119.73 111.3C119.73 111.3 121.39 102.44 111.25 104.43C111.25 104.43 114.33 111.33 119.73 111.3Z" fill="#FC9E17"/>
<path d="M111.664 110.479C111.827 110.16 111.787 109.813 111.576 109.705C111.364 109.597 111.061 109.769 110.897 110.088C110.734 110.408 110.774 110.755 110.985 110.863C111.197 110.971 111.5 110.799 111.664 110.479Z" fill="black"/>
<path d="M110.5 111.55C109.281 111.985 107.949 111.985 106.73 111.55C106.73 111.55 106.64 113.87 111.27 115.02C111.347 115.627 111.488 116.223 111.69 116.8C111.889 117.493 112.227 118.138 112.685 118.695C113.142 119.253 113.709 119.71 114.35 120.04L115.89 117.72C115.687 117.724 115.485 117.687 115.296 117.611C115.107 117.535 114.936 117.422 114.792 117.278C114.648 117.134 114.535 116.963 114.459 116.774C114.383 116.585 114.346 116.383 114.35 116.18C114.35 116.18 112.42 115.41 112.42 114.25C111.833 114.099 111.318 113.745 110.967 113.251C110.616 112.757 110.45 112.154 110.5 111.55Z" fill="#6250F0"/>
<path d="M108.203 110.073C108.311 109.886 108.324 109.691 108.233 109.639C108.142 109.586 107.98 109.696 107.873 109.883C107.765 110.07 107.752 110.265 107.843 110.317C107.934 110.37 108.096 110.26 108.203 110.073Z" fill="#6250F0"/>
<path d="M115.522 113.813C115.585 113.703 115.458 113.511 115.238 113.384C115.018 113.257 114.788 113.243 114.725 113.353C114.661 113.463 114.788 113.655 115.008 113.782C115.228 113.909 115.458 113.923 115.522 113.813Z" fill="#6250F0"/>
<path d="M116.525 115.256C116.627 115.078 116.425 114.771 116.074 114.569C115.724 114.367 115.357 114.348 115.254 114.526C115.152 114.704 115.354 115.011 115.704 115.213C116.055 115.414 116.422 115.434 116.525 115.256Z" fill="#6250F0"/>
<path d="M119.75 111.17L116.75 110.56C116.544 110.462 116.343 110.352 116.15 110.23C117.79 108.89 118 106.64 117.96 105.31C120.19 107.12 119.85 110.47 119.75 111.17Z" fill="#FC8717"/>
<path d="M120.06 111.74C117.989 111.672 115.999 110.916 114.404 109.593C112.809 108.27 111.699 106.453 111.25 104.43" stroke="#FBBB3A" stroke-width="1.75" stroke-miterlimit="10" stroke-linecap="round"/>
<path d="M111.8 117.26C111.8 117.26 112.38 121.9 119.94 115.51L122.41 116.2L121 121.49L124 124.23H120.51V128.3C119.383 128.952 118.21 129.52 117 130C114.77 130.65 111.21 128.07 111.21 127.68C111.21 127.09 110.63 118.96 110.63 118.96L111.8 117.26Z" fill="#CF5B67"/>
<path d="M111.69 116.8C111.69 116.8 113.07 121.07 119.94 115.51L120.33 115.63C120.33 115.63 111.61 123.33 111.69 116.8Z" fill="#AD434E"/>
<path d="M127 123.78L126.93 123.65C126.931 123.676 126.938 123.701 126.95 123.723C126.962 123.746 126.979 123.765 127 123.78Z" fill="#5A49E3"/>
<path d="M128.88 125.11C129.681 124.342 130.285 123.391 130.64 122.34C130.19 122.69 129.96 122.34 129.96 122.34C129.62 124.05 129.16 123.34 129.16 123.34C129.06 123.85 127.1 123.99 126.81 123.59L127.11 124.7L128.88 125.11Z" fill="#5A49E3"/>
<path d="M136.06 124.23H120.52V133.53H136.06V124.23Z" fill="#58B6B8"/>
<path d="M129.109 132.887C129.734 132.743 130.037 131.742 129.787 130.649C129.536 129.556 128.827 128.786 128.202 128.929C127.578 129.072 127.275 130.074 127.525 131.167C127.776 132.26 128.485 133.03 129.109 132.887Z" fill="#6250F0"/>
<path d="M127.3 131.78C127.515 131.78 127.69 131.261 127.69 130.62C127.69 129.979 127.515 129.46 127.3 129.46C127.085 129.46 126.91 129.979 126.91 130.62C126.91 131.261 127.085 131.78 127.3 131.78Z" fill="#6250F0"/>
<path d="M129.76 128.91L129.47 128.22C129.623 127.978 129.719 127.705 129.75 127.42C130.02 125.11 127.96 123.31 126.91 121.9C126.09 120.81 125.07 118.37 123.78 117.11C123.579 116.91 123.365 116.723 123.14 116.55C122.923 116.385 122.675 116.266 122.41 116.2H122.26C121.753 116.117 121.233 116.206 120.782 116.453C120.331 116.699 119.975 117.089 119.77 117.56C119.68 117.78 118.19 121.36 120.71 122.46C122.037 122.883 123.194 123.721 124.01 124.85C124.427 125.69 124.675 126.604 124.74 127.54C124.74 127.74 124.79 127.95 124.81 128.17C124.81 128.62 124.9 129.08 124.94 129.57C124.98 130.06 125.34 130.13 125.8 130.03L126.01 130.53C126.026 130.569 126.05 130.604 126.08 130.634C126.11 130.663 126.146 130.686 126.185 130.702C126.224 130.718 126.265 130.726 126.308 130.726C126.35 130.725 126.391 130.717 126.43 130.7L129.59 129.37C129.634 129.354 129.674 129.329 129.707 129.296C129.74 129.263 129.766 129.224 129.782 129.18C129.798 129.136 129.805 129.089 129.801 129.042C129.797 128.996 129.783 128.951 129.76 128.91Z" fill="#DE6B73"/>
<path d="M129.366 122.332C129.519 122.05 129.528 121.76 129.387 121.684C129.247 121.608 129.009 121.774 128.856 122.056C128.704 122.338 128.695 122.628 128.835 122.704C128.976 122.78 129.214 122.614 129.366 122.332Z" fill="#5A49E3"/>
<path d="M127.674 120.128C127.774 119.943 127.78 119.753 127.688 119.703C127.595 119.653 127.439 119.762 127.34 119.947C127.24 120.131 127.234 120.321 127.326 120.371C127.418 120.421 127.574 120.312 127.674 120.128Z" fill="#5A49E3"/>
<path d="M130.218 121.556C130.263 121.474 130.263 121.387 130.22 121.364C130.176 121.34 130.104 121.388 130.06 121.47C130.015 121.553 130.014 121.639 130.058 121.663C130.102 121.686 130.173 121.639 130.218 121.556Z" fill="#5A49E3"/>
<path d="M109.75 117.81C109.624 117.547 109.451 117.31 109.24 117.11C109.134 117.011 109.007 116.937 108.869 116.892C108.731 116.847 108.584 116.833 108.44 116.85C108.269 116.915 108.091 116.962 107.91 116.99C107.775 116.995 107.642 116.957 107.53 116.88C107.224 116.644 106.969 116.348 106.78 116.01C106.689 115.84 106.562 115.691 106.409 115.573C106.255 115.456 106.078 115.373 105.89 115.33C105.717 115.31 105.543 115.31 105.37 115.33C104.721 115.403 104.067 115.247 103.52 114.89C103.432 114.829 103.349 114.762 103.27 114.69C103.81 117.33 106.53 117.58 108.18 118.45C109.035 119.01 109.85 119.629 110.62 120.3C110.658 120.194 110.674 120.082 110.665 119.97C110.657 119.858 110.624 119.749 110.57 119.65C110.341 119.018 110.067 118.403 109.75 117.81Z" fill="#BC4D58"/>
<path d="M101.25 108.94C101.59 109.84 101.66 110.65 101.4 110.75C101.14 110.85 100.97 110.56 100.71 110.12C100.553 109.855 100.419 109.578 100.31 109.29C99.97 108.39 99.9 107.58 100.16 107.48C100.42 107.38 100.9 108 101.25 108.94Z" fill="#7567EF"/>
<path d="M120.28 124.26C121.248 124.26 122.176 124.645 122.861 125.329C123.545 126.014 123.93 126.942 123.93 127.91V134.48H116.63V127.91C116.63 126.942 117.015 126.014 117.699 125.329C118.384 124.645 119.312 124.26 120.28 124.26Z" fill="#74D4D6"/>
<path d="M96.78 127.78L63.24 124.58L59.41 113.94" stroke="#9EB9F0" stroke-width="1.92" stroke-miterlimit="10"/>
<path d="M96.25 122.99H92.24C91.8424 122.99 91.52 123.312 91.52 123.71V132.49C91.52 132.888 91.8424 133.21 92.24 133.21H96.25C96.6477 133.21 96.97 132.888 96.97 132.49V123.71C96.97 123.312 96.6477 122.99 96.25 122.99Z" fill="#7992E8"/>
<path d="M95.82 120.43H119.19C119.429 120.43 119.658 120.525 119.826 120.694C119.995 120.862 120.09 121.091 120.09 121.33V132.33C120.09 132.569 119.995 132.798 119.826 132.966C119.658 133.135 119.429 133.23 119.19 133.23H96.87C96.7321 133.23 96.5956 133.203 96.4682 133.15C96.3408 133.097 96.225 133.02 96.1275 132.923C96.03 132.825 95.9527 132.709 95.8999 132.582C95.8472 132.454 95.82 132.318 95.82 132.18V120.43Z" fill="#7992E8"/>
<path d="M118.45 120.43H95.98C95.4829 120.43 95.08 120.833 95.08 121.33V132.31C95.08 132.807 95.4829 133.21 95.98 133.21H118.45C118.947 133.21 119.35 132.807 119.35 132.31V121.33C119.35 120.833 118.947 120.43 118.45 120.43Z" fill="#4E69C9"/>
<path d="M105.48 123H109C109.385 123 109.753 123.153 110.025 123.425C110.297 123.697 110.45 124.065 110.45 124.45V129.57C110.45 130.029 110.268 130.469 109.943 130.793C109.619 131.118 109.179 131.3 108.72 131.3H105.8C105.341 131.3 104.901 131.118 104.577 130.793C104.252 130.469 104.07 130.029 104.07 129.57V124.45C104.07 124.072 104.217 123.709 104.48 123.439C104.744 123.168 105.102 123.01 105.48 123Z" fill="#445CB0"/>
<path d="M111.05 125.54H103.39C102.683 125.54 102.11 126.113 102.11 126.82C102.11 127.527 102.683 128.1 103.39 128.1H111.05C111.757 128.1 112.33 127.527 112.33 126.82C112.33 126.113 111.757 125.54 111.05 125.54Z" fill="#7992E8"/>
<path d="M114.66 131.29C114.837 131.29 114.98 131.147 114.98 130.97C114.98 130.793 114.837 130.65 114.66 130.65C114.483 130.65 114.34 130.793 114.34 130.97C114.34 131.147 114.483 131.29 114.66 131.29Z" fill="#2C4496"/>
<path d="M115.62 131.29C115.797 131.29 115.94 131.147 115.94 130.97C115.94 130.793 115.797 130.65 115.62 130.65C115.443 130.65 115.3 130.793 115.3 130.97C115.3 131.147 115.443 131.29 115.62 131.29Z" fill="#2C4496"/>
<path d="M117.22 131.29C117.397 131.29 117.54 131.147 117.54 130.97C117.54 130.793 117.397 130.65 117.22 130.65C117.043 130.65 116.9 130.793 116.9 130.97C116.9 131.147 117.043 131.29 117.22 131.29Z" fill="#2C4496"/>
<path d="M108.49 126.18H105.94C105.587 126.18 105.3 126.467 105.3 126.82C105.3 127.174 105.587 127.46 105.94 127.46H108.49C108.843 127.46 109.13 127.174 109.13 126.82C109.13 126.467 108.843 126.18 108.49 126.18Z" fill="#445CB0"/>
<path d="M89.51 132.53L89.47 123.7L93.52 123.67L93.56 132.49L93.52 132.53H89.51Z" fill="#445CB0"/>
<path d="M92.88 124.35V131.85H90.15V124.35H92.88ZM93.52 122.99H89.52C89.4259 122.989 89.3325 123.006 89.2452 123.041C89.1579 123.076 89.0785 123.128 89.0115 123.194C88.9445 123.261 88.8913 123.339 88.855 123.426C88.8187 123.513 88.8 123.606 88.8 123.7V132.49C88.8 132.681 88.8758 132.864 89.0109 132.999C89.1459 133.134 89.329 133.21 89.52 133.21H93.52C93.7109 133.21 93.8941 133.134 94.0291 132.999C94.1641 132.864 94.24 132.681 94.24 132.49V123.7C94.24 123.606 94.2213 123.513 94.185 123.426C94.1487 123.339 94.0955 123.261 94.0285 123.194C93.9615 123.128 93.8821 123.076 93.7948 123.041C93.7075 123.006 93.6141 122.989 93.52 122.99Z" fill="#4E69C9"/>
<path d="M87.7 133.08H121.19C121.484 133.08 121.767 133.197 121.975 133.405C122.183 133.613 122.3 133.896 122.3 134.19V135.88H86.59V134.19C86.59 133.896 86.7069 133.613 86.9151 133.405C87.1232 133.197 87.4056 133.08 87.7 133.08Z" fill="#766D9B"/>
<path d="M87.7 133.08H121.19C121.484 133.08 121.767 133.197 121.975 133.405C122.183 133.613 122.3 133.896 122.3 134.19V135.88H86.59V134.19C86.59 133.896 86.7069 133.613 86.9151 133.405C87.1232 133.197 87.4056 133.08 87.7 133.08Z" fill="#445CB0"/>
<path d="M63.4 125.86C64.372 125.86 65.16 125.072 65.16 124.1C65.16 123.128 64.372 122.34 63.4 122.34C62.428 122.34 61.64 123.128 61.64 124.1C61.64 125.072 62.428 125.86 63.4 125.86Z" fill="#C2D6FF"/>
<path d="M63.4 125.05C63.9247 125.05 64.35 124.625 64.35 124.1C64.35 123.575 63.9247 123.15 63.4 123.15C62.8753 123.15 62.45 123.575 62.45 124.1C62.45 124.625 62.8753 125.05 63.4 125.05Z" fill="#DBE7FF"/>
<path d="M57.2 92.7001C56.7107 92.7595 56.2379 92.9148 55.8086 93.1571C55.3794 93.3994 55.0021 93.7239 54.6984 94.1121C54.3947 94.5004 54.1705 94.9447 54.0386 95.4196C53.9068 95.8946 53.8699 96.3908 53.93 96.8801L61.38 95.9801C61.2599 94.9911 60.7522 94.0903 59.9685 93.4753C59.1848 92.8604 58.1891 92.5815 57.2 92.7001Z" fill="white"/>
<path d="M41.6904 103.463L50.9822 102.335L52.081 111.389L42.7892 112.517C41.5886 112.662 40.3793 112.325 39.4273 111.579C38.4754 110.833 37.8587 109.74 37.713 108.539C37.5673 107.339 37.9044 106.129 38.6504 105.177C39.3963 104.225 40.4898 103.609 41.6904 103.463Z" fill="#9EB9F0"/>
<path d="M68.8508 95.8584L67.0937 96.0717C66.8415 96.1023 66.6618 96.3315 66.6924 96.5837C66.7231 96.8359 66.9523 97.0156 67.2045 96.9849L68.9616 96.7717C69.2138 96.7411 69.3935 96.5118 69.3629 96.2596C69.3322 96.0074 69.103 95.8278 68.8508 95.8584Z" fill="#DBE7FF"/>
<path d="M69.3667 96.3891L66.7261 96.7096C66.3478 96.7555 66.0784 97.0994 66.1243 97.4777L66.1255 97.4876C66.1714 97.8659 66.5153 98.1354 66.8936 98.0895L69.5342 97.769C69.9125 97.7231 70.182 97.3792 70.136 97.0009L70.1348 96.9909C70.0889 96.6126 69.745 96.3432 69.3667 96.3891Z" fill="#9EB9F0"/>
<path d="M61.73 98.0801L60.49 96.2001C60.3528 95.9976 60.1629 95.8366 59.9409 95.7343C59.7188 95.6321 59.4729 95.5926 59.23 95.6201L53.45 96.3201C53.2073 96.3517 52.9781 96.4496 52.7876 96.6031C52.597 96.7566 52.4525 96.9597 52.37 97.1901L51.62 99.3101L45.27 100.08C45.0711 100.102 44.8787 100.164 44.7038 100.261C44.529 100.359 44.3752 100.49 44.2514 100.647C44.1277 100.804 44.0364 100.984 43.9829 101.177C43.9295 101.37 43.9149 101.572 43.94 101.77L45.47 114.39C45.52 114.789 45.7255 115.153 46.0419 115.402C46.3582 115.651 46.7599 115.765 47.16 115.72L70 113C70.4013 112.95 70.7666 112.743 71.0158 112.425C71.2651 112.106 71.378 111.702 71.33 111.3L69.78 98.6401C69.73 98.2387 69.523 97.8734 69.2045 97.6242C68.8859 97.375 68.4816 97.262 68.08 97.3101L61.73 98.0801Z" fill="#0A2791"/>
<path d="M60.37 98.25L60.2 96.83C60.155 96.4837 59.9756 96.169 59.7006 95.9539C59.4255 95.7387 59.0769 95.6403 58.73 95.68L52.09 96.49C51.8481 96.5197 51.6192 96.6158 51.4286 96.7675C51.238 96.9193 51.0931 97.1209 51.01 97.35L50.26 99.47L43.91 100.24C43.7107 100.264 43.518 100.326 43.3431 100.425C43.1682 100.523 43.0145 100.655 42.8908 100.813C42.7672 100.971 42.6761 101.152 42.6227 101.345C42.5694 101.539 42.5548 101.741 42.58 101.94L44.11 114.55C44.1335 114.748 44.1959 114.94 44.2936 115.114C44.3913 115.288 44.5224 115.442 44.6793 115.565C44.8363 115.689 45.0161 115.78 45.2083 115.834C45.4006 115.888 45.6017 115.904 45.8 115.88L68.62 113.12C69.0202 113.068 69.3839 112.86 69.6326 112.542C69.8814 112.224 69.9953 111.821 69.95 111.42L68.42 98.81C68.37 98.4086 68.163 98.0434 67.8445 97.7941C67.5259 97.5449 67.1216 97.432 66.72 97.48L60.37 98.25Z" fill="#B8CFFF"/>
<path d="M51.7032 98.5313L49.0626 98.8518C48.6843 98.8977 48.4148 99.2416 48.4608 99.6199L48.462 99.6298C48.5079 100.008 48.8518 100.278 49.2301 100.232L51.8707 99.9112C52.249 99.8653 52.5184 99.5214 52.4725 99.1431L52.4713 99.1332C52.4254 98.7549 52.0815 98.4854 51.7032 98.5313Z" fill="#9EB9F0"/>
<path d="M64.45 97.75L63.21 95.87C63.0771 95.6755 62.8953 95.5195 62.6828 95.4177C62.4704 95.3158 62.2349 95.2718 62 95.29L56.22 95.99C55.9774 96.0217 55.7482 96.1196 55.5576 96.2731C55.3671 96.4266 55.2226 96.6297 55.14 96.86L54.34 99L48 99.75C47.8011 99.7723 47.6087 99.8339 47.4338 99.9312C47.259 100.028 47.1052 100.16 46.9815 100.317C46.8577 100.474 46.7665 100.654 46.713 100.847C46.6595 101.04 46.6449 101.242 46.67 101.44L48.2 114.06C48.2501 114.459 48.4556 114.823 48.7719 115.072C49.0883 115.321 49.49 115.435 49.89 115.39L72.71 112.62C73.1114 112.57 73.4766 112.363 73.7259 112.045C73.9751 111.726 74.0881 111.322 74.04 110.92L72.5 98.31C72.4452 97.9123 72.2362 97.552 71.9182 97.307C71.6002 97.0619 71.1986 96.9517 70.8 97L64.45 97.75Z" fill="#DBE7FF"/>
<path d="M57.87 98.3001C57.7641 98.3008 57.6617 98.2624 57.5824 98.1923C57.503 98.1222 57.4523 98.0252 57.44 97.9201L57.34 97.0601C57.3309 96.9461 57.3629 96.8326 57.43 96.7401C57.5022 96.651 57.6062 96.5936 57.72 96.5801L61.28 96.1501C61.3926 96.1388 61.5051 96.1724 61.593 96.2436C61.681 96.3147 61.7374 96.4176 61.75 96.5301L61.86 97.3901C61.867 97.4466 61.8626 97.504 61.8472 97.5588C61.8319 97.6136 61.8057 97.6649 61.7704 97.7095C61.735 97.7542 61.6911 97.7914 61.6413 97.8189C61.5915 97.8465 61.5366 97.8639 61.48 97.8701L57.87 98.3001Z" fill="#051245"/>
<path d="M61.33 96.3201C61.393 96.3199 61.4537 96.3434 61.5 96.3861C61.5464 96.4287 61.5749 96.4873 61.58 96.5501L61.69 97.4101C61.6956 97.4442 61.6931 97.4792 61.6827 97.5122C61.6723 97.5453 61.6542 97.5753 61.63 97.6001C61.588 97.6536 61.5272 97.6893 61.46 97.7001L57.87 98.1301C57.8065 98.1284 57.7457 98.1044 57.6981 98.0624C57.6506 98.0203 57.6194 97.9628 57.61 97.9001L57.51 97.0401C57.5012 96.9726 57.5191 96.9044 57.56 96.8501C57.6073 96.7978 57.6706 96.7626 57.74 96.7501L61.29 96.3201H61.33ZM61.29 95.9701H61.21L57.65 96.4001C57.4922 96.42 57.3488 96.5018 57.2513 96.6274C57.1538 96.7531 57.1102 96.9123 57.13 97.0701L57.23 97.9401C57.2493 98.0859 57.3206 98.2199 57.4309 98.3173C57.5411 98.4146 57.6829 98.4689 57.83 98.4701H58L61.5 98.0001C61.6585 97.98 61.8027 97.8986 61.9018 97.7733C62.0009 97.648 62.047 97.4889 62.03 97.3301L61.93 96.4701C61.9129 96.3224 61.8426 96.186 61.7321 96.0866C61.6216 95.9872 61.4786 95.9315 61.33 95.9301L61.29 95.9701Z" fill="#0F3CE0"/>
<path d="M69.4736 98.5824L49.9469 100.952C49.2287 101.039 48.7171 101.692 48.8043 102.411L50.0332 112.536C50.1204 113.254 50.7733 113.766 51.4915 113.679L71.0182 111.309C71.7364 111.222 72.248 110.569 72.1608 109.851L70.9319 99.725C70.8447 99.0068 70.1918 98.4952 69.4736 98.5824Z" fill="#FFE1B5"/>
<path d="M58.33 111.78C60.274 111.78 61.85 110.204 61.85 108.26C61.85 106.316 60.274 104.74 58.33 104.74C56.386 104.74 54.81 106.316 54.81 108.26C54.81 110.204 56.386 111.78 58.33 111.78Z" fill="#FFFFEB"/>
<path d="M49.8022 108.952L71.6419 106.301L72.0323 109.518C72.0799 109.91 71.9697 110.305 71.726 110.616C71.4823 110.927 71.125 111.129 70.7327 111.176L51.8711 113.466C51.6755 113.492 51.4766 113.479 51.286 113.428C51.0953 113.377 50.9167 113.289 50.7606 113.168C50.6044 113.047 50.4738 112.897 50.3763 112.725C50.2788 112.553 50.2163 112.364 50.1926 112.168L49.8022 108.952Z" fill="#5B90FF"/>
<path d="M51.67 104.87L57.76 104.14C57.6405 103.997 57.4836 103.891 57.3069 103.833C57.1303 103.774 56.9409 103.767 56.76 103.81C56.76 103.81 56.53 102.95 55.87 103.44C55.87 103.44 55.29 101.8 53.68 103.93C52.9145 103.975 52.1952 104.311 51.67 104.87Z" fill="white"/>
<path d="M60.05 101.49C60.3461 101.282 60.7021 101.178 61.0635 101.192C61.4249 101.207 61.7715 101.339 62.05 101.57H62.18C62.4516 101.541 62.7261 101.579 62.98 101.68H63.08L61.92 101.82L61.46 101.88L58.24 102.27C58.24 102.27 59.26 100.93 60.05 101.49Z" fill="white"/>
<path d="M65.277 99.3569L69.8137 98.8063C70.0402 98.7788 70.2682 98.8424 70.4478 98.9831C70.6273 99.1238 70.7436 99.33 70.7711 99.5564L72.0639 110.208C72.0914 110.435 72.0278 110.663 71.8871 110.842C71.7464 111.022 71.5402 111.138 71.3138 111.166L66.7771 111.716L65.277 99.3569Z" fill="#9EB9F0"/>
<path d="M66.1645 106.981L71.5549 106.326L72.0682 110.555C72.0767 110.626 72.0713 110.697 72.0523 110.766C72.0332 110.834 72.0009 110.898 71.9572 110.954C71.9135 111.009 71.8591 111.056 71.7974 111.091C71.7356 111.126 71.6676 111.148 71.5972 111.157L66.7428 111.746L66.1657 106.991L66.1645 106.981Z" fill="#769EF0"/>
<path d="M69.62 98.9301C69.8611 98.9274 70.0952 99.0119 70.2789 99.1681C70.4627 99.3243 70.5838 99.5416 70.62 99.7801L71.85 109.89C71.8814 110.149 71.81 110.411 71.6512 110.618C71.4923 110.826 71.2586 110.963 71 111L51.49 113.37H51.37C51.1288 113.373 50.8948 113.288 50.711 113.132C50.5273 112.976 50.4061 112.759 50.37 112.52L49.14 102.41C49.1087 102.149 49.1815 101.886 49.3424 101.679C49.5033 101.471 49.7395 101.335 50 101.3L69.5 98.9301H69.62ZM69.62 98.5801H69.46L49.94 101C49.7687 101.02 49.6031 101.073 49.4528 101.158C49.3025 101.242 49.1704 101.356 49.0644 101.491C48.9583 101.627 48.8803 101.783 48.8349 101.949C48.7895 102.115 48.7776 102.289 48.8 102.46L50 112.53C50.0368 112.849 50.1895 113.144 50.4292 113.358C50.6689 113.571 50.9788 113.69 51.3 113.69H51.46L71 111.31C71.1716 111.29 71.3375 111.237 71.4884 111.152C71.6392 111.068 71.7718 110.955 71.8787 110.819C71.9856 110.684 72.0646 110.528 72.1111 110.362C72.1577 110.195 72.1709 110.022 72.15 109.85L70.92 99.7301C70.8809 99.4128 70.7272 99.1207 70.4878 98.9089C70.2483 98.6971 69.9397 98.5801 69.62 98.5801Z" fill="#0F3CE0"/>
<path d="M57.91 92.6801C57.8646 93.0115 57.903 93.349 58.0218 93.6617C58.1406 93.9744 58.336 94.2524 58.59 94.4701C58.8948 94.7866 59.3044 94.9815 59.7423 95.0183C60.1802 95.0551 60.6166 94.9313 60.97 94.6701C60.6709 94.1058 60.233 93.627 59.6977 93.2788C59.1623 92.9307 58.5471 92.7246 57.91 92.6801Z" fill="#DBE7FF"/>
<path d="M59.98 94.07C61.4436 94.07 62.63 92.8836 62.63 91.42C62.63 89.9565 61.4436 88.77 59.98 88.77C58.5165 88.77 57.33 89.9565 57.33 91.42C57.33 92.8836 58.5165 94.07 59.98 94.07Z" fill="white"/>
<path d="M61.07 92.52C61.5118 92.52 61.87 92.1619 61.87 91.72C61.87 91.2782 61.5118 90.92 61.07 90.92C60.6282 90.92 60.27 91.2782 60.27 91.72C60.27 92.1619 60.6282 92.52 61.07 92.52Z" fill="#051245" stroke="#9EB9F0" stroke-width="0.57" stroke-miterlimit="10"/>
<path d="M390.95 211.14H42.16C32.8098 211.14 25.23 218.72 25.23 228.07C25.23 237.42 32.8098 245 42.16 245H390.95C400.3 245 407.88 237.42 407.88 228.07C407.88 218.72 400.3 211.14 390.95 211.14Z" fill="#FFBB69"/>
<path d="M25.24 227.75C25.24 227.86 25.24 227.96 25.24 228.07C25.24 232.558 27.0223 236.863 30.1951 240.038C33.368 243.212 37.6716 244.997 42.16 245H391C395.49 245 399.796 243.216 402.971 240.041C406.146 236.866 407.93 232.56 407.93 228.07C407.93 227.96 407.93 227.86 407.93 227.75H25.24Z" fill="#FFA840"/>
<path opacity="0.34" d="M213.04 211.14H42.48C33.1298 211.14 25.55 218.72 25.55 228.07C25.55 237.42 33.1298 245 42.48 245H213.04C222.39 245 229.97 237.42 229.97 228.07C229.97 218.72 222.39 211.14 213.04 211.14Z" fill="#FFD9AB"/>
<path d="M139.26 226.47C139.26 226.47 161.62 255.22 183.33 227.14C183.33 227.14 202.82 244.68 229.65 226.79C229.65 226.79 262.59 253.3 306.65 228.07C306.65 228.07 320.65 240.53 333.46 226.47" stroke="#E89027" stroke-width="1.92" stroke-miterlimit="10"/>
<path d="M412.98 223.28H22.04C20.8029 223.28 19.8 224.281 19.8 225.515C19.8 226.749 20.8029 227.75 22.04 227.75H412.98C414.217 227.75 415.22 226.749 415.22 225.515C415.22 224.281 414.217 223.28 412.98 223.28Z" fill="#E88E23"/>
<path opacity="0.5" d="M65.47 211.14C65.47 212.997 66.2075 214.777 67.5202 216.09C68.833 217.403 70.6135 218.14 72.47 218.14H223.58C225.436 218.14 227.217 217.403 228.53 216.09C229.842 214.777 230.58 212.997 230.58 211.14" stroke="#FFA840" stroke-width="1.92" stroke-miterlimit="10"/>
<path d="M51.74 137C51.7156 137.654 51.9515 138.29 52.3958 138.77C52.84 139.25 53.4565 139.534 54.11 139.56H154.11C154.435 139.55 154.755 139.475 155.052 139.341C155.348 139.206 155.615 139.015 155.837 138.777C156.059 138.539 156.232 138.26 156.346 137.955C156.46 137.65 156.512 137.325 156.5 137C156.524 136.349 156.29 135.715 155.847 135.237C155.405 134.759 154.791 134.476 154.14 134.45H54.14C53.8143 134.458 53.4934 134.53 53.1959 134.663C52.8984 134.796 52.6302 134.986 52.4069 135.223C52.1837 135.461 52.0097 135.74 51.8952 136.045C51.7808 136.35 51.728 136.675 51.74 137Z" fill="#C7DDFF"/>
<path d="M159.83 175.05C159.83 175.05 159.63 172.71 162.37 172.79H162.72C163.674 172.53 164.677 172.509 165.64 172.73C169.89 173.57 170.49 176.36 170.49 176.36C170.452 177.947 170.291 179.528 170.01 181.09C169.52 183.87 167.95 185.69 162.62 186.09C157.29 186.49 156.02 182.51 155.95 178.45C155.91 176.1 159.83 175.05 159.83 175.05Z" fill="#86D7C6"/>
<path d="M160.18 180.92C159.215 180.99 158.25 180.771 157.41 180.29C157.03 180 156.78 180.29 157.16 181.14C157.54 181.99 157.88 182.67 158.43 182.77C158.97 182.861 159.524 182.743 159.98 182.44C160.5 182.14 161.58 180.87 160.18 180.92Z" fill="#64C3C1"/>
<path d="M166.56 174.33C165.385 173.591 164.083 173.076 162.72 172.81C163.674 172.55 164.677 172.529 165.64 172.75C169.89 173.59 170.49 176.38 170.49 176.38C170.452 177.967 170.291 179.548 170.01 181.11C169.9 181.79 169.684 182.448 169.37 183.06C166.68 183.84 163.55 184.6 163.59 183.9C163.555 182.618 163.903 181.354 164.59 180.27C165.35 179.37 166.42 177.96 167.2 176.88C167.98 175.8 167.52 175 166.56 174.33Z" fill="#64C3C1"/>
<path d="M169.52 175.65L170.08 175.46C170.265 175.743 170.404 176.053 170.49 176.38C170.457 177.804 170.324 179.225 170.09 180.63L169.4 179.53L169.52 175.65Z" fill="#4895A3"/>
<path d="M170.42 179.59L172.83 179.93C172.754 179.413 172.825 178.886 173.033 178.407C173.242 177.928 173.58 177.517 174.01 177.22C173.727 177.087 173.474 176.898 173.267 176.665C173.059 176.431 172.901 176.158 172.802 175.862C172.702 175.566 172.665 175.252 172.69 174.941C172.716 174.629 172.804 174.326 172.95 174.05L170.19 175C169.936 175.084 169.711 175.241 169.544 175.45C169.378 175.66 169.275 175.913 169.25 176.18C169.212 176.586 169.288 176.995 169.47 177.36C169.423 177.431 169.38 177.505 169.34 177.58C169.241 177.78 169.191 178.001 169.195 178.224C169.199 178.448 169.256 178.667 169.362 178.864C169.467 179.06 169.618 179.229 169.803 179.355C169.987 179.482 170.198 179.562 170.42 179.59Z" fill="#86D7C6"/>
<path d="M173.23 179.89C173.226 179.919 173.217 179.947 173.202 179.972C173.188 179.998 173.168 180.02 173.145 180.038C173.122 180.055 173.095 180.068 173.067 180.075C173.038 180.083 173.009 180.084 172.98 180.08L170.07 179.65C169.744 179.608 169.448 179.439 169.244 179.182C169.041 178.924 168.946 178.597 168.98 178.27C169.036 177.95 169.155 177.644 169.33 177.37C169.114 176.934 169.041 176.44 169.12 175.96C169.16 175.733 169.26 175.521 169.41 175.345C169.559 175.169 169.752 175.036 169.97 174.96L172.9 173.96C172.926 173.951 172.954 173.947 172.982 173.949C173.009 173.952 173.036 173.96 173.061 173.973C173.085 173.986 173.107 174.004 173.124 174.026C173.141 174.048 173.153 174.073 173.16 174.1C173.17 174.149 173.163 174.2 173.139 174.244C173.115 174.288 173.077 174.322 173.03 174.34C172.44 174.55 170.46 175.27 170.08 175.47C169.981 175.536 169.898 175.623 169.836 175.725C169.775 175.827 169.736 175.941 169.724 176.06C169.711 176.178 169.725 176.298 169.764 176.41C169.803 176.522 169.867 176.625 169.95 176.71C170.358 176.993 170.857 177.115 171.35 177.05L174.11 177.12C174.144 177.12 174.178 177.127 174.209 177.141C174.241 177.155 174.269 177.175 174.291 177.201C174.314 177.226 174.331 177.256 174.341 177.289C174.351 177.322 174.354 177.356 174.35 177.39C174.345 177.45 174.317 177.506 174.273 177.547C174.229 177.588 174.17 177.61 174.11 177.61H171.26C170.7 177.61 170.03 177.79 169.83 178.19C169.783 178.295 169.762 178.41 169.769 178.526C169.776 178.641 169.811 178.752 169.871 178.851C169.932 178.949 170.015 179.032 170.114 179.091C170.213 179.15 170.325 179.184 170.44 179.19C170.93 179.29 172.44 179.54 173.05 179.64C173.078 179.644 173.104 179.653 173.128 179.667C173.153 179.681 173.174 179.7 173.19 179.722C173.207 179.745 173.219 179.77 173.226 179.797C173.233 179.824 173.234 179.852 173.23 179.88V179.89Z" fill="#64C3C1"/>
<path d="M151.42 188.77C151.85 190.77 153.65 190.71 154.72 190.71H175C175 190.71 175.57 187.71 170.88 182.29L171.06 181.02C171.082 180.853 171.041 180.683 170.945 180.545C170.848 180.406 170.704 180.308 170.54 180.27L170.14 180.18L169.98 181.11C167.207 181.64 164.393 181.928 161.57 181.97C161.481 181.979 161.398 182.022 161.34 182.09C161.08 182.45 160.24 183.58 159.62 184.55C158.919 183.748 158.355 182.835 157.95 181.85C157.934 181.81 157.909 181.776 157.875 181.749C157.842 181.723 157.802 181.706 157.76 181.7C157.24 181.602 156.726 181.475 156.22 181.32V181.12L155.97 181.21C155.921 181.228 155.876 181.258 155.841 181.297C155.805 181.336 155.779 181.383 155.766 181.434C155.752 181.485 155.751 181.538 155.762 181.59C155.773 181.641 155.796 181.689 155.83 181.73L156.7 182.78C156.7 182.78 156.53 182.9 156.23 183.07C154.8 183.9 154.5 184.41 154.38 185.07C153.38 185.17 153 185.07 152.65 185.47C152.51 185.62 152.49 185.77 152.52 186.29C152 187 151.26 188 151.42 188.77Z" fill="#3C5293"/>
<path d="M155.88 186.83L156.02 187.02C155.891 186.619 155.824 186.201 155.82 185.78C155.922 184.735 156.217 183.718 156.69 182.78L155.82 181.73L157.39 182.32L159.61 186.1L162.1 182.67L165.1 182.39C167.34 182.18 170.41 182.04 171.1 181.02L170.92 182.29C175.61 187.68 175.04 190.71 175.04 190.71H154.72C153.67 190.71 151.91 190.79 151.44 188.85L155.88 186.83Z" fill="#334489"/>
<path d="M157.632 189.791C158.39 189.57 158.67 188.243 158.257 186.828C157.844 185.412 156.895 184.444 156.136 184.665C155.378 184.886 155.098 186.213 155.511 187.628C155.924 189.044 156.873 190.012 157.632 189.791Z" fill="#262537"/>
<path d="M154.64 187.48C154.598 186.868 154.725 186.256 155.007 185.711C155.29 185.166 155.716 184.709 156.24 184.39C156.764 184.144 157.349 184.061 157.92 184.15C158.66 184.15 158.71 184.36 158.99 185.03C159.053 185.192 159.104 185.36 159.14 185.53C159.14 185.53 161.73 185.61 162.06 186.59C162.65 188.32 161.92 188.47 161.15 188.29L160.02 188.05C160.113 188.438 160.176 188.833 160.21 189.23C160.28 189.8 159.96 190.14 158.92 190.13H157.92C156.47 190.15 154.78 189.91 154.64 187.48Z" fill="#86D7C6"/>
<path d="M175.42 184.75C175.42 184.75 178.08 183.48 178.66 185.8C178.67 185.848 178.665 185.898 178.648 185.944C178.63 185.991 178.6 186.031 178.56 186.06L178.18 186.34C177.732 186.66 177.372 187.086 177.13 187.58C176.82 188.22 175.34 189.93 174.81 188.39C174.594 187.781 174.537 187.128 174.643 186.491C174.75 185.854 175.017 185.255 175.42 184.75Z" fill="#60BAB3"/>
<path d="M178.9 178.65L179.55 179.31C179.588 179.342 179.636 179.359 179.685 179.359C179.734 179.359 179.782 179.342 179.82 179.31L181.47 178.09C181.493 178.071 181.512 178.048 181.524 178.021C181.537 177.994 181.544 177.965 181.544 177.935C181.544 177.905 181.537 177.876 181.524 177.849C181.512 177.822 181.493 177.799 181.47 177.78L180.39 176.69C180.369 176.668 180.345 176.651 180.317 176.639C180.29 176.627 180.26 176.621 180.23 176.621C180.2 176.621 180.17 176.627 180.143 176.639C180.115 176.651 180.091 176.668 180.07 176.69L178.86 178.33C178.837 178.352 178.82 178.378 178.809 178.408C178.799 178.437 178.795 178.469 178.799 178.5C178.803 178.531 178.814 178.561 178.832 178.587C178.849 178.613 178.873 178.635 178.9 178.65Z" fill="#BFB2FE"/>
<path d="M177.1 179.3L179.02 177.37C179.058 177.332 179.103 177.302 179.153 177.281C179.203 177.26 179.256 177.25 179.31 177.25C179.364 177.25 179.417 177.26 179.467 177.281C179.517 177.302 179.562 177.332 179.6 177.37L180.83 178.6C180.868 178.638 180.898 178.683 180.919 178.733C180.94 178.783 180.95 178.836 180.95 178.89C180.95 178.944 180.94 178.997 180.919 179.047C180.898 179.097 180.868 179.142 180.83 179.18L178.91 181.11C178.004 182.003 177.319 183.096 176.91 184.3C176.504 185.509 175.818 186.605 174.91 187.5L169.68 192.73C169.642 192.768 169.597 192.798 169.547 192.819C169.497 192.84 169.444 192.85 169.39 192.85C169.336 192.85 169.283 192.84 169.233 192.819C169.183 192.798 169.138 192.768 169.1 192.73L165.44 189.06C165.399 189.023 165.367 188.979 165.345 188.929C165.322 188.879 165.311 188.825 165.311 188.77C165.311 188.715 165.322 188.661 165.345 188.611C165.367 188.561 165.399 188.517 165.44 188.48L170.66 183.25C171.559 182.347 172.654 181.663 173.86 181.25C175.077 180.862 176.187 180.194 177.1 179.3Z" fill="#E5E0FE"/>
<path d="M170.49 191.77C172.32 193.25 173.58 190.77 173.58 190.77C173.58 190.77 175.18 191.99 176.31 190.77C177.71 189.27 176.31 188.27 175.25 187.64C174.19 187.01 173.8 186.82 173.25 187.01C172.707 187.234 172.253 187.631 171.96 188.14C171.85 188.322 171.757 188.512 171.68 188.71C171.225 188.474 170.706 188.39 170.2 188.47C169.904 188.542 169.638 188.704 169.438 188.933C169.237 189.162 169.112 189.447 169.08 189.75C169 190.6 169.4 190.89 170.49 191.77Z" fill="#67C8C1"/>
<path d="M165.36 177.07C165.36 177.07 161.31 175.5 158.66 175.94C158.66 175.94 155.76 179.23 158.33 179.57C159.614 179.704 160.912 179.548 162.128 179.116C163.344 178.683 164.449 177.984 165.36 177.07Z" fill="#471D33"/>
<path d="M158.42 179.58H158.33C155.76 179.24 158.66 175.95 158.66 175.95C159.847 175.811 161.049 175.885 162.21 176.17C161.28 176.209 160.393 176.571 159.701 177.193C159.01 177.815 158.556 178.659 158.42 179.58Z" fill="#52223B"/>
<path d="M166.3 176.5C165.536 176.11 164.815 175.641 164.15 175.1C163.97 174.94 163.75 174.85 163.85 175.1C164.08 175.544 164.419 175.922 164.835 176.199C165.252 176.475 165.732 176.641 166.23 176.68C166.34 176.71 166.49 176.61 166.3 176.5Z" fill="#482E41"/>
<path d="M160.88 174.79L159.88 175.05C160.135 175.211 160.441 175.274 160.739 175.226C161.037 175.178 161.308 175.023 161.5 174.79C161.56 174.68 161.44 174.66 160.88 174.79Z" fill="#482E41"/>
<path d="M162.53 177.87C163.15 177.99 163.96 177.35 164.34 177.02C163.74 176.87 162.91 176.67 162.03 176.5C162 177 162 177.77 162.53 177.87Z" fill="#F3E4C0"/>
<path d="M159.42 177.83C159.93 177.83 160.62 176.92 160.83 176.32C160.207 176.229 159.579 176.179 158.95 176.17C158.83 176.82 159.16 177.83 159.42 177.83Z" fill="#F3E4C0"/>
<path d="M157.92 179.48C158.054 179.523 158.191 179.553 158.33 179.57C159.507 179.73 160.704 179.617 161.83 179.24C161.264 178.775 160.562 178.509 159.83 178.48C159.449 178.447 159.067 178.523 158.729 178.701C158.39 178.878 158.11 179.148 157.92 179.48Z" fill="#D47299"/>
<path d="M172 188.17L172.07 188.26L172.42 188.61C172.5 188.69 172.595 188.754 172.7 188.798C172.804 188.841 172.917 188.864 173.03 188.864C173.143 188.864 173.256 188.841 173.36 188.798C173.465 188.754 173.56 188.69 173.64 188.61C173.799 188.449 173.889 188.232 173.889 188.005C173.889 187.778 173.799 187.561 173.64 187.4L173.29 187.04C172.747 187.264 172.293 187.661 172 188.17Z" fill="#E2D4B2"/>
<path d="M169.1 189.78L169.46 190.14C169.539 190.225 169.634 190.294 169.74 190.342C169.846 190.389 169.96 190.415 170.077 190.417C170.193 190.419 170.308 190.398 170.416 190.354C170.523 190.31 170.621 190.245 170.703 190.163C170.785 190.08 170.849 189.982 170.892 189.874C170.935 189.766 170.955 189.651 170.952 189.534C170.949 189.418 170.922 189.304 170.874 189.198C170.825 189.093 170.756 188.998 170.67 188.92L170.32 188.57C170.28 188.525 170.233 188.488 170.18 188.46C169.886 188.542 169.624 188.713 169.431 188.949C169.237 189.185 169.122 189.476 169.1 189.78Z" fill="#E2D4B2"/>
<path d="M157 185.34L159 184.9L159.06 185.03C159.123 185.192 159.174 185.36 159.21 185.53L157 185.34Z" fill="#60BAB3"/>
<path d="M161 187C161.028 186.898 161.077 186.803 161.144 186.72C161.21 186.638 161.293 186.57 161.386 186.52C161.48 186.471 161.582 186.441 161.688 186.432C161.793 186.423 161.9 186.436 162 186.47H162.13C162.13 186.47 162.13 186.47 162.13 186.53C162.41 187.36 162.39 187.82 162.21 188.06C162.138 188.08 162.062 188.08 161.99 188.06L161.56 187.94C161.362 187.888 161.192 187.761 161.088 187.585C160.983 187.409 160.951 187.199 161 187Z" fill="#F3E4C0"/>
<path d="M170 181.11C170.169 181.076 170.331 181.015 170.48 180.93C170.521 180.906 170.554 180.871 170.575 180.828C170.596 180.785 170.604 180.737 170.598 180.69C170.591 180.643 170.571 180.599 170.539 180.563C170.508 180.527 170.466 180.502 170.42 180.49L170.12 180.41L170 181.11Z" fill="#273C7D"/>
<path d="M160 188.05C159.342 187.894 158.674 187.783 158 187.72C157.44 187.67 157.41 187.66 157.58 188.05C157.66 188.22 157.91 188.22 158.74 188.21C159.169 188.208 159.598 188.245 160.02 188.32L160 188.05Z" fill="#5DB4AD"/>
<path d="M156.22 184.41C156.12 184.59 156.01 184.79 155.94 184.9C155.87 185.01 156.77 185.18 156.32 185.33C155.56 185.77 155.32 186.01 155.52 186.64C155.72 187.27 155.96 187.39 155.65 187.69C155.467 187.877 155.364 188.128 155.364 188.39C155.364 188.652 155.467 188.903 155.65 189.09C155.95 189.39 156.09 189.81 155.92 189.81C155.785 189.753 155.657 189.679 155.54 189.59C155.393 189.454 155.253 189.31 155.12 189.16C154.784 188.663 154.6 188.08 154.59 187.48C154.554 186.868 154.687 186.258 154.974 185.716C155.262 185.175 155.693 184.723 156.22 184.41Z" fill="#9CE7D6"/>
<path d="M170.7 183.25C171.599 182.347 172.694 181.663 173.9 181.25C175.108 180.842 176.204 180.157 177.1 179.25L179.02 177.32C179.058 177.282 179.103 177.252 179.153 177.231C179.203 177.21 179.256 177.2 179.31 177.2C179.364 177.2 179.417 177.21 179.467 177.231C179.517 177.252 179.562 177.282 179.6 177.32L179.93 177.65C178.713 178.962 177.374 180.154 175.93 181.21C173.931 182.178 172.098 183.457 170.5 185C169.12 186.45 167.13 188.41 165.99 189.52L165.49 189.01C165.449 188.973 165.417 188.929 165.394 188.879C165.372 188.829 165.361 188.775 165.361 188.72C165.361 188.665 165.372 188.611 165.394 188.561C165.417 188.511 165.449 188.467 165.49 188.43L170.7 183.25Z" fill="#F8F6FE"/>
<path opacity="0.48" d="M54.11 139.6H154.11C154.439 139.59 154.762 139.514 155.061 139.377C155.36 139.24 155.629 139.045 155.852 138.803C156.075 138.561 156.247 138.276 156.358 137.967C156.469 137.657 156.517 137.329 156.5 137H51.74C51.7225 137.327 51.7702 137.654 51.8802 137.962C51.9903 138.271 52.1605 138.554 52.381 138.796C52.6015 139.038 52.868 139.233 53.1648 139.371C53.4616 139.51 53.7829 139.587 54.11 139.6Z" fill="#355ED3"/>
<path d="M392.87 235.42C375.62 246.28 368.59 231.58 368.59 231.58C365.07 235.93 360 238.87 354.76 240.86C352.159 241.841 349.4 242.339 346.62 242.33L78.16 241.92C74.989 241.922 71.8327 241.488 68.78 240.63C61.14 238.45 54.06 235.32 51.78 230.95C51.78 230.95 45.38 247.56 31.97 235.42C31.97 235.42 12.8 245.64 0.0299988 232.86C0.0299988 232.86 1.22 243 7.03 244.86V245H418.43C424.82 243.72 428.01 232.86 428.01 232.86C415.22 245.64 392.87 235.42 392.87 235.42Z" fill="#7992E8"/>
</g>
<defs>
<clipPath id="clip0">
<rect width="428" height="245" fill="white"/>
</clipPath>
</defs>
</svg>
