<svg width="169" height="120" viewBox="0 0 169 120" fill="none" xmlns="http://www.w3.org/2000/svg">
<path d="M122.889 77.1111C101.681 77.1111 84.4888 59.9188 84.4888 38.7111C84.4888 17.5034 101.681 0.311096 122.889 0.311096C144.097 0.311096 161.289 17.5034 161.289 38.7111C161.289 59.9188 144.097 77.1111 122.889 77.1111Z" fill="#5865F2"/>
<path d="M122.889 0.311096L158.089 54.0444C155.102 60.8958 150.18 66.7265 143.928 70.8215C137.675 74.9165 130.363 77.0978 122.889 77.0978C115.415 77.0978 108.103 74.9165 101.85 70.8215C95.5976 66.7265 90.676 60.8958 87.6889 54.0444L122.889 0.311096Z" fill="url(#paint0_linear)"/>
<path d="M139.866 73.1555C134.585 75.7587 128.776 77.1126 122.889 77.1126C117.001 77.1126 111.192 75.7587 105.911 73.1555V64.3111H139.866V73.1555Z" fill="#221EA6"/>
<path d="M104.8 65.8222C104.8 67.5555 112.933 69.5111 122.889 69.5111C132.844 69.5111 140.978 67.5555 140.978 65.8222V64.3111H104.8V65.8222Z" fill="#312CC7"/>
<path d="M122.889 67.4666C112.899 67.4666 104.8 66.0538 104.8 64.3111C104.8 62.5683 112.899 61.1555 122.889 61.1555C132.879 61.1555 140.978 62.5683 140.978 64.3111C140.978 66.0538 132.879 67.4666 122.889 67.4666Z" fill="#FFD73B"/>
<path d="M139.822 61.2889L140.933 64.0444H136.533V61.2889H139.822Z" fill="#FFD73B"/>
<path d="M105.955 61.2889L104.889 64.0444H109.244V61.2889H105.955Z" fill="#FFD73B"/>
<path d="M122.889 64.4444C113.512 64.4444 105.911 63.1311 105.911 61.5111C105.911 59.8911 113.512 58.5778 122.889 58.5778C132.265 58.5778 139.866 59.8911 139.866 61.5111C139.866 63.1311 132.265 64.4444 122.889 64.4444Z" fill="white"/>
<path d="M122.889 62.6222C119.231 62.6222 116.267 61.9058 116.267 61.0222C116.267 60.1385 119.231 59.4222 122.889 59.4222C126.546 59.4222 129.511 60.1385 129.511 61.0222C129.511 61.9058 126.546 62.6222 122.889 62.6222Z" fill="#FF78B9"/>
<path d="M108.311 33.9555C107.2 35.3778 107.333 37.1555 108.622 37.8667C109.911 38.5778 111.822 37.9555 112.844 36.4889C113.866 35.0222 113.689 33.4222 112.489 32.7555C111.289 32.0889 109.422 32.5778 108.311 33.9555Z" fill="#242145"/>
<path d="M104.355 37.5111C103.155 39.0666 103.555 40.9778 105.067 41.4666C106.578 41.9555 108.4 40.9333 109.289 39.2889C110.178 37.6444 109.733 36.0889 108.4 35.6889C107.067 35.2889 105.467 36 104.355 37.5111Z" fill="#242145"/>
<path d="M122.889 55.6C114.617 55.6 107.911 49.6105 107.911 42.2222C107.911 34.8339 114.617 28.8444 122.889 28.8444C131.161 28.8444 137.866 34.8339 137.866 42.2222C137.866 49.6105 131.161 55.6 122.889 55.6Z" fill="white"/>
<path d="M113.378 37.1556C113.273 40.8552 113.601 44.5543 114.355 48.1778H113.378C112.372 44.4744 112.012 40.6257 112.311 36.8C112.489 34.6667 113.378 31.0667 115.511 30.1333L116.622 29.7333C114.267 30.5333 113.467 34.2222 113.378 37.1556Z" fill="#FFD73B"/>
<path d="M127.867 38.8889C127.2 43.4222 128.044 49.8666 128.044 49.8666H126.622C126.021 46.2332 126.006 42.527 126.578 38.8889C127.822 31.2444 131.467 30.7111 132.755 31.4222L133.289 31.8222C131.467 30.4889 128.533 34.3555 127.867 38.8889Z" fill="#FFD73B"/>
<path d="M115.333 57.3333C115.333 59.0222 116.711 61.5555 122.889 61.5555C129.067 61.5555 130.444 59.0222 130.444 57.3333C130.444 55.6444 127.067 54.2667 122.889 54.2667C118.711 54.2667 115.333 55.0667 115.333 57.3333Z" fill="#3442D9"/>
<path d="M114.444 53.3778C114.444 55.0667 115.955 57.6 122.889 57.6C129.822 57.6 131.378 55.0667 131.378 53.3778C131.378 51.6889 127.555 50.3111 122.889 50.3111C118.222 50.3111 114.444 51.2444 114.444 53.3778Z" fill="#312CC7"/>
<path d="M122.889 48.4C130.844 48.4 137.333 46 137.778 43.6889C136.978 50.4 130.622 55.6 122.889 55.6C115.156 55.6 108.844 50.4 108 43.6889C108.444 46 114.933 48.4 122.889 48.4Z" fill="black"/>
<path d="M122.889 47.8222C130.844 47.8222 137.333 46 137.778 43.6889C137.677 44.3944 137.528 45.0923 137.333 45.7778C136.178 47.9556 130.133 49.6445 122.889 49.6445C115.644 49.6445 109.644 47.9556 108.444 45.7778C108.249 45.0923 108.101 44.3944 108 43.6889C108.444 46 114.933 47.8222 122.889 47.8222Z" fill="#3F99F2"/>
<path d="M122.889 10.7111C124.269 10.7118 125.632 11.013 126.884 11.5936C128.137 12.1742 129.247 13.0203 130.14 14.0733C131.032 15.1263 131.684 16.3608 132.052 17.6913C132.419 19.0217 132.492 20.4161 132.266 21.7777C131.743 24.8805 130.894 27.9195 129.733 30.8444V30.8444C129.422 31.6444 126.489 32.2222 122.889 32.2222C119.289 32.2222 116.355 31.6444 116.089 30.8444C114.914 27.9208 114.05 24.8819 113.511 21.7777C113.285 20.4161 113.358 19.0217 113.726 17.6913C114.093 16.3608 114.745 15.1263 115.638 14.0733C116.53 13.0203 117.641 12.1742 118.893 11.5936C120.145 11.013 121.509 10.7118 122.889 10.7111V10.7111Z" fill="white"/>
<path d="M132.4 34.7555C133.244 36.4444 134.844 37.8222 135.644 37.3333C136.444 36.8444 135.867 35.1555 134.844 33.8222C133.822 32.4888 133.022 32.0888 132.444 32.2666C131.867 32.4444 131.778 33.4222 132.4 34.7555Z" fill="#242145"/>
<path d="M132.222 32.4C132.847 31.916 133.617 31.6571 134.408 31.6652C135.198 31.6732 135.963 31.9478 136.578 32.4444C138.133 33.6444 139.022 35.9111 138.533 38.3555C138.044 40.8 135.644 37.3333 135.644 37.3333L132.222 32.4Z" fill="#242145"/>
<path d="M137.778 35.6889C139.644 35.8222 142.4 37.4222 142.222 40.0444C142.044 42.6666 139.466 42.4889 137.778 41.2C136.089 39.9111 135.111 38.1778 135.2 36.7111C135.289 35.2444 136.444 35.5555 137.778 35.6889Z" fill="#242145"/>
<path d="M134.933 37.3778H135.244C135.208 37.1427 135.193 36.9046 135.2 36.6667C135.209 36.4921 135.263 36.3227 135.357 36.1749C135.45 36.027 135.58 35.9056 135.733 35.8222C135.745 35.8222 135.757 35.8199 135.767 35.8155C135.778 35.811 135.788 35.8045 135.796 35.7962C135.804 35.7879 135.811 35.7781 135.815 35.7674C135.82 35.7566 135.822 35.745 135.822 35.7333V35.7333V35.6445H135.778C135.733 35.6 135.689 35.5556 135.644 35.6C135.429 35.6978 135.244 35.8533 135.11 36.0493C134.977 36.2454 134.901 36.4743 134.889 36.7111C134.882 36.9343 134.897 37.1576 134.933 37.3778Z" fill="black"/>
<path d="M140.044 47.1556C138.203 47.1556 136.711 45.6632 136.711 43.8222C136.711 41.9813 138.203 40.4889 140.044 40.4889C141.885 40.4889 143.378 41.9813 143.378 43.8222C143.378 45.6632 141.885 47.1556 140.044 47.1556Z" fill="#242145"/>
<path d="M137.689 41.1111C138.342 40.5072 139.2 40.1737 140.089 40.1778C140.79 40.1713 141.476 40.3893 142.044 40.8C142.043 40.9097 142.012 41.017 141.956 41.1111C141.416 40.71 140.762 40.492 140.089 40.4889C139.695 40.4815 139.304 40.5524 138.938 40.6974C138.571 40.8423 138.238 41.0585 137.956 41.3333L137.778 41.2L137.689 41.1111Z" fill="black"/>
<path d="M136.933 46.9333C134.871 46.9333 133.2 45.2619 133.2 43.2C133.2 41.1381 134.871 39.4667 136.933 39.4667C138.995 39.4667 140.667 41.1381 140.667 43.2C140.667 45.2619 138.995 46.9333 136.933 46.9333Z" fill="#242145"/>
<path d="M140.667 43.2C140.724 42.6725 140.67 42.1388 140.507 41.6337C140.345 41.1286 140.078 40.6634 139.723 40.2683C139.369 39.8733 138.936 39.5574 138.451 39.3411C137.966 39.1248 137.442 39.0131 136.911 39.0131C136.381 39.0131 135.856 39.1248 135.371 39.3411C134.887 39.5574 134.453 39.8733 134.099 40.2683C133.745 40.6634 133.478 41.1286 133.315 41.6337C133.152 42.1388 133.098 42.6725 133.156 43.2" stroke="black" stroke-width="0.811127" stroke-miterlimit="10" stroke-linecap="round"/>
<path d="M105.289 46.4889C103.178 46.4889 101.467 44.7776 101.467 42.6666C101.467 40.5557 103.178 38.8444 105.289 38.8444C107.4 38.8444 109.111 40.5557 109.111 42.6666C109.111 44.7776 107.4 46.4889 105.289 46.4889Z" fill="#242145"/>
<path d="M103.644 39.2445C103.689 39.1111 103.689 38.9778 103.733 38.8445C104.216 38.6621 104.728 38.5716 105.244 38.5778C105.893 38.5712 106.534 38.7261 107.108 39.0287C107.682 39.3313 108.172 39.772 108.533 40.3111L108.311 40.5334C107.983 40.0171 107.53 39.5917 106.994 39.2966C106.458 39.0014 105.856 38.8459 105.244 38.8445C104.686 38.8398 104.135 38.9774 103.644 39.2445V39.2445Z" fill="black"/>
<path d="M108.533 43.8666C106.594 43.8666 105.022 42.2947 105.022 40.3555C105.022 38.4164 106.594 36.8444 108.533 36.8444C110.472 36.8444 112.044 38.4164 112.044 40.3555C112.044 42.2947 110.472 43.8666 108.533 43.8666Z" fill="#242145"/>
<path d="M108.533 36.8C108.036 36.7441 107.532 36.7939 107.056 36.946C106.579 37.098 106.14 37.349 105.767 37.6826C105.394 38.0161 105.095 38.4246 104.891 38.8814C104.686 39.3381 104.581 39.8329 104.581 40.3333C104.581 40.8337 104.686 41.3285 104.891 41.7853C105.095 42.2421 105.394 42.6506 105.767 42.9841C106.14 43.3176 106.579 43.5686 107.056 43.7207C107.532 43.8728 108.036 43.9225 108.533 43.8667" stroke="black" stroke-width="0.811127" stroke-miterlimit="10" stroke-linecap="round"/>
<path d="M119.778 35.8222C119.612 35.1648 119.493 34.4965 119.422 33.8222C119.422 33.7869 119.436 33.753 119.461 33.728C119.486 33.703 119.52 33.6889 119.556 33.6889C120.597 33.8734 121.653 33.9627 122.711 33.9556C122.8 33.9556 122.844 34 122.8 34.0889L121.644 36C121.497 37.9968 121.482 40.0012 121.6 42C121.6 42.0889 121.556 42.1333 121.511 42.1333C120.454 42.1702 119.397 42.0957 118.356 41.9111L118.267 41.7778C118.533 39.2 119.067 37.0667 119.778 35.8222Z" fill="#57F287"/>
<path d="M122.889 32.2667C119.109 32.2667 116.044 31.5901 116.044 30.7556C116.044 29.921 119.109 29.2444 122.889 29.2444C126.669 29.2444 129.733 29.921 129.733 30.7556C129.733 31.5901 126.669 32.2667 122.889 32.2667Z" fill="black"/>
<path d="M115.689 29.7333V29.9111L116.089 30.8444C116.356 31.6444 119.333 32.2222 122.889 32.2222C124.454 32.2454 126.017 32.1114 127.556 31.8222C128.756 31.6 129.556 31.2444 129.733 30.8444C129.832 30.5262 129.951 30.2145 130.089 29.9111V29.7333C130.089 28.8888 126.844 28.1777 122.844 28.1777C118.844 28.1777 115.689 28.8888 115.689 29.7333Z" fill="#5562F2"/>
<path d="M122.889 31.1111C127.244 31.1111 129.956 30.3111 129.956 29.7333C129.956 29.1555 127.244 28.3555 122.889 28.3555C118.533 28.3555 115.867 29.1555 115.867 29.7333C115.867 30.3111 118.533 31.1111 122.889 31.1111Z" fill="black"/>
<path d="M122.889 28.5333C118.578 28.5333 116.089 29.3333 116.044 29.7333C116 30.1333 118.578 30.9333 122.889 30.9333C127.2 30.9333 129.689 30.1333 129.778 29.7333C129.867 29.3333 127.2 28.5333 122.889 28.5333V28.5333ZM122.889 28.1777C126.889 28.1777 130.133 28.8888 130.133 29.7333C130.133 30.5777 126.889 31.2888 122.889 31.2888C118.889 31.2888 115.689 30.6222 115.689 29.7333C115.689 28.8444 118.889 28.1777 122.889 28.1777V28.1777Z" fill="#99A1FF"/>
<path d="M121.911 29.7333V29.8222L122.622 29.9111L123.333 29.8222C123.349 29.8042 123.362 29.7831 123.369 29.7601C123.377 29.7372 123.38 29.713 123.378 29.6889C123.264 27.8474 123.68 26.0119 124.578 24.4C124.664 24.2147 124.679 24.0044 124.622 23.8083C124.565 23.6122 124.439 23.4434 124.267 23.3333C124.088 23.2501 123.885 23.2358 123.696 23.2932C123.507 23.3506 123.346 23.4757 123.244 23.6444C122.23 25.5062 121.768 27.6182 121.911 29.7333V29.7333Z" fill="#EB459F"/>
<path d="M119.2 21.3333C119.778 21.7778 120.667 22.9333 120.133 24.0889L121.422 24L123.422 23.1555L124.267 21.8222L124.489 20.1778L124.133 19.4222L123.244 19.3333L121.022 20.8444L119.2 21.3333Z" fill="black"/>
<path d="M116.267 21.5111C116.247 21.6267 116.253 21.7453 116.285 21.8583C116.316 21.9713 116.372 22.0761 116.448 22.1651C116.524 22.2542 116.619 22.3254 116.726 22.3736C116.833 22.4219 116.949 22.4461 117.067 22.4444C117.778 22.5333 118.044 22.3555 118.178 22.1333C118.338 22.3061 118.546 22.4277 118.775 22.483C119.005 22.5384 119.245 22.5249 119.467 22.4444C119.956 22.2222 120.267 21.9555 120.089 21.3777C119.911 20.8 116.267 21.5111 116.267 21.5111Z" fill="#8CD9FF"/>
<path d="M122.8 19.8666C123.111 20.4 122.711 20.8 122 21.2C121.289 21.6 121.022 20.7111 121.022 20.7111L122.8 19.8666Z" fill="#8CD9FF"/>
<path d="M122.8 21.8222C122.222 21.4667 121.467 21.9111 121.155 22.6667C121.01 23.0822 120.8 23.4722 120.533 23.8222H122L123.333 22.9333L122.8 21.8222Z" fill="#57F287"/>
<path d="M124.222 20.9333C123.511 20.7555 122.622 21.3333 122.089 22.8L121.555 24.2667L123.867 23.0222L124.489 21.6444L124.222 20.9333Z" fill="#57F287"/>
<path d="M124.222 20.9333C123.511 20.7555 122.622 21.3333 122.089 22.8L121.555 24.2667" stroke="black" stroke-width="0.856299" stroke-miterlimit="10" stroke-linecap="round"/>
<path d="M116.756 24.9333C116.605 24.8954 116.467 24.8188 116.356 24.7111C116.178 24.5333 116.133 24.2222 116.578 23.7777C117.022 23.3333 119.111 23.3777 119.867 23.5555C120.452 23.7449 121.079 23.7662 121.676 23.6169C122.274 23.4676 122.817 23.1538 123.244 22.7111C124.089 21.9111 124.044 20.5333 124 20.0888C123.956 19.6444 123.644 19.5111 122.933 19.9555C120.222 21.6444 119.022 22.0444 117.378 22.0888C115.733 22.1333 115.556 21.5555 115.511 21.3777C115.482 21.2569 115.488 21.1305 115.527 21.0127C115.567 20.895 115.638 20.7905 115.733 20.7111L116.756 21.2444L120 20.5333L122.933 18.7999L124.4 18.7111L125.067 20.3555L124.444 22.8L122.8 24.2222L120.444 24.6666L117.644 24.1333L116.889 24.4888L116.756 24.9333Z" fill="#EB459F"/>
<path d="M115.822 20.9778C115.156 19.7778 115.333 18.4889 116.933 17.5555C116.622 15.7778 117.333 14.4 119.822 14.3555C120.4 12.8889 122 12.6666 123.289 12.7555C123.785 12.7538 124.272 12.8955 124.69 13.1636C125.107 13.4317 125.439 13.8147 125.644 14.2666C128.133 14.2222 129.956 15.2444 129.778 17.6444C131.022 18.4 131.422 20.1333 130.533 21.2C131.422 23.2 129.422 24.4889 127.956 24.7111C127.556 26.7555 125.911 28.2222 123.333 27.5111C122.573 27.8757 121.726 28.023 120.887 27.9367C120.047 27.8505 119.248 27.534 118.578 27.0222C116.8 27.1555 116.311 26.0889 116.533 24.9333C116.553 24.7901 116.603 24.6527 116.679 24.5301C116.756 24.4075 116.858 24.3026 116.978 24.2222C117.6 23.8222 118.533 23.9555 119.6 24.1778C121.733 24.6222 123.422 24.0444 124.311 22.3111C124.8 21.4222 124.933 19.9111 124.4 19.2C123.867 18.4889 122.978 19.1111 122.044 19.6889C120.267 20.8 117.956 21.9111 116.222 21.2889C116.055 21.2378 115.913 21.1271 115.822 20.9778Z" fill="#FF78B9"/>
<path d="M115.822 20.9778C115.156 19.7778 115.333 18.4889 116.933 17.5555C116.622 15.7778 117.333 14.4 119.822 14.3555C120.4 12.8889 122 12.6666 123.289 12.7555C123.785 12.7538 124.272 12.8955 124.69 13.1636C125.107 13.4317 125.439 13.8147 125.644 14.2666C128.133 14.2222 129.956 15.2444 129.778 17.6444C131.022 18.4 131.422 20.1333 130.533 21.2C131.422 23.2 129.422 24.4889 127.956 24.7111C127.556 26.7555 125.911 28.2222 123.333 27.5111C122.573 27.8757 121.726 28.023 120.887 27.9367C120.047 27.8505 119.248 27.534 118.578 27.0222C116.8 27.1555 116.311 26.0889 116.533 24.9333C116.553 24.7901 116.603 24.6527 116.679 24.5301C116.756 24.4075 116.858 24.3026 116.978 24.2222C117.6 23.8222 118.533 23.9555 119.6 24.1778C121.733 24.6222 123.422 24.0444 124.311 22.3111C124.8 21.4222 124.933 19.9111 124.4 19.2C123.867 18.4889 122.978 19.1111 122.044 19.6889C120.267 20.8 117.956 21.9111 116.222 21.2889C116.055 21.2378 115.913 21.1271 115.822 20.9778Z" fill="#FF78B9"/>
<path d="M118.978 15.5111L118.444 15.1111" stroke="black" stroke-width="0.856299" stroke-miterlimit="10" stroke-linecap="round"/>
<path d="M118.711 15.6889L117.955 15.6" stroke="black" stroke-width="0.856299" stroke-miterlimit="10" stroke-linecap="round"/>
<path d="M123.378 14.2667L123.244 13.5555" stroke="black" stroke-width="0.856299" stroke-miterlimit="10" stroke-linecap="round"/>
<path d="M122.844 14.2666L122.533 13.6" stroke="black" stroke-width="0.856299" stroke-miterlimit="10" stroke-linecap="round"/>
<path d="M122.489 14.3555L121.955 13.8666" stroke="black" stroke-width="0.856299" stroke-miterlimit="10" stroke-linecap="round"/>
<path d="M120.4 14.7111C120.419 14.6713 120.453 14.6401 120.494 14.6237C120.535 14.6072 120.581 14.6067 120.622 14.6222C120.667 14.7111 120.711 14.8 120.667 14.8445C120.176 15.6908 120.032 16.6945 120.267 17.6445C120.29 17.7166 120.29 17.7944 120.266 17.8663C120.242 17.9383 120.195 18.0007 120.133 18.0445C119.819 18.2754 119.554 18.5678 119.355 18.9039C119.157 19.24 119.028 19.6129 118.978 20C118.915 20.3799 118.978 20.7698 119.156 21.1111L118.889 21.2C118.66 20.8278 118.566 20.3887 118.622 19.9556C118.776 19.1108 119.235 18.3518 119.911 17.8222C119.937 17.7994 119.953 17.7676 119.956 17.7333C119.823 17.2255 119.794 16.6963 119.871 16.177C119.947 15.6578 120.127 15.1593 120.4 14.7111Z" fill="black"/>
<path d="M123.733 18.0889C123.649 18.3624 123.634 18.6525 123.689 18.9333H123.378C123.291 18.5924 123.322 18.232 123.467 17.9111C123.822 17.2445 124.711 16.8445 125.689 16.5333C126.667 16.2222 127.244 15.9111 127.467 15.3778C127.689 14.8445 127.556 15.2445 127.644 15.2889C127.733 15.3333 127.778 15.3778 127.733 15.4667C127.467 16.2222 127.067 16.4445 125.778 16.8445C124.489 17.2445 124.044 17.5111 123.733 18.0889Z" fill="black"/>
<path d="M126.756 21.1555H126.667L126.533 21.0666C126.518 21.0252 126.518 20.9794 126.535 20.9383C126.551 20.8972 126.582 20.8637 126.622 20.8444C129.289 19.6 129.689 18.5777 129.778 17.6444L130.089 17.8666C129.956 18.8 129.378 19.8666 126.756 21.1555Z" fill="black"/>
<path d="M124.667 25.3778H124.578C124.489 25.3778 124.444 25.3333 124.444 25.2889C124.444 25.2444 124.4 25.1111 124.489 25.0666L125.778 24.3555H126.044C126.637 24.6471 127.298 24.7701 127.956 24.7111V24.7111C127.947 24.8338 127.917 24.9541 127.867 25.0666C127.193 25.0833 126.524 24.9465 125.911 24.6666L124.667 25.3778Z" fill="black"/>
<path d="M118.089 27.0222C117.763 26.6482 117.561 26.1824 117.511 25.6889C117.446 25.0826 117.586 24.4719 117.911 23.9556H118.311C117.958 24.4285 117.785 25.0112 117.822 25.6C117.898 26.136 118.166 26.6259 118.578 26.9778H118.089V27.0222Z" fill="black"/>
<path d="M129.733 22.3111H129.644L129.511 22.2222C129.495 22.1807 129.496 22.135 129.512 22.0939C129.529 22.0528 129.56 22.0193 129.6 22C129.943 21.756 130.256 21.4726 130.533 21.1555L130.667 21.5111C130.397 21.8223 130.082 22.0919 129.733 22.3111V22.3111Z" fill="black"/>
<path d="M121.333 17.2445C121.6 17.2889 121.866 17.0667 122.089 16.6222C122.328 16.1207 122.696 15.6914 123.155 15.3778C123.911 14.8445 123.733 14.3111 123.378 14.0889C123.022 13.8667 121.911 13.9556 121.333 14.8889C120.755 15.8222 120.711 17.1111 121.333 17.2445Z" fill="white"/>
<path d="M118.426 17.8319C117.974 17.7183 117.748 17.0665 117.921 16.3762C118.095 15.6858 118.602 15.2182 119.054 15.3318C119.507 15.4454 119.733 16.0972 119.559 16.7876C119.386 17.478 118.879 17.9455 118.426 17.8319Z" fill="white"/>
<path d="M121.6 15.7333C121.466 15.6889 121.244 15.8666 121.2 16.3111C121.155 16.7555 121.333 16.8444 121.422 16.8444C121.511 16.8444 121.555 16.6666 121.6 16.4C121.644 16.1333 121.822 15.8222 121.6 15.7333Z" fill="black"/>
<path d="M118.222 17.0935C118.206 16.7994 118.333 16.5536 118.504 16.5446C118.676 16.5356 118.828 16.7668 118.843 17.061C118.858 17.3551 118.732 17.6009 118.56 17.6098C118.389 17.6188 118.237 17.3877 118.222 17.0935Z" fill="black"/>
<path d="M126.622 16.2666L126.4 15.4222" stroke="black" stroke-width="0.856299" stroke-miterlimit="10" stroke-linecap="round"/>
<path d="M127.511 20.7111L127.6 21.1999" stroke="black" stroke-width="0.856299" stroke-miterlimit="10" stroke-linecap="round"/>
<path d="M114.844 18.1778C114.574 18.1778 114.355 17.9589 114.355 17.6889C114.355 17.4189 114.574 17.2 114.844 17.2C115.114 17.2 115.333 17.4189 115.333 17.6889C115.333 17.9589 115.114 18.1778 114.844 18.1778Z" fill="#8CD9FF"/>
<path d="M128.311 27.7777C128.139 27.7777 128 27.6385 128 27.4666C128 27.2948 128.139 27.1555 128.311 27.1555C128.483 27.1555 128.622 27.2948 128.622 27.4666C128.622 27.6385 128.483 27.7777 128.311 27.7777Z" fill="#8CD9FF"/>
<path d="M128.489 15.7333C128.121 15.7333 127.822 15.4348 127.822 15.0666C127.822 14.6984 128.121 14.4 128.489 14.4C128.857 14.4 129.156 14.6984 129.156 15.0666C129.156 15.4348 128.857 15.7333 128.489 15.7333Z" fill="#8CD9FF"/>
<path d="M132.533 45.2444C130.496 45.2444 128.844 43.5928 128.844 41.5555C128.844 39.5182 130.496 37.8666 132.533 37.8666C134.571 37.8666 136.222 39.5182 136.222 41.5555C136.222 43.5928 134.571 45.2444 132.533 45.2444Z" fill="#242145"/>
<path d="M135.955 39.5555C136.312 40.1614 136.496 40.8528 136.489 41.5555C136.489 42.2529 136.31 42.9387 135.967 43.5461C135.624 44.1535 135.13 44.662 134.533 45.0222H134.311C134.291 44.9858 134.285 44.9437 134.293 44.9031C134.301 44.8625 134.323 44.8261 134.355 44.8C134.789 44.5618 135.169 44.2369 135.471 43.8455C135.773 43.4541 135.992 43.0046 136.113 42.5251C136.234 42.0455 136.255 41.5462 136.174 41.0582C136.093 40.5702 135.913 40.1041 135.644 39.6889L135.955 39.5555Z" fill="black"/>
<path d="M132.533 38.2667C132.044 37.5555 131.689 37.3333 131.111 37.6889L128.711 40.6222C128.222 41.3333 128.444 41.7778 129.333 42.3556C130.222 42.9333 131.155 42.8 132.178 41.7778C133.2 40.7556 132.978 38.9778 132.533 38.2667Z" fill="#5865F2"/>
<path d="M132.133 38.8889C132.077 38.5355 131.972 38.1916 131.822 37.8667C131.155 36.6667 130.489 35.4222 130.178 34.9778C129.867 34.5333 129.378 34.5333 128.089 34.5333C126.8 34.5333 126.8 34.5333 126.4 35.0222C126 35.5111 126 35.6 126.355 36.3111C125.378 36.8889 125.467 36.9778 125.467 38.3556C125.467 39.7333 125.867 39.7778 127.067 39.9556C127.867 41.0222 128.355 41.8222 129.644 41.8222C130.005 41.8065 130.359 41.7163 130.683 41.5574C131.008 41.3986 131.296 41.1744 131.529 40.899C131.763 40.6236 131.937 40.3029 132.041 39.957C132.145 39.6111 132.176 39.2475 132.133 38.8889V38.8889Z" fill="#FF78B9"/>
<path d="M126.356 47.7334L127.822 47.6C127.555 44.8064 127.555 41.9936 127.822 39.2L127.6 38.8889L126.489 39.2C126.093 42.0281 126.048 44.8943 126.356 47.7334V47.7334Z" fill="#FFD73B"/>
<path d="M109.111 37.2C109.511 36.6222 109.822 36.4444 110.311 36.7111L112.311 39.2C112.756 39.8222 112.533 40.2222 111.778 40.7111C111.022 41.2 110.267 41.0666 109.378 40.1777C109.041 39.7649 108.835 39.2605 108.788 38.7297C108.74 38.199 108.853 37.6661 109.111 37.2V37.2Z" fill="#5865F2"/>
<path d="M114.933 35.6444C115.689 36.1333 115.644 36.4889 115.378 37.1555C115.063 37.8375 114.691 38.4917 114.266 39.1111C114 39.5555 113.644 39.5555 112.355 39.5111C112.18 39.7952 111.902 40.0002 111.578 40.0831C111.255 40.166 110.912 40.1203 110.622 39.9555C110.044 39.6889 109.422 38.9778 109.644 37.5111C109.67 37.3033 109.747 37.105 109.866 36.9333C110.533 35.8222 111.644 34.1778 111.911 33.8667C112.178 33.5556 112.489 33.5111 113.733 33.5111C114.978 33.5111 115.111 33.7778 115.289 34.3111C115.466 34.8444 115.289 35.0222 114.933 35.6444Z" fill="#FF78B9"/>
<path d="M121.333 57.6C120.756 58.2483 120.439 59.0875 120.444 59.9556C120.471 60.5005 120.656 61.0257 120.978 61.4667H121.466C121.251 61.2672 121.077 61.027 120.955 60.76C120.833 60.4931 120.765 60.2045 120.755 59.9111C120.741 59.4887 120.817 59.0681 120.978 58.6773C121.139 58.2865 121.381 57.9344 121.689 57.6444L121.866 57.5111L121.689 57.4222C121.342 57.1854 121.051 56.8758 120.836 56.5151C120.621 56.1543 120.487 55.751 120.444 55.3333C120.4 55.0089 120.4 54.68 120.444 54.3556V54.3556C120.562 53.4613 120.95 52.6243 121.555 51.9556C121.575 51.9218 121.585 51.8835 121.585 51.8444C121.585 51.8054 121.575 51.7671 121.555 51.7333H121.333C120.664 52.4571 120.243 53.3759 120.133 54.3556C120.089 54.6949 120.089 55.0385 120.133 55.3778C120.231 56.2458 120.661 57.0423 121.333 57.6V57.6Z" fill="black"/>
<path d="M135.556 32.7555C135.867 32.9778 136.356 33.2 136.444 33.0667C136.533 32.9333 136.178 32.6222 135.822 32.4444C135.467 32.2667 135.378 32.3111 135.333 32.3555C135.289 32.4 135.378 32.5778 135.556 32.7555Z" fill="#625ABD"/>
<path d="M112.222 38.6222C112.161 41.3409 112.43 44.057 113.022 46.7111C113.371 46.826 113.727 46.9152 114.089 46.9777C113.626 44.2164 113.388 41.422 113.378 38.6222L112.578 38.1777L112.222 38.6222Z" fill="#FFD73B"/>
<path d="M108 36.8444C107.856 36.6054 107.737 36.3522 107.644 36.0889" stroke="black" stroke-width="0.811127" stroke-miterlimit="10" stroke-linecap="round"/>
<path d="M120.533 35.8666C120.311 36.8444 120.133 37.7777 120.133 37.7777" stroke="black" stroke-width="0.811127" stroke-miterlimit="10" stroke-linecap="round"/>
<path d="M122.8 49.6444C121.107 49.6349 119.415 49.531 117.733 49.3333V47.5555C119.416 47.7378 121.108 47.8268 122.8 47.8222V49.6444Z" fill="#FFD73B"/>
<path d="M112.8 34.2222C112.844 34.1333 112.933 34.1333 113.022 34.1778L115.067 35.3777L114.933 35.6444L112.844 34.4C112.8 34.3555 112.756 34.2666 112.8 34.2222Z" fill="black"/>
<path d="M114.089 34.9778L114.844 34.7556" stroke="black" stroke-width="0.811127" stroke-miterlimit="10" stroke-linecap="round"/>
<path d="M114.089 37.4222L112.133 36.2222C112.044 36.1778 112.044 36.0889 112.089 36C112.115 35.9679 112.151 35.9459 112.192 35.9378C112.232 35.9297 112.275 35.936 112.311 35.9556L114.266 37.1556C114.498 37.2666 114.709 37.417 114.889 37.6C114.939 37.6613 114.971 37.7363 114.979 37.8154C114.987 37.8946 114.971 37.9743 114.933 38.0444L114.8 38.3111C114.835 38.227 114.851 38.1356 114.844 38.0444C114.8 37.8667 114.489 37.6444 114.089 37.4222Z" fill="black"/>
<path d="M113.467 38.7111L112.489 38.1333" stroke="black" stroke-width="0.811127" stroke-miterlimit="10" stroke-linecap="round"/>
<path d="M112.489 38.1333C112.291 38.4989 111.999 38.8056 111.644 39.0222" stroke="black" stroke-width="0.811127" stroke-miterlimit="10" stroke-linecap="round"/>
<path d="M126.355 36.3111L126.222 36.0445L128.4 35.2C128.489 35.2 128.578 35.2 128.578 35.2889C128.593 35.3304 128.593 35.3761 128.576 35.4172C128.56 35.4583 128.529 35.4918 128.489 35.5111L126.355 36.3111Z" fill="black"/>
<path d="M125.733 37.8666L128.355 36.9333C128.402 36.9295 128.448 36.9403 128.488 36.9642C128.528 36.9881 128.559 37.024 128.578 37.0666L128.489 37.2444L125.822 38.1778C125.713 38.2161 125.619 38.2889 125.555 38.385C125.491 38.4812 125.46 38.5957 125.467 38.7111V38.1333C125.467 38 125.644 37.9111 125.733 37.8666Z" fill="black"/>
<path d="M126.355 39.1556L127.555 38.7556H127.6C127.72 39.2578 127.947 39.7279 128.267 40.1333" stroke="black" stroke-width="0.811127" stroke-miterlimit="10" stroke-linecap="round"/>
<path d="M120.267 26.1778C120.251 26.1363 120.252 26.0906 120.268 26.0495C120.284 26.0084 120.316 25.9749 120.355 25.9555C120.4 25.9111 120.533 25.9555 120.578 26C120.707 26.2406 120.912 26.4318 121.161 26.5443C121.41 26.6567 121.689 26.6841 121.955 26.6222C121.967 26.6147 121.98 26.6098 121.993 26.608C122.006 26.6062 122.02 26.6075 122.033 26.6117C122.046 26.616 122.058 26.6232 122.067 26.6327C122.077 26.6423 122.084 26.6539 122.089 26.6667C122.381 27.096 122.826 27.398 123.333 27.5111L122.844 27.6889C122.444 27.5523 122.1 27.2865 121.867 26.9333C121.554 26.9915 121.232 26.9499 120.944 26.8142C120.657 26.6786 120.42 26.4559 120.267 26.1778V26.1778Z" fill="black"/>
<path d="M109.467 28.7111C108.043 28.7111 106.889 27.557 106.889 26.1333C106.889 24.7097 108.043 23.5555 109.467 23.5555C110.89 23.5555 112.044 24.7097 112.044 26.1333C112.044 27.557 110.89 28.7111 109.467 28.7111Z" fill="white"/>
<path d="M101.467 29.9111C101.614 30.2595 101.891 30.5373 102.239 30.6864C102.587 30.8355 102.979 30.8444 103.333 30.7111L108.311 29.1111L106.4 25.1111L102 27.9555C101.692 28.1639 101.469 28.4758 101.371 28.8345C101.273 29.1933 101.307 29.5752 101.467 29.9111V29.9111Z" fill="black"/>
<path d="M107.46 27.0339C106.915 25.8799 106.725 24.8254 107.035 24.6785C107.346 24.5317 108.04 25.3481 108.586 26.5021C109.131 27.656 109.321 28.7105 109.011 28.8574C108.7 29.0043 108.006 28.1878 107.46 27.0339Z" fill="#8CD9FF"/>
<path d="M108.933 28.9333L108.311 29.1111C108.622 28.9778 108.444 27.9556 107.956 26.8444C107.467 25.7333 106.756 24.9778 106.4 25.1111L106.978 24.7556L108.356 26.6667L108.933 28.9333Z" fill="#8CD9FF"/>
<path d="M108.311 29.1111C108.622 28.9778 108.444 27.9556 107.955 26.8445C107.467 25.7333 106.755 24.9778 106.4 25.1111L106 25.3778L107.867 29.2889L108.311 29.1111Z" fill="black"/>
<path d="M125.355 120H0.355469C1.39171 104.098 8.42716 89.1863 20.0342 78.2911C31.6413 67.3958 46.9505 61.3331 62.8555 61.3331C78.7604 61.3331 94.0696 67.3958 105.677 78.2911C117.284 89.1863 124.319 104.098 125.355 120V120Z" fill="#FFE75C"/>
<path d="M58.9776 86.0889C58.0888 88.6667 56.5332 93.6 56.5332 93.6H63.5554C65.111 88.0445 65.5554 85.6 65.5554 85.6L58.9776 86.0889Z" fill="#FF78B9"/>
<path d="M75.7778 93.4667C76.241 93.0043 76.7828 92.628 77.3778 92.3556L75.2001 91.9556C74.0445 91.7778 73.7778 91.5556 73.289 91.1112C69.8223 88.2223 67.4223 89.1112 60.9334 90.4889C55.0223 88.9778 50.6667 87.6445 48.5778 88.5778C46.489 89.5112 47.3778 93.6889 48.5778 98.4445C49.7778 103.2 50.9778 107.6 50.9778 107.6H72.4001C72.6667 105.022 72.1778 100.444 71.689 97.2445L74.089 97.8223C74.089 96.2223 74.4001 94.7556 75.7778 93.4667Z" fill="#3442D9"/>
<path d="M52.6665 88.4889C54.8887 88.9333 55.8221 91.3778 56.5332 93.6C57.2443 95.8222 59.5554 97.6444 63.0221 96.7555C66.4887 95.8667 69.8221 93.7778 66.7554 89.3333C65.1998 89.5111 63.3776 89.9556 60.9332 90.4889C57.6443 89.6444 54.8443 88.8444 52.6665 88.4889Z" fill="white"/>
<path d="M60.8889 96.3556L60.8 97.5111C60.7777 97.8262 60.8256 98.1423 60.9403 98.4366C61.055 98.7308 61.2336 98.996 61.4632 99.2128C61.6928 99.4297 61.9677 99.5929 62.2681 99.6906C62.5684 99.7883 62.8867 99.8181 63.2 99.7778V99.7778C63.504 99.7241 63.7928 99.6051 64.0463 99.4289C64.2999 99.2527 64.5121 99.0236 64.6685 98.7574C64.8248 98.4911 64.9216 98.1942 64.9519 97.8869C64.9823 97.5797 64.9456 97.2695 64.8445 96.9778L64.4445 95.8667L60.8889 96.3556Z" fill="white"/>
<path d="M123.689 108.444H45.1556C45.043 108.438 44.9303 108.455 44.8249 108.496C44.7196 108.536 44.6239 108.598 44.5441 108.677C44.4644 108.757 44.4024 108.853 44.3623 108.958C44.3221 109.064 44.3047 109.176 44.3111 109.289C44.3111 109.4 44.333 109.51 44.3754 109.612C44.4178 109.714 44.48 109.808 44.5585 109.886C44.6369 109.964 44.73 110.027 44.8324 110.069C44.9349 110.111 45.0447 110.133 45.1556 110.133H124.133C124 109.556 123.867 109.022 123.689 108.444Z" fill="#FFC619"/>
<path d="M57.2443 92.7556C58.8887 96.0889 62.0887 96.6222 65.0665 94.8445C68.0443 93.0667 66.4887 89.9111 66.222 89.3778C64.7998 89.6445 63.1109 89.7778 60.9331 90.2222C58.1776 89.5111 55.7332 89.1111 53.7332 88.7111C54.7109 88.9333 55.7776 89.7778 57.2443 92.7556Z" fill="#FF78B9"/>
<path d="M50.3999 108.178C51.3777 113.867 52.0888 117.422 54.1777 118.044C56.2666 118.667 58.7999 117.467 61.7777 115.111C66.5777 111.289 69.0221 110.489 71.1999 110.533L50.3999 108.178Z" fill="black"/>
<path d="M48.7998 88.4889C46.4887 89.2445 45.2443 91.5556 46.8887 95.2889C47.1554 95.8223 47.2443 96.0445 47.3332 97.5556C47.422 99.0667 47.7332 103.733 49.9998 111.244C50.5332 113.156 51.422 112.8 54.2665 112.533C57.1109 112.267 70.0887 110.133 70.0887 110.133V105.956L55.2443 105.733C54.3109 99.9556 53.5109 95.0223 52.9776 92.5334C52.4443 90.0445 51.3776 87.6889 48.7998 88.4889Z" fill="#FF78B9"/>
<path d="M53.4666 92.5333C52.9333 90.0889 51.3777 87.6889 48.7999 88.4889C46.2222 89.2889 45.2444 91.5556 46.8888 95.2889C47.1555 95.8222 47.2444 96.0445 47.3333 97.5556C47.4468 99.5706 47.6993 101.575 48.0888 103.556V103.556C48.1322 102.625 48.4227 101.723 48.9304 100.941C49.4382 100.16 50.1448 99.5286 50.9777 99.1111L53.9111 97.6889C54.6222 97.3334 53.7333 93.7333 53.4666 92.5333Z" fill="#3442D9"/>
<path d="M71.5556 94.9333C71.4667 94.9778 71.3778 95.0667 71.4222 95.1556L71.7333 97.2445L72.0889 97.3333L71.7778 95.1111C71.7575 95.066 71.7268 95.0263 71.6882 94.9953C71.6495 94.9644 71.6041 94.9432 71.5556 94.9333Z" fill="black"/>
<path d="M61.822 94.9778V97.5555C61.8264 97.7255 61.8669 97.8926 61.9408 98.0457C62.0146 98.1989 62.1202 98.3346 62.2505 98.4438C62.3808 98.5531 62.5328 98.6334 62.6964 98.6795C62.8601 98.7256 63.0317 98.7364 63.1998 98.7111C63.3676 98.6873 63.5281 98.6268 63.67 98.5341C63.8118 98.4413 63.9315 98.3184 64.0206 98.1742C64.1096 98.03 64.1659 97.868 64.1853 97.6997C64.2048 97.5313 64.187 97.3607 64.1331 97.2L63.2887 94.5333L61.822 94.9778Z" fill="#FF78B9"/>
<path d="M54.9777 105.689C54.1777 106.044 52.9333 106.622 52.1777 107.778" stroke="black" stroke-width="0.938578" stroke-miterlimit="10" stroke-linecap="round"/>
<path d="M54.9777 104.222L53.3333 94.0445C54.9777 95.4667 55.8221 95.2889 54.9777 104.222Z" fill="black"/>
<path d="M65.5554 85.6L60.4888 85.9556L60.7999 86.4445L64.1332 91.3778C65.2443 87.3778 65.5554 85.6 65.5554 85.6Z" fill="black"/>
<path d="M53.8384 71.3059C55.7429 70.8275 56.9523 69.1081 56.5397 67.4654C56.1271 65.8228 54.2487 64.8789 52.3442 65.3573C50.4397 65.8357 49.2302 67.5551 49.6428 69.1978C50.0554 70.8404 51.9338 71.7843 53.8384 71.3059Z" fill="black"/>
<path d="M49.7332 82.8444C50.2221 78.8889 52.1332 72.8 53.5555 69.5111C56.6666 62.4 58.1777 60 60.1777 60C62.1777 60 64.0888 62.7111 66.9332 66.4889C69.7777 70.2667 73.111 75.8222 74.711 80.3555C75.6888 83.0667 74.711 84.0444 73.0221 84.5778C71.3332 85.1111 66.7999 86.0889 61.9999 86.6667C58.2991 87.111 54.5675 87.2448 50.8444 87.0667C49.3777 86.9778 49.3332 85.5555 49.7332 82.8444Z" fill="#FF78B9"/>
<path d="M62.3555 73.0222L63.4666 72.1778" stroke="black" stroke-width="0.938578" stroke-miterlimit="10" stroke-linecap="round"/>
<path d="M62 72.9334L62.3111 71.6" stroke="black" stroke-width="0.938578" stroke-miterlimit="10" stroke-linecap="round"/>
<path d="M55.5998 68.3111C55.6443 68.0889 55.4665 67.9111 55.1998 67.8667C55.1473 67.8667 55.0953 67.877 55.0468 67.8971C54.9982 67.9173 54.9541 67.9467 54.917 67.9839C54.8798 68.021 54.8504 68.0651 54.8303 68.1136C54.8102 68.1622 54.7998 68.2142 54.7998 68.2667C54.6665 70.8445 53.8665 72.4 52.0443 73.5111C51.9109 73.8667 51.8221 74.2667 51.6887 74.6222C54.3109 73.3778 55.4665 71.5111 55.5998 68.3111Z" fill="black"/>
<path d="M57.5111 68.0445C57.5116 67.9339 57.4709 67.8271 57.397 67.7449C57.323 67.6628 57.2211 67.6111 57.1111 67.6C57.0032 67.6081 56.901 67.6518 56.8206 67.7242C56.7401 67.7966 56.686 67.8936 56.6666 68C56.4888 71.6445 55.0222 73.6889 51.5111 75.1556C51.4277 75.5022 51.3239 75.8435 51.2 76.1778C55.4666 74.5778 57.2888 72.2223 57.5111 68.0445Z" fill="black"/>
<path d="M68.9778 72.6667C70.6222 73.0667 71.2 72.2222 71.2 72.2222" stroke="black" stroke-width="0.938578" stroke-miterlimit="10" stroke-linecap="round"/>
<path d="M66.311 66.3556C68.4465 66.3556 70.1777 64.6244 70.1777 62.4889C70.1777 60.3534 68.4465 58.6223 66.311 58.6223C64.1755 58.6223 62.4443 60.3534 62.4443 62.4889C62.4443 64.6244 64.1755 66.3556 66.311 66.3556Z" fill="black"/>
<path d="M61.5554 62.4C64.1818 62.4 66.3109 60.2709 66.3109 57.6445C66.3109 55.018 64.1818 52.8889 61.5554 52.8889C58.9289 52.8889 56.7998 55.018 56.7998 57.6445C56.7998 60.2709 58.9289 62.4 61.5554 62.4Z" fill="black"/>
<path d="M55.3333 66.0445C57.7388 66.0445 59.6889 64.0944 59.6889 61.6889C59.6889 59.2834 57.7388 57.3334 55.3333 57.3334C52.9278 57.3334 50.9778 59.2834 50.9778 61.6889C50.9778 64.0944 52.9278 66.0445 55.3333 66.0445Z" fill="black"/>
<path d="M53.9555 69.3778L58.5333 66.6222L66.3111 65.6445V60.8445L59.2 58.8889L55.0222 62.2223L53.1111 68.7111L53.9555 69.3778Z" fill="black"/>
<path d="M67.4223 62.489C67.0223 63.5556 66.4445 64.8445 64.8889 65.4223" stroke="#0E156E" stroke-width="0.938578" stroke-miterlimit="10" stroke-linecap="round"/>
<path d="M62.4889 58C63.6889 60 63.5555 63.3778 61.0667 66.0445" stroke="#0E156E" stroke-width="0.938578" stroke-miterlimit="10" stroke-linecap="round"/>
<path d="M89.2889 99.2C89.0222 99.5111 88.4889 99.5111 87.1111 99.3778C86.1524 99.2661 85.1859 99.2364 84.2222 99.2889C82.2222 99.4222 78.6222 98.8445 74.0889 97.8223C74.0889 96.2223 74.4 94.7556 75.7778 93.4667C76.2409 93.0043 76.7827 92.628 77.3778 92.3556L80.9333 92.9778C80.9333 92.9778 80.1778 86.2223 79.2444 77.5556L82.4444 76.3556C84.6222 81.7334 87.7333 90.0889 88.7111 94.2667C89.6889 98.4445 89.6 98.8445 89.2889 99.2Z" fill="#FF78B9"/>
<path d="M82.6665 76.8445C82.5776 76.6223 82.6665 76.4445 82.9776 76.0445C83.3394 75.6474 83.6391 75.1978 83.8665 74.7112C84.0443 74.3556 84.0443 73.9556 84.0443 72.7556C84.0443 71.5556 83.9998 70.8 83.6443 70.3112C83.2887 69.8223 81.8221 68.6223 81.1554 68.0445C80.4887 67.4667 78.5776 66.0889 77.511 65.3778C76.4443 64.6667 75.7332 64.5334 75.0665 65.0667C74.3998 65.6 74.3554 66.4 74.0887 68.1778C73.9554 68.8889 73.9554 68.8 73.111 69.6889C72.2665 70.5778 72.5332 70.7556 72.7999 71.0223C73.0665 71.2889 73.9998 71.2889 74.7554 70.5778C75.1629 70.2289 75.4952 69.8008 75.7321 69.3194C75.9689 68.8381 76.1054 68.3136 76.1332 67.7778L76.8887 68.2667C76.5578 69.1008 76.3049 69.9637 76.1332 70.8445C76.0887 71.2889 76.1776 71.7778 76.6665 72.6223C75.6443 72 74.7554 71.2 73.8665 71.5556C72.9776 71.9112 73.0221 72.9334 73.6887 73.4667C74.3554 74 75.4665 74.8889 75.7332 75.1556C75.9998 75.4223 76.0887 75.6889 76.2665 76.3556C76.4443 77.0223 76.5776 78.0445 78.3554 78.1334C78.7998 78.1778 79.3332 78.0445 79.3776 78.4L79.4665 79.2889L82.9776 77.6889L82.6665 76.8445Z" fill="#FF78B9"/>
<path d="M70.0889 77.7778C68.8444 78 68.3555 76.8 68.0889 75.5111C67.8222 74.2222 67.5111 71.9111 67.9111 71.5556C68.3111 71.2 68.8444 71.6445 69.5555 73.0222C70.2666 74.4 71.9111 77.5111 70.0889 77.7778Z" fill="white"/>
<path d="M61.7777 79.0222C63.4222 79.2445 64.4 77.8222 64.3555 76.5333C64.2022 75.2146 63.6783 73.9664 62.8444 72.9334C62.2222 72.2667 60.8888 72.2222 60.1777 73.9556C59.4666 75.6889 58.6666 78.6222 61.7777 79.0222Z" fill="white"/>
<path d="M65.5111 82.0001C65.3971 81.763 65.3416 81.502 65.3493 81.2391C65.3571 80.9762 65.4278 80.7189 65.5555 80.489C66.0888 79.5112 66.8444 78.9778 67.7333 79.0223C68.6222 79.0667 69.1999 79.7334 68.6222 81.0667C69.7333 82.1334 69.1999 83.0223 68.0888 83.289C66.9777 83.5556 66.1333 83.3778 65.5111 82.0001Z" fill="#EB459F"/>
<path d="M52.3111 72.7556C53.1555 70.4889 55.4666 69.1111 57.6889 68.0445C59.9111 66.9778 66.1333 65.2 67.8222 67.6889C68.0444 67.5556 67.9555 67.3778 67.8222 67.0223C67.5718 66.5731 67.2896 66.1423 66.9777 65.7334C65.4666 63.8667 60.0444 64.6667 57.1555 66.3111C54.2666 67.9556 53.3778 69.3334 52.8444 70.6223C52.3111 71.9111 51.9555 72.4889 52.3111 72.7556Z" fill="#312CC7"/>
<path d="M67.911 80.2667C67.7926 80.5273 67.6064 80.7514 67.3718 80.9156C67.1373 81.0798 66.8631 81.178 66.5776 81.2001" stroke="black" stroke-width="0.938578" stroke-miterlimit="10" stroke-linecap="round"/>
<path d="M67.8666 81.4667L67.4221 80.8889" stroke="black" stroke-width="0.938578" stroke-miterlimit="10" stroke-linecap="round"/>
<path d="M80.7556 93.1111L80.9334 95.0667" stroke="black" stroke-width="0.938578" stroke-miterlimit="10" stroke-linecap="round"/>
<path d="M79.1111 74.2667H81.0222C81.2281 74.2628 81.4269 74.191 81.5876 74.0623C81.7484 73.9337 81.8621 73.7556 81.9111 73.5556L82.1778 72.6667C82.2222 72.5778 82.1778 72.4445 82.0889 72.4445C82.0679 72.4232 82.0404 72.4096 82.0107 72.4058C81.9811 72.4021 81.951 72.4084 81.9254 72.4238C81.8997 72.4391 81.88 72.4627 81.8694 72.4906C81.8587 72.5186 81.8578 72.5493 81.8667 72.5778L81.5556 73.4667C81.5344 73.5923 81.4689 73.7061 81.3711 73.7876C81.2733 73.8691 81.1496 73.9129 81.0222 73.9111H79.1111C77.5556 73.9111 77.4667 73.8223 76.6667 72.6222L75.9111 72.1334L76.3111 72.7111C77.2445 74.0889 77.4222 74.2667 79.1111 74.2667Z" fill="black"/>
<path d="M79.7778 74.2667H80.4889C80.5361 74.2667 80.5813 74.248 80.6146 74.2146C80.648 74.1813 80.6667 74.1361 80.6667 74.0889C80.6667 74.0418 80.648 73.9966 80.6146 73.9632C80.5813 73.9299 80.5361 73.9111 80.4889 73.9111H79.7778C79.6073 73.9083 79.4413 73.8565 79.2995 73.762C79.1576 73.6674 79.046 73.5341 78.9778 73.3778L78.5334 72.4445C78.3242 72.0147 78.2922 71.5198 78.4445 71.0667C78.8445 70 79.4222 68.4889 79.5111 68.1334C79.6 67.7778 79.8222 67.5556 80.0445 67.5111C80.2956 67.476 80.5506 67.5397 80.7556 67.6889L80.3556 67.4223C80.2848 67.3569 80.1997 67.3089 80.1072 67.2821C80.0147 67.2552 79.9172 67.2502 79.8224 67.2674C79.7276 67.2847 79.6381 67.3237 79.5609 67.3814C79.4838 67.4391 79.4211 67.514 79.3778 67.6C79.3019 67.7253 79.2421 67.8597 79.2 68L78.1334 70.9778C78.0277 71.2419 77.9809 71.5258 77.9963 71.8099C78.0116 72.0939 78.0887 72.3711 78.2223 72.6223L78.6667 73.5556C78.7622 73.7697 78.9183 73.9511 79.1158 74.0775C79.3132 74.2039 79.5434 74.2697 79.7778 74.2667V74.2667Z" fill="black"/>
<path d="M80.8442 72.1778L82.8442 72.7111" stroke="black" stroke-width="0.938578" stroke-miterlimit="10" stroke-linecap="round"/>
<path d="M79.0221 66.4445C78.6073 66.1778 78.2962 66.0889 78.0888 66.1778C77.6443 66.3556 77.2888 67.0667 76.8887 68.2667L76.5776 68.0445C77.0221 66.7556 77.3332 66.0445 77.911 65.8667C77.9689 65.842 78.0323 65.8331 78.0948 65.8409C78.1572 65.8487 78.2165 65.8729 78.2665 65.9112L79.0221 66.4445Z" fill="black"/>
<path d="M79.6443 77.9556L80.8443 78" stroke="black" stroke-width="0.938578" stroke-miterlimit="10" stroke-linecap="round"/>
<path d="M96.4444 91.9556C96.2666 92.3556 94.5777 92.1333 94.3555 92.5778C94.1333 93.0222 95.5111 94.0889 95.3333 94.5333C95.1555 94.9778 93.4222 94.7111 93.2444 95.1556C93.0666 95.6 94.3555 96.7111 94.1333 97.1111C93.9111 97.5111 92.2666 97.2 92.0444 97.6C91.8222 98 92.9777 99.2889 92.7555 99.6889C92.5333 100.089 90.8444 99.4667 90.5778 99.8222C90.3111 100.178 90.9333 101.778 90.5778 102C90.2222 102.222 89.3778 100.8 88.9333 100.756C88.4889 100.711 87.4222 101.956 87.0222 101.6C86.6222 101.244 87.5555 99.8667 87.2444 99.4222C86.9333 98.9778 85.3778 99.7778 85.0222 99.5111C84.6666 99.2445 84.6666 97.4667 84.1778 97.4222C83.6889 97.3778 83.3778 99.0222 82.8889 99.2445C82.4 99.4667 81.1555 98.2667 80.7111 98.6222C80.2666 98.9778 81.0222 100.489 80.6222 100.889C80.2222 101.289 78.7111 100.489 78.3555 100.889C78 101.289 79.0222 102.756 78.7111 103.156C78.4 103.556 76.7555 103.022 76.4444 103.467C76.1333 103.911 77.2444 105.244 76.9333 105.689C76.6222 106.133 74.9778 105.6 74.7111 106.089C74.4444 106.578 75.5555 107.822 75.2889 108.267" stroke="white" stroke-width="2.34644" stroke-miterlimit="10" stroke-linecap="round"/>
<path d="M68.9332 105.911C70.0031 105.828 71.0099 105.372 71.7776 104.622C73.0188 103.459 74.0291 102.072 74.7554 100.533C74.8271 100.394 74.9284 100.273 75.0523 100.177C75.1761 100.082 75.3195 100.015 75.4721 99.9808C75.6248 99.9469 75.7831 99.9469 75.9357 99.981C76.0883 100.015 76.2316 100.082 76.3554 100.178C76.711 100.489 76.7999 101.022 75.4665 104.267C77.511 105.111 77.6443 105.289 78.7999 106.578C79.3776 107.2 79.1554 107.6 78.6665 108.222C78.4998 108.45 78.2773 108.631 78.0204 108.747C77.7636 108.864 77.481 108.913 77.1999 108.889C76.5332 110.622 75.911 112.133 75.2443 113.022C74.5776 113.911 74.3999 114 73.7776 114C72.311 114 71.8221 113.733 71.7332 112.756C70.2665 112.489 69.6888 112.044 69.4665 111.333L69.2443 110.667C69.2339 110.613 69.2127 110.563 69.1822 110.518C69.1516 110.473 69.1123 110.435 69.0666 110.406C69.0208 110.377 68.9697 110.358 68.9162 110.349C68.8627 110.34 68.808 110.342 68.7554 110.356L67.511 110.533L68.9332 105.911Z" fill="#FF78B9"/>
<path d="M101.22 89.5376C103.54 84.4713 103.719 79.5857 101.622 78.6252C99.5236 77.6647 95.9426 80.9931 93.6232 86.0593C91.3037 91.1255 91.124 96.0111 93.2219 96.9716C95.3198 97.9321 98.9008 94.6038 101.22 89.5376Z" fill="#3895F2"/>
<path d="M98.8887 82L99.7776 81.2L97.7332 79.9556C97.3557 80.3043 96.9995 80.6753 96.6665 81.0667L98.8887 82Z" fill="white"/>
<path d="M102.844 80.4C102.81 80.2157 102.731 80.0426 102.615 79.8955C102.499 79.7483 102.349 79.6317 102.178 79.5556V79.5556C100.222 78.7111 96.8887 81.8667 94.7998 86.5778C92.7109 91.2889 92.5332 95.7333 94.4887 96.5778L94.7109 96.6667C95.0425 96.7365 95.388 96.6894 95.6887 96.5333C97.5554 95.4222 99.6887 92.7556 101.2 89.3333C102.711 85.9111 103.378 82.4444 102.844 80.4Z" fill="#8CD9FF"/>
<path d="M63.844 77.1923C63.9939 76.4213 63.7443 75.7241 63.2865 75.6351C62.8287 75.5461 62.336 76.099 62.1862 76.8701C62.0363 77.6411 62.2859 78.3383 62.7437 78.4273C63.2015 78.5163 63.6942 77.9634 63.844 77.1923Z" fill="black"/>
<path d="M70.3306 77.2858C70.6836 77.1813 70.8172 76.5814 70.629 75.9459C70.4408 75.3105 70.002 74.8801 69.649 74.9847C69.2959 75.0892 69.1624 75.6891 69.3506 76.3246C69.5388 76.96 69.9776 77.3904 70.3306 77.2858Z" fill="black"/>
<path d="M67.9111 71.5556C67.7333 71.7333 67.6889 72.3111 67.7333 73.0222C68.193 72.7298 68.707 72.5333 69.2444 72.4444C68.7111 71.5556 68.2667 71.2889 67.9111 71.5556Z" fill="#D11583"/>
<path d="M70.9776 71.1556C70.9436 71.5642 70.7541 71.9442 70.4481 72.2171C70.1421 72.4901 69.743 72.6351 69.3332 72.6223H69.2443C68.6979 72.6761 68.1761 72.8757 67.7332 73.2001V72.8001C68.1599 72.5152 68.6466 72.3327 69.1554 72.2667H69.1998C69.8665 72.2223 70.4887 72.0445 70.622 71.1112C70.6131 71.0826 70.6141 71.0519 70.6247 71.024C70.6354 70.996 70.6551 70.9725 70.6807 70.9571C70.7064 70.9417 70.7364 70.9354 70.7661 70.9392C70.7957 70.9429 70.8233 70.9565 70.8443 70.9778C70.9332 70.9778 70.9776 71.0667 70.9776 71.1556Z" fill="black"/>
<path d="M69.1111 72.4445C69.6444 71.9556 69.6 71.5556 69.5111 70.9778" stroke="black" stroke-width="0.938578" stroke-miterlimit="10" stroke-linecap="round"/>
<path d="M72.4 71.3334H70.2222" stroke="black" stroke-width="3.75431" stroke-miterlimit="10" stroke-linecap="round"/>
<path d="M76.2221 71.6889H72.711C72.62 71.6793 72.5351 71.6387 72.4704 71.574C72.4057 71.5093 72.3651 71.4243 72.3555 71.3333C72.3555 71.239 72.3929 71.1486 72.4596 71.0819C72.5263 71.0152 72.6167 70.9778 72.711 70.9778H76.1333C76.1036 71.2185 76.1342 71.4629 76.2221 71.6889Z" fill="white"/>
<path d="M63.111 73.2L62.8444 72.9333C62.311 72.3111 61.1555 72.2222 60.3999 73.5111L63.111 73.2Z" fill="#D11583"/>
<path d="M72.0887 111.911C71.6603 112.637 71.1852 113.335 70.6665 114" stroke="black" stroke-width="2.81573" stroke-miterlimit="10" stroke-linecap="round"/>
<path d="M70.6665 115.067C71.2065 115.067 71.6443 114.629 71.6443 114.089C71.6443 113.549 71.2065 113.111 70.6665 113.111C70.1265 113.111 69.6887 113.549 69.6887 114.089C69.6887 114.629 70.1265 115.067 70.6665 115.067Z" fill="#57F287"/>
<path d="M75.8665 112C75.9502 111.835 75.9661 111.643 75.9109 111.467C75.8253 111.251 75.7212 111.043 75.5998 110.844V110.711L74.9331 109.556C74.9037 109.514 74.859 109.486 74.809 109.478C74.759 109.47 74.7077 109.482 74.6665 109.511C74.6252 109.541 74.5974 109.585 74.589 109.635C74.5807 109.685 74.5926 109.737 74.622 109.778C74.8545 110.134 75.0624 110.505 75.2443 110.889L75.3331 111.022C75.6887 111.689 75.9109 112.089 75.3331 112.978C75.5394 112.668 75.7179 112.341 75.8665 112V112Z" fill="black"/>
<path d="M77.1999 108.889H77.5999C77.6438 108.654 77.6347 108.413 77.5732 108.182C77.5117 107.951 77.3993 107.737 77.2443 107.556L77.0665 107.244L76.4443 106.133C76.4311 106.111 76.4132 106.092 76.3919 106.078C76.3707 106.064 76.3466 106.054 76.3212 106.05C76.2959 106.045 76.2699 106.047 76.2451 106.054C76.2203 106.06 76.1973 106.072 76.1776 106.089C76.0888 106.133 76.0888 106.222 76.1332 106.311L76.7554 107.422L76.9332 107.733C77.0739 107.886 77.1725 108.073 77.2193 108.276C77.266 108.478 77.2593 108.69 77.1999 108.889V108.889Z" fill="black"/>
<path d="M77.2888 107.956H78.0888" stroke="black" stroke-width="0.938578" stroke-miterlimit="10" stroke-linecap="round"/>
<path d="M72.3999 111.733C72.6824 112.295 73.0754 112.794 73.5555 113.2" stroke="black" stroke-width="0.938578" stroke-miterlimit="10" stroke-linecap="round"/>
<path d="M108.311 94.9778C107.961 94.9689 107.617 95.066 107.324 95.2564C107.03 95.4467 106.801 95.7215 106.667 96.0445L101.422 107.556H100.444L105.689 96.0445C105.823 95.7215 106.052 95.4467 106.346 95.2564C106.639 95.066 106.983 94.9689 107.333 94.9778H108.311Z" fill="black"/>
<path d="M91.5999 106.978H114.444V108.444H92.6221C92.4878 108.444 92.3549 108.418 92.2309 108.367C92.1069 108.315 91.9942 108.24 91.8993 108.145C91.8043 108.05 91.729 107.937 91.6777 107.813C91.6263 107.689 91.5999 107.556 91.5999 107.422V106.978Z" fill="white"/>
<path d="M124.444 94.9778H108.311C107.961 94.9689 107.617 95.066 107.324 95.2564C107.03 95.4467 106.801 95.7215 106.667 96.0445L101.022 108.444H118.311C118.665 108.445 119.011 108.345 119.31 108.156C119.609 107.967 119.848 107.697 120 107.378L125.111 96C125.165 95.8895 125.189 95.7669 125.182 95.6442C125.174 95.5215 125.135 95.4029 125.068 95.2999C125 95.1969 124.908 95.1131 124.798 95.0567C124.689 95.0002 124.567 94.973 124.444 94.9778Z" fill="white"/>
<path d="M113.937 102.766C114.64 102.154 114.833 101.222 114.366 100.685C113.899 100.148 112.949 100.208 112.245 100.82C111.541 101.432 111.349 102.364 111.816 102.901C112.283 103.438 113.233 103.378 113.937 102.766Z" fill="#FFD73B"/>
<path d="M119.555 90.8445H112.755C111.995 90.8445 111.378 91.4613 111.378 92.2223V92.2356C111.378 92.9965 111.995 93.6134 112.755 93.6134H119.555C120.316 93.6134 120.933 92.9965 120.933 92.2356V92.2223C120.933 91.4613 120.316 90.8445 119.555 90.8445Z" fill="#2B2854"/>
<path d="M117.289 94.9778H113.911L114.089 92.4445H116.4L117.289 94.9778Z" fill="#2B2854"/>
<path d="M119.556 90.8445H114.444C113.684 90.8445 113.067 91.4613 113.067 92.2223V92.2356C113.067 92.9965 113.684 93.6134 114.444 93.6134H119.556C120.316 93.6134 120.933 92.9965 120.933 92.2356V92.2223C120.933 91.4613 120.316 90.8445 119.556 90.8445Z" fill="black"/>
<path d="M119.022 94.9778H115.645L114.756 92.4445H118.133L119.022 94.9778Z" fill="black"/>
<path opacity="0.3" d="M58.971 82.3587C59.3847 82.0116 59.2595 81.1815 58.6915 80.5045C58.1235 79.8276 57.3277 79.5603 56.9141 79.9074C56.5004 80.2545 56.6255 81.0846 57.1935 81.7616C57.7615 82.4385 58.5573 82.7058 58.971 82.3587Z" fill="#FF0077"/>
<path opacity="0.3" d="M72.9777 76.3111C72.6666 76.4889 72.4444 77.1111 72.4888 77.8222C72.5333 78.5333 72.8888 79.4222 73.2888 79.4222C73.6888 79.4222 73.8666 79.0222 73.9555 78.4444C74.0444 77.8667 73.3333 77.0222 72.9777 76.3111Z" fill="#FF0077"/>
<path d="M140.578 111.111C140.369 110.967 140.19 110.783 140.053 110.569C139.915 110.356 139.822 110.117 139.778 109.867L139.645 109.022C139.645 108.978 139.6 108.978 139.556 108.978H139.467L139.378 109.822C139.272 110.321 138.987 110.763 138.578 111.067H138.445V111.156L138.578 111.244C138.784 111.381 138.961 111.558 139.098 111.764C139.236 111.97 139.331 112.201 139.378 112.444L139.467 113.289C139.511 113.333 139.511 113.378 139.556 113.378C139.579 113.378 139.602 113.368 139.619 113.352C139.635 113.335 139.645 113.312 139.645 113.289L139.778 112.444C139.817 112.199 139.909 111.964 140.047 111.757C140.185 111.55 140.366 111.375 140.578 111.244L140.667 111.156H140.711C140.711 111.111 140.711 111.067 140.667 111.067L140.578 111.111Z" fill="#808AFF"/>
<path d="M90.0444 81.5111C89.839 81.3778 89.6651 81.2015 89.5346 80.9943C89.4042 80.7871 89.3203 80.554 89.2889 80.3111L89.1556 79.4667C89.1556 79.4431 89.1462 79.4205 89.1295 79.4038C89.1129 79.3872 89.0902 79.3778 89.0667 79.3778V79.3778C89.0431 79.3778 89.0205 79.3872 89.0038 79.4038C88.9871 79.4205 88.9778 79.4431 88.9778 79.4667L88.8444 80.3111C88.813 80.554 88.7292 80.7871 88.5987 80.9943C88.4683 81.2015 88.2943 81.3778 88.0889 81.5111H87.9556V81.6C87.9556 81.6445 88 81.6445 88 81.6889H88.1333C88.34 81.8313 88.5141 82.0158 88.6443 82.2303C88.7746 82.4447 88.8579 82.6844 88.8889 82.9334L89.0222 83.7778C89.0222 83.8223 89.0667 83.8223 89.1111 83.8223C89.1556 83.8223 89.2 83.8223 89.2 83.7778L89.3333 82.9334C89.3643 82.6844 89.4477 82.4447 89.5779 82.2303C89.7081 82.0158 89.8823 81.8313 90.0889 81.6889H90.2222C90.2222 81.6445 90.2667 81.6445 90.2667 81.6V81.5111H90.0444Z" fill="#FFB619"/>
<path d="M168.355 20.7555C167.961 20.5074 167.625 20.176 167.371 19.7845C167.118 19.3929 166.953 18.9507 166.889 18.4889L166.667 16.9333C166.667 16.8444 166.578 16.8 166.489 16.8C166.453 16.8 166.42 16.814 166.395 16.839C166.37 16.864 166.355 16.898 166.355 16.9333L166.089 18.4889C166.024 18.9453 165.864 19.3829 165.619 19.7734C165.374 20.1639 165.049 20.4985 164.667 20.7555L164.444 20.8889L164.355 21.0222C164.355 21.0667 164.4 21.1555 164.444 21.1555L164.667 21.2889C165.046 21.5499 165.367 21.8856 165.612 22.2754C165.856 22.6651 166.019 23.1008 166.089 23.5555L166.355 25.1555C166.367 25.1862 166.384 25.214 166.407 25.2371C166.43 25.2601 166.458 25.2778 166.489 25.2889V25.2889C166.529 25.2902 166.569 25.2776 166.601 25.2534C166.633 25.2292 166.657 25.1947 166.667 25.1555L166.889 23.5555C166.959 23.0955 167.126 22.6555 167.379 22.2648C167.632 21.874 167.965 21.5414 168.355 21.2889L168.578 21.1555C168.622 21.1555 168.622 21.0667 168.622 21.0222C168.624 20.9981 168.621 20.9739 168.614 20.951C168.606 20.928 168.594 20.9069 168.578 20.8889L168.355 20.7555Z" fill="#3442D9"/>
<path d="M42.8 40.6667C42.613 40.5387 42.4537 40.3743 42.3315 40.1834C42.2093 39.9925 42.1268 39.779 42.0889 39.5556L41.9556 38.7556C41.9556 38.7438 41.9509 38.7325 41.9426 38.7241C41.9342 38.7158 41.9229 38.7111 41.9111 38.7111V38.7111C41.8667 38.7111 41.8223 38.7111 41.8223 38.7556L41.6889 39.5556C41.659 39.7816 41.5799 39.9982 41.457 40.1902C41.3341 40.3822 41.1705 40.5449 40.9778 40.6667L40.8445 40.7556V40.8889H40.9778C41.1759 41.0153 41.3428 41.1849 41.466 41.3851C41.5892 41.5852 41.6654 41.8106 41.6889 42.0445L41.8223 42.8L41.9111 42.8889V42.8L42.0445 42.0445C42.0767 41.8131 42.1565 41.591 42.2789 41.3921C42.4013 41.1932 42.5636 41.0219 42.7556 40.8889H42.8889V40.8L42.8 40.6667Z" fill="#459FF7"/>
<path d="M90.9333 36.8889C90.5424 36.6363 90.2095 36.3037 89.9567 35.913C89.7039 35.5222 89.5369 35.0823 89.4667 34.6222L89.2445 33.0666C89.2 32.9777 89.1556 32.8889 89.0667 32.8889C88.9778 32.8889 88.9333 32.9777 88.9333 33.0666L88.6667 34.6222C88.5965 35.0823 88.4295 35.5222 88.1766 35.913C87.9238 36.3037 87.5909 36.6363 87.2 36.8889L87.0222 37.0222C86.9778 37.0222 86.9333 37.1111 86.9333 37.1555C86.9333 37.2 86.9778 37.2444 87.0222 37.2889L87.2 37.4222C87.5949 37.6703 87.9307 38.0017 88.1841 38.3933C88.4374 38.7848 88.6021 39.227 88.6667 39.6889L88.9333 41.2444C88.9333 41.2798 88.9474 41.3137 88.9724 41.3387C88.9974 41.3637 89.0313 41.3777 89.0667 41.3777V41.3777C89.1556 41.3777 89.2 41.3333 89.2445 41.2444L89.4667 39.6889C89.5312 39.227 89.6959 38.7848 89.9493 38.3933C90.2026 38.0017 90.5385 37.6703 90.9333 37.4222L91.1111 37.2889C91.1556 37.2444 91.2 37.2 91.2 37.1555C91.2 37.1111 91.1556 37.0222 91.1111 37.0222L90.9333 36.8889Z" fill="#57F287"/>
<path d="M154.756 72.8445C154.64 72.769 154.542 72.671 154.465 72.5565C154.389 72.4419 154.337 72.3131 154.311 72.1778V71.6889H154.222C154.211 71.6889 154.199 71.6936 154.191 71.7019C154.183 71.7103 154.178 71.7216 154.178 71.7333L154.089 72.2222C154.072 72.3604 154.023 72.4927 153.946 72.6085C153.869 72.7243 153.766 72.8203 153.645 72.8889V72.8889C153.771 72.9511 153.878 73.0455 153.956 73.1626C154.034 73.2796 154.08 73.4152 154.089 73.5556L154.178 74H154.267V73.5556C154.287 73.4184 154.337 73.2874 154.414 73.1721C154.491 73.0568 154.592 72.9601 154.711 72.8889L154.756 72.8445Z" fill="#8CD9FF"/>
<defs>
<linearGradient id="paint0_linear" x1="122.889" y1="2.71554" x2="122.889" y2="46.6844" gradientUnits="userSpaceOnUse">
<stop stop-color="#FFE75C"/>
<stop offset="1" stop-color="#5865F2"/>
</linearGradient>
</defs>
</svg>
