<svg width="272" height="145" viewBox="0 0 272 145" fill="none" xmlns="http://www.w3.org/2000/svg">
<g clip-path="url(#clip0)">
<path d="M253 96H130V145H253V96Z" fill="#D8DBDF"/>
<path d="M40 21H38V36H40V21Z" fill="#7C8794"/>
<path d="M24 20H21V36H24V20Z" fill="#828C98"/>
<path d="M31 25C37.6274 25 43 19.6274 43 13C43 6.37258 37.6274 1 31 1C24.3726 1 19 6.37258 19 13C19 19.6274 24.3726 25 31 25Z" fill="#C8CFD6"/>
<path d="M40.2939 6C39.3753 9.75252 37.1546 13.0956 33.995 15.4828C30.8353 17.87 26.9236 19.16 22.8991 19.1421L20 18.957C21.3181 21.2279 23.3848 23.0165 25.8769 24.0433C28.369 25.07 31.1461 25.277 33.774 24.632C36.402 23.9869 38.7328 22.5261 40.4019 20.4779C42.0711 18.4297 42.9846 15.9096 42.9997 13.3114C43.0193 10.6461 42.0618 8.05861 40.2939 6V6Z" fill="#AAB3BD"/>
<path d="M32 21C32.2652 21 32.5196 21.1253 32.7071 21.3483C32.8946 21.5712 33 21.8737 33 22.189V36H31V22.189C31 21.8737 31.1054 21.5712 31.2929 21.3483C31.4804 21.1253 31.7348 21 32 21V21Z" fill="#7C8794"/>
<path d="M188 76H185V91H188V76Z" fill="#4F5660"/>
<path d="M163.443 89H211.46C211.869 89 212.26 89.1573 212.549 89.4374C212.838 89.7174 213 90.0973 213 90.4933V96H162V90.4933C161.999 90.1129 162.148 89.7466 162.416 89.4691C162.685 89.1915 163.052 89.0238 163.443 89V89Z" fill="#A1ADBA"/>
<path d="M180.532 89H211.468C211.874 89 212.264 89.1573 212.551 89.4374C212.839 89.7174 213 90.0973 213 90.4933V96H179V90.4933C179 90.0973 179.161 89.7174 179.449 89.4374C179.736 89.1573 180.126 89 180.532 89Z" fill="#97A1AE"/>
<path d="M186.5 77C192.299 77 197 72.299 197 66.5C197 60.701 192.299 56 186.5 56C180.701 56 176 60.701 176 66.5C176 72.299 180.701 77 186.5 77Z" fill="#BCC2C8"/>
<path d="M181 75.5591C182.174 76.2576 183.484 76.7152 184.85 76.9031C186.216 77.0909 187.607 77.0051 188.937 76.6509C190.288 76.3418 191.561 75.7776 192.684 74.9909C193.806 74.2042 194.755 73.2108 195.476 72.0682C196.197 70.9257 196.675 69.6567 196.882 68.3349C197.09 67.013 197.023 65.6647 196.685 64.368C196.144 62.2874 194.957 60.415 193.283 59C194.323 66.8246 186.953 73.1025 181 75.5591Z" fill="#A6ADB6"/>
<path d="M182.944 62.2955C183.691 61.5483 183.933 60.5791 183.485 60.1307C183.037 59.6824 182.067 59.9247 181.32 60.6719C180.573 61.4192 180.331 62.3884 180.779 62.8367C181.227 63.285 182.197 63.0427 182.944 62.2955Z" fill="white"/>
<path d="M12.6427 69H93.3573C94.3234 69 95.2499 69.3813 95.9331 70.06C96.6162 70.7387 97 71.6592 97 72.619V145H9V72.619C9 71.6592 9.38378 70.7387 10.0669 70.06C10.7501 69.3813 11.6766 69 12.6427 69Z" fill="#9BA3AD"/>
<path d="M47 69.0013C46.5293 68.9887 46.0608 69.0696 45.6222 69.2392C45.1837 69.4089 44.7839 69.6638 44.4465 69.989C44.1091 70.3142 43.841 70.703 43.658 71.1325C43.475 71.562 43.3808 72.0234 43.381 72.4895V87.4797C43.3827 87.6947 43.3379 87.9076 43.2497 88.1041C43.1615 88.3006 43.0319 88.4761 42.8696 88.619C42.7072 88.7618 42.5159 88.8687 42.3084 88.9323C42.101 88.996 41.8822 89.015 41.6667 88.9882L9 85.4056V72.4895C8.99983 72.0234 9.09403 71.562 9.27705 71.1325C9.46006 70.703 9.72817 70.3142 10.0655 69.989C10.4029 69.6638 10.8027 69.4089 11.2413 69.2392C11.6799 69.0696 12.1483 68.9887 12.619 69.0013H47Z" fill="#828C98"/>
<path d="M156 145H60L60 71.6667C60 70.6942 60.3813 69.7616 61.06 69.074C61.7387 68.3863 62.6592 68 63.6191 68L152.381 68C153.341 68 154.261 68.3863 154.94 69.074C155.619 69.7616 156 70.6942 156 71.6667V145V145Z" fill="#747F8D"/>
<path d="M63.9595 72H152.041C152.295 72 152.539 72.1017 152.719 72.2827C152.899 72.4637 153 72.7093 153 72.9653V97H63V72.9653C63 72.7093 63.1011 72.4637 63.281 72.2827C63.461 72.1017 63.705 72 63.9595 72Z" fill="#87919D"/>
<path d="M126 93C127.105 93 128 92.1046 128 91C128 89.8954 127.105 89 126 89C124.895 89 124 89.8954 124 91C124 92.1046 124.895 93 126 93Z" fill="#687282"/>
<path d="M135.5 93C136.881 93 138 92.1046 138 91C138 89.8954 136.881 89 135.5 89C134.119 89 133 89.8954 133 91C133 92.1046 134.119 93 135.5 93Z" fill="#687282"/>
<path d="M145 93C146.105 93 147 92.1046 147 91C147 89.8954 146.105 89 145 89C143.895 89 143 89.8954 143 91C143 92.1046 143.895 93 145 93Z" fill="#687282"/>
<path d="M126 85C127.105 85 128 84.1046 128 83C128 81.8954 127.105 81 126 81C124.895 81 124 81.8954 124 83C124 84.1046 124.895 85 126 85Z" fill="#687282"/>
<path d="M135.5 85C136.881 85 138 84.1046 138 83C138 81.8954 136.881 81 135.5 81C134.119 81 133 81.8954 133 83C133 84.1046 134.119 85 135.5 85Z" fill="#687282"/>
<path d="M145 85C146.105 85 147 84.1046 147 83C147 81.8954 146.105 81 145 81C143.895 81 143 81.8954 143 83C143 84.1046 143.895 85 145 85Z" fill="#687282"/>
<path d="M63 100H153V131.033C153 131.29 152.899 131.536 152.719 131.717C152.54 131.898 152.296 132 152.042 132H63.9585C63.7043 132 63.4605 131.898 63.2807 131.717C63.101 131.536 63 131.29 63 131.033V100Z" fill="#87919D"/>
<path d="M144.927 104H123.073C122.48 104 122 104.475 122 105.061V126.939C122 127.525 122.48 128 123.073 128H144.927C145.52 128 146 127.525 146 126.939V105.061C146 104.475 145.52 104 144.927 104Z" fill="#747F8D"/>
<path d="M153 97H63V100H153V97Z" fill="#687282"/>
<path d="M39.6494 36H1.35059C0.604679 36 0 36.5879 0 37.313V66.687C0 67.4121 0.604679 68 1.35059 68H39.6494C40.3953 68 41 67.4121 41 66.687V37.313C41 36.5879 40.3953 36 39.6494 36Z" fill="#C5CDD4"/>
<path d="M37.3359 69L134.664 69C135.402 69 136 68.3938 136 67.646V37.354C136 36.6062 135.402 36 134.664 36L37.3359 36C36.5981 36 36 36.6062 36 37.354V67.646C36 68.3938 36.5981 69 37.3359 69Z" fill="#B1B9C2"/>
<path d="M70.1608 41H42.8392C42.3757 41 42 41.3898 42 41.8707V62.1293C42 62.6102 42.3757 63 42.8392 63H70.1608C70.6243 63 71 62.6102 71 62.1293V41.8707C71 41.3898 70.6243 41 70.1608 41Z" fill="#828C98"/>
<path d="M57.9032 60C56.3129 60 55.2839 57.8989 54.2548 52.5506C53.6 49.3034 52.6645 44.9101 52.0097 44.9101C51.3548 44.9101 50.2323 46.8202 49.8581 47.5843C49.4839 48.3483 49.5774 47.9663 49.5774 48.1573C47.9871 51.118 46.3968 53.3146 42 53.3146V51.4045C45.4613 51.4045 46.4903 49.8764 47.8936 47.2022L48.1742 46.7247C48.9226 45.1966 50.1387 43 52.0097 43C53.8806 43 54.8161 46.0562 56.0323 52.1685C56.9677 56.6573 57.7161 57.8034 57.9968 58.0899C58.2774 58.3764 59.0258 56.6573 60.1484 52.073C61.271 47.4888 62.3 46.0562 63.9839 45.7697C65.6677 45.4831 66.1355 46.0562 67.1645 47.3933L68.1 48.8258C69.0355 50.4494 69.6903 51.4045 71 51.4045V53.3146C68.4742 53.3146 67.3516 51.309 66.4161 49.7809C66.2449 49.3513 65.9904 48.9614 65.6677 48.6348C65.1065 47.8708 64.6387 47.5843 64.3581 47.5843C64.0774 47.5843 63.0484 48.0618 61.9258 52.5506C60.8032 57.0393 59.4935 60 57.9032 60Z" fill="#9AA2AC"/>
<path d="M85 54C88.3137 54 91 51.0899 91 47.5C91 43.9101 88.3137 41 85 41C81.6863 41 79 43.9101 79 47.5C79 51.0899 81.6863 54 85 54Z" fill="#687282"/>
<path d="M81.5 63C82.8807 63 84 61.8807 84 60.5C84 59.1193 82.8807 58 81.5 58C80.1193 58 79 59.1193 79 60.5C79 61.8807 80.1193 63 81.5 63Z" fill="#FFC9FF"/>
<path d="M88.5 63C89.8807 63 91 61.8807 91 60.5C91 59.1193 89.8807 58 88.5 58C87.1193 58 86 59.1193 86 60.5C86 61.8807 87.1193 63 88.5 63Z" fill="#FFC9FF"/>
<path d="M100.368 41H99.6316C99.2828 41 99 41.2632 99 41.5878V55.4122C99 55.7368 99.2828 56 99.6316 56H100.368C100.717 56 101 55.7368 101 55.4122V41.5878C101 41.2632 100.717 41 100.368 41Z" fill="#687282"/>
<path d="M110.368 41H109.632C109.283 41 109 41.2632 109 41.5878V55.4122C109 55.7368 109.283 56 109.632 56H110.368C110.717 56 111 55.7368 111 55.4122V41.5878C111 41.2632 110.717 41 110.368 41Z" fill="#687282"/>
<path d="M120.368 41H119.632C119.283 41 119 41.2632 119 41.5878V55.4122C119 55.7368 119.283 56 119.632 56H120.368C120.717 56 121 55.7368 121 55.4122V41.5878C121 41.2632 120.717 41 120.368 41Z" fill="#687282"/>
<path d="M130.368 41H129.632C129.283 41 129 41.2632 129 41.5878V55.4122C129 55.7368 129.283 56 129.632 56H130.368C130.717 56 131 55.7368 131 55.4122V41.5878C131 41.2632 130.717 41 130.368 41Z" fill="#687282"/>
<path d="M102.053 50H97.9474C97.4242 50 97 50.3754 97 50.8385V52.1615C97 52.6246 97.4242 53 97.9474 53H102.053C102.576 53 103 52.6246 103 52.1615V50.8385C103 50.3754 102.576 50 102.053 50Z" fill="#D5DBE3"/>
<path d="M112.053 44H107.947C107.424 44 107 44.5006 107 45.118V46.882C107 47.4994 107.424 48 107.947 48H112.053C112.576 48 113 47.4994 113 46.882V45.118C113 44.5006 112.576 44 112.053 44Z" fill="#D5DBE3"/>
<path d="M122.053 52H117.947C117.424 52 117 52.3754 117 52.8385V54.1615C117 54.6246 117.424 55 117.947 55H122.053C122.576 55 123 54.6246 123 54.1615V52.8385C123 52.3754 122.576 52 122.053 52Z" fill="#D5DBE3"/>
<path d="M132.053 50H127.947C127.424 50 127 50.3754 127 50.8385V52.1615C127 52.6246 127.424 53 127.947 53H132.053C132.576 53 133 52.6246 133 52.1615V50.8385C133 50.3754 132.576 50 132.053 50Z" fill="#D5DBE3"/>
<path d="M40.7471 6.98983C40.1233 4.99886 38.7825 3.31148 36.9854 2.25593C36.0185 1.69845 34.9801 1.2759 33.899 1C36.3663 2.44625 38.1675 4.80556 38.9145 7.56949C39.2204 8.64552 39.1004 9.79828 38.5795 10.788C38.0585 11.7776 37.1766 12.528 36.1174 12.883C35.0681 13.2241 33.9275 13.1426 32.9372 12.6556C31.947 12.1687 31.1849 11.3147 30.8126 10.2746C30.041 8.34237 28.0155 3.41525 24.6397 2.25593L23 3.41525C25.99 3.80169 27.8226 7.85932 28.98 10.9508C29.5464 12.4441 30.6598 13.665 32.0933 14.365C33.5268 15.065 35.1728 15.1914 36.6961 14.7186C38.2401 14.208 39.5257 13.1166 40.2815 11.6745C41.0373 10.2325 41.2042 8.55278 40.7471 6.98983V6.98983Z" fill="#A6AFBD"/>
<path d="M97.1415 75H67.8585C67.3843 75 67 75.3959 67 75.8843V92.1157C67 92.6041 67.3843 93 67.8585 93H97.1415C97.6157 93 98 92.6041 98 92.1157V75.8843C98 75.3959 97.6157 75 97.1415 75Z" fill="#4F5660"/>
<path d="M74.5 90C77.5376 90 80 87.5376 80 84.5C80 81.4624 77.5376 79 74.5 79C71.4624 79 69 81.4624 69 84.5C69 87.5376 71.4624 90 74.5 90Z" fill="#3E444D"/>
<path d="M74 86C75.1046 86 76 85.1046 76 84C76 82.8954 75.1046 82 74 82C72.8954 82 72 82.8954 72 84C72 85.1046 72.8954 86 74 86Z" fill="#323740"/>
<path d="M75 81.7654C75 81.9615 74.8182 82.0596 74.6364 81.9615H73.2727C73.0909 82.0596 73 81.9615 73 81.7654V81.5692L73.1818 80.1961L73.3636 80H74.5455L74.7273 80.1961L74.9091 81.5692L75 81.7654Z" fill="#323740"/>
<path d="M76.1858 86.658C76.1473 86.6693 76.1066 86.6622 76.0726 86.6382C76.0386 86.6141 76.0141 86.5751 76.0045 86.5298C75.9948 86.4844 76.0009 86.4364 76.0213 86.3963C76.0417 86.3562 76.0748 86.3274 76.1133 86.316L76.3308 86.0595C76.4034 85.974 76.4759 85.8885 76.4759 85.803C76.5508 85.7076 76.6012 85.589 76.6209 85.461C76.6472 85.4263 76.6672 85.3857 76.6796 85.3416C76.6921 85.2975 76.6968 85.2509 76.6935 85.2045C76.6935 85.0335 76.8385 84.948 76.9836 85.0335H77.0561L77.9264 85.803C77.9527 85.8377 77.9726 85.8784 77.9851 85.9225C77.9976 85.9666 78.0023 86.0132 77.999 86.0595L77.7814 86.5725L77.4913 87H77.2737L76.2583 86.487L76.1858 86.658Z" fill="#323740"/>
<path d="M71.0687 85.0267C71.0875 85.0133 71.1089 85.0046 71.1313 85.0014C71.1538 84.9982 71.1766 85.0005 71.1981 85.0081C71.2195 85.0157 71.2391 85.0285 71.2552 85.0454C71.2713 85.0623 71.2836 85.0829 71.2911 85.1056C71.3413 85.2022 71.3669 85.311 71.3652 85.4213C71.4394 85.5003 71.4394 85.6581 71.5135 85.7371C71.5877 85.816 71.6618 85.8949 71.6618 85.9739L71.8842 86.2107C71.9037 86.2159 71.922 86.2251 71.9381 86.2378C71.9543 86.2505 71.9679 86.2665 71.9782 86.2848C71.9885 86.3031 71.9954 86.3235 71.9983 86.3446C72.0013 86.3657 72.0003 86.3873 71.9954 86.408C71.9906 86.4287 71.9819 86.4482 71.97 86.4654C71.958 86.4826 71.943 86.4971 71.9258 86.5081C71.9086 86.5191 71.8895 86.5264 71.8697 86.5295C71.8498 86.5326 71.8296 86.5316 71.8101 86.5264H71.7359L70.698 87H70.4756L70.2531 86.6053L70.0307 86.1317C69.9566 86.0528 70.0307 85.9739 70.1049 85.8949L70.9204 85.1846L71.0687 85.0267Z" fill="#323740"/>
<path d="M90.5 90C93.5376 90 96 87.5376 96 84.5C96 81.4624 93.5376 79 90.5 79C87.4624 79 85 81.4624 85 84.5C85 87.5376 87.4624 90 90.5 90Z" fill="#3E444D"/>
<path d="M90.5 86C91.3284 86 92 85.1046 92 84C92 82.8954 91.3284 82 90.5 82C89.6716 82 89 82.8954 89 84C89 85.1046 89.6716 86 90.5 86Z" fill="#323740"/>
<path d="M93.335 83.0559C93.2982 83.0201 93.2483 83 93.1962 83C93.1442 83 93.0943 83.0201 93.0575 83.0559C93.0207 83.0916 93 83.1402 93 83.1907C93 83.2413 93.0207 83.2899 93.0575 83.3256C93.0575 83.4155 93.15 83.5055 93.15 83.5954V84.4046C93.1542 84.4533 93.1482 84.5024 93.1323 84.5488C93.1164 84.5951 93.0909 84.6379 93.0575 84.6744C93.0207 84.7102 93 84.7587 93 84.8093C93 84.8598 93.0207 84.9084 93.0575 84.9441C93.0943 84.9799 93.1442 85 93.1962 85C93.2483 85 93.2982 84.9799 93.335 84.9441H93.4275L94.815 84.7643C94.8641 84.7643 94.9111 84.7454 94.9458 84.7116C94.9805 84.6779 95 84.6322 95 84.5845V83.4155C95 83.3678 94.9805 83.3221 94.9458 83.2884C94.9111 83.2547 94.8641 83.2357 94.815 83.2357L93.4275 83.0559H93.335Z" fill="#323740"/>
<path d="M88.5183 81.8623C88.5183 82.0285 88.7511 82.0285 88.8287 81.9454L88.984 81.6962L89.2944 81.53L89.6049 81.3638H89.8378C89.993 81.3638 90.0706 81.1976 89.9154 81.0315H89.8378L89.1392 80.1175C89.1392 80.0344 89.0616 79.9513 88.984 80.0344C88.9064 80.1175 88.6735 80.1175 88.5183 80.2837L88.0526 80.5329C88.036 80.5485 88.0228 80.5677 88.0138 80.5892C88.0047 80.6107 88 80.634 88 80.6576C88 80.6811 88.0047 80.7045 88.0138 80.7259C88.0228 80.7474 88.036 80.7666 88.0526 80.7822L88.4407 81.9454L88.5183 81.8623Z" fill="#323740"/>
<path d="M89.9684 87.3119C90.0489 87.0868 89.9684 86.8617 89.8074 86.8617H89.5658C89.5033 86.8617 89.4416 86.8414 89.3857 86.8023C89.3298 86.7632 89.2812 86.7065 89.2437 86.6366L88.9216 86.4115L88.7605 86.0739C88.68 85.9614 88.4384 85.9614 88.4384 86.1865V86.4115L88.0358 87.8746C87.9553 87.9871 88.0358 88.0997 88.0358 88.2122L88.5189 88.6624L89.0021 88.8875C89.0021 88.9173 89.0106 88.9459 89.0257 88.967C89.0408 88.9881 89.0613 89 89.0826 89C89.104 89 89.1245 88.9881 89.1396 88.967C89.1547 88.9459 89.1632 88.9173 89.1632 88.8875L89.9684 87.537V87.3119Z" fill="#323740"/>
<path d="M109 93C112.314 93 115 90.3137 115 87C115 83.6863 112.314 81 109 81C105.686 81 103 83.6863 103 87C103 90.3137 105.686 93 109 93Z" fill="#626B7A"/>
<path d="M86.8387 104H68.1613C67.5199 104 67 104.496 67 105.107V114.893C67 115.504 67.5199 116 68.1613 116H86.8387C87.4801 116 88 115.504 88 114.893V105.107C88 104.496 87.4801 104 86.8387 104Z" fill="#9DE4D1"/>
<path d="M96.106 116H113.894C114.505 116 115 115.504 115 114.893V105.107C115 104.496 114.505 104 113.894 104H96.106C95.4952 104 95 104.496 95 105.107V114.893C95 115.504 95.4952 116 96.106 116Z" fill="#9DE4D1"/>
<path d="M100 116H110C109.556 115.104 108.843 114.345 107.948 113.813C107.053 113.282 106.012 112.999 104.949 113C103.901 113.006 102.877 113.292 101.999 113.824C101.121 114.356 100.427 115.111 100 116V116Z" fill="#747F8D"/>
<path d="M72 116H82C81.5582 115.104 80.8526 114.346 79.9667 113.814C79.0807 113.282 78.0513 113 77 113C75.9487 113 74.9193 113.282 74.0333 113.814C73.1474 114.346 72.4418 115.104 72 116Z" fill="#747F8D"/>
<path d="M104 115.455L102.88 116L100 108.364L100.72 108L104 115.455Z" fill="#747F8D"/>
<path d="M78.4516 116L77 115.707L79.0323 107L80 107.196L78.4516 116Z" fill="#747F8D"/>
<path d="M71 128C73.2091 128 75 126.209 75 124C75 121.791 73.2091 120 71 120C68.7909 120 67 121.791 67 124C67 126.209 68.7909 128 71 128Z" fill="#747F8D"/>
<path d="M83.5 128C85.9853 128 88 126.209 88 124C88 121.791 85.9853 120 83.5 120C81.0147 120 79 121.791 79 124C79 126.209 81.0147 128 83.5 128Z" fill="#747F8D"/>
<path d="M99 128C101.209 128 103 126.209 103 124C103 121.791 101.209 120 99 120C96.7909 120 95 121.791 95 124C95 126.209 96.7909 128 99 128Z" fill="#747F8D"/>
<path d="M111 128C113.209 128 115 126.209 115 124C115 121.791 113.209 120 111 120C108.791 120 107 121.791 107 124C107 126.209 108.791 128 111 128Z" fill="#747F8D"/>
<path d="M84.5726 100.806H76.4406C75.0056 91.7173 67.3519 84.0637 58.5503 82.2459C59.8691 81.9456 61.216 81.7853 62.5684 81.7676C72.9965 81.7676 82.9462 90.3779 84.5726 100.806Z" fill="#687282"/>
<path d="M88.782 144.815C98.062 144.815 104.376 137.257 102.846 127.977C101.315 118.697 92.6088 111.139 83.3288 111.139H76.8232L82.1808 144.815H88.782Z" fill="#4F5660"/>
<path d="M88.6862 112H78.2582L76.4404 100.806H86.8685L88.6862 112Z" fill="#687282"/>
<path d="M88.6861 112H86.39L84.5723 100.806H86.8684L88.6861 112Z" fill="#BEC3CC"/>
<path d="M92.8384 140.362C98.6432 134.072 97.368 123.453 89.9901 116.645C82.6123 109.837 71.9256 109.417 66.1209 115.708C60.3161 121.999 61.5913 132.617 68.9691 139.425C76.347 146.233 87.0336 146.653 92.8384 140.362Z" fill="#40464F"/>
<path d="M86.2297 134.264C89.1679 131.08 88.5279 125.71 84.8001 122.27C81.0724 118.83 75.6685 118.623 72.7303 121.807C69.7921 124.991 70.4321 130.361 74.1599 133.801C77.8876 137.241 83.2915 137.448 86.2297 134.264Z" fill="#323740"/>
<path d="M84.6639 135.895C87.5898 134.983 88.8663 130.728 87.515 126.389C86.1638 122.051 82.6964 119.273 79.7705 120.184C76.8446 121.095 75.5681 125.351 76.9193 129.689C78.2706 134.028 81.738 136.806 84.6639 135.895Z" fill="#2C3038"/>
<path d="M55.1057 144.815C64.3858 144.815 70.7 137.257 69.2649 127.977C67.8299 118.697 58.9326 111.139 49.7482 111.139H43.147L48.6002 144.815H55.1057Z" fill="#4F5660"/>
<path d="M48.9829 114.965H38.5549L36.2588 100.806H46.6868L48.9829 114.965Z" fill="#E4E6E8"/>
<path d="M48.5045 112H46.3041L44.4863 100.806H46.6867L48.5045 112Z" fill="#BEC3CC"/>
<path d="M59.2549 140.263C65.0597 133.972 63.7845 123.354 56.4066 116.545C49.0288 109.737 38.3421 109.318 32.5374 115.608C26.7326 121.899 28.0078 132.518 35.3856 139.326C42.7635 146.134 53.4501 146.553 59.2549 140.263Z" fill="#E4E6E8"/>
<path d="M44.4866 100.806H36.3546C34.4412 89.1344 42.4775 79.5674 54.1493 79.5674H62.1856C50.6095 79.5674 42.5732 89.1344 44.4866 100.806Z" fill="#E4E6E8"/>
<path d="M51.7928 136.224C55.6627 132.031 54.8021 124.942 49.8705 120.391C44.939 115.841 37.8041 115.551 33.9342 119.745C30.0644 123.939 30.925 131.027 35.8565 135.578C40.788 140.129 47.923 140.418 51.7928 136.224Z" fill="#BDC5CF"/>
<path d="M41.6167 135.056L37.2158 131.707C36.9288 131.516 37.1202 131.133 37.5028 131.133H44.9651C45.3478 131.133 45.4435 131.612 45.1565 131.899L42.095 134.96C41.9037 135.056 41.7123 135.151 41.6167 135.056Z" fill="white"/>
<path d="M86.8684 100.806H84.5723C82.9459 90.3781 72.9962 81.7678 62.5682 81.7678C52.1402 81.7678 44.9649 90.3781 46.687 100.806H44.4865C42.5731 89.1344 50.6094 79.5674 62.1855 79.5674C73.7616 79.5674 84.955 89.1344 86.8684 100.806Z" fill="#E9EBED"/>
<path d="M86.8684 100.806H84.5723C82.9459 90.3781 72.9962 81.7678 62.5682 81.7678C52.1402 81.7678 44.9649 90.3781 46.687 100.806H44.4865C42.5731 89.1344 50.6094 79.5674 62.1855 79.5674C73.7616 79.5674 84.955 89.1344 86.8684 100.806Z" fill="#BEC3CC"/>
<path d="M269.746 123H269.263L237.723 109.343C237.452 109.201 237.237 108.972 237.114 108.692C236.991 108.412 236.967 108.1 237.046 107.805C237.097 107.644 237.183 107.497 237.298 107.373C237.413 107.249 237.554 107.151 237.71 107.087C237.867 107.023 238.036 106.994 238.205 107.001C238.375 107.009 238.54 107.053 238.691 107.132L270.23 120.692C270.379 120.745 270.515 120.828 270.631 120.935C270.747 121.042 270.839 121.172 270.903 121.316C270.966 121.46 270.999 121.616 271 121.773C271.001 121.93 270.969 122.086 270.907 122.231C270.812 122.458 270.65 122.653 270.444 122.79C270.237 122.927 269.995 123 269.746 123V123Z" fill="#E9EBED"/>
<path d="M165.641 142C160.702 141.988 155.924 140.252 152.141 137.096C148.358 133.939 145.811 129.563 144.943 124.73C143.804 118.407 143.139 112.367 142.474 106.987L142.284 104.817C141.888 101.388 140.237 98.224 137.646 95.9269C135.055 93.6297 131.704 92.36 128.232 92.3594H126.143C125.841 92.3594 125.551 92.24 125.338 92.0276C125.124 91.8153 125.004 91.5272 125.004 91.2269C124.991 91.0704 125.011 90.9129 125.062 90.7644C125.113 90.616 125.195 90.4797 125.302 90.3643C125.409 90.249 125.539 90.157 125.684 90.0943C125.829 90.0316 125.985 89.9995 126.143 90H128.232C132.287 89.9965 136.202 91.4756 139.231 94.1556C142.26 96.8357 144.192 100.53 144.658 104.534L144.848 106.704C145.513 111.989 146.177 118.029 147.317 124.352C147.774 127.243 148.94 129.977 150.712 132.314C152.483 134.651 154.806 136.519 157.476 137.753C160.16 139.068 163.123 139.721 166.115 139.655C169.107 139.589 172.038 138.807 174.661 137.376C184.156 132.185 193.366 131.808 202.766 131.808C202.923 131.795 203.082 131.814 203.231 131.865C203.38 131.916 203.517 131.998 203.633 132.104C203.75 132.211 203.842 132.34 203.905 132.484C203.968 132.628 204.001 132.783 204 132.94C204 133.266 203.87 133.578 203.638 133.808C203.407 134.038 203.093 134.167 202.766 134.167C191.562 134.167 183.966 135.016 175.801 139.452C172.677 141.119 169.187 141.994 165.641 142V142Z" fill="#42454D"/>
<path d="M269.002 126L267.845 125.717L258.591 121.848L255.218 124.207C255.055 124.329 254.865 124.409 254.663 124.442C254.462 124.475 254.255 124.459 254.061 124.396L234.685 116.187C234.545 116.126 234.419 116.038 234.314 115.929C234.209 115.82 234.127 115.691 234.074 115.551C234.02 115.41 233.995 115.261 234.001 115.111C234.007 114.961 234.043 114.814 234.107 114.677C234.16 114.532 234.243 114.399 234.351 114.286C234.458 114.173 234.588 114.083 234.733 114.021C234.877 113.96 235.033 113.927 235.19 113.926C235.348 113.926 235.504 113.956 235.649 114.017L254.35 121.943L257.724 119.49C257.912 119.382 258.122 119.318 258.339 119.302C258.556 119.286 258.774 119.318 258.977 119.395L268.809 123.547C268.872 123.577 268.94 123.594 269.01 123.596C269.08 123.598 269.149 123.585 269.214 123.558C269.278 123.531 269.335 123.491 269.382 123.44C269.429 123.389 269.463 123.329 269.484 123.264C269.515 123.202 269.532 123.135 269.534 123.067C269.536 122.999 269.523 122.931 269.495 122.868C269.468 122.805 269.427 122.749 269.375 122.703C269.323 122.658 269.262 122.623 269.195 122.603L237.77 109.299C237.499 109.16 237.285 108.934 237.163 108.66C237.04 108.386 237.016 108.079 237.095 107.789C237.146 107.632 237.232 107.487 237.347 107.366C237.461 107.244 237.601 107.148 237.757 107.085C237.914 107.022 238.082 106.994 238.251 107.001C238.419 107.009 238.584 107.052 238.734 107.129L270.159 120.433C270.533 120.57 270.873 120.784 271.156 121.061C271.439 121.338 271.658 121.671 271.798 122.037C271.946 122.383 272.014 122.758 271.998 123.133C271.981 123.508 271.88 123.875 271.701 124.207C271.488 124.737 271.116 125.192 270.635 125.512C270.153 125.831 269.584 126.002 269.002 126V126Z" fill="#A8B0B5"/>
<path d="M231.052 126.883L226 124.96L229.402 118L234.454 119.923C234.595 119.968 234.72 120.047 234.814 120.15C234.909 120.253 234.971 120.377 234.992 120.509C235.013 120.641 234.993 120.775 234.935 120.898C234.876 121.021 234.781 121.127 234.66 121.205C233.83 121.766 233.175 122.507 232.76 123.357C232.345 124.207 232.183 125.137 232.289 126.059V126.059C232.337 126.203 232.334 126.356 232.281 126.498C232.228 126.64 232.128 126.764 231.993 126.853C231.858 126.943 231.696 126.994 231.528 127C231.359 127.005 231.193 126.964 231.052 126.883Z" fill="#4F5660"/>
<path d="M235.151 122.62L208.855 111.065C206.5 110.01 204.647 108.053 203.695 105.616C202.744 103.179 202.77 100.458 203.768 98.0404V98.0404C204.269 96.8303 205.002 95.7343 205.922 94.8162C206.843 93.8981 207.934 93.1765 209.131 92.6933C210.329 92.2101 211.608 91.9751 212.895 92.0021C214.183 92.029 215.452 92.3173 216.628 92.8502L245.325 105.483C245.961 105.772 246.524 106.208 246.967 106.757C247.411 107.305 247.724 107.951 247.882 108.643C248.041 109.336 248.039 110.057 247.878 110.749C247.718 111.441 247.402 112.085 246.956 112.632L239.854 121.543C239.298 122.229 238.535 122.707 237.683 122.902C236.832 123.097 235.941 122.998 235.151 122.62V122.62Z" fill="#8E97A3"/>
<path d="M211.983 139.635V140.588C211.98 140.862 211.897 141.13 211.744 141.359C211.592 141.588 211.376 141.768 211.123 141.879C210.87 141.99 210.59 142.025 210.317 141.982C210.044 141.939 209.79 141.819 209.584 141.636L201.33 135.442C200.971 135.172 200.67 134.832 200.446 134.444C200.221 134.056 200.078 133.626 200.024 133.182C199.97 132.737 200.007 132.286 200.133 131.856C200.258 131.426 200.47 131.025 200.755 130.678L212.943 116.004C213.185 115.739 213.358 115.419 213.447 115.072C213.536 114.725 213.537 114.362 213.452 114.014C213.367 113.666 213.197 113.344 212.958 113.077C212.718 112.809 212.417 112.604 212.079 112.478L208.528 110.859L209.872 108L232.04 117.433L233 121.34L231.656 120.768C231.4 120.694 231.127 120.711 230.882 120.815C230.637 120.92 230.436 121.105 230.313 121.34L228.202 126.2C228.013 126.598 227.685 126.914 227.279 127.089C226.873 127.264 226.416 127.287 225.994 127.152L224.075 126.295C223.625 126.116 223.125 126.104 222.666 126.261C222.208 126.419 221.822 126.735 221.58 127.152C219.565 130.614 216.93 133.682 213.806 136.205C212.771 137.068 212.117 138.299 211.983 139.635Z" fill="#8E97A3"/>
<path d="M260.541 108.003C260.928 108.003 261.299 108.186 261.573 108.512C261.846 108.838 262 109.28 262 109.741V145H259V109.741C259 109.505 259.04 109.27 259.118 109.053C259.197 108.835 259.311 108.639 259.456 108.477C259.6 108.314 259.771 108.188 259.957 108.106C260.144 108.025 260.342 107.99 260.541 108.003Z" fill="#747F8D"/>
<path d="M200.536 141H267.464C267.871 141 268.262 141.169 268.55 141.469C268.838 141.769 269 142.176 269 142.6V145H199V142.6C199 142.176 199.162 141.769 199.45 141.469C199.738 141.169 200.129 141 200.536 141V141Z" fill="#747F8D"/>
<path d="M203.362 98.5497C202.516 100.901 202.593 103.494 203.579 105.788C204.565 108.082 206.383 109.9 208.653 110.863L212.149 112.402C212.482 112.528 212.779 112.736 213.014 113.006C213.25 113.276 213.417 113.601 213.501 113.952C213.585 114.303 213.583 114.67 213.496 115.02C213.408 115.371 213.238 115.694 212.999 115.961L201 130.776L202.134 131.545C202.587 131.898 203.157 132.055 203.723 131.983C204.288 131.911 204.804 131.616 205.157 131.161L218.102 115.961C218.985 114.958 219.611 113.748 219.924 112.439C220.237 111.13 220.228 109.763 219.897 108.458L219.33 106.246C219.146 105.658 219.19 105.021 219.454 104.466C219.717 103.911 220.18 103.481 220.747 103.263L222.731 102.301C223.418 102.01 224.002 101.515 224.407 100.879C224.811 100.244 225.018 99.4991 224.999 98.7421V96.722L216.212 92.7779C215 92.2551 213.696 91.9905 212.381 92.0003C211.065 92.0101 209.765 92.2941 208.561 92.8348C207.357 93.3756 206.275 94.1616 205.381 95.1445C204.487 96.1274 203.8 97.2863 203.362 98.5497V98.5497Z" fill="#747F8D"/>
<path d="M238.227 109.41L229.008 105.421C228.086 105.022 227.016 105.446 226.617 106.367L226.583 106.446C226.185 107.367 226.608 108.437 227.53 108.836L236.749 112.826C237.67 113.224 238.74 112.801 239.139 111.879L239.173 111.8C239.572 110.879 239.148 109.809 238.227 109.41Z" fill="#FFD836"/>
<path d="M19.8504 33H42.1496C42.3751 33 42.5914 33.1054 42.7509 33.2929C42.9104 33.4804 43 33.7348 43 34V36H19V34C19 33.7348 19.0896 33.4804 19.2491 33.2929C19.4086 33.1054 19.6249 33 19.8504 33V33Z" fill="#9AA2AC"/>
<path d="M36.3718 16H36.2976C36.2065 15.9534 36.1283 15.865 36.0748 15.7482C36.0212 15.6313 35.9952 15.4923 36.0007 15.352C36.2289 14.4933 36.3054 13.5651 36.2234 12.6522C36.1949 12.5822 36.1805 12.5019 36.182 12.4205C36.1835 12.3392 36.2007 12.2601 36.2318 12.1924C36.2628 12.1246 36.3063 12.0711 36.3574 12.0378C36.4084 12.0045 36.4649 11.9929 36.5203 12.0042C36.6145 12.0107 36.7057 12.0543 36.7841 12.1304C36.8626 12.2065 36.9253 12.3122 36.9656 12.4362C37.0517 13.5269 36.9757 14.6317 36.743 15.676C36.7007 15.7657 36.6457 15.841 36.5817 15.8969C36.5176 15.9528 36.4461 15.988 36.3718 16V16Z" fill="#8A939F"/>
<path d="M32.3941 15C32.2365 15 32.1576 15 32.0788 14.8691C32.0478 14.8347 32.0252 14.7956 32.0123 14.7539C31.9995 14.7123 31.9966 14.6689 32.004 14.6264C32.0113 14.5838 32.0286 14.5429 32.055 14.5059C32.0814 14.4689 32.1162 14.4366 32.1576 14.4108C32.6778 14.1352 33.0675 13.719 33.2611 13.2324C33.267 13.1891 33.2858 13.1476 33.3159 13.1119C33.346 13.0761 33.3864 13.0472 33.4334 13.0276C33.4803 13.0081 33.5325 12.9987 33.585 13.0001C33.6375 13.0016 33.6887 13.014 33.734 13.036C33.9704 13.036 34.0493 13.2324 33.9704 13.4288C33.7496 14.0455 33.2755 14.5783 32.6305 14.9345L32.3941 15Z" fill="#8A939F"/>
<path d="M29.4336 13C29.3186 13 29.2083 12.9445 29.127 12.8458C29.0457 12.7471 29 12.6133 29 12.4737C29 12.3341 29.0457 12.2002 29.127 12.1015C29.2083 12.0028 29.3186 11.9474 29.4336 11.9474C30.1112 11.8329 30.7613 11.546 31.3412 11.1053C31.4332 11.0215 31.5488 10.9856 31.6626 11.0053C31.7764 11.025 31.8792 11.0989 31.9481 11.2105C32.0349 11.5263 32.0349 11.8421 31.7747 11.9474C31.0852 12.5444 30.2771 12.9077 29.4336 13Z" fill="#8A939F"/>
<path d="M28.4483 10C28.3324 10 28.2212 9.9638 28.1392 9.89935C28.0572 9.83491 28.0112 9.74751 28.0112 9.65637C27.9975 9.61503 27.9964 9.57176 28.0077 9.52999C28.0191 9.48823 28.0427 9.44913 28.0766 9.41578C28.1106 9.38243 28.1539 9.35576 28.2033 9.33787C28.2526 9.31999 28.3066 9.31138 28.3609 9.31275L30.4594 9.03784C30.5096 9.01465 30.5664 9.0017 30.6247 9.00016C30.6829 8.99862 30.7407 9.00854 30.7928 9.02902C30.845 9.04951 30.8898 9.0799 30.9231 9.11745C30.9565 9.155 30.9774 9.19851 30.984 9.24402C31.013 9.32608 31.0023 9.41371 30.9538 9.4899C30.9054 9.56609 30.8226 9.62542 30.7217 9.65637L28.4483 10Z" fill="#8A939F"/>
<path d="M26.4444 8C26.2222 8 26 7.85056 26 7.55169C26 7.25281 26 6.65506 26.3333 6.65506C27.3139 6.09445 28.3864 5.88839 29.4444 6.05731C29.5918 6.05731 29.7331 6.13603 29.8373 6.27615C29.9415 6.41628 30 6.60633 30 6.8045C30 7.00266 29.9415 7.19272 29.8373 7.33284C29.7331 7.47297 29.5918 7.55169 29.4444 7.55169C28.5052 7.39281 27.5513 7.54676 26.6667 8H26.4444Z" fill="#8A939F"/>
<path d="M25.4315 5C25.2671 5 25.1028 5 25.0206 4.85762C24.9926 4.76948 24.9931 4.67638 25.0221 4.58848C25.0511 4.50059 25.1074 4.42129 25.185 4.35928C25.9419 4.01479 26.8153 3.9139 27.65 4.07451C27.8965 4.1457 28.0608 4.35928 27.9786 4.50166C27.8965 4.64404 27.7321 4.85762 27.4856 4.78643C26.8475 4.64305 26.1701 4.71961 25.5958 5H25.4315Z" fill="#8A939F"/>
<path d="M39.5077 14C39.3772 14 39.252 13.9546 39.1596 13.8738C39.0673 13.793 39.0155 13.6834 39.0155 13.5692C38.9941 12.8892 38.6772 12.242 38.1295 11.7596C38.0842 11.7143 38.0496 11.6617 38.0276 11.6047C38.0056 11.5478 37.9966 11.4875 38.0012 11.4275C38.0104 11.3063 38.0742 11.1933 38.1787 11.1133C38.2831 11.0333 38.4196 10.9929 38.5581 11.001C38.6965 11.0091 38.8257 11.065 38.917 11.1564C39.5696 11.8017 39.9515 12.6223 39.9999 13.483C40.0019 13.6064 39.9534 13.7264 39.8631 13.8212C39.7728 13.916 39.6468 13.9794 39.5077 14V14Z" fill="#8A939F"/>
<path d="M40.4119 10.9984C40.2955 11.0066 40.179 10.9833 40.0789 10.9316C39.9787 10.88 39.8999 10.8027 39.8536 10.7105C39.5938 9.96571 39.0412 9.3214 38.2901 8.88758C37.9551 8.79164 37.9551 8.40785 38.0668 8.21596C38.1641 8.12546 38.2885 8.05968 38.4263 8.02584C38.5642 7.992 38.7103 7.99139 38.8485 8.02408C39.8429 8.602 40.5884 9.44484 40.9703 10.4227C41.082 10.6146 40.8586 10.9024 40.6353 10.9984H40.4119Z" fill="#8A939F"/>
<path d="M40.5833 8H40.3333C40.065 7.71788 39.7648 7.52486 39.4501 7.43216C39.1354 7.33945 38.8124 7.34888 38.5 7.45992C38.3943 7.45188 38.2919 7.39737 38.2038 7.30223C38.1157 7.20709 38.0453 7.07491 38 6.91985C38 6.51479 38.0833 6.10973 38.3333 6.10973C38.7672 5.95776 39.2166 5.96371 39.6489 6.12715C40.0812 6.29059 40.4857 6.60745 40.8333 7.05487C40.9217 7.16229 40.9802 7.32222 40.9958 7.49947C41.0114 7.67671 40.983 7.85676 40.9167 8H40.5833Z" fill="#8A939F"/>
<path d="M39.4556 5H38.988C38.653 4.86028 38.2716 4.76361 37.8688 4.71629C37.4659 4.66897 37.0506 4.67207 36.6499 4.72538C36.416 4.72538 36.0653 4.58807 36.0653 4.45076C36.0204 4.40625 35.9978 4.35519 36.0002 4.30347C36.0025 4.25175 36.0297 4.20147 36.0785 4.15842C36.1274 4.11537 36.196 4.08131 36.2764 4.06015C36.3568 4.03899 36.4457 4.0316 36.533 4.03883C37.1054 3.97765 37.6935 3.98887 38.2579 4.07175C38.8224 4.15462 39.3502 4.30724 39.8063 4.51941C40.0401 4.58807 40.0401 4.86269 39.9232 5H39.4556Z" fill="#8A939F"/>
<path d="M132 66C133.105 66 134 65.1046 134 64C134 62.8954 133.105 62 132 62C130.895 62 130 62.8954 130 64C130 65.1046 130.895 66 132 66Z" fill="#9BA3AD"/>
<path d="M150.257 83.9961H145.23C145.072 84.0091 144.914 83.9896 144.765 83.9389C144.616 83.8883 144.479 83.8075 144.363 83.7017C144.247 83.5959 144.154 83.4675 144.091 83.3245C144.028 83.1816 143.996 83.0272 143.996 82.8713C143.996 82.5481 144.126 82.2382 144.358 82.0097C144.589 81.7812 144.903 81.6528 145.23 81.6528H150.257C155.095 81.6528 158.416 79.8719 159.933 76.5912C160.457 75.4002 160.67 74.0987 160.554 72.8053C160.438 71.512 159.997 70.2678 159.269 69.1863C158.487 68.0248 157.43 67.0682 156.191 66.3989C154.952 65.7295 153.567 65.3673 152.155 65.3433H132.138C131.836 65.3433 131.547 65.2248 131.333 65.0139C131.12 64.8029 131 64.5168 131 64.2185C130.999 63.9109 131.116 63.6144 131.327 63.3884C131.538 63.1624 131.828 63.0237 132.138 63H152.155C153.973 63.0048 155.761 63.4626 157.352 64.3309C158.944 65.1992 160.289 66.4501 161.262 67.9678C162.226 69.3533 162.812 70.9619 162.962 72.6372C163.111 74.3125 162.82 75.9975 162.115 77.5285C160.218 81.7465 156.044 83.9961 150.257 83.9961Z" fill="#585F6A"/>
<path d="M209.5 106C210.881 106 212 104.881 212 103.5C212 102.119 210.881 101 209.5 101C208.119 101 207 102.119 207 103.5C207 104.881 208.119 106 209.5 106Z" fill="#626B7A"/>
<path d="M135.948 4.17906C135.948 3.17515 135.155 2.36133 134.178 2.36133C133.2 2.36133 132.408 3.17515 132.408 4.17906V7.55622C132.408 8.56012 133.2 9.37395 134.178 9.37395C135.155 9.37395 135.948 8.56012 135.948 7.55622V4.17906Z" fill="#7E9FFF"/>
<path d="M135.948 19.9647C135.948 18.9608 135.155 18.147 134.178 18.147C133.2 18.147 132.408 18.9608 132.408 19.9647V23.3419C132.408 24.3458 133.2 25.1596 134.178 25.1596C135.155 25.1596 135.948 24.3458 135.948 23.3419V19.9647Z" fill="#7E9FFF"/>
<path d="M143.697 15.5637C144.701 15.5637 145.515 14.7713 145.515 13.7938C145.515 12.8163 144.701 12.0239 143.697 12.0239H140.32C139.316 12.0239 138.502 12.8163 138.502 13.7938C138.502 14.7713 139.316 15.5637 140.32 15.5637H143.697Z" fill="#7E9FFF"/>
<path d="M127.911 15.5637C128.915 15.5637 129.729 14.7713 129.729 13.7938C129.729 12.8163 128.915 12.0239 127.911 12.0239H124.534C123.53 12.0239 122.716 12.8163 122.716 13.7938C122.716 14.7713 123.53 15.5637 124.534 15.5637H127.911Z" fill="#7E9FFF"/>
</g>
<defs>
<clipPath id="clip0">
<rect width="272" height="145" fill="white"/>
</clipPath>
</defs>
</svg>
