<svg width="224" height="120" viewBox="0 0 224 120" fill="none" xmlns="http://www.w3.org/2000/svg">
<g clip-path="url(#clip0)">
<path d="M211.72 119.04H19.1999C17.1472 119.04 15.1785 118.224 13.7269 116.773C12.2754 115.321 11.4599 113.353 11.4599 111.3V7.27982C11.4197 6.27489 11.5966 5.27309 11.9784 4.34264C12.3602 3.41219 12.938 2.57493 13.6725 1.88789C14.407 1.20084 15.2809 0.680139 16.2347 0.36123C17.1886 0.0423211 18.1999 -0.0673029 19.1999 0.039822H211.72C212.72 -0.0673029 213.731 0.0423211 214.685 0.36123C215.639 0.680139 216.513 1.20084 217.247 1.88789C217.982 2.57493 218.56 3.41219 218.942 4.34264C219.323 5.27309 219.5 6.27489 219.46 7.27982V111.28C219.463 112.298 219.264 113.307 218.877 114.248C218.489 115.189 217.919 116.045 217.2 116.766C216.481 117.487 215.627 118.059 214.687 118.449C213.746 118.839 212.738 119.04 211.72 119.04Z" fill="#356DF0"/>
<path opacity="0.5" d="M126.84 10.1L40.1998 0H27.7998L67.9998 87.5L127.8 12.72C127.991 12.5065 128.121 12.245 128.175 11.9634C128.229 11.6818 128.206 11.3908 128.107 11.1215C128.008 10.8523 127.838 10.615 127.615 10.435C127.392 10.2551 127.124 10.1393 126.84 10.1Z" fill="#FFED7E"/>
<path d="M115.96 114.04C144.955 114.04 168.46 90.5348 168.46 61.5398C168.46 32.5449 144.955 9.03983 115.96 9.03983C86.965 9.03983 63.46 32.5449 63.46 61.5398C63.46 90.5348 86.965 114.04 115.96 114.04Z" fill="#FFED7E"/>
<path d="M219.32 37.4698L223.53 35.8098H223.59L222.01 40.0598L223.66 44.2698C223.665 44.2861 223.665 44.3035 223.66 44.3198H223.6L219.36 42.7298L215.14 44.3998H215.09C215.085 44.3835 215.085 44.3661 215.09 44.3498L216.68 40.0998L214.94 35.9898V35.9398H214.99L219.23 37.5298L219.32 37.4698Z" fill="#FF57B0"/>
<path d="M193.29 51.1598L195.89 50.1598L194.89 52.7898L195.89 55.3898L193.26 54.3898L190.65 55.3898H190.59L191.59 52.7598L190.59 50.1598H190.65L193.28 51.1598H193.29Z" fill="#FC7A5E"/>
<path d="M6.25 35.3298C6.25 35.6507 6.37748 35.9585 6.6044 36.1854C6.83132 36.4123 7.13909 36.5398 7.46 36.5398C7.78091 36.5398 8.08868 36.4123 8.3156 36.1854C8.54252 35.9585 8.67 35.6507 8.67 35.3298V32.2598C8.67 31.9389 8.54252 31.6311 8.3156 31.4042C8.08868 31.1773 7.78091 31.0498 7.46 31.0498C7.13909 31.0498 6.83132 31.1773 6.6044 31.4042C6.37748 31.6311 6.25 31.9389 6.25 32.2598V35.3298Z" fill="#FFC800"/>
<path d="M6.25012 25.8798C6.23485 26.0473 6.25465 26.2161 6.30826 26.3755C6.36188 26.5349 6.44813 26.6813 6.56151 26.8055C6.67489 26.9297 6.81292 27.0289 6.96678 27.0968C7.12064 27.1647 7.28695 27.1997 7.45512 27.1997C7.62328 27.1997 7.7896 27.1647 7.94346 27.0968C8.09732 27.0289 8.23534 26.9297 8.34872 26.8055C8.4621 26.6813 8.54836 26.5349 8.60197 26.3755C8.65559 26.2161 8.67539 26.0473 8.66012 25.8798V22.8198C8.67539 22.6524 8.65559 22.4835 8.60197 22.3242C8.54836 22.1648 8.4621 22.0183 8.34872 21.8941C8.23534 21.7699 8.09732 21.6707 7.94346 21.6029C7.7896 21.535 7.62328 21.4999 7.45512 21.4999C7.28695 21.4999 7.12064 21.535 6.96678 21.6029C6.81292 21.6707 6.67489 21.7699 6.56151 21.8941C6.44813 22.0183 6.36188 22.1648 6.30826 22.3242C6.25465 22.4835 6.23485 22.6524 6.25012 22.8198V25.8798Z" fill="#FFC800"/>
<path d="M1.21 27.8598C1.0511 27.8598 0.893757 27.8911 0.746953 27.9519C0.600149 28.0127 0.46676 28.1019 0.354401 28.2142C0.242042 28.3266 0.152914 28.46 0.0921059 28.6068C0.0312977 28.7536 0 28.9109 0 29.0698C0 29.2287 0.0312977 29.3861 0.0921059 29.5329C0.152914 29.6797 0.242042 29.8131 0.354401 29.9254C0.46676 30.0378 0.600149 30.1269 0.746953 30.1877C0.893757 30.2485 1.0511 30.2798 1.21 30.2798H4.28C4.60091 30.2798 4.90868 30.1523 5.1356 29.9254C5.36252 29.6985 5.49 29.3907 5.49 29.0698C5.49 28.7489 5.36252 28.4411 5.1356 28.2142C4.90868 27.9873 4.60091 27.8598 4.28 27.8598H1.21Z" fill="#FFC800"/>
<path d="M10.65 27.8698C10.4825 27.8546 10.3137 27.8744 10.1543 27.928C9.99491 27.9816 9.84845 28.0678 9.72425 28.1812C9.60006 28.2946 9.50087 28.4326 9.433 28.5865C9.36513 28.7403 9.33008 28.9067 9.33008 29.0748C9.33008 29.243 9.36513 29.4093 9.433 29.5632C9.50087 29.717 9.60006 29.855 9.72425 29.9684C9.84845 30.0818 9.99491 30.1681 10.1543 30.2217C10.3137 30.2753 10.4825 30.2951 10.65 30.2798H13.72C13.8874 30.2951 14.0562 30.2753 14.2156 30.2217C14.375 30.1681 14.5215 30.0818 14.6457 29.9684C14.7699 29.855 14.8691 29.717 14.9369 29.5632C15.0048 29.4093 15.0399 29.243 15.0399 29.0748C15.0399 28.9067 15.0048 28.7403 14.9369 28.5865C14.8691 28.4326 14.7699 28.2946 14.6457 28.1812C14.5215 28.0678 14.375 27.9816 14.2156 27.928C14.0562 27.8744 13.8874 27.8546 13.72 27.8698H10.65Z" fill="#FFC800"/>
<path d="M30.46 54.0398L28.46 58.0398L30.46 61.9898L32.46 58.0398L30.46 54.0398Z" fill="#FF57B0"/>
<path d="M126.72 43.8498C126.659 43.6139 126.506 43.4119 126.296 43.2881C126.086 43.1644 125.836 43.129 125.6 43.1898C125.364 43.2512 125.161 43.403 125.035 43.6126C124.91 43.8221 124.872 44.0726 124.93 44.3098C131.14 69.5998 144.01 89.3998 153.56 101.43C155.282 99.8103 156.892 98.0763 158.38 96.2398C143.03 82.1667 132.041 63.9834 126.72 43.8498Z" fill="#F7DC4D"/>
<path d="M115.38 21.9898C113.73 41.9898 109.65 92.9898 85.5801 91.9898H145.34C121.27 90.0998 117.88 41.8498 116.46 21.9898C116.428 21.8715 116.357 21.7672 116.26 21.6928C116.162 21.6184 116.043 21.5781 115.92 21.5781C115.797 21.5781 115.678 21.6184 115.581 21.6928C115.483 21.7672 115.413 21.8715 115.38 21.9898Z" fill="#23489E"/>
<path d="M88.46 49.1798C88.2368 49.085 87.9854 49.081 87.7594 49.1688C87.5334 49.2566 87.3506 49.4292 87.25 49.6498C82.0176 61.2035 74.8133 71.7578 65.96 80.8398C66.43 82.2498 66.96 83.6298 67.55 84.9898C76.2644 74.5259 83.4525 62.8802 88.9 50.3998C88.9973 50.1789 89.006 49.9289 88.9241 49.7018C88.8421 49.4746 88.676 49.2877 88.46 49.1798Z" fill="#F7DC4D"/>
<path d="M166.93 81.1998C149.674 66.9665 137.222 47.762 131.27 26.1998C131.205 25.9676 131.05 25.7704 130.841 25.6507C130.631 25.5309 130.383 25.4983 130.15 25.5598C129.914 25.621 129.712 25.7733 129.588 25.9833C129.465 26.1933 129.429 26.4438 129.49 26.6798C137.08 56.2298 153.73 78.1398 163.36 88.9198C164.757 86.4476 165.951 83.8657 166.93 81.1998Z" fill="#F7DC4D"/>
<path d="M106.87 27.2198C106.627 27.1976 106.386 27.2725 106.198 27.4281C106.011 27.5837 105.893 27.8073 105.87 28.0498C103.359 55.2388 90.6944 80.483 70.3999 98.7498C71.5698 100.444 72.8352 102.07 74.1899 103.62L78.9399 104.04C79.0967 104.053 79.2542 104.025 79.3976 103.961C79.541 103.896 79.6657 103.796 79.7599 103.67C82.6399 99.8598 104.62 69.4798 107.76 28.2098C107.768 28.086 107.751 27.9619 107.711 27.8447C107.67 27.7275 107.606 27.6195 107.523 27.5273C107.441 27.435 107.34 27.3603 107.228 27.3075C107.116 27.2547 106.994 27.2249 106.87 27.2198Z" fill="#F7DC4D"/>
<path d="M214.46 87.0398V83.1798C214.46 82.8912 214.389 82.6071 214.252 82.3529C214.116 82.0988 213.918 81.8826 213.677 81.7239C213.436 81.5652 213.159 81.4689 212.872 81.4438C212.584 81.4186 212.295 81.4654 212.03 81.5798L209.77 82.5798C209.085 82.8733 208.501 83.3613 208.09 83.9834C207.68 84.6055 207.46 85.3344 207.46 86.0798V87.0798H200.46V83.1798C200.46 82.8912 200.389 82.6071 200.252 82.3529C200.116 82.0988 199.918 81.8826 199.677 81.7239C199.436 81.5652 199.159 81.4689 198.872 81.4438C198.584 81.4186 198.295 81.4654 198.03 81.5798L195.77 82.5798C195.085 82.8733 194.501 83.3613 194.09 83.9834C193.68 84.6055 193.46 85.3344 193.46 86.0798V87.0798H37.46V86.0798C37.4595 85.3344 37.2404 84.6055 36.8298 83.9834C36.4192 83.3613 35.8352 82.8733 35.15 82.5798L32.89 81.5798C32.625 81.4654 32.3358 81.4186 32.0483 81.4438C31.7608 81.4689 31.4841 81.5652 31.2431 81.7239C31.002 81.8826 30.8043 82.0988 30.6676 82.3529C30.5309 82.6071 30.4595 82.8912 30.46 83.1798V87.0398H23.46V86.0398C23.4595 85.2944 23.2404 84.5655 22.8298 83.9434C22.4192 83.3213 21.8352 82.8333 21.15 82.5398L18.89 81.5398C18.6219 81.4239 18.329 81.3774 18.0382 81.4044C17.7474 81.4315 17.4681 81.5313 17.2261 81.6947C16.984 81.8581 16.7869 82.0797 16.653 82.3393C16.5192 82.5988 16.4528 82.8879 16.46 83.1798V87.0398H11.46V111.8C11.46 113.853 12.2754 115.821 13.727 117.273C15.1785 118.724 17.1472 119.54 19.2 119.54H211.72C213.773 119.54 215.741 118.724 217.193 117.273C218.645 115.821 219.46 113.853 219.46 111.8V87.0398H214.46Z" fill="#175DE7"/>
<path d="M167.4 12.2698L169.2 8.12982C169.196 8.11342 169.196 8.09622 169.2 8.07982H169.3C169.305 8.09615 169.305 8.11349 169.3 8.12982L171.18 12.2498L175.33 14.0598C175.337 14.0663 175.342 14.0741 175.345 14.0827C175.349 14.0913 175.351 14.1005 175.351 14.1098C175.351 14.1191 175.349 14.1284 175.345 14.1369C175.342 14.1455 175.337 14.1533 175.33 14.1598L171.21 16.0498L169.46 20.2698H169.36L167.46 16.1398L163.3 14.3398C163.295 14.3236 163.295 14.3061 163.3 14.2898L167.43 12.4198L167.4 12.2698Z" fill="#62FFE3"/>
<path d="M189.07 79.9898C189.07 79.9898 194.88 71.6798 185.77 75.4198C183.7 65.7798 180.13 75.2798 180.13 75.2798C174.63 74.1198 176 77.1298 178.13 79.7698C176.489 80.2538 175.017 81.1861 173.877 82.4616C172.738 83.7371 171.977 85.3054 171.68 86.9898C170.68 91.9198 173.4 96.6598 177.82 97.5798C182.24 98.4998 186.66 95.2698 187.69 90.3398C188.128 88.2949 187.897 86.1631 187.03 84.2598C190.21 84.4098 192.91 83.6998 189.07 79.9898Z" fill="#0D2C80"/>
<path d="M171.96 53.0798C171.381 53.0876 170.81 53.2095 170.278 53.4385C169.747 53.6676 169.266 53.9992 168.863 54.4144C168.46 54.8296 168.142 55.3203 167.929 55.8583C167.716 56.3963 167.611 56.9712 167.62 57.5498C167.699 60.9843 167.528 64.42 167.11 67.8298C166.765 71.0205 165.886 74.1305 164.51 77.0298C163.972 78.2633 163.191 79.3755 162.214 80.2999C161.236 81.2244 160.082 81.942 158.82 82.4098C157.578 82.808 156.272 82.9708 154.97 82.8898C155.512 82.1706 155.856 81.3228 155.97 80.4298C156.032 79.5878 155.907 78.7426 155.604 77.9544C155.302 77.1662 154.829 76.4544 154.22 75.8698C155.005 75.4755 155.686 74.9014 156.208 74.1941C156.729 73.4869 157.076 72.6665 157.22 71.7998C157.312 70.6274 156.982 69.4608 156.29 68.5098L158.84 68.8798C159.408 68.9705 159.989 68.9473 160.548 68.8115C161.107 68.6758 161.634 68.4302 162.097 68.0891C162.56 67.748 162.951 67.3182 163.247 66.8246C163.543 66.331 163.737 65.7836 163.82 65.2141C163.902 64.6446 163.87 64.0645 163.726 63.5075C163.582 62.9504 163.328 62.4276 162.98 61.9693C162.632 61.5111 162.197 61.1266 161.699 60.8383C161.201 60.55 160.651 60.3635 160.08 60.2898C159.169 60.1575 158.24 60.3223 157.43 60.7598C157.34 60.7598 156.57 61.3098 155.43 61.9998L157.22 49.6298C157.297 49.1184 157.237 48.5958 157.047 48.115C156.856 47.6343 156.542 47.2125 156.135 46.8926C155.729 46.5726 155.245 46.3659 154.733 46.2934C154.221 46.2209 153.699 46.2852 153.22 46.4798L151.34 47.2198C150.866 47.4102 150.351 47.4725 149.845 47.4005C149.34 47.3285 148.862 47.1248 148.46 46.8098L146.86 45.5598C146.456 45.2447 145.975 45.0413 145.468 44.9699C144.96 44.8985 144.442 44.9616 143.966 45.1529C143.491 45.3442 143.073 45.657 142.756 46.0601C142.44 46.4632 142.234 46.9424 142.16 47.4498L140.28 60.4498C139.06 59.0998 138.19 58.0798 138.1 57.9898C137.61 57.5101 137.013 57.1534 136.358 56.9491C135.703 56.7448 135.009 56.6987 134.333 56.8145C133.656 56.9303 133.017 57.2048 132.468 57.6154C131.918 58.026 131.474 58.561 131.171 59.1766C130.868 59.7922 130.715 60.4708 130.726 61.1568C130.736 61.8427 130.909 62.5165 131.229 63.1228C131.55 63.7291 132.011 64.2507 132.572 64.6448C133.134 65.0388 133.781 65.2942 134.46 65.3898L136.25 65.6498C135.612 66.0493 135.067 66.5825 134.655 67.2126C134.242 67.8427 133.971 68.5548 133.86 69.2998C133.63 71.3798 134.96 73.3998 137.22 74.9298C136.265 75.7954 135.648 76.972 135.48 78.2498C135.421 79.015 135.519 79.7841 135.768 80.5099C136.018 81.2357 136.413 81.9027 136.93 82.4698C135.036 83.3346 133.43 84.7257 132.304 86.4774C131.178 88.2291 130.58 90.2675 130.58 92.3498V98.0398H158.83V90.9198C158.829 90.5856 158.809 90.2517 158.77 89.9198C159.484 89.8237 160.189 89.6732 160.88 89.4698C163.177 88.8245 165.301 87.6768 167.1 86.1098C168.79 84.6038 170.216 82.826 171.32 80.8498C173.293 77.228 174.629 73.2941 175.27 69.2198C175.957 65.3884 176.355 61.5108 176.46 57.6198V57.4198C176.452 56.8386 176.329 56.2646 176.099 55.7311C175.868 55.1976 175.533 54.7152 175.115 54.3116C174.697 53.9081 174.202 53.5914 173.661 53.38C173.119 53.1686 172.541 53.0666 171.96 53.0798Z" fill="#0D2C80"/>
<path d="M106 99.0398L102.6 92.0398C101.905 90.5678 100.872 89.2802 99.5867 88.2812C98.3011 87.2823 96.7983 86.6001 95.2001 86.2898L92.2001 85.7198L95.5801 84.2798C96.2998 83.999 96.8835 83.4513 97.2094 82.7509C97.5354 82.0505 97.5787 81.2513 97.3301 80.5198L90.8601 63.6998L93.3701 60.6998C93.4404 60.6255 93.4796 60.5271 93.4796 60.4248C93.4796 60.3225 93.4404 60.2241 93.3701 60.1498C92.0401 58.9898 86.0001 54.5598 77.2201 61.1498C77.1705 61.186 77.1302 61.2334 77.1024 61.2882C77.0745 61.3429 77.06 61.4034 77.06 61.4648C77.06 61.5262 77.0745 61.5868 77.1024 61.6415C77.1302 61.6962 77.1705 61.7436 77.2201 61.7798L80.7401 64.3698L76.9501 78.6598C76.6712 79.6899 76.7591 80.7849 77.1988 81.7572C77.6384 82.7296 78.4025 83.5189 79.3601 83.9898L80.1901 84.3998C78.3734 84.8541 76.7114 85.7865 75.3767 87.1001C74.042 88.4136 73.0833 90.0606 72.6001 91.8698L70.6001 99.0898H73.3801C73.3801 99.2398 73.4701 99.3898 73.5301 99.5298L73.9801 100.74C74.67 102.535 75.7103 104.176 77.0404 105.565C78.3704 106.955 79.9637 108.066 81.7273 108.834C83.4909 109.601 85.3897 110.011 87.313 110.037C89.2363 110.064 91.1457 109.708 92.9301 108.99C97.1101 107.31 99.2401 103.44 99.8501 99.0798L106 99.0398Z" fill="#0D2C80"/>
<path d="M69.09 88.9898C69.7795 88.5223 70.3642 87.9163 70.8066 87.2104C71.2491 86.5045 71.5397 85.7142 71.66 84.8898C72.09 81.2598 70.22 77.8898 66.59 75.6598C66.59 75.6598 66.23 74.6598 65.59 72.9398C65 71.4498 64 69.5398 61.9 68.9398L61.46 68.9198H61.37C61.1968 68.9095 61.0232 68.9095 60.85 68.9198C58.2931 68.6644 55.7119 69.0067 53.31 69.9198C53.19 69.7198 53.08 69.5098 52.96 69.3198C52.86 69.1498 52.76 68.9798 52.66 68.8298C52.464 68.5089 52.2013 68.2339 51.8896 68.0236C51.5779 67.8132 51.2246 67.6725 50.8536 67.6108C50.4827 67.5491 50.1028 67.568 49.7398 67.6662C49.3769 67.7644 49.0393 67.9396 48.75 68.1798H48.68C48.3622 68.4482 48.1126 68.7882 47.9517 69.1718C47.7908 69.5554 47.7232 69.9717 47.7544 70.3866C47.7856 70.8014 47.9148 71.2029 48.1313 71.5581C48.3479 71.9133 48.6456 72.212 49 72.4298C49.25 72.5898 49.48 72.7198 49.71 72.8498H49.78L50.25 73.1098H50.32C50.2846 74.2983 50.4125 75.4861 50.7 76.6398C51.02 78.8098 51.78 83.2798 52.2 85.2798L51.46 85.2198C47.14 84.4998 43.2 87.0498 42.13 92.3998L39.99 102.04H49.32C49.9119 105.287 51.6794 108.201 54.2848 110.227C56.8901 112.253 60.1506 113.248 63.4431 113.021C66.7356 112.795 69.8292 111.363 72.1328 109C74.4363 106.636 75.7881 103.507 75.93 100.21C75.9137 97.8953 75.2687 95.6288 74.0639 93.6525C72.8591 91.6762 71.1399 90.0646 69.09 88.9898Z" fill="#0D2C80"/>
<path d="M204.46 99.0398C203.082 99.0409 201.73 99.4212 200.554 100.139C199.377 100.857 198.421 101.885 197.79 103.11V97.2498C197.791 96.5412 197.653 95.8392 197.382 95.1841C197.112 94.529 196.715 93.9336 196.215 93.4321C195.714 92.9305 195.119 92.5326 194.465 92.2611C193.81 91.9896 193.109 91.8498 192.4 91.8498H38.5199C37.8113 91.8498 37.1095 91.9896 36.4549 92.2611C35.8003 92.5326 35.2057 92.9305 34.7051 93.4321C34.2044 93.9336 33.8076 94.529 33.5373 95.1841C33.2671 95.8392 33.1286 96.5412 33.1299 97.2498V103.11C32.5208 101.925 31.6072 100.924 30.483 100.21C29.3588 99.4955 28.0647 99.0934 26.7336 99.0448C25.4025 98.9963 24.0825 99.3031 22.9093 99.9337C21.7361 100.564 20.752 101.496 20.0581 102.633C19.3643 103.77 18.9858 105.071 18.9615 106.403C18.9371 107.735 19.2679 109.049 19.9198 110.21C20.5717 111.372 21.5212 112.339 22.6706 113.012C23.82 113.685 25.128 114.04 26.4599 114.04C26.9637 114.041 27.4663 113.991 27.9599 113.89V119.54H202.96V113.89C203.454 113.991 203.956 114.041 204.46 114.04C206.449 114.04 208.357 113.25 209.763 111.843C211.17 110.437 211.96 108.529 211.96 106.54C211.96 104.551 211.17 102.643 209.763 101.237C208.357 99.83 206.449 99.0398 204.46 99.0398Z" fill="#071A4D"/>
</g>
<defs>
<clipPath id="clip0">
<rect width="223.664" height="119.54" fill="white"/>
</clipPath>
</defs>
</svg>
