<svg width="80" height="80" viewBox="0 0 80 80" fill="none" xmlns="http://www.w3.org/2000/svg">
<g clip-path="url(#clip0)">
<path d="M40 80C62.0914 80 80 62.0914 80 40C80 17.9086 62.0914 0 40 0C17.9086 0 0 17.9086 0 40C0 62.0914 17.9086 80 40 80Z" fill="#A1C2FF"/>
<path d="M75.93 57.59C70.19 56.12 65.67 54.04 60.13 48.36C59.2959 47.5047 58.1562 47.0157 56.9616 47.0007C55.767 46.9857 54.6153 47.4459 53.76 48.28C52.9047 49.1141 52.4157 50.2538 52.4007 51.4484C52.3857 52.643 52.8459 53.7947 53.68 54.65C59.68 60.77 65.02 63.65 70.82 65.5C72.8271 63.0725 74.5422 60.4176 75.93 57.59Z" fill="url(#paint0_linear)"/>
<path d="M6.15995 46.81L6.36995 46.96C12.5174 51.4064 19.8934 53.8348 27.48 53.91C28.0263 53.9304 28.5712 53.8429 29.0837 53.6527C29.5962 53.4624 30.0662 53.1731 30.4669 52.8012C30.8676 52.4293 31.1911 51.9821 31.419 51.4852C31.6468 50.9883 31.7746 50.4513 31.795 49.905C31.8153 49.3587 31.7279 48.8138 31.5376 48.3013C31.3474 47.7887 31.058 47.3187 30.6861 46.9181C30.3142 46.5174 29.867 46.1939 29.3701 45.966C28.8732 45.7381 28.3363 45.6104 27.79 45.59C21.7728 45.5762 15.9164 43.6463 11.07 40.08C10.1752 39.4898 9.08748 39.2668 8.03262 39.4573C6.97777 39.6478 6.0368 40.2372 5.40503 41.1032C4.77326 41.9691 4.49921 43.0451 4.63979 44.1077C4.78036 45.1704 5.32475 46.1381 6.15995 46.81Z" fill="url(#paint1_linear)"/>
<path d="M6.15995 46.81L6.36995 46.96C12.5174 51.4064 19.8934 53.8348 27.48 53.91C28.0263 53.9304 28.5712 53.8429 29.0837 53.6527C29.5962 53.4624 30.0662 53.1731 30.4669 52.8012C30.8676 52.4293 31.1911 51.9821 31.419 51.4852C31.6468 50.9883 31.7746 50.4513 31.795 49.905C31.8153 49.3587 31.7279 48.8138 31.5376 48.3013C31.3474 47.7887 31.058 47.3187 30.6861 46.9181C30.3142 46.5174 29.867 46.1939 29.3701 45.966C28.8732 45.7381 28.3363 45.6104 27.79 45.59C21.7728 45.5762 15.9164 43.6463 11.07 40.08C10.1752 39.4898 9.08748 39.2668 8.03262 39.4573C6.97777 39.6478 6.0368 40.2372 5.40503 41.1032C4.77326 41.9691 4.49921 43.0451 4.63979 44.1077C4.78036 45.1704 5.32475 46.1381 6.15995 46.81Z" fill="#7196FF"/>
<path d="M43.41 17.32C42.9956 17.1879 42.5884 17.0344 42.19 16.86C41.597 16.6074 41.0193 16.3203 40.46 16C38.33 14.78 37.63 12 40.46 11.08C40.46 11.08 43.11 9.08 46.73 12.77C47.0113 13.1159 47.3863 13.3735 47.8102 13.5118C48.234 13.6501 48.6888 13.6634 49.12 13.55L45.41 17.07L43.41 17.32Z" fill="#03A79F"/>
<path d="M46.6399 15.92C46.6399 15.92 42.4099 15.83 38.9299 7.64999" stroke="#03968F" stroke-width="0.81" stroke-miterlimit="10" stroke-linecap="round"/>
<path d="M42.19 16.86C42.05 16.8 44.3 17.81 47.19 14.24L48.45 12.67C49.61 11.28 52.32 8.26996 55.4 9.66996C55.7766 9.86476 56.1046 10.1417 56.3598 10.4803C56.615 10.8189 56.7909 11.2105 56.8744 11.6261C56.9579 12.0418 56.947 12.4709 56.8424 12.8818C56.7377 13.2927 56.5422 13.6748 56.27 14C55.8049 14.7252 55.1829 15.3369 54.45 15.79C52.6494 16.9564 50.5904 17.6638 48.4532 17.8503C46.3159 18.0368 44.1655 17.6968 42.19 16.86Z" fill="#00C0B5"/>
<path d="M46.1101 17.88C49.3249 17.1408 52.1425 15.216 54.0001 12.49C54.5805 11.6046 55.0412 10.6463 55.3701 9.64001H55.4701C55.6872 9.76582 55.8886 9.91687 56.0701 10.09C55.7292 11.0662 55.2691 11.9966 54.7001 12.86C53.2298 15.0612 51.1427 16.7797 48.7001 17.8C47.8417 17.9137 46.9739 17.9405 46.1101 17.88Z" fill="#03A79F"/>
<path d="M28.25 40.87L59.9 45.59L63.68 59.42C64.383 61.9925 64.1963 64.727 63.15 67.18C62.324 69.1242 60.9924 70.8117 59.2937 72.0673C57.5949 73.3229 55.591 74.1007 53.49 74.32L35.23 76.24C33.0399 76.4776 30.8302 76.0276 28.9075 74.9524C26.9847 73.8773 25.4443 72.2303 24.5 70.24C23.5202 68.1685 23.2395 65.8348 23.7 63.59L28.25 40.87Z" fill="#7196FF"/>
<g opacity="0.5">
<path opacity="0.5" d="M62.31 54.4L40.27 48.45L27.53 44.43L60.23 46.8L62.31 54.4Z" fill="#4F79F0"/>
</g>
<path d="M62.7305 26.2346L70.6869 27.0681C71.742 27.1786 72.71 27.7037 73.3779 28.5279C74.0458 29.3522 74.359 30.4079 74.2484 31.463L73.3108 40.4141C73.2003 41.4691 72.6752 42.4371 71.851 43.105C71.0267 43.7729 69.9709 44.0861 68.9159 43.9756L60.9594 43.1421L62.7305 26.2346Z" fill="#7196FF"/>
<path d="M65.6582 29.5468L69.6364 29.9635C70.164 30.0187 70.648 30.2813 70.9819 30.6934C71.3159 31.1055 71.4725 31.6334 71.4172 32.161L70.6879 39.1229C70.6327 39.6504 70.3701 40.1344 69.958 40.4684C69.5459 40.8023 69.018 40.9589 68.4904 40.9036L64.5122 40.4869L65.6582 29.5468Z" fill="#BACFFF"/>
<path d="M23.8884 39.2324L15.932 38.3989C14.8769 38.2884 13.9089 37.7633 13.241 36.939C12.5731 36.1148 12.2599 35.059 12.3705 34.004L13.3081 25.0529C13.4186 23.9978 13.9437 23.0299 14.768 22.362C15.5922 21.694 16.648 21.3809 17.703 21.4914L25.6595 22.3249L23.8884 39.2324Z" fill="#7196FF"/>
<path d="M20.9626 35.9131L16.9844 35.4964C16.4569 35.4411 15.9729 35.1785 15.6389 34.7664C15.305 34.3543 15.1484 33.8264 15.2037 33.2989L15.9329 26.337C15.9882 25.8094 16.2508 25.3254 16.6629 24.9915C17.075 24.6575 17.6029 24.501 18.1304 24.5562L22.1086 24.9729L20.9626 35.9131Z" fill="#BACFFF"/>
<path d="M26.4271 45.6051L57.9447 48.9066C62.8827 49.4239 67.3051 45.8401 67.8223 40.9021L69.2788 26.9982C69.7961 22.0602 66.2123 17.6378 61.2743 17.1205L29.7567 13.819C24.8187 13.3018 20.3963 16.8855 19.8791 21.8235L18.4226 35.7274C17.9053 40.6655 21.4891 45.0878 26.4271 45.6051Z" fill="#7196FF"/>
<path d="M48.9526 40.5988L39.8126 39.6414C38.8866 39.5444 37.9888 39.2659 37.1704 38.822C36.352 38.378 35.6291 37.7771 35.0429 37.0538C34.4567 36.3304 34.0187 35.4986 33.7539 34.606C33.4892 33.7134 33.4029 32.7773 33.4999 31.8513L34.2291 24.8894C34.3087 24.1297 34.6868 23.4328 35.2802 22.9519C35.8737 22.471 36.6338 22.2456 37.3935 22.3251L55.4944 24.2212C56.2541 24.3008 56.9511 24.6789 57.432 25.2723C57.9129 25.8658 58.1383 26.6259 58.0587 27.3856L57.3909 33.7607C57.179 35.7839 56.1721 37.6399 54.5916 38.9207C53.0112 40.2014 50.9867 40.8018 48.9636 40.5899L48.9526 40.5988Z" fill="#BACFFF"/>
<path d="M27.98 32.04C29.4712 32.04 30.68 30.8312 30.68 29.34C30.68 27.8488 29.4712 26.64 27.98 26.64C26.4889 26.64 25.28 27.8488 25.28 29.34C25.28 30.8312 26.4889 32.04 27.98 32.04Z" fill="#202225"/>
<path d="M62.6399 35.67C64.1311 35.67 65.34 34.4612 65.34 32.97C65.34 31.4789 64.1311 30.27 62.6399 30.27C61.1488 30.27 59.9399 31.4789 59.9399 32.97C59.9399 34.4612 61.1488 35.67 62.6399 35.67Z" fill="#202225"/>
<path d="M49.2432 36.3542L51.7197 36.6136C52.4063 36.6855 53.0212 36.1872 53.0931 35.5006C53.165 34.814 52.6667 34.1991 51.9801 34.1272L49.5037 33.8678C48.8171 33.7959 48.2022 34.2942 48.1303 34.9808C48.0583 35.6674 48.5566 36.2823 49.2432 36.3542Z" fill="#9CB6F1"/>
<path d="M39.7189 35.3557L43.1899 35.7193C43.8765 35.7912 44.4914 35.2929 44.5633 34.6063C44.6353 33.9197 44.137 33.3048 43.4504 33.2329L39.9793 32.8693C39.2927 32.7974 38.6778 33.2956 38.6059 33.9822C38.534 34.6688 39.0323 35.2837 39.7189 35.3557Z" fill="#9CB6F1"/>
<path fill-rule="evenodd" clip-rule="evenodd" d="M6.56006 62C10.2001 67.5457 15.1622 72.099 20.9996 75.25C26.837 78.401 33.3665 80.0508 40.0001 80.0508C46.6336 80.0508 53.1631 78.401 59.0005 75.25C64.8379 72.099 69.8 67.5457 73.4401 62H6.56006Z" fill="#8C7DFF"/>
<path d="M52.6801 73.5H37.0701L30.5701 64.07H46.1801L52.6801 73.5Z" fill="#D3CFFF"/>
<path d="M37.1285 66.1098L36.6498 66.2542L36.5256 65.8426L37.0043 65.6981C37.0601 65.6813 37.1204 65.6873 37.1718 65.7149C37.2232 65.7425 37.2616 65.7894 37.2785 65.8452C37.2923 65.9001 37.2845 65.9583 37.2566 66.0076C37.2286 66.0569 37.1827 66.0935 37.1285 66.1098Z" fill="#F5872C"/>
<path d="M23.5 69.6035L23.7195 70.3311L21.8048 70.9089C21.7591 70.9226 21.7098 70.9177 21.6677 70.8951C21.6256 70.8726 21.5943 70.8342 21.5805 70.7885L21.4649 70.4056C21.4511 70.3599 21.4561 70.3106 21.4786 70.2685C21.5012 70.2264 21.5396 70.195 21.5853 70.1812L23.5 69.6035Z" fill="#F5DB8C"/>
<path d="M35.52 67.2L36.8 66.26L36.65 65.77L35.07 65.69L22.88 69.37C22.8435 69.3816 22.8129 69.4067 22.7943 69.4401C22.7757 69.4736 22.7706 69.5129 22.78 69.55L23.15 70.78C23.1546 70.7988 23.163 70.8165 23.1747 70.8319C23.1864 70.8473 23.2012 70.8601 23.2181 70.8695C23.235 70.8789 23.2537 70.8846 23.273 70.8865C23.2922 70.8883 23.3117 70.8861 23.33 70.88L35.52 67.2Z" fill="#FFB458"/>
<path d="M28.2801 69.47C28.2953 69.5166 28.3009 69.5658 28.2965 69.6146C28.292 69.6635 28.2777 69.7109 28.2543 69.7539C28.2308 69.797 28.1989 69.8348 28.1603 69.8651C28.1218 69.8954 28.0775 69.9175 28.0301 69.93L25.1401 70.8C25.0813 70.8166 25.0189 70.816 24.9605 70.7983C24.902 70.7806 24.8498 70.7465 24.8101 70.7C24.7803 70.6709 24.7434 70.6501 24.703 70.6396C24.6627 70.629 24.6203 70.6292 24.5801 70.64L24.3201 70.7C24.2949 70.7062 24.2683 70.7023 24.2459 70.6893C24.2236 70.6762 24.2071 70.655 24.2001 70.63L23.7401 69.1C23.7384 69.0792 23.7432 69.0583 23.754 69.0404C23.7648 69.0224 23.7809 69.0083 23.8001 69L24.3301 68.84C24.3553 68.8339 24.3818 68.8377 24.4042 68.8508C24.4266 68.8638 24.4431 68.8851 24.4501 68.91L24.8701 70.32L28.1101 69.41C28.1446 69.4005 28.1814 69.4045 28.213 69.4212C28.2446 69.4379 28.2686 69.4661 28.2801 69.5V69.47Z" fill="#F5DB8C"/>
<path d="M35.5201 67.2L36.8001 66.26L36.6501 65.77L35.0701 65.69L35.5201 67.2Z" fill="#F5DB8C"/>
</g>
<defs>
<linearGradient id="paint0_linear" x1="52.41" y1="56.25" x2="75.93" y2="56.25" gradientUnits="userSpaceOnUse">
<stop stop-color="#7196FF"/>
<stop offset="1" stop-color="#567EF7"/>
</linearGradient>
<linearGradient id="paint1_linear" x1="3409.53" y1="604.803" x2="4044.51" y2="403.984" gradientUnits="userSpaceOnUse">
<stop stop-color="#7196FF"/>
<stop offset="1" stop-color="#567EF7"/>
</linearGradient>
<clipPath id="clip0">
<rect width="80" height="80" fill="white"/>
</clipPath>
</defs>
</svg>
