<svg width="251" height="221" viewBox="0 0 251 221" fill="none" xmlns="http://www.w3.org/2000/svg">
<g clip-path="url(#clip0)">
<path d="M13.4842 63.1598L9.95671 61.8048C9.89138 61.8048 9.89138 61.7483 9.95671 61.6919L13.4842 60.3368H13.5496L15.1174 57.288C15.1174 57.2315 15.248 57.2315 15.248 57.288L16.8158 60.3368H16.8811L20.3434 61.6919C20.4087 61.7483 20.4087 61.8048 20.3434 61.8048L16.8811 63.1598C16.8638 63.1598 16.8472 63.1658 16.8349 63.1764C16.8227 63.187 16.8158 63.2013 16.8158 63.2163L15.248 66.2652H15.1174L13.5496 63.2163C13.5496 63.2013 13.5427 63.187 13.5304 63.1764C13.5182 63.1658 13.5016 63.1598 13.4842 63.1598Z" fill="#F7D197"/>
<path d="M87.8955 194.577L84.7956 193.374C84.7582 193.374 84.7582 193.277 84.7956 193.277L87.8955 192.074H87.9328L89.3147 189.375C89.3147 189.343 89.4267 189.343 89.4267 189.375L90.8086 192.074H90.8459L93.9458 193.277C93.9831 193.277 93.9831 193.374 93.9458 193.374L90.8459 194.577H90.8086L89.4267 197.276H89.3147L87.9328 194.577H87.8955Z" fill="#FF99B9"/>
<mask id="mask0" mask-type="alpha" maskUnits="userSpaceOnUse" x="136" y="66" width="133" height="75">
<rect x="137.61" y="67.1535" width="129.904" height="72.6579" rx="7.70614" fill="#C4C4C4" stroke="white" stroke-width="2.20175"/>
</mask>
<g mask="url(#mask0)">
<rect x="138.71" y="67.1534" width="128.803" height="72.6579" rx="8.80702" fill="#225B73"/>
<path fill-rule="evenodd" clip-rule="evenodd" d="M267.237 133.199C267.417 132.497 267.513 131.762 267.513 131.004V75.9605C267.513 71.0965 263.57 67.1534 258.706 67.1534H147.517C142.653 67.1534 138.71 71.0965 138.71 75.9605V82.8791C175.37 104.244 218.695 121.316 267.237 133.199Z" fill="#236682"/>
<path d="M172.236 83.7066L169.424 82.421C169.343 82.421 169.343 82.3406 169.424 82.3406L172.236 81.055C172.316 81.055 172.316 81.0549 172.316 80.9746L173.602 78.1622H173.682L174.968 80.9746L177.861 82.2602C177.941 82.2602 177.941 82.3406 177.861 82.3406L174.968 83.6263L173.682 86.5993C173.682 86.6797 173.602 86.6797 173.602 86.5993L172.316 83.7066H172.236Z" fill="#FF9CCD"/>
<path d="M253.942 111.313L251.04 110.023C250.987 110.023 250.987 109.969 251.04 109.916L253.942 108.626H253.996L255.285 105.725C255.285 105.671 255.393 105.671 255.393 105.725L256.682 108.626H256.736L259.584 109.916C259.638 109.969 259.638 110.023 259.584 110.023L256.736 111.313C256.722 111.313 256.708 111.318 256.698 111.329C256.688 111.339 256.682 111.352 256.682 111.367L255.393 114.268H255.285L253.996 111.367C253.996 111.352 253.99 111.339 253.98 111.329C253.97 111.318 253.956 111.313 253.942 111.313Z" fill="#F7D197"/>
</g>
<rect x="137.61" y="67.1535" width="129.904" height="72.6579" rx="7.70614" stroke="white" stroke-width="2.20175"/>
<g clip-path="url(#clip1)">
<path d="M224.487 38.3483L235.035 33.0262L242.292 42.4123L231.358 49.3794L224.487 38.3483Z" fill="#133DBD"/>
<path d="M222.552 60.4105L201.457 99.9869C201.029 100.88 200.874 101.88 201.012 102.862C201.149 103.843 201.574 104.761 202.231 105.502L202.522 105.793C206.025 109.422 210.396 112.099 215.221 113.572C220.046 115.045 225.166 115.265 230.099 114.211V114.211C230.808 114.057 231.443 113.667 231.9 113.104C232.358 112.542 232.61 111.84 232.615 111.115L233.68 63.4102C233.68 45.3153 232.809 41.2512 222.552 60.4105Z" fill="#33BEB5"/>
<path d="M202.522 105.793C201.755 104.977 201.259 103.944 201.103 102.835C200.947 101.726 201.138 100.596 201.651 99.5999L222.552 60.4105C227.584 51.1212 230.293 47.2506 231.841 47.928C227.874 75.6025 219.649 111.695 219.649 111.695L214.037 113.147C209.661 111.66 205.711 109.137 202.522 105.793V105.793Z" fill="#33A2BE"/>
<path d="M207.65 88.472C208.908 86.0529 209.488 85.2788 210.069 86.44C218.778 72.6028 222.939 75.4089 222.939 88.8591C222.939 88.8591 228.938 85.6659 228.357 97.5679C229.212 97.32 230.125 97.3665 230.95 97.7C231.774 98.0334 232.463 98.6344 232.905 99.4064L232.615 111.115C232.609 111.734 232.422 112.339 232.079 112.854C231.735 113.369 231.249 113.774 230.68 114.018C225.505 114.829 220.213 114.439 215.213 112.879C210.213 111.319 205.639 108.629 201.844 105.019C201.333 104.292 201.027 103.442 200.959 102.556C200.891 101.67 201.063 100.783 201.457 99.987L207.65 88.472Z" fill="#F7E5BC"/>
<path d="M201.458 99.987L207.651 88.472C208.909 86.0529 209.489 85.2788 210.07 86.44C218.779 72.6028 222.939 75.4089 222.939 88.8591C223.456 88.6189 224.015 88.4872 224.584 88.472V88.472C222.939 88.8591 222.939 90.5041 221.875 94.0844C220.811 97.6646 220.23 100.955 220.23 100.955L204.845 107.535C203.802 106.749 202.8 105.909 201.845 105.019C201.334 104.292 201.028 103.442 200.96 102.556C200.891 101.67 201.064 100.783 201.458 99.987V99.987Z" fill="#F7D197"/>
<path d="M202.135 100.471C209.586 92.4394 216.262 89.6333 231.261 111.599C231.406 111.832 231.494 112.097 231.518 112.371C231.541 112.646 231.499 112.922 231.395 113.177C231.291 113.432 231.129 113.658 230.92 113.838C230.712 114.018 230.464 114.146 230.196 114.211V114.211C225.249 115.301 220.104 115.1 215.257 113.625C210.41 112.151 206.024 109.453 202.522 105.793L202.231 105.503L201.651 104.632C201.253 103.984 201.085 103.222 201.172 102.467C201.26 101.713 201.599 101.01 202.135 100.471Z" fill="#242236"/>
<path d="M203.49 107.244L205.425 97.2775C210.844 92.8264 216.553 92.7296 226.326 104.922L222.262 114.308C215.483 113.685 208.998 111.245 203.49 107.244V107.244Z" fill="#90423B"/>
<path d="M203.007 106.952L210.071 106.275L211.038 108.984L212.78 105.21C214.522 101.34 214.618 101.437 216.07 104.727C217.521 108.017 224.005 106.952 224.005 106.952L225.456 103.856C216.941 93.5988 211.522 93.0182 206.587 96.405L203.007 106.952Z" fill="#7A2F28"/>
<path d="M246.741 127.469C251.096 130.663 252.063 130.276 250.999 136.469C249.935 142.661 246.741 127.469 246.741 127.469Z" fill="#3EE8DD"/>
<path d="M183.457 174.69H259.61C260.684 172.209 261.463 169.611 261.933 166.949C262.707 161.143 263.384 160.079 259.127 152.531C258.836 146.822 256.998 143.242 252.547 137.63C250.06 133.775 247.278 130.119 244.225 126.695L189.844 128.631C187.607 130.16 185.503 131.876 183.554 133.759L179.103 133.953C178.812 144.694 182.296 163.562 183.457 174.69Z" fill="#244AB0"/>
<path d="M143.399 128.629L147.657 121.952C149.014 119.795 150.922 118.039 153.184 116.865C155.446 115.691 157.981 115.143 160.526 115.276H160.72C161.436 115.313 162.121 115.577 162.678 116.029C163.234 116.481 163.633 117.098 163.816 117.791L167.3 130.855L168.461 132.113C168.704 132.366 168.883 132.674 168.983 133.01C169.084 133.347 169.104 133.702 169.042 134.048L168.751 136.66L169.332 135.79C169.546 135.387 169.848 135.038 170.217 134.769C170.586 134.501 171.011 134.321 171.461 134.241C173.202 133.758 176.589 132.887 180.073 131.629C180.847 130.371 182.492 128.436 188.685 128.339V132.209L181.427 139.37L181.621 160.271L167.009 165.593C165.38 166.152 163.622 166.221 161.954 165.791C160.285 165.361 158.78 164.451 157.623 163.174C149.964 154.067 144.885 143.074 142.915 131.338C142.73 130.407 142.902 129.439 143.399 128.629Z" fill="#1E397D"/>
<path d="M237.455 147.693L238.81 153.692L254.872 155.337C255.361 155.384 255.816 155.605 256.154 155.961C256.492 156.316 256.69 156.782 256.711 157.273V158.821C256.704 159.041 256.648 159.256 256.546 159.451C256.443 159.646 256.298 159.815 256.121 159.945C255.944 160.076 255.74 160.164 255.523 160.204C255.307 160.244 255.084 160.234 254.872 160.176L238.81 154.95L224.585 157.176C224.261 157.245 223.973 157.432 223.777 157.699C223.581 157.967 223.49 158.297 223.521 158.627L225.65 174.69H183.461C178.429 144.016 176.494 137.823 185.977 130.082L223.231 138.984L238.81 129.598L237.261 139.178C236.794 142.003 236.859 144.892 237.455 147.693V147.693Z" fill="#1E397D"/>
<path d="M230.874 114.5C234.164 115.467 234.455 114.5 236.68 120.789L232.036 121.176L230.874 114.5Z" fill="#3EE8DD"/>
<path d="M235.326 120.499L233.971 117.113C233.699 116.463 233.276 115.888 232.738 115.434C232.199 114.979 231.561 114.659 230.875 114.5L225.94 113.436L206.2 113.145L195.459 118.564C195.026 118.776 194.651 119.088 194.365 119.476C194.078 119.863 193.89 120.314 193.814 120.79L193.427 123.305L188.202 126.789C187.91 126.988 187.681 127.268 187.544 127.594C187.407 127.92 187.366 128.279 187.428 128.627C188.783 140.433 200.975 158.624 218.005 150.496C230.681 144.4 242.39 135.691 248.002 131.24L250.228 134.143C250.808 131.337 250.228 130.176 248.486 128.724L246.744 127.466C246.591 126.962 246.493 126.443 246.454 125.918C246.067 123.693 246.551 123.112 243.841 122.531L235.326 120.499Z" fill="#33BEB5"/>
<path d="M231.356 117.693L225.164 121.854C223.035 123.209 221.874 125.725 224.873 124.564C227.344 123.622 229.738 122.49 232.034 121.177C233.775 120.016 233.098 119.629 232.905 118.661C232.711 117.693 232.421 117.016 231.356 117.693Z" fill="#37CFC5"/>
<path d="M188.2 126.789L193.426 123.305L193.813 120.79C193.888 120.314 194.077 119.863 194.363 119.476C194.649 119.088 195.025 118.776 195.458 118.564L206.198 113.145H209.295L221.681 139.949C220.519 145.755 218.778 146.529 217.326 147.884C215.875 149.238 215.875 149.335 216.359 151.077C200.199 157.366 188.684 139.949 187.426 128.531C187.384 128.197 187.433 127.859 187.57 127.552C187.706 127.245 187.924 126.981 188.2 126.789V126.789Z" fill="#33A2BE"/>
<path d="M195.071 121.565C194.491 123.017 194.104 123.114 195.071 125.726C196.613 129.212 198.528 132.521 200.78 135.596C202.135 137.338 202.909 137.338 200.78 132.016C198.652 126.694 198.168 125.436 197.587 123.017C197.007 120.598 196.039 118.759 195.071 121.565Z" fill="#2B98B3"/>
<path d="M233.196 123.694C229.922 128.299 225.899 132.322 221.294 135.596C217.617 138.112 218.875 136.757 220.52 133.854C222.165 130.951 225.165 129.5 228.552 126.307C231.938 123.114 236.002 119.824 233.196 123.694Z" fill="#319BB5"/>
<path d="M245.872 127.176C245.918 127.382 245.896 127.598 245.809 127.79C245.721 127.982 245.574 128.14 245.388 128.241C236.486 133.176 223.81 139.369 219.262 140.917C214.714 142.465 217.423 140.917 223.132 137.143C228.841 133.369 238.614 127.273 241.711 125.435C244.807 123.596 244.807 123.209 245.872 127.176Z" fill="#33A2BE"/>
<path d="M225.842 114.693C230.39 115.467 232.906 115.467 225.842 119.628C218.778 123.789 225.842 114.693 225.842 114.693Z" fill="#1E6470"/>
<path d="M213.261 100.277L212.293 104.341L210.068 104.631L211.519 101.535L211.616 99.4058L213.261 100.277Z" fill="#90423B"/>
<path d="M220.227 104.05L217.614 104.437C218.582 105.889 219.743 105.695 220.227 104.05Z" fill="#5E221D"/>
<path d="M210.551 103.083L207.939 102.308C208.229 104.05 209.39 104.437 210.551 103.083Z" fill="#5E221D"/>
<path d="M218.49 104.536C218.062 104.536 217.715 103.93 217.715 103.181C217.715 102.433 218.062 101.827 218.49 101.827C218.917 101.827 219.264 102.433 219.264 103.181C219.264 103.93 218.917 104.536 218.49 104.536Z" fill="#201E2F"/>
<path d="M209.102 102.795C208.675 102.795 208.328 102.188 208.328 101.44C208.328 100.692 208.675 100.085 209.102 100.085C209.53 100.085 209.876 100.692 209.876 101.44C209.876 102.188 209.53 102.795 209.102 102.795Z" fill="#201E2F"/>
<path d="M206.587 96.4084C205.831 96.93 205.119 97.5125 204.458 98.1502C203.684 100.279 203.394 103.279 202.523 105.795C201.652 108.31 200.781 112.084 201.168 114.31C201.555 116.535 201.265 116.632 199.91 119.438C198.556 122.244 196.04 125.051 196.911 128.437C195.459 130.566 195.846 132.018 196.33 134.05C196.814 136.082 198.362 141.597 202.136 141.404C203.346 143.174 205.075 144.525 207.086 145.271C209.097 146.016 211.289 146.119 213.36 145.565C219.36 144.016 225.359 139.952 224.585 134.533C226.617 132.985 226.133 128.921 225.94 126.696C225.74 124.695 226.005 122.675 226.714 120.793C227.488 118.858 227.488 116.922 226.907 112.858C227.53 111.158 228.016 109.411 228.359 107.633C227.462 106.292 226.493 104.999 225.456 103.763L224.005 106.956C223.349 108.211 222.767 109.503 222.263 110.826C221.777 110.611 221.238 110.544 220.715 110.633C220.376 109.864 219.839 109.199 219.159 108.706C218.479 108.213 217.68 107.91 216.844 107.827L211.038 108.988L210.071 106.278C207.361 105.988 205.91 105.891 205.039 106.569C204.529 105.005 204.462 103.33 204.845 101.73C205.329 99.9887 206.587 96.4084 206.587 96.4084Z" fill="white"/>
<path d="M210.553 111.31L212.779 110.826C213.94 110.536 213.747 110.439 216.843 107.827L211.037 108.988L210.07 106.278C207.36 105.988 205.909 105.891 205.038 106.569C204.477 105.014 204.41 103.325 204.844 101.73C205.328 99.9887 206.586 96.4084 206.586 96.4084C205.83 96.93 205.118 97.5125 204.457 98.1502C203.683 100.279 203.393 103.279 202.522 105.795C201.651 108.31 200.78 112.084 201.167 114.31C201.554 116.535 201.264 116.632 199.909 119.438C198.555 122.244 196.039 125.051 196.91 128.437C195.458 130.566 195.845 132.018 196.329 134.05C196.813 136.082 198.361 141.597 202.135 141.404C203.345 143.174 205.074 144.525 207.085 145.271C209.096 146.016 211.288 146.119 213.36 145.565C219.359 144.016 225.358 139.952 224.584 134.533C222.746 139.662 218.875 138.694 218.875 138.694C216.491 138.184 214.055 137.956 211.618 138.017C210.263 135.598 208.618 133.179 207.167 132.211C204.361 126.696 206.489 120.793 207.941 117.406C209.392 114.019 210.553 111.31 210.553 111.31Z" fill="#D6DFFF"/>
<path d="M210.553 111.308C209.102 111.599 209.198 110.341 209.295 108.986C209.397 108.045 209.659 107.129 210.069 106.277L211.037 108.986L216.843 107.825C213.746 110.437 213.94 110.534 212.779 110.825L210.553 111.308Z" fill="#CAD5FC"/>
<path d="M221.681 102.408L216.165 100.763C217.119 100.274 218.226 100.172 219.253 100.478C220.281 100.785 221.15 101.476 221.681 102.408V102.408Z" fill="#CFDEFF"/>
<path d="M212.297 100.278L206.782 99.2131C207.209 98.9072 207.694 98.6915 208.208 98.5791C208.721 98.4668 209.252 98.4603 209.768 98.5599C210.284 98.6595 210.775 98.8631 211.21 99.1584C211.644 99.4538 212.015 99.8345 212.297 100.278Z" fill="#CFDEFF"/>
<path d="M215.198 105.794L213.359 106.955L215.778 106.471C216.069 106.471 216.069 106.375 215.972 105.988C215.875 105.601 215.585 105.601 215.198 105.794Z" fill="#5E221D"/>
<path d="M208.231 113.242C208.228 113.621 208.365 113.988 208.614 114.274C208.864 114.559 209.21 114.743 209.586 114.79C215.489 115.661 218.005 114.113 218.972 113.436C219.089 113.326 219.177 113.189 219.227 113.037C219.278 112.885 219.29 112.723 219.263 112.565V112.371C216.166 113.436 211.521 112.952 210.36 112.758C209.199 112.565 209.683 112.274 209.78 111.791C209.385 111.79 209.005 111.94 208.718 112.209C208.43 112.479 208.256 112.848 208.231 113.242V113.242Z" fill="#DE5D70"/>
<path d="M210.554 114.887C211.225 114.201 211.936 113.555 212.683 112.952C214.893 113.187 217.128 112.99 219.263 112.371V112.565C219.29 112.723 219.278 112.885 219.227 113.037C219.177 113.189 219.089 113.326 218.972 113.436H218.875C218.005 114.113 215.682 115.468 210.554 114.887Z" fill="#B83D50"/>
<path d="M215.447 87.7111C214.434 87.2261 214.307 85.3875 215.161 83.6042C216.015 81.821 217.528 80.7685 218.54 81.2535C219.553 81.7384 219.68 83.5771 218.826 85.3603C217.972 87.1435 216.459 88.196 215.447 87.7111Z" fill="#FF9CCD"/>
<path d="M215.101 83.635C215.972 81.7965 217.52 80.7321 218.487 81.2159C218.603 81.2753 218.705 81.3573 218.788 81.457C218.871 81.5568 218.934 81.6722 218.971 81.7965C217.326 81.6997 218.197 83.635 215.101 83.635Z" fill="#FFEBF5"/>
<path d="M219.264 83.0518C219.241 83.828 219.043 84.589 218.683 85.2773L218.393 85.8579C218.006 85.8579 217.425 85.6644 217.038 86.1482C216.651 86.632 216.458 87.4061 215.296 87.5997C215.046 87.3901 214.852 87.1205 214.734 86.816C214.615 86.5114 214.576 86.1818 214.619 85.8579H214.813C216.845 85.8579 218.103 83.7291 219.264 83.0518Z" fill="#FF70B7"/>
<path d="M225.359 93.9875C224.824 93.9875 224.391 93.4243 224.391 92.7296C224.391 92.0349 224.824 91.4717 225.359 91.4717C225.893 91.4717 226.326 92.0349 226.326 92.7296C226.326 93.4243 225.893 93.9875 225.359 93.9875Z" fill="#F7D197"/>
<path d="M230.582 102.408C230.048 102.408 229.615 101.844 229.615 101.15C229.615 100.455 230.048 99.8917 230.582 99.8917C231.117 99.8917 231.55 100.455 231.55 101.15C231.55 101.844 231.117 102.408 230.582 102.408Z" fill="#F7D197"/>
<path d="M235.035 33.0262L237.164 39.6062L242.292 42.4123L235.035 33.0262Z" fill="#179DE0"/>
<path d="M228.359 107.633C228.072 109.141 227.684 110.628 227.198 112.084V112.084C227.101 110.826 226.617 109.471 225.843 109.278C225.069 109.084 224.972 106.955 224.005 106.955L225.456 103.762C226.493 104.999 227.462 106.291 228.359 107.633Z" fill="#A8C3FF"/>
<path d="M225.165 133.951C225.024 134.191 224.824 134.39 224.584 134.532L225.165 133.951Z" fill="#D6DFFF"/>
<path d="M218.391 118.082C215.972 119.436 214.907 120.307 214.907 122.63C216.424 121.423 217.62 119.861 218.391 118.082V118.082Z" fill="#D6DFFF"/>
<path d="M207.553 118.469C205.134 120.888 204.166 122.63 204.07 123.984C205.054 123.625 205.97 123.101 206.779 122.436L207.553 118.469Z" fill="white"/>
<path d="M225.842 114.693C225.688 116.209 225.262 117.684 224.584 119.048C226.326 117.79 226.326 116.725 225.842 114.693Z" fill="#D6DFFF"/>
<path d="M220.038 126.209C218.587 128.435 215.103 128.435 215.103 128.435C218.296 130.08 219.651 130.177 220.038 126.209Z" fill="#D6DFFF"/>
<path d="M204.359 107.92C203.562 109.155 203.189 110.616 203.294 112.081C203.294 112.081 200.585 109.759 204.359 107.92Z" fill="#C7D3FC"/>
<path d="M199.91 127.857C199.329 129.889 199.91 131.727 201.168 132.211C201.096 130.681 200.665 129.189 199.91 127.857V127.857Z" fill="#C7D3FC"/>
<path d="M216.941 99.0192C214.809 98.3894 212.645 97.8726 210.458 97.471C213.845 97.1807 215.877 97.7612 216.941 99.0192Z" fill="#5E221D"/>
<path d="M223.134 103.471C222.554 103.277 221.876 102.89 221.296 103.471H223.134Z" fill="#5E221D"/>
<path d="M222.842 104.73C222.455 104.246 221.971 103.666 221.197 103.956L222.842 104.73Z" fill="#5E221D"/>
<path d="M206.004 99.8917C206.584 100.085 207.358 100.182 207.455 101.053L206.004 99.8917Z" fill="#5E221D"/>
<path d="M205.423 101.053C206.004 100.956 206.778 100.762 207.262 101.536L205.423 101.053Z" fill="#5E221D"/>
<path d="M214.715 103.278C214.572 104.201 214.131 105.051 213.457 105.697C213.07 105.988 213.361 105.31 213.941 104.149C214.522 102.988 214.909 102.504 214.715 103.278Z" fill="#A25751"/>
<path d="M218.199 111.694C218.426 111.679 218.651 111.736 218.843 111.858C219.034 111.98 219.182 112.16 219.264 112.371C216.167 113.436 211.523 112.952 210.361 112.758C209.2 112.565 209.684 112.275 209.781 111.791H209.878C212.645 112.094 215.439 112.062 218.199 111.694V111.694Z" fill="#D6DFFF"/>
<path d="M204.458 98.1502C205.119 97.5125 205.831 96.93 206.586 96.4084C206.586 96.4084 205.812 98.634 205.232 100.473L203.587 101.44C203.795 100.323 204.086 99.2238 204.458 98.1502V98.1502Z" fill="#A8C3FF"/>
<path d="M160.528 115.275H160.722C161.438 115.313 162.123 115.577 162.68 116.029C163.236 116.481 163.635 117.098 163.818 117.791L167.302 130.854L168.463 132.112C168.705 132.366 168.884 132.674 168.985 133.01C169.086 133.346 169.106 133.702 169.043 134.047L168.753 136.66C167.689 142.272 167.785 137.144 164.399 136.273C161.012 135.402 163.528 133.467 163.044 132.209C160.865 128.872 159.414 125.113 158.786 121.178L155.883 115.856C157.383 115.378 158.957 115.181 160.528 115.275V115.275Z" fill="#244AB0"/>
<path d="M160.814 116.244C161.097 116.253 161.373 116.331 161.619 116.47C161.865 116.61 162.073 116.808 162.225 117.046C162.378 117.284 162.47 117.556 162.494 117.837C162.518 118.119 162.473 118.402 162.363 118.663C160.234 122.34 153.847 126.501 149.009 128.049C144.171 129.597 144.074 128.339 147.171 124.856C150.267 121.372 153.267 115.663 160.814 116.244Z" fill="#242236"/>
<path d="M149.009 128.048C153.563 126.438 157.697 123.826 161.105 120.403L162.363 118.662C162.473 118.401 162.518 118.118 162.494 117.836C162.47 117.554 162.378 117.283 162.225 117.045C162.073 116.806 161.865 116.609 161.619 116.469C161.373 116.329 161.097 116.252 160.814 116.243H160.718C154.234 115.759 151.525 119.339 148.525 123.016C148.102 123.674 147.616 124.29 147.074 124.855C144.074 128.338 143.106 129.886 149.009 128.048Z" fill="#242236"/>
<path d="M149.009 128.048H149.299C152.728 126.864 155.909 125.06 158.685 122.726L160.621 120.984L161.105 120.404C161.577 119.898 161.998 119.347 162.363 118.759C162.473 118.498 162.518 118.215 162.494 117.933C162.47 117.652 162.378 117.38 162.225 117.142C162.073 116.904 161.865 116.706 161.619 116.566C161.373 116.427 161.097 116.349 160.814 116.34H159.943C159.068 116.251 158.184 116.317 157.331 116.533C153.17 117.211 150.944 120.114 148.525 123.113L148.235 123.597L147.171 124.855C144.074 128.338 143.106 129.887 149.009 128.048Z" fill="#242236"/>
<path d="M180.846 159.013C180.634 152.459 180.828 145.899 181.427 139.37C181.814 136.08 180.459 137.725 179.105 140.628C177.75 143.531 178.524 148.272 179.105 153.304C179.685 158.335 180.943 161.238 180.846 159.013Z" fill="#152D69"/>
<path d="M169.234 139.66C169.795 145.514 169.892 151.402 169.525 157.271C169.138 161.916 170.976 159.11 172.234 156.594C173.492 154.078 172.524 153.304 171.75 148.659C170.976 144.014 170.879 142.757 170.492 140.337C170.105 137.918 169.041 136.564 169.234 139.66Z" fill="#152D69"/>
<path d="M164.977 140.531C165.074 146.337 163.719 150.788 161.107 150.691C159.024 150.548 157.018 149.846 155.301 148.659C154.14 147.885 154.817 147.692 156.946 146.724C158.949 145.694 160.65 144.16 161.881 142.273C162.848 140.531 164.88 136.564 164.977 140.531Z" fill="#173275"/>
<path d="M147.076 118.37L148.237 123.499L149.205 127.756C149.205 127.853 160.526 120.402 160.526 120.209C160.415 119.931 160.35 119.637 160.332 119.338C160.214 118.929 160.149 118.506 160.139 118.08C160.042 117.79 160.042 117.403 159.945 117.112V116.241C159.818 115.214 159.786 114.178 159.849 113.145V112.177C160.042 107.726 160.236 101.146 160.236 101.146C149.592 100.662 146.108 104.146 146.108 104.146C145.527 113.629 146.398 115.854 147.076 118.37Z" fill="#7A2F28"/>
<path d="M159.658 116.051C159.627 114.823 159.871 113.602 160.374 112.48C160.876 111.358 161.623 110.363 162.561 109.568C164.109 108.504 164.303 107.827 165.174 106.375C166.044 104.924 166.432 104.44 166.915 103.859C167.07 103.612 167.127 103.315 167.073 103.028C167.019 102.741 166.859 102.485 166.625 102.311C166.141 101.827 165.174 101.634 163.916 102.408C162.658 103.182 160.239 105.214 158.497 106.375C156.755 107.536 155.013 114.213 159.658 116.051Z" fill="#7A2F28"/>
<path d="M159.851 107.92C160.045 104.146 160.722 96.9853 160.819 95.437C160.991 93.8301 161.023 92.2113 160.915 90.5988C160.819 89.8247 160.819 89.2441 159.754 89.2441C158.69 89.2441 158.013 90.5021 157.722 92.9212C157.432 95.3403 157.335 96.695 157.335 96.695C156.711 98.6253 156.226 100.598 155.884 102.598C155.787 104.63 159.851 107.92 159.851 107.92Z" fill="#7A2F28"/>
<path d="M156.17 101.824C156.073 98.6312 155.299 90.8901 155.106 89.1483C154.912 87.4066 154.622 87.0195 153.654 87.1163C152.686 87.213 151.719 87.4066 152.106 92.8254C152.396 95.6315 152.396 97.3733 152.396 97.3733C152.396 97.3733 152.396 102.115 152.493 103.469C152.59 104.824 156.17 101.824 156.17 101.824Z" fill="#7A2F28"/>
<path d="M152.687 102.212C152.299 98.8254 151.525 93.6001 151.332 92.0519C151.138 90.5037 150.751 89.6328 149.687 89.9231C148.622 90.2134 148.042 90.9875 148.332 93.7936C148.622 96.5998 148.816 98.5351 148.913 99.3092C149.009 100.083 149.203 104.341 149.203 104.341L152.687 102.212Z" fill="#7A2F28"/>
<path d="M149.591 104.051C148.914 101.051 147.946 96.6001 147.656 95.1487C147.366 93.6972 146.979 93.1166 145.914 93.4069C144.85 93.6972 144.463 94.4713 144.947 96.9872C145.302 98.5502 145.561 100.134 145.721 101.729L146.398 106.18L149.591 104.051Z" fill="#7A2F28"/>
<path d="M160.139 105.115C157.817 106.567 155.204 107.147 154.237 108.696C153.37 109.791 152.714 111.038 152.301 112.373C152.108 113.437 151.817 113.05 150.85 111.695C149.882 110.341 149.011 109.276 148.624 108.018C148.237 106.76 148.721 105.889 152.688 105.309L160.139 104.245V105.115Z" fill="#5E221D"/>
<path d="M157.236 115.663C157.235 115.924 157.268 116.184 157.333 116.437C157.526 117.598 158.01 119.824 158.397 121.662C158.494 121.952 160.526 120.404 160.526 120.211C160.415 119.932 160.35 119.638 160.332 119.34C160.214 118.93 160.149 118.508 160.139 118.082C160.042 117.791 160.042 117.404 159.945 117.114V116.243C159.865 115.601 159.832 114.955 159.849 114.308C160.064 113.174 160.49 112.091 161.106 111.115V111.115L159.849 112.179C157.429 114.308 157.236 114.598 157.236 115.663Z" fill="#91423B"/>
<path d="M161.298 118.082L161.975 119.243L161.104 120.404C157.696 123.827 153.563 126.439 149.009 128.049H148.428C158.105 122.92 161.298 118.082 161.298 118.082Z" fill="#242236"/>
<path d="M159.266 97.9562C158.566 98.0092 157.865 97.8756 157.234 97.5692C157.234 97.5692 158.782 95.7307 159.266 97.9562Z" fill="#5E221D"/>
<path d="M159.559 94.2779C158.971 94.3587 158.372 94.2922 157.817 94.0844C157.817 94.0844 159.268 93.02 159.559 94.2779Z" fill="#5E221D"/>
<path d="M154.622 97.0843C153.972 97.3206 153.272 97.3873 152.59 97.2778C152.59 97.2778 153.944 95.6329 154.622 97.0843Z" fill="#5E221D"/>
<path d="M157.817 101.633C154.461 101.636 151.117 102.025 147.85 102.794C146.011 103.375 146.108 103.956 148.914 103.375C151.472 102.825 154.056 102.405 156.656 102.117C158.204 101.924 159.558 101.633 157.817 101.633Z" fill="#5E221D"/>
<path d="M153.946 92.6329C153.366 91.8588 152.592 92.5361 152.495 93.1167C152.398 93.6973 153.753 93.8908 153.946 92.6329Z" fill="#5E221D"/>
</g>
<g clip-path="url(#clip2)">
<g clip-path="url(#clip3)">
<mask id="mask1" mask-type="alpha" maskUnits="userSpaceOnUse" x="30" y="0" width="133" height="75">
<rect x="30.8247" width="132.105" height="74.8596" rx="8.80702" fill="#C4C4C4"/>
</mask>
<g mask="url(#mask1)">
<rect x="31.9256" y="1.10088" width="129.904" height="72.6579" rx="7.70614" stroke="white" stroke-width="2.20175"/>
<g clip-path="url(#clip4)">
<rect x="30.8247" y="2.20178" width="132.105" height="74.8596" rx="8.80702" fill="#F7E5BC"/>
<path d="M27.0498 71.8599V42.9205C33.1309 40.6551 47.4783 44.4839 54.0978 53.705C61.8891 45.7283 76.9017 45.2178 90.7107 53.705C94.4163 44.3563 108.289 37.5602 126.405 44.1649C127.767 33.1252 147.847 23.4893 163.24 36.4115V78.5922H33.7327C31.9628 78.5838 30.2679 77.8718 29.0164 76.6111C27.7649 75.3503 27.0582 73.6428 27.0498 71.8599V71.8599Z" fill="#6ADBC6"/>
<path d="M79.594 51.6337C64.5815 51.7294 51.7543 58.9403 45.5782 78.6267H90.7109L79.594 51.6337Z" fill="#44C9C5"/>
<path d="M64.105 78.5936H27.0487V61.2363C36.0435 62.1616 52.3546 65.6395 64.105 78.5936Z" fill="#44C9C5"/>
<path d="M45.166 57.8876L35.126 50.5491C38.2932 50.1981 44.5326 50.5491 45.166 57.8876Z" fill="#44C9C5"/>
</g>
<rect x="31.9256" y="1.10088" width="129.904" height="72.6579" rx="7.70614" stroke="white" stroke-width="2.20175"/>
<g clip-path="url(#clip5)">
<path d="M45.9869 70.3916H126.877C131.977 75.2733 132.23 78.5916 132.23 78.5916H39.9376C39.9376 78.5916 42.4397 73.1675 45.9869 70.3916Z" fill="#FAFAFA"/>
<path d="M44.0852 73.9675C43.8182 73.7433 43.6396 73.4304 43.5815 73.0852C43.5234 72.74 43.5897 72.3852 43.7685 72.085C44.9404 70.1387 45.3204 68.6072 47.9809 67.2033C50.6413 65.7994 52.3833 64.1083 60.4913 63.0554C62.1383 58.7799 61.7899 57.4717 74.047 56.5145H107.936C113.51 57.4079 113.89 57.4079 114.872 60.7262C115.854 64.0445 115.822 63.6297 118.736 64.8103C121.65 65.9908 126.179 66.2142 127.921 70.1068C128.491 71.383 128.713 72.3083 125.387 78.5939H50.7047C48.3662 77.2528 46.151 75.7045 44.0852 73.9675Z" fill="#CC4F79"/>
<path d="M70.7861 57.8864C64.9268 58.9074 65.1485 58.9074 69.1075 63.5976C73.0665 68.2879 78.1024 72.6272 83.7717 74.9564C92.6398 78.5938 100.241 75.1798 104.865 69.7556C111.58 61.8747 114.462 57.8864 108.793 57.8864H70.7861Z" fill="#590942"/>
<path d="M53.2722 13.5053L55.901 12.3248C55.9178 12.3248 55.9339 12.318 55.9458 12.3061C55.9577 12.2941 55.9644 12.2779 55.9644 12.261C55.9644 12.244 55.9577 12.2278 55.9458 12.2158C55.9339 12.2039 55.9178 12.1971 55.901 12.1971L53.2722 11.0166C53.2638 11.0166 53.2558 11.0132 53.2498 11.0072C53.2439 11.0013 53.2406 10.9931 53.2406 10.9847L52.0687 8.33643C52.0687 8.30452 52.0053 8.30452 51.9737 8.33643L50.8018 10.9847C50.8018 11.0166 50.8018 11.0166 50.7701 11.0166L48.1414 12.1971C48.1258 12.2147 48.1172 12.2374 48.1172 12.261C48.1172 12.2845 48.1258 12.3072 48.1414 12.3248L50.7701 13.5053H50.8018L51.9737 16.1536C52.0053 16.2174 52.0687 16.2174 52.0687 16.1536L53.2406 13.5053H53.2722Z" fill="#FAFAFA"/>
<path d="M127.069 17.2383L128.779 16.4725C128.811 16.4725 128.811 16.4087 128.779 16.4087L127.069 15.6429C127.069 15.6345 127.065 15.6264 127.059 15.6204C127.053 15.6144 127.045 15.611 127.037 15.611L126.277 13.8881C126.277 13.8562 126.214 13.8562 126.214 13.8881L125.453 15.611H125.422L123.711 16.4087C123.68 16.4087 123.68 16.4725 123.711 16.4725L125.422 17.2383C125.422 17.2467 125.425 17.2548 125.431 17.2608C125.437 17.2668 125.445 17.2702 125.453 17.2702L126.214 18.9931H126.277L127.037 17.2702C127.069 17.2702 127.069 17.2702 127.069 17.2383Z" fill="#F7D78D"/>
<path d="M104.106 31.9772C106.386 25.5959 110.377 20.9375 112.277 20.076C114.178 19.2145 113.703 20.2994 111.929 25.6916C110.155 31.0838 110.124 39.922 106.83 39.9858C103.536 40.0496 104.106 31.9772 104.106 31.9772Z" fill="#2E64E8"/>
<path d="M108.286 33.6697C109.648 30.9257 109.743 29.5856 110.281 27.5117C110.566 26.3949 110.978 24.8315 111.326 23.5872C109.679 26.5545 106.797 33.1592 106.195 35.265C105.594 37.3708 106.924 36.3817 108.286 33.6697Z" fill="#1C4BBA"/>
<path d="M74.0487 32.392C70.8182 25.5959 65.6556 20.778 63.2802 19.9803C60.9048 19.1827 61.5383 20.2994 64.072 26.0426C66.6058 31.7858 67.2392 41.4535 71.2616 41.294C75.2839 41.1344 74.0487 32.392 74.0487 32.392Z" fill="#2E64E8"/>
<path d="M86.0833 14.1742C82.3925 14.1742 79.4005 11.1601 79.4005 7.4419C79.4005 3.72375 82.3925 0.709595 86.0833 0.709595C89.7741 0.709595 92.7661 3.72375 92.7661 7.4419C92.7661 11.1601 89.7741 14.1742 86.0833 14.1742Z" fill="#201E2F"/>
<path d="M79.7164 9.20021C79.4904 7.4706 82.2735 5.67505 85.9328 5.18973C89.592 4.70441 92.7417 5.71311 92.9677 7.44272C93.1937 9.17233 90.4106 10.9679 86.7513 11.4532C83.0921 11.9385 79.9424 10.9298 79.7164 9.20021Z" fill="#41314A"/>
<path d="M74.9033 12.8324C81.8078 6.32339 93.1464 5.49382 100.938 11.1413C108.729 16.7888 107.114 25.595 105.847 35.2628L72.8763 36.22C71.5144 30.9553 68.0305 19.3732 74.9033 12.8324Z" fill="#4D7AE8"/>
<path d="M72.1149 33.3488L105.434 32.3597C111.547 45.8882 117.628 71.0625 90.168 71.8602C63.9752 72.626 66.0022 48.6002 72.1149 33.3488Z" fill="#4D7AE8"/>
<path d="M72.1142 33.3487C70.6889 27.446 69.1053 18.3526 74.9013 12.8327L75.5347 12.2903H77.2767C77.2767 12.2903 76.5483 23.681 77.15 28.2117C77.7518 32.7425 77.5301 33.2211 76.1682 33.8273C74.8063 34.4335 73.5394 35.1674 73.7928 40.9744C74.0462 46.7814 74.3946 47.5472 73.1277 54.439C71.8608 61.3309 73.5711 65.734 77.15 69.3713C65.0196 62.8943 67.3 45.4094 72.1142 33.3487Z" fill="#2E64E8"/>
<path d="M97.8672 59.4169C94.2566 64.2986 84.5016 65.5429 80.5426 59.6083C78.5472 56.641 83.8048 56.4815 89.1257 56.5134C94.4466 56.5453 99.7992 56.7686 97.8672 59.4169Z" fill="#3366E0"/>
<path d="M84.0978 34.0858C84.0132 31.2147 86.1416 28.8216 88.8516 28.7406C91.5617 28.6595 93.8272 30.9213 93.9118 33.7923C93.9964 36.6634 91.868 39.0565 89.1579 39.1376C86.4479 39.2186 84.1824 36.9568 84.0978 34.0858Z" fill="#DBE7FF"/>
<path d="M87.1989 34.7379C87.147 33.629 87.9548 32.6896 89.0032 32.6398C90.0515 32.59 90.9435 33.4486 90.9954 34.5575C91.0473 35.6665 90.2395 36.6058 89.1911 36.6556C88.1428 36.7054 87.2508 35.8468 87.1989 34.7379Z" fill="#201E2F"/>
<path d="M94.3486 24.8956C92.2899 20.5563 84.6887 21.003 82.9467 25.2466L94.3486 24.8956Z" fill="#201E2F"/>
<path d="M96.2502 43.0494L95.3317 43.3685L94.4133 43.5918L93.4948 43.8151L92.5763 43.9428C90.0809 44.2439 87.5502 43.9376 85.1967 43.0494L84.3099 42.6984L83.4547 42.2836L82.5996 41.8369L81.7444 41.3264H81.6494C81.3775 41.1755 81.0785 41.0806 80.7698 41.047C80.4611 41.0135 80.1489 41.0421 79.8513 41.1312C79.5537 41.2202 79.2766 41.368 79.0361 41.5658C78.7957 41.7636 78.5966 42.0076 78.4505 42.2836C78.2575 42.6491 78.1618 43.0588 78.1729 43.4726C78.184 43.8864 78.3015 44.2903 78.5139 44.6447C79.5304 46.3028 80.9468 47.6748 82.6312 48.6331C84.3143 49.6052 86.1749 50.225 88.1015 50.4553C90.0281 50.6856 91.981 50.5216 93.8432 49.9731C95.6959 49.408 97.3748 48.3756 98.7207 46.9739C99.1572 46.5168 99.3957 45.9038 99.3839 45.2696C99.372 44.6355 99.1107 44.032 98.6573 43.5918C98.3545 43.3132 97.9861 43.1171 97.5871 43.0222C97.188 42.9273 96.7714 42.9366 96.3769 43.0494H96.2502Z" fill="#400015"/>
<path d="M97.2642 48.2194C96.2197 48.9691 95.0656 49.5504 93.8436 49.9423C91.9814 50.4908 90.0285 50.6548 88.1019 50.4245C86.1753 50.1942 84.3147 49.5744 82.6317 48.6022C81.4335 47.9082 80.3623 47.0125 79.4645 45.954C80.8509 44.5795 82.4707 43.4664 84.2469 42.6676H84.3103L85.1971 43.0186C87.5506 43.9068 90.0813 44.2131 92.5767 43.912L93.4952 43.7843H93.5902C95.1474 44.9475 96.4069 46.4678 97.2642 48.2194Z" fill="#590942"/>
<path d="M80.1596 44.2931L80.0645 41.0705C80.6013 40.9375 81.1683 41.0175 81.6481 41.2939H81.7432L82.5983 41.8044L83.4535 42.2511L84.3086 42.6659L85.1954 43.0168C87.5489 43.905 90.0796 44.2114 92.575 43.9102L93.4935 43.7826L94.412 43.5592L95.3305 43.3359L96.249 43.0168H96.3757C96.685 42.932 97.008 42.9103 97.3258 42.953L97.3892 44.6122C91.0864 47.7071 83.9602 45.9522 80.1596 44.2931Z" fill="#DBE7FF"/>
<path d="M95.0454 43.4323L95.3305 43.3685L96.249 43.0494H96.3757C96.685 42.9646 97.008 42.9429 97.3258 42.9856L97.3892 44.6448C96.741 44.9517 96.0746 45.2181 95.3938 45.4424L95.0454 43.4323Z" fill="#B5CDFF"/>
<path d="M83.675 45.5056C82.4707 45.204 81.2945 44.7984 80.1594 44.2931L80.0644 41.0705C80.6012 40.9375 81.1681 41.0175 81.648 41.2939H81.743L82.5982 41.8044L83.4533 42.2511L83.77 42.4106L83.675 45.5056Z" fill="#B5CDFF"/>
<path d="M81.2373 38.4247L76.3598 40.8816C76.2965 37.9142 78.7352 37.5633 81.2373 38.4247Z" fill="#3366E0"/>
<path d="M102.521 44.9615L98.0239 40.4946C101.445 40.3989 102.806 42.6962 102.521 44.9615Z" fill="#3366E0"/>
<path d="M99.8271 49.5266C98.3069 51.6963 96.7549 53.7064 96.7549 53.7064C99.8588 53.4511 99.8271 49.5266 99.8271 49.5266Z" fill="#3366E0"/>
<path d="M74.9026 12.8324C81.8071 6.32339 93.1458 5.49382 100.937 11.1413C104.516 13.7257 106.068 17.1717 106.575 21.1281C102.299 24.4464 101.824 18.6713 100.019 12.6728C93.6208 17.9055 83.9292 17.9693 77.7215 13.311L77.4681 18.3841C77.183 23.2977 73.8891 23.8721 70.9436 21.2557C71.3237 18.1608 72.4322 15.1615 74.9026 12.8324Z" fill="#201E2F"/>
<path d="M96.34 20.6688C95.5309 19.8392 95.2188 18.8263 95.6429 18.4064C96.0671 17.9865 97.067 18.3185 97.8762 19.148C98.6853 19.9776 98.9974 20.9905 98.5732 21.4104C98.1491 21.8303 97.1492 21.4983 96.34 20.6688Z" fill="#618AED"/>
<path d="M65.2441 23.2362C66.9627 25.7252 68.4977 28.3379 69.8366 31.0533C70.6284 32.7125 69.8049 32.9358 69.5515 34.9459C69.2981 36.956 68.6647 35.9988 67.8412 32.5848C67.0178 29.1708 66.5743 27.9584 65.7509 26.1078C64.9274 24.2572 63.5338 20.7475 65.2441 23.2362Z" fill="#1C4BBA"/>
<path d="M61.0625 64.6515C62.6144 68.8313 66.7318 78.5947 66.7318 78.5947H78.7988C72.4011 74.0959 67.5552 69.0227 65.3699 65.1301C63.1845 61.2375 62.7411 58.9083 61.0941 63.2476C60.9105 63.6953 60.8993 64.1958 61.0625 64.6515V64.6515Z" fill="#BA3B66"/>
<path d="M63.3091 78.5952C57.5131 71.6714 55.6128 69.3103 54.0608 68.4169C52.5089 67.5235 49.9118 66.1515 52.6989 70.427C55.4861 74.7025 60.1735 78.5952 60.1735 78.5952H63.3091Z" fill="#BA3B66"/>
<path d="M103.313 78.5913C107.81 73.1033 110.914 67.743 112.086 64.7757C113.258 61.8084 113.606 61.0745 113.891 62.7337C114.176 64.3928 114.81 65.1586 114.24 67.4558C113.669 69.7531 111.801 75.9749 110.629 78.5913H103.313Z" fill="#BA3B66"/>
<path d="M121.84 78.5927H123.614C125.641 73.4238 126.464 71.0947 126.559 69.3717C126.654 67.6487 124.596 73.36 121.84 78.5927Z" fill="#BA3B66"/>
<path d="M114.462 78.6251H118.2C119.181 71.1271 119.181 69.6593 118.96 67.5535C118.738 65.4477 117.693 67.2663 116.933 71.0313C116.358 73.6379 115.53 76.1814 114.462 78.6251V78.6251Z" fill="#BA3B66"/>
<path d="M129.472 63.9499C126.147 58.5257 122.568 55.8775 118.229 53.4845C113.89 51.0915 113.319 49.7195 116.518 48.6346C119.717 47.5498 122.473 47.9646 126.305 49.5599C130.137 51.1553 132.861 52.0806 134.033 56.6113C135.205 61.1421 133.558 63.886 129.472 63.9499Z" fill="#542113"/>
<path d="M128.365 58.2682C126.306 49.5577 124.913 42.953 123.583 37.0184C122.252 31.0837 120.764 27.6378 123.044 26.5849C125.324 25.532 126.56 25.9148 129.569 32.679C132.577 39.4433 133.908 44.325 134.889 47.8347C135.871 51.3444 139.165 60.8845 128.365 58.2682Z" fill="#542113"/>
<path d="M132.675 44.6126L134.671 44.3254C133.594 32.7752 133.024 27.8616 132.77 24.5433C132.517 21.225 133.879 21.1612 135.969 21.0655C138.059 20.9698 138.82 21.8312 139.738 26.1706C140.657 30.5099 141.765 38.0398 142.177 41.0072C142.589 43.9745 143.285 50.8025 143.222 52.9722C143.159 55.1418 132.675 56.1309 132.675 44.6126Z" fill="#542113"/>
<path d="M142.364 47.5179C142.047 43.0191 142.712 31.0222 142.776 28.7887C142.839 26.5553 143.631 26.8105 145.531 26.7467C147.432 26.6829 148.223 27.5444 148.477 32.809C148.73 38.0736 149.142 43.7849 149.079 46.4331C150.446 50.1622 150.965 54.1528 150.599 58.111C150.219 62.2907 149.68 63.4075 148.92 64.7156C148.16 66.0238 143.631 67.4915 137.835 68.0658C132.039 68.6402 131.501 67.8106 129.474 63.9499C127.447 60.0892 131.247 49.6876 131.247 49.6876L142.364 47.5179Z" fill="#542113"/>
<path d="M150.217 61.1074C151.072 63.1175 152.751 67.8716 154.398 72.5938C154.212 74.241 153.431 75.762 152.205 76.8678C150.979 77.9736 149.393 78.5873 147.747 78.5923H131.499C131.531 78.0499 131.974 70.3923 130.454 65.7339C130.454 65.7339 148.285 56.6405 150.217 61.1074Z" fill="#542113"/>
<path d="M130.455 52.1096C134.192 54.5026 135.237 55.6513 136.156 57.3104C137.074 58.9696 137.961 59.1291 141.35 59.1929C144.739 59.2567 144.802 59.3205 145.753 55.2684C146.703 51.2162 145.277 49.4933 141.603 49.6528C136.726 49.8442 128.206 50.8334 130.455 52.1096Z" fill="#4A1A0D"/>
<path d="M147.526 45.1251H134.984C138.88 43.3384 144.327 43.5617 147.526 45.1251Z" fill="#4A1A0D"/>
<path d="M132.733 45.6986C130.865 46.3686 127.222 47.932 127.222 47.932C129.883 43.9756 132.733 45.6986 132.733 45.6986Z" fill="#4A1A0D"/>
<path d="M130.708 37.2112C128.776 37.5941 124.912 38.5513 124.912 38.5513C128.174 35.0735 130.708 37.2112 130.708 37.2112Z" fill="#4A1A0D"/>
<path d="M140.147 34.4682C138.342 34.6277 134.699 35.0744 134.699 35.0744C138.215 32.0752 140.147 34.4682 140.147 34.4682Z" fill="#4A1A0D"/>
<path d="M147.81 37.2736C146.321 37.0503 143.249 36.795 143.249 36.795C146.67 34.9125 147.81 37.2736 147.81 37.2736Z" fill="#4A1A0D"/>
<path d="M114.811 49.5266C117.725 51.7601 122.064 52.2068 126.213 54.3445C130.362 56.4823 131.091 58.7476 132.231 61.8745C132.955 63.9428 133.558 66.0523 134.036 68.192C131.629 67.9368 130.932 66.7243 129.475 63.9484C126.15 58.5243 122.571 55.876 118.232 53.483C114.97 51.7282 113.829 50.5157 114.811 49.5266Z" fill="#732D1A"/>
<path d="M130.457 65.7338L129.475 63.947C129.285 63.596 129.063 63.3089 128.873 62.9898C130.932 65.7657 136.316 66.34 140.94 66.6591C145.564 66.9781 149.365 65.4785 150.22 61.1073C150.759 62.3836 152.691 67.3291 154.433 71.9237V78.5922H131.502C131.534 78.0497 131.977 70.3921 130.457 65.7338Z" fill="#4A1A0D"/>
<path d="M123.014 26.5845C122.713 27.6997 122.691 28.8727 122.951 29.9985C123.552 32.902 124.914 38.5495 127.796 50.1635L126.371 49.6211C125.294 44.8989 124.407 40.8149 123.584 37.018C122.254 31.1471 120.765 27.6693 123.014 26.5845Z" fill="#732D1A"/>
<path d="M132.768 24.5453C133.022 27.8316 133.624 32.9367 134.669 44.3274L135.524 44.136L134.13 21.2908C133.149 21.5779 132.61 22.3437 132.768 24.5453Z" fill="#732D1A"/>
</g>
</g>
</g>
</g>
<rect x="1.10088" y="80.3641" width="129.904" height="72.6579" rx="7.70614" fill="#5E87F9" stroke="white" stroke-width="2.20175"/>
<g clip-path="url(#clip6)">
<path d="M2.20166 120.641C14.4593 117.268 28.9595 121.724 33.3525 131.688C46.5318 127.449 61.7693 135.308 68.958 144.561H2.20166V120.641Z" fill="#6E94FF"/>
<path d="M129.896 106.345C121.878 104.984 112.416 106.778 109.528 110.801C100.926 109.099 90.9727 112.286 86.2725 116H129.896V106.345Z" fill="#7A9DFF"/>
<path d="M100.673 149.048C98.215 143.756 98.2764 143.54 93.9141 141.962L99.7203 150.347L100.673 149.048Z" fill="#FF707E"/>
<path d="M33.2729 102.384L33.5494 102.631L34.1331 103.188L34.3481 103.374L34.8089 103.776C45.0697 112.657 58.2182 116.401 67.1272 119.093C78.6168 122.559 88.1709 123.58 95.3289 123.611C104.637 123.518 106.511 118.629 102.579 112.812L100.367 110.058L89.0004 96.1329L88.4474 95.4521C80.9516 86.5094 74.2237 82.4867 60.0614 85.581L38.5261 90.2845H38.4647C30.9381 91.9555 27.4052 96.5661 33.2729 102.384Z" fill="url(#paint0_linear)"/>
<path d="M58.0628 87.3148C49.461 89.4499 34.715 93.782 34.715 93.782L31.1514 94.2771C32.4109 92.4514 35.0222 91.059 38.4629 90.2854H38.5244L60.0596 85.5819C66.7568 84.1276 71.7643 84.2823 76.0037 85.7366C69.4602 84.1585 65.6508 85.4272 58.0628 87.3148Z" fill="#FFFDC4"/>
<path d="M66.4811 120.237C58.9237 117.948 42.7646 111.48 36.4976 105.168C37.9722 106.653 36.5283 103.992 39.3546 105.384C54.2235 112.687 87.9856 122.558 95.3279 123.61C88.1392 124.044 74.192 122.558 66.4811 120.237Z" fill="#FFFDC4"/>
<path d="M31.5508 93.7807C38.1865 91.7693 53.1475 93.595 69.7368 98.8245C87.0326 104.271 100.765 111.79 104.451 117.329C104.881 120.949 102.055 123.549 95.3272 123.61C88.5993 123.672 78.6151 122.558 67.1255 119.093C58.2165 116.401 45.068 112.656 34.8072 103.776L34.3464 103.373L34.1314 103.188L33.5477 102.631L33.2712 102.383C29.8612 98.9792 29.6461 96.0086 31.5508 93.7807Z" fill="url(#paint1_linear)"/>
<path d="M95.4749 119.087C96.444 115.972 84.1704 109.325 68.0611 104.24C51.9518 99.155 38.1071 97.5578 37.138 100.673C36.1689 103.787 48.4425 110.435 64.5518 115.52C80.661 120.605 94.5058 122.202 95.4749 119.087Z" fill="#6B3143"/>
<path d="M37.2647 101.795C37.0825 101.443 37.0282 101.038 37.1111 100.65C37.1806 100.476 37.2852 100.318 37.4183 100.186L54.0382 107.365L41.5656 99.1031C42.1079 99.0721 42.6515 99.0721 43.1938 99.1031L54.7448 106.87C55.4276 106.775 56.1203 106.775 56.8031 106.87L50.4746 99.8767L52.8708 100.31L57.7247 106.994C58.7078 107.118 59.8444 107.334 61.104 107.613L57.479 101.3L59.6294 101.826L62.0256 107.829L64.299 108.448L62.64 102.631C63.5002 102.837 64.3604 103.085 65.2206 103.373L66.0193 108.881H65.835L66.4494 109.098L68.2005 104.271L70.1359 104.921L67.0946 109.284L68.6306 109.81L72.993 105.88L75.297 106.715L69.9209 110.274L71.5184 110.893L78.1848 107.829L81.0111 108.974L72.7472 111.388L74.6826 112.285L86.3872 111.481C87.3703 111.976 88.3226 112.471 89.1828 112.966H75.9729L76.8945 113.554L92.9615 115.441C93.6529 115.941 94.2821 116.523 94.8354 117.174L77.6625 114.266C77.7156 114.323 77.7543 114.392 77.7757 114.467C77.7971 114.543 77.8004 114.622 77.7854 114.699C77.7593 114.766 77.7179 114.826 77.6645 114.875C77.6112 114.923 77.5474 114.958 77.4782 114.977L95.2655 119.433C94.989 119.804 94.4361 120.114 93.6373 120.331L75.7885 115.132C74.8285 115.079 73.8736 114.955 72.9315 114.761L87.1245 120.485C86.4487 120.454 85.7114 120.361 84.9433 120.269L71.0883 114.389L70.5967 114.296L79.5058 119.371C78.154 119.093 76.7409 118.814 75.2663 118.443L68.8456 113.863L65.3742 112.842C63.8996 112.378 62.5172 111.883 61.2576 111.419L55.7893 112.44C53.9461 111.759 52.2257 111.047 50.6282 110.336L58.9843 110.49H58.9535L46.143 108.262C44.6991 107.52 43.3781 106.808 42.2414 106.127L56.4037 109.284L55.4821 108.758L37.2647 101.795Z" fill="#7A384C"/>
<path d="M111.518 159.846H37.0508C38.3718 158.484 39.9693 157.649 42.5191 156.473L48.2639 155.668L50.3836 155.39L54.9917 154.74L58.4939 154.276L60.5829 153.997L61.4738 153.873L70.1064 152.698L72.1032 152.419L75.3596 151.986L76.6499 151.8L79.169 151.46L79.7834 151.367L85.3746 150.593L98.646 148.799L99.3218 148.706C99.7206 148.675 100.121 148.675 100.52 148.706C106.818 148.861 108.999 151.676 111.518 159.846Z" fill="#2347A1"/>
<path d="M99.32 148.706L98.9514 149.232C98.8285 149.356 98.7363 149.542 98.5827 149.727L98.1834 150.253C97.4768 151.182 96.4937 152.481 95.2649 154.028L92.3771 157.556L91.4248 158.67C91.0869 159.041 90.7796 159.444 90.4417 159.846H43.0395C42.6709 157.773 42.5173 156.473 42.5173 156.473C42.5128 156.15 42.5963 155.832 42.7589 155.554C42.9214 155.276 43.1566 155.048 43.4389 154.895L47.7398 152.388H47.7705V152.079C47.7705 151.955 47.7398 151.862 47.7398 151.769C47.7398 151.677 47.6784 150.779 47.6784 150.408V150.006C47.6559 149.821 47.6456 149.635 47.6476 149.449C47.6321 149.409 47.6218 149.367 47.6169 149.325L47.4633 146.726C47.4338 146.21 47.5304 145.695 47.7446 145.225C47.9589 144.756 48.2842 144.347 48.6921 144.034L54.3755 139.516L54.867 139.113L56.4645 137.876L60.4275 134.75L62.6701 134.441H62.7008L65.6807 133.977H65.7115L69.7666 133.389L70.934 133.203L73.9446 132.739L75.3885 132.522H75.6343L76.433 132.646L77.4775 132.801L79.5973 133.141C80.5226 133.29 81.4061 133.634 82.1898 134.152C82.9734 134.669 83.6394 135.348 84.144 136.143L86.4787 139.763L86.6631 139.825L88.1069 140.258L92.9301 141.713L93.9132 141.991L94.5583 142.239H94.6197C95.9117 142.814 96.9576 143.834 97.5689 145.117L99.32 148.706Z" fill="#EF6270"/>
<path d="M88.108 140.229C86.9713 137.351 86.3569 133.947 79.1682 132.493L73.8535 131.688L74.2836 136.051L84.3293 142.735L88.108 140.229Z" fill="#FF707E"/>
<path d="M99.3223 148.706L98.9537 149.232C98.8308 149.356 98.7386 149.541 98.585 149.727L98.1856 150.253C97.4791 151.181 96.496 152.481 95.2672 154.028L92.3794 157.556L91.4271 158.67L90.4133 159.846H68.2021C68.7244 157.989 69.4924 155.204 69.8611 153.626C69.9209 153.311 70.003 153.001 70.1068 152.698C70.6291 150.748 71.0592 149.541 67.8335 149.046L68.1714 147.344L69.646 139.825L70.0147 137.814L70.3219 136.359L70.8134 133.884L70.9363 133.234L73.9469 132.77L75.3908 132.553H75.6366L76.4353 132.677L77.4798 132.832L79.5996 133.172C80.5248 133.321 81.4084 133.665 82.1921 134.182C82.9757 134.7 83.6417 135.378 84.1462 136.174L86.481 139.794L86.6653 139.856L88.1092 140.289L92.9324 141.744L93.9155 142.022L94.5606 142.27H94.622C95.914 142.844 96.9598 143.865 97.5712 145.147L99.3223 148.706Z" fill="#E05164"/>
<path d="M78.8626 140.662C82.4876 137.908 82.2419 138.125 80.2143 136.794C78.9944 135.992 77.5838 135.533 76.1284 135.464L78.8626 140.662Z" fill="#BD3C53"/>
<path d="M79.783 151.367L73.8539 159.846H69.3994C71.8264 157.185 74.3762 154.369 76.6495 151.8C79.8752 148.087 82.5479 144.838 83.5617 143.26L83.2545 145.271L83.0394 146.695L79.783 151.367Z" fill="#E05164"/>
<path d="M53.3006 141.528C49.2762 145.056 47.2794 144.097 56.7721 157.217L59.0454 155.701L65.6811 148.212L57.2636 137.537L53.3006 141.528Z" fill="#C74153"/>
<path d="M54.5309 106.344C54.7767 105.539 60.2143 106.468 66.7271 108.417C73.2399 110.367 78.2781 112.594 78.0631 113.399C76.7113 124.291 76.9264 133.946 78.8618 140.661L59.0469 155.699C50.7523 135.586 53.2714 117.762 54.5309 106.344Z" fill="#FFB685"/>
<path d="M63.2563 134.009L70.9365 133.886L71.766 138.403C68.7553 141.436 64.3623 140.229 62.1196 138.218C59.1704 140.817 56.2827 140.786 54.2551 138.496L54.1937 138.434C54.0094 137.197 53.825 135.959 53.7021 134.721C56.8357 133.793 63.2563 134.009 63.2563 134.009Z" fill="#FE9B77"/>
<path d="M70.9355 146.139C69.0308 133.05 69.4609 117.3 69.7066 109.378C74.6834 111.049 78.247 112.72 78.0627 113.401C76.711 124.293 76.926 133.948 78.8614 140.662L70.9355 146.139Z" fill="#FE9B77"/>
<g style="mix-blend-mode:multiply" opacity="0.4">
<path d="M54.5306 106.344C54.7764 105.539 60.2139 106.468 66.7267 108.417C73.2396 110.367 78.2778 112.594 78.0627 113.399C77.8784 114.791 77.7248 116.153 77.6019 117.515C70.5361 116.648 60.7362 117.762 53.3018 120.052C53.5475 114.853 54.1005 110.212 54.5306 106.344Z" fill="#A8387E"/>
</g>
<path d="M61.7793 89.8204L58.0928 90.5321L59.168 92.265L61.7793 89.8204Z" fill="#FFCD8F"/>
<path d="M68.0883 128.063C68.527 127.273 68.4264 126.375 67.8636 126.058C67.3008 125.741 66.4889 126.126 66.0502 126.916C65.6115 127.707 65.7121 128.605 66.2749 128.921C66.8377 129.238 67.6496 128.854 68.0883 128.063Z" fill="#543247"/>
<path d="M71.7669 86.1683C71.7669 86.1683 69.8622 86.0136 69.0327 86.6634C69.9851 87.7774 71.7669 86.1683 71.7669 86.1683Z" fill="#FFD08F"/>
<path d="M65.6821 86.1374C61.627 85.1782 61.2891 87.3133 61.2891 87.3133L65.6821 86.1374Z" fill="#FFFDC4"/>
<path d="M95.5115 111.386C95.2964 112.872 92.0093 113.831 92.0093 113.831L93.361 114.883C96.771 114.79 97.6619 113.057 97.6619 113.057C97.0331 112.394 96.3081 111.831 95.5115 111.386V111.386Z" fill="#D4655B"/>
<path d="M104.237 117.824C103.684 119.464 96.6491 118.474 96.6491 118.474L96.4341 119.309C101.626 120.238 103.869 119.773 103.869 119.773C103.869 119.773 104.176 119.278 104.237 117.824Z" fill="#D4655B"/>
<path d="M78.3414 102.633C77.942 104.551 75.6072 105.851 75.6072 105.851L71.7979 104.675C72.8731 103.128 73.3339 100.993 73.3339 100.993C73.3339 100.993 75.9452 101.704 78.3414 102.633Z" fill="#DC7363"/>
<path d="M53.1776 159.784L53.0855 159.846H49.2146C48.9074 158.639 48.5695 157.122 48.2623 155.668C47.9551 154.214 47.8015 153.162 47.74 152.357V152.048C47.74 151.924 47.7093 151.831 47.7093 151.738C47.7093 151.645 47.6479 150.748 47.6479 150.377V149.974C47.6254 149.79 47.6151 149.604 47.6171 149.417C47.6017 149.378 47.5913 149.336 47.5864 149.294C48.3398 151.409 49.2859 153.45 50.4127 155.39C51.4265 157.153 52.4403 158.701 53.1776 159.784Z" fill="#D14658"/>
<path d="M92.931 141.682C90.5829 144.795 88.0597 147.771 85.3736 150.594C82.1787 154.028 78.7994 157.37 76.1267 159.846H72.9932C74.6828 157.649 76.8947 154.678 79.168 151.46C80.5505 149.449 81.9636 147.344 83.2539 145.271C83.899 144.25 84.5135 143.229 85.0972 142.239C85.5887 141.403 86.0495 140.599 86.4796 139.794H86.6639L88.1078 140.227L92.931 141.682Z" fill="#CC4355"/>
<path d="M82.6387 139.763L72.8388 149.294L70.9341 157.618L81.6864 143.91L82.6387 139.763Z" fill="#E65568"/>
<path d="M58.4624 154.182L78.646 139.948L79.0146 139.669C79.5983 139.143 80.0591 139.143 78.861 140.659L59.0461 155.698L58.4624 154.182Z" fill="#BD3C53"/>
<path d="M108.016 96.5655L105.466 95.4206C105.435 95.4206 105.435 95.3278 105.466 95.3278L108.016 94.1829H108.046L109.183 91.6145C109.183 91.5836 109.275 91.5836 109.275 91.6145L110.412 94.1829H110.443L112.993 95.3278C113.023 95.3278 113.023 95.4206 112.993 95.4206L110.443 96.5655H110.412L109.275 99.1339H109.183L108.046 96.5655H108.016Z" fill="#E5E5E5"/>
<path d="M20.4926 136.669L17.9428 135.524C17.9265 135.524 17.9109 135.517 17.8993 135.506C17.8878 135.494 17.8813 135.478 17.8813 135.462C17.8813 135.445 17.8878 135.43 17.8993 135.418C17.9109 135.407 17.9265 135.4 17.9428 135.4L20.4926 134.255H20.5233L21.66 131.718C21.66 131.656 21.7214 131.656 21.7522 131.718L22.8888 134.255H22.9196L25.4694 135.4C25.4845 135.417 25.4929 135.439 25.4929 135.462C25.4929 135.485 25.4845 135.507 25.4694 135.524L22.9196 136.669H22.8888L21.7522 139.206C21.7214 139.268 21.66 139.268 21.66 139.206L20.5233 136.669H20.4926Z" fill="#5580F9"/>
<path d="M95.2649 103.837C91.1791 100.093 87.769 98.5458 87.769 98.5458C91.5784 99.3194 94.3126 100.588 95.2649 103.837Z" fill="#EB9363"/>
<path d="M53.7936 87.3133L47.3115 88.7367C48.0795 87.2514 48.9397 86.9729 53.7936 87.3133Z" fill="#FFFDC4"/>
<path d="M65.5279 137.628C62.8552 137.628 60.3054 137.566 59.5066 138.247C58.7079 138.928 59.9674 140.506 61.9336 141.991C62.7937 142.641 63.1931 142.703 65.2514 140.877C66.7567 139.577 67.5862 137.597 65.5279 137.628Z" fill="#C74153"/>
<path d="M64.4227 137.752L66.6654 138.123C66.9726 138.773 66.2967 139.98 65.2522 140.877C63.1939 142.703 62.7945 142.641 61.9344 141.991L61.0435 141.248C61.3814 140.444 62.4566 138.402 64.4227 137.752Z" fill="#A82C3C"/>
<path d="M60.4308 137.875C61.5982 137.597 63.5336 137.628 65.5304 137.628C66.6671 137.597 66.9129 138.216 66.6671 138.959L60.5844 139.082C60.2465 139.082 60.3079 138.402 60.4308 137.875Z" fill="white"/>
<path d="M51.5516 134.068C50.9372 132.984 51.2752 131.252 52.5962 130.354C52.5208 130.557 52.4902 130.774 52.5068 130.99C52.5233 131.205 52.5864 131.415 52.6918 131.604C52.7971 131.792 52.9421 131.955 53.1167 132.082C53.2912 132.208 53.491 132.294 53.7021 132.335C54.4394 132.458 55.7911 132.18 56.3748 131.963C58.003 131.344 59.8463 131.314 62.0582 132.458C65.0688 130.818 67.0964 132.242 69.8305 132.242C70.579 132.25 71.3244 132.145 72.0424 131.932C74.3465 131.252 74.3158 130.138 73.7935 128.962C77.0806 129.735 76.927 133.263 75.4831 134.81C74.623 135.893 73.0255 136.388 70.9058 135.862C67.5879 138.709 65.9597 138.895 62.0582 136.388C58.8939 139.049 55.8526 138.771 54.04 135.429C54.04 135.429 52.1968 135.274 51.5516 134.068Z" fill="#6B3143"/>
<path d="M62.0569 136.389C58.8926 139.05 55.8513 138.772 54.0388 135.43C54.0388 135.43 51.1817 135.182 51.2432 132.985C51.6118 133.852 53.1171 134.687 54.5303 134.378C56.8036 136.234 59.2306 135.677 61.5039 133.914C61.5039 133.914 66.3271 136.513 69.7371 133.666C73.6386 134.625 76.4035 132.831 75.9427 130.355C76.8643 131.748 76.4649 133.759 75.4819 134.811C74.6217 135.894 73.0242 136.389 70.9045 135.863C67.5866 138.71 65.9584 138.896 62.0569 136.389Z" fill="#5E2737"/>
<path d="M58.9735 128.911C59.5354 128.67 59.721 127.837 59.3882 127.051C59.0553 126.265 58.3301 125.824 57.7683 126.065C57.2064 126.306 57.0208 127.139 57.3536 127.925C57.6865 128.711 58.4117 129.153 58.9735 128.911Z" fill="#543247"/>
</g>
<g clip-path="url(#clip7)">
<g clip-path="url(#clip8)">
<g clip-path="url(#clip9)">
<mask id="mask2" mask-type="alpha" maskUnits="userSpaceOnUse" x="108" y="145" width="134" height="76">
<rect x="110.088" y="146.417" width="129.904" height="72.6579" rx="7.70614" fill="#C4C4C4" stroke="white" stroke-width="2.20175"/>
</mask>
<g mask="url(#mask2)">
<path d="M241.092 147.774C241.092 146.416 239.992 145.316 238.634 145.316H111.445C110.087 145.316 108.987 146.416 108.987 147.774V217.718C108.987 219.075 110.087 220.175 111.445 220.175H238.634C239.992 220.175 241.092 219.075 241.092 217.718V147.774Z" fill="#A8BFFF"/>
<path d="M239.991 148.874C239.991 147.517 238.891 146.417 237.534 146.417H112.546C111.188 146.417 110.088 147.517 110.088 148.874V216.617C110.088 217.974 111.188 219.075 112.546 219.075H237.534C238.891 219.075 239.991 217.974 239.991 216.617V148.874Z" fill="#A8BFFF"/>
<path d="M185.485 202.974C190.032 189.511 202.843 187.375 209.479 190.749C208.557 183.538 217.835 168.589 235.378 177.719H241.092V225.165H186.099L185.485 202.974Z" fill="#C2D2FF"/>
<path d="M127.666 203.967C126.437 200.439 120.907 191.649 108.987 193.135V219.009H154.855C154.732 205.948 140.293 198.861 127.666 203.967Z" fill="#C2D2FF"/>
<g clip-path="url(#clip10)">
<path d="M108.987 227.644H241.092V197.468H218.358V221.392H210.063V213.871H191.076L156.76 197.839H141.614V192.516H134.118V211.488L130.277 210.25L125.055 215.883H108.987V227.644Z" fill="#648AE8"/>
</g>
<path d="M184.532 164.103C185.516 164.103 186.314 163.3 186.314 162.308C186.314 161.317 185.516 160.513 184.532 160.513C183.548 160.513 182.75 161.317 182.75 162.308C182.75 163.3 183.548 164.103 184.532 164.103Z" fill="#7D2952"/>
<path d="M172.366 168.249C173.35 168.249 174.148 167.445 174.148 166.454C174.148 165.462 173.35 164.659 172.366 164.659C171.382 164.659 170.584 165.462 170.584 166.454C170.584 167.445 171.382 168.249 172.366 168.249Z" fill="#7D2952"/>
<path d="M156.73 172.459C157.714 172.459 158.512 171.655 158.512 170.664C158.512 169.672 157.714 168.869 156.73 168.869C155.746 168.869 154.948 169.672 154.948 170.664C154.948 171.655 155.746 172.459 156.73 172.459Z" fill="#7D2952"/>
<path d="M145.515 174.562C146.499 174.562 147.297 173.758 147.297 172.767C147.297 171.775 146.499 170.971 145.515 170.971C144.531 170.971 143.733 171.775 143.733 172.767C143.733 173.758 144.531 174.562 145.515 174.562Z" fill="#7D2952"/>
<path d="M133.319 175.895C134.304 175.895 135.101 175.091 135.101 174.1C135.101 173.108 134.304 172.305 133.319 172.305C132.335 172.305 131.538 173.108 131.538 174.1C131.538 175.091 132.335 175.895 133.319 175.895Z" fill="#7D2952"/>
<path d="M121.735 175.585C122.719 175.585 123.516 174.782 123.516 173.79C123.516 172.799 122.719 171.995 121.735 171.995C120.75 171.995 119.953 172.799 119.953 173.79C119.953 174.782 120.75 175.585 121.735 175.585Z" fill="#7D2952"/>
<path d="M231.844 202.883C232.828 202.883 233.626 202.08 233.626 201.088C233.626 200.097 232.828 199.293 231.844 199.293C230.86 199.293 230.062 200.097 230.062 201.088C230.062 202.08 230.86 202.883 231.844 202.883Z" fill="#7D2952"/>
<g clip-path="url(#clip11)">
<path d="M238.634 145.316H108.987V169.24C135.07 176.235 178.327 165.619 202.229 150.546C210.339 190.502 241.092 202.913 241.092 202.913V147.792C241.092 147.135 240.833 146.505 240.372 146.041C239.911 145.577 239.286 145.316 238.634 145.316V145.316Z" fill="#7D2952"/>
</g>
<g clip-path="url(#clip12)">
<path d="M108.987 145.316V150.175C139.586 167.414 179.863 158.16 196.76 145.316H108.987Z" fill="#70254A"/>
<path d="M241.093 145.316H214.856C215.87 169.209 226.776 187.872 241.093 197.466V145.316Z" fill="#70254A"/>
</g>
<path d="M198.541 196.694C197.005 200.346 194.24 207.34 194.24 207.34L201.276 211.735C204.102 205.081 205.054 201.553 205.515 199.696C205.976 197.839 206.283 196.044 203.887 194.589C201.491 193.134 200.17 192.856 198.541 196.694Z" fill="#F073AB"/>
<path d="M204.719 207.865L200.51 217.645C200.181 218.418 199.702 219.115 199.1 219.697C198.498 220.279 197.787 220.734 197.008 221.034C196.228 221.334 195.397 221.474 194.564 221.445C193.73 221.415 192.911 221.218 192.154 220.864L176.424 213.653L184.258 201.211L193.844 206.596L195.257 202.387C200.203 204.368 202.845 206.101 204.719 207.865Z" fill="#F7E5BC"/>
<path d="M186.435 203.129C192.764 204.181 193.348 205.512 195.037 208.855L188.248 208.081L186.435 203.129Z" fill="#F7E5BC"/>
<path d="M156.635 150.114C155.376 150.509 154.314 151.372 153.663 152.527C153.013 153.683 152.823 155.044 153.132 156.335L159.43 182.24L170.705 179.888L163.117 153.642C162.927 152.978 162.608 152.359 162.177 151.821C161.747 151.283 161.214 150.836 160.611 150.508C160.007 150.179 159.345 149.975 158.662 149.908C157.979 149.84 157.29 149.91 156.635 150.114V150.114Z" fill="#D6569B"/>
<path d="M162.903 176.173L167.358 175.988L162.627 160.389C162.561 160.165 162.45 159.956 162.302 159.777C162.153 159.598 161.969 159.451 161.761 159.347C161.554 159.242 161.327 159.182 161.095 159.17C160.864 159.157 160.632 159.193 160.415 159.275V159.275C160.033 159.421 159.719 159.705 159.532 160.07C159.345 160.435 159.298 160.858 159.401 161.256L162.903 176.173Z" fill="#E374B0"/>
<path d="M160.506 175.988C157.864 165.836 155.283 156.211 154.116 151.878C153.618 152.492 153.27 153.215 153.099 153.989C152.928 154.763 152.94 155.566 153.133 156.335L157.926 176.081L160.506 175.988Z" fill="#F06EA8"/>
<path d="M182.723 149.989C183.986 150.371 185.058 151.224 185.72 152.374C186.381 153.523 186.584 154.884 186.286 156.179L180.265 182.115L168.959 179.917L176.271 153.579C176.455 152.913 176.768 152.29 177.194 151.748C177.619 151.205 178.148 150.753 178.748 150.419C179.349 150.085 180.01 149.875 180.692 149.801C181.375 149.727 182.065 149.791 182.723 149.989V149.989Z" fill="#D6569B"/>
<path d="M170.464 174.565L171.508 176.639C171.508 176.639 175.502 158.812 177.376 151.538C176.867 152.132 176.49 152.828 176.27 153.581L170.464 174.565Z" fill="#F06EA8"/>
<path d="M178.448 176.109L174.024 175.954L178.571 160.294C178.636 160.07 178.747 159.862 178.896 159.683C179.046 159.505 179.23 159.36 179.439 159.258C179.647 159.156 179.875 159.099 180.106 159.091C180.338 159.083 180.568 159.123 180.783 159.211V159.211C181.164 159.351 181.48 159.627 181.672 159.986C181.865 160.345 181.92 160.763 181.828 161.16L178.448 176.109Z" fill="#E374B0"/>
<path d="M184.519 174.026L151.951 175.401C147.289 175.598 143.668 179.565 143.864 184.262L143.875 184.543C144.071 189.239 148.008 192.887 152.67 192.69L185.238 191.315C189.9 191.118 193.521 187.151 193.325 182.455L193.314 182.174C193.118 177.477 189.18 173.829 184.519 174.026Z" fill="#F06EA8"/>
<path d="M156.603 222.474C154.699 220.679 152.824 219.008 152.425 218.358C152.026 217.708 152.702 217.491 153.654 217.151C154.606 216.81 155.467 217.986 156.45 219.998C157.433 222.01 158.354 224.083 156.603 222.474Z" fill="#F2C591"/>
<path d="M191.075 213.87L189.232 219.75L188.986 220.493L186.712 227.673H144.439C144.039 226.095 144.531 225.785 145.606 224.021C146.681 222.257 146.128 222.721 146.282 218.45C146.405 215.448 147.48 212.663 151.32 209.196C152.488 208.175 152.764 207.773 153.963 206.658L154.331 206.318L154.516 206.132L154.761 205.947L183.64 201.366L189.447 211.115L191.075 213.87Z" fill="#F7E5BC"/>
<path d="M188.249 213.902C190.031 209.105 190.093 208.703 190.707 210.095C191.322 211.488 191.69 211.395 188.741 215.295C185.792 219.195 187.481 215.976 188.249 213.902Z" fill="#E8C282"/>
<path d="M189.234 219.75C189.05 222.567 188.804 225.228 188.497 227.673H157.437C157.468 226.404 157.498 224.826 157.56 222.907C157.555 222.7 157.565 222.493 157.591 222.288V219.905C157.376 214.241 155.778 210.372 151.323 209.196C152.153 208.361 153.013 207.525 153.965 206.658L154.334 206.318L154.764 205.947L183.643 201.366C185.916 202.202 187.422 202.79 189.142 204.554C189.327 206.782 189.419 208.98 189.449 211.115C189.48 214.117 189.388 216.996 189.234 219.75Z" fill="#1F3A70"/>
<path d="M183.641 201.366L183.242 201.428L182.842 201.83C181.368 208.051 178.265 214.551 178.265 214.551C178.265 214.551 178.418 216.129 180.569 213.065C182.719 210.001 184.563 206.38 185.484 202.975L183.641 201.366Z" fill="#172E5C"/>
<path d="M157.989 205.976C163.58 212.754 165.485 214.271 167.543 215.663C169.602 217.056 167.881 214.983 165.731 211.764C163.58 208.545 161.061 204.552 161.061 204.552L157.989 205.976Z" fill="#172E5C"/>
<path d="M160.201 209.908C160.201 209.908 159.925 210.465 158.726 211.301C157.528 212.137 157.19 212.508 157.067 212.229C156.599 211.252 155.92 210.392 155.081 209.712C154.241 209.032 153.262 208.55 152.213 208.299C153.012 207.494 153.903 206.659 154.855 205.761C159.157 207.618 160.201 209.908 160.201 209.908Z" fill="#244AB0"/>
<path d="M181.092 201.366L175.255 223.371L160.324 202.016L181.092 201.366Z" fill="#D4BF9B"/>
<path d="M178.359 211.674L168.405 209.043C166.623 208.579 167.514 209.198 168.405 210.312C169.296 211.426 174.611 217.523 176.301 219.473L178.359 211.674Z" fill="#CCAC89"/>
<path d="M163.579 205.544L177.22 207.37C178.756 207.556 178.787 205.884 179.585 202.635L164.869 203.718L163.579 205.544Z" fill="#CF518A"/>
<path d="M186.46 189.115L152.942 190.465C148.531 190.643 145.098 194.39 145.274 198.834L145.275 198.847C145.451 203.291 149.17 206.749 153.582 206.572L187.1 205.221C191.511 205.043 194.944 201.296 194.768 196.852L194.767 196.84C194.591 192.396 190.872 188.937 186.46 189.115Z" fill="#F06EA8"/>
<path d="M186.991 204.958C191.292 204.772 194.825 201.275 194.825 196.942C194.839 195.366 194.392 193.821 193.54 192.5C192.687 191.179 191.467 190.141 190.032 189.514C191.113 188.684 191.978 187.603 192.556 186.364C193.134 185.125 193.406 183.763 193.35 182.396V182.117C193.303 180.999 193.037 179.901 192.568 178.887C192.099 177.872 191.436 176.961 190.617 176.205C189.798 175.449 188.839 174.863 187.795 174.481C186.751 174.098 185.642 173.927 184.533 173.977L155.47 175.215C152.858 180.26 153.227 185.676 155.162 189.576C155.445 190.166 155.604 190.809 155.63 191.463C155.657 192.118 155.55 192.771 155.316 193.383C152.52 200.873 156.207 206.289 156.207 206.289L186.991 204.958Z" fill="#E05FA3"/>
<path d="M163.522 189.783C164.261 189.296 164.302 188.043 163.614 186.985C162.927 185.927 161.771 185.463 161.033 185.95C160.294 186.437 160.253 187.689 160.941 188.747C161.628 189.806 162.784 190.269 163.522 189.783Z" fill="#1B1926"/>
<path d="M178.08 187.474C178.4 186.322 178.023 185.209 177.238 184.988C176.454 184.767 175.559 185.523 175.239 186.675C174.92 187.828 175.297 188.941 176.081 189.161C176.866 189.382 177.761 188.627 178.08 187.474Z" fill="#1B1926"/>
<path d="M149.081 190.47C147.268 189.789 146.807 189.573 145.548 189.17C146.362 190.301 147.438 191.214 148.682 191.832L148.313 192.142C149.15 192.227 149.991 192.268 150.832 192.265C152.583 192.203 152.89 191.956 149.081 190.47Z" fill="#E05FA3"/>
<path d="M149.687 180.488C151.043 179.246 151.753 177.808 151.273 177.277C150.794 176.746 149.306 177.323 147.951 178.565C146.595 179.808 145.885 181.245 146.365 181.776C146.845 182.307 148.332 181.731 149.687 180.488Z" fill="#F792C0"/>
<path d="M147.513 223.308C150.093 222.255 150.984 221.822 151.844 221.512C152.705 221.203 151.967 220.863 150.001 219.996C148.035 219.129 147.574 218.82 147.451 220.522C147.328 222.224 146.683 223.648 147.513 223.308Z" fill="#FAD596"/>
<path d="M158.329 222.381C159.158 217.924 159.066 216.717 159.435 216.625C159.803 216.532 160.51 217.646 161.186 219.039C161.862 220.431 158.329 222.381 158.329 222.381Z" fill="#172E5C"/>
<path d="M166.744 193.506C168.771 196.973 171.751 197.778 173.748 193.29C173.772 193.25 173.784 193.204 173.782 193.157C173.781 193.11 173.767 193.065 173.741 193.026C173.716 192.987 173.68 192.957 173.637 192.938C173.595 192.919 173.548 192.912 173.502 192.918L166.959 193.104C166.914 193.109 166.872 193.125 166.835 193.15C166.798 193.175 166.768 193.209 166.747 193.249C166.726 193.288 166.714 193.332 166.714 193.377C166.713 193.422 166.724 193.466 166.744 193.506Z" fill="#751B40"/>
<path d="M160.754 190.502C162.167 187.778 164.901 188.924 164.901 188.924L163.55 191.957L160.754 190.502Z" fill="#E05FA3"/>
<path d="M174.579 188.274C177.406 187.129 178.757 189.79 178.757 189.79L175.777 191.214L174.579 188.274Z" fill="#E05FA3"/>
<path d="M170.83 193.01L166.959 193.103C166.914 193.108 166.872 193.124 166.835 193.15C166.798 193.175 166.768 193.208 166.747 193.248C166.726 193.288 166.714 193.332 166.714 193.376C166.713 193.421 166.724 193.466 166.744 193.506C168.495 196.477 170.922 197.498 172.857 194.898C172.377 194.085 171.673 193.429 170.83 193.01V193.01Z" fill="#9C2455"/>
<path d="M193.872 208.238C193.872 208.238 195.869 213.128 196.544 215.077C197.22 217.027 196.268 216.811 195.193 216.656C194.117 216.501 194.025 215.077 193.872 212.509C193.718 209.94 193.257 207 193.872 208.238Z" fill="#FAD596"/>
<path d="M195.993 206.935C196.3 209.04 197.375 210.989 197.59 211.515C197.805 212.042 199.403 211.701 200.785 211.361C202.168 211.02 201.308 210.525 199.618 209.101C197.928 207.678 195.716 205.233 195.993 206.935Z" fill="#FAD596"/>
<path d="M133.748 218.358L131.69 217.43C131.659 217.43 131.659 217.368 131.69 217.368L133.748 216.44L134.67 214.366H134.762L135.683 216.44L137.742 217.368C137.773 217.368 137.773 217.43 137.742 217.43L135.683 218.358L134.762 220.432H134.67L133.748 218.358Z" fill="#3366E0"/>
<path d="M199.709 176.545L198.757 176.112C198.726 176.112 198.726 176.081 198.757 176.081L199.709 175.647L200.139 174.657H200.201L200.631 175.647L201.614 176.081L200.631 176.514L200.201 177.473C200.17 177.504 200.17 177.504 200.139 177.473L199.709 176.514V176.545Z" fill="#FAFAFA"/>
<path d="M141.461 164.473L140.478 164.04L141.461 163.606L141.891 162.616H141.922L142.352 163.606H142.383L143.335 164.04C143.366 164.04 143.366 164.071 143.335 164.071L142.383 164.504H142.352L141.922 165.463C141.922 165.494 141.891 165.494 141.891 165.463L141.461 164.504V164.473Z" fill="#F7E5BC"/>
<path d="M231.844 145.316H227.052V227.661H231.844V145.316Z" fill="#783837"/>
<path d="M121.4 145.316H116.607V227.661H121.4V145.316Z" fill="#783837"/>
<path d="M231.844 145.316H227.052V208.045H231.844V145.316Z" fill="#571E2F"/>
<path d="M121.4 145.316H116.607V182.749H121.4V145.316Z" fill="#571E2F"/>
<path d="M201.858 161.377C202.842 161.377 203.639 160.573 203.639 159.582C203.639 158.591 202.842 157.787 201.858 157.787C200.873 157.787 200.076 158.591 200.076 159.582C200.076 160.573 200.873 161.377 201.858 161.377Z" fill="#7D2952"/>
<path d="M191.631 161.037C192.616 161.037 193.413 160.234 193.413 159.242C193.413 158.251 192.616 157.447 191.631 157.447C190.647 157.447 189.85 158.251 189.85 159.242C189.85 160.234 190.647 161.037 191.631 161.037Z" fill="#7D2952"/>
<path d="M108.987 170.662V174.221C109.454 174.221 109.903 174.036 110.236 173.706C110.569 173.376 110.761 172.928 110.769 172.457C110.769 171.981 110.581 171.524 110.247 171.188C109.913 170.851 109.459 170.662 108.987 170.662V170.662Z" fill="#7D2952"/>
<path d="M204.008 169.023C204.992 169.023 205.79 168.219 205.79 167.228C205.79 166.237 204.992 165.433 204.008 165.433C203.024 165.433 202.226 166.237 202.226 167.228C202.226 168.219 203.024 169.023 204.008 169.023Z" fill="#7D2952"/>
<path d="M214.853 187.037C215.837 187.037 216.635 186.233 216.635 185.242C216.635 184.25 215.837 183.447 214.853 183.447C213.869 183.447 213.071 184.25 213.071 185.242C213.071 186.233 213.869 187.037 214.853 187.037Z" fill="#7D2952"/>
<path d="M221.183 194.309C222.167 194.309 222.965 193.505 222.965 192.514C222.965 191.522 222.167 190.719 221.183 190.719C220.199 190.719 219.401 191.522 219.401 192.514C219.401 193.505 220.199 194.309 221.183 194.309Z" fill="#7D2952"/>
<path d="M208.437 177.348C209.421 177.348 210.219 176.545 210.219 175.553C210.219 174.562 209.421 173.758 208.437 173.758C207.453 173.758 206.655 174.562 206.655 175.553C206.655 176.545 207.453 177.348 208.437 177.348Z" fill="#7D2952"/>
<path d="M223.58 203.159H222.352V205.589H223.58V203.159Z" fill="#5177D6"/>
<path d="M236.606 211.145H235.377V213.575H236.606V211.145Z" fill="#5177D6"/>
<path d="M226.04 213.097H224.811V215.527H226.04V213.097Z" fill="#5177D6"/>
<path d="M144.377 206.72H143.148V209.15H144.377V206.72Z" fill="#5177D6"/>
<path d="M142.196 191.402H133.533V192.526H142.196V191.402Z" fill="#8F80CF"/>
</g>
</g>
<rect x="110.088" y="146.417" width="129.904" height="72.6579" rx="7.70614" stroke="white" stroke-width="2.20175"/>
</g>
</g>
</g>
<defs>
<linearGradient id="paint0_linear" x1="59.9447" y1="87.8554" x2="73.53" y2="122.604" gradientUnits="userSpaceOnUse">
<stop stop-color="#FFC285"/>
<stop offset="1" stop-color="#DB8D6B"/>
</linearGradient>
<linearGradient id="paint1_linear" x1="104.497" y1="108.296" x2="30.3466" y2="108.296" gradientUnits="userSpaceOnUse">
<stop stop-color="#D67569"/>
<stop offset="1" stop-color="#E39E7F"/>
</linearGradient>
<clipPath id="clip0">
<rect width="251" height="220.175" fill="white"/>
</clipPath>
<clipPath id="clip1">
<rect width="118.895" height="105.684" fill="white" transform="matrix(-1 0 0 1 262.009 33.0262)"/>
</clipPath>
<clipPath id="clip2">
<rect x="30.8247" width="132.105" height="74.8596" rx="8.80702" fill="white"/>
</clipPath>
<clipPath id="clip3">
<rect x="30.8247" width="132.105" height="82.3584" rx="8.80702" fill="white"/>
</clipPath>
<clipPath id="clip4">
<rect x="33.0264" y="2.20178" width="127.702" height="70.4561" rx="6.60526" fill="white"/>
</clipPath>
<clipPath id="clip5">
<rect width="114.491" height="72.6579" fill="white" transform="translate(39.6318)"/>
</clipPath>
<clipPath id="clip6">
<rect y="81.465" width="132.105" height="70.4561" rx="8.80702" fill="white"/>
</clipPath>
<clipPath id="clip7">
<path d="M108.987 154.123C108.987 149.259 112.93 145.316 117.794 145.316H232.285C237.149 145.316 241.092 149.259 241.092 154.123V211.368C241.092 216.232 237.149 220.175 232.285 220.175H117.794C112.93 220.175 108.987 216.232 108.987 211.368V154.123Z" fill="white"/>
</clipPath>
<clipPath id="clip8">
<rect x="108.987" y="145.316" width="132.105" height="82.5658" rx="8.80702" fill="white"/>
</clipPath>
<clipPath id="clip9">
<rect width="129.904" height="72.6579" fill="white" transform="translate(110.088 146.417)"/>
</clipPath>
<clipPath id="clip10">
<rect width="129.904" height="26.4211" fill="white" transform="translate(110.088 192.654)"/>
</clipPath>
<clipPath id="clip11">
<rect width="129.904" height="56.1447" fill="white" transform="translate(110.088 146.417)"/>
</clipPath>
<clipPath id="clip12">
<rect width="129.904" height="50.6404" fill="white" transform="translate(110.088 146.417)"/>
</clipPath>
</defs>
</svg>
