<svg width="272" height="145" viewBox="0 0 272 145" fill="none" xmlns="http://www.w3.org/2000/svg">
<g clip-path="url(#clip0)">
<path d="M253.265 96.186H129.887V144.848H253.265V96.186Z" fill="#666E7B"/>
<path d="M40.0092 20.4741H37.6163V36.2003H40.0092V20.4741Z" fill="#7C8794"/>
<path d="M23.5463 19.7085H21.1534V36.1717H23.5463V19.7085Z" fill="#828C98"/>
<path d="M30.8206 25.1645C37.5342 25.1645 42.9766 19.7221 42.9766 13.0085C42.9766 6.29495 37.5342 0.852539 30.8206 0.852539C24.1071 0.852539 18.6647 6.29495 18.6647 13.0085C18.6647 19.7221 24.1071 25.1645 30.8206 25.1645Z" fill="#C8CFD6"/>
<path d="M40.2966 5.44678C39.3867 9.32768 37.1873 12.7852 34.0578 15.254C30.9282 17.7229 27.0537 19.0571 23.0677 19.0385L20.1962 18.8471C21.5017 21.1956 23.5487 23.0454 26.017 24.1073C28.4854 25.1692 31.236 25.3833 33.8389 24.7162C36.4418 24.049 38.7504 22.5383 40.4036 20.42C42.0569 18.3017 42.9617 15.6954 42.9766 13.0084C42.9961 10.2518 42.0476 7.57581 40.2966 5.44678Z" fill="#AAB3BD"/>
<path d="M32.0651 20.4741C32.3951 20.4741 32.7116 20.6052 32.945 20.8386C33.1783 21.0719 33.3094 21.3884 33.3094 21.7184V36.1716H30.8208V21.7184C30.8208 21.3884 30.9519 21.0719 31.1853 20.8386C31.4186 20.6052 31.7351 20.4741 32.0651 20.4741Z" fill="#7C8794"/>
<path d="M188.56 75.9902H185.114V90.9124H188.56V75.9902Z" fill="#4F5660"/>
<path d="M163.769 89.0073H211.532C211.938 89.0073 212.328 89.1687 212.615 89.4559C212.902 89.7431 213.063 90.1326 213.063 90.5388V96.186H162.334V90.5388C162.333 90.1487 162.481 89.773 162.748 89.4884C163.015 89.2038 163.38 89.0317 163.769 89.0073Z" fill="#A1ADBA"/>
<path d="M180.615 89.0073H211.532C211.938 89.0073 212.327 89.1687 212.615 89.4559C212.902 89.7431 213.063 90.1326 213.063 90.5388V96.186H179.084V90.5388C179.084 90.1326 179.245 89.7431 179.533 89.4559C179.82 89.1687 180.209 89.0073 180.615 89.0073Z" fill="#97A1AE"/>
<path d="M186.837 77.4263C192.758 77.4263 197.557 72.6267 197.557 66.7061C197.557 60.7854 192.758 55.9858 186.837 55.9858C180.916 55.9858 176.117 60.7854 176.117 66.7061C176.117 72.6267 180.916 77.4263 186.837 77.4263Z" fill="#BCC2C8"/>
<path d="M181.381 75.8945C182.57 76.6294 183.898 77.1107 185.281 77.3084C186.665 77.506 188.074 77.4157 189.421 77.0431C190.79 76.7179 192.08 76.1243 193.217 75.2968C194.354 74.4692 195.315 73.4241 196.045 72.2221C196.776 71.0201 197.26 69.6851 197.47 68.2945C197.68 66.9039 197.612 65.4855 197.27 64.1214C196.722 61.9326 195.52 59.9627 193.824 58.4741C194.877 66.7057 187.411 73.3101 181.381 75.8945Z" fill="#A6ADB6"/>
<path d="M183.031 62.2517C183.778 61.5041 184.021 60.5344 183.572 60.0859C183.124 59.6373 182.154 59.8797 181.406 60.6273C180.659 61.3749 180.416 62.3446 180.865 62.7931C181.314 63.2417 182.283 62.9993 183.031 62.2517Z" fill="white"/>
<path d="M12.7302 68.5239H93.3233C94.288 68.5239 95.2131 68.9071 95.8952 69.5892C96.5773 70.2713 96.9605 71.1965 96.9605 72.1611V144.905H9.09302V72.1611C9.09302 71.1965 9.47622 70.2713 10.1583 69.5892C10.8404 68.9071 11.7656 68.5239 12.7302 68.5239Z" fill="#9BA3AD"/>
<path d="M47.2838 68.5238C46.8107 68.511 46.3399 68.5931 45.8991 68.7654C45.4583 68.9376 45.0565 69.1964 44.7175 69.5266C44.3784 69.8567 44.109 70.2515 43.925 70.6875C43.7411 71.1235 43.6464 71.592 43.6466 72.0653V87.2841C43.6483 87.5024 43.6033 87.7186 43.5147 87.918C43.426 88.1175 43.2958 88.2958 43.1326 88.4408C42.9695 88.5858 42.7772 88.6943 42.5687 88.7589C42.3602 88.8236 42.1403 88.8429 41.9237 88.8156L9.09302 85.1784V72.0653C9.09284 71.592 9.18752 71.1235 9.37145 70.6875C9.55539 70.2515 9.82484 69.8567 10.1639 69.5266C10.503 69.1964 10.9048 68.9376 11.3455 68.7654C11.7863 68.5931 12.2572 68.511 12.7302 68.5238H47.2838Z" fill="#828C98"/>
<path d="M156.112 144.81H59.6303L59.6303 72.0652C59.6303 71.1006 60.0135 70.1754 60.6956 69.4933C61.3777 68.8112 62.3029 68.428 63.2675 68.428L152.475 68.428C153.44 68.428 154.365 68.8112 155.047 69.4933C155.729 70.1754 156.112 71.1006 156.112 72.0652V144.81Z" fill="#747F8D"/>
<path d="M63.9382 71.7783H151.806C152.06 71.7783 152.303 71.8792 152.483 72.0587C152.662 72.2382 152.763 72.4816 152.763 72.7355V96.5688H62.9811V72.7355C62.9811 72.4816 63.0819 72.2382 63.2614 72.0587C63.4409 71.8792 63.6844 71.7783 63.9382 71.7783Z" fill="#87919D"/>
<path d="M125.867 92.9312C127.03 92.9312 127.972 91.9885 127.972 90.8255C127.972 89.6625 127.03 88.7197 125.867 88.7197C124.704 88.7197 123.761 89.6625 123.761 90.8255C123.761 91.9885 124.704 92.9312 125.867 92.9312Z" fill="#687282"/>
<path d="M135.534 92.9312C136.697 92.9312 137.64 91.9885 137.64 90.8255C137.64 89.6625 136.697 88.7197 135.534 88.7197C134.371 88.7197 133.428 89.6625 133.428 90.8255C133.428 91.9885 134.371 92.9312 135.534 92.9312Z" fill="#687282"/>
<path d="M145.297 92.9312C146.46 92.9312 147.403 91.9885 147.403 90.8255C147.403 89.6625 146.46 88.7197 145.297 88.7197C144.134 88.7197 143.192 89.6625 143.192 90.8255C143.192 91.9885 144.134 92.9312 145.297 92.9312Z" fill="#687282"/>
<path d="M125.867 85.274C127.03 85.274 127.972 84.3312 127.972 83.1683C127.972 82.0053 127.03 81.0625 125.867 81.0625C124.704 81.0625 123.761 82.0053 123.761 83.1683C123.761 84.3312 124.704 85.274 125.867 85.274Z" fill="#687282"/>
<path d="M135.534 85.274C136.697 85.274 137.64 84.3312 137.64 83.1683C137.64 82.0053 136.697 81.0625 135.534 81.0625C134.371 81.0625 133.428 82.0053 133.428 83.1683C133.428 84.3312 134.371 85.274 135.534 85.274Z" fill="#687282"/>
<path d="M145.297 85.274C146.46 85.274 147.403 84.3312 147.403 83.1683C147.403 82.0053 146.46 81.0625 145.297 81.0625C144.134 81.0625 143.192 82.0053 143.192 83.1683C143.192 84.3312 144.134 85.274 145.297 85.274Z" fill="#687282"/>
<path d="M62.9811 100.015H152.859V130.74C152.859 130.993 152.758 131.237 152.578 131.416C152.399 131.596 152.155 131.697 151.901 131.697H63.9382C63.6844 131.697 63.4409 131.596 63.2614 131.416C63.0819 131.237 62.9811 130.993 62.9811 130.74V100.015Z" fill="#87919D"/>
<path d="M144.819 103.939H123.378C122.797 103.939 122.325 104.41 122.325 104.992V126.7C122.325 127.282 122.797 127.753 123.378 127.753H144.819C145.4 127.753 145.871 127.282 145.871 126.7V104.992C145.871 104.41 145.4 103.939 144.819 103.939Z" fill="#747F8D"/>
<path d="M152.859 96.5688H62.9811V100.005H152.859V96.5688Z" fill="#687282"/>
<path d="M39.3394 35.7886H1.34003C0.599951 35.7886 0 36.3885 0 37.1286V67.1069C0 67.847 0.599951 68.447 1.34003 68.447H39.3394C40.0795 68.447 40.6794 67.847 40.6794 67.1069V37.1286C40.6794 36.3885 40.0795 35.7886 39.3394 35.7886Z" fill="#C5CDD4"/>
<path d="M37.425 68.5239L135.056 68.5239C135.796 68.5239 136.396 67.924 136.396 67.1839V37.2056C136.396 36.4655 135.796 35.8655 135.056 35.8655L37.425 35.8655C36.6849 35.8655 36.085 36.4655 36.085 37.2056V67.1839C36.085 67.924 36.6849 68.5239 37.425 68.5239Z" fill="#B1B9C2"/>
<path d="M70.4471 41.2446H42.4022C41.9265 41.2446 41.5408 41.6303 41.5408 42.1061V62.1491C41.5408 62.6248 41.9265 63.0105 42.4022 63.0105H70.4471C70.9228 63.0105 71.3085 62.6248 71.3085 62.1491V42.1061C71.3085 41.6303 70.9228 41.2446 70.4471 41.2446Z" fill="#828C98"/>
<path d="M57.8125 59.8134C56.1854 59.8134 55.1325 57.7076 54.0796 52.3475C53.4096 49.0932 52.4524 44.6902 51.7824 44.6902C51.1124 44.6902 49.9638 46.6045 49.5809 47.3703C49.1981 48.136 49.2938 47.7531 49.2938 47.9446C47.6666 50.9118 46.0394 53.1132 41.5408 53.1132V51.1989C45.0823 51.1989 46.1352 49.6675 47.5709 46.9874L47.858 46.5088C48.6238 44.9774 49.8681 42.7759 51.7824 42.7759C53.6967 42.7759 54.6539 45.8388 55.8982 51.9646C56.8554 56.4633 57.6211 57.6119 57.9082 57.899C58.1954 58.1862 58.9611 56.4633 60.1097 51.8689C61.2583 47.2745 62.3112 45.8388 64.0341 45.5517C65.757 45.2645 66.2356 45.8388 67.2884 47.1788L68.2456 48.6146C69.2028 50.2417 69.8728 51.1989 71.2128 51.1989V53.1132C68.6285 53.1132 67.4799 51.1032 66.5227 49.5717C66.3476 49.1411 66.0871 48.7504 65.757 48.4231C65.1827 47.6574 64.7041 47.2745 64.417 47.3703C64.1298 47.466 63.0769 47.8488 61.9283 52.3475C60.7797 56.8462 59.4397 59.8134 57.8125 59.8134Z" fill="#9AA2AC"/>
<path d="M85.2833 53.6877C88.7194 53.6877 91.5049 50.9023 91.5049 47.4662C91.5049 44.0301 88.7194 41.2446 85.2833 41.2446C81.8473 41.2446 79.0618 44.0301 79.0618 47.4662C79.0618 50.9023 81.8473 53.6877 85.2833 53.6877Z" fill="#687282"/>
<path d="M81.6461 62.9724C83.0734 62.9724 84.2304 61.8153 84.2304 60.3881C84.2304 58.9608 83.0734 57.8037 81.6461 57.8037C80.2188 57.8037 79.0618 58.9608 79.0618 60.3881C79.0618 61.8153 80.2188 62.9724 81.6461 62.9724Z" fill="#FFC9FF"/>
<path d="M88.9206 62.9724C90.3479 62.9724 91.505 61.8153 91.505 60.3881C91.505 58.9608 90.3479 57.8037 88.9206 57.8037C87.4933 57.8037 86.3363 58.9608 86.3363 60.3881C86.3363 61.8153 87.4933 62.9724 88.9206 62.9724Z" fill="#FFC9FF"/>
<path d="M100.406 41.2446H99.7364C99.4192 41.2446 99.1621 41.5017 99.1621 41.8189V55.3245C99.1621 55.6417 99.4192 55.8988 99.7364 55.8988H100.406C100.724 55.8988 100.981 55.6417 100.981 55.3245V41.8189C100.981 41.5017 100.724 41.2446 100.406 41.2446Z" fill="#687282"/>
<path d="M110.361 41.2446H109.691C109.374 41.2446 109.117 41.5017 109.117 41.8189V55.3245C109.117 55.6417 109.374 55.8988 109.691 55.8988H110.361C110.678 55.8988 110.935 55.6417 110.935 55.3245V41.8189C110.935 41.5017 110.678 41.2446 110.361 41.2446Z" fill="#687282"/>
<path d="M120.315 41.2446H119.645C119.328 41.2446 119.071 41.5017 119.071 41.8189V55.3245C119.071 55.6417 119.328 55.8988 119.645 55.8988H120.315C120.632 55.8988 120.89 55.6417 120.89 55.3245V41.8189C120.89 41.5017 120.632 41.2446 120.315 41.2446Z" fill="#687282"/>
<path d="M130.27 41.2446H129.6C129.282 41.2446 129.025 41.5017 129.025 41.8189V55.3245C129.025 55.6417 129.282 55.8988 129.6 55.8988H130.27C130.587 55.8988 130.844 55.6417 130.844 55.3245V41.8189C130.844 41.5017 130.587 41.2446 130.27 41.2446Z" fill="#687282"/>
<path d="M101.938 49.9546H98.2051C97.7293 49.9546 97.3436 50.3403 97.3436 50.816V52.1752C97.3436 52.651 97.7293 53.0367 98.2051 53.0367H101.938C102.414 53.0367 102.799 52.651 102.799 52.1752V50.816C102.799 50.3403 102.414 49.9546 101.938 49.9546Z" fill="#D5DBE3"/>
<path d="M111.892 44.4033H108.159C107.684 44.4033 107.298 44.789 107.298 45.2648V46.6239C107.298 47.0997 107.684 47.4854 108.159 47.4854H111.892C112.368 47.4854 112.754 47.0997 112.754 46.6239V45.2648C112.754 44.789 112.368 44.4033 111.892 44.4033Z" fill="#D5DBE3"/>
<path d="M121.847 51.4863H118.114C117.638 51.4863 117.252 51.872 117.252 52.3478V53.7069C117.252 54.1827 117.638 54.5684 118.114 54.5684H121.847C122.323 54.5684 122.708 54.1827 122.708 53.7069V52.3478C122.708 51.872 122.323 51.4863 121.847 51.4863Z" fill="#D5DBE3"/>
<path d="M131.801 49.9546H128.068C127.592 49.9546 127.207 50.3403 127.207 50.816V52.1752C127.207 52.651 127.592 53.0367 128.068 53.0367H131.801C132.277 53.0367 132.663 52.651 132.663 52.1752V50.816C132.663 50.3403 132.277 49.9546 131.801 49.9546Z" fill="#D5DBE3"/>
<path d="M40.6795 7.26546C40.0606 5.29292 38.73 3.62115 36.9466 2.57537C35.9871 2.02305 34.9566 1.60441 33.8837 1.33105C36.3321 2.76392 38.1196 5.10141 38.8609 7.83976C39.1645 8.90584 39.0455 10.0479 38.5285 11.0285C38.0115 12.009 37.1363 12.7524 36.0852 13.1042C35.0439 13.4421 33.9119 13.3613 32.9292 12.8789C31.9465 12.3964 31.1903 11.5503 30.8208 10.5198C30.055 8.60549 28.045 3.72396 24.6949 2.57537L23.0677 3.72396C26.035 4.10682 27.8536 8.12691 29.0022 11.1898C29.5643 12.6693 30.6691 13.8789 32.0917 14.5724C33.5143 15.2659 35.1477 15.3912 36.6595 14.9228C38.1917 14.4169 39.4675 13.3355 40.2175 11.9068C40.9676 10.4782 41.1333 8.81396 40.6795 7.26546Z" fill="#A6AFBD"/>
<path d="M97.0562 75.415H67.6713C67.1955 75.415 66.8098 75.8007 66.8098 76.2765V92.0888C66.8098 92.5646 67.1955 92.9503 67.6713 92.9503H97.0562C97.5319 92.9503 97.9176 92.5646 97.9176 92.0888V76.2765C97.9176 75.8007 97.5319 75.415 97.0562 75.415Z" fill="#4F5660"/>
<path d="M74.1799 89.6768C77.1931 89.6768 79.6358 87.2341 79.6358 84.221C79.6358 81.2078 77.1931 78.7651 74.1799 78.7651C71.1668 78.7651 68.7241 81.2078 68.7241 84.221C68.7241 87.2341 71.1668 89.6768 74.1799 89.6768Z" fill="#3E444D"/>
<path d="M74.1801 86.1358C75.2373 86.1358 76.0944 85.2787 76.0944 84.2215C76.0944 83.1642 75.2373 82.3071 74.1801 82.3071C73.1228 82.3071 72.2657 83.1642 72.2657 84.2215C72.2657 85.2787 73.1228 86.1358 74.1801 86.1358Z" fill="#323740"/>
<path d="M75.2328 81.3494C75.2328 81.5408 75.0414 81.6365 74.85 81.5408H73.4142C73.2228 81.6365 73.1271 81.5408 73.1271 81.3494V81.1579L73.3185 79.8179L73.5099 79.6265H74.7543L74.9457 79.8179L75.1371 81.1579L75.2328 81.3494Z" fill="#323740"/>
<path d="M76.0942 86.5188C76.0434 86.5314 75.9897 86.5235 75.9448 86.4965C75.8999 86.4696 75.8676 86.426 75.8549 86.3752C75.8422 86.3244 75.8502 86.2707 75.8771 86.2258C75.904 86.1809 75.9477 86.1486 75.9985 86.1359L76.2856 85.8487C76.3813 85.753 76.477 85.6573 76.477 85.5616C76.576 85.4548 76.6424 85.322 76.6685 85.1787C76.7031 85.1399 76.7295 85.0944 76.7459 85.045C76.7624 84.9956 76.7686 84.9434 76.7642 84.8916C76.7642 84.7002 76.9556 84.6044 77.1471 84.7001H77.2428L78.3914 85.5616C78.426 85.6004 78.4524 85.6459 78.4688 85.6953C78.4853 85.7447 78.4915 85.7969 78.4871 85.8487L78.1999 86.423L77.8171 86.9016H77.5299L76.1899 86.3273L76.0942 86.5188Z" fill="#323740"/>
<path d="M71.2128 84.6998C71.2371 84.6836 71.2648 84.6731 71.2937 84.6692C71.3227 84.6653 71.3521 84.6681 71.3798 84.6773C71.4076 84.6865 71.4328 84.702 71.4536 84.7225C71.4744 84.743 71.4903 84.768 71.5 84.7956C71.5648 84.9126 71.5978 85.0446 71.5957 85.1784C71.6914 85.2741 71.6914 85.4656 71.7871 85.5613C71.8828 85.657 71.9785 85.7527 71.9785 85.8484L72.2657 86.1356C72.2908 86.1419 72.3145 86.153 72.3353 86.1685C72.3561 86.1839 72.3737 86.2033 72.387 86.2255C72.4004 86.2477 72.4092 86.2723 72.413 86.298C72.4168 86.3236 72.4155 86.3497 72.4093 86.3749C72.403 86.4 72.3918 86.4237 72.3764 86.4445C72.3609 86.4653 72.3416 86.4829 72.3193 86.4962C72.2971 86.5096 72.2725 86.5184 72.2469 86.5222C72.2212 86.526 72.1951 86.5247 72.17 86.5185H72.0743L70.7342 87.0927H70.4471L70.1599 86.6142L69.8728 86.0399C69.7771 85.9442 69.8728 85.8484 69.9685 85.7527L71.0214 84.8913L71.2128 84.6998Z" fill="#323740"/>
<path d="M90.5475 89.6768C93.5607 89.6768 96.0033 87.2341 96.0033 84.221C96.0033 81.2078 93.5607 78.7651 90.5475 78.7651C87.5343 78.7651 85.0917 81.2078 85.0917 84.221C85.0917 87.2341 87.5343 89.6768 90.5475 89.6768Z" fill="#3E444D"/>
<path d="M90.5476 86.1358C91.6049 86.1358 92.462 85.2787 92.462 84.2215C92.462 83.1642 91.6049 82.3071 90.5476 82.3071C89.4904 82.3071 88.6333 83.1642 88.6333 84.2215C88.6333 85.2787 89.4904 86.1358 90.5476 86.1358Z" fill="#323740"/>
<path d="M93.419 83.1684C93.3809 83.1303 93.3293 83.1089 93.2754 83.1089C93.2216 83.1089 93.1699 83.1303 93.1319 83.1684C93.0938 83.2064 93.0724 83.2581 93.0724 83.3119C93.0724 83.3658 93.0938 83.4174 93.1319 83.4555C93.1319 83.5512 93.2276 83.6469 93.2276 83.7427V84.6041C93.232 84.656 93.2258 84.7082 93.2093 84.7575C93.1928 84.8069 93.1665 84.8524 93.1319 84.8913C93.0938 84.9293 93.0724 84.981 93.0724 85.0348C93.0724 85.0887 93.0938 85.1403 93.1319 85.1784C93.1699 85.2165 93.2216 85.2379 93.2754 85.2379C93.3293 85.2379 93.3809 85.2165 93.419 85.1784H93.5147L94.9505 84.987C95.0012 84.987 95.0499 84.9668 95.0858 84.9309C95.1217 84.895 95.1419 84.8463 95.1419 84.7955V83.5512C95.1419 83.5005 95.1217 83.4518 95.0858 83.4159C95.0499 83.38 95.0012 83.3598 94.9505 83.3598L93.5147 83.1684H93.419Z" fill="#323740"/>
<path d="M88.2503 82.2113C88.2503 82.4028 88.5375 82.4028 88.6332 82.307L88.8246 82.0199L89.2075 81.8285L89.5903 81.637H89.8775C90.0689 81.637 90.1646 81.4456 89.9732 81.2542H89.8775L89.016 80.2013C89.016 80.1056 88.9203 80.0098 88.8246 80.1056C88.7289 80.2013 88.4418 80.2013 88.2503 80.3927L87.676 80.6799C87.6557 80.6978 87.6393 80.7199 87.6282 80.7447C87.617 80.7694 87.6112 80.7963 87.6112 80.8234C87.6112 80.8506 87.617 80.8774 87.6282 80.9022C87.6393 80.9269 87.6557 80.949 87.676 80.967L88.1546 82.307L88.2503 82.2113Z" fill="#323740"/>
<path d="M90.0692 87.1885C90.1649 86.9971 90.0692 86.8056 89.8778 86.8056H89.5906C89.5163 86.8056 89.4431 86.7883 89.3766 86.7551C89.3102 86.7219 89.2524 86.6736 89.2078 86.6142L88.8249 86.4228L88.6335 86.1356C88.5378 86.0399 88.2506 86.0399 88.2506 86.2313V86.4228L87.772 87.6671C87.6763 87.7628 87.772 87.8585 87.772 87.9542L88.3463 88.3371L88.9206 88.5285C88.9206 88.5539 88.9307 88.5783 88.9487 88.5962C88.9666 88.6142 88.991 88.6243 89.0163 88.6243C89.0417 88.6243 89.0661 88.6142 89.084 88.5962C89.102 88.5783 89.1121 88.5539 89.1121 88.5285L90.0692 87.3799V87.1885Z" fill="#323740"/>
<path d="M109.117 92.9314C112.553 92.9314 115.338 90.1459 115.338 86.7098C115.338 83.2738 112.553 80.4883 109.117 80.4883C105.681 80.4883 102.895 83.2738 102.895 86.7098C102.895 90.1459 105.681 92.9314 109.117 92.9314Z" fill="#626B7A"/>
<path d="M86.4316 103.939H67.9584C67.3241 103.939 66.8098 104.453 66.8098 105.088V115.243C66.8098 115.877 67.3241 116.392 67.9584 116.392H86.4316C87.066 116.392 87.5802 115.877 87.5802 115.243V105.088C87.5802 104.453 87.066 103.939 86.4316 103.939Z" fill="#9DE4D1"/>
<path d="M95.7163 116.382H114.19C114.824 116.382 115.338 115.868 115.338 115.233V105.078C115.338 104.443 114.824 103.929 114.19 103.929H95.7163C95.082 103.929 94.5677 104.443 94.5677 105.078V115.233C94.5677 115.868 95.082 116.382 95.7163 116.382Z" fill="#9DE4D1"/>
<path d="M100.215 116.382H109.691C109.27 115.467 108.595 114.692 107.747 114.149C106.899 113.606 105.912 113.318 104.905 113.319C103.912 113.325 102.941 113.617 102.109 114.16C101.277 114.703 100.62 115.474 100.215 116.382Z" fill="#747F8D"/>
<path d="M72.4574 116.382H81.8376C81.4231 115.487 80.7613 114.729 79.9303 114.198C79.0993 113.667 78.1337 113.385 77.1475 113.385C76.1613 113.385 75.1957 113.667 74.3647 114.198C73.5336 114.729 72.8718 115.487 72.4574 116.382Z" fill="#747F8D"/>
<path d="M104.522 115.808L103.182 116.382L99.7366 108.342L100.598 107.959L104.522 115.808Z" fill="#747F8D"/>
<path d="M78.3916 116.095L76.9558 115.808L78.9659 107.289L79.923 107.48L78.3916 116.095Z" fill="#747F8D"/>
<path d="M70.9256 127.772C73.1987 127.772 75.0414 125.929 75.0414 123.656C75.0414 121.383 73.1987 119.541 70.9256 119.541C68.6525 119.541 66.8098 121.383 66.8098 123.656C66.8098 125.929 68.6525 127.772 70.9256 127.772Z" fill="#747F8D"/>
<path d="M83.4644 127.772C85.7375 127.772 87.5802 125.929 87.5802 123.656C87.5802 121.383 85.7375 119.541 83.4644 119.541C81.1913 119.541 79.3486 121.383 79.3486 123.656C79.3486 125.929 81.1913 127.772 83.4644 127.772Z" fill="#747F8D"/>
<path d="M98.6833 127.772C100.956 127.772 102.799 125.929 102.799 123.656C102.799 121.383 100.956 119.541 98.6833 119.541C96.4102 119.541 94.5675 121.383 94.5675 123.656C94.5675 125.929 96.4102 127.772 98.6833 127.772Z" fill="#747F8D"/>
<path d="M111.222 127.772C113.495 127.772 115.338 125.929 115.338 123.656C115.338 121.383 113.495 119.541 111.222 119.541C108.949 119.541 107.106 121.383 107.106 123.656C107.106 125.929 108.949 127.772 111.222 127.772Z" fill="#747F8D"/>
<path d="M84.6134 100.78H76.4776C75.0418 91.6874 67.3845 84.0301 58.5786 82.2115C59.8981 81.911 61.2456 81.7506 62.5987 81.7329C73.0318 81.7329 82.9863 90.3474 84.6134 100.78Z" fill="#687282"/>
<path d="M88.825 144.81C98.1095 144.81 104.427 137.249 102.895 127.964C101.364 118.68 92.6537 111.118 83.3692 111.118H76.8605L82.2206 144.81H88.825Z" fill="#4F5660"/>
<path d="M88.729 111.98H78.2959L76.4773 100.781H86.9104L88.729 111.98Z" fill="#687282"/>
<path d="M88.729 111.98H86.4318L84.6132 100.781H86.9104L88.729 111.98Z" fill="#BEC3CC"/>
<path d="M92.8835 140.356C98.6911 134.062 97.4152 123.439 90.0338 116.627C82.6524 109.816 71.9606 109.396 66.153 115.69C60.3454 121.983 61.6213 132.607 69.0027 139.419C76.3841 146.23 87.0759 146.65 92.8835 140.356Z" fill="#40464F"/>
<path d="M86.2712 134.254C89.2109 131.069 88.5705 125.696 84.841 122.255C81.1114 118.813 75.705 118.606 72.7653 121.791C69.8257 124.977 70.466 130.349 74.1956 133.791C77.9251 137.233 83.3316 137.44 86.2712 134.254Z" fill="#323740"/>
<path d="M84.7049 135.886C87.6322 134.975 88.9094 130.717 87.5574 126.376C86.2055 122.036 82.7365 119.256 79.8092 120.168C76.8819 121.08 75.6047 125.338 76.9567 129.678C78.3086 134.019 81.7776 136.798 84.7049 135.886Z" fill="#2C3038"/>
<path d="M55.1327 144.81C64.4172 144.81 70.7345 137.249 69.2987 127.964C67.863 118.68 58.9614 111.118 49.7726 111.118H43.1682L48.624 144.81H55.1327Z" fill="#4F5660"/>
<path d="M49.0068 114.947H38.5737L36.2765 100.781H46.7096L49.0068 114.947Z" fill="#E4E6E8"/>
<path d="M48.5283 111.98H46.3268L44.5082 100.781H46.7097L48.5283 111.98Z" fill="#BEC3CC"/>
<path d="M59.2837 140.256C65.0913 133.962 63.8155 123.339 56.4341 116.527C49.0527 109.716 38.3609 109.296 32.5533 115.59C26.7457 121.883 28.0215 132.507 35.4029 139.318C42.7844 146.13 53.4761 146.55 59.2837 140.256Z" fill="#E4E6E8"/>
<path d="M44.5083 100.781H36.3724C34.4581 89.1034 42.4983 79.5317 54.1757 79.5317H62.2158C50.6342 79.5317 42.594 89.1034 44.5083 100.781Z" fill="#E4E6E8"/>
<path d="M51.818 136.216C55.6897 132.02 54.8287 124.928 49.8948 120.375C44.9609 115.822 37.8225 115.533 33.9508 119.729C30.0791 123.924 30.9401 131.017 35.874 135.569C40.8079 140.122 47.9463 140.412 51.818 136.216Z" fill="#BDC5CF"/>
<path d="M41.6369 135.047L37.234 131.697C36.9468 131.505 37.1382 131.123 37.5211 131.123H44.987C45.3698 131.123 45.4656 131.601 45.1784 131.888L42.1155 134.951C41.9241 135.047 41.7326 135.143 41.6369 135.047Z" fill="white"/>
<path d="M86.9107 100.781H84.6135C82.9863 90.3477 73.0318 81.7332 62.5988 81.7332C52.1657 81.7332 44.987 90.3477 46.7099 100.781H44.5084C42.5941 89.1034 50.6342 79.5317 62.2159 79.5317C73.7976 79.5317 84.9964 89.1034 86.9107 100.781Z" fill="#E9EBED"/>
<path d="M86.9107 100.781H84.6135C82.9863 90.3477 73.0318 81.7332 62.5988 81.7332C52.1657 81.7332 44.987 90.3477 46.7099 100.781H44.5084C42.5941 89.1034 50.6342 79.5317 62.2159 79.5317C73.7976 79.5317 84.9964 89.1034 86.9107 100.781Z" fill="#BEC3CC"/>
<path d="M269.823 122.795H269.344L238.141 109.203C237.872 109.062 237.659 108.833 237.538 108.555C237.416 108.277 237.392 107.965 237.471 107.672C237.521 107.512 237.607 107.365 237.72 107.242C237.834 107.119 237.973 107.021 238.128 106.958C238.283 106.894 238.45 106.865 238.618 106.872C238.785 106.88 238.949 106.924 239.098 107.002L270.301 120.498C270.449 120.551 270.584 120.633 270.698 120.74C270.813 120.847 270.904 120.976 270.967 121.119C271.03 121.263 271.062 121.417 271.063 121.574C271.064 121.73 271.033 121.885 270.971 122.029C270.877 122.256 270.717 122.45 270.513 122.586C270.309 122.722 270.068 122.795 269.823 122.795Z" fill="#E9EBED"/>
<path d="M165.876 142.321C160.897 142.309 156.08 140.548 152.267 137.347C148.453 134.146 145.885 129.707 145.01 124.805C143.861 118.392 143.191 112.171 142.521 106.81L142.33 104.609C141.931 101.132 140.266 97.9225 137.654 95.5927C135.042 93.2629 131.664 91.9751 128.164 91.9745H126.058C125.753 91.9745 125.461 91.8534 125.246 91.638C125.031 91.4226 124.91 91.1305 124.91 90.8259C124.896 90.6672 124.916 90.5075 124.968 90.3569C125.02 90.2063 125.102 90.0681 125.21 89.9511C125.318 89.8341 125.449 89.7408 125.595 89.6772C125.741 89.6136 125.899 89.581 126.058 89.5815H128.164C132.252 89.5779 136.199 91.0781 139.252 93.7963C142.306 96.5145 144.253 100.261 144.723 104.322L144.914 106.523C145.584 111.883 146.254 118.009 147.403 124.422C147.88 127.348 149.061 130.115 150.846 132.483C152.63 134.85 154.963 136.749 157.644 138.014C160.35 139.348 163.338 140.009 166.354 139.943C169.37 139.876 172.325 139.083 174.969 137.631C184.541 132.367 193.825 131.984 203.301 131.984C203.46 131.971 203.62 131.99 203.77 132.042C203.921 132.094 204.059 132.176 204.176 132.284C204.293 132.392 204.386 132.524 204.45 132.67C204.513 132.816 204.546 132.973 204.545 133.132C204.545 133.462 204.414 133.779 204.181 134.012C203.948 134.246 203.631 134.377 203.301 134.377C192.007 134.377 184.349 135.238 176.118 139.737C172.968 141.428 169.451 142.315 165.876 142.321Z" fill="#42454D"/>
<path d="M269.153 126.145L268.004 125.858L258.815 121.934L255.465 124.327C255.304 124.45 255.115 124.532 254.915 124.565C254.715 124.598 254.509 124.582 254.317 124.518L235.078 116.191C234.939 116.129 234.814 116.04 234.709 115.929C234.605 115.818 234.524 115.688 234.47 115.545C234.417 115.403 234.392 115.251 234.398 115.099C234.404 114.947 234.44 114.797 234.503 114.659C234.556 114.512 234.639 114.377 234.745 114.262C234.852 114.148 234.981 114.057 235.125 113.994C235.268 113.931 235.423 113.898 235.579 113.897C235.736 113.897 235.891 113.928 236.035 113.989L254.604 122.029L257.954 119.541C258.141 119.432 258.35 119.367 258.565 119.351C258.781 119.334 258.997 119.366 259.198 119.445L268.961 123.657C269.023 123.687 269.091 123.704 269.161 123.706C269.23 123.708 269.299 123.695 269.363 123.668C269.426 123.641 269.483 123.6 269.53 123.548C269.576 123.497 269.611 123.436 269.631 123.369C269.662 123.307 269.679 123.239 269.681 123.17C269.683 123.101 269.67 123.032 269.643 122.968C269.615 122.904 269.574 122.847 269.523 122.801C269.471 122.755 269.41 122.72 269.344 122.699L238.141 109.203C237.872 109.062 237.659 108.833 237.538 108.555C237.416 108.277 237.392 107.965 237.471 107.672C237.521 107.512 237.607 107.365 237.72 107.242C237.834 107.119 237.973 107.021 238.128 106.958C238.283 106.894 238.45 106.865 238.618 106.872C238.785 106.88 238.949 106.924 239.098 107.002L270.301 120.498C270.901 120.782 271.389 121.258 271.686 121.852C271.983 122.445 272.073 123.121 271.941 123.772C271.808 124.422 271.462 125.01 270.956 125.44C270.451 125.87 269.816 126.118 269.153 126.145Z" fill="#A8B0B5"/>
<path d="M230.962 127.294L226.272 125.284L229.43 118.009L234.12 120.019C234.251 120.066 234.367 120.148 234.455 120.256C234.543 120.364 234.6 120.494 234.62 120.632C234.639 120.769 234.621 120.91 234.567 121.038C234.513 121.166 234.424 121.277 234.312 121.359C233.541 121.945 232.933 122.72 232.548 123.608C232.162 124.496 232.011 125.469 232.11 126.432C232.155 126.582 232.152 126.742 232.103 126.89C232.054 127.039 231.961 127.169 231.836 127.262C231.711 127.356 231.56 127.41 231.404 127.415C231.247 127.421 231.093 127.378 230.962 127.294Z" fill="#4F5660"/>
<path d="M235.173 122.125L208.947 110.83C206.599 109.8 204.751 107.887 203.802 105.505C202.853 103.123 202.879 100.463 203.874 98.1002C204.374 96.9175 205.104 95.8462 206.023 94.9489C206.941 94.0516 208.029 93.3462 209.223 92.8739C210.417 92.4017 211.693 92.172 212.977 92.1983C214.261 92.2247 215.527 92.5064 216.7 93.0273L245.319 105.375C245.954 105.657 246.515 106.084 246.958 106.62C247.4 107.156 247.713 107.787 247.87 108.464C248.028 109.141 248.026 109.845 247.866 110.521C247.706 111.198 247.391 111.828 246.947 112.362L239.863 121.072C239.309 121.743 238.547 122.21 237.699 122.401C236.85 122.591 235.961 122.494 235.173 122.125Z" fill="#8E97A3"/>
<path d="M212.489 139.737V140.694C212.485 140.97 212.403 141.239 212.251 141.469C212.099 141.699 211.884 141.88 211.631 141.991C211.379 142.102 211.1 142.138 210.828 142.095C210.555 142.051 210.301 141.931 210.096 141.747L201.864 135.525C201.506 135.254 201.206 134.913 200.982 134.522C200.758 134.132 200.615 133.701 200.561 133.254C200.508 132.808 200.545 132.355 200.67 131.923C200.795 131.491 201.006 131.088 201.29 130.739L213.446 115.999C213.687 115.733 213.86 115.411 213.949 115.063C214.037 114.714 214.039 114.349 213.954 114C213.869 113.651 213.7 113.327 213.461 113.058C213.222 112.79 212.921 112.583 212.584 112.458L209.043 110.83L210.383 107.959L232.493 117.435L233.451 121.359L232.111 120.785C231.855 120.711 231.582 120.728 231.338 120.832C231.093 120.937 230.893 121.123 230.771 121.359L228.665 126.241C228.477 126.64 228.15 126.958 227.744 127.134C227.339 127.31 226.884 127.333 226.463 127.198L224.549 126.337C224.1 126.157 223.601 126.145 223.144 126.303C222.687 126.461 222.302 126.779 222.06 127.198C220.051 130.675 217.423 133.757 214.307 136.291C213.275 137.158 212.622 138.395 212.489 139.737Z" fill="#8E97A3"/>
<path d="M260.538 108.151C260.995 108.151 261.433 108.332 261.756 108.655C262.079 108.978 262.261 109.417 262.261 109.874V144.81H258.719V109.874C258.719 109.639 258.766 109.407 258.859 109.191C258.951 108.976 259.087 108.781 259.257 108.62C259.427 108.459 259.629 108.334 259.849 108.253C260.069 108.172 260.304 108.138 260.538 108.151Z" fill="#747F8D"/>
<path d="M200.428 140.981H267.143C267.549 140.981 267.938 141.142 268.225 141.43C268.513 141.717 268.674 142.106 268.674 142.512V144.81H198.897V142.512C198.897 142.106 199.058 141.717 199.345 141.43C199.633 141.142 200.022 140.981 200.428 140.981Z" fill="#747F8D"/>
<path d="M203.587 98.6752C202.73 101.015 202.809 103.595 203.807 105.877C204.806 108.16 206.647 109.969 208.947 110.927L212.489 112.458C212.826 112.584 213.127 112.79 213.366 113.059C213.604 113.328 213.774 113.651 213.859 114.001C213.944 114.35 213.942 114.715 213.853 115.063C213.765 115.412 213.592 115.733 213.35 116L201.194 130.74L202.343 131.506C202.802 131.856 203.38 132.013 203.953 131.941C204.526 131.87 205.048 131.576 205.406 131.123L218.519 116C219.414 115.002 220.048 113.798 220.365 112.495C220.683 111.193 220.673 109.832 220.338 108.534L219.763 106.332C219.577 105.748 219.622 105.114 219.889 104.562C220.156 104.01 220.625 103.582 221.199 103.365L223.209 102.408C223.905 102.119 224.496 101.625 224.906 100.993C225.316 100.361 225.526 99.6198 225.506 98.8666V96.8566L216.605 92.9322C215.377 92.4121 214.057 92.1487 212.724 92.1585C211.391 92.1682 210.074 92.4508 208.854 92.9889C207.635 93.5269 206.538 94.309 205.632 95.287C204.727 96.2649 204.031 97.418 203.587 98.6752Z" fill="#747F8D"/>
<path d="M238.34 109.389L229.117 105.398C228.195 104.999 227.124 105.423 226.725 106.344L226.691 106.423C226.292 107.345 226.716 108.416 227.638 108.815L236.861 112.806C237.783 113.205 238.854 112.781 239.253 111.859L239.287 111.78C239.686 110.858 239.262 109.788 238.34 109.389Z" fill="#FFD836"/>
<path d="M19.5261 33.2041H42.1152C42.3436 33.2041 42.5627 33.2949 42.7243 33.4564C42.8858 33.618 42.9766 33.8371 42.9766 34.0655V35.7884H18.6647V34.0655C18.6647 33.8371 18.7554 33.618 18.917 33.4564C19.0785 33.2949 19.2976 33.2041 19.5261 33.2041Z" fill="#9AA2AC"/>
<path d="M36.1806 15.8797H36.0848C35.9674 15.8384 35.8666 15.7601 35.7975 15.6565C35.7285 15.5529 35.6949 15.4297 35.702 15.3054C35.9962 14.5443 36.0949 13.7216 35.9891 12.9125C35.9523 12.8505 35.9339 12.7793 35.9358 12.7072C35.9377 12.6351 35.9599 12.565 35.9999 12.505C36.0399 12.4449 36.0961 12.3975 36.1619 12.368C36.2277 12.3385 36.3006 12.3282 36.372 12.3382C36.4934 12.3439 36.6111 12.3826 36.7122 12.45C36.8134 12.5175 36.8943 12.6112 36.9463 12.7211C37.0572 13.6878 36.9593 14.667 36.6591 15.5926C36.6047 15.672 36.5338 15.7388 36.4512 15.7884C36.3686 15.8379 36.2763 15.8691 36.1806 15.8797Z" fill="#8A939F"/>
<path d="M32.2565 15.4012C32.0651 15.4012 31.9694 15.4012 31.8737 15.2098C31.836 15.1595 31.8085 15.1023 31.7929 15.0414C31.7773 14.9806 31.7739 14.9172 31.7828 14.855C31.7917 14.7928 31.8127 14.7329 31.8447 14.6788C31.8767 14.6247 31.9191 14.5775 31.9694 14.5398C32.6011 14.1369 33.0744 13.5283 33.3094 12.8169C33.3166 12.7535 33.3395 12.6929 33.376 12.6406C33.4125 12.5883 33.4616 12.546 33.5186 12.5175C33.5757 12.4889 33.639 12.4751 33.7027 12.4773C33.7665 12.4794 33.8287 12.4975 33.8837 12.5298C34.1709 12.5298 34.2666 12.8169 34.1709 13.1041C33.9027 14.0056 33.3269 14.7847 32.5437 15.3055L32.2565 15.4012Z" fill="#8A939F"/>
<path d="M29.3851 13.1038C29.2581 13.1038 29.1364 13.0533 29.0467 12.9636C28.9569 12.8738 28.9065 12.7521 28.9065 12.6252C28.9065 12.4983 28.9569 12.3765 29.0467 12.2868C29.1364 12.197 29.2581 12.1466 29.3851 12.1466C30.1331 12.0426 30.8507 11.7816 31.4908 11.3809C31.5924 11.3047 31.72 11.272 31.8457 11.29C31.9713 11.3079 32.0847 11.3751 32.1608 11.4766C32.2566 11.7637 32.2566 12.0509 31.9694 12.1466C31.2082 12.6895 30.3162 13.0199 29.3851 13.1038Z" fill="#8A939F"/>
<path d="M28.2364 10.3283C28.1095 10.3283 27.9877 10.2779 27.898 10.1881C27.8082 10.0984 27.7578 9.97663 27.7578 9.8497C27.7429 9.79211 27.7416 9.73185 27.7541 9.67369C27.7665 9.61552 27.7923 9.56106 27.8295 9.51461C27.8667 9.46817 27.9141 9.43102 27.9681 9.40611C28.0222 9.3812 28.0812 9.36922 28.1407 9.37112L30.4379 8.98825C30.4929 8.95595 30.5551 8.93791 30.6188 8.93576C30.6826 8.93362 30.7459 8.94744 30.8029 8.97597C30.86 9.0045 30.909 9.04683 30.9456 9.09913C30.9821 9.15142 31.005 9.21201 31.0122 9.2754C31.044 9.38969 31.0323 9.51173 30.9792 9.61785C30.9261 9.72397 30.8355 9.80659 30.725 9.8497L28.2364 10.3283Z" fill="#8A939F"/>
<path d="M26.8006 7.6482C26.6092 7.6482 26.4177 7.55249 26.4177 7.36106C26.4177 7.16962 26.4177 6.78676 26.7049 6.78676C27.5496 6.42768 28.4735 6.2957 29.3849 6.40389C29.5119 6.40389 29.6336 6.45431 29.7233 6.54407C29.8131 6.63382 29.8635 6.75555 29.8635 6.88247C29.8635 7.0094 29.8131 7.13113 29.7233 7.22088C29.6336 7.31063 29.5119 7.36106 29.3849 7.36106C28.5758 7.2593 27.7541 7.3579 26.992 7.6482H26.8006Z" fill="#8A939F"/>
<path d="M25.1734 5.25514C24.9819 5.25514 24.7905 5.25514 24.6948 5.0637C24.6622 4.94521 24.6628 4.82003 24.6966 4.70185C24.7303 4.58368 24.7959 4.47707 24.8862 4.39369C25.768 3.93053 26.7854 3.79488 27.7577 4.01083C28.0449 4.10654 28.2363 4.39369 28.1406 4.58512C28.0449 4.77655 27.8534 5.0637 27.5663 4.96799C26.8229 4.77522 26.0338 4.87815 25.3648 5.25514H25.1734Z" fill="#8A939F"/>
<path d="M39.1481 14.0609C39.0212 14.0609 38.8995 14.0105 38.8097 13.9207C38.72 13.831 38.6696 13.7092 38.6696 13.5823C38.6488 12.8271 38.3407 12.1082 37.8081 11.5723C37.7641 11.522 37.7305 11.4635 37.7091 11.4002C37.6877 11.337 37.6789 11.2701 37.6834 11.2034C37.6924 11.0688 37.7544 10.9432 37.856 10.8544C37.9575 10.7655 38.0902 10.7207 38.2248 10.7296C38.3595 10.7386 38.485 10.8007 38.5739 10.9022C39.2083 11.619 39.5797 12.5305 39.6267 13.4866C39.6286 13.6237 39.5815 13.7569 39.4937 13.8623C39.4059 13.9676 39.2833 14.038 39.1481 14.0609Z" fill="#8A939F"/>
<path d="M40.5838 11.2857C40.484 11.2939 40.3841 11.2706 40.2983 11.2191C40.2124 11.1676 40.1449 11.0904 40.1052 10.9985C39.8825 10.2554 39.4089 9.61268 38.7652 9.1799C38.478 9.08418 38.478 8.70131 38.5737 8.50988C38.6571 8.41959 38.7637 8.35398 38.8819 8.32021C39.0001 8.28645 39.1252 8.28584 39.2437 8.31845C40.096 8.895 40.735 9.73582 41.0623 10.7114C41.1581 10.9028 40.9666 11.1899 40.7752 11.2857H40.5838Z" fill="#8A939F"/>
<path d="M40.7751 7.64829H40.4879C40.1797 7.44829 39.8349 7.31146 39.4734 7.24574C39.1119 7.18002 38.741 7.1867 38.3822 7.26542C38.2607 7.25972 38.1431 7.22108 38.0419 7.15363C37.9407 7.08618 37.8598 6.99248 37.8079 6.88256C37.8079 6.59541 37.9036 6.30826 38.1907 6.30826C38.6891 6.20052 39.2052 6.20474 39.7018 6.32061C40.1983 6.43647 40.663 6.66109 41.0622 6.97827C41.1638 7.05443 41.2309 7.1678 41.2488 7.29346C41.2668 7.41911 41.2341 7.54675 41.1579 7.64829H40.7751Z" fill="#8A939F"/>
<path d="M39.2434 4.96789H38.8606C38.5863 4.7731 38.2741 4.63833 37.9442 4.57236C37.6144 4.50639 37.2743 4.5107 36.9463 4.58502C36.7548 4.58502 36.4677 4.39359 36.4677 4.20216C36.4309 4.1401 36.4124 4.06893 36.4143 3.99682C36.4162 3.92471 36.4385 3.85461 36.4785 3.7946C36.5185 3.73458 36.5747 3.68709 36.6405 3.65759C36.7063 3.62809 36.7791 3.61778 36.8505 3.62786C37.3192 3.54257 37.8007 3.55822 38.2628 3.67375C38.725 3.78929 39.1572 4.00207 39.5306 4.29788C39.722 4.39359 39.722 4.77646 39.6263 4.96789H39.2434Z" fill="#8A939F"/>
<path d="M132.088 66.2267C133.251 66.2267 134.194 65.2839 134.194 64.1209C134.194 62.9579 133.251 62.0151 132.088 62.0151C130.925 62.0151 129.982 62.9579 129.982 64.1209C129.982 65.2839 130.925 66.2267 132.088 66.2267Z" fill="#9BA3AD"/>
<path d="M150.37 84.3169H145.297C145.138 84.3302 144.979 84.3103 144.828 84.2586C144.678 84.2068 144.539 84.1243 144.422 84.0163C144.305 83.9083 144.212 83.7771 144.148 83.6311C144.085 83.4852 144.052 83.3275 144.053 83.1683C144.053 82.8383 144.184 82.5218 144.417 82.2885C144.651 82.0551 144.967 81.924 145.297 81.924H150.37C155.252 81.924 158.602 80.1054 160.133 76.7553C160.661 75.5391 160.877 74.2101 160.76 72.8893C160.643 71.5686 160.197 70.2981 159.463 69.1937C158.673 68.0076 157.608 67.0308 156.357 66.3473C155.107 65.6637 153.709 65.2938 152.284 65.2694H132.088C131.784 65.2694 131.492 65.1484 131.276 64.933C131.061 64.7176 130.94 64.4254 130.94 64.1208C130.939 63.8067 131.057 63.5039 131.27 63.2731C131.483 63.0423 131.775 62.9006 132.088 62.8765H152.284C154.119 62.8814 155.923 63.3488 157.529 64.2355C159.135 65.1222 160.492 66.3996 161.473 67.9494C162.447 69.3642 163.038 71.0068 163.189 72.7176C163.34 74.4284 163.045 76.1491 162.335 77.7125C160.42 82.0197 156.209 84.3169 150.37 84.3169Z" fill="#585F6A"/>
<path d="M209.713 105.566C211.035 105.566 212.106 104.495 212.106 103.173C212.106 101.852 211.035 100.78 209.713 100.78C208.392 100.78 207.32 101.852 207.32 103.173C207.32 104.495 208.392 105.566 209.713 105.566Z" fill="#626B7A"/>
<path d="M136.013 4.10669C136.013 3.1023 135.22 2.28809 134.242 2.28809C133.264 2.28809 132.471 3.1023 132.471 4.10669V7.48548C132.471 8.48987 133.264 9.30409 134.242 9.30409C135.22 9.30409 136.013 8.48987 136.013 7.48548V4.10669Z" fill="#3E70DD"/>
<path d="M136.013 19.8997C136.013 18.8953 135.22 18.0811 134.242 18.0811C133.264 18.0811 132.471 18.8953 132.471 19.8997V23.2784C132.471 24.2828 133.264 25.0971 134.242 25.0971C135.22 25.0971 136.013 24.2828 136.013 23.2784V19.8997Z" fill="#3E70DD"/>
<path d="M143.765 15.4976C144.769 15.4976 145.583 14.7048 145.583 13.7268C145.583 12.7488 144.769 11.9561 143.765 11.9561H140.386C139.382 11.9561 138.567 12.7488 138.567 13.7268C138.567 14.7048 139.382 15.4976 140.386 15.4976H143.765Z" fill="#3E70DD"/>
<path d="M127.973 15.4971C128.977 15.4971 129.791 14.7043 129.791 13.7263C129.791 12.7483 128.977 11.9556 127.973 11.9556H124.594C123.589 11.9556 122.775 12.7483 122.775 13.7263C122.775 14.7043 123.589 15.4971 124.594 15.4971H127.973Z" fill="#3E70DD"/>
</g>
<defs>
<clipPath id="clip0">
<rect width="272" height="145" fill="white"/>
</clipPath>
</defs>
</svg>
