<svg width="272" height="310" viewBox="0 0 272 310" fill="none" xmlns="http://www.w3.org/2000/svg">
<path fill-rule="evenodd" clip-rule="evenodd" d="M265.955 310H6.04534C2.7063 310 0 307.366 0 304.118V64H272V304.118C272 307.366 269.293 310 265.955 310Z" fill="#1F2225"/>
<path fill-rule="evenodd" clip-rule="evenodd" d="M156 266H258C260.21 266 262 267.791 262 270V296C262 298.209 260.21 300 258 300H156C153.791 300 152 298.209 152 296V270C152 267.791 153.791 266 156 266Z" fill="#4F545C"/>
<path fill-rule="evenodd" clip-rule="evenodd" d="M15.0223 272H140.978C142.648 272 144 273.344 144 275.001V290.999C144 292.656 142.648 294 140.978 294H15.0223C13.353 294 12 292.656 12 290.999V275.001C12 273.344 13.353 272 15.0223 272Z" fill="#36393F"/>
<path fill-rule="evenodd" clip-rule="evenodd" d="M11.9956 74H142.004C143.106 74 144 74.9775 144 76.182V83.818C144 85.0235 143.106 86 142.004 86H11.9956C10.894 86 10 85.0235 10 83.818V76.182C10 74.9775 10.894 74 11.9956 74Z" fill="#72767D"/>
<path fill-rule="evenodd" clip-rule="evenodd" d="M37.0208 90H68.9792C70.0947 90 71 90.9775 71 92.182V99.818C71 101.024 70.0947 102 68.9792 102H37.0208C35.9053 102 35 101.024 35 99.818V92.182C35 90.9775 35.9053 90 37.0208 90ZM77 90H169.966C171.07 90 171.966 90.9775 171.966 92.182V99.818C171.966 101.024 171.07 102 169.966 102H77C75.896 102 75 101.024 75 99.818V92.182C75 90.9775 75.896 90 77 90ZM253.998 91H260.002C261.105 91 262 91.8146 262 92.8183V99.1817C262 100.186 261.105 101 260.002 101H253.998C252.895 101 252 100.186 252 99.1817V92.8183C252 91.8146 252.895 91 253.998 91ZM239.998 91H246.002C247.105 91 248 91.8146 248 92.8183V99.1817C248 100.186 247.105 101 246.002 101H239.998C238.895 101 238 100.186 238 99.1817V92.8183C238 91.8146 238.895 91 239.998 91ZM37.0228 106H96.9772C98.0948 106 99 106.978 99 108.182V115.818C99 117.024 98.0948 118 96.9772 118H37.0228C35.9062 118 35 117.024 35 115.818V108.182C35 106.978 35.9062 106 37.0228 106ZM36.9713 122H75.0287C76.1178 122 77 122.978 77 124.182V131.818C77 133.024 76.1178 134 75.0287 134H36.9713C35.8832 134 35 133.024 35 131.818V124.182C35 122.978 35.8832 122 36.9713 122ZM104.973 106H149.027C150.116 106 151 106.978 151 108.182V115.818C151 117.024 150.116 118 149.027 118H104.973C103.884 118 103 117.024 103 115.818V108.182C103 106.978 103.884 106 104.973 106ZM253.998 107H260.002C261.105 107 262 107.815 262 108.818V115.182C262 116.186 261.105 117 260.002 117H253.998C252.895 117 252 116.186 252 115.182V108.818C252 107.815 252.895 107 253.998 107Z" fill="#36393F"/>
<path fill-rule="evenodd" clip-rule="evenodd" d="M25.0005 90C28.3139 90 31 92.6861 31 95.9995C31 99.3139 28.3139 102 25.0005 102C21.6861 102 19 99.3139 19 95.9995C19 92.6861 21.6861 90 25.0005 90ZM25.0005 106C28.3139 106 31 108.686 31 111.999C31 115.314 28.3139 118 25.0005 118C21.6861 118 19 115.314 19 111.999C19 108.686 21.6861 106 25.0005 106ZM25.0005 122C28.3139 122 31 124.686 31 127.999C31 131.314 28.3139 134 25.0005 134C21.6861 134 19 131.314 19 127.999C19 124.686 21.6861 122 25.0005 122Z" fill="#B9BBBE"/>
<path fill-rule="evenodd" clip-rule="evenodd" d="M253.998 123H260.002C261.105 123 262 123.815 262 124.818V131.182C262 132.186 261.105 133 260.002 133H253.998C252.895 133 252 132.186 252 131.182V124.818C252 123.815 252.895 123 253.998 123Z" fill="#36393F"/>
<path fill-rule="evenodd" clip-rule="evenodd" d="M11.9918 142H160.008C161.108 142 162 142.978 162 144.182V151.818C162 153.024 161.108 154 160.008 154H11.9918C10.8923 154 10 153.024 10 151.818V144.182C10 142.978 10.8923 142 11.9918 142ZM11.9903 162H192.01C193.109 162 194 162.977 194 164.182V171.818C194 173.023 193.109 174 192.01 174H11.9903C10.8916 174 10 173.023 10 171.818V164.182C10 162.977 10.8916 162 11.9903 162Z" fill="#72767D"/>
<path fill-rule="evenodd" clip-rule="evenodd" d="M12.003 190H143.997C145.103 190 146 190.978 146 192.182V199.818C146 201.024 145.103 202 143.997 202H12.003C10.8973 202 10 201.024 10 199.818V192.182C10 190.978 10.8973 190 12.003 190Z" fill="#4F545C"/>
<path fill-rule="evenodd" clip-rule="evenodd" d="M36.9733 206H103.027C104.117 206 105 206.978 105 208.182V215.818C105 217.024 104.117 218 103.027 218H36.9733C35.884 218 35 217.024 35 215.818V208.182C35 206.978 35.884 206 36.9733 206ZM36.9925 222H165.008C166.108 222 167 222.978 167 224.182V231.818C167 233.024 166.108 234 165.008 234H36.9925C35.8926 234 35 233.024 35 231.818V224.182C35 222.978 35.8926 222 36.9925 222ZM37.0228 238H64.9772C66.0938 238 67 238.978 67 240.182V247.818C67 249.024 66.0938 250 64.9772 250H37.0228C35.9062 250 35 249.024 35 247.818V240.182C35 238.978 35.9062 238 37.0228 238Z" fill="#36393F"/>
<path fill-rule="evenodd" clip-rule="evenodd" d="M25.0005 206C28.3139 206 31 208.686 31 211.999C31 215.314 28.3139 218 25.0005 218C21.6861 218 19 215.314 19 211.999C19 208.686 21.6861 206 25.0005 206ZM25.0005 222C28.3139 222 31 224.686 31 227.999C31 231.314 28.3139 234 25.0005 234C21.6861 234 19 231.314 19 227.999C19 224.686 21.6861 222 25.0005 222ZM25.0005 238C28.3139 238 31 240.686 31 243.999C31 247.314 28.3139 250 25.0005 250C21.6861 250 19 247.314 19 243.999C19 240.686 21.6861 238 25.0005 238Z" fill="#B9BBBE"/>
<path fill-rule="evenodd" clip-rule="evenodd" d="M83.9801 122H176.02C177.113 122 178 122.978 178 124.182V131.818C178 133.024 177.113 134 176.02 134H83.9801C82.8871 134 82 133.024 82 131.818V124.182C82 122.978 82.8871 122 83.9801 122Z" fill="#36393F"/>
<path fill-rule="evenodd" clip-rule="evenodd" d="M272 64H0V6.01928C0 2.69563 2.7063 0 6.04534 0H265.955C269.293 0 272 2.69563 272 6.01928V64Z" fill="#5865F2"/>
<path fill-rule="evenodd" clip-rule="evenodd" d="M210.029 18H259.971C261.092 18 262 18.9775 262 20.182V27.818C262 29.0235 261.092 30 259.971 30H210.029C208.909 30 208 29.0235 208 27.818V20.182C208 18.9775 208.909 18 210.029 18ZM199.992 34H260.008C261.108 34 262 34.9775 262 36.182V43.818C262 45.0235 261.108 46 260.008 46H199.992C198.893 46 198 45.0235 198 43.818V36.182C198 34.9775 198.893 34 199.992 34Z" fill="white"/>
</svg>
