<svg width="24" height="24" viewBox="0 0 24 24" xmlns="http://www.w3.org/2000/svg">
<path d="M16.5822 2.63812C16.5822 2.63812 24.2543 7.87435 21.3389 15.2268C18.4235 22.5793 12.6247 20.5398 14.792 18.3916C16.9594 16.2434 12.2347 14.7857 9.21057 11.9981L16.5758 2.63812" fill="#3BA55C"/>
<path d="M16.1155 9.83717C14.498 11.8959 12.2155 12.9252 10.4509 12.5544L4.29406 20.3991C4.19044 20.5315 4.06175 20.6421 3.91535 20.7247C3.76895 20.8072 3.60771 20.8601 3.44084 20.8803C3.27398 20.9005 3.10478 20.8876 2.94291 20.8423C2.78104 20.7971 2.62969 20.7203 2.4975 20.6165C2.36376 20.5133 2.2518 20.3846 2.16808 20.2379C2.08436 20.0912 2.03054 19.9293 2.00974 19.7617C1.98893 19.594 2.00155 19.4239 2.04686 19.2612C2.09217 19.0985 2.16928 18.9463 2.27373 18.8136L8.39865 10.9816C7.58668 9.35766 8.03422 6.87061 9.67734 4.79274C11.7168 2.20979 14.7921 1.24438 16.5759 2.63815C18.3596 4.03192 18.1423 7.25422 16.1155 9.83717Z" fill="#B4E1CD"/>
</svg>
