<svg width="24" height="24" viewBox="0 0 24 24" xmlns="http://www.w3.org/2000/svg">
<path fill-rule="evenodd" clip-rule="evenodd" d="M12 20C16.4183 20 20 16.4183 20 12C20 7.58172 16.4183 4 12 4C7.58172 4 4 7.58172 4 12C4 16.4183 7.58172 20 12 20ZM12.7921 11.725L16.4067 9.3512C16.4976 9.29204 16.608 9.39094 16.5577 9.4872L15.0591 12.4288C15.0237 12.4995 15.0749 12.5825 15.1535 12.5825H16.0508C16.1541 12.5825 16.1965 12.714 16.1126 12.7741L12.0609 15.6768C12.0247 15.7033 11.9753 15.7033 11.9382 15.6768L7.88652 12.7741C7.80351 12.714 7.8459 12.5825 7.94834 12.5825H8.84468C8.92416 12.5825 8.97538 12.4995 8.93917 12.4288L7.44055 9.4872C7.3911 9.39094 7.50149 9.29204 7.59245 9.3512L11.2079 11.725C11.2706 11.7665 11.3209 11.823 11.3544 11.8901L11.9055 12.9958C11.9444 13.0735 12.0556 13.0735 12.0945 12.9958L12.6455 11.8901C12.6791 11.823 12.7294 11.7656 12.7921 11.725Z" fill="#F47B67"/>
</svg>
