<svg width="40" height="40" viewBox="0 0 40 40" fill="none" xmlns="http://www.w3.org/2000/svg">
<circle cx="32" cy="8" r="8" fill="white"/>
<path d="M36 7.55556H32.4444V4H31.5556V7.55556H28V8.44444H31.5556V12H32.4444V8.44444H36V7.55556Z" fill="#060607"/>
<path fill-rule="evenodd" clip-rule="evenodd" d="M20.0105 8.50678C18.7289 8.17597 17.385 8 16 8C7.16344 8 0 15.1634 0 24C0 32.8366 7.16344 40 16 40C24.8366 40 32 32.8366 32 24C32 22.615 31.824 21.2711 31.4932 19.9895C25.2689 19.7309 20.2691 14.7311 20.0105 8.50678Z" fill="#3ba55c"/>
<path fill-rule="evenodd" clip-rule="evenodd" d="M17.6667 25.6667C17.6667 26.5833 16.9167 27.3333 16 27.3333C15.0834 27.3333 14.3334 26.5833 14.3334 25.6667C14.3334 24.75 15.0834 24 16 24C16.9167 24 17.6667 24.75 17.6667 25.6667ZM13.0834 31.5V31.0833C13.0834 29.6667 14.2834 28.5833 16 28.5833C17.7167 28.5833 18.9167 29.6667 18.9167 31.0833V31.5H13.0834ZM11.8334 25.6667C11.8334 23.3667 13.7 21.5 16 21.5C18.3 21.5 20.1667 23.3667 20.1667 25.6667C20.1667 26.425 19.95 27.125 19.5917 27.7417L20.6834 28.375C21.1417 27.575 21.4167 26.6583 21.4167 25.6667C21.4167 22.6833 18.9834 20.25 16 20.25C13.0167 20.25 10.5834 22.6833 10.5834 25.6667C10.5834 26.65 10.85 27.575 11.3167 28.375L12.4084 27.7417C12.05 27.125 11.8334 26.425 11.8334 25.6667ZM8.08337 25.6667C8.08337 21.2917 11.625 17.75 16 17.75C20.375 17.75 23.9167 21.2917 23.9167 25.6667C23.9167 27.1083 23.525 28.4583 22.85 29.625L23.925 30.25C24.7084 28.9 25.1667 27.3333 25.1667 25.6667C25.1667 20.6083 21.0584 16.5 16 16.5C10.9417 16.5 6.83337 20.6083 6.83337 25.6667C6.83337 27.3333 7.29171 28.9 8.06671 30.2417L9.14171 29.6167C8.47504 28.4583 8.08337 27.1083 8.08337 25.6667Z" fill="white"/>
</svg>
