<svg width="120" height="80" viewBox="0 0 120 80" fill="none" xmlns="http://www.w3.org/2000/svg">
<circle cx="60" cy="40" r="32" fill="#202225"/>
<path fill-rule="evenodd" clip-rule="evenodd" d="M51.668 23.334H55.0013V26.6673H65.0013V23.334H68.3346V26.6673H70.5013C72.3681 26.6673 73.3016 26.6673 74.0146 27.0306C74.6418 27.3502 75.1517 27.8601 75.4713 28.4873C75.8346 29.2004 75.8346 30.1338 75.8346 32.0007V51.334C75.8346 53.2008 75.8346 54.1342 75.4713 54.8473C75.1517 55.4745 74.6418 55.9844 74.0146 56.304C73.3016 56.6673 72.3681 56.6673 70.5013 56.6673H49.5013C47.6345 56.6673 46.701 56.6673 45.988 56.304C45.3608 55.9844 44.8509 55.4745 44.5313 54.8473C44.168 54.1342 44.168 53.2008 44.168 51.334V32.0007C44.168 30.1338 44.168 29.2004 44.5313 28.4873C44.8509 27.8601 45.3608 27.3502 45.988 27.0306C46.701 26.6673 47.6345 26.6673 49.5013 26.6673H51.668V23.334ZM62.5013 38.334H57.5013V43.334H62.5013V38.334ZM57.5013 46.6673H62.5013V51.6673H57.5013V46.6673ZM54.168 43.334V38.334H49.168V43.334H54.168ZM49.168 51.6673V46.6673H54.168V51.6673H49.168ZM70.8346 43.334V38.334H65.8346V43.334H70.8346ZM49.168 31.6673H70.8346V35.0007H49.168V31.6673Z" fill="#B9BBBE"/>
<path d="M103.671 1.80634C103.671 0.808724 102.863 0 101.865 0C100.867 0 100.059 0.808724 100.059 1.80634V3.64278C100.059 4.64039 100.867 5.44911 101.865 5.44911C102.863 5.44911 103.671 4.64039 103.671 3.64278V1.80634Z" fill="#58F287"/>
<path d="M103.671 16.3571C103.671 15.3595 102.863 14.5508 101.865 14.5508C100.867 14.5508 100.059 15.3595 100.059 16.3571V18.1936C100.059 19.1912 100.867 19.9999 101.865 19.9999C102.863 19.9999 103.671 19.1912 103.671 18.1936V16.3571Z" fill="#58F287"/>
<path d="M110.194 11.8412C111.191 11.8412 112 11.0325 112 10.0349C112 9.03724 111.191 8.22852 110.194 8.22852H108.357C107.36 8.22852 106.551 9.03724 106.551 10.0349C106.551 11.0325 107.36 11.8412 108.357 11.8412H110.194Z" fill="#58F287"/>
<path d="M95.6429 11.7416C96.6405 11.7416 97.4492 10.9329 97.4492 9.93524C97.4492 8.93763 96.6405 8.12891 95.6429 8.12891H93.8064C92.8088 8.12891 92.0001 8.93763 92.0001 9.93524C92.0001 10.9329 92.8088 11.7416 93.8064 11.7416H95.6429Z" fill="#58F287"/>
<path d="M19.1501 74.4573L23.3147 73.0684C23.5192 72.9747 23.6925 72.8241 23.814 72.6347C23.9354 72.4454 24 72.225 24 72C24 71.775 23.9354 71.5546 23.814 71.3653C23.6925 71.1759 23.5192 71.0253 23.3147 70.9316L19.1501 69.5427C18.8657 69.4142 18.6378 69.1862 18.5094 68.9016L17.0145 64.7348C16.9442 64.521 16.8083 64.3349 16.6262 64.203C16.444 64.071 16.2249 64 16 64C15.7751 64 15.556 64.071 15.3738 64.203C15.1917 64.3349 15.0558 64.521 14.9855 64.7348L13.4906 68.9016C13.3622 69.1862 13.1343 69.4142 12.8499 69.5427L8.68528 70.9316C8.4808 71.0253 8.30752 71.1759 8.18604 71.3653C8.06457 71.5546 8 71.775 8 72C8 72.225 8.06457 72.4454 8.18604 72.6347C8.30752 72.8241 8.4808 72.9747 8.68528 73.0684L12.8499 74.4573C13.0011 74.5032 13.1387 74.5858 13.2505 74.6976C13.3622 74.8094 13.4447 74.9471 13.4906 75.0984L14.9855 79.2652C15.0558 79.479 15.1917 79.6651 15.3738 79.797C15.556 79.929 15.7751 80 16 80C16.2249 80 16.444 79.929 16.6262 79.797C16.8083 79.6651 16.9442 79.479 17.0145 79.2652L18.5094 75.0984C18.5553 74.9471 18.6378 74.8094 18.7495 74.6976C18.8613 74.5858 18.9989 74.5032 19.1501 74.4573Z" fill="#FFD01A"/>
</svg>
