<svg width="24" height="24" viewBox="0 0 24 24" xmlns="http://www.w3.org/2000/svg">
<path d="M16.6033 9.15179L14.1125 10.8123C13.8635 11.0614 13.4483 10.9784 13.3653 10.8123C13.1162 10.5632 12.7011 10.3972 12.452 10.3141C11.7878 10.1481 11.2066 10.3141 10.7085 10.5632L9.87823 11.1444L5.22878 14.1333C4.23247 14.7975 2.98708 14.5485 2.32288 13.4691C1.65867 12.3898 2.0738 11.2274 3.07011 10.6463L8.38376 6.99312C9.87823 6.16286 11.6218 5.74773 13.2823 6.16286C14.6937 6.41193 15.9391 7.15917 16.7694 8.32153C17.0184 8.48758 17.0184 8.98574 16.6033 9.15179Z" fill="#5865F2"/>
<path d="M22 11.6425C22 12.3898 21.5848 13.054 21.0037 13.3861L15.524 16.9562C14.5276 17.6204 13.2823 17.9525 12.1199 17.9525C11.6217 17.9525 11.1236 17.9525 10.7085 17.7865C9.29702 17.5374 8.21769 16.6241 7.22138 15.6278C7.05532 15.4617 7.05532 14.9636 7.38743 14.8805L9.8782 13.22C10.1273 12.971 10.5424 13.054 10.6254 13.22C10.8745 13.4691 11.1236 13.6352 11.5387 13.7182C12.2029 13.8842 12.7841 13.7182 13.2823 13.4691L14.5276 12.7219L18.2638 10.2311L18.762 9.81597C19.7583 9.15177 21.0037 9.40085 21.6679 10.4802C21.8339 10.8953 22 11.2274 22 11.6425Z" fill="#5865F2"/>
</svg>
