<svg width="24" height="24" viewBox="0 0 24 24" xmlns="http://www.w3.org/2000/svg">
<path fill-rule="evenodd" clip-rule="evenodd" d="M11.8622 4.05696C11.9382 3.98101 12.0618 3.98101 12.1378 4.05696L19.9426 11.8617C19.9797 11.8979 20 11.9482 20 11.9994C20 12.0507 19.9788 12.101 19.9426 12.1372L12.1378 19.9419C12.0998 19.9799 12.0495 19.9993 12 19.9993C11.9505 19.9993 11.9002 19.9799 11.8622 19.9419L4.0574 12.1372C4.02031 12.101 4 12.0515 4 11.9994C4 11.9473 4.02031 11.8979 4.0574 11.8617L11.8622 4.05696ZM12.7921 12.3517L16.4067 9.97793C16.4976 9.91876 16.608 10.0177 16.5577 10.1139L15.0591 13.0555C15.0237 13.1262 15.0749 13.2092 15.1535 13.2092H16.0508C16.1541 13.2092 16.1965 13.3408 16.1126 13.4008L12.0609 16.3036C12.0247 16.3301 11.9753 16.3301 11.9382 16.3036L7.88652 13.4008C7.80351 13.3408 7.8459 13.2092 7.94834 13.2092H8.84468C8.92416 13.2092 8.97538 13.1262 8.93917 13.0555L7.44055 10.1139C7.3911 10.0177 7.50149 9.91876 7.59245 9.97793L11.2079 12.3517C11.2706 12.3932 11.3209 12.4497 11.3544 12.5168L11.9055 13.6225C11.9444 13.7002 12.0556 13.7002 12.0945 13.6225L12.6455 12.5168C12.6791 12.4497 12.7294 12.3923 12.7921 12.3517Z" fill="#45DDC0"/>
</svg>
