<?xml version="1.0" encoding="utf-8"?>
<!-- Generator: Adobe Illustrator 25.2.0, SVG Export Plug-In . SVG Version: 6.00 Build 0)  -->
<svg version="1.1" id="Layer_1" xmlns="http://www.w3.org/2000/svg" xmlns:xlink="http://www.w3.org/1999/xlink" x="0px" y="0px"
	 viewBox="0 0 360 280" style="enable-background:new 0 0 360 280;" xml:space="preserve">
<style type="text/css">
	.st0{fill-rule:evenodd;clip-rule:evenodd;fill:#5865F2;}
	.st1{fill:none;stroke:#231F1F;stroke-width:6;stroke-linecap:round;stroke-linejoin:round;stroke-dasharray:260,29;}
	.st2{fill:none;stroke:#231F1F;stroke-width:6;stroke-linecap:round;stroke-linejoin:round;stroke-dasharray:510,20;}
	.st3{fill-rule:evenodd;clip-rule:evenodd;fill:#36393E;}
	.st4{fill:none;stroke:#231F1F;stroke-width:6;stroke-linecap:round;stroke-linejoin:round;stroke-dasharray:500,20;}
	.st5{fill:none;stroke:#231F1F;stroke-width:6;stroke-linecap:round;stroke-linejoin:round;stroke-dasharray:23,10;}
	.st6{fill:none;}
</style>
<g>
	<path class="st0" d="M73.5,34.7c0,0,5.4,30.7,36.9,27.5c30.1-3,60.4-10.6,94.1-10.5c28,0,57.7,11.4,60.7-8.4
		C267.8,25.6,254.9,8,219,8s-85.1,15.5-106.4,19.8C91.3,32.1,73.5,34.7,73.5,34.7"/>
	<path class="st1" d="M73.5,34.7c0,0,5.4,30.7,36.9,27.5c30.1-3,60.4-10.6,94.1-10.5c28,0,57.7,11.4,60.7-8.4
		C267.8,25.6,254.9,8,219,8s-85.1,15.5-106.4,19.8C91.3,32.1,73.5,34.7,73.5,34.7z"/>
	<path class="st0" d="M127.2,115.8l2.2-10.3c0,0-15.8-4.3-8.8-20.5c5.9-13.5,45.5-15.8,58.7-7.1c13.2,8.7,13.9,21.3,13.9,21.3
		s107.1-18.1,118.1,18.9c11,37.1-27.1,22.1-54.3,22.1c-27.1,0-44,3.9-44,3.9s50.6,18.9,82.9,39.4s70.8,47.6,47.7,77.3
		c-23.2,29.7-54.6-2.4-96.1-30.8c-52.1-35.5-74.1-47.5-74.1-47.5s-19,41-45,66.2C93.4,283,37.7,278.3,9.1,224.7
		c0,0,32.5,0.1,55.8-15c25.6-16.7,42.6-41.8,42.6-41.8s-53.6,30-80.7,10.2c-27.1-19.7-21.3-27.6-4.4-31.5
		C36.8,143.2,127.2,115.8,127.2,115.8"/>
	<path class="st2" d="M127.2,115.8l2.2-10.3c0,0-15.8-4.3-8.8-20.5c5.9-13.5,45.5-15.8,58.7-7.1c13.2,8.7,13.9,21.3,13.9,21.3
		s107.1-18.1,118.1,18.9c11,37.1-27.1,22.1-54.3,22.1c-27.1,0-44,3.9-44,3.9s50.6,18.9,82.9,39.4s70.8,47.6,47.7,77.3
		c-23.2,29.7-54.6-2.4-96.1-30.8c-52.1-35.5-74.1-47.5-74.1-47.5s-19,41-45,66.2C93.4,283,37.7,278.3,9.1,224.7
		c0,0,32.5,0.1,55.8-15c25.6-16.7,42.6-41.8,42.6-41.8s-53.6,30-80.7,10.2c-27.1-19.7-21.3-27.6-4.4-31.5
		C36.8,143.2,127.2,115.8,127.2,115.8L127.2,115.8z"/>
	<path class="st3" d="M127.2,115.8l-5.7,17"/>
	<path class="st4" d="M127.2,115.8l-5.7,17"/>
	<path class="st5" d="M177.5,171.7c0,0,6-12,11-31.4"/>
	<path class="st3" d="M213.1,144.2l-6.6,1.5"/>
	<path class="st4" d="M213.1,144.2l-6.6,1.5"/>
	<path class="st6" d="M0,0h360v280H0V0z"/>
</g>
</svg>
