<svg width="64" height="64" viewBox="0 0 64 64" fill="none" xmlns="http://www.w3.org/2000/svg">
<path d="M31.122 57.0185C17.2657 57.0185 6.03301 45.7488 6.03301 31.8469C6.03301 17.945 17.2657 6.67529 31.122 6.67529C44.9782 6.67529 56.2109 17.945 56.2109 31.8469C56.2109 45.7488 44.9782 57.0185 31.122 57.0185Z" fill="#F7D036"/>
<path d="M59.6669 42.5237L59.6725 42.5293C59.8534 42.7108 59.8534 43.005 59.6725 43.1865L59.3394 43.5207C59.1585 43.7022 58.8653 43.7022 58.6844 43.5207L58.6788 43.515C58.4979 43.3336 58.4979 43.0394 58.6788 42.8579L59.0119 42.5237C59.1928 42.3422 59.486 42.3422 59.6669 42.5237Z" fill="#7196FF"/>
<path d="M57.0321 45.1731L57.0378 45.1788C57.2186 45.3602 57.2186 45.6544 57.0377 45.8359L56.7046 46.1701C56.5238 46.3516 56.2305 46.3516 56.0497 46.1701L56.044 46.1644C55.8631 45.983 55.8631 45.6888 56.044 45.5073L56.3771 45.1731C56.558 44.9916 56.8512 44.9916 57.0321 45.1731Z" fill="#7196FF"/>
<path d="M56.0438 42.5325L56.0495 42.5268C56.2303 42.3453 56.5236 42.3453 56.7044 42.5268L57.0376 42.861C57.2184 43.0425 57.2184 43.3367 57.0376 43.5182L57.0319 43.5238C56.8511 43.7053 56.5578 43.7053 56.377 43.5238L56.0438 43.1896C55.863 43.0081 55.863 42.7139 56.0438 42.5325Z" fill="#7196FF"/>
<path d="M58.6708 45.1819L58.6764 45.1762C58.8573 44.9948 59.1505 44.9948 59.3314 45.1762L59.6645 45.5105C59.8454 45.6919 59.8454 45.9861 59.6645 46.1676L59.6589 46.1732C59.478 46.3547 59.1848 46.3547 59.0039 46.1732L58.6708 45.839C58.4899 45.6576 58.4899 45.3633 58.6708 45.1819Z" fill="#7196FF"/>
<path d="M5.6734 49.063C5.6734 48.7046 5.96119 48.4141 6.31619 48.4141C6.6712 48.4141 6.95898 48.7046 6.95898 49.063V49.7039C6.95898 50.0623 6.6712 50.3528 6.31619 50.3528C5.96119 50.3528 5.6734 50.0623 5.6734 49.7039V49.063Z" fill="#F47FFF"/>
<path d="M5.6734 54.2305C5.6734 53.8721 5.96119 53.5815 6.31619 53.5815C6.6712 53.5815 6.95898 53.8721 6.95898 54.2305V54.8714C6.95898 55.2297 6.6712 55.5203 6.31619 55.5203C5.96119 55.5203 5.6734 55.2297 5.6734 54.8714V54.2305Z" fill="#F47FFF"/>
<path d="M3.4295 52.6043C3.07229 52.6043 2.78271 52.3155 2.78271 51.9594C2.78271 51.6032 3.07229 51.3145 3.4295 51.3145H4.0683C4.42551 51.3145 4.71509 51.6032 4.71509 51.9594C4.71509 52.3155 4.42551 52.6043 4.0683 52.6043H3.4295Z" fill="#F47FFF"/>
<path d="M8.57208 52.6121C8.21487 52.6121 7.92529 52.3234 7.92529 51.9672C7.92529 51.611 8.21487 51.3223 8.57208 51.3223H9.21088C9.56809 51.3223 9.85767 51.611 9.85767 51.9672C9.85767 52.3234 9.56809 52.6121 9.21088 52.6121H8.57208Z" fill="#F47FFF"/>
<path d="M53.6637 10.2084L54.4143 11.7626C54.4535 11.8421 54.4669 11.9321 54.4525 12.0197C54.4382 12.1073 54.3968 12.1882 54.3342 12.251C54.2716 12.3138 54.191 12.3553 54.1037 12.3697C54.0163 12.3841 53.9267 12.3707 53.8474 12.3314L52.2983 11.6264C52.2431 11.6011 52.1832 11.5881 52.1226 11.5881C52.062 11.5881 52.0021 11.6011 51.9469 11.6264L50.3978 12.3714C50.3185 12.4108 50.2289 12.4242 50.1416 12.4098C50.0542 12.3953 49.9736 12.3538 49.911 12.291C49.8485 12.2282 49.8071 12.1474 49.7927 12.0597C49.7783 11.9721 49.7917 11.8822 49.8309 11.8026L50.5735 10.2484C50.6011 10.1909 50.6154 10.128 50.6154 10.0641C50.6154 10.0003 50.6011 9.93737 50.5735 9.87989L49.8309 8.32569C49.787 8.24961 49.7676 8.1617 49.7756 8.07413C49.7836 7.98655 49.8185 7.90361 49.8754 7.83678C49.9324 7.76995 50.0087 7.72251 50.0937 7.70102C50.1787 7.67954 50.2682 7.68506 50.3499 7.71683L51.9469 8.46188C52.0042 8.48957 52.067 8.50395 52.1306 8.50395C52.1942 8.50395 52.257 8.48957 52.3143 8.46188L53.8633 7.71683C53.9427 7.67748 54.0323 7.66407 54.1196 7.67849C54.207 7.69291 54.2876 7.73443 54.3502 7.79721C54.4127 7.86 54.4541 7.94089 54.4685 8.0285C54.4829 8.11611 54.4695 8.20604 54.4303 8.28563L53.6797 9.83983C53.6496 9.8961 53.6325 9.95846 53.6297 10.0223C53.627 10.0861 53.6386 10.1497 53.6637 10.2084Z" fill="#60CFAC"/>
<path d="M45.3267 31.1417L48.1934 29.4834V51.7789L45.3267 53.4373V31.1417Z" fill="#9EA5B8"/>
<path d="M48.1934 29.4835L24.2383 15.6079V37.9034L48.1934 51.779V29.4835Z" fill="#9EA5B8"/>
<path d="M36.2158 5.3374C42.8035 9.15078 48.1934 20.0221 48.1934 29.4835L24.2383 15.6319C24.2383 6.14654 29.5882 1.52401 36.2158 5.3374Z" fill="#9EA5B8"/>
<path d="M45.3271 31.1417L21.3801 17.2661V39.5616L45.3271 53.4372V31.1417Z" fill="white"/>
<path d="M33.3574 6.99587C39.9371 10.8093 45.335 21.6806 45.335 31.142L21.3798 17.2343C21.3798 7.80501 26.7697 3.18248 33.3574 6.99587Z" fill="white"/>
<path d="M33.3578 11.1936C38.3724 14.0937 42.4688 22.8421 42.4688 30.549V34.9793L24.2389 24.4444V19.9901C24.2389 12.2431 28.3432 8.28554 33.3578 11.1936Z" fill="#0E0D33"/>
<path d="M42.4688 32.4715L24.2389 21.9126V41.2199L42.4688 51.7788V32.4715Z" fill="#0E0D33"/>
<path d="M11.9814 24.1958L24.2384 21.9126L26.2666 23.0822V42.3895L12.9955 44.865L11.9814 43.5031V24.1958Z" fill="#8C5950"/>
<path d="M12.9955 25.558L26.2666 23.0825V42.3898L12.9955 44.8653V25.558Z" fill="#61393F"/>
<path d="M11.9818 8.5581V24.1962L25.2529 21.7287C25.2529 13.1246 19.2801 7.20419 11.9818 8.5581Z" fill="#784343"/>
<path d="M36.6313 25.9103V58.4363L40.8394 51.3863V32.079C40.8394 24.8047 38.9469 22.0408 36.6313 25.9103Z" fill="#784343"/>
<path d="M12.9957 9.91993V25.558L26.2588 23.0825C26.2588 14.4864 20.286 8.56601 12.9957 9.91993Z" fill="#61393F"/>
<path d="M36.0725 44.7372L36.8311 41.749" stroke="#9EA5B8" stroke-width="5.16667" stroke-miterlimit="10" stroke-linecap="round"/>
<path d="M41.0873 31.6704L36.6317 39.129V58.4362L38.2606 58.8288L42.4688 51.7788V32.4715L41.0873 31.6704Z" fill="#8C5950"/>
<path d="M42.4688 32.4717L38.2606 39.5216V58.8289L42.4688 51.779V32.4717Z" fill="#9C685C"/>
<path d="M38.2603 26.3027L36.6313 25.9102V58.4361L38.2603 58.8287V26.3027Z" fill="#AD7556"/>
<path d="M40.4648 24.5886L38.8359 24.188L36.632 25.9104L38.261 26.303L40.4648 24.5886Z" fill="#784343"/>
<path d="M12.9956 9.92003L11.9815 8.55811V43.5035L12.9956 44.8654V9.92003Z" fill="#AD7556"/>
<path d="M38.2606 26.3029V58.8288L42.4688 51.7789V32.4556C42.4688 25.2454 40.5763 22.4254 38.2606 26.3029Z" fill="#8B574F"/>
<path d="M15.6307 9.73584V44.3768L16.8125 44.1605V9.87203C16.4212 9.80589 16.0267 9.76043 15.6307 9.73584Z" fill="#542C33"/>
<path d="M19.9185 10.9453V43.5754L21.0923 43.3591V11.6904C20.7187 11.4151 20.3265 11.1661 19.9185 10.9453Z" fill="#542C33"/>
<path d="M23.656 14.2939V42.8703L24.7979 42.662V16.2968C24.4839 15.5931 24.1014 14.9222 23.656 14.2939Z" fill="#542C33"/>
<path d="M39.1227 25.1412V57.3708L39.7935 56.2492V24.6445C39.5385 24.7625 39.3102 24.9315 39.1227 25.1412Z" fill="#784343"/>
<path d="M40.9196 24.8369V54.3666L41.5664 53.2851V25.8784C41.4247 25.4902 41.2045 25.1356 40.9196 24.8369Z" fill="#784343"/>
<path d="M16.796 36.0339C15.4642 35.7052 14.6663 34.2893 15.014 32.8715C15.3616 31.4537 16.723 30.5708 18.0549 30.8995C19.3867 31.2282 20.1845 32.644 19.8369 34.0618C19.4892 35.4797 18.1278 36.3626 16.796 36.0339Z" stroke="#9EA5B8" stroke-width="5.16667" stroke-miterlimit="10"/>
<path d="M17.1318 31.4782V30.0762" stroke="#9EA5B8" stroke-width="5.16667" stroke-miterlimit="10" stroke-linecap="round"/>
</svg>
