<svg width="24" height="24" viewBox="0 0 24 24" xmlns="http://www.w3.org/2000/svg">
<path d="M16.5888 2.60168C16.5888 2.60168 24.2794 7.86117 21.3239 15.234C18.3684 22.6068 12.6004 20.557 14.7932 18.3801C16.986 16.2032 12.235 14.7891 9.21594 11.9607L16.5888 2.60168Z" fill="#FFEAC0"/>
<path d="M16.1438 9.84735C14.539 11.8971 12.235 12.93 10.4394 12.5486L4.29014 20.4299C3.84523 21.0019 3.06663 21.0655 2.4946 20.6206C1.92257 20.1756 1.85902 19.3971 2.24037 18.825L8.38967 11.0073C7.56341 9.40244 8.00832 6.90776 9.67674 4.79444C11.7265 2.22031 14.7932 1.26693 16.5887 2.60166C18.3843 3.93639 18.13 7.22556 16.1438 9.84735Z" fill="#FFD56C"/>
<mask id="mask0" mask-type="alpha" maskUnits="userSpaceOnUse" x="2" y="2" width="16" height="19">
<path d="M16.1438 9.84735C14.539 11.8971 12.235 12.93 10.4394 12.5486L4.29014 20.4299C3.84523 21.0019 3.06663 21.0655 2.4946 20.6206C1.92257 20.1756 1.85902 19.3971 2.24037 18.825L8.38967 11.0073C7.56341 9.40244 8.00832 6.90776 9.67674 4.79444C11.7265 2.22031 14.7932 1.26693 16.5887 2.60166C18.3843 3.93639 18.13 7.22556 16.1438 9.84735Z" fill="#FFD56C"/>
</mask>
<g mask="url(#mask0)">
<path d="M13.0389 -1.26782L13.7794 -1.17028L10.6227 22.7909L9.88227 22.6933L13.0389 -1.26782Z" fill="white"/>
<path d="M14.2822 -1.51801L15.9048 -1.30424L12.7482 22.6569L11.1256 22.4432L14.2822 -1.51801Z" fill="white"/>
</g>
</svg>
