<svg width="62" height="65" viewBox="0 0 62 65" fill="none" xmlns="http://www.w3.org/2000/svg">
<path d="M49.1077 9H6.89231C5.01879 9 3.5 10.5053 3.5 12.3621V61.6379C3.5 63.4947 5.01879 65 6.89231 65H49.1077C50.9812 65 52.5 63.4947 52.5 61.6379V12.3621C52.5 10.5053 50.9812 9 49.1077 9Z" fill="#4F81FF"/>
<path d="M47.5 13.8066H8.52612V60.1936H47.5V13.8066Z" fill="white"/>
<path d="M43.4037 23.3447H33.1262V28.47H43.4037V23.3447Z" fill="#DAE1EA"/>
<path d="M43.4037 32.6343H33.1262V37.7596H43.4037V32.6343Z" fill="#DAE1EA"/>
<path d="M43.4039 41.9236H12.6218V47.0489H43.4039V41.9236Z" fill="#DAE1EA"/>
<path d="M43.4039 51.2129H12.6218V56.3382H43.4039V51.2129Z" fill="#DAE1EA"/>
<path d="M28.0003 23.3447H12.6218V37.7544H28.0003V23.3447Z" fill="#A8C3FF"/>
<path d="M12.25 16.0002H43.75L42.0515 11.8486C41.435 10.3436 40.3894 9.05692 39.047 8.15157C37.7047 7.24621 36.126 6.76293 34.511 6.76294H21.489C19.874 6.76293 18.2953 7.24621 16.953 8.15157C15.6106 9.05692 14.565 10.3436 13.9485 11.8486L12.25 16.0002Z" fill="#FFD836"/>
<path d="M28.0003 13.2756C31.5678 13.2756 34.4599 10.3597 34.4599 6.76279C34.4599 3.16588 31.5678 0.25 28.0003 0.25C24.4328 0.25 21.5408 3.16588 21.5408 6.76279C21.5408 10.3597 24.4328 13.2756 28.0003 13.2756Z" fill="#FFD836"/>
<path d="M61.2263 33.1233L56.6104 28.5054L38.4999 46.6235L43.1159 51.2415L61.2263 33.1233Z" fill="#315FDE"/>
<path d="M61.25 33.1453L56.634 28.5273L53.1768 31.986L57.7928 36.6039L61.25 33.1453Z" fill="#FF7ABC"/>
<path d="M38.501 46.6389V51.2555H43.1155L38.501 46.6389Z" fill="#FFB713"/>
</svg>
