<svg width="20" height="20" viewBox="0 0 20 20" fill="none" xmlns="http://www.w3.org/2000/svg">
<path d="M11.6713 1.80634C11.6713 0.808724 10.8625 0 9.86493 0C8.86732 0 8.05859 0.808724 8.05859 1.80634V3.64278C8.05859 4.64039 8.86732 5.44911 9.86493 5.44911C10.8625 5.44911 11.6713 4.64039 11.6713 3.64278V1.80634Z" fill="#58F287"/>
<path d="M11.6713 16.3571C11.6713 15.3595 10.8625 14.5508 9.86493 14.5508C8.86732 14.5508 8.05859 15.3595 8.05859 16.3571V18.1936C8.05859 19.1912 8.86732 19.9999 9.86493 19.9999C10.8625 19.9999 11.6713 19.1912 11.6713 18.1936V16.3571Z" fill="#58F287"/>
<path d="M18.1937 11.8412C19.1913 11.8412 20 11.0325 20 10.0349C20 9.03724 19.1913 8.22852 18.1937 8.22852H16.3572C15.3596 8.22852 14.5509 9.03724 14.5509 10.0349C14.5509 11.0325 15.3596 11.8412 16.3572 11.8412H18.1937Z" fill="#58F287"/>
<path d="M3.64288 11.7416C4.64049 11.7416 5.44922 10.9329 5.44922 9.93524C5.44922 8.93763 4.64049 8.12891 3.64288 8.12891H1.80644C0.808831 8.12891 0.000106812 8.93763 0.000106812 9.93524C0.000106812 10.9329 0.808831 11.7416 1.80644 11.7416H3.64288Z" fill="#58F287"/>
</svg>
