<svg width="255" height="255" viewBox="0 0 255 255" fill="none" xmlns="http://www.w3.org/2000/svg">
<circle cx="127.5" cy="127.5" r="96.5" fill="white"/>
<path fill-rule="evenodd" clip-rule="evenodd" d="M127.254 47C82.9419 47 47 82.7896 47 126.914C47 162.213 70.1407 192.119 101.651 202.905C105.59 203.396 107.067 200.944 107.067 198.983C107.067 197.022 107.067 192.119 107.067 185.256C84.9113 190.158 79.9878 174.47 79.9878 174.47C76.5413 165.155 71.1254 162.703 71.1254 162.703C63.7401 157.801 71.6177 157.801 71.6177 157.801C79.4954 158.291 83.9266 166.135 83.9266 166.135C91.3119 178.392 102.636 174.96 107.067 172.999C107.56 167.606 110.021 164.174 111.991 162.213C94.2661 160.252 75.5566 153.388 75.5566 122.501C75.5566 113.676 78.5107 106.813 83.9266 100.93C83.4343 99.4587 80.4801 91.1242 84.9113 80.3382C84.9113 80.3382 91.8043 78.3772 107.067 88.6728C113.468 86.7117 120.361 86.2215 127.254 86.2215C134.147 86.2215 141.04 87.202 147.44 88.6728C162.703 78.3772 169.596 80.3382 169.596 80.3382C174.028 91.1242 171.073 99.4587 170.581 101.42C175.505 106.813 178.951 114.167 178.951 122.992C178.951 153.878 160.242 160.252 142.517 162.213C145.471 164.664 147.933 169.567 147.933 176.921C147.933 187.707 147.933 196.042 147.933 198.983C147.933 200.944 149.41 203.396 153.349 202.905C185.352 192.119 208 162.213 208 126.914C207.508 82.7896 171.566 47 127.254 47Z" fill="#191717"/>
</svg>
