<svg width="262" height="226" viewBox="0 0 262 226" fill="none" xmlns="http://www.w3.org/2000/svg">
  <mask id="mask0" mask-type="alpha" maskUnits="userSpaceOnUse" x="4" y="7" width="254" height="199">
    <path fill-rule="evenodd" clip-rule="evenodd" d="M4 205.745V7.14499H257.6V205.745H4Z" fill="white" />
  </mask>
  <g mask="url(#mask0)">
    <path fill-rule="evenodd" clip-rule="evenodd"
      d="M16.8 54.745H54.6C67.7 54.745 78.4 44.145 78.4 30.945C78.4 17.745 89 7.14499 102.1 7.14499H179.3C222.5 7.14499 257.5 42.145 257.5 85.345C257.5 128.545 222.5 163.545 179.3 163.545H172.3C160.7 163.545 151.3 172.945 151.3 184.545C151.3 196.145 141.9 205.545 130.3 205.545H53.6C28.4 205.745 8 185.345 8 160.145C8 134.945 28.4 114.545 53.6 114.545H54.5C63.9 114.545 71.6 106.845 71.6 97.445C71.6 88.045 64 80.345 54.5 80.345H16.8C9.7 80.345 4 74.645 4 67.545C4 60.445 9.7 54.745 16.8 54.745Z"
      fill="#4F545C" fill-opacity="0.3" />
  </g>
  <path fill-rule="evenodd" clip-rule="evenodd"
    d="M109.3 181.8C109.2 182.3 108.7 182.7 108.1 182.6L98.1 180.8C96.5 180.5 95.4 178.9 95.7 177.3L98.1 164.1H90L85.6 188.7C85.3 190.3 86.4 191.9 88 192.2L168.7 206.8C169.5 206.9 170.3 206.8 170.9 206.3C171.6 205.8 172 205.2 172.1 204.4L186.7 123.2L178.1 126.1L166.5 190.2C166.2 191.6 165 192.7 163.6 192.7C163.4 192.7 163.2 192.7 163.1 192.7L154.1 191.1C153.6 191 153.2 190.5 153.3 189.9"
    fill="#36393F" />
  <path fill-rule="evenodd" clip-rule="evenodd"
    d="M98.5 178.8L102.6 179.5L104 175.2C105.4 170.9 107.8 167.1 110.8 164H100.1L97.7 177.6C97.6 178.2 97.9 178.7 98.5 178.8ZM159.1 132.3C161.9 137.2 162.9 142.9 161.9 148.5C160.8 154.8 157.2 160.3 152 164C151.8 164.1 151.7 164.2 151.5 164.3C156.8 169.8 159.9 177.3 159.6 185.4L159.4 189.9L163.5 190.6C164 190.7 164.6 190.3 164.7 189.8L176.1 126.8L159.1 132.3Z"
    fill="#4F545C" />
  <path fill-rule="evenodd" clip-rule="evenodd"
    d="M149 144.7C149.3 143.1 150.9 142 152.5 142.3C154.1 142.6 155.2 144.2 154.9 145.8C154.6 147.4 153 148.5 151.4 148.2C149.8 147.9 148.7 146.4 149 144.7ZM143.1 159.1C143.1 161.9 140.9 164.1 138.1 164.1H128.8C130.5 164.9 132.4 165.5 134.3 165.9C140.1 166.9 145.9 165.7 150.8 162.3C155.6 158.9 158.9 153.9 159.9 148.1C160.9 142.7 159.8 137.3 157.1 132.9L143.1 137.5V159.1Z"
    fill="#4F545C" />
  <path fill-rule="evenodd" clip-rule="evenodd"
    d="M171.8 111.3C171.6 110.8 171.9 110.2 172.4 110L180.8 107.2L178.9 103.4C175.5 96.5 169.5 91.7 162.5 89.6C159.5 94.2 155.1 97.6 149.9 99.3C147.6 100 145.3 100.4 143.1 100.5V120.5"
    fill="#36393E" />
  <path fill-rule="evenodd" clip-rule="evenodd"
    d="M154 68.2C155.6 67.7 157.3 68.5 157.8 70.1C158.3 71.7 157.5 73.4 155.9 73.9C154.3 74.4 152.6 73.6 152.1 72C151.5 70.4 152.4 68.7 154 68.2ZM143.1 63.1V80.5L147.4 79.1C147.9 78.9 148.5 79.2 148.7 79.7C148.9 80.2 148.6 80.8 148.1 81L143.2 82.6V98.6C145.3 98.5 147.3 98.2 149.4 97.5C155 95.7 159.5 91.8 162.2 86.5C164.8 81.3 165.3 75.3 163.4 69.7C160.4 60.5 151.7 54.6 142.5 54.6C141.6 54.6 140.7 54.7 139.7 54.8C139.8 55.4 139.8 56.1 139.6 56.8L139.2 58.3C141.4 58.7 143.1 60.7 143.1 63.1ZM42.4 118.9L46.4 119.9L48.1 115.7C48.9 113.7 49.9 111.8 51.1 110.1V80.3L41.7 117.7C41.6 118.2 41.9 118.8 42.4 118.9ZM61.2 44.2C60.9 44.1 60.7 44.2 60.4 44.3C60.2 44.4 60 44.7 59.9 44.9L56.6 58H116.2L61.2 44.2ZM48.4 120.4L51.1 121.1V114C50.7 114.8 50.3 115.6 49.9 116.5L48.4 120.4Z"
    fill="#36393F" />
  <path fill-rule="evenodd" clip-rule="evenodd"
    d="M81.3 148.1C81.3 148.7 80.9 149.1 80.3 149.1H64.1C62.4 149.1 61.1 147.8 61.1 146.1V71.1C61.1 69.4 62.4 68.1 64.1 68.1H130.1C131.8 68.1 133.1 69.4 133.1 71.1V146.1C133.1 147.8 131.8 149.1 130.1 149.1H114C113.4 149.1 113 148.7 113 148.1H81.3ZM56.1 162.1H138.1C139.8 162.1 141.1 160.8 141.1 159.1V63.1C141.1 61.4 139.8 60.1 138.1 60.1H56.1C54.4 60.1 53.1 61.4 53.1 63.1V159.1C53.1 160.8 54.5 162.1 56.1 162.1Z"
    fill="#36393F" />
  <path fill-rule="evenodd" clip-rule="evenodd"
    d="M83.7 101.6C85.4 101.6 86.7 102.9 86.7 104.6C86.7 106.3 85.4 107.6 83.7 107.6C82 107.6 80.7 106.3 80.7 104.6C80.7 103 82.1 101.6 83.7 101.6ZM92.3 110.3C92.6 109.9 93.2 109.8 93.7 110.1C95.7 111.6 98.5 111.6 100.5 110.1C100.9 109.8 101.6 109.9 101.9 110.3C102.2 110.7 102.1 111.4 101.7 111.7C100.3 112.7 98.7 113.2 97.1 113.2C95.5 113.2 93.9 112.7 92.5 111.7C92.1 111.4 92 110.8 92.3 110.3ZM113.7 104.6C113.7 106.3 112.4 107.6 110.7 107.6C109 107.6 107.7 106.3 107.7 104.6C107.7 102.9 109 101.6 110.7 101.6C112.4 101.6 113.7 103 113.7 104.6ZM119.1 106C119.1 93.9 109.2 84 97.1 84C85 84 75.1 93.9 75.1 106C75.1 118.1 85 128 97.1 128C109.2 128 119.1 118.1 119.1 106Z"
    fill="#36393F" />
  <path fill-rule="evenodd" clip-rule="evenodd"
    d="M143.1 100.6C145.4 100.5 147.7 100.2 149.9 99.4C154.7 97.8 158.8 94.8 161.7 90.8C162.2 90.1 163.2 89.8 164 90.1C170.3 92.4 175.8 97 178.9 103.4L179.2 104.1C180 105.7 179.2 107.7 177.4 108.3L172.3 110C171.8 110.2 171.5 110.7 171.7 111.3C171.9 111.8 172.4 112.1 173 111.9L187.2 107.2C188.8 106.7 189.6 105 189.1 103.4L165.6 32.2C165.3 31.4 164.8 30.8 164.1 30.5C163.4 30.1 162.6 30.1 161.8 30.3L118.3 44.7C116.5 45.3 114.6 45.4 112.7 44.9L104.4 42.8C103.4 42.6 103.4 41.2 104.3 40.9L167 20.2C167.3 20.1 167.6 20 167.9 20C169.2 20 170.3 20.8 170.8 22.1L200.9 113.3C201.2 114.1 201.1 114.9 200.7 115.6C200.3 116.3 199.7 116.8 199 117.1L145.8 134.7C144.5 135.1 143.2 134.2 143.2 132.8V100.6H143.1ZM172.1 204.3C172 205.1 171.5 205.8 170.9 206.2C170.3 206.6 169.4 206.8 168.7 206.7L88 192.2C86.4 191.9 85.3 190.3 85.6 188.7L89.4 167.4C89.7 165.5 91.4 164.1 93.3 164.1C95.8 164.1 97.7 166.4 97.2 168.8L95.7 177.3C95.4 178.9 96.5 180.5 98.1 180.8L108.1 182.6C108.6 182.7 109.2 182.3 109.3 181.8C109.4 181.3 109 180.7 108.5 180.6L107.5 180.4C105.9 180.1 105 178.5 105.5 177L105.9 175.8C107.4 171.1 110.2 167.1 113.7 164H124.8C127.5 165.8 130.6 167.1 134 167.7C135.4 168 136.9 168.1 138.3 168.1C142.3 168.1 146.2 167.1 149.7 165.2C154.8 170.3 157.9 177.5 157.6 185.1L157.5 186.3C157.4 187.9 156 189.1 154.4 188.8C153.9 188.7 153.3 189.1 153.2 189.6C153.1 190.1 153.5 190.7 154 190.8L163 192.4C163.2 192.4 163.4 192.4 163.5 192.4C164.9 192.4 166.2 191.4 166.5 189.9L178.1 125.8L186.7 122.9L172.1 204.3ZM110.8 164.1C107.8 167.2 105.4 170.9 104 175.3L102.6 179.6L98.5 178.9C98 178.8 97.6 178.3 97.7 177.7L99.7 166.6C100 165.2 101.2 164.1 102.7 164.1H110.8ZM56.1 162.1C54.4 162.1 53.1 160.8 53.1 159.1V63.1C53.1 61.4 54.4 60.1 56.1 60.1H138.1C139.8 60.1 141.1 61.4 141.1 63.1V159.1C141.1 160.8 139.8 162.1 138.1 162.1H56.1ZM100.2 58.1H59.3C58 58.1 57 56.9 57.4 55.6L60 45C60.1 44.7 60.2 44.5 60.5 44.4C60.7 44.3 61 44.2 61.3 44.3L100.7 54.2C103 54.7 102.5 58.1 100.2 58.1ZM163.8 87.4C166.7 81.7 167.2 75.2 165.2 69.1C161.5 57.9 150.2 51.2 138.9 52.9C138.2 51.8 137.2 51 135.9 50.7L119.2 46.5L162.5 32.2C162.8 32.1 163 32.1 163.3 32.3C163.5 32.4 163.7 32.6 163.8 32.9L187.3 104C187.5 104.5 187.2 105.1 186.7 105.3C184.5 106 182 105 181 102.9L180.8 102.6C177.3 95.4 170.9 90.2 163.6 87.9C163.7 87.7 163.8 87.6 163.8 87.4ZM159.9 148.1C158.9 153.9 155.6 158.9 150.8 162.3C146 165.6 140.1 166.9 134.3 165.9C132.3 165.5 130.5 164.9 128.8 164.1H138.1C140.9 164.1 143.1 161.9 143.1 159.1V139.7C143.1 138.4 143.9 137.3 145.2 136.9L157.1 133C159.8 137.3 160.9 142.7 159.9 148.1ZM151.5 164.2C151.7 164.1 151.8 164 152 163.9C157.3 160.2 160.8 154.8 161.9 148.4C162.9 142.8 161.9 137.1 159.1 132.2L176 126.6L164.6 189.6C164.5 190.1 164 190.5 163.4 190.4L159.3 189.7L159.5 185.2C159.9 177.3 156.8 169.7 151.5 164.2ZM148.7 79.7C148.5 79.2 148 78.9 147.4 79.1L144.4 80.1C143.8 80.3 143.1 79.8 143.1 79.2V63.2C143.1 60.8 141.4 58.8 139.1 58.3L139.5 56.8C139.7 56.2 139.7 55.5 139.6 54.8C140.5 54.7 141.4 54.6 142.4 54.6C152.5 54.6 161.8 61.6 164 72.3C164.8 76.2 164.5 80.2 163.2 83.9C160.9 90.4 155.8 95.3 149.3 97.5C147.2 98.2 145.2 98.5 143.1 98.6V83.3C143.1 82.9 143.4 82.5 143.8 82.4L148 81C148.6 80.8 148.8 80.2 148.7 79.7ZM51.1 63.1V72.1L39.7 117.2C39.3 118.8 40.3 120.4 41.9 120.8L49.6 122.7C50.5 122.9 51.1 123.7 51.1 124.6V133.9C51.1 135.2 49.9 136.2 48.6 135.8L31.1 131.4C30.5 131.2 29.9 130.9 29.5 130.5C28.8 129.7 28.6 128.7 28.8 127.8L52.2 34.7C52.6 33.1 54.2 32.1 55.8 32.5L135.3 52.5C136.3 52.7 137 53.4 137.4 54.4C137.6 55 137.6 55.7 137.5 56.3C137.2 57.3 136.3 58.1 135.3 58.1H124.8C124.6 58.1 124.4 58.1 124.2 58L61.7 42.3C60.7 42.1 59.7 42.3 59 43C58.5 43.4 58.2 44 58.1 44.6L54.6 58.4C52.6 59 51.1 60.9 51.1 63.1ZM51.1 110.2C49.9 111.9 48.9 113.8 48.1 115.8L46.4 120L42.4 119C41.9 118.9 41.5 118.3 41.7 117.8L49.2 88.2C49.5 87.1 51.2 87.3 51.2 88.4V110.2H51.1ZM51.1 121.1L48.4 120.4L50 116.5C50.3 115.6 50.7 114.8 51.2 114V121.1H51.1ZM202.7 112.6L172.6 21.4C171.7 18.8 168.9 17.4 166.3 18.2L103 39.2C99.4 40.4 95.5 40.5 91.8 39.6L56.3 30.7C53.6 30 50.9 31.7 50.2 34.3L26.8 127.2C26.5 128.3 26.5 129.5 27 130.6C27.6 132.1 28.9 133.1 30.4 133.5L51 138.7V159.2C51 162 53.2 164.2 56 164.2H85.4C86.6 164.2 87.6 165.3 87.4 166.6L83.5 188.5C83 191.2 84.8 193.8 87.5 194.3L168.2 208.9C168.5 209 168.8 209 169.1 209C170.1 209 171.1 208.7 171.9 208.1C173 207.3 173.7 206.2 174 204.9L188.8 122.7L199.2 119.3C200.3 118.9 201.3 118.3 202 117.3C203 115.7 203.2 114.1 202.7 112.6Z"
    fill="#1F2225" />
  <path fill-rule="evenodd" clip-rule="evenodd"
    d="M49.1 178.8H48.6C48 178.8 47.6 178.4 47.6 177.8V177.3C47.6 176.7 47.2 176.3 46.6 176.3C46 176.3 45.6 176.7 45.6 177.3V177.8C45.6 178.4 45.2 178.8 44.6 178.8H44C43.4 178.8 43 179.2 43 179.8C43 180.4 43.4 180.8 44 180.8H44.5C45.1 180.8 45.5 181.2 45.5 181.8V182.3C45.5 182.9 45.9 183.3 46.5 183.3C47.1 183.3 47.5 182.9 47.5 182.3V181.8C47.5 181.2 47.9 180.8 48.5 180.8H49C49.6 180.8 50 180.4 50 179.8C50 179.2 49.6 178.8 49.1 178.8ZM210 51.1C210.8 51.1 211.5 51.8 211.5 52.6C211.5 53.2 211.9 53.6 212.5 53.6C213.1 53.6 213.5 53.2 213.5 52.6C213.5 51.8 214.2 51.1 215 51.1C215.6 51.1 216 50.7 216 50.1C216 49.5 215.6 49.1 215 49.1C214.2 49.1 213.5 48.4 213.5 47.6C213.5 47 213.1 46.6 212.5 46.6C211.9 46.6 211.5 47 211.5 47.6C211.5 48.4 210.8 49.1 210 49.1C209.4 49.1 209 49.5 209 50.1C209 50.7 209.4 51.1 210 51.1ZM193.8 193.7H193.3C192.7 193.7 192.3 193.3 192.3 192.7V192.2C192.3 191.6 191.9 191.2 191.3 191.2C190.7 191.2 190.3 191.6 190.3 192.2V192.7C190.3 193.3 189.9 193.7 189.3 193.7H188.8C188.2 193.7 187.8 194.1 187.8 194.7C187.8 195.3 188.2 195.7 188.8 195.7H189.3C189.9 195.7 190.3 196.1 190.3 196.7V197.2C190.3 197.8 190.7 198.2 191.3 198.2C191.9 198.2 192.3 197.8 192.3 197.2V196.7C192.3 196.1 192.7 195.7 193.3 195.7H193.8C194.4 195.7 194.8 195.3 194.8 194.7C194.8 194.2 194.4 193.7 193.8 193.7ZM26 146.2L24.8 147.4C24.4 147.8 24.4 148.4 24.8 148.8C25 149 25.3 149.1 25.5 149.1C25.7 149.1 26 149 26.2 148.8L27.4 147.6C27.8 147.2 27.8 146.6 27.4 146.2C27 145.8 26.3 145.8 26 146.2ZM20 152.1L18.8 153.3C18.4 153.7 18.4 154.3 18.8 154.7C19 154.9 19.3 155 19.5 155C19.7 155 20 154.9 20.2 154.7L21.4 153.5C21.8 153.1 21.8 152.5 21.4 152.1C21.1 151.7 20.4 151.7 20 152.1ZM26.2 152.1C25.8 151.7 25.2 151.7 24.8 152.1C24.4 152.5 24.4 153.1 24.8 153.5L26 154.7C26.2 154.9 26.5 155 26.7 155C27 155 27.2 154.9 27.4 154.7C27.8 154.3 27.8 153.7 27.4 153.3L26.2 152.1ZM20.3 146.2C19.9 145.8 19.3 145.8 18.9 146.2C18.5 146.6 18.5 147.2 18.9 147.6L20.1 148.8C20.3 149 20.6 149.1 20.8 149.1C21.1 149.1 21.3 149 21.5 148.8C21.9 148.4 21.9 147.8 21.5 147.4L20.3 146.2ZM250.4 146.4C250.7 146.4 250.9 146.3 251.1 146.1L252.3 144.9C252.7 144.5 252.7 143.9 252.3 143.5C251.9 143.1 251.3 143.1 250.9 143.5L249.7 144.7C249.3 145.1 249.3 145.7 249.7 146.1C249.9 146.3 250.2 146.4 250.4 146.4ZM245 149.5L243.8 150.7C243.4 151.1 243.4 151.7 243.8 152.1C244 152.3 244.3 152.4 244.5 152.4C244.8 152.4 245 152.3 245.2 152.1L246.4 150.9C246.8 150.5 246.8 149.9 246.4 149.5C246 149.1 245.4 149.1 245 149.5ZM252.3 150.6L251.1 149.4C250.7 149 250.1 149 249.7 149.4C249.3 149.8 249.3 150.4 249.7 150.8L250.9 152C251.1 152.2 251.4 152.3 251.6 152.3C251.9 152.3 252.1 152.2 252.3 152C252.7 151.7 252.7 151 252.3 150.6ZM245.2 143.5C244.8 143.1 244.2 143.1 243.8 143.5C243.4 143.9 243.4 144.5 243.8 144.9L245 146.1C245.2 146.3 245.5 146.4 245.7 146.4C245.9 146.4 246.2 146.3 246.4 146.1C246.8 145.7 246.8 145.1 246.4 144.7L245.2 143.5ZM210 132.5C210.8 132.5 211.5 133.2 211.5 134C211.5 134.8 210.8 135.5 210 135.5C209.2 135.5 208.5 134.8 208.5 134C208.5 133.1 209.2 132.5 210 132.5ZM210 137.5C211.9 137.5 213.5 135.9 213.5 134C213.5 132.1 211.9 130.5 210 130.5C208.1 130.5 206.5 132.1 206.5 134C206.5 135.9 208.1 137.5 210 137.5ZM83.7 101.6C82 101.6 80.7 102.9 80.7 104.6C80.7 106.3 82 107.6 83.7 107.6C85.4 107.6 86.7 106.3 86.7 104.6C86.7 103 85.4 101.6 83.7 101.6ZM110.7 101.6C109 101.6 107.7 102.9 107.7 104.6C107.7 106.3 109 107.6 110.7 107.6C112.4 107.6 113.7 106.3 113.7 104.6C113.7 103 112.4 101.6 110.7 101.6ZM100.5 110.1C98.5 111.6 95.7 111.6 93.7 110.1C93.3 109.8 92.7 109.9 92.3 110.3C91.9 110.7 92.1 111.4 92.5 111.7C93.8 112.7 95.4 113.2 97.1 113.2C98.7 113.2 100.4 112.7 101.7 111.7C102.1 111.4 102.2 110.7 101.9 110.3C101.6 109.9 100.9 109.8 100.5 110.1Z"
    fill="#1F2225" />
  <path fill-rule="evenodd" clip-rule="evenodd"
    d="M131.1 146.1C131.1 146.7 130.7 147.1 130.1 147.1H128.6C127.1 147.1 125.8 146 125.6 144.5L125.3 142.6C124.3 135 120.2 128.4 114.5 124C114 123.6 114 122.9 114.4 122.5C119.1 117.6 121.7 110.6 120.9 103.1C119.6 92.2 110.8 83.4 99.8 82.1C85.3 80.5 73.1 91.8 73.1 105.9C73.1 112.3 75.6 118.1 79.7 122.4C80.1 122.8 80.1 123.5 79.6 123.9C73.9 128.3 69.9 134.9 68.8 142.5L68.5 144.4C68.3 145.9 67 147 65.5 147H64C63.4 147 63 146.6 63 146V71C63 70.4 63.4 70 64 70H130C130.6 70 131 70.4 131 71V146.1H131.1ZM97.1 128C85 128 75.1 118.1 75.1 106C75.1 93.9 85 84 97.1 84C109.2 84 119.1 93.9 119.1 106C119.1 118.1 109.3 128 97.1 128ZM130.1 68.1H64.1C62.4 68.1 61.1 69.4 61.1 71.1V148.1C61.1 149.8 62.4 151.1 64.1 151.1H81.1C82.2 151.1 83.1 150.2 83.1 149.1C83.1 148 82.2 147.1 81.1 147.1H72.5C71.3 147.1 70.4 146 70.5 144.8L70.8 142.9C71.8 135.9 75.5 129.7 80.8 125.6C81.5 125.1 82.5 125 83.2 125.5C87.1 128.3 91.9 129.9 97.1 129.9C102.3 129.9 107.1 128.3 111 125.5C111.7 125 112.7 125 113.4 125.6C118.7 129.7 122.4 135.8 123.4 142.9L123.7 144.8C123.9 146 122.9 147.1 121.7 147.1H113.5C112.4 147.1 111.5 148 111.5 149.1C111.5 150.2 112.4 151.1 113.5 151.1H130.1C131.8 151.1 133.1 149.8 133.1 148.1V71.1C133.1 69.5 131.8 68.1 130.1 68.1Z"
    fill="#1F2225" />
  <path fill-rule="evenodd" clip-rule="evenodd"
    d="M199.4 171.5C198.3 172.3 197.3 173 196.2 173.7C195.7 174 195.6 174.6 195.9 175.1C196.1 175.4 196.4 175.6 196.7 175.6C196.9 175.6 197.1 175.5 197.2 175.4C198.3 174.7 199.5 173.9 200.5 173.1C200.9 172.8 201 172.1 200.7 171.7C200.5 171.2 199.9 171.1 199.4 171.5ZM218.5 103.8C218.7 104.2 219 104.4 219.4 104.4C219.5 104.4 219.7 104.4 219.8 104.3C220.3 104.1 220.6 103.5 220.4 103C219.9 101.8 219.3 100.5 218.7 99.3C218.5 98.8 217.9 98.6 217.4 98.8C216.9 99 216.7 99.6 216.9 100.1C217.5 101.4 218 102.6 218.5 103.8ZM220.2 108.4C220.6 109.6 220.9 110.9 221.2 112.2C221.3 112.7 221.7 113 222.2 113C222.3 113 222.4 113 222.4 113C222.9 112.9 223.3 112.3 223.1 111.8C222.8 110.5 222.4 109.2 222 107.9C221.8 107.4 221.3 107.1 220.7 107.2C220.3 107.3 220 107.9 220.2 108.4ZM217.8 151C217.3 150.8 216.7 150.9 216.5 151.4C215.9 152.6 215.3 153.7 214.6 154.8C214.3 155.3 214.5 155.9 214.9 156.2C215.1 156.3 215.2 156.3 215.4 156.3C215.7 156.3 216.1 156.1 216.3 155.8C217 154.6 217.7 153.4 218.3 152.2C218.5 151.8 218.3 151.2 217.8 151ZM222.1 117C222.3 118.3 222.4 119.6 222.5 120.9C222.5 121.4 223 121.8 223.5 121.8H223.6C224.2 121.8 224.6 121.3 224.5 120.7C224.4 119.4 224.2 118 224.1 116.7C224 116.2 223.5 115.8 223 115.9C222.4 116 222 116.5 222.1 117ZM223.1 133.8C222.6 133.7 222 134.1 222 134.6C221.8 135.9 221.5 137.2 221.2 138.5C221.1 139 221.4 139.6 221.9 139.7C222 139.7 222.1 139.7 222.1 139.7C222.6 139.7 223 139.4 223.1 138.9C223.4 137.6 223.7 136.2 223.9 134.9C224 134.4 223.6 133.9 223.1 133.8ZM221.1 142.6C220.6 142.4 220 142.7 219.8 143.2C219.4 144.4 218.9 145.7 218.4 146.9C218.2 147.4 218.4 148 219 148.2C219.1 148.3 219.3 148.3 219.4 148.3C219.8 148.3 220.2 148.1 220.3 147.7C220.8 146.4 221.3 145.2 221.7 143.9C221.9 143.3 221.6 142.8 221.1 142.6ZM211.8 158.9C211 160 210.2 161 209.4 162C209 162.4 209.1 163.1 209.5 163.4C209.7 163.6 209.9 163.6 210.1 163.6C210.4 163.6 210.7 163.5 210.9 163.2C211.8 162.2 212.6 161.1 213.4 160C213.7 159.6 213.6 158.9 213.2 158.6C212.8 158.4 212.2 158.5 211.8 158.9ZM212.7 91.2C212.2 91.5 212.1 92.1 212.5 92.6C213.2 93.7 214 94.8 214.6 95.9C214.8 96.2 215.1 96.4 215.5 96.4C215.7 96.4 215.9 96.4 216 96.3C216.5 96 216.6 95.4 216.3 94.9C215.6 93.7 214.9 92.6 214.1 91.5C213.7 91 213.1 90.9 212.7 91.2ZM188.8 179.8C188.9 179.8 189.1 179.8 189.2 179.7C190.4 179.2 191.7 178.6 192.9 177.9C193.4 177.6 193.6 177 193.3 176.6C193 176.1 192.4 175.9 192 176.2C190.8 176.8 189.6 177.4 188.5 177.9C188 178.1 187.8 178.7 188 179.2C188.1 179.5 188.4 179.8 188.8 179.8ZM223.7 124.9C223.1 124.9 222.7 125.3 222.7 125.9C222.7 127.2 222.6 128.5 222.5 129.8C222.5 130.4 222.9 130.8 223.4 130.9H223.5C224 130.9 224.5 130.5 224.5 130C224.6 128.7 224.7 127.3 224.7 125.9C224.7 125.3 224.3 124.9 223.7 124.9ZM206.1 165.7C205.2 166.6 204.2 167.5 203.2 168.4C202.8 168.8 202.7 169.4 203.1 169.8C203.3 170 203.6 170.1 203.9 170.1C204.1 170.1 204.4 170 204.6 169.9C205.6 169 206.6 168.1 207.6 167.1C208 166.7 208 166.1 207.6 165.7C207.1 165.3 206.5 165.3 206.1 165.7ZM209.4 88.7C209.6 88.9 209.9 89.1 210.2 89.1C210.4 89.1 210.7 89 210.8 88.9C211.2 88.5 211.3 87.9 210.9 87.5C210 86.5 209.1 85.4 208.2 84.5C207.8 84.1 207.2 84.1 206.8 84.5C206.4 84.9 206.4 85.5 206.8 85.9C207.7 86.7 208.6 87.7 209.4 88.7ZM203.3 82.4C203.5 82.6 203.7 82.6 204 82.6C204.3 82.6 204.6 82.5 204.8 82.3C205.2 81.9 205.1 81.3 204.7 80.9C203.7 80 202.6 79.1 201.6 78.3C201.2 78 200.5 78 200.2 78.5C199.9 78.9 199.9 79.6 200.4 79.9C201.3 80.7 202.3 81.5 203.3 82.4ZM95.6 218.3C94.3 218.2 93 218.1 91.7 217.8C91.2 217.7 90.6 218.1 90.5 218.6C90.4 219.1 90.8 219.7 91.3 219.8C92.6 220 94 220.2 95.4 220.3C95.4 220.3 95.4 220.3 95.5 220.3C96 220.3 96.5 219.9 96.5 219.4C96.5 218.9 96.1 218.4 95.6 218.3ZM87 216.7C85.8 216.3 84.5 215.8 83.4 215.3C82.9 215.1 82.3 215.3 82.1 215.8C81.9 216.3 82.1 216.9 82.6 217.1C83.8 217.7 85.1 218.2 86.4 218.6C86.5 218.6 86.6 218.6 86.7 218.6C87.1 218.6 87.5 218.3 87.7 217.9C87.8 217.4 87.5 216.9 87 216.7ZM104.3 217.9C103 218.1 101.7 218.3 100.4 218.4C99.8 218.4 99.4 218.9 99.5 219.5C99.5 220 100 220.4 100.5 220.4C100.5 220.4 100.5 220.4 100.6 220.4C102 220.3 103.3 220.1 104.7 219.9C105.2 219.8 105.6 219.3 105.5 218.7C105.4 218.1 104.8 217.8 104.3 217.9ZM120.1 210.7C119.1 211.5 118 212.3 116.9 213C116.4 213.3 116.3 213.9 116.6 214.4C116.8 214.7 117.1 214.9 117.4 214.9C117.6 214.9 117.8 214.8 117.9 214.7C119.1 214 120.2 213.2 121.2 212.3C121.6 212 121.7 211.3 121.4 210.9C121.1 210.5 120.5 210.4 120.1 210.7ZM112.6 215.3C111.4 215.8 110.2 216.3 109 216.7C108.5 216.9 108.2 217.4 108.4 218C108.5 218.4 108.9 218.7 109.4 218.7C109.5 218.7 109.6 218.7 109.7 218.7C111 218.3 112.3 217.8 113.5 217.2C114 217 114.2 216.4 114 215.9C113.8 215.4 113.1 215.1 112.6 215.3ZM79.1 213C78 212.3 76.9 211.6 75.9 210.7C75.5 210.4 74.8 210.4 74.5 210.9C74.2 211.3 74.2 212 74.7 212.3C75.8 213.2 76.9 214 78 214.7C78.2 214.8 78.4 214.9 78.5 214.9C78.8 214.9 79.2 214.7 79.3 214.4C79.7 213.9 79.6 213.3 79.1 213ZM69.8 204.5C69.5 204.1 68.8 204 68.4 204.3C68 204.6 67.9 205.3 68.2 205.7C69 206.8 69.9 207.8 70.9 208.8C71.1 209 71.4 209.1 71.6 209.1C71.8 209.1 72.1 209 72.3 208.8C72.7 208.4 72.7 207.8 72.3 207.4C71.5 206.5 70.6 205.5 69.8 204.5ZM63.8 192.4C63.5 191.2 63.2 189.9 63 188.6C62.9 188.1 62.4 187.7 61.9 187.8C61.4 187.9 61 188.4 61.1 188.9C61.3 190.2 61.6 191.6 62 192.9C62.1 193.3 62.5 193.6 63 193.6C63.1 193.6 63.2 193.6 63.3 193.6C63.6 193.5 63.9 192.9 63.8 192.4ZM62.2 175.8C62.3 175.8 62.3 175.8 62.4 175.8C62.9 175.8 63.3 175.5 63.4 175C63.7 173.8 64 172.6 64.4 171.4C64.6 170.9 64.3 170.3 63.8 170.1C63.3 169.9 62.7 170.2 62.5 170.7C62.1 171.9 61.7 173.2 61.4 174.5C61.3 175.2 61.7 175.7 62.2 175.8ZM61.6 184.8C62.2 184.8 62.6 184.3 62.6 183.8C62.6 183.5 62.6 183.3 62.6 183C62.6 182 62.6 180.9 62.7 179.9C62.7 179.3 62.3 178.9 61.8 178.8C61.2 178.7 60.8 179.2 60.7 179.7C60.6 180.8 60.6 181.9 60.6 183C60.6 183.3 60.6 183.6 60.6 183.8C60.6 184.3 61 184.8 61.6 184.8ZM126.2 204.5C125.4 205.5 124.6 206.5 123.7 207.5C123.3 207.9 123.3 208.5 123.7 208.9C123.9 209.1 124.1 209.2 124.4 209.2C124.7 209.2 124.9 209.1 125.1 208.9C126 207.9 126.9 206.9 127.8 205.8C128.1 205.4 128.1 204.7 127.6 204.4C127.2 204 126.5 204.1 126.2 204.5ZM65.4 197C65.2 196.5 64.6 196.3 64.1 196.5C63.6 196.7 63.4 197.3 63.6 197.8C64.1 199.1 64.8 200.3 65.4 201.5C65.6 201.8 65.9 202 66.3 202C66.5 202 66.6 202 66.8 201.9C67.3 201.6 67.4 201 67.2 200.5C66.5 199.3 65.9 198.2 65.4 197Z"
    fill="#1F2225" />
  <path fill-rule="evenodd" clip-rule="evenodd"
    d="M154 68.2C155.6 67.7 157.3 68.5 157.8 70.1C158.3 71.7 157.5 73.4 155.9 73.9C154.3 74.4 152.6 73.6 152.1 72C151.5 70.4 152.4 68.7 154 68.2Z"
    fill="#1F2225" />
  <path fill-rule="evenodd" clip-rule="evenodd"
    d="M151 142.4C152.6 141.9 154.3 142.7 154.8 144.3C155.3 145.9 154.5 147.6 152.9 148.1C151.3 148.6 149.6 147.8 149.1 146.2C148.5 144.6 149.4 142.9 151 142.4Z"
    fill="#1F2225" />
</svg>
