<svg width="88" height="80" viewBox="0 0 88 80" fill="none" xmlns="http://www.w3.org/2000/svg">
<rect x="16" y="12" width="56" height="56" rx="8" fill="#202225"/>
<path d="M61.4515 33.8499L56.236 30.5697L54.3413 29.3734L50.5618 27.0404L48.677 25.8041L44.4488 23.1422L44.2294 23.0524C44.0292 22.9825 43.8112 22.9825 43.6111 23.0524L43.5014 23.1023L39.2233 25.8041L37.3385 27.0404L33.559 29.3734L31.6643 30.5697L26.4488 33.8499C26.312 33.9334 26.1989 34.0505 26.1204 34.1902C26.0418 34.3298 26.0004 34.4872 26 34.6474V56.0628C26.0153 56.3167 26.127 56.5552 26.3124 56.7294C26.4978 56.9037 26.7428 57.0005 26.9972 57H61.0028C61.2572 57.0005 61.5022 56.9037 61.6876 56.7294C61.873 56.5552 61.9847 56.3167 62 56.0628V34.6474C61.9898 34.4772 61.9334 34.3129 61.8367 34.1724C61.7401 34.0318 61.6069 33.9203 61.4515 33.8499ZM27.8848 55.1157V35.1758L31.6643 32.793V55.1157H27.8848ZM33.559 55.1157V31.6066L37.3385 29.2238V55.1456L33.559 55.1157ZM39.2233 28.0374L43.0028 25.6546V55.1157H39.2233V28.0374ZM44.9474 55.1157V25.6546L48.677 28.0374V55.1157H44.9474ZM50.6116 55.1157V29.1939L54.3911 31.5767V55.1157H50.6116ZM60.0654 55.1157H56.236V32.793L60.0155 35.1758L60.0654 55.1157Z" fill="white"/>
<path d="M83.0026 1.0838C83.0026 0.485233 82.5173 0 81.9188 0C81.3202 0 80.835 0.485233 80.835 1.0838V2.18566C80.835 2.78422 81.3202 3.26946 81.9188 3.26946C82.5173 3.26946 83.0026 2.78422 83.0026 2.18566V1.0838Z" fill="#5AE6DC"/>
<path d="M83.0026 9.81427C83.0026 9.2157 82.5173 8.73047 81.9188 8.73047C81.3202 8.73047 80.835 9.2157 80.835 9.81427V10.9161C80.835 11.5147 81.3202 11.9999 81.9188 11.9999C82.5173 11.9999 83.0026 11.5147 83.0026 10.9161V9.81427Z" fill="#5AE6DC"/>
<path d="M86.9162 7.10534C87.5148 7.10534 88 6.62011 88 6.02154C88 5.42298 87.5148 4.93774 86.9162 4.93774H85.8143C85.2158 4.93774 84.7305 5.42298 84.7305 6.02154C84.7305 6.62011 85.2158 7.10534 85.8143 7.10534H86.9162Z" fill="#5AE6DC"/>
<path d="M78.1857 7.04528C78.7843 7.04528 79.2695 6.56005 79.2695 5.96148C79.2695 5.36292 78.7843 4.87769 78.1857 4.87769H77.0839C76.4853 4.87769 76.0001 5.36292 76.0001 5.96148C76.0001 6.56005 76.4853 7.04528 77.0839 7.04528H78.1857Z" fill="#5AE6DC"/>
<path d="M8.36261 75.843L11.486 74.8013C11.6394 74.731 11.7694 74.6181 11.8605 74.4761C11.9516 74.334 12 74.1688 12 74C12 73.8312 11.9516 73.666 11.8605 73.5239C11.7694 73.3819 11.6394 73.269 11.486 73.1987L8.36261 72.157C8.14925 72.0606 7.97838 71.8897 7.88207 71.6762L6.76084 68.5511C6.70818 68.3908 6.60626 68.2512 6.46964 68.1522C6.33302 68.0533 6.16866 68 5.99999 68C5.83133 68 5.66698 68.0533 5.53036 68.1522C5.39374 68.2512 5.29182 68.3908 5.23916 68.5511L4.11793 71.6762C4.02162 71.8897 3.85075 72.0606 3.63739 72.157L0.513957 73.1987C0.360602 73.269 0.230643 73.3819 0.139534 73.5239C0.0484247 73.666 0 73.8312 0 74C0 74.1688 0.0484247 74.334 0.139534 74.4761C0.230643 74.6181 0.360602 74.731 0.513957 74.8013L3.63739 75.843C3.75083 75.8774 3.85403 75.9393 3.93785 76.0232C4.02167 76.107 4.08352 76.2103 4.11793 76.3238L5.23916 79.4489C5.29182 79.6092 5.39374 79.7488 5.53036 79.8478C5.66698 79.9467 5.83133 80 5.99999 80C6.16866 80 6.33302 79.9467 6.46964 79.8478C6.60626 79.7488 6.70818 79.6092 6.76084 79.4489L7.88207 76.3238C7.91648 76.2103 7.97834 76.107 8.06215 76.0232C8.14597 75.9393 8.24917 75.8774 8.36261 75.843Z" fill="#FFD01A"/>
</svg>
