<svg width="440" height="310" viewBox="0 0 440 310" fill="none" xmlns="http://www.w3.org/2000/svg">
<g filter="url(#filter0_d)">
<path d="M14.8756 52.9014L12.4022 47.2513C12.3926 47.2292 12.377 47.2103 12.3571 47.1971C12.3371 47.1838 12.3138 47.1768 12.29 47.1768C12.2662 47.1768 12.2429 47.1838 12.223 47.1971C12.2031 47.2103 12.1874 47.2292 12.1779 47.2513L9.69774 52.9014C9.69227 52.9154 9.68402 52.9282 9.6735 52.9388C9.66298 52.9495 9.65042 52.9579 9.63658 52.9635L4.07145 55.4539C4.04998 55.4648 4.03193 55.4815 4.01931 55.5022C4.00669 55.5229 4 55.5468 4 55.5712C4 55.5955 4.00669 55.6194 4.01931 55.6401C4.03193 55.6608 4.04998 55.6776 4.07145 55.6885L9.63658 58.2134C9.65136 58.2193 9.66459 58.2286 9.6752 58.2405C9.68582 58.2525 9.69354 58.2668 9.69774 58.2824L12.1779 63.9255C12.1874 63.9477 12.2031 63.9665 12.223 63.9798C12.2429 63.993 12.2662 64.0001 12.29 64.0001C12.3138 64.0001 12.3371 63.993 12.3571 63.9798C12.377 63.9665 12.3926 63.9477 12.4022 63.9255L14.8756 58.2824C14.8886 58.2514 14.913 58.2267 14.9435 58.2134L20.5086 55.7023C20.5301 55.6914 20.5482 55.6746 20.5608 55.6539C20.5734 55.6332 20.5801 55.6093 20.5801 55.585C20.5801 55.5606 20.5734 55.5367 20.5608 55.516C20.5482 55.4953 20.5301 55.4786 20.5086 55.4677L14.9435 52.9566C14.916 52.9454 14.8923 52.9262 14.8756 52.9014Z" fill="#FFE25F"/>
<path d="M65.2131 40.1734L64.4045 41.2703L64.0919 41.1048L64.622 39.8423L65.2131 40.1734Z" fill="#5982F7"/>
<path d="M60.015 32.688L59.2335 41.3666L63.2086 41.7322C63.4027 41.7501 63.5984 41.7284 63.7842 41.6684C63.9699 41.6083 64.1419 41.5112 64.2901 41.3826C64.4383 41.254 64.5596 41.0966 64.6469 40.9197C64.7343 40.7428 64.7859 40.5499 64.7987 40.3525L65.3151 34.6679C65.3318 34.471 65.3098 34.2727 65.2502 34.0846C65.1907 33.8964 65.095 33.7221 64.9685 33.5719C64.842 33.4217 64.6874 33.2985 64.5136 33.2095C64.3398 33.1205 64.1503 33.0675 63.9561 33.0536L60.015 32.688Z" fill="#5982F7"/>
<path d="M59.913 40.4146L60.8304 41.539L60.8915 41.5459L60.9867 40.518L59.913 40.4146Z" fill="#335FCC"/>
<path d="M60.6945 31.7705L59.913 40.4146L63.8881 40.7872C64.0823 40.8051 64.2779 40.7834 64.4637 40.7233C64.6494 40.6633 64.8214 40.5661 64.9696 40.4375C65.1178 40.3089 65.2391 40.1516 65.3264 39.9747C65.4138 39.7977 65.4654 39.6049 65.4782 39.4074L65.9946 33.7228C66.0113 33.526 65.9893 33.3276 65.9298 33.1395C65.8703 32.9513 65.7745 32.777 65.648 32.6268C65.5215 32.4766 65.3669 32.3534 65.1931 32.2644C65.0193 32.1754 64.8298 32.1225 64.6356 32.1085L60.6945 31.7705Z" fill="#7196FF"/>
<path d="M60.57 33.1221L63.5744 33.4018C63.8553 33.4316 64.1133 33.5726 64.2925 33.7941C64.4717 34.0157 64.5578 34.3 64.532 34.5855L64.1925 38.3434C64.1665 38.6313 64.0289 38.8969 63.81 39.0817C63.5911 39.2666 63.3089 39.3557 63.0253 39.3293L60.0345 39.0508L60.57 33.1221Z" fill="#BACFFF"/>
<path d="M39.9764 24.2509C39.6317 24.1347 39.2936 23.9988 38.964 23.8439C38.4698 23.6218 37.9888 23.3708 37.5234 23.092C35.7567 22.0365 35.1927 19.7116 37.605 18.9182C37.605 18.9182 39.8337 17.2487 42.8303 20.4015C43.0609 20.6977 43.3706 20.9204 43.7225 21.0427C44.0743 21.165 44.4534 21.1819 44.8145 21.0913L41.6888 24.044L39.9764 24.2509Z" fill="#57A779"/>
<path d="M42.6876 23.0919C42.6876 23.0919 39.1542 22.9746 36.3207 16" stroke="#40835E" stroke-miterlimit="10" stroke-linecap="round"/>
<path d="M38.9639 23.8437C38.8416 23.7885 40.7238 24.6716 43.1972 21.6706C43.537 21.2567 44.0806 20.5737 44.2709 20.3461C45.2493 19.1802 47.5393 16.6483 50.101 17.8763C50.101 17.8763 52.3366 19.1181 50.7805 21.5395C50.3757 22.1485 49.8417 22.6577 49.2176 23.0297C47.7047 24.0072 45.9786 24.5926 44.1907 24.7345C42.4029 24.8764 40.6081 24.5706 38.9639 23.8437Z" fill="#66C08B"/>
<path d="M42.2256 24.7477C44.909 24.152 47.2739 22.5539 48.8507 20.2704C49.3435 19.5253 49.7386 18.7182 50.0263 17.8696H50.101C50.2815 17.977 50.4481 18.1068 50.5971 18.256C50.3046 19.083 49.9096 19.8689 49.4215 20.5946C48.1785 22.4534 46.4186 23.8943 44.366 24.7339C43.655 24.8142 42.9376 24.8188 42.2256 24.7477Z" fill="#57A779"/>
<path d="M27.4055 45.9112L50.7072 47.8728C54.3574 48.1801 57.5619 45.425 57.8645 41.7191L58.7169 31.2826C59.0196 27.5767 56.3058 24.3234 52.6556 24.0161L29.3539 22.0545C25.7037 21.7472 22.4993 24.5023 22.1966 28.2082L21.3442 38.6447C21.0416 42.3506 23.7553 45.6039 27.4055 45.9112Z" fill="#5982F7"/>
<path d="M33.0224 46.3888L54.4957 48.1965C58.1459 48.5038 61.3504 45.7487 61.653 42.0428L62.5054 31.6063C62.808 27.9004 60.0943 24.6471 56.4441 24.3398L34.9708 22.5321C31.3206 22.2248 28.1161 24.98 27.8135 28.6859L26.9611 39.1223C26.6585 42.8282 29.3722 46.0816 33.0224 46.3888Z" fill="#7196FF"/>
<path d="M39.0918 29.0996L52.5267 30.2353C52.8072 30.2572 53.0807 30.3352 53.3314 30.4648C53.5821 30.5945 53.8051 30.7731 53.9875 30.9906C54.1699 31.208 54.3082 31.46 54.3943 31.7319C54.4805 32.0038 54.5128 32.2903 54.4895 32.575L54.0581 37.8343C54.0008 38.5331 53.8085 39.2136 53.4921 39.8369C53.1758 40.4602 52.7416 41.0142 52.2144 41.4672C51.6872 41.9201 51.0772 42.2633 50.4194 42.4769C49.7616 42.6906 49.0687 42.7706 48.3805 42.7124L41.6089 42.1399C40.1039 42.0127 38.7103 41.2837 37.7347 40.1133C36.7591 38.9429 36.2815 37.427 36.4068 35.899L36.8015 31.0865C36.8465 30.515 37.1129 29.985 37.5422 29.6125C37.9716 29.2401 38.5288 29.0556 39.0918 29.0996Z" fill="#BACFFF"/>
<path d="M32.9911 35.4266C33.8167 35.4266 34.486 34.747 34.486 33.9088C34.486 33.0706 33.8167 32.3911 32.9911 32.3911C32.1655 32.3911 31.4962 33.0706 31.4962 33.9088C31.4962 34.747 32.1655 35.4266 32.9911 35.4266Z" fill="#1C1C1E"/>
<path d="M32.9911 35.4266C33.8167 35.4266 34.486 34.747 34.486 33.9088C34.486 33.0706 33.8167 32.3911 32.9911 32.3911C32.1655 32.3911 31.4962 33.0706 31.4962 33.9088C31.4962 34.747 32.1655 35.4266 32.9911 35.4266Z" fill="#202225"/>
<path d="M57.7386 37.5101C58.5642 37.5101 59.2335 36.8305 59.2335 35.9923C59.2335 35.1541 58.5642 34.4746 57.7386 34.4746C56.913 34.4746 56.2437 35.1541 56.2437 35.9923C56.2437 36.8305 56.913 37.5101 57.7386 37.5101Z" fill="#1C1C1E"/>
<path d="M57.7386 37.5101C58.5642 37.5101 59.2335 36.8305 59.2335 35.9923C59.2335 35.1541 58.5642 34.4746 57.7386 34.4746C56.913 34.4746 56.2437 35.1541 56.2437 35.9923C56.2437 36.8305 56.913 37.5101 57.7386 37.5101Z" fill="#202225"/>
<path d="M50.3718 37.7879L48.5232 37.6316C48.0145 37.5886 47.5679 37.9723 47.5255 38.4887L47.525 38.4956C47.4826 39.012 47.8606 39.4654 48.3692 39.5084L50.2179 39.6647C50.7265 39.7077 51.1731 39.324 51.2155 38.8076L51.2161 38.8007C51.2584 38.2843 50.8804 37.8309 50.3718 37.7879Z" fill="#98B7F7"/>
<path d="M44.8077 39.1176L41.8858 38.8968C41.7646 38.8873 41.6464 38.8534 41.5382 38.797C41.43 38.7407 41.3339 38.6631 41.2555 38.5688C41.1771 38.4744 41.118 38.3652 41.0815 38.2474C41.0451 38.1296 41.0321 38.0056 41.0432 37.8827C41.064 37.6343 41.1807 37.4042 41.3678 37.2427C41.5549 37.0812 41.7972 37.0013 42.0421 37.0204L44.6242 37.2411C44.8603 37.2621 45.0796 37.3737 45.2374 37.5532C45.3952 37.7326 45.4797 37.9664 45.4736 38.2069C45.426 38.745 45.3445 39.1659 44.8077 39.1176Z" fill="#98B7F7"/>
<path d="M43.6457 43.9808L40.5064 43.3599C40.4508 43.3494 40.3936 43.3518 40.3391 43.367C40.2845 43.3822 40.2341 43.4098 40.1915 43.4477C40.149 43.4855 40.1155 43.5327 40.0935 43.5856C40.0716 43.6385 40.0617 43.6958 40.0648 43.7532C40.1123 44.926 40.554 47.6854 43.8224 44.6362C43.8743 44.5892 43.9122 44.5284 43.9319 44.4607C43.9517 44.393 43.9524 44.3211 43.934 44.253C43.9157 44.1849 43.879 44.1233 43.828 44.0752C43.7771 44.0272 43.714 43.9945 43.6457 43.9808Z" fill="#202225"/>
<path d="M43.0614 45.285C40.9685 46.8648 40.3434 45.5817 40.1327 44.4641C40.6468 44.2984 41.1971 44.2878 41.717 44.4336C42.2368 44.5793 42.7039 44.8751 43.0614 45.285Z" fill="#EDA0C5"/>
<path d="M24.742 29.9286L23.879 38.5589L19.9039 38.1518C19.7129 38.132 19.5276 38.0742 19.3586 37.9816C19.1897 37.889 19.0403 37.7636 18.9192 37.6124C18.798 37.4611 18.7074 37.2872 18.6525 37.1004C18.5976 36.9136 18.5795 36.7176 18.5992 36.5237L19.1632 30.8461C19.1819 30.6516 19.2383 30.4627 19.3291 30.2904C19.4199 30.118 19.5434 29.9656 19.6924 29.8419C19.8414 29.7182 20.0131 29.6256 20.1975 29.5694C20.3819 29.5132 20.5754 29.4946 20.7669 29.5146L24.742 29.9286Z" fill="#5982F7"/>
<path d="M24.9934 37.6411L23.879 38.5656L23.811 38.5587L23.9197 37.5308L24.9934 37.6411Z" fill="#5982F7"/>
<path d="M20.7736 28.942L19.7612 29.7906V30.308L20.8008 30.4183L20.8824 28.9972C20.8824 28.9844 20.8788 28.9718 20.8722 28.9609C20.8656 28.95 20.8561 28.9412 20.8448 28.9355C20.8335 28.9298 20.8209 28.9274 20.8083 28.9285C20.7957 28.9297 20.7837 28.9343 20.7736 28.942Z" fill="#5982F7"/>
<path d="M25.8563 29.0037L24.9933 37.6409L21.0182 37.2339C20.6314 37.1921 20.2765 36.9968 20.0309 36.6906C19.7853 36.3843 19.6688 35.9919 19.7068 35.5989L20.2776 29.9281C20.2971 29.7342 20.3541 29.5461 20.4453 29.3746C20.5365 29.203 20.66 29.0514 20.809 28.9284C20.9579 28.8054 21.1293 28.7134 21.3133 28.6576C21.4972 28.6019 21.6902 28.5835 21.8812 28.6036L25.8563 29.0037Z" fill="#7196FF"/>
<path d="M25.1267 36.2827L22.1251 35.9732C21.9849 35.9587 21.8488 35.9163 21.7247 35.8485C21.6005 35.7806 21.4908 35.6886 21.4016 35.5777C21.3125 35.4667 21.2458 35.3391 21.2053 35.202C21.1648 35.0649 21.1513 34.921 21.1655 34.7786L21.5411 31.0243C21.5699 30.7367 21.71 30.4725 21.9307 30.2898C22.1514 30.1071 22.4345 30.0208 22.7178 30.05L25.7193 30.3596L25.1267 36.2827Z" fill="#BACFFF"/>
</g>
<g filter="url(#filter1_d)">
<path d="M421.392 54.6726C420.934 58.1221 416.025 69.6229 416.025 69.6229C416.025 69.6229 414.313 57.2333 414.771 53.8064C415.229 50.3795 417.083 47.7811 418.915 48.0146C420.746 48.2481 421.85 51.2306 421.392 54.6726Z" fill="#9DABC7"/>
<path d="M417.038 83.6752C423.032 78.2072 424.2 69.7028 419.649 64.6802C415.097 59.6576 406.548 60.0188 400.555 65.4869C394.561 70.9549 393.393 79.4593 397.944 84.4819C402.496 89.5045 411.045 89.1433 417.038 83.6752Z" fill="#C6D5F2"/>
<path d="M432.674 60.2236C429.581 62.2647 415.8 64.6824 415.8 64.6824C415.8 64.6824 423.464 52.9405 426.556 50.8994C429.649 48.8584 433.53 49.2877 435.219 51.8635C436.908 54.4393 435.767 58.175 432.674 60.2236Z" fill="#C6D5F2"/>
<path d="M428.801 68.998C425.941 68.8398 416.22 64.479 416.22 64.479C416.22 64.479 426.346 61.1952 429.206 61.3458C432.066 61.4965 434.296 63.3267 434.183 65.4355C434.07 67.5444 431.661 69.1486 428.801 68.998Z" fill="#C6D5F2"/>
<path d="M397.401 77.6893C397.401 77.6893 403.534 91.412 406.409 77.5161L397.401 77.6893Z" fill="#23242E"/>
<path d="M406.386 77.5465C413.743 76.6653 419.147 71.5663 418.539 66.1586C418.382 64.9399 417.934 63.7772 417.233 62.7694C412.474 59.9224 405.613 60.8864 400.584 65.4958C397.815 67.9455 395.962 71.269 395.329 74.9179C398.062 76.9741 402.085 78.036 406.386 77.5465Z" fill="#3AD4CC"/>
<path d="M406.386 77.5466C406.386 77.5466 403.151 71.9882 396.628 70.7681C396.628 70.7681 389.121 76.3566 376.36 79.1433C374.935 79.4567 373.662 80.255 372.757 81.4028L372.622 81.576L406.386 77.5466Z" fill="#FFCA00"/>
<path d="M405.245 81.357C404.706 81.0557 404.127 80.8302 403.526 80.6866C402.143 80.3016 400.664 80.4746 399.405 81.1687C401.064 83.4959 403.444 85.4391 405.245 81.357Z" fill="#DD8FFF"/>
<path d="M384.511 79.4175C385.079 79.3491 385.512 79.0627 385.478 78.7777C385.443 78.4927 384.955 78.3171 384.387 78.3855C383.819 78.4539 383.386 78.7403 383.42 79.0253C383.455 79.3102 383.943 79.4858 384.511 79.4175Z" fill="#C69C00"/>
<path d="M407.723 73.8482C408.368 71.3176 410.357 70.7677 412.181 72.6205" stroke="#23242E" stroke-width="1.54" stroke-miterlimit="10" stroke-linecap="round"/>
<path d="M413.66 116.071L415.454 111.379C415.463 111.36 415.466 111.339 415.462 111.319C415.458 111.298 415.448 111.28 415.433 111.266C415.418 111.251 415.399 111.242 415.379 111.24C415.358 111.237 415.337 111.241 415.319 111.251L410.643 113.051C410.618 113.059 410.592 113.059 410.568 113.051L405.898 111.251C405.88 111.241 405.86 111.237 405.839 111.24C405.819 111.242 405.799 111.251 405.784 111.266C405.769 111.28 405.759 111.298 405.755 111.319C405.752 111.339 405.754 111.36 405.763 111.379L407.557 116.071C407.565 116.096 407.565 116.122 407.557 116.147L405.763 120.839C405.756 120.858 405.755 120.878 405.759 120.898C405.763 120.918 405.773 120.936 405.788 120.95C405.802 120.964 405.82 120.974 405.839 120.978C405.859 120.983 405.88 120.981 405.898 120.974L410.568 119.167H410.643L415.319 120.974C415.338 120.981 415.358 120.983 415.378 120.978C415.398 120.974 415.416 120.964 415.43 120.95C415.444 120.936 415.454 120.918 415.458 120.898C415.463 120.878 415.461 120.858 415.454 120.839L413.66 116.147C413.653 116.135 413.649 116.122 413.649 116.109C413.649 116.095 413.653 116.082 413.66 116.071Z" fill="#9E82FF"/>
<path d="M387.339 146.85L387.344 146.844C387.977 146.209 387.977 145.179 387.344 144.543L384.42 141.609C383.786 140.974 382.76 140.974 382.127 141.609L382.121 141.614C381.488 142.25 381.488 143.28 382.121 143.915L385.046 146.85C385.679 147.485 386.706 147.485 387.339 146.85Z" fill="#8A69FF"/>
<path d="M378.364 137.842L378.369 137.837C379.003 137.202 379.003 136.171 378.369 135.536L375.445 132.602C374.812 131.966 373.785 131.966 373.152 132.602L373.147 132.607C372.513 133.242 372.513 134.272 373.147 134.908L376.071 137.842C376.704 138.478 377.731 138.478 378.364 137.842Z" fill="#8A69FF"/>
<path d="M373.148 146.839L373.154 146.844C373.787 147.48 374.813 147.48 375.447 146.844L378.371 143.91C379.004 143.275 379.004 142.244 378.371 141.609L378.366 141.604C377.733 140.968 376.706 140.968 376.073 141.604L373.148 144.538C372.515 145.174 372.515 146.204 373.148 146.839Z" fill="#8A69FF"/>
<path d="M382.123 137.832L382.128 137.837C382.761 138.472 383.788 138.472 384.421 137.837L387.346 134.903C387.979 134.267 387.979 133.237 387.346 132.602L387.341 132.596C386.707 131.961 385.681 131.961 385.048 132.596L382.123 135.531C381.49 136.166 381.49 137.196 382.123 137.832Z" fill="#8A69FF"/>
<path d="M383.356 97.942L383.206 99.1697H383.244L384.257 98.4617L385.473 98.6123C385.473 98.6123 385.511 98.6123 385.473 98.6123L384.82 97.5805L384.978 96.3604C384.978 96.3604 384.978 96.3604 384.94 96.3604L383.927 97.0608L382.703 96.9026C382.703 96.9026 382.703 96.9026 382.703 96.9478L383.409 97.9571C383.409 97.9571 383.364 97.9345 383.356 97.942Z" fill="white"/>
</g>
<g filter="url(#filter2_d)">
<path d="M38.558 220.529H38.5185L26.805 220.99C19.0836 221.259 16.1372 224.218 13.4406 229.781L13.2565 230.201L9.21166 238.815L8.39612 240.524C7.17281 244.042 8.75127 246.304 13.5722 245.127C18.4989 243.791 23.2095 241.758 27.5613 239.091C31.7837 236.553 38.0844 232.858 42.2082 226.973L42.3923 226.717L42.4778 226.572L42.7212 226.217L42.8067 226.072C45.0889 222.278 42.6488 220.404 38.558 220.529Z" fill="url(#paint0_linear)"/>
<path d="M42.7935 226.072L42.708 226.216L42.4647 226.571L42.3792 226.716L42.195 226.972C38.0778 232.89 31.7705 236.552 27.5482 239.09C23.1973 241.76 18.4864 243.792 13.559 245.126C10.0667 245.975 8.29745 245.015 8.04753 243.154C9.19192 239.82 15.6505 233.949 23.5231 229.076C31.3957 224.204 38.9 221.311 42.5962 221.456C43.8853 222.297 44.1549 223.849 42.7935 226.072Z" fill="url(#paint1_linear)"/>
<path d="M12.921 242.759C12.02 241.3 17.4789 236.29 25.1147 231.582C32.7505 226.874 39.676 224.211 40.5771 225.664C41.4781 227.117 36.0193 232.134 28.3834 236.842C20.7476 241.55 13.855 244.199 12.921 242.759Z" fill="#6B3043"/>
<path d="M32.1849 232.246L31.7837 232.634L38.6829 229.162C38.1421 229.727 37.5713 230.263 36.9729 230.767L30.6656 233.633H30.6262L34.9472 232.45L32.5269 234.232L29.5739 234.403L27.6665 235.691L25.996 236.658L23.2731 239.853L21.1883 240.912L25.1344 237.151L24.8648 237.223L18.4588 242.036L17.3539 242.444L23.9308 237.631C23.4608 237.848 22.9801 238.041 22.4905 238.21L14.0391 243.213C13.6945 243.233 13.3521 243.146 13.0592 242.964L21.6684 238.361C21.5944 238.337 21.5269 238.297 21.4711 238.243C21.4185 238.243 21.4711 238.131 21.4711 237.999L13.0263 241.787C13.211 241.379 13.4475 240.996 13.73 240.649L21.8065 237.539L22.2011 237.105L15.3545 238.854L16.6107 237.743L22.7799 236.625L23.6415 235.902L19.0376 235.744L20.353 234.791L24.2334 235.448L24.9766 234.922L21.7473 233.837L22.8062 233.107L25.5882 234.521L26.2985 234.048L24.161 232.22L25.0621 231.654L26.6274 233.877L26.9102 233.679L26.7984 233.712L26.5024 230.786L27.7323 230.057L27.6337 233.245L28.7254 232.634L29.1595 229.274L30.225 228.715L29.1661 232.397L30.8432 231.635L32.4743 227.597L33.6318 227.052L31.3036 231.477C31.631 231.306 31.9934 231.214 32.3625 231.207L37.282 225.697C37.5579 225.586 37.8478 225.513 38.1436 225.48L32.7702 231.352L40.4324 225.474L40.6494 225.671C40.7323 225.861 40.7575 226.071 40.7218 226.276L32.1849 232.246Z" fill="#7A384C"/>
<path d="M25.1476 257.83C24.3683 256.715 23.9131 255.406 23.8322 254.049C23.5757 249.722 22.2011 244.324 19.886 238.499C19.6164 238.052 22.5168 235.803 26.3906 233.462C30.2644 231.121 33.6252 229.642 33.8949 230.174C36.0192 235.855 39.3932 244.081 39.5511 254.503C39.5718 256.161 39.0269 257.777 38.0059 259.085C36.9849 260.392 35.5489 261.313 33.9344 261.696L33.4937 261.801C32.0609 262.142 30.5585 262.043 29.1832 261.516C27.8078 260.989 26.6236 260.06 25.7855 258.849L25.1476 257.83Z" fill="url(#paint2_linear)"/>
<g opacity="0.3">
<path opacity="0.3" d="M36.9466 238.663C31.7968 238.426 25.2923 239.36 20.8923 241.056C20.6159 240.187 20.2931 239.333 19.9255 238.499C19.6558 238.052 22.5562 235.803 26.4301 233.462C30.3039 231.121 33.6647 229.642 33.9343 230.174C34.8157 232.561 35.9535 235.389 36.9466 238.663Z" fill="#A5387E"/>
</g>
<path d="M36.7624 244.811C36.4007 244.811 36.1047 244.423 36.0587 243.897C36.0127 243.371 36.2955 242.924 36.6572 242.904C37.0189 242.884 37.3149 243.299 37.3609 243.825C37.407 244.351 37.1242 244.792 36.7624 244.811Z" fill="#543247"/>
<path d="M30.2316 245.574C30.1585 245.437 30.1252 245.282 30.1354 245.127C30.1456 244.972 30.1988 244.823 30.2892 244.696C30.3795 244.57 30.5033 244.471 30.6467 244.411C30.7901 244.351 30.9474 244.332 31.1009 244.357C31.2543 244.381 31.3979 244.448 31.5154 244.55C31.633 244.652 31.7198 244.784 31.7662 244.932C31.8125 245.081 31.8165 245.239 31.7778 245.39C31.7391 245.54 31.6591 245.677 31.547 245.784C31.3431 245.926 31.0921 245.984 30.8468 245.944C30.6016 245.905 30.381 245.772 30.2316 245.574Z" fill="#543247"/>
<path d="M34.3816 252.971C35.7496 253.629 35.9995 253.432 36.3547 253.096C37.3215 252.13 37.6701 251.038 37.1571 250.762C36.6441 250.485 35.2695 250.88 33.8028 251.255C32.665 251.544 33.007 252.287 34.3816 252.971Z" fill="#371317"/>
<path d="M34.1646 252.86L34.0002 252.768L33.862 252.682L33.7239 252.584L33.6055 252.485L33.5069 252.393L33.4148 252.301C33.3872 252.273 33.3629 252.242 33.3425 252.209L33.2833 252.117C33.266 252.09 33.2527 252.061 33.2438 252.031C33.2309 251.975 33.2309 251.916 33.2438 251.86C33.2406 251.834 33.2406 251.807 33.2438 251.781C33.2606 251.725 33.2924 251.675 33.3359 251.637C33.3576 251.61 33.3844 251.587 33.4148 251.571L33.862 251.373L34.4013 251.235C35.3305 251.412 36.1891 251.853 36.8743 252.505C36.719 252.713 36.5498 252.911 36.3679 253.097C36.0324 253.432 35.7825 253.662 34.3948 252.972L34.2106 252.88L34.1646 252.86Z" fill="#ED6270"/>
<path d="M33.3425 252.255C32.9478 251.827 33.0531 251.446 33.7831 251.255C34.7514 250.942 35.754 250.748 36.769 250.676C36.9072 250.985 37.0453 251.334 36.769 251.38L33.3425 252.255Z" fill="white"/>
<path d="M41.2874 247.309C41.219 247.561 41.0824 247.788 40.8928 247.967C40.7098 248.144 40.4827 248.269 40.2351 248.328C39.6103 250.774 37.7161 251.465 35.2169 250.235C33.1057 252.543 32.0468 252.655 29.4423 251.406C28.127 252.063 27.0549 252.017 26.3446 251.471C25.1213 250.742 24.4373 248.48 26.4564 247.441C26.3117 248.309 26.4564 249.006 28.0612 249.058C28.5561 249.081 29.0513 249.023 29.5278 248.887C31.2773 248.44 32.3691 247.23 34.5789 247.75C35.0375 247.279 35.5977 246.919 36.2166 246.698C36.8368 246.482 37.4991 246.414 38.1502 246.501C38.6433 246.533 39.138 246.475 39.6103 246.33C39.7457 246.277 39.8672 246.193 39.9654 246.086C40.061 245.976 40.1306 245.846 40.1693 245.705C40.2021 245.564 40.2021 245.418 40.1693 245.278C40.1428 245.133 40.0844 244.996 39.9983 244.876C40.4169 245.066 40.7662 245.381 40.998 245.777C41.2289 246.175 41.3322 246.634 41.294 247.092C41.2545 247.151 41.294 247.25 41.2414 247.309H41.2874Z" fill="#6B3043"/>
<path d="M29.4555 251.379C28.1401 252.037 27.068 251.991 26.3577 251.445C25.8966 251.163 25.541 250.738 25.3461 250.234C25.1511 249.73 25.1276 249.176 25.2791 248.657C25.3975 250.341 27.5021 251.044 29.8238 249.775C32.5269 251.005 35.1708 248.565 35.1708 248.565C36.9203 249.308 38.5843 249.302 39.7286 247.71C40.1041 247.717 40.469 247.586 40.7546 247.342C41.0375 247.097 41.2181 246.754 41.2611 246.382C41.3131 246.615 41.3396 246.854 41.34 247.092C41.3005 247.152 41.34 247.25 41.294 247.309C41.2203 247.56 41.082 247.787 40.8928 247.967C40.7097 248.144 40.4826 248.269 40.2351 248.329C39.6103 250.775 37.7161 251.465 35.2169 250.235C33.1188 252.517 32.0599 252.629 29.4555 251.379Z" fill="#5E2737"/>
<path d="M54.3952 206.558L55.1713 207.308C55.1713 207.308 55.2042 207.308 55.2108 207.308L55.2436 206.229L56 205.407C56 205.407 56 205.407 56 205.367H54.9214L54.1453 204.618H54.1058V205.69L53.3166 206.479V206.518H54.3952V206.558Z" fill="white"/>
<path d="M48.1208 203.572V204.644H48.1603L48.9495 203.914H50.0281V203.874L49.3705 203.092V202C49.3705 202 49.3705 202 49.331 202L48.5418 202.73H47.3974V202.776L48.1274 203.572H48.1208Z" fill="white"/>
</g>
<defs>
<filter id="filter0_d" x="-36" y="-16.5" width="142" height="128.5" filterUnits="userSpaceOnUse" color-interpolation-filters="sRGB">
<feFlood flood-opacity="0" result="BackgroundImageFix"/>
<feColorMatrix in="SourceAlpha" type="matrix" values="0 0 0 0 0 0 0 0 0 0 0 0 0 0 0 0 0 0 127 0"/>
<feOffset dy="8"/>
<feGaussianBlur stdDeviation="20"/>
<feColorMatrix type="matrix" values="0 0 0 0 0 0 0 0 0 0 0 0 0 0 0 0 0 0 0.16 0"/>
<feBlend mode="normal" in2="BackgroundImageFix" result="effect1_dropShadow"/>
<feBlend mode="normal" in="SourceGraphic" in2="effect1_dropShadow" result="shape"/>
</filter>
<filter id="filter1_d" x="332.622" y="16" width="143.378" height="179.326" filterUnits="userSpaceOnUse" color-interpolation-filters="sRGB">
<feFlood flood-opacity="0" result="BackgroundImageFix"/>
<feColorMatrix in="SourceAlpha" type="matrix" values="0 0 0 0 0 0 0 0 0 0 0 0 0 0 0 0 0 0 127 0"/>
<feOffset dy="8"/>
<feGaussianBlur stdDeviation="20"/>
<feColorMatrix type="matrix" values="0 0 0 0 0 0 0 0 0 0 0 0 0 0 0 0 0 0 0.16 0"/>
<feBlend mode="normal" in2="BackgroundImageFix" result="effect1_dropShadow"/>
<feBlend mode="normal" in="SourceGraphic" in2="effect1_dropShadow" result="shape"/>
</filter>
<filter id="filter2_d" x="-32" y="170" width="128" height="140" filterUnits="userSpaceOnUse" color-interpolation-filters="sRGB">
<feFlood flood-opacity="0" result="BackgroundImageFix"/>
<feColorMatrix in="SourceAlpha" type="matrix" values="0 0 0 0 0 0 0 0 0 0 0 0 0 0 0 0 0 0 127 0"/>
<feOffset dy="8"/>
<feGaussianBlur stdDeviation="20"/>
<feColorMatrix type="matrix" values="0 0 0 0 0 0 0 0 0 0 0 0 0 0 0 0 0 0 0.16 0"/>
<feBlend mode="normal" in2="BackgroundImageFix" result="effect1_dropShadow"/>
<feBlend mode="normal" in="SourceGraphic" in2="effect1_dropShadow" result="shape"/>
</filter>
<linearGradient id="paint0_linear" x1="27.6781" y1="222.376" x2="25.3485" y2="242.021" gradientUnits="userSpaceOnUse">
<stop stop-color="#FDC083"/>
<stop offset="1" stop-color="#D98B6B"/>
</linearGradient>
<linearGradient id="paint1_linear" x1="7.36984" y1="238.79" x2="45.691" y2="228.911" gradientUnits="userSpaceOnUse">
<stop stop-color="#D47569"/>
<stop offset="1" stop-color="#E19C7E"/>
</linearGradient>
<linearGradient id="paint2_linear" x1="-413.002" y1="5785.16" x2="-111.397" y2="4842.78" gradientUnits="userSpaceOnUse">
<stop stop-color="#FDC083"/>
<stop offset="1" stop-color="#D98B6B"/>
</linearGradient>
</defs>
</svg>
