<svg width="280" height="160" viewBox="0 0 280 160" fill="none" xmlns="http://www.w3.org/2000/svg">
<path opacity="0.4" d="M240 160L0 0L77.5385 160H240Z" fill="#6874F2"/>
<path opacity="0.4" d="M40 160L280 0L202.462 160H40Z" fill="#6874F2"/>
<path d="M140.43 154.078C171.543 154.078 196.764 128.772 196.764 97.5559C196.764 66.3394 171.543 41.0334 140.43 41.0334C109.317 41.0334 84.0952 66.3394 84.0952 97.5559C84.0952 128.772 109.317 154.078 140.43 154.078Z" fill="#FFED7E"/>
<path d="M251.339 71.6417L255.857 69.8545H255.921L254.226 74.4301L255.996 78.9627C256.001 78.9803 256.001 78.9989 255.996 79.0165H255.932L251.382 77.3047L246.854 79.1026H246.8C246.795 79.0851 246.795 79.0664 246.8 79.0488L248.507 74.4732L246.639 70.0483V69.9945H246.693L251.243 71.7063L251.339 71.6417Z" fill="#FF57B0"/>
<path d="M223.408 86.3808L226.198 85.3042L225.125 88.1357L226.198 90.9349L223.376 89.8583L220.575 90.9349H220.51L221.584 88.1034L220.51 85.3042H220.575L223.397 86.3808H223.408Z" fill="#FC7A5E"/>
<path d="M22.7063 69.3374C22.7063 69.6829 22.8431 70.0143 23.0866 70.2586C23.3301 70.5029 23.6603 70.6401 24.0047 70.6401C24.349 70.6401 24.6793 70.5029 24.9228 70.2586C25.1663 70.0143 25.3031 69.6829 25.3031 69.3374V66.0322C25.3031 65.6867 25.1663 65.3554 24.9228 65.111C24.6793 64.8667 24.349 64.7295 24.0047 64.7295C23.6603 64.7295 23.3301 64.8667 23.0866 65.111C22.8431 65.3554 22.7063 65.6867 22.7063 66.0322V69.3374Z" fill="#FFC800"/>
<path d="M22.7065 59.164C22.6901 59.3443 22.7114 59.526 22.7689 59.6976C22.8265 59.8692 22.919 60.0269 23.0407 60.1606C23.1623 60.2943 23.3104 60.4011 23.4755 60.4742C23.6406 60.5472 23.8191 60.585 23.9996 60.585C24.18 60.585 24.3585 60.5472 24.5236 60.4742C24.6887 60.4011 24.8368 60.2943 24.9584 60.1606C25.0801 60.0269 25.1726 59.8692 25.2302 59.6976C25.2877 59.526 25.309 59.3443 25.2926 59.164V55.8695C25.309 55.6892 25.2877 55.5075 25.2302 55.3359C25.1726 55.1643 25.0801 55.0066 24.9584 54.8729C24.8368 54.7392 24.6887 54.6324 24.5236 54.5593C24.3585 54.4862 24.18 54.4485 23.9996 54.4485C23.8191 54.4485 23.6406 54.4862 23.4755 54.5593C23.3104 54.6324 23.1623 54.7392 23.0407 54.8729C22.919 55.0066 22.8265 55.1643 22.7689 55.3359C22.7114 55.5075 22.6901 55.6892 22.7065 55.8695V59.164Z" fill="#FFC800"/>
<path d="M17.2984 61.2957C17.1279 61.2957 16.959 61.3293 16.8015 61.3948C16.644 61.4603 16.5009 61.5562 16.3803 61.6772C16.2597 61.7982 16.1641 61.9418 16.0988 62.0998C16.0336 62.2579 16 62.4273 16 62.5984C16 62.7694 16.0336 62.9388 16.0988 63.0969C16.1641 63.2549 16.2597 63.3985 16.3803 63.5195C16.5009 63.6405 16.644 63.7364 16.8015 63.8019C16.959 63.8674 17.1279 63.9011 17.2984 63.9011H20.5926C20.937 63.9011 21.2672 63.7638 21.5107 63.5195C21.7542 63.2752 21.891 62.9439 21.891 62.5984C21.891 62.2529 21.7542 61.9215 21.5107 61.6772C21.2672 61.4329 20.937 61.2957 20.5926 61.2957H17.2984Z" fill="#FFC800"/>
<path d="M27.428 61.3064C27.2483 61.29 27.0672 61.3113 26.8961 61.369C26.7251 61.4267 26.5679 61.5196 26.4347 61.6417C26.3014 61.7637 26.195 61.9123 26.1222 62.078C26.0493 62.2436 26.0117 62.4227 26.0117 62.6037C26.0117 62.7848 26.0493 62.9638 26.1222 63.1295C26.195 63.2951 26.3014 63.4437 26.4347 63.5658C26.5679 63.6879 26.7251 63.7807 26.8961 63.8385C27.0672 63.8962 27.2483 63.9175 27.428 63.9011H30.7222C30.9019 63.9175 31.0831 63.8962 31.2541 63.8385C31.4251 63.7807 31.5823 63.6879 31.7156 63.5658C31.8488 63.4437 31.9553 63.2951 32.0281 63.1295C32.1009 62.9638 32.1385 62.7848 32.1385 62.6037C32.1385 62.4227 32.1009 62.2436 32.0281 62.078C31.9553 61.9123 31.8488 61.7637 31.7156 61.6417C31.5823 61.5196 31.4251 61.4267 31.2541 61.369C31.0831 61.3113 30.9019 61.29 30.7222 61.3064H27.428Z" fill="#FFC800"/>
<path d="M48.6849 89.4812L46.5388 93.7877L48.6849 98.0403L50.831 93.7877L48.6849 89.4812Z" fill="#FF57B0"/>
<path d="M151.976 78.5109C151.91 78.2569 151.747 78.0394 151.521 77.9062C151.296 77.773 151.027 77.7349 150.774 77.8003C150.52 77.8664 150.303 78.0299 150.168 78.2555C150.034 78.4811 149.993 78.7507 150.055 79.0062C156.719 106.234 170.529 127.551 180.776 140.503C182.624 138.759 184.352 136.892 185.948 134.915C169.477 119.764 157.686 100.187 151.976 78.5109Z" fill="#F7DC4D"/>
<path d="M139.807 54.9759C138.037 76.5083 133.659 131.416 107.831 130.339H171.956C146.128 128.304 142.49 76.3576 140.966 54.9759C140.931 54.8486 140.856 54.7362 140.751 54.6562C140.646 54.5761 140.518 54.5327 140.387 54.5327C140.255 54.5327 140.127 54.5761 140.023 54.6562C139.918 54.7362 139.842 54.8486 139.807 54.9759Z" fill="#23489E"/>
<path d="M110.921 84.249C110.682 84.1469 110.412 84.1426 110.17 84.2371C109.927 84.3316 109.731 84.5175 109.623 84.755C104.008 97.1939 96.2778 108.557 86.7778 118.335C87.2822 119.853 87.8509 121.338 88.484 122.803C97.8349 111.537 105.548 98.9991 111.393 85.5625C111.498 85.3246 111.507 85.0555 111.419 84.8109C111.331 84.5664 111.153 84.3652 110.921 84.249Z" fill="#F7DC4D"/>
<path d="M195.123 118.722C176.606 103.398 163.245 82.7226 156.858 59.5084C156.788 59.2583 156.622 59.046 156.398 58.9171C156.173 58.7882 155.907 58.7531 155.656 58.8193C155.403 58.8852 155.186 59.0492 155.053 59.2753C154.921 59.5013 154.883 59.771 154.948 60.0252C163.092 91.8392 180.958 115.428 191.292 127.034C192.791 124.372 194.072 121.593 195.123 118.722Z" fill="#F7DC4D"/>
<path d="M130.676 60.6064C130.415 60.5825 130.156 60.6631 129.955 60.8306C129.754 60.9981 129.627 61.2389 129.603 61.5C126.909 90.7722 113.319 117.951 91.542 137.617C92.7973 139.441 94.1552 141.191 95.6088 142.86L100.706 143.312C100.874 143.326 101.043 143.297 101.197 143.227C101.351 143.157 101.485 143.05 101.586 142.914C104.676 138.812 128.261 106.104 131.631 61.6723C131.639 61.539 131.622 61.4054 131.578 61.2792C131.534 61.153 131.466 61.0368 131.377 60.9375C131.288 60.8382 131.18 60.7577 131.06 60.7008C130.939 60.644 130.809 60.6119 130.676 60.6064Z" fill="#F7DC4D"/>
<path d="M195.627 44.511L197.558 40.0538C197.554 40.0362 197.554 40.0177 197.558 40H197.666C197.671 40.0176 197.671 40.0362 197.666 40.0538L199.683 44.4895L204.136 46.4382C204.143 46.4452 204.149 46.4536 204.153 46.4628C204.157 46.4721 204.159 46.482 204.159 46.492C204.159 46.502 204.157 46.512 204.153 46.5212C204.149 46.5304 204.143 46.5388 204.136 46.5458L199.715 48.5806L197.837 53.124H197.73L195.691 48.6775L191.227 46.7396C191.222 46.7221 191.222 46.7033 191.227 46.6858L195.659 44.6725L195.627 44.511Z" fill="#62FFE3"/>
<path d="M218.88 117.42C218.88 117.42 225.114 108.473 215.339 112.5C213.117 102.121 209.287 112.349 209.287 112.349C203.385 111.1 204.855 114.341 207.141 117.183C205.38 117.704 203.8 118.708 202.577 120.081C201.354 121.454 200.538 123.142 200.219 124.956C199.146 130.264 202.065 135.367 206.808 136.357C211.551 137.348 216.294 133.87 217.399 128.563C217.869 126.361 217.621 124.066 216.691 122.017C220.103 122.178 223 121.414 218.88 117.42Z" fill="#2331B5"/>
<path d="M200.52 88.4478C199.899 88.4562 199.286 88.5875 198.716 88.834C198.145 89.0806 197.629 89.4376 197.196 89.8846C196.764 90.3317 196.423 90.86 196.195 91.4392C195.966 92.0185 195.853 92.6373 195.863 93.2603C195.947 96.9579 195.765 100.657 195.316 104.328C194.946 107.763 194.002 111.111 192.526 114.233C191.949 115.561 191.111 116.758 190.062 117.753C189.013 118.749 187.774 119.521 186.42 120.025C185.087 120.454 183.686 120.629 182.289 120.542C182.87 119.768 183.24 118.855 183.362 117.893C183.428 116.987 183.294 116.077 182.97 115.228C182.645 114.38 182.138 113.613 181.484 112.984C182.327 112.559 183.058 111.941 183.617 111.18C184.176 110.418 184.549 109.535 184.703 108.602C184.802 107.34 184.448 106.084 183.706 105.06L186.442 105.458C187.051 105.556 187.674 105.531 188.274 105.385C188.874 105.239 189.439 104.974 189.937 104.607C190.434 104.24 190.853 103.777 191.171 103.246C191.488 102.714 191.697 102.125 191.785 101.512C191.873 100.899 191.839 100.274 191.684 99.6744C191.53 99.0747 191.258 98.5118 190.885 98.0184C190.511 97.5251 190.044 97.1112 189.509 96.8008C188.975 96.4903 188.385 96.2896 187.772 96.2102C186.795 96.0677 185.798 96.2452 184.929 96.7162C184.832 96.7162 184.006 97.3084 182.783 98.0513L184.703 84.7335C184.786 84.1829 184.722 83.6202 184.517 83.1026C184.313 82.585 183.975 82.131 183.54 81.7865C183.104 81.442 182.585 81.2195 182.035 81.1414C181.486 81.0634 180.925 81.1326 180.411 81.3421L178.394 82.1388C177.886 82.3438 177.332 82.4109 176.79 82.3334C176.247 82.2559 175.735 82.0366 175.304 81.6974L173.587 80.3516C173.153 80.0124 172.637 79.7934 172.093 79.7165C171.548 79.6396 170.992 79.7076 170.482 79.9136C169.971 80.1195 169.524 80.4563 169.183 80.8903C168.843 81.3242 168.623 81.8401 168.543 82.3865L166.526 96.3825C165.217 94.9291 164.284 93.8309 164.187 93.734C163.661 93.2175 163.02 92.8335 162.317 92.6136C161.614 92.3936 160.87 92.344 160.144 92.4686C159.419 92.5933 158.733 92.8888 158.143 93.3309C157.553 93.7729 157.076 94.349 156.752 95.0117C156.427 95.6745 156.263 96.4051 156.274 97.1436C156.285 97.8821 156.47 98.6075 156.815 99.2603C157.159 99.9131 157.653 100.475 158.255 100.899C158.858 101.323 159.552 101.598 160.281 101.701L162.202 101.981C161.517 102.411 160.933 102.985 160.49 103.663C160.047 104.342 159.756 105.108 159.637 105.911C159.39 108.15 160.818 110.325 163.243 111.972C162.218 112.904 161.556 114.171 161.376 115.546C161.312 116.37 161.417 117.198 161.685 117.98C161.952 118.761 162.377 119.479 162.931 120.09C160.899 121.021 159.176 122.518 157.968 124.404C156.76 126.29 156.118 128.485 156.118 130.727V136.853H186.431V129.187C186.43 128.827 186.409 128.468 186.367 128.11C187.133 128.007 187.889 127.845 188.631 127.626C191.095 126.931 193.375 125.696 195.305 124.009C197.118 122.387 198.649 120.473 199.833 118.346C201.951 114.446 203.384 110.211 204.072 105.824C204.809 101.699 205.236 97.5248 205.349 93.3357V93.1203C205.34 92.4945 205.209 91.8766 204.961 91.3022C204.713 90.7279 204.354 90.2085 203.905 89.774C203.456 89.3395 202.926 88.9986 202.345 88.771C201.764 88.5434 201.144 88.4335 200.52 88.4478Z" fill="#2331B5"/>
<path d="M129.742 137.929L126.094 130.393C125.348 128.808 124.24 127.422 122.861 126.346C121.481 125.271 119.869 124.536 118.154 124.202L114.934 123.589L118.561 122.038C119.334 121.736 119.96 121.146 120.31 120.392C120.66 119.638 120.706 118.778 120.439 117.99L113.497 99.8816L116.19 96.6518C116.265 96.5718 116.307 96.4658 116.307 96.3557C116.307 96.2456 116.265 96.1396 116.19 96.0596C114.763 94.8107 108.282 90.0413 98.8604 97.1362C98.8072 97.1752 98.7639 97.2262 98.734 97.2852C98.7042 97.3441 98.6886 97.4093 98.6886 97.4754C98.6886 97.5415 98.7042 97.6066 98.734 97.6656C98.7639 97.7245 98.8072 97.7755 98.8604 97.8145L102.637 100.603L98.5706 115.988C98.2714 117.097 98.3657 118.276 98.8375 119.323C99.3093 120.369 100.129 121.219 101.157 121.726L102.047 122.168C100.098 122.657 98.3145 123.66 96.8823 125.075C95.4501 126.489 94.4214 128.262 93.9029 130.21L91.7568 137.983H94.7399C94.7399 138.145 94.8365 138.306 94.9008 138.457L95.3837 139.76C96.124 141.693 97.2403 143.459 98.6675 144.955C100.095 146.451 101.804 147.647 103.697 148.473C105.589 149.3 107.627 149.741 109.69 149.77C111.754 149.798 113.803 149.415 115.718 148.642C120.203 146.833 122.489 142.666 123.143 137.972L129.742 137.929Z" fill="#2331B5"/>
<path d="M90.1366 127.109C90.8765 126.606 91.5038 125.953 91.9786 125.193C92.4534 124.433 92.7653 123.582 92.8943 122.695C93.3557 118.787 91.3491 115.158 87.454 112.758C87.454 112.758 87.0677 111.681 86.381 109.829C85.7479 108.225 84.6748 106.169 82.4214 105.523L81.9493 105.501H81.8527C81.6669 105.49 81.4806 105.49 81.2947 105.501C78.5511 105.226 75.7813 105.595 73.204 106.578C73.0753 106.363 72.9572 106.136 72.8285 105.932C72.7212 105.749 72.6139 105.566 72.5066 105.404C72.2963 105.059 72.0143 104.763 71.6798 104.536C71.3454 104.31 70.9663 104.158 70.5682 104.092C70.1702 104.026 69.7626 104.046 69.3731 104.152C68.9836 104.257 68.6214 104.446 68.311 104.705H68.2359C67.8948 104.994 67.627 105.36 67.4543 105.773C67.2817 106.186 67.2091 106.634 67.2426 107.08C67.2762 107.527 67.4148 107.959 67.6471 108.342C67.8795 108.724 68.1989 109.046 68.5792 109.28C68.8475 109.452 69.0943 109.592 69.3411 109.732H69.4162L69.9205 110.012H69.9956C69.9577 111.292 70.0949 112.571 70.4034 113.813C70.7468 116.149 71.5623 120.961 72.013 123.115L71.2189 123.05C66.5834 122.275 62.3556 125.02 61.2074 130.78L58.9111 141.159H68.9226C69.5577 144.654 71.4544 147.792 74.25 149.974C77.0457 152.155 80.5443 153.226 84.0773 152.982C87.6103 152.738 90.9299 151.197 93.4016 148.652C95.8734 146.108 97.324 142.738 97.4762 139.189C97.4587 136.697 96.7666 134.257 95.4738 132.129C94.181 130.001 92.3362 128.266 90.1366 127.109Z" fill="#2331B5"/>
<path d="M235.394 137.929C233.915 137.931 232.465 138.34 231.203 139.113C229.94 139.886 228.914 140.992 228.237 142.311V136.002C228.238 135.239 228.09 134.484 227.8 133.778C227.509 133.073 227.084 132.432 226.546 131.892C226.009 131.352 225.371 130.924 224.669 130.631C223.966 130.339 223.213 130.188 222.453 130.188H57.3336C56.5732 130.188 55.8202 130.339 55.1178 130.631C54.4154 130.924 53.7773 131.352 53.2401 131.892C52.7029 132.432 52.2771 133.073 51.9871 133.778C51.697 134.484 51.5485 135.239 51.5499 136.002V142.311C50.8962 141.036 49.9159 139.958 48.7096 139.189C47.5034 138.42 46.1147 137.987 44.6864 137.935C43.2581 137.882 41.8417 138.213 40.5828 138.892C39.3238 139.571 38.2679 140.574 37.5233 141.798C36.7788 143.022 36.3726 144.423 36.3466 145.857C36.3205 147.29 36.6754 148.705 37.3749 149.956C38.0744 151.206 39.0932 152.247 40.3266 152.972C41.56 153.697 42.9635 154.079 44.3927 154.079C44.9333 154.08 45.4726 154.026 46.0023 153.917V160H233.784V153.917C234.314 154.026 234.853 154.08 235.394 154.079C237.528 154.079 239.575 153.228 241.085 151.714C242.594 150.199 243.442 148.146 243.442 146.004C243.442 143.862 242.594 141.809 241.085 140.294C239.575 138.78 237.528 137.929 235.394 137.929Z" fill="#25309C"/>
</svg>
