<svg xmlns="http://www.w3.org/2000/svg" viewBox="0 0 80 80"><defs><style>.cls-1{fill:#b8d1ff;}.cls-2{fill:#03a79f;}.cls-3,.cls-9{fill:none;}.cls-3{stroke:#03968f;stroke-linecap:round;stroke-miterlimit:10;stroke-width:0.81px;}.cls-4{fill:#00c0b5;}.cls-5{fill:#7196ff;}.cls-6{fill:#bacfff;}.cls-7{fill:#202225;}.cls-8{fill:#9cb6f1;}</style></defs><g id="objects"><circle class="cls-1" cx="40" cy="40" r="40"/><path class="cls-2" d="M38.05,27.56a12.92,12.92,0,0,1-1.29-.19,18,18,0,0,1-1.88-.48c-2.33-.74-3.61-3.26-1-4.81,0,0,2.16-2.52,6.49.3a2.33,2.33,0,0,0,2.49.25L40,26.86Z"/><path class="cls-3" d="M40.91,25.5s-4.16.81-9.3-6.43"/><path class="cls-4" d="M36.76,27.37c-.15,0,2.27.47,4.36-3.64.29-.57.74-1.5.9-1.8.84-1.61,2.84-5.13,6.14-4.41a2.82,2.82,0,0,1,1.74,4,5.81,5.81,0,0,1-1.4,2.13A13.1,13.1,0,0,1,36.76,27.37Z"/><path class="cls-2" d="M40.8,27.52a13.07,13.07,0,0,0,6.53-6.95,11.75,11.75,0,0,0,.73-3.08l.1,0a2.87,2.87,0,0,1,.69.31,12.51,12.51,0,0,1-.75,3,13.37,13.37,0,0,1-4.79,6.11A12,12,0,0,1,40.8,27.52Z"/><path class="cls-5" d="M59.75,31.39h8a4,4,0,0,1,4,4v9a4,4,0,0,1-4,4h-8a0,0,0,0,1,0,0v-17a0,0,0,0,1,0,0Z" transform="translate(-4.04 7.58) rotate(-6.4)"/><path class="cls-6" d="M63,34.36h4a2,2,0,0,1,2,2v7a2,2,0,0,1-2,2H63a0,0,0,0,1,0,0v-11a0,0,0,0,1,0,0Z" transform="translate(-4.03 7.61) rotate(-6.4)"/><path class="cls-5" d="M10.79,36.89h8a4,4,0,0,1,4,4v9a4,4,0,0,1-4,4h-8a0,0,0,0,1,0,0v-17A0,0,0,0,1,10.79,36.89Z" transform="translate(38.52 88.6) rotate(173.6)"/><path class="cls-6" d="M13.53,39.91h4a2,2,0,0,1,2,2v7a2,2,0,0,1-2,2h-4a0,0,0,0,1,0,0v-11a0,0,0,0,1,0,0Z" transform="translate(38.01 88.69) rotate(173.6)"/><rect class="cls-5" x="16.66" y="25.2" width="49.67" height="31.96" rx="8.99" transform="translate(87.31 77.47) rotate(173.6)"/><path class="cls-6" d="M38.93,32.65h9.19a7.09,7.09,0,0,1,7.09,7.09v7a2.88,2.88,0,0,1-2.88,2.88H34.13a2.88,2.88,0,0,1-2.88-2.88V40.33a7.67,7.67,0,0,1,7.67-7.67Z" transform="translate(90.78 77.2) rotate(173.6)"/><circle class="cls-7" cx="25.56" cy="42.61" r="2.7"/><circle class="cls-7" cx="60.19" cy="38.72" r="2.7"/><rect class="cls-8" x="46.42" y="42.27" width="4.99" height="2.5" rx="1.25" transform="matrix(-0.99, 0.11, -0.11, -0.99, 102.39, 81.31)"/><rect class="cls-8" x="36.91" y="43.28" width="5.99" height="2.5" rx="1.25" transform="translate(84.54 84.33) rotate(173.6)"/><circle class="cls-9" cx="40" cy="40" r="40"/></g></svg>
