<svg width="40" height="40" viewBox="0 0 40 40" fill="none" xmlns="http://www.w3.org/2000/svg">
<g clip-path="url(#clip0)">
<path d="M30.6875 5.43752H2.2625C1.01296 5.43752 0 6.45048 0 7.70002V37.7375C0 38.9871 1.01296 40 2.2625 40H30.6875C31.937 40 32.95 38.9871 32.95 37.7375V7.70002C32.95 6.45048 31.937 5.43752 30.6875 5.43752Z" fill="#AEC7FF"/>
<path d="M29.2751 8.82501H3.6626V36.6H29.2751V8.82501Z" fill="white"/>
<path d="M22.575 13.6375H17.3C16.0643 13.6375 15.0625 14.6392 15.0625 15.875V15.8875C15.0625 17.1232 16.0643 18.125 17.3 18.125H22.575C23.8107 18.125 24.8125 17.1232 24.8125 15.8875V15.875C24.8125 14.6392 23.8107 13.6375 22.575 13.6375Z" fill="#D9E7FF"/>
<path d="M22.575 20.475H17.3C16.0643 20.475 15.0625 21.4767 15.0625 22.7125V22.725C15.0625 23.9607 16.0643 24.9625 17.3 24.9625H22.575C23.8107 24.9625 24.8125 23.9607 24.8125 22.725V22.7125C24.8125 21.4767 23.8107 20.475 22.575 20.475Z" fill="#D9E7FF"/>
<path d="M22.575 27.3125H17.3C16.0643 27.3125 15.0625 28.3143 15.0625 29.55V29.5625C15.0625 30.7983 16.0643 31.8 17.3 31.8H22.575C23.8107 31.8 24.8125 30.7983 24.8125 29.5625V29.55C24.8125 28.3143 23.8107 27.3125 22.575 27.3125Z" fill="#D9E7FF"/>
<path d="M24.8124 8.82502V10.5125H7.82495V8.82502L12.5625 4.08752L12.7874 3.86252H14.6875C14.6875 4.29681 14.86 4.71332 15.1671 5.02041C15.4742 5.3275 15.8907 5.50002 16.325 5.50002C16.7592 5.50002 17.1757 5.3275 17.4828 5.02041C17.7899 4.71332 17.9624 4.29681 17.9624 3.86252H19.8625L20.0749 4.07502L24.8124 8.82502Z" fill="#D9E7FF"/>
<path d="M16.3249 0C15.3304 0 14.3765 0.395088 13.6733 1.09835C12.97 1.80161 12.5749 2.75544 12.5749 3.75C12.5626 3.8538 12.5626 3.9587 12.5749 4.0625C12.5749 5.05706 12.97 6.01089 13.6733 6.71415C14.3765 7.41741 15.3304 7.8125 16.3249 7.8125C17.3195 7.8125 18.2733 7.41741 18.9766 6.71415C19.6798 6.01089 20.0749 5.05706 20.0749 4.0625C20.087 3.96286 20.087 3.86214 20.0749 3.7625C20.0766 3.26899 19.9808 2.78001 19.7931 2.3236C19.6053 1.86718 19.3294 1.45231 18.981 1.10277C18.6326 0.75322 18.2187 0.475879 17.7629 0.286643C17.3071 0.0974065 16.8184 -2.74168e-06 16.3249 0V0ZM16.3249 5.425C15.9024 5.42856 15.4951 5.26741 15.1894 4.97571C14.8837 4.68402 14.7037 4.28472 14.6874 3.8625C14.6813 3.83365 14.6813 3.80385 14.6874 3.775C14.6874 3.33739 14.8613 2.91771 15.1707 2.60827C15.4801 2.29884 15.8998 2.125 16.3374 2.125C16.775 2.125 17.1947 2.29884 17.5041 2.60827C17.8136 2.91771 17.9874 3.33739 17.9874 3.775C17.9935 3.80385 17.9935 3.83365 17.9874 3.8625C17.9711 4.28912 17.7876 4.69219 17.4765 4.98457C17.1654 5.27695 16.7517 5.43516 16.3249 5.425V5.425Z" fill="#D9E7FF"/>
<path d="M12.1 13.6375H7.61255V18.125H12.1V13.6375Z" fill="#D9E7FF"/>
<path d="M12.1 20.475H7.61255V24.9625H12.1V20.475Z" fill="#D9E7FF"/>
<path d="M12.1 27.3125H7.61255V31.8H12.1V27.3125Z" fill="#D9E7FF"/>
<circle cx="28.5" cy="25.5" r="11.5" fill="#3E70DD"/>
<rect x="27" y="17" width="3" height="10" rx="1.5" fill="white"/>
<rect x="35.5352" y="27.7851" width="3" height="8.77022" rx="1.5" transform="rotate(120 35.5352 27.7851)" fill="white"/>
</g>
<defs>
<clipPath id="clip0">
<rect width="40" height="40" fill="white"/>
</clipPath>
</defs>
</svg>
