<svg width="72" height="72" viewBox="0 0 72 72" fill="none" xmlns="http://www.w3.org/2000/svg">
<g clip-path="url(#clip0)">
<path d="M36 72C55.8823 72 72 55.8823 72 36C72 16.1177 55.8823 0 36 0C16.1177 0 0 16.1177 0 36C0 55.8823 16.1177 72 36 72Z" fill="#72A0FF"/>
<path d="M13.25 63.9C16.2506 66.3497 19.6275 68.2981 23.25 69.67C26.56 61.23 35 57 35 57L26.25 49.5C20.14 52.22 15.88 58.62 13.25 63.9Z" fill="white"/>
<path d="M26 64.8001C27.7531 62.4927 29.851 60.469 32.22 58.8L26.22 49.55C23.9793 50.5877 21.9462 52.0244 20.22 53.7901C20.78 56.5201 22.24 61.9101 26 64.8001Z" fill="#EAEAED"/>
<path d="M32.52 19.09C31.52 22.29 30.95 34.37 30.95 34.37C30.95 34.37 37.64 24.29 38.68 21.1C39.72 17.91 39.19 14.86 37.49 14.31C35.79 13.76 33.56 15.89 32.52 19.09Z" fill="#B6B6B8"/>
<path d="M41.2997 61.992C48.8398 58.938 51.989 49.1463 48.3337 40.1217C44.6783 31.0971 35.6026 26.257 28.0625 29.3111C20.5224 32.3651 17.3732 42.1568 21.0285 51.1814C24.6838 60.206 33.7595 65.0461 41.2997 61.992Z" fill="white"/>
<path d="M16.28 17.7C18.57 21.52 32.28 31.3 32.28 31.3C32.28 31.3 30 14.63 27.74 10.81C25.48 6.99 21 5.45 17.86 7.35C14.72 9.25 14 13.88 16.28 17.7Z" fill="white"/>
<path d="M15.9101 29.2C19.0901 30.52 31.9101 30.9 31.9101 30.9C31.9101 30.9 22.6601 22.08 19.4801 20.76C16.3001 19.44 12.9301 20.24 11.9601 22.57C10.9901 24.9 12.7301 27.87 15.9101 29.2Z" fill="white"/>
<path d="M45.4201 54.94C45.4201 54.94 31.6601 66.56 35.7801 50.08L45.4201 54.94Z" fill="#333333"/>
<path d="M35.7799 50.0801C28.2699 45.3001 25 37.0001 28.53 31.4501C29.3245 30.2051 30.4131 29.1748 31.7 28.4501C38.32 27.8901 45.25 32.5101 48.33 40.1101C50.0406 44.1955 50.3086 48.7418 49.09 53.0001C44.4438 53.7414 39.6891 52.6983 35.7799 50.0801Z" fill="#00E9E5"/>
<path d="M35.78 50.08C37.8603 48.7941 40.1749 47.9331 42.5899 47.5469C45.0049 47.1607 47.4724 47.257 49.85 47.83C49.85 47.83 55.05 57.76 67.44 67.43C68.822 68.507 69.7869 70.0304 70.17 71.74L70.23 72L35.78 50.08Z" fill="#FBCC00"/>
<path d="M35 54.81C35.7414 54.7671 36.4852 54.8277 37.21 54.99C38.9089 55.2945 40.4225 56.2485 41.43 57.65C38.44 59.3 34.86 60.16 35 54.81Z" fill="#FF70AA"/>
<path d="M36.515 42.4896C36.5584 40.7725 35.6224 39.356 34.4244 39.3257C33.2263 39.2953 32.2198 40.6627 32.1764 42.3798C32.1329 44.0968 33.0689 45.5134 34.267 45.5437C35.465 45.574 36.4715 44.2066 36.515 42.4896Z" fill="black"/>
<path d="M59.8869 63.666C60.0709 63.3772 59.7519 62.8448 59.1744 62.4767C58.5969 62.1086 57.9795 62.0444 57.7955 62.3331C57.6115 62.6219 57.9305 63.1543 58.508 63.5224C59.0855 63.8905 59.7028 63.9547 59.8869 63.666Z" fill="#C19D00"/>
<path d="M62.39 6.08994L56 3.62994C55.9742 3.62341 55.9471 3.62388 55.9215 3.63131C55.8959 3.63873 55.8727 3.65285 55.8544 3.6722C55.836 3.69156 55.8232 3.71545 55.8172 3.74142C55.8111 3.76738 55.8121 3.79449 55.82 3.81994L58.28 10.2099C58.2901 10.2425 58.2901 10.2774 58.28 10.3099L55.82 16.6999C55.8107 16.7251 55.8088 16.7524 55.8145 16.7786C55.8202 16.8047 55.8333 16.8287 55.8523 16.8477C55.8712 16.8667 55.8952 16.8798 55.9214 16.8855C55.9476 16.8912 55.9749 16.8893 56 16.8799L62.39 14.4299H62.5L68.89 16.8799C68.9152 16.8893 68.9425 16.8912 68.9687 16.8855C68.9949 16.8798 69.0189 16.8667 69.0378 16.8477C69.0568 16.8287 69.0699 16.8047 69.0756 16.7786C69.0813 16.7524 69.0794 16.7251 69.07 16.6999L66.61 10.3099C66.6 10.2774 66.6 10.2425 66.61 10.2099L69.07 3.81994C69.078 3.79449 69.079 3.76738 69.0729 3.74142C69.0669 3.71545 69.054 3.69156 69.0357 3.6722C69.0174 3.65285 68.9942 3.63873 68.9686 3.63131C68.943 3.62388 68.9159 3.62341 68.89 3.62994L62.5 6.08994H62.39Z" fill="#EE8BAA"/>
<path d="M58.6 27.29L57.13 24C57.1226 23.9897 57.1129 23.9813 57.1016 23.9755C57.0903 23.9697 57.0777 23.9667 57.065 23.9667C57.0523 23.9667 57.0398 23.9697 57.0285 23.9755C57.0172 23.9813 57.0075 23.9897 57 24L55.53 27.31L52.22 28.79C52.2071 28.7952 52.1959 28.8042 52.1881 28.8158C52.1802 28.8274 52.176 28.841 52.176 28.855C52.176 28.869 52.1802 28.8827 52.1881 28.8943C52.1959 28.9059 52.2071 28.9148 52.22 28.92L55.53 30.4L57 33.77C57.007 33.7825 57.0171 33.793 57.0294 33.8002C57.0417 33.8075 57.0558 33.8113 57.07 33.8113C57.0843 33.8113 57.0984 33.8075 57.1107 33.8002C57.123 33.793 57.1331 33.7825 57.14 33.77L58.61 30.46L62 28.94C62.0104 28.9326 62.0188 28.9229 62.0246 28.9116C62.0304 28.9003 62.0334 28.8877 62.0334 28.875C62.0334 28.8623 62.0304 28.8498 62.0246 28.8385C62.0188 28.8272 62.0104 28.8174 62 28.81L58.68 27.33C58.68 27.33 58.61 27.31 58.6 27.29Z" fill="#FFE375"/>
<path d="M6.48001 65.4801L5.00001 62.1701C4.99309 62.1575 4.98295 62.1471 4.97064 62.1399C4.95833 62.1326 4.9443 62.1288 4.93001 62.1288C4.91572 62.1288 4.90169 62.1326 4.88938 62.1399C4.87707 62.1471 4.86693 62.1575 4.86001 62.1701L3.40001 65.4801L1.0401e-05 67.0001C-0.0124937 67.007 -0.0229164 67.0171 -0.0301742 67.0294C-0.0374319 67.0417 -0.0412598 67.0558 -0.0412598 67.0701C-0.0412598 67.0843 -0.0374319 67.0984 -0.0301742 67.1107C-0.0229164 67.123 -0.0124937 67.1331 1.0401e-05 67.1401L3.36001 68.6001L4.87001 72.0001C4.87742 72.0104 4.88718 72.0188 4.89848 72.0246C4.90978 72.0304 4.92231 72.0334 4.93501 72.0334C4.94772 72.0334 4.96024 72.0304 4.97154 72.0246C4.98284 72.0188 4.9926 72.0104 5.00001 72.0001L6.47001 68.6801L9.78001 67.2101C9.79251 67.2031 9.80294 67.193 9.81019 67.1807C9.81745 67.1684 9.82128 67.1543 9.82128 67.1401C9.82128 67.1258 9.81745 67.1117 9.81019 67.0994C9.80294 67.0871 9.79251 67.077 9.78001 67.0701L6.52001 65.5201C6.50225 65.512 6.48803 65.4978 6.48001 65.4801Z" fill="#B5A2FF"/>
</g>
<defs>
<clipPath id="clip0">
<rect width="72" height="72" fill="white"/>
</clipPath>
</defs>
</svg>
