<svg width="32" height="32" viewBox="0 0 32 32" fill="none" xmlns="http://www.w3.org/2000/svg">
<path d="M16.0003 29.3333C23.3641 29.3333 29.3337 23.3638 29.3337 16C29.3337 8.63616 23.3641 2.66663 16.0003 2.66663C8.63653 2.66663 2.66699 8.63616 2.66699 16C2.66699 23.3638 8.63653 29.3333 16.0003 29.3333Z" fill="#58D1C0"/>
<path d="M24.5997 22.2H7.39974C7.39998 21.5749 7.1563 20.9744 6.72053 20.5261C6.28476 20.0779 5.6913 19.8174 5.06641 19.8V12.2C5.6913 12.1827 6.28476 11.9222 6.72053 11.474C7.1563 11.0257 7.39998 10.4252 7.39974 9.80005H24.5997C24.5995 10.4252 24.8432 11.0257 25.279 11.474C25.7147 11.9222 26.3082 12.1827 26.9331 12.2V19.8C26.3082 19.8174 25.7147 20.0779 25.279 20.5261C24.8432 20.9744 24.5995 21.5749 24.5997 22.2Z" fill="white"/>
<path d="M21.6005 20.9333C21.6005 20.5283 21.2721 20.2 20.8671 20.2C20.4621 20.2 20.1338 20.5283 20.1338 20.9333V23.3866C20.1338 23.7916 20.4621 24.12 20.8671 24.12C21.2721 24.12 21.6005 23.7916 21.6005 23.3866V20.9333Z" fill="#58D1C0"/>
<path d="M21.6005 8.60003C21.6005 8.19502 21.2721 7.8667 20.8671 7.8667C20.4621 7.8667 20.1338 8.19502 20.1338 8.60003V11.0534C20.1338 11.4584 20.4621 11.7867 20.8671 11.7867C21.2721 11.7867 21.6005 11.4584 21.6005 11.0534V8.60003Z" fill="#58D1C0"/>
<path d="M21.6005 14.8C21.6005 14.395 21.2721 14.0667 20.8671 14.0667C20.4621 14.0667 20.1338 14.395 20.1338 14.8V17.2533C20.1338 17.6583 20.4621 17.9867 20.8671 17.9867C21.2721 17.9867 21.6005 17.6583 21.6005 17.2533V14.8Z" fill="#58D1C0"/>
<path d="M17.2668 12.2H9.13346C8.76527 12.2 8.4668 12.4984 8.4668 12.8666V19.08C8.4668 19.4481 8.76527 19.7466 9.13346 19.7466H17.2668C17.635 19.7466 17.9335 19.4481 17.9335 19.08V12.8666C17.9335 12.4984 17.635 12.2 17.2668 12.2Z" fill="#F47FFF"/>
<path d="M26.8002 6.13332L28.8001 5.39999C28.9022 5.3621 28.9902 5.29389 29.0524 5.20451C29.1146 5.11512 29.1479 5.00886 29.1479 4.89999C29.1479 4.79112 29.1146 4.68485 29.0524 4.59547C28.9902 4.50609 28.9022 4.43787 28.8001 4.39999L26.8002 3.73332C26.6581 3.65821 26.5419 3.54206 26.4668 3.39999L25.8002 1.39999C25.7623 1.29792 25.694 1.20989 25.6047 1.14773C25.5153 1.08557 25.409 1.05225 25.3002 1.05225C25.1913 1.05225 25.085 1.08557 24.9956 1.14773C24.9063 1.20989 24.838 1.29792 24.8002 1.39999L24.0668 3.39999C24.0405 3.47738 23.9968 3.54768 23.939 3.60548C23.8812 3.66328 23.8109 3.70702 23.7335 3.73332L21.7335 4.39999C21.6314 4.43787 21.5434 4.50609 21.4812 4.59547C21.4191 4.68485 21.3857 4.79112 21.3857 4.89999C21.3857 5.00886 21.4191 5.11512 21.4812 5.20451C21.5434 5.29389 21.6314 5.3621 21.7335 5.39999L23.7335 6.13332C23.8172 6.14642 23.8946 6.18576 23.9545 6.24567C24.0144 6.30557 24.0537 6.38295 24.0668 6.46665L24.8002 8.46665C24.838 8.56872 24.9063 8.65675 24.9956 8.71891C25.085 8.78108 25.1913 8.8144 25.3002 8.8144C25.409 8.8144 25.5153 8.78108 25.6047 8.71891C25.694 8.65675 25.7623 8.56872 25.8002 8.46665L26.4668 6.46665C26.4931 6.38927 26.5369 6.31896 26.5947 6.26116C26.6525 6.20336 26.7228 6.15962 26.8002 6.13332Z" fill="#7196FF"/>
</svg>
