<svg width="24" height="24" viewBox="0 0 24 24" xmlns="http://www.w3.org/2000/svg">
<path fill-rule="evenodd" clip-rule="evenodd" d="M5.01502 4H18.9851C19.1038 4 19.2001 4.09992 19.2001 4.22305V14.2017C19.2001 14.2714 19.1689 14.336 19.1164 14.3784L12.1314 19.9536C12.0925 19.9849 12.0467 20 12 20C11.9534 20 11.9076 19.9849 11.8687 19.9536L4.8837 14.3784C4.83118 14.336 4.80005 14.2714 4.80005 14.2017V4.22305C4.80005 4.09992 4.89635 4 5.01502 4ZM12.8365 11.0972L16.964 8.38424C17.0679 8.31561 17.1939 8.42966 17.1365 8.54068L15.4251 11.9026C15.3848 11.9833 15.4433 12.0782 15.533 12.0782H16.5576C16.6756 12.0782 16.724 12.2286 16.6282 12.2972L12.0015 15.6147C11.9601 15.645 11.9037 15.645 11.8613 15.6147L7.2346 12.2972C7.1398 12.2286 7.18821 12.0782 7.30519 12.0782H8.32875C8.41951 12.0782 8.478 11.9833 8.43666 11.9026L6.72534 8.53967C6.66886 8.42966 6.79492 8.31662 6.89879 8.38424L11.0273 11.0972C11.0989 11.1446 11.1564 11.2092 11.1947 11.2859L11.824 12.5495C11.8684 12.6383 11.9954 12.6383 12.0398 12.5495L12.6691 11.2859C12.7074 11.2092 12.7649 11.1436 12.8365 11.0972Z" fill="#9C84EF"/>
</svg>
