<svg fill="none" height="94" viewBox="0 0 250 94" width="250" xmlns="http://www.w3.org/2000/svg" xmlns:xlink="http://www.w3.org/1999/xlink"><clipPath id="a"><path d="m0 0h250v94h-250z"/></clipPath><g clip-path="url(#a)"><path d="m96.4769 53.2289c-1.7719-12.6031-13.466-22.229-27.7294-22.229-11.517 0-21.3507 6.3511-25.6917 15.4809-2.111-1.206-4.4521-1.819-6.8216-1.7863-3.8834-.006-7.6206 1.6587-10.4398 4.6505-2.8192 2.9917-4.5051 7.0819-4.7095 11.4259-12.0485.8931-21.0849 4.7633-21.0849 9.229h115.967c.709-8.5344-10.188-15.3817-19.4901-16.771z" fill="#232833"/><path d="m234.9 54.3999c-1.4-8.7-10.5-15.4-21.6-15.4-8.9 0-16.6 4.4-19.9 10.7-1.748-.9113-3.697-1.3664-5.668-1.3229-1.97.0435-3.898.5841-5.604 1.5717-1.706.9875-3.134 2.39-4.153 4.0772-1.019 1.6873-1.595 3.6046-1.675 5.574-9.3.7-16.4 3.3-16.4 6.4h90.1c.5-5.9-7.9-10.6-15.1-11.6z" fill="#232833"/><g fill="#83ddc5"><path d="m221.759 29.3548c-.703-.7029-1.827-.7188-2.51-.0354-.684.6835-.668 1.8073.035 2.5103l1.202 1.2021c.703.7029 1.827.7187 2.51.0353.684-.6834.668-1.8073-.035-2.5102z"/><path d="m231.801 39.3548c-.703-.7029-1.827-.7188-2.51-.0354-.684.6835-.668 1.8073.035 2.5103l1.202 1.2021c.703.7029 1.827.7187 2.51.0353.684-.6834.668-1.8073-.035-2.5102z"/><path d="m232.992 31.7477c.703-.703.719-1.8268.035-2.5103-.683-.6834-1.807-.6675-2.51.0354l-1.202 1.2021c-.703.7029-.719 1.8268-.035 2.5102.683.6834 1.807.6676 2.51-.0354z"/><path d="m222.95 41.7477c.703-.703.718-1.8268.035-2.5103-.683-.6834-1.807-.6675-2.51.0354l-1.202 1.2021c-.703.7029-.719 1.8268-.036 2.5102.684.6834 1.808.6676 2.511-.0354z"/></g><path d="m29.2002 67.5c0-.8284-.6716-1.5-1.5-1.5s-1.5.6716-1.5 1.5v2.79c0 .8284.6716 1.5 1.5 1.5s1.5-.6716 1.5-1.5z" fill="#9cb8ff"/><path d="m29.2002 78.4c0-.8284-.6716-1.5-1.5-1.5s-1.5.6716-1.5 1.5v2.79c0 .8284.6716 1.5 1.5 1.5s1.5-.6716 1.5-1.5z" fill="#9cb8ff"/><path d="m34.5 75.8c.8284 0 1.5-.6715 1.5-1.5 0-.8284-.6716-1.5-1.5-1.5h-2.79c-.8284 0-1.5.6716-1.5 1.5 0 .8285.6716 1.5 1.5 1.5z" fill="#9cb8ff"/><path d="m23.6001 75.9c.8284 0 1.5-.6715 1.5-1.5 0-.8284-.6716-1.5-1.5-1.5h-2.79c-.8284 0-1.5.6716-1.5 1.5 0 .8285.6716 1.5 1.5 1.5z" fill="#9cb8ff"/><path d="m127 21 16.5-3-26 62.5-16.5 3z" fill="#7ba2ff"/><path d="m143.5 18 3 6.5-26.5 62.5-2.5-6.5z" fill="#4070ef"/><path d="m101 83.5 16.5-3 2.5 6.5-16 3z" fill="#133dbd"/><path d="m115.8 48 16.5-3 1.636-4-16.5 3z" fill="#d4e4ff"/><path d="m118.3 42 16.5-3 1.636-4-16.5 3z" fill="#d4e4ff"/><path d="m105.8 72 16.5-3 1.636-4-16.5 3z" fill="#d4e4ff"/><path d="m112 57 16.5-3 1-2-16.5 3z" fill="#d4e4ff"/><path d="m151.059 60.7713 4-1.3628c.249 0 .489-.0957.665-.2661.177-.1704.276-.4014.276-.6424s-.099-.472-.276-.6424c-.176-.1704-.416-.2661-.665-.2661l-4-1.3628c-.167-.0488-.318-.1365-.442-.2553-.123-.1189-.214-.2652-.264-.4261l-1.412-3.8611c-.072-.2005-.207-.3742-.386-.4972-.18-.1229-.394-.189-.614-.189s-.434.0661-.613.189c-.179.123-.315.2967-.387.4972l-1.412 3.8611c-.045.1459-.121.2814-.222.3985-.101.117-.225.2132-.366.2829l-4 1.3628c-.249 0-.489.0957-.665.2661-.177.1704-.276.4014-.276.6424s.099.472.276.6424c.176.1704.416.2661.665.2661l4 1.3628c.141.0697.265.1659.366.2829.101.1171.177.2526.222.3985l1.412 3.8611c.072.2005.208.3742.387.4972.179.1229.393.189.613.189s.434-.0661.614-.189c.179-.123.314-.2967.386-.4972l1.412-3.8611c.05-.1609.141-.3072.264-.4261.124-.1188.275-.2065.442-.2553z" fill="#ffe66b"/><path d="m138.221 77.8628 2.25-.8177c.14 0 .275-.0574.374-.1597.099-.1022.155-.2408.155-.3854s-.056-.2832-.155-.3854c-.099-.1023-.234-.1597-.374-.1597l-2.25-.8177c-.094-.0292-.179-.0819-.249-.1532-.069-.0713-.12-.1591-.148-.2556l-.795-2.3167c-.04-.1203-.116-.2245-.217-.2983s-.221-.1134-.345-.1134-.244.0396-.345.1134-.177.178-.218.2983l-.794 2.3167c-.025.0875-.068.1688-.125.2391-.057.0702-.127.1279-.206.1697l-2.25.8177c-.14 0-.275.0574-.374.1597-.099.1022-.155.2408-.155.3854s.056.2832.155.3854c.099.1023.234.1597.374.1597l2.25.8177c.079.0418.149.0995.206.1697.057.0703.1.1516.125.2391l.794 2.3167c.041.1203.117.2245.218.2983s.221.1134.345.1134.244-.0396.345-.1134.177-.178.217-.2983l.795-2.3167c.028-.0965.079-.1843.148-.2556.07-.0713.155-.124.249-.1532z" fill="#ffe66b"/><path d="m102.985 40.4684 3.25-1.181c.203 0 .398-.083.541-.2306.143-.1477.224-.348.224-.5568s-.081-.4091-.224-.5568c-.143-.1476-.338-.2306-.541-.2306l-3.25-1.181c-.135-.0423-.258-.1183-.358-.2214-.1-.103-.174-.2298-.215-.3692l-1.147-3.3463c-.059-.1737-.169-.3243-.314-.4309-.146-.1065-.32-.1638-.499-.1638-.178 0-.353.0573-.4982.1638-.1456.1066-.2554.2572-.3141.4309l-1.147 3.3463c-.0372.1264-.0986.2439-.1807.3453-.0821.1015-.1832.1849-.2973.2453l-3.25 1.181c-.2028 0-.3973.083-.5407.2306-.1434.1477-.224.348-.224.5568s.0806.4091.224.5568c.1434.1476.3379.2306.5407.2306l3.25 1.181c.1141.0604.2152.1438.2973.2453.0821.1014.1435.2189.1807.3453l1.147 3.3463c.0587.1737.1685.3243.3141.4309.1452.1065.3202.1638.4982.1638.179 0 .353-.0573.499-.1638.145-.1066.255-.2572.314-.4309l1.147-3.3463c.041-.1394.115-.2662.215-.3692.1-.1031.223-.1791.358-.2214z" fill="#ffe66b"/></g></svg>
