<svg width="616" height="200" viewBox="0 0 616 200" fill="none" xmlns="http://www.w3.org/2000/svg">
<path d="M16.7252 31.686L22.9721 29.6026C23.2788 29.462 23.5387 29.2362 23.7209 28.9521C23.9032 28.668 24 28.3376 24 28C24 27.6624 23.9032 27.332 23.7209 27.0479C23.5387 26.7638 23.2788 26.538 22.9721 26.3974L16.7252 24.314C16.2985 24.1213 15.9568 23.7793 15.7641 23.3524L13.5217 17.1022C13.4164 16.7816 13.2125 16.5024 12.9393 16.3045C12.666 16.1066 12.3373 16 12 16C11.6627 16 11.334 16.1066 11.0607 16.3045C10.7875 16.5024 10.5836 16.7816 10.4783 17.1022L8.23586 23.3524C8.04323 23.7793 7.70149 24.1213 7.27479 24.314L1.02791 26.3974C0.721204 26.538 0.461285 26.7638 0.279067 27.0479C0.0968493 27.332 0 27.6624 0 28C0 28.3376 0.0968493 28.668 0.279067 28.9521C0.461285 29.2362 0.721204 29.462 1.02791 29.6026L7.27479 31.686C7.50165 31.7549 7.70806 31.8786 7.87569 32.0464C8.04333 32.2141 8.16704 32.4206 8.23586 32.6476L10.4783 38.8978C10.5836 39.2184 10.7875 39.4976 11.0607 39.6955C11.334 39.8934 11.6627 40 12 40C12.3373 40 12.666 39.8934 12.9393 39.6955C13.2125 39.4976 13.4164 39.2184 13.5217 38.8978L15.7641 32.6476C15.833 32.4206 15.9567 32.2141 16.1243 32.0464C16.2919 31.8786 16.4983 31.7549 16.7252 31.686Z" fill="#FFCB00"/>
<path d="M225.963 5.50924L227.926 1.58311C228.004 1.37227 228.02 1.14336 227.972 0.923583C227.924 0.703806 227.814 0.502409 227.655 0.343313C227.496 0.184217 227.294 0.0741122 227.074 0.0260972C226.855 -0.0219177 226.626 -0.0058264 226.415 0.0724503L222.489 2.03473C222.197 2.14501 221.875 2.14493 221.583 2.0345L217.58 0.145607C217.379 0.0441329 217.152 0.00862209 216.93 0.0441228C216.707 0.0796236 216.502 0.184333 216.343 0.343319C216.184 0.502305 216.08 0.707443 216.044 0.929505C216.009 1.15157 216.044 1.37921 216.146 1.57997L218.034 5.58265C218.145 5.87465 218.145 6.19686 218.035 6.4888L216.072 10.4149C215.994 10.6258 215.978 10.8547 216.026 11.0745C216.074 11.2942 216.184 11.4956 216.343 11.6547C216.502 11.8138 216.704 11.9239 216.924 11.972C217.143 12.02 217.372 12.0039 217.583 11.9256L221.509 9.96332C221.649 9.88884 221.804 9.8499 221.962 9.84994C222.12 9.84998 222.276 9.889 222.415 9.96355L226.418 11.8524C226.619 11.9539 226.846 11.9894 227.069 11.9539C227.291 11.9184 227.496 11.8137 227.655 11.6547C227.814 11.4958 227.918 11.2906 227.954 11.0685C227.989 10.8465 227.954 10.6188 227.852 10.4181L225.964 6.4154C225.889 6.27598 225.85 6.12035 225.85 5.96229C225.85 5.80423 225.889 5.64862 225.963 5.50924Z" fill="#FF98CB"/>
<path d="M606.005 10.1676C606.005 8.97046 605.035 8 603.838 8C602.64 8 601.67 8.97046 601.67 10.1676V12.3713C601.67 13.5684 602.64 14.5389 603.838 14.5389C605.035 14.5389 606.005 13.5684 606.005 12.3713V10.1676Z" fill="#ADF3FF"/>
<path d="M606.005 27.6285C606.005 26.4314 605.035 25.4609 603.838 25.4609C602.641 25.4609 601.67 26.4314 601.67 27.6285V29.8322C601.67 31.0293 602.641 31.9998 603.838 31.9998C605.035 31.9998 606.005 31.0293 606.005 29.8322V27.6285Z" fill="#ADF3FF"/>
<path d="M613.832 22.2097C615.029 22.2097 616 21.2392 616 20.0421C616 18.845 615.029 17.8745 613.832 17.8745H611.628C610.431 17.8745 609.461 18.845 609.461 20.0421C609.461 21.2392 610.431 22.2097 611.628 22.2097H613.832Z" fill="#ADF3FF"/>
<path d="M596.371 22.0895C597.568 22.0895 598.539 21.1191 598.539 19.922C598.539 18.7249 597.568 17.7544 596.371 17.7544H594.168C592.97 17.7544 592 18.7249 592 19.922C592 21.1191 592.97 22.0895 594.168 22.0895H596.371Z" fill="#ADF3FF"/>
<path d="M11.2203 184.628C10.4836 183.889 9.2892 183.889 8.55252 184.628C7.81583 185.367 7.81583 186.566 8.55252 187.305L9.90864 188.665C10.6453 189.404 11.8397 189.404 12.5764 188.665C13.3131 187.926 13.3131 186.728 12.5764 185.989L11.2203 184.628Z" fill="#ADF3FF"/>
<path d="M21.9655 195.409C21.2288 194.67 20.0344 194.67 19.2977 195.409C18.561 196.148 18.561 197.346 19.2977 198.085L20.6538 199.446C21.3905 200.185 22.5849 200.185 23.3216 199.446C24.0583 198.707 24.0583 197.508 23.3216 196.769L21.9655 195.409Z" fill="#ADF3FF"/>
<path d="M23.4475 187.231C24.1842 186.492 24.1842 185.293 23.4475 184.554C22.7108 183.815 21.5164 183.815 20.7797 184.554L19.4236 185.915C18.6869 186.654 18.6869 187.852 19.4236 188.591C20.1603 189.33 21.3547 189.33 22.0914 188.591L23.4475 187.231Z" fill="#ADF3FF"/>
<path d="M12.6284 197.937C13.3651 197.198 13.3651 196 12.6284 195.26C11.8917 194.521 10.6973 194.521 9.96059 195.26L8.60447 196.621C7.86778 197.36 7.86778 198.558 8.60447 199.297C9.34116 200.037 10.5356 200.037 11.2723 199.297L12.6284 197.937Z" fill="#ADF3FF"/>
<path d="M427.15 194.457L431.315 193.068C431.519 192.975 431.692 192.824 431.814 192.635C431.935 192.445 432 192.225 432 192C432 191.775 431.935 191.555 431.814 191.365C431.692 191.176 431.519 191.025 431.315 190.932L427.15 189.543C426.866 189.414 426.638 189.186 426.509 188.902L425.014 184.735C424.944 184.521 424.808 184.335 424.626 184.203C424.444 184.071 424.225 184 424 184C423.775 184 423.556 184.071 423.374 184.203C423.192 184.335 423.056 184.521 422.986 184.735L421.491 188.902C421.362 189.186 421.134 189.414 420.85 189.543L416.685 190.932C416.481 191.025 416.308 191.176 416.186 191.365C416.065 191.555 416 191.775 416 192C416 192.225 416.065 192.445 416.186 192.635C416.308 192.824 416.481 192.975 416.685 193.068L420.85 194.457C421.001 194.503 421.139 194.586 421.25 194.698C421.362 194.809 421.445 194.947 421.491 195.098L422.986 199.265C423.056 199.479 423.192 199.665 423.374 199.797C423.556 199.929 423.775 200 424 200C424.225 200 424.444 199.929 424.626 199.797C424.808 199.665 424.944 199.479 425.014 199.265L426.509 195.098C426.555 194.947 426.638 194.809 426.75 194.698C426.861 194.586 426.999 194.503 427.15 194.457Z" fill="#FFCB00"/>
</svg>
