<svg width="56" height="65" viewBox="0 0 56 65" fill="none" xmlns="http://www.w3.org/2000/svg">
<path d="M49.1077 9H6.89231C5.01879 9 3.5 10.5053 3.5 12.3621V61.6379C3.5 63.4947 5.01879 65 6.89231 65H49.1077C50.9812 65 52.5 63.4947 52.5 61.6379V12.3621C52.5 10.5053 50.9812 9 49.1077 9Z" fill="#4F81FF"/>
<path d="M47.4997 13.8069H8.52588V60.1938H47.4997V13.8069Z" fill="white"/>
<path d="M43.4039 23.3447H33.1265V28.4701H43.4039V23.3447Z" fill="#DAE1EA"/>
<path d="M43.4039 32.6345H33.1265V37.7598H43.4039V32.6345Z" fill="#DAE1EA"/>
<path d="M43.4036 41.9236H12.6216V47.0489H43.4036V41.9236Z" fill="#DAE1EA"/>
<path d="M43.4036 51.2131H12.6216V56.3385H43.4036V51.2131Z" fill="#DAE1EA"/>
<path d="M28 23.3447H12.6216V37.7544H28V23.3447Z" fill="#A8C3FF"/>
<path d="M12.25 16.0002H43.75L42.0515 11.8486C41.435 10.3436 40.3894 9.05692 39.047 8.15157C37.7047 7.24621 36.126 6.76293 34.511 6.76294H21.489C19.874 6.76293 18.2953 7.24621 16.953 8.15157C15.6106 9.05692 14.565 10.3436 13.9485 11.8486L12.25 16.0002Z" fill="#FFD836"/>
<path d="M28.0001 13.2756C31.5676 13.2756 34.4597 10.3597 34.4597 6.76279C34.4597 3.16588 31.5676 0.25 28.0001 0.25C24.4326 0.25 21.5405 3.16588 21.5405 6.76279C21.5405 10.3597 24.4326 13.2756 28.0001 13.2756Z" fill="#FFD836"/>
<path d="M14.0154 45.8399L19.1523 50.9768L41.9923 28.1369L36.8554 23L14.0154 45.8399Z" fill="#ED68AE"/>
<path d="M36.8397 50.9999L41.9766 45.863L19.1366 23.0231L13.9997 28.16L36.8397 50.9999Z" fill="#ED68AE"/>
</svg>
