<svg width="12" height="12" viewBox="0 0 12 12" fill="none" xmlns="http://www.w3.org/2000/svg">
<path d="M8.36261 7.84301L11.486 6.80131C11.6394 6.731 11.7694 6.61811 11.8605 6.47606C11.9516 6.33401 12 6.16878 12 6C12 5.83122 11.9516 5.66599 11.8605 5.52394C11.7694 5.38189 11.6394 5.26901 11.486 5.19869L8.36261 4.15699C8.14925 4.06063 7.97838 3.88967 7.88207 3.6762L6.76084 0.5511C6.70818 0.390784 6.60626 0.251195 6.46964 0.152236C6.33302 0.0532774 6.16866 0 5.99999 0C5.83133 0 5.66698 0.0532774 5.53036 0.152236C5.39374 0.251195 5.29182 0.390784 5.23916 0.5511L4.11793 3.6762C4.02162 3.88967 3.85075 4.06063 3.63739 4.15699L0.513957 5.19869C0.360602 5.26901 0.230643 5.38189 0.139534 5.52394C0.0484247 5.66599 0 5.83122 0 6C0 6.16878 0.0484247 6.33401 0.139534 6.47606C0.230643 6.61811 0.360602 6.731 0.513957 6.80131L3.63739 7.84301C3.75083 7.87744 3.85403 7.93932 3.93785 8.02319C4.02167 8.10705 4.08352 8.2103 4.11793 8.3238L5.23916 11.4489C5.29182 11.6092 5.39374 11.7488 5.53036 11.8478C5.66698 11.9467 5.83133 12 5.99999 12C6.16866 12 6.33302 11.9467 6.46964 11.8478C6.60626 11.7488 6.70818 11.6092 6.76084 11.4489L7.88207 8.3238C7.91648 8.2103 7.97834 8.10705 8.06215 8.02319C8.14597 7.93932 8.24917 7.87744 8.36261 7.84301Z" fill="#FFD01A"/>
</svg>
