<svg width="88" height="80" fill="none" xmlns="http://www.w3.org/2000/svg"><rect x="16" y="12" width="56" height="56" rx="8" fill="#202225"/><path fill-rule="evenodd" clip-rule="evenodd" d="M46.15 23.333H34A6.667 6.667 0 0 0 27.333 30v20A6.667 6.667 0 0 0 34 56.667h20A6.667 6.667 0 0 0 60.667 50V37.85a11.67 11.67 0 0 1-3.334.483c-6.443 0-11.666-5.223-11.666-11.666 0-1.159.168-2.277.483-3.334zM37.333 30a3.335 3.335 0 1 1-.002 6.67 3.335 3.335 0 0 1 .002-6.67zM34 50l5-6.667 3.333 3.334L49 38.333 54 50H34z" fill="#B9BBBE"/><path d="M59 20v5h5v3.333h-5v5h-3.333v-5h-5V25h5v-5H59z" fill="#B9BBBE"/><path d="M83.003 1.084a1.084 1.084 0 0 0-2.168 0v1.102a1.084 1.084 0 1 0 2.168 0V1.084zM83.003 9.814a1.084 1.084 0 0 0-2.168 0v1.102a1.084 1.084 0 1 0 2.168 0V9.814zM86.916 7.105a1.084 1.084 0 1 0 0-2.167h-1.102a1.084 1.084 0 0 0 0 2.167h1.102zM78.186 7.045a1.084 1.084 0 1 0 0-2.167h-1.102a1.084 1.084 0 1 0 0 2.167h1.102z" fill="#5AE6DC"/><path d="m8.363 75.843 3.123-1.042a.881.881 0 0 0 0-1.602l-3.123-1.042a.961.961 0 0 1-.48-.48L6.76 68.55a.802.802 0 0 0-1.522 0l-1.121 3.125a.961.961 0 0 1-.48.481L.513 73.199a.881.881 0 0 0 0 1.602l3.123 1.042a.72.72 0 0 1 .48.48L5.24 79.45a.802.802 0 0 0 1.522 0l1.121-3.125a.72.72 0 0 1 .48-.481z" fill="#FFD01A"/></svg>