<svg width="250" height="120" viewBox="0 0 250 120" fill="none" xmlns="http://www.w3.org/2000/svg">
<path opacity="0.2" d="M63.4 30.7C60.4 19.2 46.9 19.3 42.4 26.4C37.2 22.4 19.2 22.2 21.1 35.8H78.2C75.1 30 69.5 29.5 63.4 30.7Z" fill="#AEC7FF"/>
<path opacity="0.2" d="M108.9 88.6C106.9 75.9 93.7 66.2 77.6 66.2C64.6 66.2 53.5 72.6 48.6 81.8C46.2172 80.5848 43.5746 79.967 40.9 80C36.5165 79.9939 32.2981 81.6715 29.1159 84.6862C25.9337 87.7009 24.0307 91.8226 23.8 96.2C10.2 97.1 0 101 0 105.5H130.9C131.7 96.9 119.4 90 108.9 88.6Z" fill="#AEC7FF"/>
<g style="mix-blend-mode:multiply">
<g style="mix-blend-mode:multiply">
<path d="M98.8 72.5C99.928 74.1104 100.523 76.034 100.5 78V78.3C100.531 78.4733 100.495 78.6518 100.4 78.8V79.3C100.332 79.4223 100.298 79.5602 100.3 79.7C100.305 79.7542 100.298 79.8087 100.281 79.8603C100.264 79.9119 100.236 79.9594 100.2 80V80.3C100.164 80.3406 100.136 80.3881 100.119 80.4397C100.102 80.4913 100.095 80.5458 100.1 80.6C100.032 80.7223 99.9979 80.8602 100 81V81.2L99.8 81.7C99.8 81.8 99.7 81.8 99.7 81.9C99.7 82 99.6 82.2 99.5 82.3C99.4 82.4 99.5 82.5 99.4 82.5L99.2 83C99.2 83.1 99.1 83.1 99.1 83.2L98.9 83.5V83.7H98.8L98.4 84.2L98 84.7V84.9L97.6 85.4H97.4L96.9 86L96.4 86.6H96.2L95.7 87.2H95L97.6 91.8C98.0124 92.4596 98.3479 93.1642 98.6 93.9H98.7C98.6954 93.9542 98.7019 94.0087 98.7191 94.0603C98.7363 94.1119 98.7639 94.1594 98.8 94.2C98.9 94.4 98.9 94.7 99 94.9C99.0432 95.0645 99.0766 95.2315 99.1 95.4C99.1799 95.6293 99.2467 95.8631 99.3 96.1V96.4C99.3784 96.7612 99.412 97.1306 99.4 97.5V97.8C99.4796 97.9173 99.515 98.059 99.5 98.2V98.7C99.5046 98.7542 99.4981 98.8087 99.4809 98.8603C99.4638 98.9119 99.4362 98.9594 99.4 99V100C99.3639 100.041 99.3363 100.088 99.3191 100.14C99.3019 100.191 99.2955 100.246 99.3 100.3V100.6C99.2001 100.9 99.2 101.2 99.1 101.5C98.8888 102.331 98.587 103.135 98.2 103.9C97.7903 104.63 97.286 105.302 96.7 105.9L95.7 106.8L94.1 107.8C93.5046 108.104 92.8624 108.307 92.2 108.4L81.1 111.1L70 115.2H69.8C68.1666 115.5 66.4846 115.397 64.9 114.9C64.1034 114.677 63.3567 114.303 62.7 113.8C61.9691 113.314 61.2978 112.743 60.7 112.1C59.7911 111.807 59.013 111.206 58.5 110.4H57.8L56.5 110.1H56.4L55.1 109.6H55L54.4 109.3H54.2L54 109.1H53.7L53.2 108.7H53L52.6 108.3H52.5C51.2188 107.124 50.197 105.693 49.5 104.1L49.2 103.2C49.1 102.9 49.1 102.7 49 102.4C48.9125 102.074 48.8788 101.737 48.9 101.4V100.5V100.2C48.9976 98.375 49.5106 96.5965 50.4 95L50.6 94.7L50.8 94.4L51 94.2L51.2 93.9C52.0612 92.8196 53.1116 91.9047 54.3 91.2C52.2623 90.8908 50.3573 89.9996 48.814 88.6336C47.2706 87.2677 46.1546 85.485 45.6 83.5L45.3 82.3L44.4 81.7C42.5034 80.4168 41.1219 78.5039 40.5 76.3L39.7 73.4C38.9804 70.8475 39.3042 68.1138 40.6 65.8L40.3 64.6C39.8857 63.239 39.7606 61.8064 39.9328 60.3942C40.105 58.982 40.5707 57.6215 41.3 56.4C41.9756 55.1682 42.8893 54.083 43.988 53.2075C45.0867 52.3319 46.3485 51.6835 47.7 51.3L54 49.6C54.0598 49.0072 54.2293 48.4307 54.5 47.9C54.6818 47.2495 55.0108 46.6495 55.4617 46.1466C55.9126 45.6437 56.4732 45.2514 57.1 45L69.3 41.6H69.7C70.4851 41.4101 71.3083 41.4505 72.071 41.7166C72.8337 41.9826 73.5034 42.463 74 43.1L79 41.7L79.7 41.5C82.372 40.9397 85.1569 41.4121 87.4946 42.8222C89.8323 44.2322 91.5493 46.4752 92.3 49.1L92.6 50.4C93.7564 51.0093 94.7776 51.846 95.6024 52.8599C96.4273 53.8738 97.0387 55.0439 97.4 56.3V56.8C97.4 56.9 97.4 56.9 97.5 56.9L98.1 59.2C98.8197 61.7524 98.4959 64.4862 97.2 66.8L97.5 68.1C97.836 69.2002 97.9715 70.3518 97.9 71.5C98.2557 71.7787 98.5602 72.117 98.8 72.5Z" fill="#C7CCD1"/>
</g>
</g>
<path d="M97.8 71C98.9264 72.5735 99.5219 74.465 99.5 76.4V76.7C99.5155 76.8728 99.4808 77.0465 99.4 77.2V77.7C99.3 77.8 99.3 77.9 99.3 78.1V78.6C99.2204 78.7173 99.185 78.859 99.2 79C99.1638 79.0406 99.1363 79.0881 99.1191 79.1397C99.1019 79.1913 99.0954 79.2458 99.1 79.3V79.5L98.9 80C98.8937 80.0771 98.8578 80.1487 98.8 80.2C98.7727 80.3496 98.7033 80.4884 98.6 80.6V80.8C98.6 80.8776 98.5819 80.9542 98.5472 81.0236C98.5125 81.093 98.4621 81.1534 98.4 81.2H98L97.8 81.5H97.7V81.7H97.6L97.3 82.2H97.2L96.9 82.7V82.9C96.7 83 96.6 83.2 96.4 83.4H96.3L95.8 84C95.6 84.2 95.4 84.3 95.3 84.5H95.2L94.6 85H94.2L96.8 89.5C97.1599 90.1381 97.4611 90.8075 97.7 91.5V93V93.2C97.8004 93.4223 97.8678 93.6582 97.9 93.9L98.1 94.4C98.0915 94.6374 98.1253 94.8745 98.2 95.1C98.2 95.3 98.2 95.4 98.3 95.5C98.2835 95.8695 98.3172 96.2395 98.4 96.6V97V98.3C98.4 98.5 98.3 98.6 98.3 98.8V99.1V99.4C98.2638 99.4406 98.2363 99.4881 98.2191 99.5397C98.2019 99.5913 98.1954 99.6458 98.2 99.7C98.2 100 98.1 100.3 98.1 100.5C97.9052 101.336 97.6027 102.142 97.2 102.9C96.7903 103.63 96.2859 104.302 95.7 104.9L94.7 105.7L93.1 106.7C92.5753 107.003 91.9989 107.207 91.4 107.3L80.6 110L69.8 112.7H69.5C67.9462 113.082 66.3156 113.013 64.8 112.5L62.6 111.4C61.9207 110.887 61.2852 110.318 60.7 109.7C59.8198 109.402 59.075 108.799 58.6 108H57.9C57.45 107.996 57.0064 107.893 56.6 107.7H56.5L55.3 107.2H55.1L54.6 106.9H54.4L54.1 106.7H53.9C53.694 106.625 53.5183 106.485 53.4 106.3H53.2C53.1 106.2 52.9 106.1 52.8 105.9H52.7C51.397 104.805 50.3982 103.393 49.8 101.8L49.5 100.9C49.4 100.7 49.4 100.4 49.3 100.1C49.3 99.8 49.2 99.5 49.2 99.1V98.2V97.9C49.2836 96.1358 49.7986 94.4189 50.7 92.9L50.9 92.6C50.9 92.5 51 92.5 51.1 92.4L51.3 92.2C51.3 92.1 51.4 92 51.5 91.9C52.3307 90.8554 53.3479 89.9739 54.5 89.3C52.387 88.9687 50.4275 87.9941 48.8886 86.5088C47.3496 85.0235 46.306 83.0999 45.9 81L45.6 79.8L44.8 79.3C42.928 78.0356 41.5503 76.1634 40.9 74L40.1 71.1C39.7606 69.8793 39.6742 68.6021 39.8462 67.3467C40.0181 66.0914 40.4448 64.8845 41.1 63.8L40.7 62.5C40.0117 59.8365 40.3757 57.0102 41.7164 54.608C43.0572 52.2058 45.2716 50.4124 47.9 49.6L54.1 47.9C54.1112 47.33 54.2847 46.775 54.6 46.3C55.1649 45.2922 56.0959 44.5403 57.2 44.2L69.1 40.9H69.5C70.2798 40.7288 71.0926 40.789 71.8387 41.0732C72.5848 41.3575 73.2317 41.8533 73.7 42.5L78.6 41L79.2 40.8C81.8046 40.2661 84.5149 40.7305 86.7932 42.1012C89.0715 43.4718 90.7515 45.6487 91.5 48.2L91.8 49.5C92.938 50.0945 93.9421 50.9159 94.7504 51.9134C95.5588 52.9109 96.1542 54.0635 96.5 55.3V55.8L97.2 58C97.536 59.2377 97.6207 60.5302 97.449 61.8012C97.2772 63.0722 96.8525 64.2959 96.2 65.4L96.6 66.6C96.8808 67.6771 97.0154 68.787 97 69.9C97.3341 70.2125 97.6056 70.5858 97.8 71Z" fill="#F8F9F9"/>
<path d="M88.4 86.9C87.9015 87.0178 87.3793 86.9858 86.8989 86.8079C86.4186 86.6299 86.0015 86.3141 85.7 85.9C85.3015 85.3256 85.1414 84.619 85.2533 83.9289C85.3652 83.2388 85.7404 82.6191 86.3 82.2C90.8 78.9 91.6 76.4 91.1 75.7C90.7118 75.1136 90.5678 74.3988 90.6985 73.7078C90.8293 73.0168 91.2244 72.4041 91.8 72C92.3708 71.6172 93.0698 71.476 93.7444 71.6071C94.419 71.7383 95.0143 72.1312 95.4 72.7C96.7 74.5 98.7 79.5 89.4 86.4C89.1244 86.6632 88.7759 86.8374 88.4 86.9Z" fill="#4086EA"/>
<path d="M96.5 76.3C95.7 70.8 89.8 71.7 81.7 73.3V73.6C81.8115 73.933 81.9894 74.2399 82.2228 74.5022C82.4563 74.7645 82.7404 74.9769 83.0581 75.1264C83.3759 75.2759 83.7206 75.3595 84.0715 75.3722C84.4224 75.3848 84.7723 75.3262 85.1 75.2C86.3 74.8 89.9 74 91.1 75.7C92.3 77.4 90.8 78.9 86.3 82.2C85.7404 82.6191 85.3652 83.2388 85.2533 83.9289C85.1414 84.619 85.3015 85.3256 85.7 85.9C86.0014 86.3141 86.4185 86.63 86.8989 86.8079C87.3792 86.9858 87.9015 87.0178 88.4 86.9C88.7759 86.8374 89.1243 86.6632 89.4 86.4C95 82.3 96.5 78.8 96.5 76.3Z" fill="#0654B5"/>
<path d="M55.6 101.9C54.9912 102.038 54.3531 101.952 53.8023 101.658C53.2514 101.365 52.8247 100.882 52.6 100.3C51.9198 98.5175 51.9445 96.5427 52.6691 94.7778C53.3936 93.0129 54.7636 91.5904 56.5 90.8L63.8 87.4C64.1152 87.2555 64.4557 87.1746 64.8022 87.1617C65.1487 87.1489 65.4943 87.2044 65.8193 87.3251C66.1443 87.4458 66.4423 87.6294 66.6964 87.8653C66.9504 88.1012 67.1556 88.3848 67.3 88.7C67.4445 89.0152 67.5254 89.3557 67.5383 89.7022C67.5511 90.0486 67.4956 90.3942 67.3749 90.7192C67.2542 91.0442 67.0706 91.3423 66.8347 91.5963C66.5988 91.8504 66.3152 92.0555 66 92.2L58.7 95.5C58.1699 95.7415 57.7513 96.1752 57.5285 96.7135C57.3058 97.2518 57.2956 97.8545 57.5 98.4C57.7329 99.051 57.7071 99.7665 57.428 100.399C57.1489 101.032 56.6378 101.533 56 101.8L55.6 101.9Z" fill="#4086EA"/>
<path d="M61.5 91.5C58.8 92.6 56.9 94.5 57.3 97.7C57.2965 97.2374 57.4268 96.7836 57.6752 96.3933C57.9236 96.0029 58.2795 95.6927 58.7 95.5L64.4 92.9C63.7 91.8 62.7 91 61.5 91.5Z" fill="#0654B5"/>
<path d="M88.7 82.7C88.2417 81.9536 87.5615 81.3692 86.7546 81.0285C85.9477 80.6879 85.0545 80.6079 84.2 80.8L64 85.7C63.1693 85.9136 62.4293 86.3885 61.8892 87.0547C61.349 87.7209 61.0373 88.5431 61 89.4L60.5 100.4C60.4092 103.088 61.2976 105.718 63 107.8C63.7374 108.658 64.6957 109.298 65.771 109.651C66.8462 110.003 67.9975 110.055 69.1 109.8L90.8 104.5C91.8867 104.227 92.879 103.664 93.6714 102.871C94.4638 102.079 95.0266 101.087 95.3 100C95.8596 97.3405 95.4331 94.5683 94.1 92.2L88.7 82.7Z" fill="#FF7259"/>
<path d="M63 107.8C63.7374 108.658 64.6957 109.298 65.771 109.651C66.8462 110.003 67.9975 110.055 69.1 109.8L90.8 104.5C91.8867 104.227 92.879 103.664 93.6714 102.871C94.4638 102.079 95.0266 101.087 95.3 100C95.7212 98.0013 95.5828 95.9251 94.9 94L60.6 102.3C60.8479 104.328 61.682 106.239 63 107.8Z" fill="#ED4C4C"/>
<path d="M92 99.4L65.6 105.8C64.2868 106.169 62.8931 106.134 61.6 105.7C62 106.4 62.5 107.1 63 107.8C63.7374 108.658 64.6957 109.298 65.771 109.651C66.8462 110.003 67.9975 110.055 69.1 109.8L90.8 104.5C91.8867 104.227 92.879 103.664 93.6714 102.871C94.4638 102.079 95.0266 101.087 95.3 100C95.4123 99.1709 95.479 98.3364 95.5 97.5C94.5419 98.4588 93.326 99.1189 92 99.4Z" fill="#ED4C4C"/>
<path d="M79.3973 43.8351L48.7837 52.4402C44.7961 53.561 42.4721 57.7023 43.593 61.6899L48.7885 80.1735C49.9094 84.1611 54.0506 86.4851 58.0382 85.3642L88.6518 76.7591C92.6394 75.6383 94.9633 71.497 93.8425 67.5094L88.647 49.0258C87.5261 45.0382 83.3849 42.7142 79.3973 43.8351Z" fill="#FF7259"/>
<path d="M92.9 64.3L93.8 67.5C94.0739 68.4521 94.1565 69.449 94.043 70.4331C93.9295 71.4173 93.6221 72.3692 93.1386 73.2339C92.6551 74.0986 92.0051 74.859 91.2261 75.4711C90.4471 76.0831 89.5546 76.5348 88.6 76.8L58 85.4C57.0545 85.6727 56.0641 85.7541 55.0867 85.6394C54.1094 85.5247 53.1647 85.2162 52.308 84.732C51.4513 84.2478 50.6998 83.5976 50.0975 82.8194C49.4951 82.0412 49.054 81.1507 48.8 80.2L47.9 77C48.154 77.9507 48.5951 78.8412 49.1975 79.6194C49.7998 80.3976 50.5513 81.0478 51.408 81.532C52.2647 82.0162 53.2094 82.3247 54.1867 82.4394C55.1641 82.5541 56.1545 82.4727 57.1 82.2L87.8 73.6C88.7455 73.3242 89.6275 72.8649 90.3955 72.2483C91.1635 71.6317 91.8025 70.8698 92.2761 70.0062C92.7497 69.1427 93.0485 68.1943 93.1556 67.2152C93.2626 66.2361 93.1758 65.2455 92.9 64.3Z" fill="#ED4C4C"/>
<path d="M68.3643 76.9969L75.2957 75.0485C75.7042 74.9337 76.1416 74.9859 76.5117 75.1935C76.8817 75.4012 77.1542 75.7474 77.269 76.1559L78.2702 79.7178L68.3545 82.505L67.3533 78.9431C67.2422 78.5509 67.285 78.1312 67.4729 77.7695C67.6608 77.4078 67.9796 77.1315 68.3643 76.9969Z" fill="#FFDC53"/>
<path d="M77.3427 76.4906L67.427 79.2778L68.3254 82.4739L78.2411 79.6867L77.3427 76.4906Z" fill="#F9B300"/>
<path d="M93.1 64.9L89.4 51.6C90.4047 51.9669 91.3086 52.5657 92.0384 53.3476C92.7681 54.1295 93.3032 55.0725 93.6 56.1L94.4 58.9C94.6944 59.9298 94.7298 61.0164 94.503 62.0632C94.2762 63.1099 93.7943 64.0844 93.1 64.9Z" fill="#FFDC53"/>
<path d="M93.8 56.7L94.4 58.9C94.6944 59.9298 94.7298 61.0164 94.503 62.0631C94.2762 63.1099 93.7943 64.0844 93.1 64.9L91.9 60.7C93.4 59.5 94.1 58 93.8 56.7Z" fill="#F9B300"/>
<path d="M48 77.6L44.3 64.3C43.6058 65.1156 43.1238 66.0901 42.897 67.1368C42.6702 68.1836 42.7056 69.2702 43 70.3L43.8 73.1C44.0969 74.1275 44.6319 75.0705 45.3617 75.8524C46.0915 76.6343 46.9954 77.2331 48 77.6Z" fill="#FFDC53"/>
<path d="M46.8001 73.4L48.0001 77.6C46.9954 77.2331 46.0915 76.6343 45.3617 75.8524C44.632 75.0705 44.0969 74.1275 43.8001 73.1L43.2001 70.9C43.5001 72.2 44.9001 73.1 46.8001 73.4Z" fill="#F9B300"/>
<path d="M58.0176 47.1843L69.955 43.8289C70.2869 43.7356 70.6423 43.778 70.943 43.9467C71.2436 44.1154 71.465 44.3967 71.5583 44.7286L71.9101 45.9801L57.4697 50.0391L57.1179 48.7876C57.0246 48.4557 57.067 48.1003 57.2357 47.7996C57.4044 47.4989 57.6857 47.2776 58.0176 47.1843Z" fill="#70A9FA"/>
<path d="M59.8656 46.5814L70.0701 43.713C70.3765 43.6269 70.7045 43.666 70.9821 43.8217C71.2596 43.9775 71.4639 44.2371 71.55 44.5435L71.9289 45.8913L59.4139 49.4091L59.035 48.0613C58.9489 47.7549 58.988 47.4269 59.1438 47.1493C59.2995 46.8718 59.5592 46.6675 59.8656 46.5814Z" fill="#4086EA"/>
<path d="M79.7761 49.7862L53.5908 57.1465C51.5705 57.7144 50.393 59.8126 50.9609 61.833L54.1405 73.1446C54.7084 75.165 56.8066 76.3425 58.827 75.7746L85.0122 68.4142C87.0326 67.8463 88.21 65.7481 87.6421 63.7277L84.4626 52.4161C83.8947 50.3957 81.7964 49.2183 79.7761 49.7862Z" fill="#ED4C4C"/>
<path d="M79.5671 49.0701L53.3819 56.4305C51.3615 56.9984 50.184 59.0966 50.7519 61.117L53.9315 72.4286C54.4994 74.449 56.5976 75.6265 58.618 75.0585L84.8032 67.6982C86.8236 67.1303 88.001 65.0321 87.4331 63.0117L84.2536 51.7001C83.6857 49.6797 81.5875 48.5022 79.5671 49.0701Z" fill="black"/>
<path d="M61.7183 61.5022L56.2309 63.0446C55.9119 63.1343 55.7224 63.4527 55.8076 63.7557C55.8927 64.0588 56.2204 64.2318 56.5394 64.1421L62.0268 62.5997C62.3458 62.51 62.5353 62.1916 62.4501 61.8886C62.3649 61.5855 62.0373 61.4125 61.7183 61.5022Z" fill="#FFF0A6"/>
<path d="M75.2248 58.8415L81.0972 57.1908C81.4162 57.1011 81.6057 56.7828 81.5206 56.4797C81.4354 56.1767 81.1077 56.0037 80.7887 56.0933L74.9163 57.744C74.5973 57.8337 74.4077 58.152 74.4929 58.4551C74.5781 58.7582 74.9058 58.9311 75.2248 58.8415Z" fill="#FFF0A6"/>
<path d="M79.2 82L69.1 84.5L69.4 91.8C69.4115 91.9674 69.4581 92.1305 69.5366 92.2787C69.6151 92.427 69.7238 92.5572 69.8557 92.6609C69.9877 92.7645 70.1399 92.8393 70.3025 92.8805C70.4651 92.9217 70.6346 92.9284 70.8 92.9L81.5 90.3C81.664 90.2596 81.8164 90.1821 81.9456 90.0733C82.0748 89.9645 82.1772 89.8275 82.2449 89.6728C82.3126 89.5181 82.3437 89.3498 82.3359 89.1811C82.3281 89.0125 82.2816 88.8478 82.2 88.7L79.2 82Z" fill="#FFDC53"/>
<path d="M68.1 65.5C68.8114 64.3146 69.8876 63.3915 71.1675 62.8687C72.4473 62.3459 73.8621 62.2517 75.2 62.6" stroke="#FFF0A6" stroke-width="0.917356" stroke-linecap="round" stroke-linejoin="round"/>
<path d="M64.2 105.9C63.9175 105.94 63.6307 105.868 63.4 105.7L61 103.2C60.9062 103.047 60.8667 102.866 60.8879 102.688C60.909 102.51 60.9896 102.344 61.1166 102.217C61.2437 102.09 61.4097 102.009 61.5881 101.988C61.7665 101.967 61.9468 102.006 62.1 102.1L64.6 104.6C64.7407 104.749 64.8191 104.945 64.8191 105.15C64.8191 105.355 64.7407 105.551 64.6 105.7L64.2 105.9Z" fill="#22262E"/>
<path d="M62 106.9H61.9C61.6776 106.901 61.4626 106.82 61.2965 106.673C61.1303 106.525 61.0247 106.321 61 106.1L60.8 102.7C60.7984 102.504 60.8688 102.314 60.9979 102.167C61.1269 102.019 61.3055 101.924 61.5 101.9C61.6051 101.886 61.7121 101.893 61.8145 101.921C61.9169 101.949 62.0128 101.996 62.0965 102.062C62.1803 102.127 62.2503 102.208 62.3023 102.3C62.3544 102.393 62.3876 102.495 62.4 102.6L62.6 106C62.611 106.195 62.5585 106.388 62.4502 106.55C62.342 106.713 62.184 106.835 62 106.9Z" fill="#22262E"/>
<path d="M61.1 105.1H58.9C57.5136 104.946 56.1952 104.418 55.0856 103.572C53.9759 102.727 53.1168 101.596 52.6 100.3C52.4714 99.9786 52.4083 99.6348 52.4143 99.2888C52.4204 98.9427 52.4954 98.6013 52.6352 98.2846C52.7749 97.9679 52.9764 97.6823 53.2279 97.4446C53.4795 97.2068 53.776 97.0217 54.1 96.9C54.751 96.6672 55.4666 96.6929 56.0991 96.972C56.7317 97.2511 57.2331 97.7622 57.5 98.4C57.646 98.8019 57.9011 99.1552 58.2367 99.4202C58.5723 99.6852 58.9752 99.8513 59.4 99.9H60.7C61.0418 99.9253 61.3752 100.018 61.6811 100.172C61.987 100.327 62.2593 100.541 62.4823 100.801C62.7054 101.061 62.8748 101.363 62.9808 101.689C63.0868 102.015 63.1273 102.358 63.1 102.7C63.0888 103.268 62.8846 103.815 62.5211 104.251C62.1576 104.687 61.6564 104.987 61.1 105.1Z" fill="#4086EA"/>
<path d="M81.6 75.9C81.4349 75.9417 81.2608 75.9296 81.1031 75.8655C80.9453 75.8014 80.8122 75.6886 80.7229 75.5436C80.6337 75.3986 80.593 75.2289 80.6069 75.0592C80.6208 74.8895 80.6884 74.7286 80.8 74.6L83.2 72.3C83.2632 72.1968 83.3489 72.1093 83.4508 72.0441C83.5527 71.9788 83.668 71.9375 83.7881 71.9233C83.9082 71.909 84.03 71.9222 84.1443 71.9618C84.2586 72.0015 84.3625 72.0665 84.448 72.152C84.5335 72.2376 84.5986 72.3414 84.6382 72.4557C84.6778 72.57 84.691 72.6918 84.6767 72.8119C84.6625 72.932 84.6212 73.0474 84.5559 73.1492C84.4907 73.2511 84.4032 73.3368 84.3 73.4L81.9 75.7L81.6 75.9Z" fill="#22262E"/>
<path d="M84 73.6H83.4L80.4 72.2C80.3074 72.1481 80.2262 72.0783 80.1609 71.9946C80.0956 71.911 80.0476 71.8152 80.0196 71.7128C79.9917 71.6105 79.9845 71.5035 79.9982 71.3983C80.012 71.2931 80.0466 71.1917 80.1 71.1C80.1418 71.0107 80.2019 70.9313 80.2765 70.8669C80.3511 70.8025 80.4385 70.7545 80.5328 70.7262C80.6272 70.6979 80.7266 70.6898 80.8243 70.7026C80.922 70.7153 81.016 70.7485 81.1 70.8L84.1 72.2C84.201 72.2429 84.2922 72.3061 84.3678 72.3858C84.4433 72.4655 84.5017 72.5598 84.5392 72.663C84.5767 72.7662 84.5926 72.876 84.5859 72.9856C84.5791 73.0952 84.5499 73.2022 84.5 73.3C84.3668 73.4475 84.1928 73.5519 84 73.6Z" fill="#22262E"/>
<path d="M84.0001 73.6H80.5001C80.4001 73.6144 80.2982 73.6071 80.2014 73.5784C80.1046 73.5498 80.0151 73.5005 79.9391 73.434C79.8631 73.3675 79.8024 73.2853 79.7611 73.1932C79.7198 73.101 79.699 73.001 79.7001 72.9C79.6856 72.8 79.693 72.6982 79.7216 72.6013C79.7503 72.5045 79.7996 72.415 79.8661 72.339C79.9326 72.263 80.0147 72.2023 80.1069 72.161C80.1991 72.1198 80.2991 72.099 80.4001 72.1H83.7001C83.8052 72.086 83.9122 72.0931 84.0146 72.1208C84.117 72.1486 84.2129 72.1964 84.2966 72.2615C84.3804 72.3267 84.4504 72.4078 84.5024 72.5003C84.5545 72.5927 84.5877 72.6946 84.6001 72.8C84.5904 72.9777 84.5282 73.1486 84.4214 73.291C84.3146 73.4334 84.168 73.5409 84.0001 73.6Z" fill="#22262E"/>
<path d="M93.9 76.7C93.387 76.8396 92.8436 76.8185 92.343 76.6397C91.8423 76.4609 91.4085 76.1329 91.1 75.7C89.9 74 86.3 74.8 85.1 75.2C84.7723 75.3262 84.4225 75.3848 84.0716 75.3721C83.7206 75.3595 83.3759 75.2759 83.0582 75.1264C82.7405 74.9768 82.4563 74.7645 82.2229 74.5022C81.9895 74.2398 81.8116 73.9329 81.7 73.6C81.5022 72.9495 81.5572 72.2484 81.8538 71.6367C82.1504 71.0249 82.6668 70.5476 83.3 70.3C86.4 69.2 92.4 68.4 95.4 72.7C95.6079 72.9717 95.7578 73.2832 95.8404 73.6152C95.9231 73.9472 95.9367 74.2926 95.8804 74.6301C95.8242 74.9675 95.6993 75.2899 95.5134 75.5771C95.3276 75.8643 95.0848 76.1104 94.8 76.3C94.543 76.5144 94.2314 76.6529 93.9 76.7Z" fill="#4086EA"/>
<path d="M52.2 99C52.2734 99.4495 52.408 99.8869 52.5999 100.3C53.1168 101.596 53.9759 102.727 55.0855 103.572C56.1951 104.418 57.5135 104.946 58.9 105.1H61.0999C61.6402 104.991 62.1293 104.706 62.491 104.29C62.8527 103.874 63.0668 103.35 63.0999 102.8C56.8999 103.8 52.8 100.9 52.2 99Z" fill="#0654B5"/>
<path d="M95.9 74.3C94 71.1 88.6 71.9 81.7 73.3V73.6C81.8115 73.933 81.9894 74.2399 82.2228 74.5022C82.4563 74.7645 82.7404 74.9769 83.0581 75.1264C83.3759 75.2759 83.7206 75.3595 84.0715 75.3722C84.4224 75.3848 84.7723 75.3262 85.1 75.2C86.3 74.8 89.9 74 91.1 75.7L93.2 78.9L96.1 76L95.9 74.3Z" fill="#0654B5"/>
<path d="M52.1 97.5V98.2C52.8452 97.5936 53.7721 97.2543 54.7327 97.2362C55.6934 97.218 56.6324 97.5222 57.4 98.1V97.7C56.717 96.9823 55.7807 96.5598 54.7906 96.5224C53.8006 96.4851 52.8351 96.8358 52.1 97.5Z" fill="black"/>
<path d="M58.3 89.9L57.8 90.2C58.5793 90.725 59.179 91.4759 59.5187 92.3519C59.8584 93.2279 59.9217 94.1869 59.7001 95.1L60.2001 94.8C60.6001 92.3 59.8 90.7 58.3 89.9Z" fill="black"/>
<path d="M58.1 99.3C57.5681 99.2459 57.0314 99.3349 56.5454 99.5578C56.0594 99.7807 55.6418 100.13 55.3359 100.568C55.03 101.007 54.8468 101.519 54.8053 102.052C54.7638 102.585 54.8656 103.119 55.1 103.6L55.8 104.1C55.1 101.5 55.9 100.2 58.3 99.5L58.1 99.3Z" fill="black"/>
<path d="M53.5999 93.1L53.2 93.6C55.3 92.2 57.7 94.8 57.9 96.1L58.2 95.8C58.171 95.2727 58.0121 94.7607 57.7372 94.3097C57.4623 93.8587 57.0801 93.4828 56.6246 93.2154C56.1691 92.9481 55.6545 92.7976 55.1268 92.7775C54.599 92.7573 54.0745 92.8681 53.5999 93.1Z" fill="black"/>
<path d="M92.3 84C91.5 80.5 89.9 80.2 88.8 80.1L88.4 80.5C91.3 81.1 91.9 84.4 91.9 84.4L92.3 84Z" fill="black"/>
<path d="M90.9 77.3L90.7 77.9C93.4 77.8 94.8 78.8 95.3 80.4L95.7 79.6C94.2 77.4 92.7 76.8 90.9 77.3Z" fill="black"/>
<path d="M86.8 69.5H86C85.6 71 85.8 73.4 87.2 74.6H87.7C86.739 73.0853 86.4156 71.2522 86.8 69.5Z" fill="black"/>
<path d="M90.2 75C91.044 73.4316 91.6506 71.7465 92 70L92.7 70.3C92.4172 72.0796 91.7704 73.7817 90.8 75.3L90.2 75Z" fill="black"/>
<path opacity="0.2" d="M234.9 32.5C233.5 23.8 224.4 17.1 213.3 17.1C204.4 17.1 196.7 21.5 193.4 27.8C191.652 26.8887 189.703 26.4337 187.732 26.4772C185.762 26.5206 183.834 27.0613 182.128 28.0488C180.423 29.0364 178.994 30.4388 177.975 32.1261C176.956 33.8133 176.38 35.7306 176.3 37.7C167 38.4 159.9 41 159.9 44.1H250C250.5 38.2 242.1 33.5 234.9 32.5Z" fill="#AEC7FF"/>
<g style="mix-blend-mode:multiply">
<path d="M225.8 92.6C227.211 95.3423 227.601 98.4968 226.9 101.5C226.22 104.579 224.513 107.334 222.06 109.315C219.606 111.296 216.553 112.384 213.4 112.4L210.5 112.1L170.1 103.3C168.327 102.921 166.646 102.195 165.153 101.166C163.66 100.136 162.385 98.8227 161.4 97.3C160.422 95.7739 159.759 94.0677 159.45 92.2817C159.141 90.4958 159.192 88.666 159.6 86.9C160.225 83.9173 161.847 81.2366 164.2 79.3C162.871 76.4957 162.519 73.3275 163.2 70.3C163.991 66.7582 166.144 63.6703 169.195 61.7051C172.246 59.7399 175.948 59.0554 179.5 59.8L182.3 60.4C182.3 59.9 182.4 59.3 182.4 58.8C183.2 41.2 186.7 32.7 192.8 32.7H193.1C197.3 33 199.3 37.2 200.2 40.8C201.1 44.4 201.5 50.1 201.3 57C203.134 52.3403 205.447 47.8831 208.2 43.7C211.1 39.8 213.8 37.9 216.6 37.9C217.353 37.8784 218.103 38.0146 218.8 38.3C222.7 39.9 223.2 44.5 222.9 48.2C222.6 51.9 220.8 58.8 217.8 66.4L217.2 67.9L220 68.5C223.552 69.3349 226.638 71.5236 228.6 74.6C229.597 76.0989 230.28 77.7846 230.607 79.5551C230.933 81.3256 230.897 83.144 230.5 84.9C229.863 87.9297 228.203 90.6482 225.8 92.6Z" fill="#C7CCD1"/>
</g>
<path d="M225.3 88.8C226.63 91.4611 226.984 94.5047 226.3 97.4C225.932 99.0941 225.235 100.699 224.247 102.124C223.259 103.548 222 104.764 220.542 105.702C219.084 106.64 217.456 107.281 215.75 107.59C214.044 107.898 212.294 107.868 210.6 107.5L171.6 99.1C168.177 98.3367 165.194 96.2521 163.3 93.3C161.552 90.5691 160.861 87.2935 161.358 84.0892C161.855 80.8849 163.506 77.9726 166 75.9C164.67 73.239 164.316 70.1953 165 67.3C165.656 64.3626 167.289 61.7347 169.633 59.8456C171.976 57.9566 174.89 56.9181 177.9 56.9C178.842 56.8959 179.781 56.9965 180.7 57.2L183.4 57.8C183.38 57.2647 183.414 56.7287 183.5 56.2C184.3 39.3 187.6 31.1 193.5 31.1H193.8C197.9 31.3 199.8 35.4 200.6 38.8C201.622 43.933 201.991 49.1745 201.7 54.4C203.465 49.9356 205.711 45.6771 208.4 41.7C211.1 37.9 213.8 36.1 216.5 36.1C217.189 36.0785 217.873 36.2154 218.5 36.5C222.3 38 222.8 42.5 222.5 46C222.2 49.5 220.5 56.2 217.6 63.6L217 65L219.7 65.6C223.123 66.3634 226.106 68.4479 228 71.4C229.748 74.1309 230.439 77.4065 229.942 80.6108C229.445 83.8151 227.794 86.7274 225.3 88.8Z" fill="#F8F9F9"/>
<path d="M219.047 68.4733L180.048 60.0414C174.542 58.8509 169.113 62.3494 167.922 67.8555L167.912 67.9044C166.721 73.4105 170.22 78.8391 175.726 80.0296L214.725 88.4614C220.231 89.6519 225.66 86.1534 226.85 80.6473L226.861 80.5984C228.051 75.0923 224.553 69.6637 219.047 68.4733Z" fill="#FF7ABC"/>
<path d="M215.642 84.4934L176.643 76.0615C171.137 74.8711 165.709 78.3696 164.518 83.8757L164.508 83.9245C163.317 89.4306 166.816 94.8593 172.322 96.0497L211.321 104.482C216.827 105.672 222.255 102.174 223.446 96.6674L223.456 96.6186C224.647 91.1125 221.148 85.6839 215.642 84.4934Z" fill="#FF7ABC"/>
<path d="M206.735 82.7615C207.294 81.6827 207.112 80.4786 206.327 80.0719C205.543 79.6653 204.453 80.2101 203.894 81.2888C203.335 82.3675 203.518 83.5717 204.302 83.9783C205.087 84.385 206.176 83.8402 206.735 82.7615Z" fill="#1B1926"/>
<path d="M187.046 80.2084C187.929 80.1621 188.593 79.141 188.529 77.9277C188.466 76.7143 187.699 75.7682 186.816 75.8144C185.934 75.8607 185.27 76.8818 185.334 78.0951C185.397 79.3085 186.164 80.2546 187.046 80.2084Z" fill="#1B1926"/>
<path d="M214.7 62.4C208.8 77.4 205.6 78.1 202.5 76.9C199.4 75.7 197.6 73 203.5 58C209.4 43 214.3 38.1 217.4 39.3C220.5 40.5 220.7 47.5 214.7 62.4Z" fill="#FF7ABC"/>
<path d="M186.5 56.3C185.7 72.4 188.3 74.4 191.6 74.5C194.9 74.6 197.8 73 198.6 56.9C199.4 40.8 197 34.3 193.7 34.2C190.4 34.1 187.3 40.2 186.5 56.3Z" fill="#FF7ABC"/>
<path d="M191.5 84.5V84.8C191.781 85.4154 192.203 85.9558 192.732 86.3773C193.261 86.7989 193.882 87.0897 194.545 87.2261C195.207 87.3625 195.893 87.3407 196.545 87.1624C197.198 86.9841 197.799 86.6544 198.3 86.2L198.5 86" stroke="#1B1926" stroke-width="2.00523" stroke-linecap="round" stroke-linejoin="round"/>
<path d="M218.8 68.5L212.7 67.2C213.4 65.8 214 64.2 214.7 62.4C220.7 47.5 220.5 40.5 217.4 39.3C214.3 38.1 209.5 43 203.5 58C202.5 60.6 201.7 62.8 201.1 64.7L216.2 73.4C217.433 74.1338 218.384 75.2608 218.9 76.6C219.454 77.9727 219.508 79.4967 219.05 80.9047C218.593 82.3127 217.655 83.5148 216.4 84.3L211.6 87.3L213.3 90.8C214.39 93.0421 214.772 95.5623 214.397 98.0268C214.022 100.491 212.907 102.784 211.2 104.6C213.304 105.077 215.505 104.875 217.487 104.022C219.469 103.169 221.129 101.71 222.229 99.8538C223.329 97.998 223.813 95.8411 223.61 93.6932C223.407 91.5453 222.528 89.517 221.1 87.9C223.053 86.9784 224.668 85.466 225.714 83.5768C226.761 81.6875 227.188 79.517 226.933 77.3721C226.679 75.2272 225.757 73.2165 224.297 71.6244C222.838 70.0323 220.915 68.9393 218.8 68.5Z" fill="#F763BE"/>
<path d="M198 64C198.2 62 198.4 59.7 198.6 56.9C199.4 40.8 197 34.3 193.7 34.2C187.9 43.7 188.3 62 188.3 62L194 70.1C194.191 70.3918 194.441 70.6404 194.734 70.8298C195.026 71.0193 195.356 71.1454 195.7 71.2C196.137 71.3012 196.592 71.2878 197.023 71.161C197.453 71.0342 197.843 70.7983 198.155 70.4762C198.467 70.1542 198.69 69.7569 198.803 69.323C198.916 68.8891 198.915 68.4334 198.8 68L198 64Z" fill="#F763BE"/>
<g style="mix-blend-mode:multiply">
<path d="M177.9 47.1L176.4 50.2C176.703 50.7607 176.906 51.3698 177 52L177.3 56.9C177.369 57.4044 177.324 57.9178 177.168 58.4024C177.013 58.887 176.75 59.3305 176.4 59.7V61C176.441 61.5732 176.354 62.1484 176.147 62.6843C175.939 63.2202 175.616 63.7036 175.2 64.1L175.6 68.7L176.1 75C176.253 77.3906 175.507 79.7522 174.009 81.621C172.51 83.4897 170.367 84.7307 168 85.1H166.9L167.1 88.6C167.242 90.1457 166.78 91.6864 165.81 92.8984C164.841 94.1105 163.439 94.8996 161.9 95.1H161.5C159.893 95.2004 158.311 94.6612 157.1 93.6C156.493 93.0924 155.994 92.4678 155.633 91.7635C155.273 91.0591 155.057 90.2893 155 89.5L154.4 82.1V81.6L150.9 81.9C150.187 83.2191 149.172 84.3508 147.938 85.2024C146.704 86.0541 145.286 86.6015 143.8 86.8H142.7L143 90.3C143.115 91.8557 142.63 93.3964 141.644 94.6054C140.658 95.8143 139.247 96.5997 137.7 96.8H137.4C135.787 96.9116 134.194 96.3885 132.961 95.3424C131.728 94.2962 130.953 92.8098 130.8 91.2V89.8C127.64 90.1837 124.441 90.1164 121.3 89.6L111.5 100.6C110.724 101.404 109.705 101.931 108.6 102.1H107.4C105.3 101.8 102.2 100.7 98.6 96.8C95 92.9 94.3 89.7 94.3 87.6C94.2 87.4 94.3 87.1 94.3 86.8C92.2367 84.7973 90.7513 82.2755 90 79.5C88.5 74.5 89.1 71.2 89.9 69.3C90.2021 68.5958 90.6683 67.9742 91.2598 67.487C91.8514 66.9999 92.5509 66.6615 93.3 66.5L94.6 66.3C93.2865 62.1002 92.8109 57.6832 93.2 53.3C92.7106 52.5476 92.4025 51.6918 92.3 50.8C92.2895 50.2981 92.3229 49.7962 92.4 49.3C92.586 48.3555 92.8197 47.421 93.1 46.5L74.2 41.3C70.1254 40.1406 66.6305 37.5016 64.4 33.9L55.8 20H55.5C54.7836 19.8269 54.1113 19.5062 53.5258 19.0585C52.9404 18.6108 52.4548 18.046 52.1 17.4L49.3 12.7C48.9536 12.1516 48.7534 11.5237 48.7184 10.8761C48.6834 10.2284 48.8148 9.58256 49.1 9.00003C49.3987 8.45792 49.8136 7.98856 50.315 7.62552C50.8163 7.26248 51.3917 7.01474 52 6.90003H53.5L70.2 11.6L69.8 10.9C69.4111 10.2466 69.2271 9.49157 69.2719 8.7325C69.3168 7.97343 69.5883 7.24527 70.0514 6.64216C70.5145 6.03906 71.1478 5.58876 71.8696 5.34949C72.5914 5.11023 73.3683 5.09299 74.1 5.30003L121 18.3C121.546 17.6139 122.274 17.0943 123.1 16.8C123.503 16.5967 123.949 16.4938 124.4 16.5C125.31 16.3489 126.245 16.4528 127.1 16.8C132.274 12.1141 138.771 9.14479 145.7 8.30003L148 8.10003C149.861 7.91672 151.734 7.88328 153.6 8.00003C153.79 7.41845 154.18 6.9227 154.7 6.60003C155.116 6.2327 155.646 6.02068 156.2 6.00003H157.5L158.1 6.20003C161.243 6.75915 164.279 7.80506 167.1 9.30003H167.2C167.482 9.44275 167.734 9.63992 167.94 9.88019C168.146 10.1205 168.302 10.3991 168.4 10.7L169.3 12.6C171.957 14.0211 174.303 15.9591 176.2 18.3C179.178 22.4484 180.918 27.3563 181.219 32.4539C181.52 37.5516 180.369 42.6301 177.9 47.1Z" fill="#C7CCD1"/>
</g>
<path d="M176.2 44.1L174.8 47.1C175.103 47.6247 175.307 48.2011 175.4 48.8L175.7 53.5C175.736 53.9872 175.674 54.4766 175.52 54.94C175.366 55.4034 175.121 55.8316 174.8 56.2V57.4C174.84 57.9434 174.752 58.4886 174.543 58.992C174.335 59.4955 174.012 59.9434 173.6 60.3L174 64.8L174.5 70.8C174.673 73.1203 173.95 75.4187 172.481 77.2228C171.012 79.0269 168.907 80.1996 166.6 80.5H165.6L165.8 83.9C165.916 85.3764 165.462 86.8412 164.533 87.994C163.603 89.1468 162.267 89.9003 160.8 90.1H160.5C159.732 90.1919 158.954 90.1238 158.214 89.9001C157.474 89.6763 156.788 89.3018 156.2 88.8C155.614 88.3025 155.135 87.6917 154.791 87.0043C154.448 86.3169 154.247 85.5671 154.2 84.8L153.6 77.7V77.3L150.3 77.5C149.624 78.7782 148.655 79.879 147.474 80.713C146.292 81.547 144.931 82.0907 143.5 82.3H142.4L142.7 85.6C142.814 87.0917 142.346 88.5696 141.396 89.725C140.446 90.8803 139.086 91.6238 137.6 91.8H137.3C135.757 91.8848 134.24 91.3706 133.066 90.3646C131.892 89.3586 131.152 87.9383 131 86.4V85C127.973 85.3829 124.907 85.3155 121.9 84.8L112.5 95.3C111.792 96.139 110.791 96.6757 109.7 96.8H108.6C106.6 96.5 103.5 95.5 100.2 91.8C96.9 88.1 96 84.9 96 82.9V82.2C94.0511 80.2604 92.6385 77.8486 91.9 75.2C90.4 70.4 91 67.2 91.8 65.4C92.084 64.7122 92.534 64.1055 93.11 63.6343C93.6859 63.1632 94.3696 62.8421 95.1 62.7L96.3 62.5C95.0748 58.4541 94.6336 54.2114 95 50C94.5124 49.3207 94.203 48.5299 94.1 47.7C94.0837 47.1979 94.1172 46.6955 94.2 46.2L94.8 43.5L76.9 38.5C72.9497 37.4192 69.5554 34.8824 67.4 31.4L59.2 18.1H58.9C57.5164 17.7283 56.3324 16.8313 55.6 15.6L53 11C52.6701 10.4954 52.476 9.91414 52.4368 9.31252C52.3975 8.7109 52.5143 8.10933 52.7758 7.56612C53.0374 7.02291 53.4348 6.55647 53.9296 6.212C54.4244 5.86753 54.9998 5.65672 55.6 5.6C56.0651 5.47958 56.5568 5.5147 57 5.7L73.1 10.1L72.7 9.5C72.3712 8.982 72.1802 8.38855 72.1452 7.77599C72.1102 7.16343 72.2323 6.55209 72.5 6C72.7827 5.47469 73.1821 5.02123 73.6675 4.67451C74.153 4.32778 74.7114 4.09703 75.3 4H76.8L121.7 16.5C122.258 15.8694 122.938 15.359 123.7 15L124.9 14.7C125.778 14.597 126.668 14.6997 127.5 15C132.515 10.5761 138.759 7.78549 145.4 7L147.6 6.8C149.361 6.61781 151.134 6.58436 152.9 6.7C153.178 6.17007 153.551 5.69558 154 5.3C154.453 4.9975 154.964 4.79311 155.5 4.7H156.6L157.3 4.9C160.6 5.7 163.5 6.4 165.9 7.9H166C166.499 8.22992 166.911 8.676 167.2 9.2L168 11.1C170.56 12.4516 172.809 14.3253 174.6 16.6C177.449 20.5594 179.112 25.2479 179.396 30.1175C179.679 34.9872 178.571 39.8369 176.2 44.1Z" fill="#F8F9F9"/>
<path d="M128 26.9L81 13.8L89.8 28.2C91.5381 30.9774 94.2471 33.0091 97.4 33.9L134.8 44.3L135.8 40.7L128 26.9Z" fill="#DAE2ED"/>
<path d="M138.3 24.5L75.9 7.20002C75.8135 7.19264 75.7266 7.2079 75.6478 7.24429C75.569 7.28068 75.501 7.33696 75.4506 7.40759C75.4001 7.47822 75.3689 7.56077 75.36 7.64711C75.3512 7.73345 75.3649 7.82061 75.4 7.90002L78.1 12.4C78.2385 12.6454 78.425 12.8604 78.6483 13.0322C78.8716 13.204 79.1273 13.3291 79.4 13.4L81 13.8L128 26.9L135.8 40.7L134.8 44.3L134.1 46.9L149.8 51.3L151.5 45.1L141.1 26.7C140.812 26.1585 140.415 25.683 139.932 25.3041C139.45 24.9253 138.894 24.6514 138.3 24.5Z" fill="#ECEFF6"/>
<path d="M135.8 40.7L128 26.9L81 13.8L82.8 16.7L126.5 28.8L133.7 41.7L133.2 43.8L134.8 44.3L135.8 40.7Z" fill="#C5CEDD"/>
<path d="M129.471 82.0563C145.609 80.8712 157.732 66.8276 156.546 50.6891C155.361 34.5506 141.318 22.4286 125.179 23.6137C109.041 24.7988 96.9186 38.8424 98.1038 54.9809C99.2889 71.1194 113.332 83.2414 129.471 82.0563Z" fill="#4F5D7F"/>
<path d="M128.717 71.784C139.182 71.0155 147.043 61.9087 146.274 51.4435C145.506 40.9782 136.399 33.1175 125.934 33.886C115.468 34.6545 107.608 43.7613 108.376 54.2265C109.145 64.6917 118.251 72.5525 128.717 71.784Z" fill="#7687B2"/>
<path d="M145 28.2C145.4 32.6 134.5 44.4 127.3 51.1C120.2 51.7 102.5 52.3 97.9999 48.6C97.7951 48.4713 97.6245 48.2949 97.5026 48.0859C97.3807 47.877 97.3112 47.6417 97.2999 47.4V46.8C98.1134 42.4941 99.8483 38.4149 102.386 34.842C104.923 31.2691 108.203 28.287 112 26.1C121.7 20.5 133.8 20.9 144.4 27.2C144.592 27.283 144.753 27.4241 144.861 27.6035C144.968 27.7829 145.017 27.9915 145 28.2Z" fill="#FF7F14"/>
<path d="M127.9 52.5C127.9 52.5 98.4999 37.9 101.1 34.2C103.767 30.3543 107.25 27.1446 111.3 24.8C122.2 18.5 135 19.9 145.2 25.9C152.4 30.2 127.9 52.5 127.9 52.5Z" fill="#FF903E"/>
<path d="M128.504 68.8918C137.372 68.2405 144.033 60.5238 143.382 51.6559C142.731 42.788 135.014 36.127 126.146 36.7782C117.278 37.4294 110.617 45.1462 111.268 54.0141C111.92 62.882 119.636 69.543 128.504 68.8918Z" fill="#EBEFF7"/>
<path d="M128.314 66.2987C135.75 65.7527 141.335 59.2821 140.789 51.8463C140.243 44.4105 133.772 38.8252 126.336 39.3713C118.9 39.9173 113.315 46.3879 113.861 53.8237C114.407 61.2595 120.878 66.8448 128.314 66.2987Z" fill="#DAE2ED"/>
<path d="M118.8 47.7L125.8 42.7C126.023 42.5618 126.276 42.4803 126.538 42.4629C126.799 42.4454 127.061 42.4925 127.3 42.6L135.1 46.2C135.313 46.3292 135.495 46.5036 135.634 46.711C135.772 46.9184 135.863 47.1536 135.9 47.4L136.7 55.9C136.716 56.164 136.67 56.4279 136.566 56.671C136.461 56.914 136.302 57.1294 136.1 57.3L129.1 62.2C128.877 62.3383 128.624 62.4197 128.362 62.4372C128.101 62.4546 127.839 62.4075 127.6 62.3L119.8 58.7C119.555 58.6137 119.344 58.45 119.2 58.2336C119.055 58.0172 118.985 57.7597 119 57.5L118.2 49C118.192 48.7516 118.242 48.5048 118.346 48.2792C118.451 48.0535 118.606 47.8552 118.8 47.7Z" fill="#C5CEDD"/>
<path d="M127.3 57.5C129.896 57.5 132 55.3957 132 52.8C132 50.2043 129.896 48.1 127.3 48.1C124.704 48.1 122.6 50.2043 122.6 52.8C122.6 55.3957 124.704 57.5 127.3 57.5Z" fill="#B7C2CE"/>
<path d="M169.9 48.8L164.8 49.2C164.9 51 165 52.9 165.2 54.8L170.2 54.4C170.003 52.5398 169.903 50.6706 169.9 48.8Z" fill="#80A7FF"/>
<path d="M169 61.1L147.5 62.8C147.383 62.8024 147.269 62.7637 147.178 62.6906C147.086 62.6175 147.023 62.5147 147 62.4C146.9 62.1 147.1 61.9 147.4 61.9L168.9 60.2C169.2 60.1 169.4 59.9 169.4 59.7L169.1 56.2C169.122 56.0909 169.17 55.9886 169.239 55.9016C169.309 55.8147 169.398 55.7455 169.5 55.7C169.633 55.7 169.76 55.7527 169.854 55.8465C169.947 55.9402 170 56.0674 170 56.2L170.3 59.6C170.314 59.784 170.291 59.9688 170.233 60.1439C170.175 60.319 170.083 60.4809 169.962 60.6202C169.841 60.7596 169.694 60.8738 169.529 60.9561C169.364 61.0384 169.184 61.0874 169 61.1Z" fill="#E4E9F7"/>
<path d="M170.4 47.3528L167.31 47.596C167.035 47.6177 166.829 47.8584 166.851 48.1337L167.62 57.9135C167.642 58.1887 167.883 58.3944 168.158 58.3727L171.248 58.1295C171.524 58.1078 171.729 57.8671 171.708 57.5918L170.938 47.812C170.916 47.5367 170.676 47.3311 170.4 47.3528Z" fill="black"/>
<path d="M169.8 48.8L171.7 48.6C171.817 48.5977 171.931 48.6364 172.022 48.7095C172.114 48.7826 172.177 48.8854 172.2 49L172.5 53.7C172.6 54 172.4 54.2 172.1 54.2L170.4 54.4C169.722 54.4534 169.046 54.2746 168.482 53.893C167.919 53.5114 167.502 52.9497 167.3 52.3C167.196 51.903 167.181 51.488 167.256 51.0845C167.33 50.6809 167.492 50.2987 167.731 49.9647C167.969 49.6308 168.278 49.3534 168.636 49.1521C168.993 48.9509 169.391 48.8307 169.8 48.8Z" fill="#80A7FF"/>
<path d="M166 77.4L163.4 77.6C163.099 77.6656 162.829 77.8285 162.63 78.0635C162.431 78.2985 162.315 78.5925 162.3 78.9L162.8 84.2C162.827 84.5548 162.784 84.9115 162.673 85.2495C162.562 85.5875 162.385 85.9003 162.153 86.1698C161.921 86.4393 161.637 86.6602 161.319 86.8199C161.001 86.9795 160.655 87.0747 160.3 87.1C159.59 87.1294 158.895 86.8875 158.356 86.4232C157.817 85.9589 157.476 85.3071 157.4 84.6L156.9 77.6L155.7 61.9V62.3C155.669 61.5257 155.928 60.7677 156.428 60.1753C156.928 59.583 157.631 59.1994 158.4 59.1L167.4 58.4C167.789 58.3588 168.182 58.3966 168.556 58.5113C168.93 58.626 169.277 58.8152 169.576 59.0674C169.875 59.3196 170.12 59.6297 170.296 59.9791C170.472 60.3284 170.575 60.7097 170.6 61.1L171.4 71.1C171.468 71.8701 171.382 72.646 171.146 73.3822C170.91 74.1183 170.53 74.8 170.026 75.3869C169.523 75.9738 168.908 76.4543 168.217 76.8C167.525 77.1457 166.771 77.3497 166 77.4Z" fill="#80A7FF"/>
<path d="M159.895 48.1742L156.805 48.4174C156.53 48.439 156.324 48.6798 156.346 48.9551L157.115 58.7348C157.137 59.0101 157.378 59.2157 157.653 59.1941L160.744 58.9508C161.019 58.9292 161.224 58.6884 161.203 58.4131L160.433 48.6334C160.411 48.3581 160.171 48.1525 159.895 48.1742Z" fill="black"/>
<path d="M159 57L159.3 60.5C159.282 60.7428 159.184 60.9727 159.021 61.1537C158.858 61.3346 158.64 61.4564 158.4 61.5L136.9 63.1" stroke="#2F3849" stroke-width="3.08771" stroke-miterlimit="10"/>
<path d="M167.3 51.1C165.977 49.5637 164.308 48.3636 162.43 47.5986C160.553 46.8336 158.52 46.5257 156.5 46.7L142 47.8L139.1 48C137.039 48.1787 135.13 49.1586 133.784 50.7293C132.438 52.2999 131.761 54.336 131.9 56.4L133 70.6C133.051 71.2836 133.236 71.9505 133.545 72.5622C133.854 73.174 134.281 73.7186 134.802 74.1647C135.322 74.6108 135.926 74.9496 136.578 75.1616C137.229 75.3736 137.917 75.4546 138.6 75.4L143.1 75L163.8 73.4C164.821 73.3247 165.818 73.0464 166.73 72.5813C167.643 72.1162 168.453 71.4737 169.115 70.6915C169.776 69.9092 170.274 69.0029 170.581 68.0257C170.887 67.0484 170.996 66.0198 170.9 65L170.4 58.6C170.222 55.8266 169.132 53.1897 167.3 51.1Z" fill="#9CB8FF"/>
<path d="M144.3 47.6L139.1 48C137.039 48.1787 135.13 49.1586 133.784 50.7293C132.438 52.2999 131.761 54.336 131.9 56.4L132.9 68.8C132.95 69.4797 133.136 70.1425 133.446 70.7492C133.757 71.356 134.186 71.8943 134.708 72.3324C135.23 72.7706 135.834 73.0996 136.486 73.3002C137.137 73.5007 137.822 73.5687 138.5 73.5L146.3 72.9C145.5 64.5 144.9 56.1 144.3 47.6Z" fill="#80A7FF"/>
<path d="M142.8 79.3L140.3 79.5C140.147 79.4994 139.995 79.5308 139.855 79.5922C139.714 79.6536 139.588 79.7437 139.485 79.8567C139.381 79.9697 139.302 80.1031 139.253 80.2483C139.204 80.3935 139.186 80.5474 139.2 80.7L139.6 86C139.656 86.7007 139.437 87.3957 138.989 87.9372C138.541 88.4788 137.899 88.8242 137.2 88.9C136.499 88.9562 135.804 88.7369 135.263 88.2887C134.721 87.8406 134.376 87.1989 134.3 86.5L133.7 79.4L132.2 59.5V60C132.159 59.6111 132.197 59.2178 132.311 58.8438C132.426 58.4699 132.615 58.123 132.867 57.8241C133.12 57.5251 133.43 57.2803 133.779 57.1043C134.128 56.9283 134.51 56.8248 134.9 56.8L144 56.1C144.384 56.0585 144.772 56.0968 145.14 56.2125C145.509 56.3282 145.849 56.5188 146.14 56.7723C146.431 57.0259 146.667 57.3369 146.832 57.6859C146.997 58.0348 147.088 58.4141 147.1 58.8L148.3 72.9C148.411 74.4761 147.895 76.0321 146.865 77.2303C145.835 78.4285 144.375 79.1722 142.8 79.3Z" fill="#80A7FF"/>
<path d="M158.5 61.9L136.9 63.6C136.7 63.6 136.4 63.4 136.4 63.2C136.398 63.0831 136.436 62.969 136.509 62.8776C136.583 62.7862 136.685 62.7234 136.8 62.7L158.4 61C158.515 60.9767 158.617 60.9138 158.691 60.8225C158.764 60.7311 158.802 60.617 158.8 60.5L158.5 57.1C158.5 56.9674 158.553 56.8402 158.646 56.7465C158.74 56.6527 158.867 56.6 159 56.6C159.2 56.5 159.4 56.7 159.5 57L159.7 60.4C159.728 60.5786 159.719 60.7611 159.673 60.9358C159.626 61.1105 159.544 61.2737 159.431 61.4149C159.318 61.556 159.177 61.6721 159.017 61.7556C158.856 61.8392 158.68 61.8883 158.5 61.9Z" fill="#E4E9F7"/>
<path d="M159.895 48.1742L156.805 48.4174C156.53 48.439 156.324 48.6798 156.346 48.9551L157.115 58.7348C157.137 59.0101 157.378 59.2157 157.653 59.1941L160.744 58.9508C161.019 58.9292 161.224 58.6884 161.203 58.4131L160.433 48.6334C160.411 48.3581 160.171 48.1525 159.895 48.1742Z" fill="black"/>
<path d="M160.2 49.5L149.7 50.3C149.293 50.3414 148.881 50.3016 148.489 50.183C148.097 50.0643 147.732 49.8692 147.416 49.6089C147.1 49.3485 146.839 49.0281 146.647 48.6661C146.455 48.3042 146.337 47.9078 146.3 47.5L139.7 48L140.8 61.6L147.3 61.1C147.7 57.6 150.5 55.9 154.2 55.6L160.5 55.1C161.243 55.0602 161.939 54.7271 162.436 54.1739C162.933 53.6206 163.19 52.8926 163.15 52.15C163.11 51.4074 162.777 50.711 162.224 50.2141C161.671 49.7171 160.943 49.4602 160.2 49.5Z" fill="#80A7FF"/>
<path d="M129.1 67.3L123.8 69.4C123.063 69.6685 122.426 70.1587 121.979 70.8033C121.531 71.4479 121.294 72.2153 121.3 73C121.293 73.5668 121.41 74.1283 121.642 74.6453C121.875 75.1623 122.217 75.6225 122.645 75.9937C123.074 76.3649 123.578 76.6383 124.123 76.7949C124.668 76.9514 125.24 76.9873 125.8 76.9C126.586 76.7719 127.314 76.4062 127.886 75.852C128.458 75.2978 128.847 74.5817 129 73.8L130.2 68.2C130.23 68.0565 130.221 67.9073 130.172 67.7689C130.123 67.6305 130.037 67.5082 129.924 67.4152C129.81 67.3223 129.673 67.2624 129.528 67.2421C129.383 67.2218 129.235 67.2418 129.1 67.3Z" fill="#80A7FF"/>
<path d="M134.624 58.123L117.066 63.6253L119.15 70.2764L136.708 64.774L134.624 58.123Z" fill="#B7C2CE"/>
<path d="M122.2 71.2L100.4 80.7C99.9677 80.8128 99.51 80.7776 99.1 80.6C98.1 79.9 96.2 78.3 94.9 74.2C93.6 70.1 94.3 67.7 94.7 66.6C94.8026 66.405 94.9444 66.2333 95.1165 66.0956C95.2886 65.9579 95.4872 65.8573 95.7 65.8L119 61.1C119.225 61.0375 119.466 61.0652 119.672 61.1772C119.877 61.2892 120.031 61.4767 120.1 61.7L122.7 70.1C122.768 70.3127 122.754 70.5431 122.662 70.7464C122.57 70.9497 122.405 71.1114 122.2 71.2Z" fill="#C5CEDD"/>
<path d="M114.4 66.7C115.008 66.7 115.5 66.2075 115.5 65.6C115.5 64.9925 115.008 64.5 114.4 64.5C113.793 64.5 113.3 64.9925 113.3 65.6C113.3 66.2075 113.793 66.7 114.4 66.7Z" fill="#B7C2CE"/>
<path d="M109.3 67.9C109.908 67.9 110.4 67.4075 110.4 66.8C110.4 66.1925 109.908 65.7 109.3 65.7C108.693 65.7 108.2 66.1925 108.2 66.8C108.2 67.4075 108.693 67.9 109.3 67.9Z" fill="#B7C2CE"/>
<path d="M131.657 58.3156L118.121 70.6317L122.812 75.787L136.347 63.4708L131.657 58.3156Z" fill="#D0D9EA"/>
<path d="M126 75.5L110.2 93.2C109.876 93.5103 109.448 93.6887 109 93.7C107.8 93.5 105.4 92.8 102.5 89.6C99.6 86.4 99.2 84 99.1 82.8C99.1077 82.5827 99.1659 82.3701 99.2701 82.1791C99.3742 81.9882 99.5214 81.8242 99.7 81.7L118.9 67.6C119.077 67.4655 119.298 67.4013 119.519 67.4198C119.741 67.4382 119.948 67.5381 120.1 67.7L126 74.2C126.138 74.3886 126.213 74.6163 126.213 74.85C126.213 75.0838 126.138 75.3114 126 75.5Z" fill="#EBEFF7"/>
<path d="M116.6 74.8C117.208 74.8 117.7 74.3075 117.7 73.7C117.7 73.0925 117.208 72.6 116.6 72.6C115.992 72.6 115.5 73.0925 115.5 73.7C115.5 74.3075 115.992 74.8 116.6 74.8Z" fill="#B7C2CE"/>
<path d="M112.8 78.5C113.407 78.5 113.9 78.0075 113.9 77.4C113.9 76.7925 113.407 76.3 112.8 76.3C112.192 76.3 111.7 76.7925 111.7 77.4C111.7 78.0075 112.192 78.5 112.8 78.5Z" fill="#B7C2CE"/>
<path d="M135.816 48.4976L159.841 46.6067C164.136 46.2687 167.343 42.5133 167.005 38.2188L165.871 23.8034C165.533 19.5088 161.778 16.3014 157.483 16.6394L133.457 18.5302C129.163 18.8682 125.955 22.6236 126.293 26.9182L127.428 41.3336C127.766 45.6281 131.521 48.8356 135.816 48.4976Z" fill="#80A7FF"/>
<path d="M140.763 48.0965L164.789 46.2056C169.083 45.8676 172.291 42.1122 171.953 37.8177L170.818 23.4023C170.48 19.1077 166.725 15.9003 162.43 16.2383L138.404 18.1292C134.11 18.4671 130.902 22.2225 131.24 26.5171L132.375 40.9325C132.713 45.2271 136.468 48.4345 140.763 48.0965Z" fill="#9CB8FF"/>
<path d="M134.866 38.964L129.166 39.42C127.787 39.5303 126.42 39.0883 125.367 38.1911C124.314 37.294 123.66 36.0151 123.55 34.636L123.262 31.036C123.152 29.6569 123.594 28.2904 124.491 27.2372C125.388 26.184 126.667 25.5303 128.046 25.42L133.746 24.964L134.866 38.964Z" fill="#9CB8FF"/>
<path d="M134.427 28.0063L135.039 35.7823C135.049 35.9145 135.007 36.0454 134.921 36.1462C134.835 36.247 134.712 36.3095 134.58 36.3199L129.396 36.7279C128.708 36.782 128.028 36.5608 127.503 36.113C126.979 35.6652 126.654 35.0274 126.6 34.3399L126.317 30.751C126.263 30.0636 126.484 29.3828 126.932 28.8585C127.38 28.3341 128.018 28.0092 128.705 27.9551L133.889 27.5471C134.022 27.5367 134.152 27.5792 134.253 27.6653C134.354 27.7514 134.417 27.8741 134.427 28.0063Z" fill="#80A7FF"/>
<path d="M163.8 41.6H165.9C166.121 41.5377 166.317 41.4078 166.46 41.2284C166.604 41.0491 166.688 40.8294 166.7 40.6C166.652 40.379 166.522 40.1843 166.337 40.0546C166.151 39.9249 165.924 39.8697 165.7 39.9H163.6C163.394 39.956 163.208 40.071 163.066 40.2308C162.924 40.3907 162.831 40.5885 162.8 40.8C162.812 40.9185 162.848 41.0333 162.905 41.1379C162.962 41.2424 163.04 41.3345 163.133 41.4089C163.226 41.4834 163.333 41.5386 163.447 41.5714C163.562 41.6042 163.682 41.6139 163.8 41.6Z" fill="#80A7FF"/>
<path d="M171.1 23.4L168 23.6L157.1 24.5L153.4 24.7C152.992 24.7376 152.596 24.8555 152.234 25.0471C151.872 25.2387 151.551 25.5002 151.291 25.8163C151.031 26.1324 150.836 26.497 150.717 26.889C150.598 27.281 150.559 27.6926 150.6 28.1L150.8 31.7C151.003 33.7511 151.99 35.6448 153.555 36.9861C155.12 38.3275 157.142 39.0131 159.2 38.9L162.9 38.6H164.4L167.5 38.3C169.552 38.1463 171.461 37.1877 172.809 35.633C174.158 34.0783 174.838 32.0536 174.7 30L174.4 26.3C174.388 25.888 174.292 25.4827 174.117 25.1096C173.941 24.7365 173.691 24.4035 173.381 24.1314C173.072 23.8593 172.709 23.6539 172.317 23.5281C171.924 23.4022 171.51 23.3586 171.1 23.4Z" fill="#B8D0FF"/>
<path d="M167.525 38.2076L162.84 38.5764C161.818 38.6567 160.791 38.5352 159.817 38.2187C158.843 37.9021 157.941 37.3968 157.162 36.7316C156.383 36.0664 155.743 35.2542 155.278 34.3416C154.813 33.4289 154.532 32.4336 154.452 31.4124L154.169 27.8235C154.137 27.4177 154.186 27.0095 154.311 26.6223C154.437 26.2352 154.638 25.8766 154.902 25.567C155.167 25.2574 155.49 25.003 155.852 24.8182C156.215 24.6333 156.611 24.5218 157.016 24.4898L171.073 23.3836C171.479 23.3516 171.887 23.3999 172.274 23.5257C172.661 23.6515 173.02 23.8524 173.329 24.1167C173.639 24.3811 173.893 24.7039 174.078 25.0666C174.263 25.4294 174.375 25.8249 174.407 26.2308L174.689 29.8197C174.851 31.882 174.188 33.9243 172.844 35.4974C171.501 37.0704 169.587 38.0453 167.525 38.2076Z" fill="#CBDAF7"/>
<path d="M164.5 32.6H161.1C160.764 32.6485 160.458 32.8171 160.237 33.0746C160.016 33.3321 159.897 33.6609 159.9 34C159.913 34.1709 159.959 34.3376 160.036 34.4906C160.114 34.6435 160.22 34.7797 160.35 34.8912C160.481 35.0027 160.631 35.0874 160.794 35.1404C160.957 35.1934 161.129 35.2137 161.3 35.2H164.7C164.871 35.1874 165.038 35.1411 165.191 35.0638C165.343 34.9865 165.48 34.8797 165.591 34.7496C165.703 34.6195 165.787 34.4686 165.84 34.3057C165.893 34.1427 165.914 33.9709 165.9 33.8C165.887 33.6291 165.841 33.4624 165.764 33.3095C165.686 33.1565 165.58 33.0204 165.45 32.9089C165.319 32.7973 165.169 32.7126 165.006 32.6596C164.843 32.6066 164.671 32.5864 164.5 32.6Z" fill="#9CB8FF"/>
<path d="M170.6 32.1H169.3C169.129 32.1127 168.962 32.159 168.809 32.2363C168.656 32.3136 168.52 32.4204 168.409 32.5505C168.297 32.6806 168.213 32.8315 168.16 32.9944C168.107 33.1574 168.086 33.3292 168.1 33.5C168.113 33.6709 168.159 33.8376 168.236 33.9906C168.313 34.1435 168.42 34.2797 168.55 34.3912C168.68 34.5027 168.831 34.5874 168.994 34.6404C169.157 34.6934 169.329 34.7137 169.5 34.7H170.8C170.971 34.6874 171.138 34.6411 171.291 34.5638C171.443 34.4865 171.58 34.3797 171.691 34.2496C171.803 34.1195 171.887 33.9686 171.94 33.8057C171.993 33.6427 172.014 33.4709 172 33.3C171.987 33.1291 171.941 32.9624 171.864 32.8095C171.786 32.6565 171.68 32.5204 171.55 32.4089C171.419 32.2973 171.269 32.2126 171.106 32.1596C170.943 32.1066 170.771 32.0864 170.6 32.1Z" fill="#9CB8FF"/>
<path d="M141.213 31.3044C141.325 32.7194 142.553 33.7769 143.957 33.6664C145.361 33.5559 146.409 32.3192 146.298 30.9042C146.186 29.4892 144.958 28.4317 143.554 28.5422C142.15 28.6527 141.102 29.8894 141.213 31.3044Z" fill="black"/>
<path opacity="0.5" d="M172.1 18.6C174.528 22.1023 175.936 26.2103 176.165 30.4658C176.395 34.7213 175.437 38.9569 173.4 42.7L169.1 45.7L139.6 46.7L131.7 37.8L137.4 18.2L162.5 16.2L172.1 18.6Z" fill="#4871E5"/>
<path d="M147.8 9.90002C130.7 11.3 122.2 23.5 123 33.1C123.8 42.7 135 42.6 137.1 35.7L141.5 20.6L166.2 21.9L172.1 18.6C169.5 15 160.5 8.90002 147.8 9.90002Z" fill="#EBEFF7"/>
<path d="M135.4 37.5L151.5 44.4L173.4 42.7L171.5 46.4L130.4 49.6L124.6 37.2L135.4 37.5Z" fill="#EBEFF7"/>
<path d="M155.9 7.90002L155.7 10.7C158.147 12.3735 160.336 14.3948 162.2 16.7L164.3 10.7C162.1 9.40002 159.3 8.70002 155.9 7.90002Z" fill="#FF7F14"/>
<path d="M162.2 16.7L164.3 10.7L166.9 16.3L162.2 16.7Z" fill="#FF903E"/>
<path d="M130.9 26.6L126.5 28.4L123.8 20.4C123.666 19.9485 123.704 19.4631 123.907 19.0381C124.11 18.6131 124.464 18.2788 124.9 18.1C125.116 17.9998 125.351 17.9436 125.589 17.9347C125.827 17.9258 126.065 17.9643 126.288 18.0481C126.512 18.1318 126.716 18.2591 126.89 18.4225C127.063 18.5859 127.203 18.7822 127.3 19L130.9 26.6Z" fill="#DAE2ED"/>
<path d="M124.7 23.2L126.5 28.4L130.9 26.6L128.6 21.7L124.7 23.2Z" fill="#B7C2CE"/>
<path d="M138.343 34.6735C138.577 29.3214 135.143 24.8245 130.674 24.6294C126.205 24.4343 122.392 28.6148 122.159 33.9669C121.925 39.3189 125.359 43.8158 129.828 44.011C134.297 44.2061 138.11 40.0256 138.343 34.6735Z" fill="#DAE2ED"/>
<path d="M135.002 34.6766C135.168 30.8695 132.708 27.6699 129.508 27.5302C126.308 27.3904 123.579 30.3635 123.413 34.1706C123.247 37.9777 125.706 41.1773 128.906 41.317C132.107 41.4568 134.836 38.4837 135.002 34.6766Z" fill="#B7C2CE"/>
<path d="M133.095 34.6022C133.213 31.8986 131.475 29.6268 129.212 29.5281C126.95 29.4293 125.02 31.5409 124.902 34.2446C124.784 36.9482 126.523 39.22 128.785 39.3187C131.047 39.4175 132.977 37.3059 133.095 34.6022Z" fill="#FF903E"/>
<path d="M130.076 31.6852L129.6 31.5332C129.442 31.4828 129.273 31.5699 129.223 31.7278L127.758 36.3196C127.707 36.4774 127.794 36.6462 127.952 36.6966L128.429 36.8486C128.586 36.899 128.755 36.8119 128.806 36.654L130.271 32.0622C130.321 31.9044 130.234 31.7356 130.076 31.6852Z" fill="#FF7F14"/>
<path d="M108.2 28.4L61.3 15.4L70.1 29.7C71.8047 32.5285 74.522 34.6022 77.7 35.5L115.1 45.8L116.1 42.3L108.2 28.4Z" fill="#DAE2ED"/>
<path d="M118.6 26.1L56.2 8.70002C56.1135 8.69264 56.0266 8.7079 55.9478 8.74429C55.869 8.78068 55.8011 8.83696 55.7506 8.90759C55.7002 8.97822 55.669 9.06077 55.6601 9.14711C55.6512 9.23345 55.665 9.32061 55.7 9.40002L58.4 13.9C58.7086 14.3928 59.163 14.7772 59.7 15L61.3 15.4L108.2 28.4L116.1 42.3L115.1 45.8L114.4 48.5L130.1 52.9L131.8 46.7L121.4 28.2C120.78 27.1584 119.774 26.4037 118.6 26.1Z" fill="#ECEFF6"/>
<path d="M116.1 42.3L108.2 28.4L61.3 15.4L63 18.3L106.7 30.4L114 43.3L113.4 45.4L115.1 45.8L116.1 42.3Z" fill="#C5CEDD"/>
<path d="M61.8549 12.8802C61.9877 12.4012 61.7071 11.9052 61.2281 11.7724C60.7491 11.6396 60.2532 11.9202 60.1203 12.3992L60.1096 12.4377C59.9768 12.9167 60.2574 13.4127 60.7364 13.5455C61.2154 13.6783 61.7113 13.3977 61.8442 12.9187L61.8549 12.8802Z" fill="#DAE2ED"/>
<path d="M65.413 14.061C65.5472 13.5839 65.2692 13.0882 64.792 12.954C64.3148 12.8198 63.8192 13.0979 63.685 13.575L63.6742 13.6134C63.54 14.0906 63.818 14.5862 64.2952 14.7204C64.7724 14.8546 65.268 14.5766 65.4022 14.0994L65.413 14.061Z" fill="#DAE2ED"/>
<path d="M119.318 28.8414C119.451 28.3624 119.17 27.8665 118.691 27.7336C118.212 27.6008 117.716 27.8814 117.584 28.3604L117.573 28.3989C117.44 28.8779 117.721 29.3739 118.2 29.5067C118.679 29.6395 119.175 29.3589 119.307 28.8799L119.318 28.8414Z" fill="#DAE2ED"/>
<path d="M129.496 48.7276L137.67 48.0842L139.043 65.5303C139.091 66.1384 138.896 66.7406 138.499 67.2045C138.103 67.6683 137.539 67.9558 136.931 68.0037L131.049 68.4666L129.496 48.7276Z" fill="black"/>
<path d="M134.017 44.6243L124.546 45.3696C123.72 45.4346 123.103 46.1568 123.168 46.9827L123.565 52.0271C123.63 52.853 124.352 53.4698 125.178 53.4048L134.649 52.6594C135.475 52.5944 136.092 51.8722 136.027 51.0463L135.63 46.0019C135.565 45.1761 134.843 44.5593 134.017 44.6243Z" fill="#FF5C5C"/>
<path d="M138.3 54.9L130.8 55.5C130.319 55.5409 129.835 55.4846 129.376 55.3346C128.917 55.1845 128.493 54.9437 128.129 54.6265C127.766 54.3093 127.469 53.9222 127.258 53.4882C127.047 53.0542 126.925 52.5821 126.9 52.1L126.4 46.3C126.345 45.3346 126.669 44.3859 127.305 43.6569C127.94 42.928 128.836 42.4769 129.8 42.4L137.3 41.8C137.471 41.7864 137.643 41.8066 137.806 41.8596C137.969 41.9126 138.119 41.9973 138.25 42.1089C138.38 42.2204 138.486 42.3565 138.564 42.5095C138.641 42.6624 138.687 42.8291 138.7 43L139.6 53.4C139.614 53.584 139.591 53.7688 139.533 53.9439C139.475 54.119 139.383 54.2809 139.262 54.4202C139.141 54.5596 138.994 54.6738 138.829 54.7561C138.664 54.8384 138.484 54.8874 138.3 54.9Z" fill="#D0D9EA"/>
<path d="M195.8 8.60002L199.2 7.40002C199.412 7.40002 199.616 7.31573 199.766 7.1657C199.916 7.01567 200 6.81219 200 6.60002C200 6.38784 199.916 6.18436 199.766 6.03433C199.616 5.8843 199.412 5.80002 199.2 5.80002L195.8 4.60002C195.658 4.55705 195.53 4.47982 195.425 4.37516C195.32 4.2705 195.243 4.14165 195.2 4.00002L194 0.600015C193.939 0.423523 193.824 0.270526 193.671 0.162258C193.519 0.0539897 193.337 -0.00418091 193.15 -0.00418091C192.963 -0.00418091 192.781 0.0539897 192.629 0.162258C192.476 0.270526 192.361 0.423523 192.3 0.600015L191.1 4.00002C191.061 4.12846 190.997 4.24777 190.911 4.35085C190.825 4.45393 190.719 4.53867 190.6 4.60002L187.2 5.80002C186.988 5.80002 186.784 5.8843 186.634 6.03433C186.484 6.18436 186.4 6.38784 186.4 6.60002C186.4 6.81219 186.484 7.01567 186.634 7.1657C186.784 7.31573 186.988 7.40002 187.2 7.40002L190.6 8.60002C190.719 8.66137 190.825 8.7461 190.911 8.84918C190.997 8.95226 191.061 9.07158 191.1 9.20002L192.3 12.6C192.361 12.7765 192.476 12.9295 192.629 13.0378C192.781 13.146 192.963 13.2042 193.15 13.2042C193.337 13.2042 193.519 13.146 193.671 13.0378C193.824 12.9295 193.939 12.7765 194 12.6L195.2 9.20002C195.243 9.05838 195.32 8.92953 195.425 8.82487C195.53 8.72021 195.658 8.64298 195.8 8.60002Z" fill="#F3B2CF"/>
<path d="M44.2 21.7L43.2 23.6V24C43.2064 24.0771 43.2422 24.1487 43.3 24.2L43.6 24.4H43.9L45.9 23.5H46.3L48.2 24.4H48.6L48.8 24.2L49 23.9C49.0046 23.8458 48.9981 23.7913 48.9809 23.7397C48.9637 23.6881 48.9362 23.6406 48.9 23.6L48 21.7C48 21.6 47.9 21.6 47.9 21.5C47.9 21.4 48 21.3 48 21.2L48.9 19.3C48.9362 19.2594 48.9637 19.2119 48.9809 19.1603C48.9981 19.1087 49.0046 19.0542 49 19L48.8 18.7H48.2L46.3 19.6H45.8L43.9 18.7H43.3C43.2639 18.7406 43.2363 18.7881 43.2191 18.8397C43.2019 18.8913 43.1954 18.9458 43.2 19V19.3L44.1 21.2C44.1362 21.2406 44.1638 21.2881 44.1809 21.3397C44.1981 21.3913 44.2046 21.4458 44.2 21.5V21.7Z" fill="#FFD01A"/>
<path d="M149.58 105.858C148.877 105.155 147.753 105.139 147.07 105.823C146.386 106.506 146.402 107.63 147.105 108.333L148.307 109.535C149.01 110.238 150.134 110.254 150.817 109.57C151.501 108.887 151.485 107.763 150.782 107.06L149.58 105.858Z" fill="#83DDC5"/>
<path d="M159.622 115.858C158.919 115.155 157.795 115.139 157.112 115.823C156.429 116.506 156.444 117.63 157.147 118.333L158.349 119.535C159.052 120.238 160.176 120.254 160.86 119.57C161.543 118.887 161.527 117.763 160.824 117.06L159.622 115.858Z" fill="#83DDC5"/>
<path d="M160.813 108.251C161.516 107.548 161.532 106.424 160.848 105.741C160.165 105.057 159.041 105.073 158.338 105.776L157.136 106.978C156.433 107.681 156.417 108.805 157.101 109.489C157.784 110.172 158.908 110.156 159.611 109.453L160.813 108.251Z" fill="#83DDC5"/>
<path d="M150.771 118.251C151.474 117.548 151.49 116.424 150.806 115.741C150.123 115.057 148.999 115.073 148.296 115.776L147.094 116.978C146.391 117.681 146.375 118.805 147.059 119.489C147.742 120.172 148.866 120.156 149.569 119.453L150.771 118.251Z" fill="#83DDC5"/>
<path d="M29.2 56.9C29.2 56.0716 28.5284 55.4 27.7 55.4C26.8715 55.4 26.2 56.0716 26.2 56.9V59.69C26.2 60.5184 26.8715 61.19 27.7 61.19C28.5284 61.19 29.2 60.5184 29.2 59.69V56.9Z" fill="#9CB8FF"/>
<path d="M29.2 67.8C29.2 66.9716 28.5284 66.3 27.7 66.3C26.8715 66.3 26.2 66.9716 26.2 67.8V70.59C26.2 71.4184 26.8715 72.09 27.7 72.09C28.5284 72.09 29.2 71.4184 29.2 70.59V67.8Z" fill="#9CB8FF"/>
<path d="M34.5 65.2C35.3284 65.2 36 64.5284 36 63.7C36 62.8716 35.3284 62.2 34.5 62.2H31.71C30.8816 62.2 30.21 62.8716 30.21 63.7C30.21 64.5284 30.8816 65.2 31.71 65.2H34.5Z" fill="#9CB8FF"/>
<path d="M23.6 65.3C24.4284 65.3 25.1 64.6284 25.1 63.8C25.1 62.9716 24.4284 62.3 23.6 62.3H20.81C19.9815 62.3 19.31 62.9716 19.31 63.8C19.31 64.6284 19.9815 65.3 20.81 65.3H23.6Z" fill="#9CB8FF"/>
</svg>
