<svg width="147" height="94" viewBox="0 0 147 94" fill="none" xmlns="http://www.w3.org/2000/svg">
<g clip-path="url(#clip0)">
<path d="M71 91.6667C94.0119 91.6667 112.667 73.0118 112.667 50C112.667 26.9881 94.0119 8.33331 71 8.33331C47.9882 8.33331 29.3334 26.9881 29.3334 50C29.3334 73.0118 47.9882 91.6667 71 91.6667Z" fill="#F47FFF"/>
<path d="M103.25 35.5C113.053 35.5 121 27.5531 121 17.75C121 7.94695 113.053 0 103.25 0C93.4469 0 85.5 7.94695 85.5 17.75C85.5 27.5531 93.4469 35.5 103.25 35.5Z" fill="#83DDC5"/>
<path d="M103.25 9.33331V25.5" stroke="white" stroke-width="2.66" stroke-miterlimit="10" stroke-linecap="round"/>
<path d="M111.333 17.4166H95.1666" stroke="white" stroke-width="2.66" stroke-miterlimit="10" stroke-linecap="round"/>
<path d="M89.75 68.5209C89.75 60.5834 85.7083 53.8125 80.0208 51.125C81.8128 50.2154 83.2633 48.7517 84.1566 46.9516C85.05 45.1515 85.3384 43.1111 84.9791 41.1338C84.6198 39.1566 83.632 37.3482 82.1624 35.9774C80.6929 34.6067 78.8201 33.7469 76.8227 33.5259C74.8253 33.3048 72.8099 33.7344 71.0762 34.7507C69.3425 35.767 67.9832 37.3157 67.2003 39.1665C66.4174 41.0173 66.2527 43.0714 66.7309 45.0233C67.2091 46.9752 68.3045 48.7206 69.8542 50C65.7968 50.0582 61.8442 48.7112 58.6667 46.1875C56.3729 44.106 54.9763 41.2157 54.7708 38.125C54.7708 36.8874 54.2792 35.7004 53.404 34.8252C52.5288 33.95 51.3418 33.4584 50.1042 33.4584C48.8665 33.4584 47.6795 33.95 46.8043 34.8252C45.9292 35.7004 45.4375 36.8874 45.4375 38.125C45.6619 43.7988 48.1089 49.1567 52.25 53.0417C55.025 55.5175 58.3547 57.2896 61.9583 58.2084C60.2678 61.3814 59.3943 64.9256 59.4167 68.5209H89.75Z" fill="white"/>
<path d="M131.67 34.59L126 36.59C125.708 36.69 125.455 36.8788 125.276 37.1298C125.096 37.3808 125 37.6815 125 37.99C125 38.2985 125.096 38.5992 125.276 38.8502C125.455 39.1012 125.708 39.29 126 39.39L131.67 41.39C131.881 41.4627 132.072 41.5825 132.23 41.7401C132.388 41.8978 132.507 42.0892 132.58 42.3L134.58 47.97C134.68 48.2618 134.869 48.515 135.12 48.6943C135.371 48.8736 135.672 48.97 135.98 48.97C136.288 48.97 136.589 48.8736 136.84 48.6943C137.091 48.515 137.28 48.2618 137.38 47.97L139.38 42.3C139.454 42.09 139.574 41.8992 139.732 41.7417C139.889 41.5842 140.08 41.464 140.29 41.39L145.97 39.39C146.262 39.29 146.515 39.1012 146.694 38.8502C146.874 38.5992 146.97 38.2985 146.97 37.99C146.97 37.6815 146.874 37.3808 146.694 37.1298C146.515 36.8788 146.262 36.69 145.97 36.59L140.29 34.59C140.081 34.5141 139.891 34.3933 139.734 34.2361C139.577 34.0788 139.456 33.889 139.38 33.68L137.38 28C137.28 27.7082 137.091 27.455 136.84 27.2757C136.589 27.0964 136.288 27 135.98 27C135.672 27 135.371 27.0964 135.12 27.2757C134.869 27.455 134.68 27.7082 134.58 28L132.58 33.68C132.506 33.89 132.386 34.0808 132.228 34.2383C132.071 34.3958 131.88 34.516 131.67 34.59Z" fill="white"/>
<path d="M32.5815 80.8315L27.1715 78.2215C26.8918 78.0737 26.5721 78.0194 26.2594 78.0666C25.9466 78.1137 25.6571 78.2598 25.4335 78.4835C25.2098 78.7072 25.0637 78.9966 25.0165 79.3094C24.9694 79.6221 25.0237 79.9418 25.1715 80.2215L27.8115 85.6215C27.9054 85.8235 27.9541 86.0436 27.9541 86.2665C27.9541 86.4893 27.9054 86.7094 27.8115 86.9115L25.1915 92.3015C25.0437 92.5811 24.9894 92.9008 25.0365 93.2136C25.0837 93.5263 25.2298 93.8158 25.4535 94.0394C25.6771 94.2631 25.9666 94.4092 26.2794 94.4564C26.5921 94.5035 26.9118 94.4492 27.1915 94.3015L32.6015 91.7015C32.8021 91.6027 33.0228 91.5513 33.2465 91.5513C33.4701 91.5513 33.6908 91.6027 33.8915 91.7015L39.2915 94.3015C39.5711 94.4492 39.8908 94.5035 40.2036 94.4564C40.5163 94.4092 40.8058 94.2631 41.0294 94.0394C41.2531 93.8158 41.3992 93.5263 41.4464 93.2136C41.4935 92.9008 41.4392 92.5811 41.2915 92.3015L38.6815 86.8915C38.5826 86.6908 38.5313 86.4701 38.5313 86.2465C38.5313 86.0228 38.5826 85.8021 38.6815 85.6015L41.2915 80.1815C41.4392 79.9018 41.4935 79.5821 41.4464 79.2694C41.3992 78.9566 41.2531 78.6672 41.0294 78.4435C40.8058 78.2198 40.5163 78.0737 40.2036 78.0266C39.8908 77.9794 39.5711 78.0337 39.2915 78.1815L33.8715 80.7915C33.6739 80.8966 33.4548 80.9548 33.2311 80.9617C33.0074 80.9687 32.7852 80.9241 32.5815 80.8315Z" fill="#3E70DD"/>
<path d="M8.5876 50.0222L7.3776 46.6122C7.31926 46.4369 7.20722 46.2843 7.05735 46.1763C6.90747 46.0682 6.72738 46.01 6.5426 46.01C6.35781 46.01 6.17772 46.0682 6.02785 46.1763C5.87797 46.2843 5.76593 46.4369 5.7076 46.6122L4.5876 50.0222C4.54393 50.147 4.47271 50.2603 4.37923 50.3538C4.28574 50.4473 4.17239 50.5185 4.0476 50.5622L0.587596 51.6922C0.415798 51.7527 0.267014 51.8651 0.161768 52.0137C0.0565215 52.1624 0 52.3401 0 52.5222C0 52.7044 0.0565215 52.882 0.161768 53.0307C0.267014 53.1793 0.415798 53.2917 0.587596 53.3522L3.9576 54.5322C4.08239 54.5759 4.19574 54.6471 4.28923 54.7406C4.38271 54.8341 4.45393 54.9474 4.4976 55.0722L5.6676 58.4322C5.72593 58.6075 5.83798 58.7601 5.98785 58.8681C6.13772 58.9762 6.31781 59.0344 6.5026 59.0344C6.68738 59.0344 6.86747 58.9762 7.01734 58.8681C7.16722 58.7601 7.27926 58.6075 7.3376 58.4322L8.5876 55.0722C8.63126 54.9474 8.70248 54.8341 8.79597 54.7406C8.88945 54.6471 9.0028 54.5759 9.1276 54.5322L12.4976 53.3522C12.6694 53.2917 12.8182 53.1793 12.9234 53.0307C13.0287 52.882 13.0852 52.7044 13.0852 52.5222C13.0852 52.3401 13.0287 52.1624 12.9234 52.0137C12.8182 51.8651 12.6694 51.7527 12.4976 51.6922L9.0876 50.5122C8.97516 50.4691 8.87278 50.4033 8.78677 50.3191C8.70077 50.2348 8.63298 50.1337 8.5876 50.0222Z" fill="#D4E4FF"/>
</g>
<defs>
<clipPath id="clip0">
<rect width="147" height="94" fill="white"/>
</clipPath>
</defs>
</svg>
