<svg width="12" height="12" viewBox="0 0 12 12" fill="none" xmlns="http://www.w3.org/2000/svg">
<path d="M7.0026 1.08379C7.0026 0.485229 6.51737 0 5.91881 0C5.32025 0 4.83502 0.485229 4.83502 1.08379V2.18564C4.83502 2.7842 5.32025 3.26943 5.91881 3.26943C6.51737 3.26943 7.0026 2.7842 7.0026 2.18564V1.08379Z" fill="#5AE6DC"/>
<path d="M7.0026 9.81426C7.0026 9.2157 6.51737 8.73047 5.91881 8.73047C5.32025 8.73047 4.83502 9.2157 4.83502 9.81426V10.9161C4.83502 11.5147 5.32025 11.9999 5.91881 11.9999C6.51737 11.9999 7.0026 11.5147 7.0026 10.9161V9.81426Z" fill="#5AE6DC"/>
<path d="M10.9162 7.10532C11.5148 7.10532 12 6.6201 12 6.02154C12 5.42297 11.5148 4.93774 10.9162 4.93774H9.81436C9.2158 4.93774 8.73057 5.42297 8.73057 6.02154C8.73057 6.6201 9.2158 7.10532 9.81436 7.10532H10.9162Z" fill="#5AE6DC"/>
<path d="M2.18568 7.04527C2.78424 7.04527 3.26947 6.56004 3.26947 5.96148C3.26947 5.36292 2.78424 4.87769 2.18568 4.87769H1.08383C0.485265 4.87769 3.57628e-05 5.36292 3.57628e-05 5.96148C3.57628e-05 6.56004 0.485265 7.04527 1.08383 7.04527H2.18568Z" fill="#5AE6DC"/>
</svg>
