<svg width="101" height="100" viewBox="0 0 101 100" fill="none" xmlns="http://www.w3.org/2000/svg">
<path d="M70.0697 13.05H30.9297C30.9297 22.37 23.7597 30.16 14.1797 32.05V37.44C14.1797 55.16 23.5397 71.8 39.3197 82.11L50.4997 89.41L61.6797 82.11C77.4997 71.8 86.8197 55.16 86.8197 37.44V32.05C77.2397 30.16 70.0697 22.37 70.0697 13.05Z" fill="#060607"/>
<path d="M37.5002 84.6901C21.0402 73.7901 11.2002 56.1001 11.2002 37.3501V29.5401L13.7202 29.0401C21.9102 27.4001 27.8502 20.5801 27.8502 12.8201V9.82007H73.1502V12.8201C73.1502 20.5801 79.0902 27.4001 87.2802 29.0401L89.8002 29.5401V37.3501C89.8002 56.1001 79.9602 73.7901 63.5002 84.6901L50.5002 93.2701L37.5002 84.6901Z" fill="#DFE5F3"/>
<path d="M69.95 12.8199C69.95 22.1999 77.08 30.0299 86.6 31.9299V37.3499C86.6 55.1799 77.3 71.9199 61.6 82.2799L50.5 89.6299L39.38 82.2799C23.7 71.9199 14.38 55.1799 14.38 37.3499V31.9299C23.92 29.9999 31.05 22.1999 31.05 12.8199H69.95ZM76.35 6.90991H24.65V12.8199C24.65 19.1999 19.77 24.8199 13.05 26.1499L8 27.1499V37.3499C8 57.0499 18.34 75.6399 35.66 87.0999L46.78 94.4499L50.5 96.9099L54.22 94.4499L65.34 87.0999C82.66 75.6399 93 57.0999 93 37.3499V27.1499L88 26.1499C81.28 24.7999 76.4 19.1999 76.4 12.8199V6.90991H76.35Z" fill="#5681DE"/>
<path d="M50.5004 12.8201H31.0504C31.0504 22.2001 23.9204 30.0301 14.4004 31.9301V37.3501C14.4004 55.1801 23.7004 71.9201 39.4004 82.2801L50.5004 89.6301V12.8201Z" fill="#CBD7F8"/>
<path d="M40.9696 61.16C40.9696 61.16 42.2296 59.71 43.2596 58.46C40.8772 57.9146 38.7572 56.5613 37.2596 54.63C37.2596 54.63 37.5896 54.85 38.2596 55.19L38.4096 55.27L38.7196 55.44C39.5363 55.8636 40.3778 56.2376 41.2396 56.56C42.858 57.1843 44.5322 57.6531 46.2396 57.96C49.1765 58.4826 52.1826 58.4826 55.1196 57.96C56.8294 57.6594 58.5046 57.1871 60.1196 56.55C61.4988 56.0393 62.8223 55.3892 64.0696 54.61C64.0696 54.61 62.3696 57.29 57.8696 58.49C58.8696 59.73 60.1196 61.14 60.1196 61.14C67.6896 60.92 70.5896 56.14 70.5896 56.14C70.467 49.5053 68.7741 42.9941 65.6496 37.14C62.8585 35.0595 59.5073 33.8647 56.0296 33.71L55.5496 34.24C61.3996 35.92 64.0996 38.38 64.0996 38.38C60.8816 36.7016 57.378 35.64 53.7696 35.25C51.4616 35.0028 49.1329 35.023 46.8296 35.31L46.2496 35.39C43.5682 35.686 40.9461 36.3803 38.4696 37.45C37.7876 37.7259 37.1201 38.0363 36.4696 38.38C36.4696 38.38 39.2796 35.78 45.4696 34.09L45.1096 33.71C41.6351 33.8654 38.2873 35.0603 35.4996 37.14C32.3751 42.9941 30.6822 49.5053 30.5596 56.14C30.5596 56.14 33.3996 60.94 40.9696 61.16ZM56.6496 45.92C57.3675 45.9001 58.075 46.0948 58.6817 46.4791C59.2884 46.8635 59.7666 47.4201 60.0552 48.0778C60.3438 48.7354 60.4298 49.4642 60.302 50.1709C60.1742 50.8777 59.8385 51.5302 59.3378 52.0451C58.8372 52.5601 58.1943 52.9139 57.4914 53.0615C56.7886 53.2091 56.0577 53.1437 55.3922 52.8737C54.7267 52.6036 54.1569 52.1412 53.7556 51.5456C53.3543 50.9499 53.1398 50.2482 53.1396 49.53C53.133 49.0624 53.2185 48.5982 53.3913 48.1637C53.5642 47.7293 53.8209 47.3331 54.1468 46.9979C54.4728 46.6627 54.8615 46.3949 55.291 46.21C55.7204 46.025 56.1821 45.9265 56.6496 45.92ZM44.1596 45.92C44.8771 45.9021 45.5837 46.0985 46.1891 46.4841C46.7945 46.8698 47.2712 47.4271 47.5582 48.085C47.8453 48.7428 47.9298 49.4713 47.8008 50.1774C47.6719 50.8835 47.3353 51.5352 46.8342 52.0491C46.3331 52.563 45.6902 52.9158 44.9876 53.0626C44.285 53.2093 43.5546 53.1433 42.8897 52.8729C42.2248 52.6025 41.6556 52.1401 41.2548 51.5446C40.854 50.9492 40.6398 50.2477 40.6396 49.53C40.633 49.0616 40.7188 48.5966 40.8923 48.1615C41.0657 47.7264 41.3233 47.3298 41.6503 46.9944C41.9773 46.6591 42.3673 46.3915 42.7979 46.2071C43.2285 46.0228 43.6912 45.9252 44.1596 45.92Z" fill="#6774A4"/>
</svg>
