<svg width="40" height="40" viewBox="0 0 40 40" fill="none" xmlns="http://www.w3.org/2000/svg">
<path d="M40 20C40 22 36.75 23.5 36.25 25.25C35.5 27 37.5 30.25 36.25 31.75C35 33.25 31.5 32.5 30 33.75C28.5 35 28 38.5 26.25 39C24.5 39.5 22 36.75 20 36.75C18 36.75 15.75 39.25 13.75 38.75C11.75 38.25 11.5 34.75 10 33.75C8.5 32.75 5 33.25 3.75 31.75C2.5 30.25 4.25 27 3.75 25.25C3.25 23.5 0 21.75 0 20C0 18.25 3.25 16.5 3.75 14.75C4.5 13 2.5 9.75 3.75 8.25C5 6.75 8.5 7.5 10 6.25C11.5 5 12 1.5 13.75 0.999996C15.75 0.749996 18 3.25 20 3.25C22 3.25 24.25 0.749996 26.25 1.25C28.25 1.75 28.5 5.5 30 6.5C31.5 7.5 35 7 36.25 8.5C37.5 10 35.75 13.25 36.25 15C36.75 16.75 40 18 40 20Z" fill="#5865f2"/>
<path d="M26.4999 16L22.9999 18.25C22.4999 18.5 22.2499 18.5 21.7499 18.25C21.4999 18 20.9999 17.75 20.7499 17.5C19.7499 17.25 18.9999 17.5 18.2499 18L16.9999 18.75L10.7499 23C9.24993 23.75 7.49993 23.5 6.74993 22C5.74993 20.75 6.24993 19 7.49993 18L14.9999 13C16.9999 11.75 19.4999 11.25 21.7499 11.75C23.7499 12.25 25.2499 13.25 26.4999 14.75C26.9999 15.25 26.7499 15.75 26.4999 16Z" fill="white"/>
<path d="M33.7499 19.5C33.7499 20.5 33.2499 21.5 32.4999 22L24.7499 27C23.2499 28 21.7499 28.5 19.9999 28.5C19.2499 28.5 18.7499 28.5 17.9999 28.25C15.9999 27.75 14.4999 26.75 13.2499 25.25C12.9999 24.75 13.2499 24.25 13.4999 24L16.9999 21.75C17.2499 21.5 17.7499 21.5 17.9999 21.75C18.4999 22 18.9999 22.25 19.2499 22.5C20.2499 22.5 20.9999 22.5 21.7499 22L23.4999 21L28.4999 17.5L29.2499 17C30.4999 16.25 32.4999 16.5 33.2499 17.75C33.7499 18.5 33.7499 19 33.7499 19.5Z" fill="white"/>
</svg>
