<svg width="65" height="64" viewBox="0 0 65 64" fill="none" xmlns="http://www.w3.org/2000/svg">
<g clip-path="url(#clip0)">
<rect x="0.5" width="64" height="64" fill="#5662F6"/>
<path d="M46.3631 18.9794C43.8219 17.8197 41.0805 16.9799 38.2191 16.5C38.1591 16.5 38.1191 16.52 38.0791 16.56C37.7189 17.1798 37.3387 17.9796 37.0586 18.5995C33.9771 18.1396 30.9156 18.1396 27.9141 18.5995C27.654 17.9596 27.2538 17.1798 26.8936 16.56C26.8736 16.52 26.8136 16.5 26.7736 16.5C23.9122 16.9799 21.1708 17.8396 18.6296 18.9794C18.6096 18.9794 18.5896 18.9993 18.5696 19.0193C13.387 26.6373 11.9663 34.0754 12.6667 41.4135C12.6667 41.4535 12.6867 41.4935 12.7267 41.5135C16.1284 43.9928 19.45 45.4924 22.6916 46.4922C22.7516 46.5121 22.7916 46.4922 22.8316 46.4522C23.592 45.4124 24.2923 44.3327 24.8726 43.173C24.9126 43.113 24.8726 43.0331 24.8126 42.9931C23.7321 42.5932 22.6916 42.0933 21.6911 41.5335C21.611 41.4935 21.611 41.3735 21.6711 41.3335C21.8712 41.1735 22.0913 41.0136 22.2914 40.8536C22.3314 40.8336 22.3714 40.8136 22.4114 40.8336C28.9546 43.7729 36.0581 43.7729 42.5212 40.8336C42.5613 40.8136 42.6213 40.8136 42.6613 40.8536C42.8614 41.0136 43.0615 41.1735 43.2816 41.3335C43.3616 41.3935 43.3416 41.4935 43.2616 41.5335C42.2611 42.1133 41.2206 42.5932 40.1401 42.9931C40.06 43.0131 40.04 43.093 40.08 43.173C40.6803 44.3127 41.3607 45.4124 42.121 46.4322C42.1611 46.4722 42.2011 46.4922 42.2611 46.4722C45.5227 45.4724 48.8443 43.9728 52.266 41.5135C52.286 41.4935 52.306 41.4535 52.326 41.4135C53.1664 32.9157 50.9253 25.5576 46.4031 19.0193C46.4031 19.0193 46.3831 18.9993 46.3631 18.9794ZM25.8531 36.9546C23.8721 36.9546 22.2514 35.1751 22.2514 32.9957C22.2514 30.8163 23.8521 29.0367 25.8531 29.0367C27.8741 29.0367 29.4749 30.8363 29.4549 32.9957C29.4549 35.1751 27.8541 36.9546 25.8531 36.9546ZM39.1596 36.9546C37.1786 36.9546 35.5578 35.1751 35.5578 32.9957C35.5578 30.8163 37.1586 29.0367 39.1596 29.0367C41.1806 29.0367 42.7814 30.8363 42.7614 32.9957C42.7614 35.1751 41.1806 36.9546 39.1596 36.9546Z" fill="white"/>
</g>
<defs>
<clipPath id="clip0">
<rect x="0.5" width="64" height="64" rx="32" fill="white"/>
</clipPath>
</defs>
</svg>
