<svg width="260" height="226" viewBox="0 0 260 226" fill="none" xmlns="http://www.w3.org/2000/svg">
  <mask id="mask0" mask-type="alpha" maskUnits="userSpaceOnUse" x="3" y="7" width="254" height="199">
    <path fill-rule="evenodd" clip-rule="evenodd" d="M3 205.745V7.14499H256.6V205.745H3Z" fill="white" />
  </mask>
  <g mask="url(#mask0)">
    <path fill-rule="evenodd" clip-rule="evenodd"
      d="M15.8 54.745H53.6C66.7 54.745 77.4 44.145 77.4 30.945C77.4 17.745 88 7.14499 101.1 7.14499H178.3C221.5 7.14499 256.5 42.145 256.5 85.345C256.5 128.545 221.5 163.545 178.3 163.545H171.3C159.7 163.545 150.3 172.945 150.3 184.545C150.3 196.145 140.9 205.545 129.3 205.545H52.6C27.4 205.745 7 185.345 7 160.145C7 134.945 27.4 114.545 52.6 114.545H53.5C62.9 114.545 70.6 106.845 70.6 97.445C70.6 88.045 63 80.345 53.5 80.345H15.8C8.7 80.345 3 74.645 3 67.545C3 60.445 8.7 54.745 15.8 54.745Z"
      fill="#F7F7F8" fill-opacity="0.9" />
  </g>
  <path fill-rule="evenodd" clip-rule="evenodd"
    d="M146.9 189.8C146.8 189.9 146.8 189.9 146.9 189.8C146.8 189.9 146.7 189.9 146.7 189.9" fill="white" />
  <path fill-rule="evenodd" clip-rule="evenodd"
    d="M108.3 181.8C108.2 182.3 107.7 182.7 107.1 182.6L97.1 180.8C95.5 180.5 94.4 178.9 94.7 177.3L97.1 164.1H89L84.6 188.7C84.3 190.3 85.4 191.9 87 192.2L167.7 206.8C168.5 206.9 169.3 206.8 169.9 206.3C170.6 205.8 171 205.2 171.1 204.4L185.7 123.2L177.1 126.1L165.5 190.2C165.2 191.6 164 192.7 162.6 192.7C162.4 192.7 162.2 192.7 162.1 192.7L153.1 191.1C152.6 191 152.2 190.5 152.3 189.9"
    fill="white" />
  <path fill-rule="evenodd" clip-rule="evenodd"
    d="M97.5 178.8L101.6 179.5L103 175.2C104.4 170.9 106.8 167.1 109.8 164H99.1L96.7 177.6C96.6 178.2 96.9 178.7 97.5 178.8ZM158.1 132.3C160.9 137.2 161.9 142.9 160.9 148.5C159.8 154.8 156.2 160.3 151 164C150.8 164.1 150.7 164.2 150.5 164.3C155.8 169.8 158.9 177.3 158.6 185.4L158.4 189.9L162.5 190.6C163 190.7 163.6 190.3 163.7 189.8L175.1 126.8L158.1 132.3Z"
    fill="#DCDDDE" />
  <path fill-rule="evenodd" clip-rule="evenodd"
    d="M148 144.7C148.3 143.1 149.9 142 151.5 142.3C153.1 142.6 154.2 144.2 153.9 145.8C153.6 147.4 152 148.5 150.4 148.2C148.8 147.9 147.7 146.4 148 144.7ZM142.1 159.1C142.1 161.9 139.9 164.1 137.1 164.1H127.8C129.5 164.9 131.4 165.5 133.3 165.9C139.1 166.9 144.9 165.7 149.8 162.3C154.6 158.9 157.9 153.9 158.9 148.1C159.9 142.7 158.8 137.3 156.1 132.9L142.1 137.5V159.1Z"
    fill="#DCDDDE" />
  <path fill-rule="evenodd" clip-rule="evenodd" d="M142.1 120.6C142.1 120.6 142.2 120.7 142.1 120.6V120.6Z"
    fill="white" />
  <path fill-rule="evenodd" clip-rule="evenodd"
    d="M153 68.2C154.6 67.7 156.3 68.5 156.8 70.1C157.3 71.7 156.5 73.4 154.9 73.9C153.3 74.4 151.6 73.6 151.1 72C150.5 70.4 151.4 68.7 153 68.2ZM142.1 63.1V80.5L146.4 79.1C146.9 78.9 147.5 79.2 147.7 79.7C147.9 80.2 147.6 80.8 147.1 81L142.2 82.6V98.6C144.3 98.5 146.3 98.2 148.4 97.5C154 95.7 158.5 91.8 161.2 86.5C163.8 81.3 164.3 75.3 162.4 69.7C159.4 60.5 150.7 54.6 141.5 54.6C140.6 54.6 139.7 54.7 138.7 54.8C138.8 55.4 138.8 56.1 138.6 56.8L138.2 58.3C140.4 58.7 142.1 60.7 142.1 63.1ZM41.4 118.9L45.4 119.9L47.1 115.7C47.9 113.7 48.9 111.8 50.1 110.1V80.3L40.7 117.7C40.6 118.2 40.9 118.8 41.4 118.9ZM60.2 44.2C59.9 44.1 59.7 44.2 59.4 44.3C59.2 44.4 59 44.7 58.9 44.9L55.6 58H115.2L60.2 44.2ZM47.4 120.4L50.1 121.1V114C49.7 114.8 49.3 115.6 48.9 116.5L47.4 120.4Z"
    fill="white" />
  <path fill-rule="evenodd" clip-rule="evenodd"
    d="M80.3 148.1C80.3 148.7 79.9 149.1 79.3 149.1H63.1C61.4 149.1 60.1 147.8 60.1 146.1V71.1C60.1 69.4 61.4 68.1 63.1 68.1H129.1C130.8 68.1 132.1 69.4 132.1 71.1V146.1C132.1 147.8 130.8 149.1 129.1 149.1H113C112.4 149.1 112 148.7 112 148.1H80.3ZM55.1 162.1H137.1C138.8 162.1 140.1 160.8 140.1 159.1V63.1C140.1 61.4 138.8 60.1 137.1 60.1H55.1C53.4 60.1 52.1 61.4 52.1 63.1V159.1C52.1 160.8 53.5 162.1 55.1 162.1Z"
    fill="white" />
  <path fill-rule="evenodd" clip-rule="evenodd"
    d="M82.7 101.6C84.4 101.6 85.7 102.9 85.7 104.6C85.7 106.3 84.4 107.6 82.7 107.6C81 107.6 79.7 106.3 79.7 104.6C79.7 103 81.1 101.6 82.7 101.6ZM91.3 110.3C91.6 109.9 92.2 109.8 92.7 110.1C94.7 111.6 97.5 111.6 99.5 110.1C99.9 109.8 100.6 109.9 100.9 110.3C101.2 110.7 101.1 111.4 100.7 111.7C99.3 112.7 97.7 113.2 96.1 113.2C94.5 113.2 92.9 112.7 91.5 111.7C91.1 111.4 91 110.8 91.3 110.3ZM112.7 104.6C112.7 106.3 111.4 107.6 109.7 107.6C108 107.6 106.7 106.3 106.7 104.6C106.7 102.9 108 101.6 109.7 101.6C111.4 101.6 112.7 103 112.7 104.6ZM118.1 106C118.1 93.9 108.2 84 96.1 84C84 84 74.1 93.9 74.1 106C74.1 118.1 84 128 96.1 128C108.2 128 118.1 118.1 118.1 106Z"
    fill="white" />
  <path fill-rule="evenodd" clip-rule="evenodd"
    d="M25.9 31.9C26.1 32 26.2 32.1 26.4 32.1C26.7 32.1 27.1 31.9 27.2 31.6C27.9 30.5 28.6 29.4 29.4 28.4C29.7 28 29.6 27.3 29.2 27C28.8 26.7 28.1 26.8 27.8 27.2C27 28.3 26.2 29.4 25.5 30.6C25.3 31 25.5 31.6 25.9 31.9ZM22.1 40.1C22.2 40.1 22.3 40.2 22.5 40.2C22.9 40.2 23.3 40 23.4 39.6C23.9 38.4 24.4 37.2 25 36C25.2 35.5 25 34.9 24.5 34.7C24 34.5 23.4 34.7 23.2 35.2C22.6 36.4 22.1 37.7 21.6 38.9C21.3 39.3 21.6 39.9 22.1 40.1ZM38.5 18.9C38.7 18.9 38.9 18.8 39.1 18.7C40.1 17.9 41.2 17.2 42.3 16.5C42.8 16.2 42.9 15.6 42.6 15.1C42.3 14.6 41.7 14.5 41.2 14.8C40.1 15.5 38.9 16.3 37.8 17.1C37.4 17.4 37.3 18.1 37.6 18.5C37.9 18.7 38.2 18.9 38.5 18.9ZM31.9 24.9C32.2 24.9 32.4 24.8 32.6 24.6C33.5 23.6 34.4 22.7 35.4 21.8C35.8 21.4 35.8 20.8 35.5 20.4C35.1 20 34.5 20 34.1 20.3C33.1 21.2 32.1 22.2 31.2 23.2C30.8 23.6 30.9 24.2 31.3 24.6C31.4 24.8 31.7 24.9 31.9 24.9ZM26.3 83.4C26.5 83.4 26.7 83.4 26.8 83.3C27.3 83 27.4 82.4 27.1 81.9C26.4 80.8 25.8 79.6 25.2 78.5C25 78 24.4 77.8 23.9 78.1C23.4 78.3 23.2 79 23.5 79.4C24.1 80.6 24.8 81.8 25.5 83C25.6 83.2 25.9 83.4 26.3 83.4ZM46.2 14.1C46.3 14.1 46.5 14.1 46.6 14C47.8 13.4 49 12.9 50.2 12.4C50.7 12.2 51 11.6 50.8 11.1C50.6 10.6 50 10.3 49.5 10.5C48.2 11 47 11.6 45.8 12.2C45.3 12.4 45.1 13 45.4 13.5C45.5 13.9 45.8 14.1 46.2 14.1ZM19.8 48.7C19.9 48.7 19.9 48.7 20 48.7C20.5 48.7 20.9 48.4 21 47.9C21.2 46.6 21.5 45.3 21.9 44.1C22 43.6 21.7 43 21.2 42.9C20.7 42.8 20.1 43.1 20 43.6C19.6 44.9 19.3 46.2 19.1 47.6C18.9 48.1 19.2 48.6 19.8 48.7ZM22 70.2C21.8 69.7 21.3 69.4 20.8 69.5C20.3 69.7 20 70.2 20.1 70.7C20.5 72 20.9 73.3 21.4 74.6C21.6 75 21.9 75.2 22.3 75.2C22.4 75.2 22.5 75.2 22.7 75.1C23.2 74.9 23.5 74.3 23.3 73.8C22.8 72.7 22.4 71.5 22 70.2ZM19.1 57.7C19.7 57.7 20.1 57.3 20.1 56.7C20.1 55.4 20.2 54.1 20.3 52.8C20.3 52.2 19.9 51.8 19.4 51.7C18.8 51.6 18.4 52.1 18.3 52.6C18.2 53.9 18.1 55.3 18.1 56.7C18.1 57.2 18.6 57.7 19.1 57.7ZM19.3 60.7C18.8 60.8 18.3 61.2 18.4 61.8C18.5 63.1 18.7 64.5 19 65.8C19.1 66.3 19.5 66.6 20 66.6C20.1 66.6 20.1 66.6 20.2 66.6C20.7 66.5 21.1 66 21 65.4C20.8 64.1 20.6 62.8 20.5 61.5C20.3 61 19.8 60.7 19.3 60.7ZM99.7 21C99.9 21.2 100.1 21.2 100.4 21.2C100.7 21.2 101 21.1 101.2 20.9C101.6 20.5 101.5 19.9 101.1 19.5C100.1 18.6 99 17.7 97.9 16.9C97.5 16.6 96.8 16.7 96.5 17.1C96.2 17.5 96.3 18.2 96.7 18.5C97.7 19.3 98.7 20.1 99.7 21ZM54.5 10.9C54.6 10.9 54.7 10.9 54.8 10.9C56 10.5 57.3 10.2 58.6 10C59.1 9.9 59.5 9.4 59.4 8.8C59.3 8.3 58.8 7.9 58.2 8C56.9 8.3 55.5 8.6 54.2 9C53.7 9.2 53.4 9.7 53.5 10.2C53.7 10.6 54.1 10.9 54.5 10.9ZM72.3 9.2C73.6 9.3 74.9 9.5 76.2 9.7C76.3 9.7 76.3 9.7 76.4 9.7C76.9 9.7 77.3 9.4 77.4 8.9C77.5 8.4 77.1 7.8 76.6 7.7C75.3 7.5 73.9 7.3 72.5 7.2C72 7.1 71.5 7.6 71.4 8.1C71.3 8.6 71.7 9.1 72.3 9.2ZM63.4 9.2C64.8 9.1 66.1 9 67.4 9C68 9 68.4 8.5 68.4 8C68.4 7.4 68 7 67.4 7C66 7 64.7 7.1 63.3 7.2C62.8 7.3 62.3 7.7 62.4 8.3C62.4 8.8 62.9 9.2 63.4 9.2ZM89.2 13.9C90.4 14.5 91.5 15.1 92.6 15.8C92.8 15.9 92.9 15.9 93.1 15.9C93.4 15.9 93.8 15.7 94 15.4C94.3 14.9 94.1 14.3 93.7 14C92.5 13.3 91.3 12.6 90.1 12C89.6 11.8 89 12 88.8 12.5C88.5 13.1 88.7 13.7 89.2 13.9ZM105.7 27.4C105.9 27.7 106.2 27.8 106.5 27.8C106.7 27.8 106.9 27.7 107.1 27.6C107.5 27.3 107.6 26.6 107.3 26.2C106.5 25.1 105.6 24.1 104.7 23.1C104.3 22.7 103.7 22.7 103.3 23C102.9 23.3 102.9 24 103.2 24.4C104.1 25.4 104.9 26.4 105.7 27.4ZM80.9 10.8C82.1 11.2 83.4 11.6 84.6 12C84.8 12 84.9 12 85 12C85.4 12 85.8 11.8 85.9 11.3C86.1 10.8 85.8 10.2 85.3 10C84 9.5 82.7 9.1 81.4 8.7C80.9 8.6 80.3 8.9 80.2 9.4C80.1 10.1 80.4 10.6 80.9 10.8ZM151.4 142.3C149.8 142 148.2 143.1 147.9 144.7C147.6 146.3 148.7 147.9 150.3 148.2C151.9 148.5 153.5 147.4 153.8 145.8C154.2 144.2 153.1 142.6 151.4 142.3Z"
    fill="#B9BBBE" />
  <path fill-rule="evenodd" clip-rule="evenodd"
    d="M142.1 111.7V100.6C144.4 100.5 146.7 100.2 148.9 99.4C153.7 97.8 157.8 94.8 160.7 90.8C161.2 90.1 162.2 89.8 163 90.1C169.3 92.4 174.8 97 177.9 103.4L178.2 104.1C179 105.7 178.2 107.7 176.4 108.3L171.3 110C170.8 110.2 170.5 110.7 170.7 111.3C170.9 111.8 171.4 112.1 172 111.9L186.2 107.2C187.8 106.7 188.6 105 188.1 103.4L164.6 32.2C164.3 31.4 163.8 30.8 163.1 30.5C162.4 30.1 161.6 30.1 160.8 30.3L117.3 44.7C115.5 45.3 113.6 45.4 111.7 44.9L103.4 42.8C102.4 42.6 102.4 41.2 103.3 40.9L166 20.2C166.3 20.1 166.6 20 166.9 20C168.2 20 169.3 20.8 169.8 22.1L199.9 113.3C200.2 114.1 200.1 114.9 199.7 115.6C199.3 116.3 198.7 116.8 198 117.1L144.8 134.7C143.5 135.1 142.2 134.2 142.2 132.8V115.6V111.7H142.1ZM171.1 204.3C171 205.1 170.5 205.8 169.9 206.2C169.3 206.6 168.4 206.8 167.7 206.7L87 192.2C85.4 191.9 84.3 190.3 84.6 188.7L88.4 167.4C88.7 165.5 90.4 164.1 92.3 164.1C94.8 164.1 96.7 166.4 96.2 168.8L94.7 177.3C94.4 178.9 95.5 180.5 97.1 180.8L107.1 182.6C107.6 182.7 108.2 182.3 108.3 181.8C108.4 181.3 108 180.7 107.5 180.6L106.5 180.4C104.9 180.1 104 178.5 104.5 177L104.9 175.8C106.4 171.1 109.2 167.1 112.7 164H123.8C126.5 165.8 129.6 167.1 133 167.7C134.4 168 135.9 168.1 137.3 168.1C141.3 168.1 145.2 167.1 148.7 165.2C153.8 170.3 156.9 177.5 156.6 185.1L156.5 186.3C156.4 187.9 155 189.1 153.4 188.8C152.9 188.7 152.3 189.1 152.2 189.6C152.1 190.1 152.5 190.7 153 190.8L162 192.4C162.2 192.4 162.4 192.4 162.5 192.4C163.9 192.4 165.2 191.4 165.5 189.9L177.1 125.8L185.7 122.9L171.1 204.3ZM109.8 164.1C106.8 167.2 104.4 170.9 103 175.3L101.6 179.6L97.5 178.9C97 178.8 96.6 178.3 96.7 177.7L98.7 166.6C99 165.2 100.2 164.1 101.7 164.1H109.8ZM55.1 162.1C53.4 162.1 52.1 160.8 52.1 159.1V63.1C52.1 61.4 53.4 60.1 55.1 60.1H137.1C138.8 60.1 140.1 61.4 140.1 63.1V159.1C140.1 160.8 138.8 162.1 137.1 162.1H55.1ZM99.2 58.1H58.3C57 58.1 56 56.9 56.4 55.6L59 45C59.1 44.7 59.2 44.5 59.5 44.4C59.7 44.3 60 44.2 60.3 44.3L99.7 54.2C102 54.7 101.5 58.1 99.2 58.1ZM162.8 87.4C165.7 81.7 166.2 75.2 164.2 69.1C160.5 57.9 149.2 51.2 137.9 52.9C137.2 51.8 136.2 51 134.9 50.7L118.2 46.5L161.5 32.2C161.8 32.1 162 32.1 162.3 32.3C162.5 32.4 162.7 32.6 162.8 32.9L186.3 104C186.5 104.5 186.2 105.1 185.7 105.3C183.5 106 181 105 180 102.9L179.8 102.6C176.3 95.4 169.9 90.2 162.6 87.9C162.7 87.7 162.8 87.6 162.8 87.4ZM158.9 148.1C157.9 153.9 154.6 158.9 149.8 162.3C145 165.6 139.1 166.9 133.3 165.9C131.3 165.5 129.5 164.9 127.8 164.1H137.1C139.9 164.1 142.1 161.9 142.1 159.1V139.7C142.1 138.4 142.9 137.3 144.2 136.9L156.1 133C158.8 137.3 159.9 142.7 158.9 148.1ZM150.5 164.2C150.7 164.1 150.8 164 151 163.9C156.3 160.2 159.8 154.8 160.9 148.4C161.9 142.8 160.9 137.1 158.1 132.2L175 126.6L163.6 189.6C163.5 190.1 163 190.5 162.4 190.4L158.3 189.7L158.5 185.2C158.9 177.3 155.8 169.7 150.5 164.2ZM147.7 79.7C147.5 79.2 147 78.9 146.4 79.1L143.4 80.1C142.8 80.3 142.1 79.8 142.1 79.2V63.2C142.1 60.8 140.4 58.8 138.1 58.3L138.5 56.8C138.7 56.2 138.7 55.5 138.6 54.8C139.5 54.7 140.4 54.6 141.4 54.6C151.5 54.6 160.8 61.6 163 72.3C163.8 76.2 163.5 80.2 162.2 83.9C159.9 90.4 154.8 95.3 148.3 97.5C146.2 98.2 144.2 98.5 142.1 98.6V83.3C142.1 82.9 142.4 82.5 142.8 82.4L147 81C147.6 80.8 147.8 80.2 147.7 79.7ZM50.1 63.1V72.1L38.7 117.2C38.3 118.8 39.3 120.4 40.9 120.8L48.6 122.7C49.5 122.9 50.1 123.7 50.1 124.6V133.9C50.1 135.2 48.9 136.2 47.6 135.8L30.1 131.4C29.5 131.2 28.9 130.9 28.5 130.5C27.8 129.7 27.6 128.7 27.8 127.8L51.2 34.7C51.6 33.1 53.2 32.1 54.8 32.5L134.3 52.5C135.3 52.7 136 53.4 136.4 54.4C136.6 55 136.6 55.7 136.5 56.3C136.2 57.3 135.3 58.1 134.3 58.1H123.8C123.6 58.1 123.4 58.1 123.2 58L60.7 42.3C59.7 42.1 58.7 42.3 58 43C57.5 43.4 57.2 44 57.1 44.6L53.6 58.4C51.6 59 50.1 60.9 50.1 63.1ZM50.1 110.2C48.9 111.9 47.9 113.8 47.1 115.8L45.4 120L41.4 119C40.9 118.9 40.5 118.3 40.7 117.8L48.2 88.2C48.5 87.1 50.2 87.3 50.2 88.4V110.2H50.1ZM50.1 121.1L47.4 120.4L49 116.5C49.3 115.6 49.7 114.8 50.2 114V121.1H50.1ZM201.7 112.6L171.6 21.4C170.7 18.8 167.9 17.4 165.3 18.2L102 39.2C98.4 40.4 94.5 40.5 90.8 39.6L55.3 30.7C52.6 30 49.9 31.7 49.2 34.3L25.8 127.2C25.5 128.3 25.5 129.5 26 130.6C26.6 132.1 27.9 133.1 29.4 133.5L50 138.7V159.2C50 162 52.2 164.2 55 164.2H84.4C85.6 164.2 86.6 165.3 86.4 166.6L82.5 188.5C82 191.2 83.8 193.8 86.5 194.3L167.2 208.9C167.5 209 167.8 209 168.1 209C169.1 209 170.1 208.7 170.9 208.1C172 207.3 172.7 206.2 173 204.9L187.8 122.7L198.2 119.3C199.3 118.9 200.3 118.3 201 117.3C202 115.7 202.2 114.1 201.7 112.6Z"
    fill="#B9BBBE" />
  <path fill-rule="evenodd" clip-rule="evenodd"
    d="M154.9 73.9C156.5 73.4 157.3 71.7 156.8 70.1C156.3 68.5 154.6 67.7 153 68.2C151.4 68.7 150.6 70.4 151.1 72C151.6 73.5 153.3 74.4 154.9 73.9Z"
    fill="#B9BBBE" />
  <path fill-rule="evenodd" clip-rule="evenodd"
    d="M48.1 178.8H47.6C47 178.8 46.6 178.4 46.6 177.8V177.3C46.6 176.7 46.2 176.3 45.6 176.3C45 176.3 44.6 176.7 44.6 177.3V177.8C44.6 178.4 44.2 178.8 43.6 178.8H43C42.4 178.8 42 179.2 42 179.8C42 180.4 42.4 180.8 43 180.8H43.5C44.1 180.8 44.5 181.2 44.5 181.8V182.3C44.5 182.9 44.9 183.3 45.5 183.3C46.1 183.3 46.5 182.9 46.5 182.3V181.8C46.5 181.2 46.9 180.8 47.5 180.8H48C48.6 180.8 49 180.4 49 179.8C49 179.2 48.6 178.8 48.1 178.8ZM209 51.1C209.8 51.1 210.5 51.8 210.5 52.6C210.5 53.2 210.9 53.6 211.5 53.6C212.1 53.6 212.5 53.2 212.5 52.6C212.5 51.8 213.2 51.1 214 51.1C214.6 51.1 215 50.7 215 50.1C215 49.5 214.6 49.1 214 49.1C213.2 49.1 212.5 48.4 212.5 47.6C212.5 47 212.1 46.6 211.5 46.6C210.9 46.6 210.5 47 210.5 47.6C210.5 48.4 209.8 49.1 209 49.1C208.4 49.1 208 49.5 208 50.1C208 50.7 208.4 51.1 209 51.1ZM192.8 193.7H192.3C191.7 193.7 191.3 193.3 191.3 192.7V192.2C191.3 191.6 190.9 191.2 190.3 191.2C189.7 191.2 189.3 191.6 189.3 192.2V192.7C189.3 193.3 188.9 193.7 188.3 193.7H187.8C187.2 193.7 186.8 194.1 186.8 194.7C186.8 195.3 187.2 195.7 187.8 195.7H188.3C188.9 195.7 189.3 196.1 189.3 196.7V197.2C189.3 197.8 189.7 198.2 190.3 198.2C190.9 198.2 191.3 197.8 191.3 197.2V196.7C191.3 196.1 191.7 195.7 192.3 195.7H192.8C193.4 195.7 193.8 195.3 193.8 194.7C193.8 194.2 193.4 193.7 192.8 193.7ZM25 146.2L23.8 147.4C23.4 147.8 23.4 148.4 23.8 148.8C24 149 24.3 149.1 24.5 149.1C24.7 149.1 25 149 25.2 148.8L26.4 147.6C26.8 147.2 26.8 146.6 26.4 146.2C26 145.8 25.3 145.8 25 146.2ZM19 152.1L17.8 153.3C17.4 153.7 17.4 154.3 17.8 154.7C18 154.9 18.3 155 18.5 155C18.7 155 19 154.9 19.2 154.7L20.4 153.5C20.8 153.1 20.8 152.5 20.4 152.1C20.1 151.7 19.4 151.7 19 152.1ZM25.2 152.1C24.8 151.7 24.2 151.7 23.8 152.1C23.4 152.5 23.4 153.1 23.8 153.5L25 154.7C25.2 154.9 25.5 155 25.7 155C26 155 26.2 154.9 26.4 154.7C26.8 154.3 26.8 153.7 26.4 153.3L25.2 152.1ZM19.3 146.2C18.9 145.8 18.3 145.8 17.9 146.2C17.5 146.6 17.5 147.2 17.9 147.6L19.1 148.8C19.3 149 19.6 149.1 19.8 149.1C20.1 149.1 20.3 149 20.5 148.8C20.9 148.4 20.9 147.8 20.5 147.4L19.3 146.2ZM249.4 146.4C249.7 146.4 249.9 146.3 250.1 146.1L251.3 144.9C251.7 144.5 251.7 143.9 251.3 143.5C250.9 143.1 250.3 143.1 249.9 143.5L248.7 144.7C248.3 145.1 248.3 145.7 248.7 146.1C248.9 146.3 249.2 146.4 249.4 146.4ZM244 149.5L242.8 150.7C242.4 151.1 242.4 151.7 242.8 152.1C243 152.3 243.3 152.4 243.5 152.4C243.8 152.4 244 152.3 244.2 152.1L245.4 150.9C245.8 150.5 245.8 149.9 245.4 149.5C245 149.1 244.4 149.1 244 149.5ZM251.3 150.6L250.1 149.4C249.7 149 249.1 149 248.7 149.4C248.3 149.8 248.3 150.4 248.7 150.8L249.9 152C250.1 152.2 250.4 152.3 250.6 152.3C250.9 152.3 251.1 152.2 251.3 152C251.7 151.7 251.7 151 251.3 150.6ZM244.2 143.5C243.8 143.1 243.2 143.1 242.8 143.5C242.4 143.9 242.4 144.5 242.8 144.9L244 146.1C244.2 146.3 244.5 146.4 244.7 146.4C244.9 146.4 245.2 146.3 245.4 146.1C245.8 145.7 245.8 145.1 245.4 144.7L244.2 143.5ZM209 132.5C209.8 132.5 210.5 133.2 210.5 134C210.5 134.8 209.8 135.5 209 135.5C208.2 135.5 207.5 134.8 207.5 134C207.5 133.1 208.2 132.5 209 132.5ZM209 137.5C210.9 137.5 212.5 135.9 212.5 134C212.5 132.1 210.9 130.5 209 130.5C207.1 130.5 205.5 132.1 205.5 134C205.5 135.9 207.1 137.5 209 137.5ZM82.7 101.6C81 101.6 79.7 102.9 79.7 104.6C79.7 106.3 81 107.6 82.7 107.6C84.4 107.6 85.7 106.3 85.7 104.6C85.7 103 84.4 101.6 82.7 101.6ZM109.7 101.6C108 101.6 106.7 102.9 106.7 104.6C106.7 106.3 108 107.6 109.7 107.6C111.4 107.6 112.7 106.3 112.7 104.6C112.7 103 111.4 101.6 109.7 101.6ZM99.5 110.1C97.5 111.6 94.7 111.6 92.7 110.1C92.3 109.8 91.7 109.9 91.3 110.3C90.9 110.7 91.1 111.4 91.5 111.7C92.8 112.7 94.4 113.2 96.1 113.2C97.7 113.2 99.4 112.7 100.7 111.7C101.1 111.4 101.2 110.7 100.9 110.3C100.6 109.9 99.9 109.8 99.5 110.1Z"
    fill="#B9BBBE" />
  <path fill-rule="evenodd" clip-rule="evenodd"
    d="M130.1 146.1C130.1 146.7 129.7 147.1 129.1 147.1H127.6C126.1 147.1 124.8 146 124.6 144.5L124.3 142.6C123.3 135 119.2 128.4 113.5 124C113 123.6 113 122.9 113.4 122.5C118.1 117.6 120.7 110.6 119.9 103.1C118.6 92.2 109.8 83.4 98.8 82.1C84.3 80.5 72.1 91.8 72.1 105.9C72.1 112.3 74.6 118.1 78.7 122.4C79.1 122.8 79.1 123.5 78.6 123.9C72.9 128.3 68.9 134.9 67.8 142.5L67.5 144.4C67.3 145.9 66 147 64.5 147H63C62.4 147 62 146.6 62 146V71C62 70.4 62.4 70 63 70H129C129.6 70 130 70.4 130 71V146.1H130.1ZM96.1 128C84 128 74.1 118.1 74.1 106C74.1 93.9 84 84 96.1 84C108.2 84 118.1 93.9 118.1 106C118.1 118.1 108.3 128 96.1 128ZM129.1 68.1H63.1C61.4 68.1 60.1 69.4 60.1 71.1V148.1C60.1 149.8 61.4 151.1 63.1 151.1H80.1C81.2 151.1 82.1 150.2 82.1 149.1C82.1 148 81.2 147.1 80.1 147.1H71.5C70.3 147.1 69.4 146 69.5 144.8L69.8 142.9C70.8 135.9 74.5 129.7 79.8 125.6C80.5 125.1 81.5 125 82.2 125.5C86.1 128.3 90.9 129.9 96.1 129.9C101.3 129.9 106.1 128.3 110 125.5C110.7 125 111.7 125 112.4 125.6C117.7 129.7 121.4 135.8 122.4 142.9L122.7 144.8C122.9 146 121.9 147.1 120.7 147.1H112.5C111.4 147.1 110.5 148 110.5 149.1C110.5 150.2 111.4 151.1 112.5 151.1H129.1C130.8 151.1 132.1 149.8 132.1 148.1V71.1C132.1 69.5 130.8 68.1 129.1 68.1Z"
    fill="#B9BBBE" />
  <path fill-rule="evenodd" clip-rule="evenodd"
    d="M198.4 171.5C197.3 172.3 196.3 173 195.2 173.7C194.7 174 194.6 174.6 194.9 175.1C195.1 175.4 195.4 175.6 195.7 175.6C195.9 175.6 196.1 175.5 196.2 175.4C197.3 174.7 198.5 173.9 199.5 173.1C199.9 172.8 200 172.1 199.7 171.7C199.5 171.2 198.9 171.1 198.4 171.5ZM217.5 103.8C217.7 104.2 218 104.4 218.4 104.4C218.5 104.4 218.7 104.4 218.8 104.3C219.3 104.1 219.6 103.5 219.4 103C218.9 101.8 218.3 100.5 217.7 99.3C217.5 98.8 216.9 98.6 216.4 98.8C215.9 99 215.7 99.6 215.9 100.1C216.5 101.4 217 102.6 217.5 103.8ZM219.2 108.4C219.6 109.6 219.9 110.9 220.2 112.2C220.3 112.7 220.7 113 221.2 113C221.3 113 221.4 113 221.4 113C221.9 112.9 222.3 112.3 222.1 111.8C221.8 110.5 221.4 109.2 221 107.9C220.8 107.4 220.3 107.1 219.7 107.2C219.3 107.3 219 107.9 219.2 108.4ZM216.8 151C216.3 150.8 215.7 150.9 215.5 151.4C214.9 152.6 214.3 153.7 213.6 154.8C213.3 155.3 213.5 155.9 213.9 156.2C214.1 156.3 214.2 156.3 214.4 156.3C214.7 156.3 215.1 156.1 215.3 155.8C216 154.6 216.7 153.4 217.3 152.2C217.5 151.8 217.3 151.2 216.8 151ZM221.1 117C221.3 118.3 221.4 119.6 221.5 120.9C221.5 121.4 222 121.8 222.5 121.8H222.6C223.2 121.8 223.6 121.3 223.5 120.7C223.4 119.4 223.2 118 223.1 116.7C223 116.2 222.5 115.8 222 115.9C221.4 116 221 116.5 221.1 117ZM222.1 133.8C221.6 133.7 221 134.1 221 134.6C220.8 135.9 220.5 137.2 220.2 138.5C220.1 139 220.4 139.6 220.9 139.7C221 139.7 221.1 139.7 221.1 139.7C221.6 139.7 222 139.4 222.1 138.9C222.4 137.6 222.7 136.2 222.9 134.9C223 134.4 222.6 133.9 222.1 133.8ZM220.1 142.6C219.6 142.4 219 142.7 218.8 143.2C218.4 144.4 217.9 145.7 217.4 146.9C217.2 147.4 217.4 148 218 148.2C218.1 148.3 218.3 148.3 218.4 148.3C218.8 148.3 219.2 148.1 219.3 147.7C219.8 146.4 220.3 145.2 220.7 143.9C220.9 143.3 220.6 142.8 220.1 142.6ZM210.8 158.9C210 160 209.2 161 208.4 162C208 162.4 208.1 163.1 208.5 163.4C208.7 163.6 208.9 163.6 209.1 163.6C209.4 163.6 209.7 163.5 209.9 163.2C210.8 162.2 211.6 161.1 212.4 160C212.7 159.6 212.6 158.9 212.2 158.6C211.8 158.4 211.2 158.5 210.8 158.9ZM211.7 91.2C211.2 91.5 211.1 92.1 211.5 92.6C212.2 93.7 213 94.8 213.6 95.9C213.8 96.2 214.1 96.4 214.5 96.4C214.7 96.4 214.9 96.4 215 96.3C215.5 96 215.6 95.4 215.3 94.9C214.6 93.7 213.9 92.6 213.1 91.5C212.7 91 212.1 90.9 211.7 91.2ZM187.8 179.8C187.9 179.8 188.1 179.8 188.2 179.7C189.4 179.2 190.7 178.6 191.9 177.9C192.4 177.6 192.6 177 192.3 176.6C192 176.1 191.4 175.9 191 176.2C189.8 176.8 188.6 177.4 187.5 177.9C187 178.1 186.8 178.7 187 179.2C187.1 179.5 187.4 179.8 187.8 179.8ZM222.7 124.9C222.1 124.9 221.7 125.3 221.7 125.9C221.7 127.2 221.6 128.5 221.5 129.8C221.5 130.4 221.9 130.8 222.4 130.9H222.5C223 130.9 223.5 130.5 223.5 130C223.6 128.7 223.7 127.3 223.7 125.9C223.7 125.3 223.3 124.9 222.7 124.9ZM205.1 165.7C204.2 166.6 203.2 167.5 202.2 168.4C201.8 168.8 201.7 169.4 202.1 169.8C202.3 170 202.6 170.1 202.9 170.1C203.1 170.1 203.4 170 203.6 169.9C204.6 169 205.6 168.1 206.6 167.1C207 166.7 207 166.1 206.6 165.7C206.1 165.3 205.5 165.3 205.1 165.7ZM208.4 88.7C208.6 88.9 208.9 89.1 209.2 89.1C209.4 89.1 209.7 89 209.8 88.9C210.2 88.5 210.3 87.9 209.9 87.5C209 86.5 208.1 85.4 207.2 84.5C206.8 84.1 206.2 84.1 205.8 84.5C205.4 84.9 205.4 85.5 205.8 85.9C206.7 86.7 207.6 87.7 208.4 88.7ZM202.3 82.4C202.5 82.6 202.7 82.6 203 82.6C203.3 82.6 203.6 82.5 203.8 82.3C204.2 81.9 204.1 81.3 203.7 80.9C202.7 80 201.6 79.1 200.6 78.3C200.2 78 199.5 78 199.2 78.5C198.9 78.9 198.9 79.6 199.4 79.9C200.3 80.7 201.3 81.5 202.3 82.4ZM94.6 218.3C93.3 218.2 92 218.1 90.7 217.8C90.2 217.7 89.6 218.1 89.5 218.6C89.4 219.1 89.8 219.7 90.3 219.8C91.6 220 93 220.2 94.4 220.3C94.4 220.3 94.4 220.3 94.5 220.3C95 220.3 95.5 219.9 95.5 219.4C95.5 218.9 95.1 218.4 94.6 218.3ZM86 216.7C84.8 216.3 83.5 215.8 82.4 215.3C81.9 215.1 81.3 215.3 81.1 215.8C80.9 216.3 81.1 216.9 81.6 217.1C82.8 217.7 84.1 218.2 85.4 218.6C85.5 218.6 85.6 218.6 85.7 218.6C86.1 218.6 86.5 218.3 86.7 217.9C86.8 217.4 86.5 216.9 86 216.7ZM103.3 217.9C102 218.1 100.7 218.3 99.4 218.4C98.8 218.4 98.4 218.9 98.5 219.5C98.5 220 99 220.4 99.5 220.4C99.5 220.4 99.5 220.4 99.6 220.4C101 220.3 102.3 220.1 103.7 219.9C104.2 219.8 104.6 219.3 104.5 218.7C104.4 218.1 103.8 217.8 103.3 217.9ZM119.1 210.7C118.1 211.5 117 212.3 115.9 213C115.4 213.3 115.3 213.9 115.6 214.4C115.8 214.7 116.1 214.9 116.4 214.9C116.6 214.9 116.8 214.8 116.9 214.7C118.1 214 119.2 213.2 120.2 212.3C120.6 212 120.7 211.3 120.4 210.9C120.1 210.5 119.5 210.4 119.1 210.7ZM111.6 215.3C110.4 215.8 109.2 216.3 108 216.7C107.5 216.9 107.2 217.4 107.4 218C107.5 218.4 107.9 218.7 108.4 218.7C108.5 218.7 108.6 218.7 108.7 218.7C110 218.3 111.3 217.8 112.5 217.2C113 217 113.2 216.4 113 215.9C112.8 215.4 112.1 215.1 111.6 215.3ZM78.1 213C77 212.3 75.9 211.6 74.9 210.7C74.5 210.4 73.8 210.4 73.5 210.9C73.2 211.3 73.2 212 73.7 212.3C74.8 213.2 75.9 214 77 214.7C77.2 214.8 77.4 214.9 77.5 214.9C77.8 214.9 78.2 214.7 78.3 214.4C78.7 213.9 78.6 213.3 78.1 213ZM68.8 204.5C68.5 204.1 67.8 204 67.4 204.3C67 204.6 66.9 205.3 67.2 205.7C68 206.8 68.9 207.8 69.9 208.8C70.1 209 70.4 209.1 70.6 209.1C70.8 209.1 71.1 209 71.3 208.8C71.7 208.4 71.7 207.8 71.3 207.4C70.5 206.5 69.6 205.5 68.8 204.5ZM62.8 192.4C62.5 191.2 62.2 189.9 62 188.6C61.9 188.1 61.4 187.7 60.9 187.8C60.4 187.9 60 188.4 60.1 188.9C60.3 190.2 60.6 191.6 61 192.9C61.1 193.3 61.5 193.6 62 193.6C62.1 193.6 62.2 193.6 62.3 193.6C62.6 193.5 62.9 192.9 62.8 192.4ZM61.2 175.8C61.3 175.8 61.3 175.8 61.4 175.8C61.9 175.8 62.3 175.5 62.4 175C62.7 173.8 63 172.6 63.4 171.4C63.6 170.9 63.3 170.3 62.8 170.1C62.3 169.9 61.7 170.2 61.5 170.7C61.1 171.9 60.7 173.2 60.4 174.5C60.3 175.2 60.7 175.7 61.2 175.8ZM60.6 184.8C61.2 184.8 61.6 184.3 61.6 183.8C61.6 183.5 61.6 183.3 61.6 183C61.6 182 61.6 180.9 61.7 179.9C61.7 179.3 61.3 178.9 60.8 178.8C60.2 178.7 59.8 179.2 59.7 179.7C59.6 180.8 59.6 181.9 59.6 183C59.6 183.3 59.6 183.6 59.6 183.8C59.6 184.3 60 184.8 60.6 184.8ZM125.2 204.5C124.4 205.5 123.6 206.5 122.7 207.5C122.3 207.9 122.3 208.5 122.7 208.9C122.9 209.1 123.1 209.2 123.4 209.2C123.7 209.2 123.9 209.1 124.1 208.9C125 207.9 125.9 206.9 126.8 205.8C127.1 205.4 127.1 204.7 126.6 204.4C126.2 204 125.5 204.1 125.2 204.5ZM64.4 197C64.2 196.5 63.6 196.3 63.1 196.5C62.6 196.7 62.4 197.3 62.6 197.8C63.1 199.1 63.8 200.3 64.4 201.5C64.6 201.8 64.9 202 65.3 202C65.5 202 65.6 202 65.8 201.9C66.3 201.6 66.4 201 66.2 200.5C65.5 199.3 64.9 198.2 64.4 197Z"
    fill="#B9BBBE" />
</svg>
