<svg width="72" height="72" viewBox="0 0 72 72" fill="none" xmlns="http://www.w3.org/2000/svg">
<path d="M36 72C55.8823 72 72 55.8823 72 36C72 16.1177 55.8823 0 36 0C16.1177 0 0 16.1177 0 36C0 55.8823 16.1177 72 36 72Z" fill="#9C84EF"/>
<path d="M32.48 38.8801L37.3 5.00006C37.4426 3.83163 38.0212 2.76016 38.92 2.00006C39.816 1.22029 40.9726 0.806187 42.16 0.84006C42.8506 0.850317 43.5315 1.00354 44.16 1.29006C44.782 1.57909 45.3345 1.99858 45.78 2.52006C46.2255 3.0398 46.5557 3.64814 46.7487 4.3049C46.9418 4.96166 46.9933 5.65191 46.9 6.33006L42.17 41.3801L32.48 38.8801Z" fill="#EE8BAA"/>
<path d="M38 32.6L42.3 11.32C42.3437 11.1419 42.4502 10.9856 42.6 10.88C42.7485 10.7764 42.9309 10.7335 43.11 10.76C43.48 10.85 43.76 11.12 43.67 11.48L41 32.29L38 32.6Z" fill="#DF76A5"/>
<path d="M37.2999 5.00001C37.451 3.78507 38.0588 2.67315 38.9999 1.89001C38.2599 7.46001 36.8499 17.31 34.8899 33.74L33.1599 34.04L37.2999 5.00001Z" fill="#F2AEBA"/>
<path d="M14.69 4.23006C13.2761 4.81804 12.1405 5.92438 11.5158 7.32246C10.8912 8.72053 10.8247 10.3045 11.33 11.7501L21.57 40.3901L34.18 36.4801L22.48 7.48006C21.8732 6.01976 20.7144 4.85807 19.2556 4.24759C17.7968 3.63711 16.156 3.62722 14.69 4.22006V4.23006Z" fill="#EE8BAA"/>
<path d="M24.84 33.15L29.84 32.3499L22.68 15.23C22.585 14.9784 22.4424 14.7475 22.26 14.55C22.0648 14.362 21.8334 14.2157 21.58 14.12C21.3242 14.0269 21.0508 13.9927 20.78 14.02C20.5107 14.0435 20.2506 14.129 20.02 14.27C19.6063 14.4801 19.2855 14.8365 19.12 15.27C18.9454 15.6923 18.9207 16.1616 19.05 16.6L24.84 33.15Z" fill="#DF76A5"/>
<path d="M22.1101 33.19L12.0001 6.54004C11.5074 7.30273 11.1961 8.16824 11.0901 9.07004C10.9728 9.97084 11.0583 10.8865 11.3401 11.75L19.1201 33.59L22.1101 33.19Z" fill="#F1A6B4"/>
<path d="M46.22 28.8L9.15999 34.14C6.60749 34.5066 4.30454 35.8704 2.75613 37.9325C1.20771 39.9945 0.54021 42.5865 0.899993 45.14V45.4C1.2691 47.9513 2.63359 50.2526 4.695 51.8005C6.75641 53.3485 9.34695 54.017 11.9 53.66L49 48.36C51.5495 47.9885 53.8483 46.623 55.3942 44.5618C56.94 42.5007 57.6072 39.9115 57.25 37.36V37.1C57.0734 35.8296 56.6476 34.6066 55.997 33.5012C55.3465 32.3958 54.4841 31.4298 53.4592 30.6586C52.4344 29.8874 51.2673 29.3262 50.025 29.0073C48.7827 28.6883 47.4896 28.6179 46.22 28.8Z" fill="#EE8BAA"/>
<path d="M50.3401 45L12.2601 50.53C11.067 50.7033 9.9198 51.11 8.88389 51.7267C7.84798 52.3434 6.94369 53.1581 6.22264 54.1243C4.76642 56.0756 4.145 58.5255 4.49509 60.935C4.84518 63.3445 6.13809 65.5162 8.08941 66.9724C10.0407 68.4286 12.4906 69.0501 14.9001 68.7L53.0001 63.17C55.3288 62.7281 57.3968 61.4036 58.772 59.473C60.1472 57.5424 60.7233 55.1552 60.38 52.8099C60.0366 50.4646 58.8004 48.3427 56.9295 46.8873C55.0586 45.432 52.6978 44.7558 50.3401 45Z" fill="#EE8BAA"/>
<path d="M33.33 48.0001C34.1 47.3701 34 45.9401 33.07 44.8101C32.14 43.6801 30.78 43.2701 30 43.9001C29.22 44.5301 29.33 45.96 30.24 47.1C31.15 48.24 32.54 48.6401 33.33 48.0001Z" fill="#1E1C2A"/>
<path d="M49.8699 43.9099C50.0999 42.5699 49.5199 41.3499 48.5799 41.1899C47.6399 41.0299 46.6899 41.9799 46.4599 43.3199C46.2299 44.6599 46.7999 45.8699 47.7399 46.0399C48.6799 46.2099 49.6299 45.2499 49.8699 43.9099Z" fill="#1E1C2A"/>
<path d="M38 51.19L40.39 52.7C40.761 52.9386 41.1818 53.0891 41.62 53.14C42.0552 53.198 42.4978 53.163 42.9184 53.0371C43.3391 52.9113 43.7282 52.6975 44.06 52.41C44.3841 52.132 44.6493 51.792 44.84 51.41L45.55 49.85" stroke="#AB4A72" stroke-width="1.82" stroke-miterlimit="10" stroke-linecap="round"/>
<path d="M9.42999 51.8599C7.22999 51.3399 4.57999 50.6499 3.48999 50.5699C4.54292 51.7601 5.86688 52.6794 7.34999 53.2499L6.99999 53.6199L12.65 53.2699C14.64 52.9999 13.81 52.7999 9.42999 51.8599Z" fill="#DF79A8"/>
<path d="M7.15999 40.2099C8.57999 38.6399 9.22999 36.9299 8.63999 36.3899C8.04999 35.8499 6.39999 36.69 4.99999 38.27C3.59999 39.85 2.93999 41.55 3.53999 42.09C4.13999 42.63 5.74999 41.7899 7.15999 40.2099Z" fill="#F1A5BC"/>
<path d="M65.6599 62.9L62.4099 61.65C62.3499 61.65 62.2899 61.65 62.3199 61.74L63.5699 65L62.3199 68.25C62.3119 68.2629 62.3083 68.2781 62.3096 68.2932C62.3109 68.3083 62.3171 68.3226 62.3273 68.3339C62.3375 68.3452 62.351 68.3529 62.3659 68.3558C62.3808 68.3587 62.3963 68.3567 62.4099 68.35L65.6599 67.1L68.9999 68.39C69.0136 68.3967 69.029 68.3987 69.0439 68.3958C69.0589 68.3929 69.0724 68.3852 69.0826 68.3739C69.0927 68.3626 69.0989 68.3483 69.1003 68.3332C69.1016 68.3181 69.098 68.3029 69.0899 68.29L67.8099 65V64.95L69.0499 61.7C69.0499 61.65 69.0499 61.59 68.9599 61.61L65.7099 62.9H65.6599Z" fill="#4DE6CA"/>
<path d="M9.17007 62.5L7.75007 59.32C7.74488 59.307 7.73591 59.2959 7.72433 59.288C7.71274 59.2802 7.69907 59.276 7.68507 59.276C7.67108 59.276 7.65741 59.2802 7.64582 59.288C7.63424 59.2959 7.62527 59.307 7.62007 59.32L6.21007 62.5L3.00007 64C2.98708 64.0052 2.97594 64.0142 2.9681 64.0258C2.96025 64.0374 2.95605 64.051 2.95605 64.065C2.95605 64.079 2.96025 64.0927 2.9681 64.1043C2.97594 64.1159 2.98708 64.1248 3.00007 64.13L6.17007 65.5L7.58007 68.68C7.58527 68.693 7.59424 68.7042 7.60582 68.712C7.61741 68.7198 7.63108 68.724 7.64507 68.724C7.65907 68.724 7.67274 68.7198 7.68433 68.712C7.69591 68.7042 7.70488 68.693 7.71007 68.68L9.13007 65.5L12.3101 64.08C12.3231 64.0748 12.3342 64.0659 12.3421 64.0543C12.3499 64.0427 12.3541 64.029 12.3541 64.015C12.3541 64.001 12.3499 63.9874 12.3421 63.9758C12.3342 63.9642 12.3231 63.9552 12.3101 63.95L9.20007 62.54C9.20007 62.54 9.17007 62.52 9.17007 62.5Z" fill="#DBD2FF"/>
<path d="M70.3 12.2C71.2389 12.2 72 11.4389 72 10.5C72 9.56116 71.2389 8.80005 70.3 8.80005H65.98C65.0411 8.80005 64.28 9.56116 64.28 10.5C64.28 11.4389 65.0411 12.2 65.98 12.2H70.3Z" fill="#FBCC00"/>
<path d="M57.02 12.2001C57.9589 12.2001 58.72 11.4389 58.72 10.5C58.72 9.56117 57.9589 8.80005 57.02 8.80005H52.7C51.7611 8.80005 51 9.56117 51 10.5C51 11.4389 51.7611 12.2001 52.7 12.2001H57.02Z" fill="#FBCC00"/>
<path d="M59.7999 19.3C59.7999 20.2389 60.5611 21 61.5 21C62.4388 21 63.2 20.2389 63.2 19.3V14.98C63.2 14.0411 62.4388 13.28 61.5 13.28C60.5611 13.28 59.7999 14.0411 59.7999 14.98V19.3Z" fill="#FBCC00"/>
<path d="M59.7999 6.01997C59.7999 6.95885 60.5611 7.71997 61.5 7.71997C62.4388 7.71997 63.2 6.95885 63.2 6.01997V1.69997C63.2 0.761086 62.4388 -2.90871e-05 61.5 -2.90871e-05C60.5611 -2.90871e-05 59.7999 0.761086 59.7999 1.69997V6.01997Z" fill="#FBCC00"/>
</svg>
