<svg width="72" height="72" viewBox="0 0 72 72" fill="none" xmlns="http://www.w3.org/2000/svg">
<g clip-path="url(#clip0)">
<path d="M36 72C55.8823 72 72 55.8823 72 36C72 16.1177 55.8823 0 36 0C16.1177 0 0 16.1177 0 36C0 55.8823 16.1177 72 36 72Z" fill="#FFE375"/>
<path d="M36 72C55.8823 72 72 55.8823 72 36C72 16.1177 55.8823 0 36 0C16.1177 0 0 16.1177 0 36C0 55.8823 16.1177 72 36 72Z" fill="#6C53E6"/>
<path d="M54.38 58.37L52.12 54.87C51.6409 54.1033 51.0012 53.4497 50.2451 52.9542C49.4889 52.4587 48.6342 52.1331 47.74 52L44 51.37L29.3 53.56L17.93 62.38C17.5312 62.6903 17.2123 63.0914 17 63.55C16.8044 64.0068 16.7254 64.5051 16.77 65L16.87 66.49C23.9181 70.9099 32.2794 72.7524 40.5324 71.7042C48.7855 70.6559 56.4207 66.7816 62.14 60.74C61.9386 60.6413 61.7315 60.5545 61.52 60.48L54.38 58.37Z" fill="#DE6B73"/>
<path d="M8.16999 11.06H8.23999L28.94 6.62C42.57 3.62 49.06 7.49 56.27 16.02L56.78 16.68L67.72 29.94L69.9 32.57C73.62 38.18 71.9 42.84 62.9 42.92C53.6777 42.7944 44.521 41.3463 35.71 38.62C27.18 36.07 14.5 32.42 4.70999 23.97L4.26999 23.6L3.99999 23.38L3.41999 22.87L3.19999 22.65C-2.48001 17 0.999993 12.67 8.16999 11.06Z" fill="url(#paint0_linear)"/>
<path d="M3.21003 22.6499L3.43003 22.8699L4.01003 23.3799L4.23003 23.5999L4.67003 23.9699C14.51 32.4199 27.19 36.0699 35.72 38.6199C44.5301 41.3505 53.6873 42.7987 62.91 42.9199C69.39 42.8399 72.09 40.3699 71.65 36.9199C68.15 31.5999 54.23 24.2399 38.27 19.2099C22.31 14.1799 7.87003 12.5199 1.53003 14.4199C-0.359971 16.5299 -0.139971 19.3699 3.21003 22.6499Z" fill="url(#paint1_linear)"/>
<path d="M63 38.49C63.93 35.49 52.13 29.2 36.65 24.35C21.17 19.5 7.85002 18 6.92002 20.92C5.99002 23.84 17.8 30.21 33.28 35.06C48.76 39.91 62.06 41.45 63 38.49Z" fill="#643443"/>
<path d="M24.57 28.7L25.44 29.21L11.81 26.21C13.0142 26.9564 14.2558 27.6407 15.53 28.26L27.85 30.44H27.92L19.83 30.3L24.83 32.3L30.08 31.3L34 32.71L37.36 33.66L43.59 38L47.67 38.88L39.07 34.07H39.58L52.92 39.68L55.03 39.9L41.33 34.43C42.25 34.6 43.17 34.72 44.1 34.8L61.23 39.8C61.8406 39.6828 62.3997 39.3788 62.83 38.93L45.7 34.68C45.85 34.61 45.92 34.46 46 34.39C46.08 34.32 46 34.17 45.92 33.95L62.4 36.79C61.8874 36.1637 61.2996 35.6028 60.65 35.12L45.12 33.3L44.25 32.71H57L54.31 31.33L43.01 32.13L41.19 31.25L49.13 28.92L46.43 27.83L40 30.74L38.47 30.16L43.64 26.81L41.4 26L37.18 29.71L35.72 29.2L38.63 25.05L36.81 24.47L35.06 29.06L34.48 28.84H34.7L33.9 23.59L31.42 22.86L33 28.41L30.82 27.83L28.56 22.14L26.44 21.63L29.94 27.63L26.68 27L22 20.69L19.74 20.25L25.74 26.95C25.0823 26.7954 24.3977 26.7954 23.74 26.95L12.76 19.52C12.2256 19.45 11.6844 19.45 11.15 19.52L23.15 27.39L7.15 20.54L6.85 20.98C6.78894 21.3502 6.84123 21.7301 7 22.07L24.57 28.7Z" fill="#723C4C"/>
<path d="M47 59.17C45.17 52.76 45 43.57 46.27 33.17C46.49 32.44 41.6 30.33 35.33 28.43C29.06 26.53 23.82 25.66 23.6 26.43C22.49 36.77 20.2 52.72 26.89 70.83C28.1156 71.1495 29.3573 71.4032 30.61 71.59L47 59.17Z" fill="url(#paint2_linear)"/>
<g opacity="0.4">
<path opacity="0.4" d="M22.45 39.49C29.6 37.3 39.07 36.28 45.85 37.09C45.9287 35.7699 46.0755 34.4548 46.29 33.15C46.51 32.42 41.62 30.31 35.35 28.41C29.08 26.51 23.84 25.64 23.62 26.41C23.25 30.16 22.67 34.54 22.45 39.49Z" fill="#9A417B"/>
</g>
<path d="M28.06 13L27.06 11.32L30.64 10.67L28.06 13Z" fill="#F7CD96"/>
<path d="M24.92 48.06C25.43 47.96 25.73 47.27 25.58 46.52C25.43 45.77 24.9 45.24 24.38 45.34C23.86 45.44 23.57 46.13 23.72 46.88C23.87 47.63 24.41 48.16 24.92 48.06Z" fill="#4F3446"/>
<path d="M34.36 46.78C34.5703 46.4901 34.6597 46.1299 34.6093 45.7753C34.5589 45.4208 34.3727 45.0997 34.09 44.88C33.7541 44.7545 33.3825 44.7647 33.054 44.9084C32.7255 45.0522 32.4658 45.3181 32.33 45.65C32.1172 45.9389 32.0263 46.2998 32.0767 46.6551C32.1272 47.0104 32.3151 47.3317 32.6 47.55C32.9359 47.6754 33.3075 47.6652 33.636 47.5215C33.9645 47.3778 34.2242 47.1118 34.36 46.78Z" fill="#4F3446"/>
<path d="M37.61 7.64001C38.4172 7.21455 39.3322 7.03713 40.24 7.13001C40.24 7.13001 38.49 8.66001 37.61 7.64001Z" fill="#F7D097"/>
<path d="M30.1 8.21993C30.1 8.21993 30.47 6.21993 34.33 7.12993L30.1 8.21993Z" fill="#FFFBC9"/>
<path d="M41.7 21.34C41.4131 22.5803 40.9195 23.7634 40.24 24.84L43.88 25.93C43.88 25.93 46.14 24.69 46.58 22.87C44.25 22 41.7 21.34 41.7 21.34Z" fill="#CE7868"/>
<path d="M31.2 58.66C29.52 60.12 29.09 59.88 28.5 59.54C26.79 58.54 25.88 57.13 26.5 56.54C27.12 55.95 29.2 56.03 31.39 56.03C33.09 56 32.88 57.2 31.2 58.66Z" fill="#331518"/>
<path d="M31.46 58.42L31.65 58.24L31.81 58.07C31.86 58.01 31.92 57.95 31.96 57.89L32.1 57.71C32.1422 57.6607 32.1791 57.6071 32.21 57.55L32.3 57.39L32.37 57.23C32.3742 57.1801 32.3742 57.1299 32.37 57.08C32.37 57.03 32.37 56.98 32.37 56.94C32.3854 56.8607 32.3854 56.7792 32.37 56.7C32.3539 56.6613 32.3338 56.6245 32.31 56.59C32.262 56.5156 32.1969 56.4538 32.12 56.41L31.99 56.34L31.29 56.23H30.46C29.181 56.8534 28.1186 57.8462 27.41 59.08C27.7075 59.3139 28.018 59.5309 28.34 59.73C28.93 60.07 29.34 60.31 31.04 58.85L31.26 58.65L31.46 58.42Z" fill="#DE6B73"/>
<path d="M32.4 57.2799C32.8 56.5299 32.51 56.0399 31.4 56.0399C29.9286 55.9447 28.4511 56.0287 27 56.2899C26.92 56.7799 26.84 57.2899 27.24 57.2899L32.4 57.2799Z" fill="white"/>
<path d="M19.46 53.19C19.6586 53.5005 19.9297 53.7579 20.25 53.94C20.5576 54.1084 20.8997 54.2042 21.25 54.22C23 57.42 26 57.71 29 55.09C32.79 57.57 34.32 57.35 37.53 54.65C39.53 55.09 41.1 54.65 41.9 53.65C43.36 52.19 43.51 48.77 40.3 48.04C40.81 49.21 40.88 50.23 38.62 50.88C37.9373 51.0917 37.2245 51.1897 36.51 51.17C33.89 51.17 31.92 49.86 29 51.39C28.1841 50.9039 27.2669 50.613 26.32 50.54C25.3731 50.4579 24.4203 50.6018 23.54 50.96C22.856 51.1813 22.1383 51.2795 21.42 51.25C21.2113 51.2201 21.0125 51.1413 20.84 51.02C20.6628 50.9065 20.5154 50.7522 20.41 50.57C20.3067 50.3857 20.2452 50.1808 20.23 49.97C20.2183 49.7586 20.2524 49.5471 20.33 49.35C19.8134 49.7677 19.4395 50.3358 19.2603 50.9755C19.0811 51.6152 19.1055 52.2948 19.33 52.92C19.4 53 19.4 53.14 19.47 53.21L19.46 53.19Z" fill="#643443"/>
<path d="M37.54 54.65C39.54 55.09 41.11 54.65 41.91 53.65C42.4544 53.0881 42.7992 52.363 42.8913 51.5861C42.9835 50.8092 42.8179 50.0236 42.42 49.35C42.86 51.76 40.16 53.51 36.42 52.56C33.06 55.26 28.42 52.78 28.42 52.78C26.24 54.45 23.9 55.04 21.72 53.21C21.2143 53.3227 20.6849 53.248 20.23 53C19.7453 52.7578 19.3677 52.3445 19.17 51.84C19.1808 52.178 19.2311 52.5136 19.32 52.84C19.39 52.92 19.39 53.06 19.46 53.13C19.6585 53.4404 19.9297 53.6978 20.25 53.88C20.5576 54.0483 20.8997 54.1441 21.25 54.16C23 57.42 26 57.71 29 55.09C32.8 57.57 34.33 57.35 37.54 54.65Z" fill="#572A37"/>
<path d="M9.83999 56L7.62999 51C7.62121 50.9808 7.60713 50.9646 7.5894 50.9532C7.57167 50.9418 7.55105 50.9358 7.52999 50.9358C7.50893 50.9358 7.48831 50.9418 7.47058 50.9532C7.45285 50.9646 7.43876 50.9808 7.42999 51L5.21999 56L5.15999 56.05L0.159989 58.26C0.141233 58.2703 0.125599 58.2856 0.114712 58.304C0.103825 58.3225 0.0980835 58.3435 0.0980835 58.365C0.0980835 58.3864 0.103825 58.4074 0.114712 58.4259C0.125599 58.4444 0.141233 58.4596 0.159989 58.47L5.15999 60.68C5.18474 60.6946 5.20538 60.7152 5.21999 60.74L7.42999 65.74C7.43876 65.7591 7.45285 65.7753 7.47058 65.7867C7.48831 65.7981 7.50893 65.8041 7.52999 65.8041C7.55105 65.8041 7.57167 65.7981 7.5894 65.7867C7.60713 65.7753 7.62121 65.7591 7.62999 65.74L9.83999 60.74C9.84429 60.7258 9.85201 60.7129 9.86247 60.7024C9.87294 60.692 9.88582 60.6843 9.89999 60.68L14.9 58.47C14.9187 58.4596 14.9344 58.4444 14.9453 58.4259C14.9562 58.4074 14.9619 58.3864 14.9619 58.365C14.9619 58.3435 14.9562 58.3225 14.9453 58.304C14.9344 58.2856 14.9187 58.2703 14.9 58.26L9.89999 56.05C9.88714 56.0461 9.87521 56.0397 9.86491 56.0311C9.8546 56.0225 9.84612 56.0119 9.83999 56Z" fill="#4DE6CA"/>
<path d="M66.33 2.84999L67.4 0.0799908C67.4017 0.0690952 67.4008 0.0579501 67.3974 0.0474637C67.394 0.0369774 67.3881 0.0274465 67.3803 0.019648C67.3725 0.0118495 67.363 0.00600407 67.3525 0.00258803C67.342 -0.000828013 67.3309 -0.00171795 67.32 -9.24326e-06L64.55 1.06999L61.74 -9.24326e-06C61.69 -9.24326e-06 61.64 -9.24617e-06 61.66 0.0799908L62.72 2.84999L61.66 5.65999C61.6546 5.67119 61.6529 5.68377 61.655 5.69599C61.6571 5.70822 61.6629 5.7195 61.6717 5.72828C61.6805 5.73705 61.6917 5.74289 61.704 5.74498C61.7162 5.74708 61.7288 5.74534 61.74 5.73999L64.51 4.66999L67.28 5.73999C67.33 5.73999 67.37 5.73999 67.36 5.65999L66.33 2.88999V2.84999Z" fill="#EE8BAA"/>
<path d="M15.5301 45.7528C15.8659 46.0886 16.4105 46.0886 16.7463 45.7528C17.0822 45.4169 17.0822 44.8724 16.7463 44.5365L15.2048 42.995C14.869 42.6592 14.3245 42.6592 13.9886 42.995C13.6528 43.3309 13.6528 43.8754 13.9886 44.2113L15.5301 45.7528Z" fill="#FFE375"/>
<path d="M10.7935 41.0128C11.1293 41.3486 11.6738 41.3486 12.0097 41.0128C12.3455 40.6769 12.3455 40.1324 12.0097 39.7966L10.4682 38.2551C10.1323 37.9192 9.58782 37.9192 9.25197 38.2551C8.91612 38.5909 8.91612 39.1354 9.25197 39.4713L10.7935 41.0128Z" fill="#FFE375"/>
<path d="M9.24894 44.5317C8.91309 44.8676 8.91309 45.4121 9.24894 45.748C9.58479 46.0838 10.1293 46.0838 10.4652 45.748L12.0067 44.2065C12.3425 43.8706 12.3425 43.3261 12.0067 42.9903C11.6708 42.6544 11.1263 42.6544 10.7904 42.9903L9.24894 44.5317Z" fill="#FFE375"/>
<path d="M13.9955 39.7918C13.6597 40.1276 13.6597 40.6721 13.9955 41.008C14.3314 41.3438 14.8759 41.3438 15.2117 41.008L16.7532 39.4665C17.0891 39.1306 17.0891 38.5861 16.7532 38.2503C16.4174 37.9144 15.8729 37.9144 15.537 38.2503L13.9955 39.7918Z" fill="#FFE375"/>
</g>
<defs>
<linearGradient id="paint0_linear" x1="28.84" y1="8.75" x2="41.76" y2="42.02" gradientUnits="userSpaceOnUse">
<stop stop-color="#F5C38D"/>
<stop offset="1" stop-color="#CF8F71"/>
</linearGradient>
<linearGradient id="paint1_linear" x1="71.7" y1="28.2899" x2="0.33003" y2="28.2899" gradientUnits="userSpaceOnUse">
<stop stop-color="#C97A6D"/>
<stop offset="1" stop-color="#D89F83"/>
</linearGradient>
<linearGradient id="paint2_linear" x1="1026.79" y1="2863.85" x2="303.681" y2="1851.54" gradientUnits="userSpaceOnUse">
<stop stop-color="#F5C38D"/>
<stop offset="1" stop-color="#CF8F71"/>
</linearGradient>
<clipPath id="clip0">
<rect width="72" height="72" fill="white"/>
</clipPath>
</defs>
</svg>
