<svg width="24" height="24" viewBox="0 0 24 24" xmlns="http://www.w3.org/2000/svg">
<path d="M16.4823 15.6364H15.2605C14.5577 15.6268 13.8874 15.3389 13.3966 14.8358C12.9058 14.3327 12.6345 13.6555 12.6423 12.9527V11.7018C12.6404 11.4215 12.7494 11.1517 12.9456 10.9514C13.1418 10.7511 13.4092 10.6366 13.6896 10.6327H19.4278V9.13455H9.24594C8.32231 11.2146 7.37685 13.3818 7.06413 14.2255C6.86304 14.721 6.51771 15.1448 6.07292 15.4417C5.62813 15.7387 5.10438 15.8952 4.56958 15.8909V16.7855C4.97132 17.1878 5.44866 17.5067 5.97413 17.7239C6.4996 17.9411 7.06282 18.0522 7.6314 18.0509H16.7878C17.4886 18.0509 18.1608 17.773 18.6571 17.2781C19.1534 16.7832 19.4331 16.1118 19.435 15.4109V15.2218C19.0218 15.4913 18.5393 15.6353 18.0459 15.6364H16.4823ZM10.3514 13.5927C10.1712 13.594 9.99477 13.5413 9.84482 13.4414C9.69486 13.3415 9.57828 13.199 9.5101 13.0322C9.44191 12.8654 9.42526 12.682 9.46228 12.5057C9.4993 12.3293 9.5883 12.1681 9.7178 12.0428C9.8473 11.9175 10.0114 11.8339 10.1888 11.8027C10.3663 11.7715 10.5491 11.7943 10.7135 11.8679C10.8779 11.9416 11.0166 12.0628 11.1115 12.216C11.2064 12.3691 11.2532 12.5472 11.2459 12.7273C11.2366 12.9588 11.1385 13.1779 10.9719 13.3391C10.8054 13.5002 10.5831 13.5911 10.3514 13.5927Z" fill="#9CB8FF"/>
<path d="M19.617 10.6327H13.697C13.5576 10.6337 13.4197 10.6621 13.2913 10.7163C13.1628 10.7706 13.0463 10.8496 12.9483 10.9489C12.8504 11.0481 12.773 11.1657 12.7205 11.2949C12.6681 11.4241 12.6415 11.5624 12.6425 11.7018V12.9527C12.6347 13.6555 12.906 14.3327 13.3968 14.8358C13.8876 15.3389 14.5579 15.6268 15.2607 15.6364H18.0461C18.5395 15.6353 19.022 15.4913 19.4352 15.2218L19.508 15.1782C19.8611 14.9249 20.1484 14.5906 20.3458 14.2034C20.5432 13.8162 20.6449 13.3873 20.6425 12.9527V11.7018C20.6464 11.4246 20.541 11.157 20.3491 10.9569C20.1572 10.7568 19.8942 10.6403 19.617 10.6327ZM17.0061 14.4654H15.8498C15.7872 14.4735 15.7237 14.4681 15.6634 14.4497C15.6031 14.4313 15.5475 14.4002 15.5001 14.3586C15.4528 14.317 15.4148 14.2657 15.3889 14.2083C15.3629 14.1508 15.3494 14.0885 15.3494 14.0254C15.3494 13.9624 15.3629 13.9001 15.3889 13.8426C15.4148 13.7852 15.4528 13.7339 15.5001 13.6923C15.5475 13.6507 15.6031 13.6196 15.6634 13.6012C15.7237 13.5828 15.7872 13.5774 15.8498 13.5854H17.0061C17.0687 13.5774 17.1322 13.5828 17.1925 13.6012C17.2528 13.6196 17.3084 13.6507 17.3558 13.6923C17.4031 13.7339 17.4411 13.7852 17.467 13.8426C17.493 13.9001 17.5065 13.9624 17.5065 14.0254C17.5065 14.0885 17.493 14.1508 17.467 14.2083C17.4411 14.2657 17.4031 14.317 17.3558 14.3586C17.3084 14.4002 17.2528 14.4313 17.1925 14.4497C17.1322 14.4681 17.0687 14.4735 17.0061 14.4654ZM19.0789 14.4654H18.6352C18.5283 14.4517 18.43 14.3994 18.3588 14.3184C18.2876 14.2374 18.2483 14.1333 18.2483 14.0254C18.2483 13.9176 18.2876 13.8135 18.3588 13.7325C18.43 13.6515 18.5283 13.5992 18.6352 13.5854H19.0789C19.1414 13.5774 19.2049 13.5828 19.2652 13.6012C19.3255 13.6196 19.3812 13.6507 19.4285 13.6923C19.4759 13.7339 19.5138 13.7852 19.5398 13.8426C19.5657 13.9001 19.5792 13.9624 19.5792 14.0254C19.5792 14.0885 19.5657 14.1508 19.5398 14.2083C19.5138 14.2657 19.4759 14.317 19.4285 14.3586C19.3812 14.4002 19.3255 14.4313 19.2652 14.4497C19.2049 14.4681 19.1414 14.4735 19.0789 14.4654Z" fill="#CBDAF7"/>
<path d="M17.0061 13.5855H15.8497C15.7872 13.5774 15.7236 13.5828 15.6633 13.6012C15.603 13.6196 15.5474 13.6507 15.5 13.6923C15.4527 13.734 15.4148 13.7852 15.3888 13.8426C15.3628 13.9001 15.3494 13.9624 15.3494 14.0255C15.3494 14.0885 15.3628 14.1508 15.3888 14.2083C15.4148 14.2657 15.4527 14.317 15.5 14.3586C15.5474 14.4002 15.603 14.4313 15.6633 14.4497C15.7236 14.4681 15.7872 14.4735 15.8497 14.4655H17.0061C17.0686 14.4735 17.1321 14.4681 17.1924 14.4497C17.2527 14.4313 17.3084 14.4002 17.3557 14.3586C17.4031 14.317 17.441 14.2657 17.467 14.2083C17.4929 14.1508 17.5064 14.0885 17.5064 14.0255C17.5064 13.9624 17.4929 13.9001 17.467 13.8426C17.441 13.7852 17.4031 13.734 17.3557 13.6923C17.3084 13.6507 17.2527 13.6196 17.1924 13.6012C17.1321 13.5828 17.0686 13.5774 17.0061 13.5855ZM19.0642 13.5855H18.6206C18.5136 13.5992 18.4154 13.6515 18.3441 13.7325C18.2729 13.8135 18.2336 13.9176 18.2336 14.0255C18.2336 14.1333 18.2729 14.2374 18.3441 14.3184C18.4154 14.3994 18.5136 14.4517 18.6206 14.4655H19.0642C19.1268 14.4735 19.1903 14.4681 19.2506 14.4497C19.3109 14.4313 19.3665 14.4002 19.4139 14.3586C19.4612 14.317 19.4992 14.2657 19.5251 14.2083C19.5511 14.1508 19.5646 14.0885 19.5646 14.0255C19.5646 13.9624 19.5511 13.9001 19.5251 13.8426C19.4992 13.7852 19.4612 13.734 19.4139 13.6923C19.3665 13.6507 19.3109 13.6196 19.2506 13.6012C19.1903 13.5828 19.1268 13.5774 19.0642 13.5855Z" fill="#9CB8FF"/>
<path d="M2.62786 15.1709C2.51829 15.1209 2.41147 15.0651 2.30786 15.0036V19.2073L3.44241 20L4.56968 19.2073V15.8909C3.85279 15.9164 3.15487 15.6576 2.62786 15.1709Z" fill="#FF903E"/>
<path d="M6.3152 13.7455C6.1779 14.0905 5.97139 14.4038 5.7084 14.666C5.44542 14.9282 5.13153 15.1337 4.78608 15.27C4.44062 15.4063 4.07092 15.4704 3.69976 15.4583C3.32859 15.4463 2.96382 15.3584 2.62793 15.2C3.15378 15.6893 3.85184 15.9508 4.56975 15.9273C5.10641 15.9165 5.62737 15.7442 6.0646 15.4328C6.50183 15.1214 6.83501 14.6855 7.02066 14.1818C7.34793 13.3527 8.29338 11.1855 9.20248 9.09091H8.27884C8.27884 9.09091 7.02066 11.9491 6.3152 13.7455Z" fill="#D0D9EA"/>
<path d="M11.5298 4L12.148 4.05091L11.5298 4Z" fill="#EBEFF7"/>
<path d="M16.897 7.11273C17.7726 7.13521 18.6453 7.22273 19.5079 7.37455C18.9406 6.69819 16.7297 4.46546 12.1552 4.06546C15.4642 4.85819 16.6861 6.74182 16.897 7.11273ZM6.31516 13.7455C7.02061 11.9491 8.27879 9.13455 8.27879 9.13455C8.27879 9.13455 10.5188 7.44001 15.1297 7.1491C13.5224 4.96728 10.8824 4.24001 9.25334 4.06546C3.63152 4.6691 1.00607 8.93819 1.00607 12.3418C0.972979 12.8604 1.07564 13.3786 1.30393 13.8454C1.53222 14.3122 1.87825 14.7114 2.30789 15.0036C2.41149 15.0651 2.51831 15.1209 2.62789 15.1709C2.96197 15.3301 3.32502 15.4194 3.69482 15.4334C4.06461 15.4474 4.43338 15.3858 4.77854 15.2524C5.12371 15.1189 5.43802 14.9165 5.70223 14.6574C5.96645 14.3983 6.17501 14.088 6.31516 13.7455ZM1.56607 11.68C1.59065 11.1366 1.82784 10.6247 2.22649 10.2546C2.62513 9.88454 3.15327 9.686 3.69698 9.70182C4.22934 9.81717 4.6949 10.1375 4.99296 10.5934C5.29102 11.0493 5.39762 11.6043 5.2897 12.1382C5.26519 12.6764 5.03205 13.184 4.6397 13.5532C4.24735 13.9225 3.72662 14.1245 3.18789 14.1164C2.92117 14.0634 2.66753 13.9583 2.44154 13.807C2.21555 13.6558 2.02165 13.4614 1.87097 13.235C1.72028 13.0087 1.61578 12.7548 1.56346 12.4879C1.51114 12.2211 1.51202 11.9465 1.56607 11.68Z" fill="white"/>
<path d="M16.1552 7.10544C15.7988 7.10544 15.4279 7.10544 15.1224 7.14907C10.5115 7.43998 8.27881 9.13453 8.27881 9.13453H23.8861C22.5961 8.20208 21.0984 7.59799 19.5224 7.37453C18.6598 7.2227 17.7871 7.13519 16.9115 7.11271L16.1552 7.10544Z" fill="#7687B2"/>
<path d="M3.18792 14.1164C3.73287 14.1342 4.26287 13.9365 4.66309 13.5662C5.06332 13.1959 5.30152 12.6829 5.3261 12.1382C5.43307 11.5991 5.32154 11.0396 5.01604 10.5827C4.71054 10.1258 4.23609 9.80896 3.69701 9.70184C3.15331 9.68601 2.62517 9.88455 2.22652 10.2546C1.82788 10.6247 1.59069 11.1366 1.5661 11.68C1.51206 11.9465 1.51117 12.2211 1.5635 12.4879C1.61582 12.7548 1.72032 13.0087 1.87101 13.235C2.02169 13.4614 2.21559 13.6558 2.44158 13.807C2.66757 13.9583 2.9212 14.0634 3.18792 14.1164ZM1.90792 11.76C1.91534 11.5775 1.95904 11.3983 2.03649 11.2329C2.11394 11.0675 2.22358 10.9192 2.359 10.7966C2.49442 10.6741 2.65291 10.5798 2.8252 10.5191C2.9975 10.4585 3.18014 10.4329 3.36247 10.4437C3.71649 10.5205 4.02587 10.7339 4.22335 11.0376C4.42082 11.3413 4.49042 11.7107 4.41701 12.0655C4.40188 12.4269 4.24414 12.7676 3.97833 13.013C3.71252 13.2583 3.36031 13.3883 2.99883 13.3746C2.64058 13.3042 2.32476 13.0948 2.12036 12.7923C1.91595 12.4898 1.83958 12.1187 1.90792 11.76Z" fill="#7687B2"/>
<path d="M2.96248 13.3745C3.32396 13.3883 3.67617 13.2583 3.94198 13.0129C4.20778 12.7676 4.36553 12.4269 4.38066 12.0655C4.45406 11.7107 4.38446 11.3413 4.18699 11.0376C3.98951 10.7339 3.68013 10.5205 3.32611 10.4436C2.96394 10.4318 2.61175 10.5635 2.34616 10.81C2.08057 11.0565 1.92308 11.398 1.90793 11.76C1.83859 12.1135 1.91002 12.4801 2.107 12.7816C2.30398 13.0832 2.61094 13.296 2.96248 13.3745ZM15.1225 7.15636H16.8752C16.657 6.77818 15.4207 4.90182 12.1407 4.10909L11.5297 4H10.6134C10.1613 4.0002 9.70962 4.02691 9.26066 4.08C10.8825 4.27636 13.5152 4.94545 15.1225 7.15636Z" fill="#FF903E"/>
<circle cx="10.28" cy="12.75" r="1" fill="#040405"/>
</svg>
