<svg width="24" height="24" viewBox="0 0 24 24" xmlns="http://www.w3.org/2000/svg">
<circle cx="15" cy="12" r="6" fill="white"/>
<path fill-rule="evenodd" clip-rule="evenodd" d="M2.20812 10.124C2.63448 10.124 2.98972 9.77583 2.98972 9.35789C2.98972 8.93996 2.63448 8.59174 2.20812 8.59174H1.78177C1.35541 8.59174 1 8.93996 1 9.35789C1 9.77583 1.35541 10.124 1.78177 10.124H2.20812ZM18.3385 19.3883C22.3889 17.5773 24.0943 12.98 22.2468 9.14893C20.9677 6.43236 18.2675 4.83034 15.4251 4.69092H7.39545C6.6848 4.69092 6.18733 5.24827 6.18733 5.87517C6.18733 6.57162 6.75592 7.05926 7.39545 7.05926H9.45612C9.88247 7.05926 10.2377 7.40748 10.2377 7.82542C10.2377 8.24335 9.88247 8.59174 9.45612 8.59174H4.41095C3.9846 8.59174 3.62919 8.93996 3.62919 9.35789C3.62919 9.77583 3.9846 10.124 4.41095 10.124H8.03499C8.46134 10.124 8.81658 10.4724 8.81658 10.8904C8.81658 11.3083 8.46134 11.6565 8.03499 11.6565H5.76097C5.33461 11.6565 4.97937 12.0047 4.97937 12.4227C4.97937 12.8406 5.33461 13.189 5.76097 13.189H7.32433C7.39545 14.0249 7.60863 14.8607 7.96387 15.6269C9.74041 19.458 14.4303 21.1297 18.3385 19.3883ZM11.066 14.1999C10.0342 11.9974 11.0194 9.39196 13.2663 8.38057C15.5132 7.36917 18.1712 8.33493 19.2029 10.5374C20.2347 12.7399 19.2497 15.3453 17.0026 16.3567C14.7557 17.3681 12.0978 16.4024 11.066 14.1999Z" fill="#4F5D7F"/>
<path d="M16.8142 9.86662L18.2354 12.235C18.3065 12.3742 18.3065 12.4439 18.2354 12.5832L16.8142 14.9515C16.7431 15.0908 16.6011 15.0908 16.53 15.0908H13.7586C13.6166 15.0908 13.5455 15.0211 13.4745 14.9515L12.0532 12.5832C11.9823 12.4439 11.9823 12.3742 12.0532 12.235L13.4745 9.86662C13.5455 9.72736 13.6877 9.72736 13.7586 9.72736H16.53C16.6722 9.65765 16.7431 9.72736 16.8142 9.86662Z" fill="#C5CEDD"/>
</svg>
