<svg width="88" height="80" viewBox="0 0 88 80" fill="none" xmlns="http://www.w3.org/2000/svg">
<path d="M83.0027 1.0838C83.0027 0.485236 82.5175 0 81.9189 0C81.3203 0 80.8351 0.485236 80.8351 1.0838V2.18567C80.8351 2.78424 81.3203 3.26948 81.9189 3.26948C82.5175 3.26948 83.0027 2.78424 83.0027 2.18567V1.0838Z" fill="#5AE6DC"/>
<path d="M83.0027 9.81427C83.0027 9.2157 82.5175 8.73047 81.9189 8.73047C81.3203 8.73047 80.8351 9.2157 80.8351 9.81427V10.9161C80.8351 11.5147 81.3203 11.9999 81.9189 11.9999C82.5175 11.9999 83.0027 11.5147 83.0027 10.9161V9.81427Z" fill="#5AE6DC"/>
<path d="M86.9164 7.10511C87.515 7.10511 88.0002 6.61987 88.0002 6.0213C88.0002 5.42274 87.515 4.9375 86.9164 4.9375H85.8146C85.216 4.9375 84.7308 5.42274 84.7308 6.0213C84.7308 6.61987 85.216 7.10511 85.8146 7.10511H86.9164Z" fill="#5AE6DC"/>
<path d="M78.1858 7.04505C78.7844 7.04505 79.2697 6.55981 79.2697 5.96125C79.2697 5.36268 78.7844 4.87744 78.1858 4.87744H77.084C76.4854 4.87744 76.0002 5.36268 76.0002 5.96125C76.0002 6.55981 76.4854 7.04505 77.084 7.04505H78.1858Z" fill="#5AE6DC"/>
<path d="M8.36261 75.843L11.486 74.8013C11.6394 74.731 11.7694 74.6181 11.8605 74.4761C11.9516 74.334 12 74.1688 12 74C12 73.8312 11.9516 73.666 11.8605 73.5239C11.7694 73.3819 11.6394 73.269 11.486 73.1987L8.36261 72.157C8.14925 72.0606 7.97838 71.8897 7.88207 71.6762L6.76084 68.5511C6.70818 68.3908 6.60626 68.2512 6.46964 68.1522C6.33302 68.0533 6.16866 68 5.99999 68C5.83133 68 5.66698 68.0533 5.53036 68.1522C5.39374 68.2512 5.29182 68.3908 5.23916 68.5511L4.11793 71.6762C4.02162 71.8897 3.85075 72.0606 3.63739 72.157L0.513957 73.1987C0.360602 73.269 0.230643 73.3819 0.139534 73.5239C0.0484247 73.666 0 73.8312 0 74C0 74.1688 0.0484247 74.334 0.139534 74.4761C0.230643 74.6181 0.360602 74.731 0.513957 74.8013L3.63739 75.843C3.75083 75.8774 3.85403 75.9393 3.93785 76.0232C4.02167 76.107 4.08352 76.2103 4.11793 76.3238L5.23916 79.4489C5.29182 79.6092 5.39374 79.7488 5.53036 79.8478C5.66698 79.9467 5.83133 80 5.99999 80C6.16866 80 6.33302 79.9467 6.46964 79.8478C6.60626 79.7488 6.70818 79.6092 6.76084 79.4489L7.88207 76.3238C7.91648 76.2103 7.97834 76.107 8.06215 76.0232C8.14597 75.9393 8.24917 75.8774 8.36261 75.843Z" fill="#FFD01A"/>
<path d="M69.4911 39.9999C69.4923 43.9745 68.5642 47.8943 66.7807 51.4463C65.2146 50.3379 63.3069 49.8191 61.3952 49.9815C59.4834 50.144 57.6906 50.9772 56.3339 52.3339C54.9773 53.6906 54.144 55.4834 53.9816 57.3951C53.8191 59.3069 54.338 61.2145 55.4463 62.7807C50.489 65.272 44.8542 66.0779 39.3972 65.0761C33.9402 64.0743 28.9591 61.3196 25.2099 57.2299C21.4606 53.1403 19.148 47.9391 18.6231 42.4159C18.0981 36.8926 19.3894 31.3489 22.3011 26.6262C25.2128 21.9034 29.5857 18.2596 34.7562 16.2477C39.9267 14.2358 45.6125 13.9658 50.9504 15.4786C56.2883 16.9913 60.987 20.2043 64.3331 24.6298C67.6793 29.0553 69.4902 34.4517 69.4911 39.9999Z" fill="#DAE1EA"/>
<path d="M62.0319 63.7215C65.1742 63.7215 67.7215 61.1742 67.7215 58.0319C67.7215 54.8896 65.1742 52.3423 62.0319 52.3423C58.8896 52.3423 56.3423 54.8896 56.3423 58.0319C56.3423 61.1742 58.8896 63.7215 62.0319 63.7215Z" fill="#ED68AE"/>
<path d="M60.1054 50.147C56.6558 46.0926 50.9886 43.3374 43.9998 43.3374C33.7406 43.3374 26.3038 49.2734 24.6014 56.531C28.3016 60.8745 33.352 63.8511 38.9442 64.9841C44.5365 66.1172 50.3472 65.3413 55.4462 62.7806C54.6719 61.701 54.1738 60.448 53.9957 59.1314C53.8176 57.8147 53.9649 56.4745 54.4246 55.2279C54.8843 53.9813 55.6425 52.8664 56.6329 51.9806C57.6232 51.0949 58.8155 50.4653 60.1054 50.147Z" fill="#4F81FF"/>
<path d="M44 40.9406C48.8866 40.9406 52.848 36.9792 52.848 32.0926C52.848 27.206 48.8866 23.2446 44 23.2446C39.1134 23.2446 35.152 27.206 35.152 32.0926C35.152 36.9792 39.1134 40.9406 44 40.9406Z" fill="#4F81FF"/>
<path d="M61.0463 30.7934C60.4523 30.7897 59.8826 30.557 59.4559 30.1438L55.1327 25.8206C54.7155 25.4009 54.4813 24.8332 54.4813 24.2414C54.4813 23.6496 54.7155 23.0819 55.1327 22.6622C55.5562 22.2436 56.1276 22.0089 56.7231 22.0089C57.3186 22.0089 57.89 22.2436 58.3135 22.6622L61.0463 25.3726L67.3183 19.1006C67.7418 18.682 68.3132 18.4473 68.9087 18.4473C69.5041 18.4473 70.0756 18.682 70.4991 19.1006C70.9163 19.5203 71.1505 20.088 71.1505 20.6798C71.1505 21.2716 70.9163 21.8393 70.4991 22.259L62.6143 30.1438C62.1957 30.5556 61.6335 30.7886 61.0463 30.7934Z" fill="#FFB713"/>
</svg>
