<svg width="112" height="86" viewBox="0 0 112 86" fill="none" xmlns="http://www.w3.org/2000/svg">
<path d="M55 86C72.6731 86 87 71.6731 87 54C87 36.3269 72.6731 22 55 22C37.3269 22 23 36.3269 23 54C23 71.6731 37.3269 86 55 86Z" fill="#4F545C"/>
<path d="M67.7997 52.5775H56.4219V41.1997H53.5775V52.5775H42.1997V55.4219H53.5775V66.7997H56.4219V55.4219H67.7997V52.5775Z" fill="white"/>
<path d="M103.987 47.3541L106.684 48.6037C106.822 48.6671 106.976 48.6866 107.125 48.6597C107.275 48.6329 107.413 48.5609 107.52 48.4535C107.627 48.3461 107.699 48.2084 107.726 48.0589C107.753 47.9094 107.734 47.7552 107.67 47.6172L106.355 44.9863C106.289 44.772 106.289 44.5428 106.355 44.3286L107.67 41.6977C107.734 41.5596 107.753 41.4055 107.726 41.256C107.699 41.1065 107.627 40.9688 107.52 40.8614C107.413 40.754 107.275 40.682 107.125 40.6551C106.976 40.6283 106.822 40.6478 106.684 40.7111L103.987 41.9608C103.885 42.0112 103.772 42.0374 103.658 42.0374C103.544 42.0374 103.432 42.0112 103.329 41.9608L100.698 40.6454C100.56 40.5821 100.406 40.5625 100.257 40.5894C100.107 40.6162 99.9695 40.6882 99.8621 40.7956C99.7547 40.903 99.6827 41.0407 99.6559 41.1902C99.629 41.3397 99.6486 41.4939 99.7119 41.6319L100.962 44.3286C101.031 44.4241 101.069 44.5392 101.069 44.6574C101.069 44.7756 101.031 44.8908 100.962 44.9863L99.7119 47.6829C99.6486 47.821 99.629 47.9752 99.6559 48.1247C99.6828 48.2742 99.7547 48.4119 99.8621 48.5193C99.9695 48.6267 100.107 48.6987 100.257 48.7255C100.406 48.7524 100.56 48.7328 100.698 48.6695L103.329 47.3541C103.432 47.3037 103.544 47.2775 103.658 47.2775C103.772 47.2775 103.885 47.3037 103.987 47.3541Z" fill="#B9BBBE"/>
<path d="M91.536 12.7022L96.536 10.8689C96.7912 10.7742 97.0113 10.6036 97.1667 10.3802C97.3221 10.1567 97.4054 9.89104 97.4054 9.61886C97.4054 9.34668 97.3221 9.08102 97.1667 8.85757C97.0113 8.63412 96.7912 8.46358 96.536 8.36886L91.536 6.7022C91.1809 6.51442 90.8905 6.22404 90.7027 5.86886L89.036 0.868865C88.9413 0.613695 88.7708 0.393625 88.5473 0.238218C88.3239 0.0828105 88.0582 -0.000488281 87.786 -0.000488281C87.5138 -0.000488281 87.2482 0.0828105 87.0247 0.238218C86.8013 0.393625 86.6307 0.613695 86.536 0.868865L84.7027 5.86886C84.6369 6.06234 84.5276 6.23811 84.3831 6.3826C84.2386 6.52709 84.0628 6.63644 83.8694 6.7022L78.8694 8.36886C78.6142 8.46358 78.3941 8.63412 78.2387 8.85757C78.0833 9.08102 78 9.34668 78 9.61886C78 9.89104 78.0833 10.1567 78.2387 10.3802C78.3941 10.6036 78.6142 10.7742 78.8694 10.8689L83.8694 12.7022C84.0786 12.7349 84.2721 12.8333 84.4218 12.9831C84.5716 13.1328 84.6699 13.3263 84.7027 13.5355L86.536 18.5355C86.6307 18.7907 86.8013 19.0108 87.0247 19.1662C87.2482 19.3216 87.5138 19.4049 87.786 19.4049C88.0582 19.4049 88.3239 19.3216 88.5473 19.1662C88.7708 19.0108 88.9413 18.7907 89.036 18.5355L90.7027 13.5355C90.7684 13.3421 90.8778 13.1663 91.0223 13.0218C91.1668 12.8773 91.3426 12.768 91.536 12.7022Z" fill="#B9BBBE"/>
<path d="M7.67294 80.2001L10.5072 79.1608C10.6518 79.1072 10.7766 79.0105 10.8647 78.8838C10.9528 78.7572 11 78.6066 11 78.4523C11 78.298 10.9528 78.1474 10.8647 78.0207C10.7766 77.8941 10.6518 77.7974 10.5072 77.7437L7.67294 76.799C7.47161 76.6925 7.307 76.5279 7.20056 76.3266L6.25581 73.4923C6.20212 73.3477 6.10544 73.2229 5.97878 73.1348C5.85212 73.0467 5.70153 72.9995 5.54724 72.9995C5.39295 72.9995 5.24236 73.0467 5.1157 73.1348C4.98903 73.2229 4.89236 73.3477 4.83867 73.4923L3.79944 76.3266C3.76216 76.4362 3.70018 76.5359 3.61828 76.6178C3.53637 76.6997 3.43673 76.7617 3.32706 76.799L0.492794 77.7437C0.348151 77.7974 0.223404 77.8941 0.135311 78.0207C0.0472175 78.1474 0 78.298 0 78.4523C0 78.6066 0.0472175 78.7572 0.135311 78.8838C0.223404 79.0105 0.348151 79.1072 0.492794 79.1608L3.32706 80.2001C3.44568 80.2186 3.55534 80.2744 3.64023 80.3593C3.72513 80.4442 3.78087 80.5538 3.79944 80.6724L4.83867 83.5067C4.89236 83.6514 4.98903 83.7761 5.1157 83.8642C5.24236 83.9523 5.39295 83.9995 5.54724 83.9995C5.70153 83.9995 5.85212 83.9523 5.97878 83.8642C6.10544 83.7761 6.20212 83.6514 6.25581 83.5067L7.20056 80.6724C7.23784 80.5628 7.29982 80.4631 7.38172 80.3812C7.46363 80.2993 7.56327 80.2373 7.67294 80.2001Z" fill="#B9BBBE"/>
</svg>
