<svg xmlns="http://www.w3.org/2000/svg" xmlns:xlink="http://www.w3.org/1999/xlink" viewBox="0 0 1320 300"><defs><style>.cls-1{fill:#346deb;}.cls-2{fill:url(#linear-gradient);}.cls-3{fill:#92b0fc;}.cls-4{fill:#d6e1ff;}.cls-5{fill:#7595fb;}.cls-6{fill:#eda2f9;}.cls-7{fill:#fef5af;}.cls-8{fill:#e4d4ff;}.cls-9{fill:#a3feb5;}.cls-10{fill:#955ef0;}.cls-11{fill:url(#linear-gradient-2);}.cls-12{fill:#2f2b7b;}.cls-13{fill:#dd517d;}.cls-14{fill:#fff;}.cls-15,.cls-17,.cls-41{fill:none;}.cls-16{fill:#52daff;stroke:#fff;stroke-width:5.89px;}.cls-16,.cls-29,.cls-41{stroke-miterlimit:10;}.cls-17{stroke:#52daff;stroke-linejoin:round;stroke-width:4.42px;}.cls-17,.cls-41{stroke-linecap:round;}.cls-18,.cls-29{fill:#278de8;}.cls-19{fill:#e66bf9;}.cls-20{fill:#94fedc;}.cls-21{fill:#a16bf9;}.cls-22{fill:#ff5d90;}.cls-23{fill:#e875f0;}.cls-24{fill:#d55dce;}.cls-25{fill:#f6cff5;}.cls-26{fill:#f2aef6;}.cls-27{fill:#3ae3dc;}.cls-28{fill:#b3c8fc;}.cls-29{stroke:#f5f8ff;stroke-width:3px;}.cls-30{fill:#f5f8ff;}.cls-31{fill:#acbeed;}.cls-32{fill:#8094d8;}.cls-33{fill:#ccd9f3;}.cls-34{fill:#333132;}.cls-35{fill:#91b1f9;}.cls-36{fill:#7ba1f8;}.cls-37{fill:#bcd2fa;}.cls-38,.cls-47{fill:#52cde3;}.cls-39{opacity:0.5;}.cls-40{fill:#03a79f;}.cls-41{stroke:#03968f;stroke-width:1.53px;}.cls-42{fill:#00c0b5;}.cls-43{fill:#57e6ca;}.cls-44{fill:#42ddc5;}.cls-45{fill:#6defcf;}.cls-46{fill:#83f9d4;}.cls-47{opacity:0.44;}</style><linearGradient id="linear-gradient" x1="567.04" y1="-500.73" x2="688.75" y2="351.71" gradientUnits="userSpaceOnUse"><stop offset="0.21" stop-color="#3ae3dc"/><stop offset="0.36" stop-color="#34cdde"/><stop offset="0.66" stop-color="#2693e5"/><stop offset="0.94" stop-color="#1759eb"/></linearGradient><linearGradient id="linear-gradient-2" x1="148.77" y1="-62.13" x2="148.77" y2="311.69" gradientUnits="userSpaceOnUse"><stop offset="0.06" stop-color="#1759eb"/><stop offset="0.15" stop-color="#1a66ea"/><stop offset="0.73" stop-color="#31c0e0"/><stop offset="1" stop-color="#3ae3dc"/></linearGradient></defs><g id="background"><rect class="cls-1" y="0.36" width="1320" height="300"/><rect class="cls-2" y="0.36" width="1320" height="300"/></g><g id="art"><path class="cls-3" d="M1042,188c.7-.41,1.39-.83,2.08-1.26a99,99,0,0,0,28.56-27.43l-37.76-24.47.11-.17a55.12,55.12,0,0,1-15.88,14.59h0c-11.57,6.84-23.25,7-36.75.48a22.5,22.5,0,1,0-19.55,40.53C989.65,203.22,1017.68,202.4,1042,188Z"/><path class="cls-4" d="M1070.24,120.94h175.61a11.28,11.28,0,0,1,11.28,11.28V184a11.28,11.28,0,0,1-11.28,11.28H1056a0,0,0,0,1,0,0v-60a14.29,14.29,0,0,1,14.29-14.29Z"/><path class="cls-4" d="M994.3,257H981.6a22.5,22.5,0,0,1,0-45h12.7a16,16,0,0,0,16-16V179.83A58.89,58.89,0,0,1,1069.11,121h15.53a22.5,22.5,0,1,1,0,45h-15.53a13.84,13.84,0,0,0-13.83,13.82V196A61,61,0,0,1,994.3,257Z"/><path class="cls-4" d="M1091.48,233.12c-11.35,0-21.9-6.44-29.7-18.13-7.49-11.22-11.62-26.07-11.62-41.81V170h82.64v3.21c0,15.74-4.12,30.59-11.61,41.81C1113.38,226.68,1102.83,233.12,1091.48,233.12Z"/><path class="cls-4" d="M1131.08,233.12c-11.35,0-21.9-6.44-29.71-18.13-7.49-11.22-11.61-26.07-11.61-41.81V170h82.64v3.21c0,15.74-4.12,30.59-11.61,41.81C1153,226.68,1142.43,233.12,1131.08,233.12Z"/><path class="cls-4" d="M1177,233.12c-11.36,0-21.91-6.44-29.71-18.13-7.49-11.22-11.62-26.07-11.62-41.81V170h82.65v3.21c0,15.74-4.13,30.59-11.62,41.81C1198.85,226.68,1188.3,233.12,1177,233.12Z"/><path class="cls-5" d="M1043.87,175.39c.26,14.08,3.3,27.45,8.71,38.53a60.13,60.13,0,0,0,2.44-12.36,90.93,90.93,0,0,1-4.26-26.17Z"/><path class="cls-5" d="M1092.68,175.39h-6.9c.32,16.8,4.58,32.61,12.11,44.71a55.7,55.7,0,0,0,7.49,9.6,35.19,35.19,0,0,0,6-3.83C1100.49,215.61,1093.11,196.93,1092.68,175.39Z"/><path class="cls-5" d="M1138,175.39h-6.89c.31,16.8,4.58,32.61,12.1,44.71a58.18,58.18,0,0,0,5.48,7.42,39.2,39.2,0,0,0,5.35-4.35C1144.61,212.5,1138.37,195.14,1138,175.39Z"/><path class="cls-5" d="M1181.07,183.85V173.34c0-11.86,7.69-21.49,17.17-21.49s17.17,9.63,17.17,21.49v21.92h6.88V173.34c0-15.64-10.79-28.37-24-28.37s-24,12.73-24,28.37v10.51Z"/><path class="cls-6" d="M910.74,148.08l6.13,13.79a.32.32,0,0,0,.57,0l6.14-13.79a.29.29,0,0,1,.15-.16l13.8-6.14a.32.32,0,0,0,0-.57l-13.8-6.13a.29.29,0,0,1-.15-.16l-6.14-13.79a.31.31,0,0,0-.57,0l-6.13,13.79a.31.31,0,0,1-.16.16l-13.79,6.13a.31.31,0,0,0,0,.57l13.79,6.14A.31.31,0,0,1,910.74,148.08Z"/><path class="cls-7" d="M393.91,224.14l3.62,8.12a.18.18,0,0,0,.33,0l3.62-8.12a.18.18,0,0,1,.09-.1l8.12-3.61a.18.18,0,0,0,0-.33l-8.12-3.62a.16.16,0,0,1-.09-.09l-3.62-8.12a.18.18,0,0,0-.33,0l-3.62,8.12a.16.16,0,0,1-.09.09l-8.12,3.62a.18.18,0,0,0,0,.33l8.12,3.61A.18.18,0,0,1,393.91,224.14Z"/><path class="cls-8" d="M29,192.17l3.61,8.12a.18.18,0,0,0,.34,0l3.61-8.12a.2.2,0,0,1,.09-.09l8.13-3.62a.18.18,0,0,0,0-.33l-8.13-3.61a.22.22,0,0,1-.09-.1L33,176.3a.18.18,0,0,0-.34,0L29,184.42a.19.19,0,0,1-.1.1l-8.12,3.61a.18.18,0,0,0,0,.33l8.12,3.62A.18.18,0,0,1,29,192.17Z"/><path class="cls-9" d="M1266.34,245.68l3.61,8.13a.19.19,0,0,0,.34,0l3.61-8.13a.2.2,0,0,1,.09-.09l8.13-3.61a.19.19,0,0,0,0-.34L1274,238a.2.2,0,0,1-.09-.09l-3.61-8.13a.19.19,0,0,0-.34,0l-3.61,8.13a.2.2,0,0,1-.09.09l-8.13,3.61a.19.19,0,0,0,0,.34l8.13,3.61A.2.2,0,0,1,1266.34,245.68Z"/><path class="cls-6" d="M336.71,241.9,323,248a.32.32,0,0,0,0,.57l13.75,6.11a.28.28,0,0,1,.16.16L343,268.61a.31.31,0,0,0,.57,0l6.11-13.75a.31.31,0,0,1,.16-.16l13.75-6.11a.31.31,0,0,0,0-.57l-13.75-6.12a.31.31,0,0,1-.16-.16L343.56,228a.32.32,0,0,0-.57,0l-6.12,13.75A.28.28,0,0,1,336.71,241.9Z"/><rect class="cls-7" x="1168.95" y="71.21" width="5.96" height="13.55" rx="2.98" transform="translate(1249.92 -1093.95) rotate(90)"/><rect class="cls-7" x="1145.64" y="71.21" width="5.96" height="13.55" rx="2.98" transform="translate(1226.61 -1070.64) rotate(90)"/><rect class="cls-7" x="1157.3" y="82.86" width="5.96" height="13.55" rx="2.98" transform="translate(2320.56 179.28) rotate(180)"/><rect class="cls-7" x="1157.3" y="59.55" width="5.96" height="13.55" rx="2.98" transform="matrix(-1, 0, 0, -1, 2320.56, 132.65)"/><path class="cls-10" d="M244.76,259.64l-85.4-156a17.8,17.8,0,0,0-15.62-9.26H38.08a11.9,11.9,0,0,0-10.43,17.6l86.44,158A23.79,23.79,0,0,0,135,282.26h96.38a15.28,15.28,0,0,0,13.41-22.62Z"/><path class="cls-4" d="M145,280.26a21.8,21.8,0,0,1-19.13-11.34L39.42,111a9.89,9.89,0,0,1,8.67-14.64H153.75a15.81,15.81,0,0,1,13.87,8.22L253,260.6a13.29,13.29,0,0,1-11.66,19.66Z"/><path class="cls-10" d="M153.75,98.33a13.79,13.79,0,0,1,12.11,7.18l85.39,156.05a11.28,11.28,0,0,1-9.9,16.7H145A19.79,19.79,0,0,1,127.61,268L41.17,110a7.89,7.89,0,0,1,6.92-11.68H153.75m0-4H48.09a11.89,11.89,0,0,0-10.43,17.6l86.44,158A23.79,23.79,0,0,0,145,282.26h96.37a15.28,15.28,0,0,0,13.41-22.62l-85.39-156a17.8,17.8,0,0,0-15.62-9.26Z"/><path class="cls-11" d="M233.23,260.87H151.58a20.23,20.23,0,0,1-17.74-10.51L59.74,114.94a5,5,0,0,1,4.35-7.33h87.53a10.94,10.94,0,0,1,9.59,5.69l76.56,139.91A5.17,5.17,0,0,1,233.23,260.87Z"/><path class="cls-10" d="M213.69,267.27H188.2a1.5,1.5,0,0,1,0-3h25.49a1.5,1.5,0,0,1,0,3Z"/><path class="cls-12" d="M285,155.46H164.7a14.38,14.38,0,0,0-14.38,14.38v26.1a14.38,14.38,0,0,0,14.38,14.38h43.59c-4.55,18.47-25.12,28.16-25.12,28.16,39.21,0,56.51-19.09,62.52-28.16H285a14.38,14.38,0,0,0,14.38-14.38v-26.1A14.38,14.38,0,0,0,285,155.46Z"/><path class="cls-13" d="M239,170.91h0a8.77,8.77,0,0,0-12.38,0l-1.7,1.69-1.8-1.69a8.75,8.75,0,0,0-12.38,12.38l1.75,1.76,0,0,12.46,12.35h0l12.37-12.35,0,0,1.75-1.76A8.75,8.75,0,0,0,239,170.91Z"/><path class="cls-14" d="M224.9,199.54l-14.59-14.45,0,0-.69-.7a10.25,10.25,0,0,1,14.5-14.5l.71.67.68-.67A10.25,10.25,0,1,1,240,184.35l-.69.7h0l-1,1.09Zm-10.34-14.46,10.33,10.23L235.18,185l1-1,1.75-1.76a7.23,7.23,0,0,0,0-10.25h0a7.24,7.24,0,0,0-10.26,0l-2.74,2.7L222.07,172a7.25,7.25,0,1,0-10.29,10.22l2.81,2.82Z"/><path class="cls-12" d="M676.73,21.17H215a12.26,12.26,0,0,0-12.26,12.27V123.5A12.26,12.26,0,0,0,215,135.77H366c10,15.29,39.43,48.47,107,48.47,0,0-35.44-16.66-43-48.47H676.73A12.26,12.26,0,0,0,689,123.5V33.44A12.26,12.26,0,0,0,676.73,21.17Z"/><path class="cls-13" d="M636.08,24.13l-2.41,4.43L629,26.27A18.39,18.39,0,0,0,611.7,58.71l4.59,2.45,0,.1,32.59,17.21L666.16,46.1l-.1-.05,2.46-4.59a18.38,18.38,0,0,0-2-20.29H638.05A17.92,17.92,0,0,0,636.08,24.13Z"/><path class="cls-15" d="M215,135.77a12.26,12.26,0,0,1-12.26-12.27V33.44A12.26,12.26,0,0,1,215,21.17H647.73A12.27,12.27,0,0,1,660,33.44V123.5a12.27,12.27,0,0,1-12.27,12.27"/><path class="cls-16" d="M348.9,83.64c1.56-3.64-1.3-8-6.3-12a18.32,18.32,0,0,0-29.7-12.76c-.67-.09-1.32-.15-2-.2-7.55-.56-10.22,1.85-11.13,4a5.94,5.94,0,0,0,.11,4.67c1,2.43,3.19,5,6.17,7.37A18.32,18.32,0,0,0,335.85,87.4C342.22,88.22,347.34,87.28,348.9,83.64Zm-4.07-1.74c-.35.83-2.2,1.42-5.23,1.38a17.82,17.82,0,0,0,2.62-6.13C344.34,79.32,345.19,81.07,344.83,81.9Zm-41-17.56c.23-.54,1.64-1.42,5.24-1.37a17.52,17.52,0,0,0-2.62,6.12C304.36,66.92,303.52,65.17,303.87,64.34Z"/><path class="cls-17" d="M301.84,63.47c1.83-4.27,13.39-3.41,25.83,1.93s21,13.11,19.2,17.37"/><circle class="cls-18" cx="324.35" cy="73.14" r="18.33"/><path class="cls-17" d="M346.87,82.77C345,87,333.47,86.18,321,80.84s-21-13.11-19.2-17.37"/><polygon class="cls-19" points="317.75 107.61 292.09 125.85 299.15 135.77 337.76 135.77 317.75 107.61"/><polygon class="cls-14" points="290.18 125.52 297.46 135.77 300.83 135.77 294 126.17 317.42 109.53 336.08 135.77 339.44 135.77 318.07 105.7 290.18 125.52"/><path class="cls-20" d="M219.15,106.39a21.74,21.74,0,0,0-16.44,7.49v9.62A12.26,12.26,0,0,0,215,135.77h24.67a21.85,21.85,0,0,0-20.49-29.38Z"/><path class="cls-14" d="M219.15,104.89a23.21,23.21,0,0,0-16.44,6.81v4.62A20.3,20.3,0,0,1,238,135.77h3.21a23,23,0,0,0,1.26-7.55A23.36,23.36,0,0,0,219.15,104.89Z"/><path class="cls-21" d="M336,21.17H215a12.26,12.26,0,0,0-12.26,12.27V84A34.62,34.62,0,0,0,243,72a34.65,34.65,0,1,0,62.27-28.72A34.69,34.69,0,0,0,336,21.17Z"/><path class="cls-14" d="M338.07,21.17h-4.29a32.87,32.87,0,0,1-28.58,20.1l-3.49.16,1.91,2.93a32.65,32.65,0,1,1-58.68,27.06l-1.15-3.88-2.38,3.27a32.62,32.62,0,0,1-38.7,11V86.1A36.61,36.61,0,0,0,242.32,76,36.42,36.42,0,0,0,270,98.25,36.64,36.64,0,0,0,308.61,45,37,37,0,0,0,338.07,21.17Z"/><path class="cls-6" d="M230.92,21.17a24.76,24.76,0,0,0,48.89,0Z"/><polygon class="cls-22" points="380.32 61.79 402 70.17 561.77 30.13 559.13 21.17 368.36 21.17 380.32 61.79"/><polygon class="cls-14" points="559.57 28.87 402.12 68.33 381.76 60.46 370.19 21.17 366.53 21.17 378.88 63.12 401.89 72.01 563.97 31.39 560.96 21.17 557.3 21.17 559.57 28.87"/><path class="cls-21" d="M403.64,109.85a9.12,9.12,0,0,1-7-2.93,9.27,9.27,0,0,1-1.9-8.23,15.19,15.19,0,0,1,4.93-8.17,14.93,14.93,0,0,1,9.66-3.93,10.52,10.52,0,0,1,2.2.22l7.39-28.2a7.08,7.08,0,0,1,4.9-5l32-9a3.26,3.26,0,0,1,.93-.13,3.47,3.47,0,0,1,2.71,1.33,3.41,3.41,0,0,1,.6,3L449.28,89.93a15.75,15.75,0,0,1-4.68,7.15,15,15,0,0,1-9.67,3.94,9.14,9.14,0,0,1-7-2.94,9.3,9.3,0,0,1-1.9-8.23A15.15,15.15,0,0,1,431,81.68a14.93,14.93,0,0,1,9.65-3.93,11.34,11.34,0,0,1,2.21.22l2.63-10-21,5.93L418,98.77a15.75,15.75,0,0,1-4.68,7.15A15,15,0,0,1,403.64,109.85Z"/><path class="cls-14" d="M456.76,46.15a1.73,1.73,0,0,1,1.66,2.16L447.63,89.5h0a13.84,13.84,0,0,1-4.16,6.3,13.19,13.19,0,0,1-8.54,3.51,7.4,7.4,0,0,1-5.7-2.36c-3.14-3.55-1.85-9.81,2.88-14a13.19,13.19,0,0,1,8.53-3.5,8.26,8.26,0,0,1,3.4.68l3.24-12.36a1.35,1.35,0,0,0-1.3-1.7,1.65,1.65,0,0,0-.38,0l-21.75,6.15a1.34,1.34,0,0,0-.94,1l-6.57,25.1h0a13.92,13.92,0,0,1-4.16,6.3,13.21,13.21,0,0,1-8.54,3.51,7.45,7.45,0,0,1-5.71-2.36c-3.13-3.55-1.84-9.81,2.89-14a13.17,13.17,0,0,1,8.53-3.5,8.33,8.33,0,0,1,3.4.68L420.59,59a5.35,5.35,0,0,1,3.72-3.79l3.57-1,24.78-7,3.63-1a1.58,1.58,0,0,1,.47-.07m0-3.41a5.15,5.15,0,0,0-1.4.2l-3.63,1L427,51l-3.57,1a8.77,8.77,0,0,0-6.09,6.21l-7,26.74c-.31,0-.63,0-.94,0a16.67,16.67,0,0,0-10.79,4.36c-6.13,5.42-7.56,13.86-3.18,18.81a10.81,10.81,0,0,0,8.26,3.51,16.72,16.72,0,0,0,10.8-4.36,17.15,17.15,0,0,0,5.16-7.89l0,0V99.2l6.28-24,17.16-4.85-1.49,5.69c-.31,0-.62,0-.94,0a16.6,16.6,0,0,0-10.78,4.35c-6.14,5.42-7.56,13.86-3.19,18.81a10.84,10.84,0,0,0,8.26,3.51,16.7,16.7,0,0,0,10.8-4.36,17.17,17.17,0,0,0,5.17-7.89l0,0v-.06l10.79-41.19a5.1,5.1,0,0,0-.9-4.43,5.17,5.17,0,0,0-4.06-2Z"/><polygon class="cls-23" points="534 26.77 528.61 42.29 518.09 47.38 513 36.87 518.4 21.35 518.77 21.17 509.71 21.17 504.08 37.39 514.26 58.41 535.28 48.23 542.92 26.25 540.46 21.17 531.28 21.17 534 26.77"/><polygon class="cls-24" points="513 36.87 504.08 37.39 514.26 58.41 518.09 47.38 513 36.87"/><polygon class="cls-25" points="518.46 21.17 513 36.87 518.09 47.38 528.61 42.29 534 26.77 531.28 21.17 518.46 21.17"/><polygon class="cls-26" points="540.46 21.17 531.28 21.17 534 26.77 542.92 26.25 540.46 21.17"/><path class="cls-14" d="M542.92,26.25l-7.63,22-21,10.21-10.2-21,5.63-16.21h-3.41L501,36.32a3.23,3.23,0,0,0,.15,2.46l10.19,21.06a3.25,3.25,0,0,0,1.85,1.64,3.19,3.19,0,0,0,2.47-.15l21-10.21a3.2,3.2,0,0,0,1.64-1.84l7.64-22a3.21,3.21,0,0,0-.15-2.47l-1.77-3.67h-3.59Z"/><path class="cls-22" d="M636.08,24.13l-2.41,4.43-.11,0,15.15,49.9.12.06L666.16,46.1l-.1-.05,2.46-4.59a18.38,18.38,0,0,0-2-20.29H638.05A17.92,17.92,0,0,0,636.08,24.13Z"/><path class="cls-14" d="M668.21,28A16.54,16.54,0,0,1,667,40.63l-3.28,6.14.09,0L648.1,76.1,618.63,60.53l0-.09-6.14-3.28a16.63,16.63,0,1,1,15.72-29.32l6.16,3L637.62,25a16.7,16.7,0,0,1,2.8-3.79h-4.56a20.52,20.52,0,0,0-1.33,2.12l-1.6,2.95-3.07-1.52a20.15,20.15,0,1,0-19,35.54l3,1.62-.06.1,35.69,18.86,19-35.46-.09-.05,1.62-3a20,20,0,0,0,1.51-15.35,20.39,20.39,0,0,0-2.83-5.77h-4.55A16.47,16.47,0,0,1,668.21,28Z"/><path class="cls-27" d="M584.28,64.24a20.93,20.93,0,1,1,41.15-7.73,21.18,21.18,0,0,1,.25,6L603.05,81.23A20.93,20.93,0,0,1,584.28,64.24Z"/><path class="cls-14" d="M581.24,64.81a24,24,0,0,1,47.23-8.87,23.32,23.32,0,0,1,.4,4l-3.19,2.64a21.18,21.18,0,0,0-.25-6,20.93,20.93,0,1,0-22.38,24.72l-3.2,2.64A24,24,0,0,1,581.24,64.81Z"/><path class="cls-14" d="M623.71,60.26l5.24-.42-3.62,3L604.11,80.36,599.75,84,602,77.27A25,25,0,0,1,623.71,60.26Z"/><path class="cls-3" d="M583.62,256.22h547.46a0,0,0,0,1,0,0v0a22,22,0,0,1-22,22H583.62a0,0,0,0,1,0,0v-22A0,0,0,0,1,583.62,256.22Z"/><path class="cls-4" d="M916.47,278.26H577.58a21.8,21.8,0,0,1-19.12-11.33l-84.26-154a9.87,9.87,0,0,1,8.66-14.61H831a15.79,15.79,0,0,1,13.85,8.21L928.1,258.62A13.27,13.27,0,0,1,916.47,278.26Z"/><ellipse class="cls-28" cx="691.45" cy="194.24" rx="19.21" ry="23.67" transform="translate(-14.75 325.07) rotate(-26.19)"/><path class="cls-29" d="M591.15,213.94h0a34,34,0,0,1,34,34v0a0,0,0,0,1,0,0h-34a0,0,0,0,1,0,0v-34A0,0,0,0,1,591.15,213.94Z" transform="translate(16.46 501.3) rotate(-45.35)"/><polygon class="cls-18" points="654.11 163.54 533.5 163.54 517.13 133.85 637.73 133.85 654.11 163.54"/><path class="cls-30" d="M656.65,165h-124l-18-32.69h124Zm-122.26-3H651.57l-14.72-26.69H519.67Z"/><path class="cls-20" d="M895.92,257.62l-48,13a8.35,8.35,0,0,1-8.21-2.26l-10.27-10.62a8.38,8.38,0,0,1,3.83-13.91l48-13a8.39,8.39,0,0,1,8.22,2.26l10.27,10.62A8.38,8.38,0,0,1,895.92,257.62Z"/><path class="cls-30" d="M845.75,272.42a9.85,9.85,0,0,1-7.1-3l-10.27-10.62a9.88,9.88,0,0,1,4.52-16.4l48-13a9.9,9.9,0,0,1,9.69,2.67l10.27,10.62a9.88,9.88,0,0,1-4.52,16.4l-48,13A10,10,0,0,1,845.75,272.42ZM883.45,232a6.83,6.83,0,0,0-1.79.24l-48,13a6.88,6.88,0,0,0-3.14,11.42l10.27,10.62a6.89,6.89,0,0,0,6.74,1.86l48-13a6.88,6.88,0,0,0,3.15-11.42L888.4,234.14A6.88,6.88,0,0,0,883.45,232Z"/><path class="cls-31" d="M813.44,270.05l-3.65-2.59L822,250.16l3.65,2.58a6,6,0,0,1,1.45,8.4l-5.28,7.46A6,6,0,0,1,813.44,270.05Z"/><path class="cls-32" d="M816.08,266.35l-2.45-1.73a3,3,0,0,1-.7-4.2l3.5-5a3,3,0,0,1,4.19-.74l2.45,1.73a3,3,0,0,1,.71,4.21l-3.5,4.94A3,3,0,0,1,816.08,266.35Z"/><path class="cls-31" d="M764.48,235.44l3.65,2.58,12.23-17.31-3.65-2.58a6,6,0,0,0-8.4,1.44L763,227A6,6,0,0,0,764.48,235.44Z"/><path class="cls-32" d="M767.08,231.71l2.45,1.74a3,3,0,0,0,4.19-.74l3.5-5a3,3,0,0,0-.7-4.2l-2.45-1.74a3,3,0,0,0-4.2.74l-3.5,4.95A3,3,0,0,0,767.08,231.71Z"/><path class="cls-31" d="M768.63,252.91l27,19a12.05,12.05,0,0,0,16.79-3L822,255.39a12.06,12.06,0,0,0-2.82-16.82l-26.95-19a12.05,12.05,0,0,0-16.79,3l-9.62,13.61A12.06,12.06,0,0,0,768.63,252.91Z"/><path class="cls-33" d="M790.85,255.39,786,252a12.07,12.07,0,0,1-2.89-16.81l1.8-2.54a6,6,0,0,1,8.4-1.44L808,241.56a6,6,0,0,1,1.44,8.4l-1.79,2.54A12.07,12.07,0,0,1,790.85,255.39Z"/><rect class="cls-31" x="794.1" y="248.34" width="3.03" height="6" rx="1.51" transform="translate(131.14 755.96) rotate(-54.75)"/><rect class="cls-31" x="786.45" y="242.93" width="3.03" height="6" rx="1.51" transform="translate(132.32 747.42) rotate(-54.75)"/><rect class="cls-34" x="808.49" y="254.22" width="6.05" height="6" rx="3" transform="translate(133.06 771.43) rotate(-54.75)"/><rect class="cls-34" x="774.18" y="229.97" width="6.05" height="6" rx="3" transform="translate(138.36 733.17) rotate(-54.75)"/><path class="cls-14" d="M813.44,270.05l-3.65-2.59L822,250.16l3.65,2.58a6,6,0,0,1,1.45,8.4l-5.28,7.46A6,6,0,0,1,813.44,270.05Z"/><path class="cls-35" d="M816.08,266.35l-2.45-1.73a3,3,0,0,1-.7-4.2l3.5-5a3,3,0,0,1,4.19-.74l2.45,1.73a3,3,0,0,1,.71,4.21l-3.5,4.94A3,3,0,0,1,816.08,266.35Z"/><path class="cls-14" d="M764.48,235.44l3.65,2.58,12.23-17.31-3.65-2.58a6,6,0,0,0-8.4,1.44L763,227A6,6,0,0,0,764.48,235.44Z"/><path class="cls-36" d="M802.46,275.45a13.1,13.1,0,0,1-7.63-2.42l-27-19a13.44,13.44,0,0,1-3.94-17.32l-.21-.15A7.34,7.34,0,0,1,762,226.28l5.28-7.46a7.33,7.33,0,0,1,10.23-1.76l1.13.8a13.41,13.41,0,0,1,6.77-1.83,13.17,13.17,0,0,1,7.62,2.42l27,19.05a13.39,13.39,0,0,1,5.36,13.37l1.13.8a7.35,7.35,0,0,1,1.76,10.23l-5.28,7.46a7.35,7.35,0,0,1-6,3.11h0a7.31,7.31,0,0,1-4.23-1.35l-.21-.15A13.51,13.51,0,0,1,802.46,275.45Z"/><path class="cls-30" d="M773.24,217a6,6,0,0,1,3.47,1.1l1.85,1.31a12.12,12.12,0,0,1,6.81-2.1,11.85,11.85,0,0,1,6.86,2.18l26.95,19a12,12,0,0,1,4.65,12.87l1.84,1.3a6,6,0,0,1,1.45,8.4l-5.28,7.46a6,6,0,0,1-8.4,1.45l-1.21-.86a12.13,12.13,0,0,1-9.77,4.95,11.86,11.86,0,0,1-6.87-2.18l-27-19a12.06,12.06,0,0,1-2.94-16.62l-1.21-.85A6,6,0,0,1,763,227l5.28-7.47a6,6,0,0,1,4.93-2.54m0-2.63h0a8.69,8.69,0,0,0-7.08,3.66l-5.27,7.46a8.62,8.62,0,0,0-1.46,6.46,8.53,8.53,0,0,0,2.85,5.06,14.74,14.74,0,0,0,4.84,18l27,19.05a14.43,14.43,0,0,0,8.39,2.67,14.85,14.85,0,0,0,10.2-4.11A8.66,8.66,0,0,0,824,270.12l5.27-7.46a8.66,8.66,0,0,0-2.07-12.06l-.47-.33a14.68,14.68,0,0,0-6-13.84l-27-19.05a14.62,14.62,0,0,0-15.06-1.06l-.46-.33a8.61,8.61,0,0,0-5-1.59Z"/><path class="cls-35" d="M767.08,231.71l2.45,1.74a3,3,0,0,0,4.19-.74l3.5-5a3,3,0,0,0-.7-4.2l-2.45-1.74a3,3,0,0,0-4.2.74l-3.5,4.95A3,3,0,0,0,767.08,231.71Z"/><path class="cls-14" d="M790.85,255.39,786,252a12.07,12.07,0,0,1-2.89-16.81l1.8-2.54a6,6,0,0,1,8.4-1.44L808,241.56a6,6,0,0,1,1.44,8.4l-1.79,2.54A12.07,12.07,0,0,1,790.85,255.39Z"/><path class="cls-37" d="M790.85,255.39,786,252a12.07,12.07,0,0,1-2.89-16.81l1.8-2.54a6,6,0,0,1,8.4-1.44L808,241.56a6,6,0,0,1,1.44,8.4l-1.79,2.54A12.07,12.07,0,0,1,790.85,255.39Z"/><rect class="cls-14" x="794.1" y="248.34" width="3.03" height="6" rx="1.51" transform="translate(131.14 755.96) rotate(-54.75)"/><rect class="cls-36" x="794.1" y="248.34" width="3.03" height="6" rx="1.51" transform="translate(131.14 755.96) rotate(-54.75)"/><rect class="cls-36" x="785.63" y="242.44" width="3.03" height="6" rx="1.51" transform="matrix(0.58, -0.82, 0.82, 0.58, 132.37, 746.55)"/><rect class="cls-34" x="808.49" y="254.22" width="6.05" height="6" rx="3" transform="translate(133.06 771.43) rotate(-54.75)"/><rect class="cls-36" x="771.85" y="221.52" width="3.43" height="16.89" transform="translate(272.08 -402.33) rotate(35.03)"/><rect class="cls-12" x="774.18" y="229.97" width="6.05" height="6" rx="3" transform="translate(138.36 733.17) rotate(-54.75)"/><path class="cls-38" d="M784.28,176.53a24.24,24.24,0,0,0-48.47,0,23.93,23.93,0,0,0,1,6.92l29.73,16.43A24.25,24.25,0,0,0,784.28,176.53Z"/><path class="cls-30" d="M787.86,176.53a27.82,27.82,0,1,0-55.25,4.6l4.21,2.32a23.93,23.93,0,0,1-1-6.92,24.24,24.24,0,1,1,30.74,23.35l4.21,2.32A27.85,27.85,0,0,0,787.86,176.53Z"/><g class="cls-39"><path class="cls-40" d="M754.81,186.28s-1,0-2.44-.16a35.69,35.69,0,0,1-3.6-.61c-4.48-1-7.25-5.57-2.62-8.87,0,0,3.68-5,12.21-.41,2.41,1.31,3.42.61,4.71.1l-4.73,8.36Z"/><path class="cls-41" d="M759.85,182s-7.66,2.14-18.38-10.65"/><path class="cls-42" d="M752.37,186.12c-.3,0,4.31.54,7.61-7.47.45-1.1,1.17-2.91,1.42-3.51,1.33-3.14,4.55-10,10.85-9.18,0,0,5.62,1.11,3.86,7.3a11,11,0,0,1-2.31,4.2C771,180.66,763.68,187.44,752.37,186.12Z"/><path class="cls-40" d="M760,185.8c5.73-3.57,9.49-8.27,11.19-14a22.75,22.75,0,0,0,.91-5.87l.19,0a5.81,5.81,0,0,1,1.32.49,23.79,23.79,0,0,1-.94,5.71,25.23,25.23,0,0,1-8.07,12.17A23.83,23.83,0,0,1,760,185.8Z"/></g><path class="cls-30" d="M738.57,180.43l-6.05.64,4.75,2.63,27.89,15.41,5.73,3.17-4-7.14A29,29,0,0,0,738.57,180.43Z"/><circle class="cls-20" cx="735.19" cy="152.84" r="14.92"/><path class="cls-30" d="M735.19,169.27a16.43,16.43,0,1,1,16.42-16.43A16.44,16.44,0,0,1,735.19,169.27Zm0-29.85a13.43,13.43,0,1,0,13.42,13.42A13.43,13.43,0,0,0,735.19,139.42Z"/><path class="cls-15" d="M916.47,278.26H577.58a21.8,21.8,0,0,1-19.12-11.33l-84.26-154a9.87,9.87,0,0,1,8.66-14.61H831a15.79,15.79,0,0,1,13.85,8.21L928.1,258.62A13.27,13.27,0,0,1,916.47,278.26Z"/><path class="cls-15" d="M916.47,278.26H577.58a21.8,21.8,0,0,1-19.12-11.33l-84.26-154a9.87,9.87,0,0,1,8.66-14.61H831a15.79,15.79,0,0,1,13.85,8.21L928.1,258.62A13.27,13.27,0,0,1,916.47,278.26Z"/><path class="cls-21" d="M678.52,267.24c-35.28-87.5-110.06-49-110.06-49s-12.13-46.1-62.94-48l52.94,96.75a21.8,21.8,0,0,0,19.12,11.33H681.36A42.34,42.34,0,0,0,678.52,267.24Z"/><path class="cls-14" d="M679.92,266.68c-11.28-28-27.73-46.13-48.91-54-27.88-10.37-54.8.33-61.62,3.44a73.92,73.92,0,0,0-12.75-22.84c-8.93-10.91-25.13-23.87-52-24.62l1.68,3.06c19.82.95,35.92,8.8,47.88,23.37A69.71,69.71,0,0,1,567,218.61l.48,1.81,1.66-.86c.3-.15,30.45-15.36,60.81-4.07,20.36,7.57,36.23,25.17,47.17,52.31a40.51,40.51,0,0,1,2.69,10.46h3A43.7,43.7,0,0,0,679.92,266.68Z"/><path class="cls-38" d="M509.22,115.17c-12.93,0-24,4.28-28.17,10.29l9.78,17.87a49.49,49.49,0,0,0,18.39,3.31c16.58,0,30-7,30-15.74S525.8,115.17,509.22,115.17Z"/><path class="cls-14" d="M509.22,113.67c-13.16,0-24.19,4.19-29,10.33l1.62,3c3.52-5.87,14.62-10.29,27.35-10.29,15.46,0,28.53,6.51,28.53,14.23s-13.07,14.24-28.53,14.24a46.52,46.52,0,0,1-19.6-4L492,145.4a52.64,52.64,0,0,0,17.26,2.74c17.68,0,31.53-7.57,31.53-17.24S526.9,113.67,509.22,113.67Z"/><path class="cls-18" d="M591.15,213.94h0a34,34,0,0,1,34,34v0a0,0,0,0,1,0,0h-34a0,0,0,0,1,0,0v-34A0,0,0,0,1,591.15,213.94Z" transform="translate(16.46 501.3) rotate(-45.35)"/><path class="cls-30" d="M608.33,257.13l-26.34-26,1-1.07a35.57,35.57,0,0,1,50.24-.3l1.07,1Zm-22.08-26,22,21.78,21.78-22A32.57,32.57,0,0,0,586.25,231.11Z"/><path class="cls-15" d="M916.47,278.26H577.58a21.8,21.8,0,0,1-19.12-11.33l-84.26-154a9.87,9.87,0,0,1,8.66-14.61H831a15.79,15.79,0,0,1,13.85,8.21L928.1,258.62A13.27,13.27,0,0,1,916.47,278.26Z"/><polygon class="cls-22" points="557.95 265.98 607.32 232.22 579.01 190.83 533.75 221.78 557.95 265.98"/><path class="cls-14" d="M579.4,188.75,533,220.46l1.45,2.64,44.14-30.18,26.61,38.91-48,32.83,1.24,2.27c.07.13.15.24.22.37l50.72-34.69Z"/><path class="cls-13" d="M552.63,256.28l33-22.57a8.36,8.36,0,0,0,2.19-11.63l-6.37-9.31a8.47,8.47,0,0,0-11.77-2.21l-30.6,20.93Z"/><polygon class="cls-43" points="701.95 261.25 682.7 256.22 668.71 270.38 670.88 278.26 706.63 278.26 701.95 261.25"/><polygon class="cls-44" points="682.7 256.22 684.74 263.57 668.09 271.91 682.7 256.22"/><polygon class="cls-45" points="701.36 260.42 706.63 278.26 696.05 278.26 701.36 260.42"/><polygon class="cls-42" points="670.39 270.82 674.78 278.26 681.36 278.26 684.74 263.57 670.39 270.82"/><polygon class="cls-46" points="682.7 256.22 702.3 262.4 684.74 263.57 682.7 256.22"/><polygon class="cls-44" points="684.74 263.57 696.05 278.26 681.36 278.26 684.74 263.57"/><polygon class="cls-47" points="701.95 261.25 682.7 256.22 668.71 270.38 670.88 278.26 706.63 278.26 701.95 261.25"/><path class="cls-14" d="M703.4,260.85a1.51,1.51,0,0,0-1.07-1.06l-19.25-5a1.49,1.49,0,0,0-1.45.39l-14,14.17a1.49,1.49,0,0,0-.38,1.45l2.05,7.48h3.12l-2.05-7.44,12.77-12.93,17.58,4.59,4.33,15.78h3.12Z"/><polygon class="cls-22" points="863.09 252.5 742.48 252.5 754.74 278.26 875.34 278.26 863.09 252.5"/><polygon class="cls-30" points="864.11 250.89 739.93 250.89 752.95 278.26 756.53 278.26 745.04 254.12 862.07 254.12 873.56 278.26 877.13 278.26 864.11 250.89"/><path class="cls-6" d="M844.88,106.54A15.79,15.79,0,0,0,831,98.33H720.92a36.22,36.22,0,0,0,36,33c1.08,0,2.17,0,3.25-.15a36.15,36.15,0,1,0,70.2,16.5,36.1,36.1,0,0,0,22.1,7.54h0a36.15,36.15,0,0,0,13.28-2.54c1.19-.48,2.35-1,3.46-1.59Z"/><path class="cls-30" d="M868.52,149.73c-1.07.55-2.17,1.06-3.31,1.51a34.57,34.57,0,0,1-36-6.52,34.65,34.65,0,1,1-66.83-15.36,34.64,34.64,0,0,1-40-31h-3a37.71,37.71,0,0,0,37.53,34.46l1.23,0a37.65,37.65,0,1,0,73.24,17.46,37.57,37.57,0,0,0,34.91,3.8,35.15,35.15,0,0,0,3.63-1.67Z"/><path class="cls-19" d="M844.88,106.54A15.79,15.79,0,0,0,831,98.33H760.89a19.26,19.26,0,0,0,20.77,11.54,19.26,19.26,0,1,0,37.16,8.54,19.26,19.26,0,0,0,29.81-5Z"/><path class="cls-21" d="M862.26,138.3l-.73,11.24a3.38,3.38,0,0,1-3.32,3.16l-12,.17a3.37,3.37,0,0,0-2.22,5.87l8.89,8.09a3.38,3.38,0,0,1,.4,4.57l-7.36,9.5a3.37,3.37,0,0,0,3.21,5.4L861,184.39a3.37,3.37,0,0,1,3.82,2.53l2.84,11.68a3.38,3.38,0,0,0,6.23.86l5.9-10.47a3.38,3.38,0,0,1,4.36-1.4l6.85,3.18Z"/><path class="cls-30" d="M889.76,188.55l-5-2.32a4.89,4.89,0,0,0-6.3,2l-5.9,10.47a1.88,1.88,0,0,1-3.46-.48l-2.84-11.68a4.92,4.92,0,0,0-4.75-3.73,4.08,4.08,0,0,0-.77.07l-11.86,1.91a1.84,1.84,0,0,1-1.91-.9,1.8,1.8,0,0,1,.13-2.1l7.35-9.51a4.89,4.89,0,0,0-.57-6.59L845,157.63a1.87,1.87,0,0,1,1.23-3.26l12-.17a4.91,4.91,0,0,0,4.8-4.57l.57-8.88-2.52-4.6a5,5,0,0,0-.27,1.3l-.78,12a1.89,1.89,0,0,1-1.84,1.76l-12,.17a4.87,4.87,0,0,0-3.21,8.48l8.89,8.09a1.88,1.88,0,0,1,.22,2.54l-7.36,9.5a4.88,4.88,0,0,0,4.64,7.8l11.86-1.91a1.89,1.89,0,0,1,2.13,1.41L866.17,199a4.86,4.86,0,0,0,4.08,3.67,3.82,3.82,0,0,0,.68.05,4.84,4.84,0,0,0,4.23-2.48l5.91-10.47a1.87,1.87,0,0,1,2.42-.78l8.69,4Z"/></g><g id="text"><path class="cls-14" d="M917.91,60.54c3,3.64,9.62,3.81,9.83.59.08-1.7-2.67-2.67-5.13-3-4.82-.76-9.23-3.81-9.23-9.53,0-5.89,5.34-9,10.84-9a12.31,12.31,0,0,1,10.25,4.79l-5,3.81c-3.14-3.35-8.52-3.22-8.64.25.08,1.44,1.65,2.29,4,2.8,5.34,1,10.67,2.84,10.33,10.21-.25,5.8-6.35,9-11.86,9A13.12,13.12,0,0,1,913.13,65Z"/><path class="cls-14" d="M952.31,47.19V70h-7.67V47.19h-8V40h23.59v7.2Z"/><path class="cls-14" d="M970.82,70h-7.58V40h7.58Z"/><path class="cls-14" d="M997.46,63.71a12.07,12.07,0,0,1-10.8,6.74c-5.89,0-11.82-3.43-11.82-10.25V49.86c0-6.78,5.93-10.25,11.95-10.25a11.12,11.12,0,0,1,10.54,6.91L991.15,49c-2-3.72-8.73-2.88-8.73.85V60.2c0,3.6,6.78,4.61,8.43.46Z"/><path class="cls-14" d="M1016,40h9.45l-11.86,14.49L1025.38,70h-9.62l-7.67-10.71-.25.34V70h-7.63V40h7.63v11.1Z"/><path class="cls-14" d="M1035,51.81h12.16v6.57H1035v4.49h13.22V70h-20.89V40h20.89v7.12H1035Z"/><path class="cls-14" d="M1061.25,60.49h-1.35V70h-7.67V40h12c6.18,0,11,2.84,11.14,9.87,0,5.55-2.25,8.69-5.89,9.83L1077.65,70h-9.45Zm3.1-6.52a3.43,3.43,0,1,0,0-6.86h-4.45V54Z"/><path class="cls-14" d="M1082.94,60.54c3,3.64,9.62,3.81,9.83.59.08-1.7-2.67-2.67-5.13-3-4.83-.76-9.23-3.81-9.23-9.53,0-5.89,5.34-9,10.84-9a12.31,12.31,0,0,1,10.25,4.79l-5,3.81c-3.14-3.35-8.52-3.22-8.64.25.08,1.44,1.65,2.29,4,2.8,5.33,1,10.67,2.84,10.33,10.21-.25,5.8-6.35,9-11.86,9A13.15,13.15,0,0,1,1078.15,65Z"/><path class="cls-14" d="M830.92,39.66c-6.11,0-12.19,3.33-12.19,10.11V59.84C818.73,66.58,824.85,70,831,70s12.19-3.37,12.19-10.11V49.77C843.15,43,837,39.66,830.92,39.66Zm4.79,20.18c0,2.12-2.37,3.2-4.75,3.2s-4.78-1-4.78-3.2V49.77c0-2.16,2.33-3.33,4.66-3.33s4.87,1,4.87,3.33Z"/><path class="cls-14" d="M885,40.08H874V52.45L881.29,59V47h3.93c2.5,0,3.7,1.2,3.7,3.12v9.19c0,1.91-1.16,3.2-3.7,3.2H874v7h11c5.91,0,11.44-2.91,11.44-9.69v-9.9C896.41,43.08,890.88,40.08,885,40.08Z"/><path class="cls-14" d="M781.87,51.1c-2.29-.5-3.82-1.33-3.91-2.74.13-3.41,5.41-3.54,8.49-.25l4.87-3.75a12.11,12.11,0,0,0-10.07-4.7c-5.41,0-10.65,3-10.65,8.82,0,5.62,4.33,8.61,9.07,9.36,2.41.34,5.12,1.29,5,3-.21,3.16-6.7,3-9.65-.59l-4.7,4.41a12.91,12.91,0,0,0,10,5.33c5.4,0,11.39-3.12,11.64-8.82C792.36,53.89,787.11,52.06,781.87,51.1Z"/><path class="cls-14" d="M802,59.88V49.73c0-3.66,6.57-4.49,8.57-.83l6.07-2.46a10.93,10.93,0,0,0-10.36-6.78c-5.9,0-11.73,3.42-11.73,10.07V59.88c0,6.7,5.83,10.07,11.61,10.07a11.86,11.86,0,0,0,10.61-6.62l-6.49-3C808.62,64.42,802,63.42,802,59.88Z"/><path class="cls-14" d="M869.82,49.77c-.17-6.9-4.87-9.69-10.94-9.69H847.11V69.53h7.53V60.17H856l6.82,9.36h9.28l-8-10.11C867.61,58.3,869.82,55.22,869.82,49.77Zm-10.82,4h-4.36V47H859A3.37,3.37,0,1,1,859,53.77Z"/><rect class="cls-14" x="759.66" y="40.08" width="7.45" height="29.45"/><path class="cls-14" d="M744.22,40.08h-11V52.45L740.54,59V47h3.93c2.5,0,3.71,1.2,3.71,3.12v9.19c0,1.91-1.17,3.2-3.71,3.2H733.2v7h11c5.91,0,11.44-2.91,11.44-9.69v-9.9C755.66,43.08,750.13,40.08,744.22,40.08Z"/></g></svg>