<svg width="24" height="24" viewBox="0 0 24 24" xmlns="http://www.w3.org/2000/svg">
<path d="M21.5912 6.84349L13.7218 12.009C13.5867 12.097 13.4774 12.2193 13.4048 12.3633L12.2051 14.7689C12.1877 14.8088 12.159 14.8428 12.1226 14.8666C12.0862 14.8905 12.0436 14.9032 12 14.9032C11.9564 14.9032 11.9138 14.8905 11.8774 14.8666C11.841 14.8428 11.8123 14.8088 11.7949 14.7689L10.5952 12.3633C10.5226 12.2193 10.4133 12.097 10.2782 12.009L2.40876 6.84349C2.36919 6.79651 2.31258 6.76717 2.25138 6.76192C2.19018 6.75668 2.1294 6.77596 2.08242 6.81552C2.03544 6.85509 2.00609 6.9117 2.00085 6.9729C1.9956 7.0341 2.01488 7.09488 2.05445 7.14186L5.3427 13.5381C5.35868 13.5716 5.36655 13.6084 5.36567 13.6455C5.36479 13.6826 5.35518 13.7189 5.33763 13.7516C5.32007 13.7843 5.29506 13.8124 5.26462 13.8336C5.23419 13.8548 5.19918 13.8686 5.16243 13.8738H3.18575C3.13694 13.8733 3.08925 13.8884 3.04958 13.9168C3.00991 13.9453 2.98032 13.9856 2.96509 14.032C2.94986 14.0784 2.94979 14.1284 2.96487 14.1748C2.97996 14.2212 3.00942 14.2617 3.049 14.2902L11.8632 20.6057C11.9035 20.6332 11.9512 20.6479 12 20.6479C12.0488 20.6479 12.0965 20.6332 12.1368 20.6057L20.951 14.2902C20.9906 14.2617 21.02 14.2212 21.0351 14.1748C21.0502 14.1284 21.0501 14.0784 21.0349 14.032C21.0197 13.9856 20.9901 13.9453 20.9504 13.9168C20.9108 13.8884 20.8631 13.8733 20.8142 13.8738H18.8376C18.7987 13.8723 18.7607 13.8612 18.7271 13.8415C18.6936 13.8218 18.6654 13.7941 18.6451 13.7609C18.6248 13.7277 18.613 13.6899 18.6108 13.6511C18.6086 13.6122 18.616 13.5734 18.6324 13.5381L21.9456 7.14186C21.9851 7.09488 22.0044 7.0341 21.9992 6.9729C21.9939 6.9117 21.9646 6.85509 21.9176 6.81552C21.8706 6.77596 21.8098 6.75668 21.7486 6.76192C21.6874 6.76717 21.6308 6.79651 21.5912 6.84349Z" fill="#FBB848"/>
<path d="M12.1741 2.10696L12.9822 3.75419C12.9965 3.7814 13.0168 3.80503 13.0416 3.82332C13.0663 3.84161 13.0949 3.8541 13.1251 3.85986L14.9464 4.12093C14.982 4.12617 15.0155 4.14129 15.043 4.16459C15.0705 4.18789 15.0909 4.21842 15.1019 4.25273C15.1129 4.28704 15.1141 4.32375 15.1053 4.35868C15.0964 4.39362 15.078 4.42539 15.0521 4.45038L13.7343 5.73087C13.713 5.7529 13.697 5.77941 13.6873 5.80845C13.6776 5.83749 13.6746 5.86833 13.6783 5.8987L13.9891 7.70755C13.996 7.74242 13.9927 7.77851 13.9797 7.81159C13.9667 7.84466 13.9446 7.87333 13.9158 7.89423C13.8871 7.91513 13.853 7.92738 13.8175 7.92955C13.7821 7.93172 13.7467 7.92371 13.7156 7.90646L12.0871 7.05487C12.0606 7.0396 12.0306 7.03156 12 7.03156C11.9695 7.03156 11.9395 7.0396 11.913 7.05487L10.2844 7.90646C10.2534 7.92371 10.218 7.93172 10.1825 7.92955C10.1471 7.92738 10.113 7.91513 10.0842 7.89423C10.0555 7.87333 10.0333 7.84466 10.0203 7.81159C10.0074 7.77851 10.0041 7.74242 10.0109 7.70755L10.3217 5.8987C10.3255 5.86833 10.3225 5.83749 10.3128 5.80845C10.3031 5.77941 10.287 5.7529 10.2658 5.73087L8.94799 4.45038C8.92204 4.42539 8.90361 4.39362 8.89481 4.35868C8.886 4.32375 8.88717 4.28704 8.89817 4.25273C8.90917 4.21842 8.92958 4.18789 8.95706 4.16459C8.98455 4.14129 9.01801 4.12617 9.05366 4.12093L10.8749 3.86608C10.9052 3.86032 10.9337 3.84783 10.9585 3.82954C10.9832 3.81125 11.0035 3.78762 11.0179 3.76041L11.826 2.11318C11.841 2.07997 11.8652 2.05171 11.8956 2.03169C11.9261 2.01166 11.9616 2.00068 11.9981 2.00003C12.0345 1.99938 12.0704 2.00908 12.1016 2.02801C12.1327 2.04694 12.1579 2.07431 12.1741 2.10696Z" fill="#FBB848"/>
</svg>
