<svg width="24" height="24" viewBox="0 0 24 24" xmlns="http://www.w3.org/2000/svg">
<path d="M5.92127 6.03526C5.92127 6.03526 6.14242 5.7044 6.23413 5.55783C6.32585 5.41126 5.9967 5.06497 5.86899 4.95526C5.74127 4.84555 5.53985 4.9004 5.53985 4.9004C3.9327 5.61269 3.1287 7.07412 3.01899 7.3664C2.90927 7.65869 3.29842 7.97755 3.58556 8.13355C3.71756 8.20555 3.92756 8.04612 4.05699 7.92783L4.1007 7.88326L4.16842 7.81469L4.16927 7.81383L8.54156 12.169L9.13899 11.5715L10.237 10.4735L5.91527 6.04126L5.92127 6.03526Z" fill="#5865F2"/>
<path d="M16.2505 10.6294L16.4811 10.41L18.5528 12.462C18.5674 12.4749 18.5828 12.48 18.5965 12.48C18.636 12.48 18.6685 12.444 18.6685 12.444C18.6685 12.444 20.9622 10.1683 20.97 10.1606C21.0377 10.0937 20.97 10.0569 20.97 10.0569L19.2008 8.27571L19.1982 8.27829L18.9557 8.04086L19.0911 7.91057L19.3808 7.944L19.326 7.56L19.3988 7.48629L19.29 6.93257C18.912 6.39686 17.8765 5.53886 17.8765 5.53886L17.3348 5.44114L17.28 5.514L16.872 5.45314L16.9114 5.80114L16.9371 5.82686L16.8162 5.94857L16.1477 5.29457C16.1477 5.29457 12.2682 3.18771 12.0617 3.09C11.9451 3.036 11.8594 3 11.7771 3C11.7137 3 11.652 3.02143 11.5808 3.072C11.4162 3.18771 11.5131 3.42086 11.5131 3.42086L13.9251 7.878L14.4077 8.35629L14.2568 8.50714L14.2011 8.56286L13.8154 8.50971L13.8745 8.892L13.7631 9.00343L13.7434 8.98371C13.7254 8.96571 13.7005 8.95629 13.6765 8.95629C13.6525 8.95629 13.6285 8.96571 13.6097 8.98371C13.5728 9.02057 13.5728 9.08057 13.6097 9.11743L13.6294 9.13714L13.5762 9.19114L13.5625 9.17657C13.5437 9.15857 13.5197 9.14914 13.4957 9.14914C13.4708 9.14914 13.4468 9.15857 13.4288 9.17657C13.392 9.21343 13.392 9.27343 13.4288 9.31029L13.4434 9.32486L12.4285 10.3449L12.4054 10.3217C12.3865 10.3037 12.3625 10.2943 12.3385 10.2943C12.3145 10.2943 12.2905 10.3037 12.2717 10.3217C12.2348 10.3586 12.2348 10.4186 12.2717 10.4554L12.2957 10.4786L12.2417 10.5326L12.2237 10.5154C12.2057 10.4966 12.1808 10.4871 12.1577 10.4871C12.1328 10.4871 12.1088 10.4966 12.09 10.5154C12.054 10.5523 12.054 10.6114 12.09 10.6483L12.108 10.6663L11.976 10.8L11.958 10.9697L12.0274 11.0409L12.0257 11.0417L11.9417 11.1274L6.46538 16.6029L6.39424 16.5437L6.1671 16.5763L6.03852 16.7066L6.02995 16.698C6.0111 16.6791 5.9871 16.6697 5.9631 16.6697C5.9391 16.6697 5.91424 16.6791 5.89624 16.698C5.85938 16.7349 5.85938 16.794 5.89624 16.8309L5.90652 16.8411L5.85338 16.896L5.84824 16.8909C5.83024 16.872 5.80538 16.8626 5.78138 16.8626C5.75738 16.8626 5.73338 16.872 5.71452 16.8909C5.67852 16.9277 5.67852 16.9869 5.71452 17.0237L5.72052 17.0306L4.71852 18.0497L4.69795 18.0291C4.6791 18.0103 4.65595 18.0017 4.6311 18.0017C4.6071 18.0017 4.5831 18.0103 4.56424 18.0291C4.52738 18.066 4.52738 18.126 4.56424 18.1629L4.58652 18.1843L4.53338 18.2383L4.5171 18.222C4.49824 18.204 4.47424 18.1946 4.44938 18.1946C4.42624 18.1946 4.40138 18.204 4.38338 18.222C4.34652 18.2589 4.34652 18.3189 4.38338 18.3557L4.40052 18.3737L4.32595 18.45L3.93767 18.3806L3.96681 18.8143L3.84424 18.9394L3.95052 19.524C3.95052 19.524 4.11338 20.0331 4.44852 20.3709C4.77338 20.6983 5.26881 20.8551 5.29024 20.8714L5.84995 20.9691L5.98795 20.8337L6.37367 20.8963L6.31024 20.5149L6.42767 20.4L6.48167 20.454C6.49967 20.472 6.52367 20.4814 6.54767 20.4814C6.57167 20.4814 6.59652 20.472 6.61452 20.454C6.65138 20.4163 6.65138 20.3571 6.61452 20.3203L6.56138 20.2671L6.61624 20.214L6.66252 20.2603C6.68052 20.2791 6.70538 20.2886 6.72938 20.2886C6.75338 20.2886 6.77738 20.2791 6.79624 20.2603C6.8331 20.2234 6.8331 20.1643 6.79624 20.1274L6.75081 20.0811L7.76824 19.0774L7.81281 19.122C7.83081 19.1409 7.85567 19.1494 7.87967 19.1494C7.90367 19.1494 7.92767 19.1409 7.94652 19.122C7.98252 19.0851 7.98252 19.0251 7.94652 18.9883L7.90281 18.9454L7.95681 18.8914L7.99452 18.9291C8.01252 18.9471 8.03652 18.9566 8.06052 18.9566C8.08538 18.9566 8.10938 18.9471 8.12738 18.9291C8.16424 18.8923 8.16424 18.8323 8.12738 18.7954L8.09052 18.7586L8.20452 18.6471L8.24567 18.4029L8.18481 18.342L8.18567 18.3411L8.29624 18.2314L13.7357 12.7903L13.7331 12.7851L13.8394 12.8949L14.01 12.876L14.1634 12.7217L14.1882 12.7466C14.2071 12.7646 14.2311 12.774 14.2551 12.774C14.2791 12.774 14.304 12.7646 14.322 12.7466C14.3588 12.7097 14.3588 12.6497 14.322 12.6129L14.2971 12.588L14.3511 12.5349L14.37 12.5537C14.388 12.5717 14.412 12.5811 14.4368 12.5811C14.4608 12.5811 14.4848 12.5717 14.5028 12.5537C14.5397 12.5169 14.5397 12.4569 14.5028 12.42L14.484 12.4003L15.5005 11.382L15.5271 11.4086C15.5451 11.4266 15.5691 11.436 15.5931 11.436C15.618 11.436 15.642 11.4266 15.66 11.4086C15.6968 11.3717 15.6968 11.3117 15.66 11.2749L15.6334 11.2483L15.6874 11.1943L15.708 11.2157C15.7268 11.2337 15.7508 11.2431 15.7748 11.2431C15.7988 11.2431 15.8228 11.2337 15.8417 11.2157C15.8785 11.178 15.8785 11.1189 15.8417 11.082L15.8211 11.0606L15.9342 10.9474L16.3122 11.0066L16.2505 10.6294Z" fill="#5865F2"/>
<path d="M17.0057 16.7793L14.5946 14.9519L14.1652 14.5096L12.5015 16.1733L12.9198 16.5728L14.4909 18.929L16.6097 21.2493L19.0518 18.971L17.0057 16.7793Z" fill="#5865F2"/>
</svg>
