<svg width="266" height="160" viewBox="0 0 266 160" fill="none" xmlns="http://www.w3.org/2000/svg">
<path d="M236.933 0.787918H28.1315C24.1576 0.787918 20.936 4.06971 20.936 8.11801V147.196C20.936 151.245 24.1576 154.526 28.1315 154.526H236.933C240.907 154.526 244.128 151.245 244.128 147.196V8.11801C244.128 4.06971 240.907 0.787918 236.933 0.787918Z" fill="#11111A"/>
<path d="M236.933 2.13701C238.494 2.13697 239.992 2.76567 241.1 3.88605C242.208 5.00643 242.837 6.52763 242.848 8.11801V147.165C242.848 148.763 242.225 150.296 241.116 151.426C240.006 152.556 238.502 153.191 236.933 153.191H28.1757C26.6068 153.191 25.1022 152.556 23.9929 151.426C22.8836 150.296 22.2604 148.763 22.2604 147.165V8.11801C22.272 6.52763 22.9004 5.00643 24.0084 3.88605C25.1165 2.76567 26.6144 2.13697 28.1757 2.13701H236.933ZM236.933 0.787918H28.1757C26.2632 0.787882 24.4284 1.55872 23.072 2.9321C21.7156 4.30548 20.9477 6.16982 20.936 8.11801V147.165C20.936 149.121 21.6988 150.997 23.0565 152.38C24.4142 153.763 26.2556 154.54 28.1757 154.54H236.933C238.853 154.54 240.694 153.763 242.052 152.38C243.41 150.997 244.173 149.121 244.173 147.165V8.11801C244.161 6.16982 243.393 4.30548 242.037 2.9321C240.68 1.55872 238.845 0.787882 236.933 0.787918V0.787918Z" fill="#B8B9C9"/>
<path d="M265.009 151.347H0.100098V156.559H265.009V151.347Z" fill="url(#paint0_linear)"/>
<path d="M150.675 152.696H114.433C114.085 152.685 113.755 152.539 113.509 152.289C113.263 152.038 113.12 151.701 113.109 151.347H152C151.989 151.701 151.846 152.038 151.6 152.289C151.354 152.539 151.023 152.685 150.675 152.696Z" fill="#B8B9C9"/>
<path d="M0.100098 156.563C5.49802 157.89 10.9881 158.792 16.5217 159.262H248.587C254.121 158.792 259.611 157.89 265.009 156.563H0.100098Z" fill="#ACADBF"/>
<mask id="mask0" mask-type="alpha" maskUnits="userSpaceOnUse" x="25" y="5" width="215" height="139">
<path d="M239.317 5.64467H25.792V143.491H239.317V5.64467Z" fill="#36393F"/>
</mask>
<g mask="url(#mask0)">
<rect x="25.9648" y="5.46274" width="262.037" height="186.893" rx="6.63796" fill="#292841"/>
<path d="M25.9648 12.1007C25.9648 8.43465 28.9368 5.46274 32.6028 5.46274H80.3108V192.356H32.6028C28.9368 192.356 25.9648 189.384 25.9648 185.718V12.1007Z" fill="#1C1B29"/>
<g clip-path="url(#clip0)">
<path fill-rule="evenodd" clip-rule="evenodd" d="M92.2405 26.9731C92.0287 26.9731 91.8682 26.7821 91.9045 26.5735L92.0807 25.5625H91.1144C90.8958 25.5625 90.7299 25.3657 90.7669 25.1502C90.796 24.981 90.9427 24.8573 91.1144 24.8573H92.2018L92.5688 22.7415H91.6025C91.3839 22.7415 91.218 22.5446 91.255 22.3292C91.284 22.16 91.4308 22.0363 91.6025 22.0363H92.6899L92.8865 20.9082C92.9149 20.7449 93.0567 20.6257 93.2224 20.6257C93.4342 20.6257 93.5947 20.8167 93.5584 21.0253L93.3822 22.0363H95.4591L95.6557 20.9082C95.6841 20.7449 95.8259 20.6257 95.9916 20.6257C96.2034 20.6257 96.3639 20.8167 96.3276 21.0253L96.1514 22.0363H97.1177C97.3363 22.0363 97.5022 22.2331 97.4652 22.4486C97.4361 22.6178 97.2894 22.7415 97.1177 22.7415H96.0303L95.6634 24.8573H96.6296C96.8482 24.8573 97.0141 25.0542 96.9771 25.2696C96.9481 25.4389 96.8013 25.5625 96.6296 25.5625H95.5422L95.3457 26.6906C95.3172 26.8539 95.1755 26.9731 95.0097 26.9731C94.798 26.9731 94.6374 26.7821 94.6737 26.5735L94.8499 25.5625H92.773L92.5764 26.6906C92.548 26.8539 92.4062 26.9731 92.2405 26.9731ZM93.2613 22.7415L92.8944 24.8573H94.9713L95.3382 22.7415H93.2613Z" fill="#B9BBBE"/>
</g>
<path d="M103.981 25.2663C103.981 24.6246 103.642 24.3848 102.777 24.1591C102.278 24.0251 102.153 23.9193 102.153 23.7359C102.153 23.5526 102.306 23.4256 102.617 23.4256C102.95 23.4256 103.344 23.5455 103.677 23.7359L103.787 23.0307C103.455 22.8826 103.053 22.7909 102.617 22.7909C101.842 22.7909 101.385 23.207 101.385 23.7994C101.385 24.42 101.724 24.6598 102.534 24.8714C103.067 25.0054 103.213 25.1041 103.213 25.3439C103.213 25.5696 103.019 25.7036 102.659 25.7036C102.243 25.7036 101.8 25.5414 101.44 25.3016L101.33 26.0069C101.648 26.1832 102.147 26.3383 102.631 26.3383C103.51 26.3383 103.981 25.9363 103.981 25.2663Z" fill="white"/>
<path d="M106.426 26.2678L106.322 25.5555C106.246 25.5767 106.156 25.5837 106.059 25.5837C105.741 25.5837 105.623 25.4356 105.623 25.1606V23.5526H106.405L106.302 22.8614H105.623V21.6554L104.799 21.7824V22.8614H104.328V23.5526H104.799V25.3016C104.799 26.0774 105.242 26.3242 105.9 26.3242C106.142 26.3242 106.295 26.296 106.426 26.2678Z" fill="white"/>
<path d="M107.033 22.8614V25.3087C107.033 25.9504 107.358 26.3383 107.988 26.3383C108.431 26.3383 108.791 26.0915 109.103 25.7882L109.179 26.2678H109.885V22.8614H109.054V25.1606C108.812 25.4144 108.549 25.5837 108.293 25.5837C107.988 25.5837 107.863 25.3862 107.863 25.09V22.8614H107.033Z" fill="white"/>
<path d="M111.403 24.6105C111.403 23.8629 111.714 23.5032 112.15 23.5032C112.434 23.5032 112.593 23.5526 112.801 23.6513V25.1112C112.58 25.4003 112.344 25.5837 112.04 25.5837C111.673 25.5837 111.403 25.2734 111.403 24.6105ZM110.565 24.6598C110.565 25.8094 111.126 26.3383 111.825 26.3383C112.289 26.3383 112.614 26.0844 112.85 25.7953L112.919 26.2678H113.632V21.1759L112.801 21.3099V22.9531C112.6 22.8826 112.344 22.8262 112.026 22.8262C111.25 22.8262 110.565 23.3904 110.565 24.6598Z" fill="white"/>
<path d="M114.83 27.5514C115.432 27.5514 115.82 27.3045 116.104 26.4864L117.384 22.8614H116.547L115.799 25.2593L115.037 22.8121L114.172 22.9249L115.384 26.2608L115.356 26.3595C115.245 26.7262 115.024 26.8532 114.747 26.8532C114.601 26.8532 114.484 26.832 114.38 26.8038L114.49 27.5161C114.567 27.5373 114.65 27.5514 114.83 27.5514Z" fill="white"/>
<path d="M119.533 24.6457V23.8276H117.733V24.6457H119.533Z" fill="white"/>
<path d="M122.091 23.9687C122.091 24.3425 121.87 24.6175 121.503 24.6175C121.143 24.6175 120.921 24.3495 120.921 23.9969C120.921 23.6231 121.136 23.3339 121.503 23.3339C121.856 23.3339 122.091 23.609 122.091 23.9687ZM123.275 26.4089C123.275 25.887 122.846 25.6683 122.16 25.5696L121.731 25.5273C121.212 25.4497 121.108 25.4215 121.108 25.3087C121.108 25.2522 121.164 25.1888 121.247 25.1253C121.33 25.1394 121.42 25.1465 121.517 25.1465C122.237 25.1465 122.853 24.7092 122.853 23.9757C122.853 23.8206 122.825 23.6654 122.763 23.5314L123.372 23.4891L123.261 22.8121L122.444 23.1083C122.202 22.9037 121.884 22.7909 121.496 22.7909C120.748 22.7909 120.153 23.2493 120.153 23.9969C120.153 24.4482 120.388 24.8009 120.783 24.9913C120.506 25.1606 120.36 25.3439 120.36 25.5343C120.36 25.6683 120.423 25.7953 120.554 25.9011C120.139 26.1409 119.924 26.3877 119.924 26.7051C119.924 27.2693 120.61 27.5514 121.517 27.5514C122.486 27.5514 123.275 27.1423 123.275 26.4089ZM121.572 27.0506C120.942 27.0506 120.644 26.8673 120.644 26.6134C120.644 26.4371 120.755 26.2749 120.997 26.0985C121.164 26.1338 121.267 26.155 121.496 26.1832L121.946 26.2396C122.361 26.3031 122.507 26.4089 122.507 26.5922C122.507 26.8461 122.167 27.0506 121.572 27.0506Z" fill="white"/>
<path d="M125.882 23.6302L125.75 22.7909C125.231 22.8191 124.899 23.1506 124.677 23.5455L124.574 22.8614H123.867V26.2678H124.698V24.3142C124.94 23.9475 125.363 23.6654 125.882 23.6302Z" fill="white"/>
<path d="M129.298 24.5611C129.298 23.4538 128.634 22.7909 127.72 22.7909C126.813 22.7909 126.148 23.4609 126.148 24.5681C126.148 25.6754 126.806 26.3383 127.713 26.3383C128.627 26.3383 129.298 25.6683 129.298 24.5611ZM128.488 24.5681C128.488 25.2029 128.225 25.6472 127.713 25.6472C127.228 25.6472 126.958 25.1888 126.958 24.5611C126.958 23.9334 127.222 23.482 127.713 23.482C128.212 23.482 128.488 23.9405 128.488 24.5681Z" fill="white"/>
<path d="M129.959 22.8614V25.3087C129.959 25.9504 130.284 26.3383 130.914 26.3383C131.357 26.3383 131.717 26.0915 132.029 25.7882L132.105 26.2678H132.811V22.8614H131.98V25.1606C131.738 25.4144 131.475 25.5837 131.219 25.5837C130.914 25.5837 130.789 25.3862 130.789 25.09V22.8614H129.959Z" fill="white"/>
<path d="M135.886 24.5188C135.886 25.2663 135.561 25.626 135.132 25.626C134.848 25.626 134.689 25.5767 134.488 25.4779V24.018C134.709 23.7289 134.945 23.5385 135.242 23.5385C135.616 23.5385 135.886 23.8629 135.886 24.5188ZM136.724 24.4694C136.724 23.3269 136.163 22.7909 135.464 22.7909C135 22.7909 134.675 23.0518 134.439 23.3269L134.363 22.8614H133.657V27.5796L134.488 27.4526V26.1691C134.689 26.2467 134.945 26.3031 135.263 26.3031C136.032 26.3031 136.724 25.7389 136.724 24.4694Z" fill="white"/>
<mask id="mask1" mask-type="alpha" maskUnits="userSpaceOnUse" x="90" y="37" width="14" height="15">
<ellipse cx="96.9265" cy="44.6045" rx="6.92305" ry="7.05256" fill="#C4C4C4"/>
</mask>
<g mask="url(#mask1)">
<ellipse cx="96.9265" cy="44.6045" rx="6.92305" ry="7.05256" fill="#F7E5BC"/>
<path d="M104.889 49.019L103.948 51.2296C103.874 51.4042 103.767 51.5619 103.633 51.6934C103.498 51.825 103.339 51.9277 103.165 51.9956C102.991 52.0634 102.805 52.095 102.619 52.0884C102.432 52.0818 102.249 52.0372 102.08 51.9572L98.564 50.3272L100.315 47.5149L102.458 48.7322L102.774 47.7807C103.879 48.2285 104.47 48.6202 104.889 49.019Z" fill="#F7E5BC"/>
<path d="M100.802 47.9486C102.217 48.1864 102.347 48.4873 102.725 49.2428L101.207 49.0679L100.802 47.9486Z" fill="#F7E5BC"/>
<path d="M94.1414 35.9649C93.8601 36.0542 93.6226 36.2493 93.4772 36.5104C93.3319 36.7715 93.2894 37.0792 93.3586 37.3711L94.7664 43.2265L97.2867 42.6948L95.5904 36.7624C95.548 36.6123 95.4766 36.4724 95.3804 36.3507C95.2842 36.229 95.1652 36.1281 95.0303 36.0539C94.8953 35.9796 94.7473 35.9335 94.5946 35.9182C94.442 35.903 94.288 35.9188 94.1414 35.9649Z" fill="#D6569B"/>
<path d="M95.5418 41.8553L96.5376 41.8134L95.48 38.2875C95.4654 38.2368 95.4406 38.1897 95.4074 38.1492C95.3741 38.1087 95.333 38.0756 95.2866 38.052C95.2402 38.0283 95.1895 38.0147 95.1377 38.0119C95.086 38.0091 95.0342 38.0172 94.9856 38.0357C94.9003 38.0688 94.8301 38.1328 94.7883 38.2154C94.7465 38.298 94.736 38.3934 94.7589 38.4834L95.5418 41.8553Z" fill="#E374B0"/>
<path d="M99.9716 35.9369C100.254 36.0234 100.494 36.2161 100.641 36.476C100.789 36.7359 100.835 37.0434 100.768 37.3361L99.4222 43.1985L96.895 42.7018L98.5294 36.7484C98.5705 36.5979 98.6406 36.4571 98.7357 36.3345C98.8308 36.2119 98.9489 36.1098 99.0832 36.0342C99.2175 35.9586 99.3652 35.9111 99.5178 35.8944C99.6703 35.8777 99.8246 35.8922 99.9716 35.9369Z" fill="#D6569B"/>
<path d="M99.0172 41.8413L98.0283 41.8063L99.0447 38.2665C99.0592 38.2158 99.0839 38.1688 99.1173 38.1285C99.1507 38.0882 99.192 38.0554 99.2386 38.0324C99.2852 38.0093 99.336 37.9964 99.3877 37.9946C99.4395 37.9927 99.4911 38.002 99.5391 38.0217C99.6242 38.0534 99.6948 38.1157 99.7379 38.1969C99.7809 38.2781 99.7932 38.3725 99.7726 38.4624L99.0172 41.8413Z" fill="#E374B0"/>
<path d="M101.84 50.3762L101.428 51.7054L101.373 51.8732L100.864 53.4963H91.4151C91.3258 53.1395 91.4357 53.0695 91.6761 52.6708C91.9164 52.272 91.7928 52.3769 91.8272 51.4115C91.8546 50.7329 92.095 50.1033 92.9534 49.3198C93.2143 49.0889 93.2761 48.998 93.544 48.7462L93.6264 48.6692L93.6676 48.6272L93.7225 48.5852L100.178 47.5499L101.476 49.7535L101.84 50.3762Z" fill="#F7E5BC"/>
<path d="M101.427 51.7054C101.386 52.342 101.331 52.9436 101.263 53.4963H94.3197C94.3266 53.2094 94.3334 52.8527 94.3472 52.4189C94.346 52.3722 94.3483 52.3254 94.354 52.279V51.7403C94.306 50.4601 93.9489 49.5856 92.9531 49.3198C93.1385 49.1309 93.3308 48.942 93.5437 48.7462L93.6261 48.6692L93.7223 48.5852L100.178 47.5499C100.686 47.7388 101.022 47.8717 101.407 48.2704C101.448 48.7741 101.469 49.2708 101.475 49.7535C101.482 50.4321 101.462 51.0827 101.427 51.7054Z" fill="#1F3A70"/>
<path d="M100.807 44.7809L93.3153 45.0862C92.3292 45.1264 91.5618 45.9733 91.6012 46.9779L91.6013 46.9807C91.6408 47.9852 92.4721 48.767 93.4582 48.7268L100.95 48.4215C101.937 48.3814 102.704 47.5344 102.664 46.5299L102.664 46.5271C102.625 45.5225 101.794 44.7408 100.807 44.7809Z" fill="#F06EA8"/>
<path d="M100.417 41.3972L93.1368 41.708C92.0948 41.7525 91.2854 42.6492 91.3291 43.7107L91.3317 43.7744C91.3754 44.8359 92.2556 45.6604 93.2976 45.6159L100.577 45.3051C101.619 45.2606 102.429 44.364 102.385 43.3024L102.383 43.2388C102.339 42.1772 101.459 41.3527 100.417 41.3972Z" fill="#F06EA8"/>
<path d="M100.926 48.3614C101.887 48.3194 102.677 47.5289 102.677 46.5495C102.68 46.1933 102.58 45.8442 102.39 45.5455C102.199 45.2469 101.926 45.0121 101.606 44.8705C101.847 44.6828 102.041 44.4386 102.17 44.1585C102.299 43.8784 102.36 43.5707 102.347 43.2615V43.1985C102.337 42.9458 102.277 42.6977 102.172 42.4684C102.068 42.2391 101.919 42.0331 101.736 41.8622C101.553 41.6913 101.339 41.5589 101.106 41.4725C100.872 41.3861 100.624 41.3474 100.376 41.3586L93.8798 41.6385C93.2961 42.7788 93.3785 44.003 93.8112 44.8845C93.8743 45.0179 93.9099 45.1631 93.9158 45.3111C93.9217 45.4591 93.8978 45.6068 93.8455 45.745C93.2206 47.4379 94.0447 48.6622 94.0447 48.6622L100.926 48.3614Z" fill="#E05FA3"/>
<path d="M95.68 44.9319C95.8451 44.8219 95.8543 44.5388 95.7006 44.2995C95.5469 44.0603 95.2885 43.9555 95.1235 44.0655C94.9585 44.1756 94.9493 44.4587 95.103 44.6979C95.2566 44.9372 95.515 45.0419 95.68 44.9319Z" fill="#1B1926"/>
<path d="M98.9342 44.4095C99.0056 44.149 98.9213 43.8974 98.746 43.8475C98.5706 43.7977 98.3706 43.9684 98.2992 44.2289C98.2278 44.4894 98.3121 44.741 98.4874 44.7909C98.6628 44.8407 98.8628 44.67 98.9342 44.4095Z" fill="#1B1926"/>
<path d="M96.4002 45.7729C96.8534 46.5565 97.5196 46.7384 97.9659 45.724C97.9712 45.7149 97.9739 45.7045 97.9736 45.6939C97.9733 45.6834 97.9701 45.6732 97.9644 45.6644C97.9586 45.6556 97.9506 45.6487 97.9411 45.6444C97.9317 45.64 97.9212 45.6385 97.911 45.64L96.4483 45.682C96.4384 45.6832 96.4289 45.6867 96.4207 45.6924C96.4124 45.6981 96.4057 45.7058 96.4009 45.7147C96.3962 45.7236 96.3937 45.7336 96.3936 45.7437C96.3934 45.7539 96.3957 45.7639 96.4002 45.7729Z" fill="#751B40"/>
<path d="M97.3135 45.661L96.4483 45.682C96.4384 45.6832 96.4289 45.6867 96.4207 45.6924C96.4124 45.6981 96.4057 45.7058 96.4009 45.7147C96.3962 45.7236 96.3937 45.7336 96.3936 45.7437C96.3934 45.7539 96.3957 45.7639 96.4002 45.7729C96.7916 46.4445 97.3341 46.6754 97.7668 46.0878C97.6594 45.9038 97.502 45.7556 97.3135 45.661Z" fill="#9C2455"/>
</g>
<g clip-path="url(#clip1)">
<rect x="109.388" y="37.5519" width="16.6153" height="7.05256" rx="3.31898" fill="#FDD171"/>
<rect x="127.388" y="40.3729" width="16.6153" height="4.23154" rx="2.11577" fill="#72767D"/>
</g>
<path d="M109.388 49.334C109.388 47.5009 110.874 46.015 112.707 46.015H172.53C174.363 46.015 175.849 47.5009 175.849 49.334V62.4432C175.849 64.2762 174.363 65.7622 172.53 65.7622H112.707C110.874 65.7622 109.388 64.2762 109.388 62.4432V49.334Z" fill="#1C1B29"/>
<path d="M123.234 54.976C123.234 53.143 124.72 51.657 126.553 51.657H169.761C171.594 51.657 173.08 53.143 173.08 54.976V56.8011C173.08 58.6341 171.594 60.1201 169.761 60.1201H126.553C124.72 60.1201 123.234 58.6341 123.234 56.8011V54.976Z" fill="#DCDDDE"/>
<path d="M115.965 59.7675C114.962 59.7675 114.234 58.9519 114.234 57.828V54.8307C114.234 53.4233 115.201 52.3623 116.484 52.3623C117.767 52.3623 118.734 53.4233 118.734 54.8307V57.2991H118.042V54.8307C118.042 53.8088 117.386 53.0675 116.484 53.0675C115.581 53.0675 114.926 53.8088 114.926 54.8307V57.828C114.926 58.4427 115.247 59.0622 115.965 59.0622C116.682 59.0622 117.003 58.4427 117.003 57.828V55.1833C117.003 54.971 116.953 54.4781 116.484 54.4781C116.015 54.4781 115.965 54.971 115.965 55.1833V57.6517H115.272V55.1833C115.272 54.3395 115.759 53.7728 116.484 53.7728C117.208 53.7728 117.695 54.3395 117.695 55.1833V57.828C117.695 58.9519 116.967 59.7675 115.965 59.7675Z" fill="#B9BBBE"/>
<mask id="mask2" mask-type="alpha" maskUnits="userSpaceOnUse" x="90" y="71" width="14" height="15">
<ellipse cx="96.9265" cy="78.4568" rx="6.92305" ry="7.05257" fill="#C4C4C4"/>
</mask>
<g mask="url(#mask2)">
<ellipse cx="96.9265" cy="78.4568" rx="6.92305" ry="7.05257" fill="#FFB869"/>
<path d="M93.3735 80.76C94.1815 83.6222 97.4319 85.6052 100.04 83.7345C102.647 81.8637 100.058 78.0287 100.058 78.0287C100.058 78.0287 101.472 74.3995 97.9277 73.539C94.3835 72.6785 93.5021 74.2499 93.3735 80.76Z" fill="#4D7AE8"/>
<path d="M98.6259 78.6648C98.2303 78.6648 97.9097 78.2293 97.9097 77.692C97.9097 77.1548 98.2303 76.7193 98.6259 76.7193C99.0214 76.7193 99.342 77.1548 99.342 77.692C99.342 78.2293 99.0214 78.6648 98.6259 78.6648Z" fill="#DBE7FF"/>
<path d="M98.9329 78.4307C98.8317 78.4237 98.7605 78.2592 98.7735 78.0634C98.7865 77.8675 98.8793 77.7144 98.9805 77.7215C99.0817 77.7285 99.1531 77.893 99.1399 78.0888C99.1268 78.2847 99.0341 78.4377 98.9329 78.4307Z" fill="#201E2F"/>
<path d="M99.4522 75.8774C99.4046 75.7321 99.3135 75.6057 99.1916 75.5162C99.0695 75.4266 98.9231 75.3785 98.7727 75.3785C98.6223 75.3785 98.4758 75.4266 98.3539 75.5162C98.232 75.6057 98.1408 75.7321 98.0933 75.8774H99.4522Z" fill="#201E2F"/>
<path d="M99.3788 80.0117C98.681 80.1988 97.928 80.0304 97.3037 79.3382C97.2221 79.2434 97.1076 79.1846 96.9843 79.1741C96.8609 79.1637 96.7384 79.2024 96.6426 79.2821C96.5381 79.3543 96.466 79.4656 96.4419 79.5918C96.4178 79.718 96.4437 79.8488 96.514 79.9556C97.4689 81.5457 98.9564 81.7889 99.8746 80.891C99.9376 80.8333 99.9844 80.7596 100.01 80.6774C100.036 80.5952 100.04 80.5075 100.022 80.4233C100.009 80.3517 99.9815 80.2836 99.9416 80.2233C99.9016 80.163 99.8496 80.1119 99.7892 80.0732C99.7288 80.0344 99.661 80.009 99.5903 79.9984C99.5196 79.9878 99.4476 79.9923 99.3788 80.0117Z" fill="#590942"/>
<path d="M98.8456 80.0866C99.0257 80.0881 99.2052 80.0629 99.3781 80.0117H99.5434V80.4794C99.5434 80.4794 99.268 80.6852 98.2396 80.5729V80.3111L96.4399 79.6937C96.4406 79.6166 96.4593 79.5408 96.4944 79.4725C96.5295 79.4042 96.5801 79.3453 96.6419 79.3009C96.6419 79.2959 96.6439 79.2911 96.6473 79.2876C96.6508 79.2841 96.6554 79.2822 96.6603 79.2822C96.7358 79.2295 96.826 79.2032 96.9174 79.2073C96.9358 79.1886 96.9725 79.2073 96.9909 79.2073H97.1561C97.1745 79.226 97.1929 79.226 97.1929 79.2447C97.1929 79.2634 97.2296 79.2447 97.2296 79.2634L97.303 79.3196C97.4117 79.4464 97.535 79.5595 97.6703 79.6563L97.9274 79.8246C98.0471 79.8998 98.1771 79.9565 98.313 79.993C98.4846 80.0531 98.6643 80.0847 98.8456 80.0866Z" fill="#DBE7FF"/>
<path d="M96.6419 79.2822C96.6419 79.2772 96.6439 79.2724 96.6473 79.2689C96.6508 79.2654 96.6554 79.2635 96.6603 79.2635C96.7358 79.2108 96.826 79.1845 96.9174 79.1886C96.9358 79.1699 96.9725 79.1886 96.9909 79.1886H97.1561C97.1745 79.2073 97.1929 79.2073 97.1929 79.226C97.1929 79.2447 97.2296 79.226 97.2296 79.2447L97.303 79.3009C97.3608 79.3785 97.4288 79.4478 97.505 79.5067L96.9909 79.8247L96.4399 79.6376C96.4461 79.5669 96.4674 79.4985 96.5023 79.4371C96.5372 79.3757 96.5849 79.3228 96.6419 79.2822Z" fill="#B5CDFF"/>
<path d="M94.1265 74.8485C94.7876 73.352 95.9445 73.0526 97.9278 73.539C98.3271 73.6299 98.711 73.7812 99.0663 73.988C99.1765 74.5866 98.2767 74.7737 96.6056 74.2312C97.1565 75.2414 96.0179 77.0373 94.1265 74.8485Z" fill="#201E2F"/>
<path d="M96.4402 73.4829L96.5321 72.2482C96.5403 72.1355 96.5245 72.0223 96.4859 71.9164C96.4473 71.8105 96.3867 71.7143 96.3083 71.6343C96.2298 71.5544 96.1354 71.4927 96.0314 71.4534C95.9274 71.414 95.8163 71.398 95.7057 71.4064C95.5811 71.4136 95.46 71.4515 95.3529 71.5168C95.2458 71.5822 95.1559 71.673 95.0909 71.7816C95.0259 71.8901 94.9877 72.0131 94.9796 72.14C94.9716 72.2669 94.9939 72.3939 95.0446 72.5101L95.5955 73.7822L96.4402 73.4829Z" fill="#201E2F"/>
<path d="M91.6658 80.0866L92.2167 80.2923L93.3736 79.5253V80.4794L94.3285 81.2464C94.5291 81.4144 94.6943 81.622 94.8142 81.8567C94.9341 82.0913 95.0063 82.3483 95.0263 82.612L95.063 83.379C96.4587 84.5576 98.3685 84.9317 100.04 83.7345C100.311 83.5496 100.553 83.3223 100.756 83.061L101.325 83.2668C101.325 83.2668 100.168 88.2243 98.24 89.1222C96.3118 90.0202 94.9712 89.1222 94.9712 89.1222C92.9512 82.1256 93.5389 80.8161 88.5439 82.8365L88.3052 81.4148L91.6658 80.0866Z" fill="#EF6767"/>
<path d="M95.6687 77.8604L92.0327 74.3995L91.7021 74.8298L94.5118 80.1614L95.6687 77.8604Z" fill="#4D7AE8"/>
<path d="M94.3469 77.0747L92.9146 76.0458L94.0164 78.0662L93.8144 77.2804L94.3469 77.0747Z" fill="#3366E0"/>
</g>
<g clip-path="url(#clip2)">
<rect x="109.388" y="71.4042" width="39.8278" height="16.5949" rx="3.31898" fill="#FDD171"/>
</g>
<path d="M109.388 83.1863C109.388 81.3533 110.874 79.8673 112.707 79.8673H172.531C174.364 79.8673 175.849 81.3533 175.849 83.1863V83.6009C175.849 85.4339 174.364 86.9199 172.531 86.9199H109.388V83.1863Z" fill="#DCDDDE"/>
<path d="M109.388 86.9199H142.619V90.6535C142.619 92.4865 141.133 93.9724 139.3 93.9724H112.707C110.874 93.9724 109.388 92.4865 109.388 90.6535V86.9199Z" fill="#DCDDDE"/>
<mask id="mask3" mask-type="alpha" maskUnits="userSpaceOnUse" x="90" y="99" width="14" height="15">
<ellipse cx="96.9265" cy="106.667" rx="6.92305" ry="7.05257" fill="#C4C4C4"/>
</mask>
<g mask="url(#mask3)">
<ellipse cx="96.9265" cy="106.667" rx="6.92305" ry="7.05257" fill="#FF82A6"/>
<path d="M100.854 101.252L100.833 101.312L100.772 101.459L100.752 101.519L100.704 101.626C99.6597 104.076 97.668 105.888 96.3483 107.147C94.9816 108.444 93.445 109.543 91.7831 110.413C90.1464 111.216 89.411 110.504 89.5991 109.148L89.7657 108.466L90.5855 105.032L90.6205 104.865C91.1752 102.627 92.021 101.34 94.7564 100.634L98.9187 99.5799L98.9319 99.5733C100.385 99.2109 101.393 99.7027 100.854 101.252Z" fill="url(#paint1_linear)"/>
<path d="M100.434 99.5936C99.1148 99.8226 96.6391 101.444 94.1803 103.82C91.7216 106.197 89.8391 108.816 89.6652 110.098C89.8937 110.781 90.6021 110.99 91.7876 110.413C93.4489 109.545 94.9848 108.446 96.3509 107.149C97.67 105.891 99.6609 104.081 100.705 101.633L100.753 101.526L100.773 101.466L100.834 101.319L100.855 101.259C101.175 100.351 100.965 99.8094 100.434 99.5936Z" fill="url(#paint2_linear)"/>
<path d="M96.4916 106.268C98.8723 103.967 100.455 101.728 100.028 101.269C99.5998 100.81 97.3231 102.303 94.9424 104.605C92.5618 106.907 90.9786 109.145 91.4064 109.604C91.8342 110.063 94.1109 108.57 96.4916 106.268Z" fill="#6B3143"/>
<path d="M96.0131 110.286L95.3809 110.752C95.2284 110.855 95.1002 110.992 95.0058 111.151C94.9115 111.311 94.8532 111.489 94.8354 111.674L94.7261 112.511L93.6121 113.551C93.379 113.784 93.2407 114.097 93.2254 114.427L93.2287 115.224C93.2287 115.224 99.2804 118.481 102.545 117.877C105.809 117.273 103.849 111.6 103.849 111.6C103.82 111.545 103.777 111.498 103.724 111.466C103.671 111.434 103.61 111.418 103.548 111.418L102.58 111.355L102.171 110.328C102.133 110.233 102.073 110.149 101.995 110.084C101.918 110.018 101.826 109.973 101.727 109.952L98.8729 109.352L96.0131 110.286Z" fill="#EF6270"/>
<path d="M96.1347 111.981C95.2663 111.817 95.3254 111.838 95.5744 111.43C95.717 111.178 95.9249 110.97 96.1754 110.829L96.1347 111.981Z" fill="#BD3C53"/>
<path d="M97.4896 103.804C97.3853 103.689 96.5052 104.33 95.5291 105.252C94.5531 106.174 93.8489 107.01 93.9532 107.124C95.1135 108.927 95.885 110.64 96.1193 111.989L100.865 112.912C100.627 108.632 98.6683 105.713 97.4896 103.804Z" fill="#FFB685"/>
<path d="M99.2686 107.609C99.2294 107.457 99.1144 107.357 99.0117 107.385C98.909 107.413 98.8576 107.559 98.8968 107.711C98.936 107.863 99.051 107.963 99.1537 107.935C99.2564 107.907 99.3078 107.761 99.2686 107.609Z" fill="#543247"/>
<path d="M97.7126 108.507C97.7871 108.398 97.7341 108.229 97.5941 108.131C97.4542 108.032 97.2803 108.041 97.2058 108.15C97.1312 108.26 97.1842 108.428 97.3242 108.527C97.4641 108.626 97.638 108.617 97.7126 108.507Z" fill="#543247"/>
<path d="M98.6881 109.995C99.0859 109.795 99.4508 109.596 99.6215 109.643C99.7922 109.691 99.7158 110.012 99.5268 110.372C99.3378 110.733 99.3925 110.573 98.9591 110.457C98.5257 110.342 98.3831 110.147 98.6881 109.995Z" fill="#C74153"/>
<path d="M98.854 109.928L98.5481 110.147C98.5597 110.275 98.7361 110.402 98.9595 110.457C99.1829 110.511 99.4397 110.532 99.5274 110.372L99.6086 110.198C99.4978 110.104 99.1908 109.875 98.854 109.928Z" fill="#A82C3C"/>
<path d="M99.4552 109.642C99.1899 109.736 98.9331 109.853 98.6878 109.993C98.5157 110.079 98.5277 110.172 98.6054 110.266L99.5185 109.843C99.5715 109.816 99.5069 109.716 99.4552 109.642Z" fill="white"/>
<path d="M100.607 108.378C100.614 108.358 100.601 108.331 100.608 108.311C100.593 108.176 100.537 108.049 100.447 107.948C100.357 107.847 100.239 107.777 100.108 107.748C100.14 107.777 100.164 107.812 100.18 107.852C100.196 107.892 100.203 107.936 100.2 107.979C100.197 108.022 100.184 108.064 100.162 108.102C100.141 108.139 100.111 108.171 100.076 108.196C99.9486 108.27 99.806 108.313 99.6597 108.321C99.4692 108.344 99.2856 108.408 99.1217 108.51C98.9578 108.612 98.8176 108.75 98.7111 108.912C98.0401 108.883 97.8043 109.316 97.3274 109.555C97.1988 109.623 97.0604 109.67 96.9176 109.694C96.4492 109.779 96.3726 109.585 96.3627 109.324C95.844 109.75 96.1656 110.352 96.5653 110.501C96.8008 110.615 97.1175 110.556 97.4499 110.29C98.2702 110.494 98.5612 110.381 99.0383 109.595C99.8192 109.785 100.323 109.466 100.365 108.731C100.431 108.697 100.488 108.647 100.53 108.585C100.572 108.524 100.599 108.452 100.607 108.378Z" fill="#6B3143"/>
<path d="M99.0386 109.595C99.8193 109.785 100.323 109.467 100.365 108.732C100.431 108.698 100.488 108.648 100.53 108.586C100.572 108.525 100.599 108.453 100.607 108.379C100.614 108.359 100.601 108.332 100.608 108.312C100.595 108.243 100.573 108.176 100.544 108.112C100.553 108.222 100.521 108.333 100.454 108.421C100.387 108.51 100.291 108.57 100.183 108.591C99.946 109.125 99.4709 109.23 98.926 109.121C98.926 109.121 98.3098 109.993 97.4632 109.803C96.8648 110.302 96.2272 110.239 96.095 109.758C96.082 109.918 96.1211 110.077 96.2062 110.211C96.2913 110.346 96.4178 110.447 96.5661 110.501C96.8016 110.615 97.1182 110.556 97.4506 110.291C98.2706 110.494 98.5616 110.381 99.0386 109.595Z" fill="#5E2737"/>
</g>
<g clip-path="url(#clip3)">
<rect x="109.388" y="99.6145" width="16.6153" height="7.05257" rx="3.31898" fill="#FFA78B"/>
<rect x="127.388" y="102.436" width="16.6153" height="4.23154" rx="2.11577" fill="#72767D"/>
</g>
<path d="M109.388 111.397C109.388 109.564 110.874 108.078 112.707 108.078H172.531C174.364 108.078 175.849 109.564 175.849 111.397V111.811C175.849 113.644 174.364 115.13 172.531 115.13H112.707C110.874 115.13 109.388 113.644 109.388 111.811V111.397Z" fill="#DCDDDE"/>
<mask id="mask4" mask-type="alpha" maskUnits="userSpaceOnUse" x="90" y="120" width="14" height="15">
<ellipse cx="96.9265" cy="127.825" rx="6.92305" ry="7.05256" fill="#C4C4C4"/>
</mask>
<g mask="url(#mask4)">
<ellipse cx="96.9265" cy="127.825" rx="6.92305" ry="7.05256" fill="#F7E5BC"/>
<path d="M104.889 132.239L103.948 134.45C103.874 134.624 103.767 134.782 103.633 134.914C103.498 135.045 103.339 135.148 103.165 135.216C102.991 135.284 102.805 135.315 102.619 135.309C102.432 135.302 102.249 135.257 102.08 135.177L98.564 133.547L100.315 130.735L102.458 131.952L102.774 131.001C103.879 131.449 104.47 131.84 104.889 132.239Z" fill="#F7E5BC"/>
<path d="M100.802 131.169C102.217 131.407 102.347 131.708 102.725 132.463L101.207 132.288L100.802 131.169Z" fill="#F7E5BC"/>
<path d="M94.1414 119.185C93.8601 119.275 93.6226 119.47 93.4772 119.731C93.3319 119.992 93.2894 120.3 93.3586 120.591L94.7664 126.447L97.2867 125.915L95.5904 119.983C95.548 119.833 95.4766 119.693 95.3804 119.571C95.2842 119.449 95.1652 119.348 95.0303 119.274C94.8953 119.2 94.7472 119.154 94.5946 119.139C94.442 119.123 94.288 119.139 94.1414 119.185Z" fill="#D6569B"/>
<path d="M95.5418 125.076L96.5376 125.034L95.48 121.508C95.4654 121.457 95.4406 121.41 95.4074 121.369C95.3741 121.329 95.333 121.296 95.2866 121.272C95.2402 121.249 95.1895 121.235 95.1377 121.232C95.086 121.229 95.0342 121.237 94.9856 121.256C94.9003 121.289 94.8301 121.353 94.7883 121.436C94.7465 121.518 94.736 121.614 94.7589 121.704L95.5418 125.076Z" fill="#E374B0"/>
<path d="M99.9716 119.157C100.254 119.244 100.494 119.436 100.641 119.696C100.789 119.956 100.835 120.264 100.768 120.556L99.4222 126.419L96.895 125.922L98.5294 119.969C98.5705 119.818 98.6406 119.677 98.7357 119.555C98.8308 119.432 98.9489 119.33 99.0832 119.254C99.2175 119.179 99.3652 119.131 99.5178 119.115C99.6703 119.098 99.8246 119.112 99.9716 119.157Z" fill="#D6569B"/>
<path d="M99.0172 125.062L98.0283 125.027L99.0447 121.487C99.0592 121.436 99.0839 121.389 99.1173 121.349C99.1507 121.308 99.192 121.276 99.2386 121.253C99.2852 121.23 99.336 121.217 99.3877 121.215C99.4395 121.213 99.4911 121.222 99.5391 121.242C99.6242 121.274 99.6948 121.336 99.7379 121.417C99.7809 121.498 99.7932 121.593 99.7726 121.683L99.0172 125.062Z" fill="#E374B0"/>
<path d="M101.84 133.596L101.428 134.926L101.373 135.094L100.864 136.717H91.4151C91.3258 136.36 91.4357 136.29 91.6761 135.891C91.9164 135.492 91.7928 135.597 91.8272 134.632C91.8546 133.953 92.095 133.324 92.9534 132.54C93.2143 132.309 93.2761 132.218 93.544 131.966L93.6264 131.889L93.6676 131.847L93.7225 131.806L100.178 130.77L101.476 132.974L101.84 133.596Z" fill="#F7E5BC"/>
<path d="M101.427 134.926C101.386 135.562 101.331 136.164 101.263 136.717H94.3197C94.3266 136.43 94.3334 136.073 94.3472 135.639C94.346 135.592 94.3483 135.546 94.354 135.499V134.961C94.306 133.68 93.9489 132.806 92.9531 132.54C93.1385 132.351 93.3308 132.162 93.5437 131.966L93.6261 131.889L93.7223 131.806L100.177 130.77C100.686 130.959 101.022 131.092 101.407 131.491C101.448 131.994 101.469 132.491 101.475 132.974C101.482 133.652 101.462 134.303 101.427 134.926Z" fill="#1F3A70"/>
<path d="M100.807 128.001L93.3153 128.307C92.3292 128.347 91.5618 129.194 91.6012 130.198L91.6013 130.201C91.6408 131.205 92.4721 131.987 93.4582 131.947L100.95 131.642C101.937 131.602 102.704 130.755 102.664 129.75L102.664 129.747C102.625 128.743 101.794 127.961 100.807 128.001Z" fill="#F06EA8"/>
<path d="M100.417 124.617L93.1368 124.928C92.0948 124.973 91.2854 125.869 91.3291 126.931L91.3317 126.995C91.3754 128.056 92.2556 128.881 93.2976 128.836L100.577 128.525C101.619 128.481 102.429 127.584 102.385 126.523L102.383 126.459C102.339 125.398 101.459 124.573 100.417 124.617Z" fill="#F06EA8"/>
<path d="M100.926 131.582C101.887 131.54 102.677 130.749 102.677 129.77C102.68 129.414 102.58 129.064 102.39 128.766C102.199 128.467 101.926 128.232 101.606 128.091C101.847 127.903 102.041 127.659 102.17 127.379C102.299 127.099 102.36 126.791 102.347 126.482V126.419C102.337 126.166 102.277 125.918 102.172 125.689C102.068 125.459 101.919 125.253 101.736 125.082C101.553 124.912 101.339 124.779 101.106 124.693C100.872 124.606 100.624 124.568 100.376 124.579L93.8798 124.859C93.2961 125.999 93.3785 127.223 93.8112 128.105C93.8743 128.238 93.9099 128.383 93.9158 128.531C93.9217 128.679 93.8978 128.827 93.8455 128.965C93.2206 130.658 94.0447 131.882 94.0447 131.882L100.926 131.582Z" fill="#E05FA3"/>
<path d="M95.68 128.152C95.8451 128.042 95.8543 127.759 95.7006 127.52C95.5469 127.281 95.2885 127.176 95.1235 127.286C94.9585 127.396 94.9493 127.679 95.103 127.918C95.2566 128.157 95.515 128.262 95.68 128.152Z" fill="#1B1926"/>
<path d="M98.9342 127.63C99.0056 127.369 98.9213 127.118 98.746 127.068C98.5706 127.018 98.3706 127.189 98.2992 127.449C98.2278 127.71 98.3121 127.961 98.4874 128.011C98.6628 128.061 98.8628 127.89 98.9342 127.63Z" fill="#1B1926"/>
<path d="M96.4002 128.993C96.8534 129.777 97.5196 129.959 97.9659 128.944C97.9712 128.935 97.9739 128.925 97.9736 128.914C97.9733 128.904 97.9701 128.893 97.9644 128.885C97.9586 128.876 97.9506 128.869 97.9411 128.865C97.9317 128.86 97.9212 128.859 97.911 128.86L96.4483 128.902C96.4384 128.903 96.4289 128.907 96.4207 128.913C96.4124 128.918 96.4057 128.926 96.4009 128.935C96.3962 128.944 96.3937 128.954 96.3936 128.964C96.3934 128.974 96.3957 128.984 96.4002 128.993Z" fill="#751B40"/>
<path d="M97.3135 128.881L96.4483 128.902C96.4384 128.903 96.4289 128.907 96.4207 128.913C96.4124 128.918 96.4057 128.926 96.4009 128.935C96.3962 128.944 96.3937 128.954 96.3936 128.964C96.3934 128.974 96.3957 128.984 96.4002 128.993C96.7916 129.665 97.3341 129.896 97.7668 129.308C97.6594 129.124 97.502 128.976 97.3135 128.881Z" fill="#9C2455"/>
</g>
<g clip-path="url(#clip4)">
<rect x="109.388" y="120.772" width="16.6153" height="7.05256" rx="3.31898" fill="#BED3FF"/>
<rect x="127.388" y="123.593" width="16.6153" height="4.23154" rx="2.11577" fill="#72767D"/>
</g>
<path d="M109.388 132.554C109.388 130.721 110.874 129.235 112.707 129.235H172.531C174.364 129.235 175.849 130.721 175.849 132.554V136.288H109.388V132.554Z" fill="#DCDDDE"/>
<path d="M109.388 136.288H175.849V140.021C175.849 141.854 174.364 143.34 172.531 143.34H112.707C110.874 143.34 109.388 141.854 109.388 140.021V136.288Z" fill="#DCDDDE"/>
<path fill-rule="evenodd" clip-rule="evenodd" d="M33.74 29.7941C33.5282 29.7941 33.3677 29.6031 33.404 29.3945L33.5802 28.3836H32.614C32.3953 28.3836 32.2294 28.1867 32.2664 27.9712C32.2955 27.802 32.4422 27.6783 32.614 27.6783H33.7013L34.0683 25.5625H33.102C32.8834 25.5625 32.7175 25.3657 32.7545 25.1502C32.7836 24.981 32.9303 24.8573 33.102 24.8573H34.1894L34.386 23.7293C34.4144 23.566 34.5562 23.4468 34.7219 23.4468C34.9337 23.4468 35.0942 23.6377 35.0579 23.8463L34.8817 24.8573H36.9586L37.1552 23.7293C37.1836 23.566 37.3254 23.4468 37.4911 23.4468C37.7029 23.4468 37.8634 23.6377 37.8271 23.8463L37.6509 24.8573H38.6172C38.8358 24.8573 39.0017 25.0542 38.9647 25.2696C38.9356 25.4389 38.7889 25.5625 38.6172 25.5625H37.5298L37.1629 27.6783H38.1291C38.3477 27.6783 38.5137 27.8752 38.4766 28.0906C38.4476 28.2599 38.3008 28.3836 38.1291 28.3836H37.0417L36.8452 29.5116C36.8167 29.6749 36.675 29.7941 36.5092 29.7941C36.2975 29.7941 36.1369 29.6031 36.1733 29.3945L36.3494 28.3836H34.2725L34.0759 29.5116C34.0475 29.6749 33.9057 29.7941 33.74 29.7941ZM34.7608 25.5625L34.3939 27.6783H36.4708L36.8378 25.5625H34.7608Z" fill="#B9BBBE"/>
<rect x="43.272" y="22.3889" width="31.4999" height="8.46307" rx="3.31898" fill="#B9BBBE"/>
<path fill-rule="evenodd" clip-rule="evenodd" d="M33.74 46.7202C33.5282 46.7202 33.3677 46.5293 33.404 46.3207L33.5802 45.3097H32.614C32.3953 45.3097 32.2294 45.1128 32.2664 44.8974C32.2955 44.7282 32.4422 44.6045 32.614 44.6045H33.7013L34.0683 42.4887H33.102C32.8834 42.4887 32.7175 42.2918 32.7545 42.0764C32.7836 41.9071 32.9303 41.7834 33.102 41.7834H34.1894L34.386 40.6554C34.4144 40.4921 34.5562 40.3729 34.7219 40.3729C34.9337 40.3729 35.0942 40.5639 35.0579 40.7725L34.8817 41.7834H36.9586L37.1552 40.6554C37.1836 40.4921 37.3254 40.3729 37.4911 40.3729C37.7029 40.3729 37.8634 40.5639 37.8271 40.7725L37.6509 41.7834H38.6172C38.8358 41.7834 39.0017 41.9803 38.9647 42.1958C38.9356 42.365 38.7889 42.4887 38.6172 42.4887H37.5298L37.1629 44.6045H38.1291C38.3477 44.6045 38.5137 44.8013 38.4766 45.0168C38.4476 45.186 38.3008 45.3097 38.1291 45.3097H37.0417L36.8452 46.4378C36.8167 46.601 36.675 46.7202 36.5092 46.7202C36.2975 46.7202 36.1369 46.5293 36.1733 46.3207L36.3494 45.3097H34.2725L34.0759 46.4378C34.0475 46.601 33.9057 46.7202 33.74 46.7202ZM34.7608 42.4887L34.3939 44.6045H36.4708L36.8378 42.4887H34.7608Z" fill="#B9BBBE"/>
<rect x="43.272" y="39.315" width="28.7307" height="8.46307" rx="3.31898" fill="#B9BBBE"/>
<path fill-rule="evenodd" clip-rule="evenodd" d="M33.74 63.6464C33.5282 63.6464 33.3677 63.4554 33.404 63.2468L33.5802 62.2359H32.614C32.3953 62.2359 32.2294 62.039 32.2664 61.8235C32.2955 61.6543 32.4422 61.5306 32.614 61.5306H33.7013L34.0683 59.4149H33.102C32.8834 59.4149 32.7175 59.218 32.7545 59.0025C32.7836 58.8333 32.9303 58.7096 33.102 58.7096H34.1894L34.386 57.5816C34.4144 57.4183 34.5562 57.2991 34.7219 57.2991C34.9337 57.2991 35.0942 57.49 35.0579 57.6986L34.8817 58.7096H36.9586L37.1552 57.5816C37.1836 57.4183 37.3254 57.2991 37.4911 57.2991C37.7029 57.2991 37.8634 57.49 37.8271 57.6986L37.6509 58.7096H38.6172C38.8358 58.7096 39.0017 58.9065 38.9647 59.1219C38.9356 59.2912 38.7889 59.4149 38.6172 59.4149H37.5298L37.1629 61.5306H38.1291C38.3477 61.5306 38.5137 61.7275 38.4766 61.943C38.4476 62.1122 38.3008 62.2359 38.1291 62.2359H37.0417L36.8452 63.3639C36.8167 63.5272 36.675 63.6464 36.5092 63.6464C36.2975 63.6464 36.1369 63.4554 36.1733 63.2468L36.3494 62.2359H34.2725L34.0759 63.3639C34.0475 63.5272 33.9057 63.6464 33.74 63.6464ZM34.7608 59.4149L34.3939 61.5306H36.4708L36.8378 59.4149H34.7608Z" fill="#B9BBBE"/>
<rect x="43.272" y="56.2412" width="31.4999" height="8.46307" rx="3.31898" fill="#B9BBBE"/>
<path fill-rule="evenodd" clip-rule="evenodd" d="M33.74 80.5726C33.5282 80.5726 33.3677 80.3816 33.404 80.173L33.5802 79.162H32.614C32.3953 79.162 32.2294 78.9652 32.2664 78.7497C32.2955 78.5805 32.4422 78.4568 32.614 78.4568H33.7013L34.0683 76.341H33.102C32.8834 76.341 32.7175 76.1441 32.7545 75.9287C32.7836 75.7594 32.9303 75.6358 33.102 75.6358H34.1894L34.386 74.5077C34.4144 74.3444 34.5562 74.2252 34.7219 74.2252C34.9337 74.2252 35.0942 74.4162 35.0579 74.6248L34.8817 75.6358H36.9586L37.1552 74.5077C37.1836 74.3444 37.3254 74.2252 37.4911 74.2252C37.7029 74.2252 37.8634 74.4162 37.8271 74.6248L37.6509 75.6358H38.6172C38.8358 75.6358 39.0017 75.8326 38.9647 76.0481C38.9356 76.2173 38.7889 76.341 38.6172 76.341H37.5298L37.1629 78.4568H38.1291C38.3477 78.4568 38.5137 78.6537 38.4766 78.8691C38.4476 79.0383 38.3008 79.162 38.1291 79.162H37.0417L36.8452 80.2901C36.8167 80.4534 36.675 80.5726 36.5092 80.5726C36.2975 80.5726 36.1369 80.3816 36.1733 80.173L36.3494 79.162H34.2725L34.0759 80.2901C34.0475 80.4534 33.9057 80.5726 33.74 80.5726ZM34.7608 76.341L34.3939 78.4568H36.4708L36.8378 76.341H34.7608Z" fill="#B9BBBE"/>
<rect x="43.272" y="73.1674" width="23.1922" height="8.46308" rx="3.31898" fill="#B9BBBE"/>
<path fill-rule="evenodd" clip-rule="evenodd" d="M33.74 97.4987C33.5282 97.4987 33.3677 97.3078 33.404 97.0992L33.5802 96.0882H32.614C32.3953 96.0882 32.2294 95.8913 32.2664 95.6759C32.2955 95.5066 32.4422 95.3829 32.614 95.3829H33.7013L34.0683 93.2672H33.102C32.8834 93.2672 32.7175 93.0703 32.7545 92.8548C32.7836 92.6856 32.9303 92.5619 33.102 92.5619H34.1894L34.386 91.4339C34.4144 91.2706 34.5562 91.1514 34.7219 91.1514C34.9337 91.1514 35.0942 91.3423 35.0579 91.5509L34.8817 92.5619H36.9586L37.1552 91.4339C37.1836 91.2706 37.3254 91.1514 37.4911 91.1514C37.7029 91.1514 37.8634 91.3423 37.8271 91.5509L37.6509 92.5619H38.6172C38.8358 92.5619 39.0017 92.7588 38.9647 92.9742C38.9356 93.1435 38.7889 93.2672 38.6172 93.2672H37.5298L37.1629 95.3829H38.1291C38.3477 95.3829 38.5137 95.5798 38.4766 95.7953C38.4476 95.9645 38.3008 96.0882 38.1291 96.0882H37.0417L36.8452 97.2162C36.8167 97.3795 36.675 97.4987 36.5092 97.4987C36.2975 97.4987 36.1369 97.3078 36.1733 97.0992L36.3494 96.0882H34.2725L34.0759 97.2162C34.0475 97.3795 33.9057 97.4987 33.74 97.4987ZM34.7608 93.2672L34.3939 95.3829H36.4708L36.8378 93.2672H34.7608Z" fill="#B9BBBE"/>
<rect x="43.272" y="90.0935" width="31.4999" height="8.46308" rx="3.31898" fill="#B9BBBE"/>
</g>
<defs>
<linearGradient id="paint0_linear" x1="0.100098" y1="153.964" x2="265.009" y2="153.964" gradientUnits="userSpaceOnUse">
<stop stop-color="#CCCFDE"/>
<stop offset="0.89" stop-color="#D2D4E2"/>
<stop offset="1" stop-color="#D3D5E3"/>
</linearGradient>
<linearGradient id="paint1_linear" x1="94.9688" y1="101.03" x2="95.6331" y2="108.313" gradientUnits="userSpaceOnUse">
<stop stop-color="#FFC285"/>
<stop offset="1" stop-color="#DB8D6B"/>
</linearGradient>
<linearGradient id="paint2_linear" x1="88.8967" y1="108.526" x2="101.977" y2="102.257" gradientUnits="userSpaceOnUse">
<stop stop-color="#D67569"/>
<stop offset="1" stop-color="#E39E7F"/>
</linearGradient>
<clipPath id="clip0">
<rect width="8.30766" height="8.46308" fill="white" transform="translate(90.0034 19.5679)"/>
</clipPath>
<clipPath id="clip1">
<rect width="34.6153" height="7.05256" fill="white" transform="translate(109.388 37.5519)"/>
</clipPath>
<clipPath id="clip2">
<rect width="34.6153" height="7.05257" fill="white" transform="translate(109.388 71.4042)"/>
</clipPath>
<clipPath id="clip3">
<rect width="34.6153" height="7.05257" fill="white" transform="translate(109.388 99.6145)"/>
</clipPath>
<clipPath id="clip4">
<rect width="34.6153" height="7.05256" fill="white" transform="translate(109.388 120.772)"/>
</clipPath>
</defs>
</svg>
