<svg width="64" height="64" viewBox="0 0 64 64" fill="none" xmlns="http://www.w3.org/2000/svg">
<path fill-rule="evenodd" clip-rule="evenodd" d="M57 0C56.4477 0 56 0.447715 56 1V3C56 3.55228 56.4477 4 57 4C57.5523 4 58 3.55228 58 3V1C58 0.447715 57.5523 0 57 0ZM64 7C64 6.44772 63.5523 6 63 6H61C60.4477 6 60 6.44772 60 7C60 7.55228 60.4477 8 61 8H63C63.5523 8 64 7.55228 64 7ZM56 11C56 10.4477 56.4477 10 57 10C57.5523 10 58 10.4477 58 11V13C58 13.5523 57.5523 14 57 14C56.4477 14 56 13.5523 56 13V11ZM54 7C54 6.44772 53.5523 6 53 6H51C50.4477 6 50 6.44772 50 7C50 7.55228 50.4477 8 51 8H53C53.5523 8 54 7.55228 54 7Z" fill="#58F287"/>
<path d="M8.36261 59.843L11.486 58.8013C11.6394 58.731 11.7694 58.6181 11.8605 58.4761C11.9516 58.334 12 58.1688 12 58C12 57.8312 11.9516 57.666 11.8605 57.5239C11.7694 57.3819 11.6394 57.269 11.486 57.1987L8.36261 56.157C8.14925 56.0606 7.97838 55.8897 7.88207 55.6762L6.76084 52.5511C6.70818 52.3908 6.60626 52.2512 6.46964 52.1522C6.33302 52.0533 6.16866 52 5.99999 52C5.83133 52 5.66698 52.0533 5.53036 52.1522C5.39374 52.2512 5.29182 52.3908 5.23916 52.5511L4.11793 55.6762C4.02162 55.8897 3.85075 56.0606 3.63739 56.157L0.513957 57.1987C0.360602 57.269 0.230643 57.3819 0.139534 57.5239C0.0484247 57.666 0 57.8312 0 58C0 58.1688 0.0484247 58.334 0.139534 58.4761C0.230643 58.6181 0.360602 58.731 0.513957 58.8013L3.63739 59.843C3.75083 59.8774 3.85403 59.9393 3.93785 60.0232C4.02167 60.107 4.08352 60.2103 4.11793 60.3238L5.23916 63.4489C5.29182 63.6092 5.39374 63.7488 5.53036 63.8478C5.66698 63.9467 5.83133 64 5.99999 64C6.16866 64 6.33302 63.9467 6.46964 63.8478C6.60626 63.7488 6.70818 63.6092 6.76084 63.4489L7.88207 60.3238C7.91648 60.2103 7.97833 60.107 8.06215 60.0232C8.14597 59.9393 8.24917 59.8774 8.36261 59.843Z" fill="#FFD01A"/>
<circle cx="32" cy="32" r="24" fill="#202225"/>
<path d="M46.6673 29.3333V21.3333H17.334V29.3333C18.8007 29.3333 20.0007 30.5333 20.0007 32C20.0007 33.4666 18.8007 34.6666 17.334 34.6666V42.6666H46.6673V34.6666C45.2007 34.6666 44.0007 33.4666 44.0007 32C44.0007 30.5333 45.2007 29.3333 46.6673 29.3333ZM33.334 37.3333V40H30.6673V37.3333H28.0007V34.6666H33.334C33.694 34.6666 34.0007 34.44 34.0007 34.16C34.0007 32.7733 27.334 34.16 27.334 29.8266C27.334 28.0933 28.8273 26.6666 30.6673 26.6666V24H33.334V26.6666H36.0007V29.3333H30.6673C30.3073 29.3333 30.0007 29.56 30.0007 29.84C30.0007 31.2266 36.6673 29.84 36.6673 34.1733C36.6673 35.9066 35.174 37.3333 33.334 37.3333Z" fill="#B9BBBE"/>
</svg>
