<svg width="32" height="37" viewBox="0 0 32 37" fill="none" xmlns="http://www.w3.org/2000/svg">
<path d="M28.0615 5H3.93846C2.86788 5 2 5.86015 2 6.9212V35.0788C2 36.1399 2.86788 37 3.93846 37H28.0615C29.1321 37 30 36.1399 30 35.0788V6.9212C30 5.86015 29.1321 5 28.0615 5Z" fill="#4F81FF"/>
<path d="M27.1428 7.7467H4.87207V34.2535H27.1428V7.7467Z" fill="white"/>
<path d="M24.802 13.197H18.9292V16.1258H24.802V13.197Z" fill="#DAE1EA"/>
<path d="M24.802 18.5054H18.9292V21.4341H24.802V18.5054Z" fill="#DAE1EA"/>
<path d="M24.8021 23.8135H7.2124V26.7422H24.8021V23.8135Z" fill="#DAE1EA"/>
<path d="M24.8021 29.1217H7.2124V32.0505H24.8021V29.1217Z" fill="#DAE1EA"/>
<path d="M16.0001 13.197H7.2124V21.4311H16.0001V13.197Z" fill="#A8C3FF"/>
<path d="M7 9.00012H25L24.0294 6.62779C23.6772 5.76778 23.0797 5.03253 22.3126 4.51518C21.5455 3.99784 20.6434 3.72167 19.7206 3.72168H12.2794C11.3566 3.72167 10.4545 3.99784 9.6874 4.51518C8.92035 5.03253 8.32285 5.76778 7.97059 6.62779L7 9.00012Z" fill="#FFD836"/>
<path d="M16.0003 7.44319C18.0388 7.44319 19.6914 5.77698 19.6914 3.7216C19.6914 1.66622 18.0388 0 16.0003 0C13.9617 0 12.3091 1.66622 12.3091 3.7216C12.3091 5.77698 13.9617 7.44319 16.0003 7.44319Z" fill="#FFD836"/>
<path d="M8.00896 26.0514L10.9443 28.9868L23.9957 15.9354L21.0604 13.0001L8.00896 26.0514Z" fill="#ED68AE"/>
<path d="M21.0514 28.9999L23.9868 26.0646L10.9354 13.0132L8.00006 15.9486L21.0514 28.9999Z" fill="#ED68AE"/>
</svg>
